<svg xmlns="http://www.w3.org/2000/svg" version="1.1" style="width:0; height:0; position:absolute; overflow:hidden;">
    <defs>
        <symbol id="home-white" viewBox="0 0 24 24">
            <path style="fill: white" d="M21 13v10h-6v-6h-6v6h-6v-10h-3l12-12 12 12h-3zm-1-5.907v-5.093h-3v2.093l3 3z" />
        </symbol>

        <symbol id="debug-black" viewBox="0 0 24 24">
            <path style="fill: black" d="M7.074 1.408c0-.778.641-1.408 1.431-1.408.942 0 1.626.883 1.38 1.776-.093.336-.042.695.138.995.401.664 1.084 1.073 1.977 1.078.88-.004 1.572-.408 1.977-1.078.181-.299.23-.658.139-.995-.247-.892.435-1.776 1.379-1.776.79 0 1.431.63 1.431 1.408 0 .675-.482 1.234-1.117 1.375-.322.071-.6.269-.77.548-.613 1.017.193 1.917.931 2.823-1.211.562-2.525.846-3.97.846-1.468 0-2.771-.277-3.975-.84.748-.92 1.555-1.803.935-2.83-.168-.279-.446-.477-.768-.548-.636-.14-1.118-.699-1.118-1.374zm3.926 7.531c-1.709-.135-3.271-.599-4.703-1.435-.217.359-.421.738-.601 1.146-.227.514-.646.552-.941.437l-2.295-.89c-.542-.21-1.153.051-1.367.584-.213.533.053 1.136.594 1.346l2.231.866c.496.192.854.694.773 1.274-.106.758-.683 1.111-1.235 1.111h-2.402c-.582 0-1.054.464-1.054 1.037s.472 1.037 1.054 1.037h2.387c.573 0 1.159.372 1.265 1.057.112.728-.228 1.229-.751 1.462l-2.42 1.078c-.53.236-.766.851-.526 1.373s.865.753 1.395.518l2.561-1.14c.307-.137.688-.106.901.259.922 1.587 2.674 3.361 5.134 3.941v-15.061zm9.559 6.513h2.387c.583 0 1.055-.464 1.055-1.037s-.472-1.037-1.055-1.037h-2.402c-.574 0-1.137-.393-1.227-1.052-.092-.677.286-1.147.766-1.333l2.23-.866c.541-.21.808-.813.594-1.346-.213-.533-.825-.795-1.367-.584l-2.294.891c-.329.127-.734.036-.926-.401-.185-.423-.396-.816-.62-1.188-1.433.829-3.008 1.3-4.699 1.439v15.062c2.406-.567 4.134-2.284 5.072-3.837.262-.432.629-.514.964-.364l2.561 1.14c.528.236 1.154.005 1.395-.518.239-.522.005-1.137-.526-1.373l-2.42-1.078c-.494-.221-.867-.738-.764-1.383.128-.803.717-1.135 1.276-1.135z" />
        </symbol>

        <symbol id="error-black" viewBox="0 0 24 24">
            <path d="M12 2c5.514 0 10 4.486 10 10s-4.486 10-10 10-10-4.486-10-10 4.486-10 10-10zm0-2c-6.627 0-12 5.373-12 12s5.373 12 12 12 12-5.373 12-12-5.373-12-12-12zm6 16.538l-4.592-4.548 4.546-4.587-1.416-1.403-4.545 4.589-4.588-4.543-1.405 1.405 4.593 4.552-4.547 4.592 1.405 1.405 4.555-4.596 4.591 4.55 1.403-1.416z" />
        </symbol>

        <symbol id="flash-black" viewBox="0 0 24 24">
            <path style="fill: black" d="M8 24l3-9h-9l14-15-3 9h9l-14 15z" />
        </symbol>

        <symbol id="info-black" viewBox="0 0 24 24">
            <path d="M12 2c5.514 0 10 4.486 10 10s-4.486 10-10 10-10-4.486-10-10 4.486-10 10-10zm0-2c-6.627 0-12 5.373-12 12s5.373 12 12 12 12-5.373 12-12-5.373-12-12-12zm-.001 5.75c.69 0 1.251.56 1.251 1.25s-.561 1.25-1.251 1.25-1.249-.56-1.249-1.25.559-1.25 1.249-1.25zm2.001 12.25h-4v-1c.484-.179 1-.201 1-.735v-4.467c0-.534-.516-.618-1-.797v-1h3v6.265c0 .535.517.558 1 .735v.999z" />
        </symbol>

        <symbol id="lock-black" viewBox="0 0 24 24">
            <path d="M18 10v-4c0-3.313-2.687-6-6-6s-6 2.687-6 6v4h-3v14h18v-14h-3zm-5 7.723v2.277h-2v-2.277c-.595-.347-1-.984-1-1.723 0-1.104.896-2 2-2s2 .896 2 2c0 .738-.404 1.376-1 1.723zm-5-7.723v-4c0-2.206 1.794-4 4-4 2.205 0 4 1.794 4 4v4h-8z" />
        </symbol>

        <symbol id="question-black" viewBox="0 0 24 24">
            <path d="M12 2c5.514 0 10 4.486 10 10s-4.486 10-10 10-10-4.486-10-10 4.486-10 10-10zm0-2c-6.627 0-12 5.373-12 12s5.373 12 12 12 12-5.373 12-12-5.373-12-12-12zm1.25 17c0 .69-.559 1.25-1.25 1.25-.689 0-1.25-.56-1.25-1.25s.561-1.25 1.25-1.25c.691 0 1.25.56 1.25 1.25zm1.393-9.998c-.608-.616-1.515-.955-2.551-.955-2.18 0-3.59 1.55-3.59 3.95h2.011c0-1.486.829-2.013 1.538-2.013.634 0 1.307.421 1.364 1.226.062.847-.39 1.277-.962 1.821-1.412 1.343-1.438 1.993-1.432 3.468h2.005c-.013-.664.03-1.203.935-2.178.677-.73 1.519-1.638 1.536-3.022.011-.924-.284-1.719-.854-2.297z" />
        </symbol>

        <symbol id="reset-black" viewBox="0 0 24 24">
            <path style="fill: black" d="M14 12h-4v-12h4v12zm4.213-10.246l-1.213 1.599c2.984 1.732 5 4.955 5 8.647 0 5.514-4.486 10-10 10s-10-4.486-10-10c0-3.692 2.016-6.915 5-8.647l-1.213-1.599c-3.465 2.103-5.787 5.897-5.787 10.246 0 6.627 5.373 12 12 12s12-5.373 12-12c0-4.349-2.322-8.143-5.787-10.246z" />
        </symbol>

        <symbol id="security-black" viewBox="0 0 24 24">
            <path style="fill: black" d="M12 0c-3.371 2.866-5.484 3-9 3v11.535c0 4.603 3.203 5.804 9 9.465 5.797-3.661 9-4.862 9-9.465v-11.535c-3.516 0-5.629-.134-9-3zm-.548 15l-3.452-3.362 1.237-1.239 2.215 2.123 4.382-4.475 1.238 1.238-5.62 5.715z" />
        </symbol>

        <symbol id="settings-black" viewBox="0 0 24 24">
            <path style="fill: black" d="M24 13.616v-3.232c-1.651-.587-2.694-.752-3.219-2.019v-.001c-.527-1.271.1-2.134.847-3.707l-2.285-2.285c-1.561.742-2.433 1.375-3.707.847h-.001c-1.269-.526-1.435-1.576-2.019-3.219h-3.232c-.582 1.635-.749 2.692-2.019 3.219h-.001c-1.271.528-2.132-.098-3.707-.847l-2.285 2.285c.745 1.568 1.375 2.434.847 3.707-.527 1.271-1.584 1.438-3.219 2.02v3.232c1.632.58 2.692.749 3.219 2.019.53 1.282-.114 2.166-.847 3.707l2.285 2.286c1.562-.743 2.434-1.375 3.707-.847h.001c1.27.526 1.436 1.579 2.019 3.219h3.232c.582-1.636.75-2.69 2.027-3.222h.001c1.262-.524 2.12.101 3.698.851l2.285-2.286c-.744-1.563-1.375-2.433-.848-3.706.527-1.271 1.588-1.44 3.221-2.021zm-12 2.384c-2.209 0-4-1.791-4-4s1.791-4 4-4 4 1.791 4 4-1.791 4-4 4z" />
        </symbol>

        <symbol id="success-black" viewBox="0 0 24 24">
            <path d="M12 2c5.514 0 10 4.486 10 10s-4.486 10-10 10-10-4.486-10-10 4.486-10 10-10zm0-2c-6.627 0-12 5.373-12 12s5.373 12 12 12 12-5.373 12-12-5.373-12-12-12zm-1.959 17l-4.5-4.319 1.395-1.435 3.08 2.937 7.021-7.183 1.422 1.409-8.418 8.591z" />
        </symbol>

        <symbol id="user-black" viewBox="0 0 24 24">
            <path style="fill: black" d="M12 2c2.757 0 5 2.243 5 5.001 0 2.756-2.243 5-5 5s-5-2.244-5-5c0-2.758 2.243-5.001 5-5.001zm0-2c-3.866 0-7 3.134-7 7.001 0 3.865 3.134 7 7 7s7-3.135 7-7c0-3.867-3.134-7.001-7-7.001zm6.369 13.353c-.497.498-1.057.931-1.658 1.302 2.872 1.874 4.378 5.083 4.972 7.346h-19.387c.572-2.29 2.058-5.503 4.973-7.358-.603-.374-1.162-.811-1.658-1.312-4.258 3.072-5.611 8.506-5.611 10.669h24c0-2.142-1.44-7.557-5.631-10.647z" />
        </symbol>

        <symbol id="wifi-black" viewBox="0 0 24 24">
            <path d="M8.213 16.984c.97-1.028 2.308-1.664 3.787-1.664s2.817.636 3.787 1.664l-3.787 4.016-3.787-4.016zm-1.747-1.854c1.417-1.502 3.373-2.431 5.534-2.431s4.118.929 5.534 2.431l2.33-2.472c-2.012-2.134-4.793-3.454-7.864-3.454s-5.852 1.32-7.864 3.455l2.33 2.471zm-4.078-4.325c2.46-2.609 5.859-4.222 9.612-4.222s7.152 1.613 9.612 4.222l2.388-2.533c-3.071-3.257-7.313-5.272-12-5.272s-8.929 2.015-12 5.272l2.388 2.533z" />
        </symbol>

        <symbol id="error-red" viewBox="0 0 24 24">
            <path style="fill: darkred" d="M16.143 2l5.857 5.858v8.284l-5.857 5.858h-8.286l-5.857-5.858v-8.284l5.857-5.858h8.286zm.828-2h-9.942l-7.029 7.029v9.941l7.029 7.03h9.941l7.03-7.029v-9.942l-7.029-7.029zm-6.471 6h3l-1 8h-1l-1-8zm1.5 12.25c-.69 0-1.25-.56-1.25-1.25s.56-1.25 1.25-1.25 1.25.56 1.25 1.25-.56 1.25-1.25 1.25z" />
        </symbol>

        <symbol id="complatform-white" viewBox="0 0 24 24">
            <path style="fill: white" d="M19 17c0 1.104-.896 2-2 2h-11c-1.104 0-2-.896-2-2v-11c0-1.104.896-2 2-2h11c1.104 0 2 .896 2 2v11zm-11 3v3h-1v-3h1zm4 0v3h-1v-3h1zm2 0v3h-1v-3h1zm-4 0v3h-1v-3h1zm6 0v3h-1v-3h1zm-8-20v3h-1v-3h1zm4 0v3h-1v-3h1zm2 0v3h-1v-3h1zm-4 0v3h-1v-3h1zm6 0v3h-1v-3h1zm4 15h3v1h-3v-1zm0-4h3v1h-3v-1zm0-2h3v1h-3v-1zm0 4h3v1h-3v-1zm0-6h3v1h-3v-1zm-20 8h3v1h-3v-1zm0-4h3v1h-3v-1zm0-2h3v1h-3v-1zm0 4h3v1h-3v-1zm0-6h3v1h-3v-1z" />
        </symbol>

        <symbol id="debug-white" viewBox="0 0 24 24">
            <path style="fill: white" d="M7.074 1.408c0-.778.641-1.408 1.431-1.408.942 0 1.626.883 1.38 1.776-.093.336-.042.695.138.995.401.664 1.084 1.073 1.977 1.078.88-.004 1.572-.408 1.977-1.078.181-.299.23-.658.139-.995-.247-.892.435-1.776 1.379-1.776.79 0 1.431.63 1.431 1.408 0 .675-.482 1.234-1.117 1.375-.322.071-.6.269-.77.548-.613 1.017.193 1.917.931 2.823-1.211.562-2.525.846-3.97.846-1.468 0-2.771-.277-3.975-.84.748-.92 1.555-1.803.935-2.83-.168-.279-.446-.477-.768-.548-.636-.14-1.118-.699-1.118-1.374zm3.926 7.531c-1.709-.135-3.271-.599-4.703-1.435-.217.359-.421.738-.601 1.146-.227.514-.646.552-.941.437l-2.295-.89c-.542-.21-1.153.051-1.367.584-.213.533.053 1.136.594 1.346l2.231.866c.496.192.854.694.773 1.274-.106.758-.683 1.111-1.235 1.111h-2.402c-.582 0-1.054.464-1.054 1.037s.472 1.037 1.054 1.037h2.387c.573 0 1.159.372 1.265 1.057.112.728-.228 1.229-.751 1.462l-2.42 1.078c-.53.236-.766.851-.526 1.373s.865.753 1.395.518l2.561-1.14c.307-.137.688-.106.901.259.922 1.587 2.674 3.361 5.134 3.941v-15.061zm9.559 6.513h2.387c.583 0 1.055-.464 1.055-1.037s-.472-1.037-1.055-1.037h-2.402c-.574 0-1.137-.393-1.227-1.052-.092-.677.286-1.147.766-1.333l2.23-.866c.541-.21.808-.813.594-1.346-.213-.533-.825-.795-1.367-.584l-2.294.891c-.329.127-.734.036-.926-.401-.185-.423-.396-.816-.62-1.188-1.433.829-3.008 1.3-4.699 1.439v15.062c2.406-.567 4.134-2.284 5.072-3.837.262-.432.629-.514.964-.364l2.561 1.14c.528.236 1.154.005 1.395-.518.239-.522.005-1.137-.526-1.373l-2.42-1.078c-.494-.221-.867-.738-.764-1.383.128-.803.717-1.135 1.276-1.135z" />
        </symbol>

        <symbol id="flash-white" viewBox="0 0 24 24">
            <path style="fill: white" d="M8 24l3-9h-9l14-15-3 9h9l-14 15z" />
        </symbol>

        <symbol id="reset-white" viewBox="0 0 24 24">
            <path style="fill: white" d="M14 12h-4v-12h4v12zm4.213-10.246l-1.213 1.599c2.984 1.732 5 4.955 5 8.647 0 5.514-4.486 10-10 10s-10-4.486-10-10c0-3.692 2.016-6.915 5-8.647l-1.213-1.599c-3.465 2.103-5.787 5.897-5.787 10.246 0 6.627 5.373 12 12 12s12-5.373 12-12c0-4.349-2.322-8.143-5.787-10.246z" />
        </symbol>

        <symbol id="settings-white" viewBox="0 0 24 24">
            <path style="fill: white" d="M24 13.616v-3.232c-1.651-.587-2.694-.752-3.219-2.019v-.001c-.527-1.271.1-2.134.847-3.707l-2.285-2.285c-1.561.742-2.433 1.375-3.707.847h-.001c-1.269-.526-1.435-1.576-2.019-3.219h-3.232c-.582 1.635-.749 2.692-2.019 3.219h-.001c-1.271.528-2.132-.098-3.707-.847l-2.285 2.285c.745 1.568 1.375 2.434.847 3.707-.527 1.271-1.584 1.438-3.219 2.02v3.232c1.632.58 2.692.749 3.219 2.019.53 1.282-.114 2.166-.847 3.707l2.285 2.286c1.562-.743 2.434-1.375 3.707-.847h.001c1.27.526 1.436 1.579 2.019 3.219h3.232c.582-1.636.75-2.69 2.027-3.222h.001c1.262-.524 2.12.101 3.698.851l2.285-2.286c-.744-1.563-1.375-2.433-.848-3.706.527-1.271 1.588-1.44 3.221-2.021zm-12 2.384c-2.209 0-4-1.791-4-4s1.791-4 4-4 4 1.791 4 4-1.791 4-4 4z" />
        </symbol>

        <symbol id="upload-white" viewBox="0 0 24 24">
            <path style="fill: white" d="M16 16h-3v5h-2v-5h-3l4-4 4 4zm3.479-5.908c-.212-3.951-3.473-7.092-7.479-7.092s-7.267 3.141-7.479 7.092c-2.57.463-4.521 2.706-4.521 5.408 0 3.037 2.463 5.5 5.5 5.5h3.5v-2h-3.5c-1.93 0-3.5-1.57-3.5-3.5 0-2.797 2.479-3.833 4.433-3.72-.167-4.218 2.208-6.78 5.567-6.78 3.453 0 5.891 2.797 5.567 6.78 1.745-.046 4.433.751 4.433 3.72 0 1.93-1.57 3.5-3.5 3.5h-3.5v2h3.5c3.037 0 5.5-2.463 5.5-5.5 0-2.702-1.951-4.945-4.521-5.408z" />
        </symbol>

        <symbol id="user-white" viewBox="0 0 24 24">
            <path style="fill: white" d="M12 2c2.757 0 5 2.243 5 5.001 0 2.756-2.243 5-5 5s-5-2.244-5-5c0-2.758 2.243-5.001 5-5.001zm0-2c-3.866 0-7 3.134-7 7.001 0 3.865 3.134 7 7 7s7-3.135 7-7c0-3.867-3.134-7.001-7-7.001zm6.369 13.353c-.497.498-1.057.931-1.658 1.302 2.872 1.874 4.378 5.083 4.972 7.346h-19.387c.572-2.29 2.058-5.503 4.973-7.358-.603-.374-1.162-.811-1.658-1.312-4.258 3.072-5.611 8.506-5.611 10.669h24c0-2.142-1.44-7.557-5.631-10.647z" />
        </symbol>

        <symbol id="zumorobot-white" viewBox="0 0 24 24">
            <path style="fill: white" d="M20.025 16c2.196.014 3.975 1.801 3.975 4 0 2.208-1.793 4-4 4h-16c-2.208 0-4-1.792-4-4s1.792-4 4-4h16.025zm-15.525 2.5c.828 0 1.5.672 1.5 1.5s-.672 1.5-1.5 1.5-1.5-.672-1.5-1.5.672-1.5 1.5-1.5zm10 0c.828 0 1.5.672 1.5 1.5s-.672 1.5-1.5 1.5-1.5-.672-1.5-1.5.672-1.5 1.5-1.5zm-5 0c.828 0 1.5.672 1.5 1.5s-.672 1.5-1.5 1.5-1.5-.672-1.5-1.5.672-1.5 1.5-1.5zm10 0c.828 0 1.5.672 1.5 1.5s-.672 1.5-1.5 1.5-1.5-.672-1.5-1.5.672-1.5 1.5-1.5zm.5-3.5h-16v-15h6v6h4v-6h6v15zm-2-4h-3.895v2h3.895v-2z" />
        </symbol>
    </defs>
</svg>
