%FSLAX45Y45*%
G04 Gerber Fmt 4.5, Leading zero omitted, Abs format (unit mm)*
G04 Created by KiCad (PCBNEW (5.1.6)-1) date 2022-05-27 14:19:13*
%MOMM*%
%LPD*%
G01*
G04 APERTURE LIST*
%TA.AperFunction,Profile*%
%ADD10C,0.150000*%
%TD*%
%ADD11C,0.200000*%
%ADD12C,0.300000*%
G04 APERTURE END LIST*
D10*
X12800000Y-7525000D02*
G75*
G02*
X12900000Y-7425000I100000J0D01*
G01*
X17300000Y-7425000D02*
G75*
G02*
X17400000Y-7525000I0J-100000D01*
G01*
X12900000Y-10225000D02*
G75*
G02*
X12800000Y-10125000I0J100000D01*
G01*
X17400000Y-10125000D02*
G75*
G02*
X17300000Y-10225000I-100000J0D01*
G01*
X17300000Y-7425000D02*
X12900000Y-7425000D01*
X17400000Y-10125000D02*
X17400000Y-7525000D01*
X12900000Y-10225000D02*
X17300000Y-10225000D01*
X12800000Y-7525000D02*
X12800000Y-10125000D01*
D11*
X16990000Y-8740000D02*
X17150000Y-8900000D01*
X17150000Y-8740000D02*
X16990000Y-8900000D01*
X13430000Y-8820000D02*
G75*
G03*
X13430000Y-8820000I-150000J0D01*
G01*
D12*
X13078928Y-10698214D02*
X13078928Y-10398214D01*
X13150357Y-10398214D01*
X13193214Y-10412500D01*
X13221786Y-10441072D01*
X13236071Y-10469643D01*
X13250357Y-10526786D01*
X13250357Y-10569643D01*
X13236071Y-10626786D01*
X13221786Y-10655357D01*
X13193214Y-10683929D01*
X13150357Y-10698214D01*
X13078928Y-10698214D01*
X13378928Y-10698214D02*
X13378928Y-10498214D01*
X13378928Y-10555357D02*
X13393214Y-10526786D01*
X13407500Y-10512500D01*
X13436071Y-10498214D01*
X13464643Y-10498214D01*
X13564643Y-10698214D02*
X13564643Y-10498214D01*
X13564643Y-10398214D02*
X13550357Y-10412500D01*
X13564643Y-10426786D01*
X13578928Y-10412500D01*
X13564643Y-10398214D01*
X13564643Y-10426786D01*
X13750357Y-10698214D02*
X13721786Y-10683929D01*
X13707500Y-10655357D01*
X13707500Y-10398214D01*
X13907500Y-10698214D02*
X13878928Y-10683929D01*
X13864643Y-10655357D01*
X13864643Y-10398214D01*
X14250357Y-10698214D02*
X14250357Y-10398214D01*
X14350357Y-10612500D01*
X14450357Y-10398214D01*
X14450357Y-10698214D01*
X14721786Y-10698214D02*
X14721786Y-10541072D01*
X14707500Y-10512500D01*
X14678928Y-10498214D01*
X14621786Y-10498214D01*
X14593214Y-10512500D01*
X14721786Y-10683929D02*
X14693214Y-10698214D01*
X14621786Y-10698214D01*
X14593214Y-10683929D01*
X14578928Y-10655357D01*
X14578928Y-10626786D01*
X14593214Y-10598214D01*
X14621786Y-10583929D01*
X14693214Y-10583929D01*
X14721786Y-10569643D01*
X14864643Y-10498214D02*
X14864643Y-10798214D01*
X14864643Y-10512500D02*
X14893214Y-10498214D01*
X14950357Y-10498214D01*
X14978928Y-10512500D01*
X14993214Y-10526786D01*
X15007500Y-10555357D01*
X15007500Y-10641072D01*
X14993214Y-10669643D01*
X14978928Y-10683929D01*
X14950357Y-10698214D01*
X14893214Y-10698214D01*
X14864643Y-10683929D01*
X15136071Y-10669643D02*
X15150357Y-10683929D01*
X15136071Y-10698214D01*
X15121786Y-10683929D01*
X15136071Y-10669643D01*
X15136071Y-10698214D01*
X15136071Y-10512500D02*
X15150357Y-10526786D01*
X15136071Y-10541072D01*
X15121786Y-10526786D01*
X15136071Y-10512500D01*
X15136071Y-10541072D01*
X12632500Y-11112500D02*
X12792500Y-11272500D01*
X12792500Y-11112500D02*
X12632500Y-11272500D01*
X13236071Y-11328214D02*
X13064643Y-11328214D01*
X13150357Y-11328214D02*
X13150357Y-11028214D01*
X13121786Y-11071072D01*
X13093214Y-11099643D01*
X13064643Y-11113929D01*
X13364643Y-11299643D02*
X13378928Y-11313929D01*
X13364643Y-11328214D01*
X13350357Y-11313929D01*
X13364643Y-11299643D01*
X13364643Y-11328214D01*
X13636071Y-11028214D02*
X13578928Y-11028214D01*
X13550357Y-11042500D01*
X13536071Y-11056786D01*
X13507500Y-11099643D01*
X13493214Y-11156786D01*
X13493214Y-11271071D01*
X13507500Y-11299643D01*
X13521786Y-11313929D01*
X13550357Y-11328214D01*
X13607500Y-11328214D01*
X13636071Y-11313929D01*
X13650357Y-11299643D01*
X13664643Y-11271071D01*
X13664643Y-11199643D01*
X13650357Y-11171072D01*
X13636071Y-11156786D01*
X13607500Y-11142500D01*
X13550357Y-11142500D01*
X13521786Y-11156786D01*
X13507500Y-11171072D01*
X13493214Y-11199643D01*
X13850357Y-11028214D02*
X13878928Y-11028214D01*
X13907500Y-11042500D01*
X13921786Y-11056786D01*
X13936071Y-11085357D01*
X13950357Y-11142500D01*
X13950357Y-11213929D01*
X13936071Y-11271071D01*
X13921786Y-11299643D01*
X13907500Y-11313929D01*
X13878928Y-11328214D01*
X13850357Y-11328214D01*
X13821786Y-11313929D01*
X13807500Y-11299643D01*
X13793214Y-11271071D01*
X13778928Y-11213929D01*
X13778928Y-11142500D01*
X13793214Y-11085357D01*
X13807500Y-11056786D01*
X13821786Y-11042500D01*
X13850357Y-11028214D01*
X14078928Y-11328214D02*
X14078928Y-11128214D01*
X14078928Y-11156786D02*
X14093214Y-11142500D01*
X14121786Y-11128214D01*
X14164643Y-11128214D01*
X14193214Y-11142500D01*
X14207500Y-11171072D01*
X14207500Y-11328214D01*
X14207500Y-11171072D02*
X14221786Y-11142500D01*
X14250357Y-11128214D01*
X14293214Y-11128214D01*
X14321786Y-11142500D01*
X14336071Y-11171072D01*
X14336071Y-11328214D01*
X14478928Y-11328214D02*
X14478928Y-11128214D01*
X14478928Y-11156786D02*
X14493214Y-11142500D01*
X14521786Y-11128214D01*
X14564643Y-11128214D01*
X14593214Y-11142500D01*
X14607500Y-11171072D01*
X14607500Y-11328214D01*
X14607500Y-11171072D02*
X14621786Y-11142500D01*
X14650357Y-11128214D01*
X14693214Y-11128214D01*
X14721786Y-11142500D01*
X14736071Y-11171072D01*
X14736071Y-11328214D01*
X15321786Y-11013929D02*
X15064643Y-11399643D01*
X15707500Y-11028214D02*
X15736071Y-11028214D01*
X15764643Y-11042500D01*
X15778928Y-11056786D01*
X15793214Y-11085357D01*
X15807500Y-11142500D01*
X15807500Y-11213929D01*
X15793214Y-11271071D01*
X15778928Y-11299643D01*
X15764643Y-11313929D01*
X15736071Y-11328214D01*
X15707500Y-11328214D01*
X15678928Y-11313929D01*
X15664643Y-11299643D01*
X15650357Y-11271071D01*
X15636071Y-11213929D01*
X15636071Y-11142500D01*
X15650357Y-11085357D01*
X15664643Y-11056786D01*
X15678928Y-11042500D01*
X15707500Y-11028214D01*
X15936071Y-11299643D02*
X15950357Y-11313929D01*
X15936071Y-11328214D01*
X15921786Y-11313929D01*
X15936071Y-11299643D01*
X15936071Y-11328214D01*
X16136071Y-11028214D02*
X16164643Y-11028214D01*
X16193214Y-11042500D01*
X16207500Y-11056786D01*
X16221786Y-11085357D01*
X16236071Y-11142500D01*
X16236071Y-11213929D01*
X16221786Y-11271071D01*
X16207500Y-11299643D01*
X16193214Y-11313929D01*
X16164643Y-11328214D01*
X16136071Y-11328214D01*
X16107500Y-11313929D01*
X16093214Y-11299643D01*
X16078928Y-11271071D01*
X16064643Y-11213929D01*
X16064643Y-11142500D01*
X16078928Y-11085357D01*
X16093214Y-11056786D01*
X16107500Y-11042500D01*
X16136071Y-11028214D01*
X16493214Y-11028214D02*
X16436071Y-11028214D01*
X16407500Y-11042500D01*
X16393214Y-11056786D01*
X16364643Y-11099643D01*
X16350357Y-11156786D01*
X16350357Y-11271071D01*
X16364643Y-11299643D01*
X16378928Y-11313929D01*
X16407500Y-11328214D01*
X16464643Y-11328214D01*
X16493214Y-11313929D01*
X16507500Y-11299643D01*
X16521786Y-11271071D01*
X16521786Y-11199643D01*
X16507500Y-11171072D01*
X16493214Y-11156786D01*
X16464643Y-11142500D01*
X16407500Y-11142500D01*
X16378928Y-11156786D01*
X16364643Y-11171072D01*
X16350357Y-11199643D01*
X16621786Y-11028214D02*
X16807500Y-11028214D01*
X16707500Y-11142500D01*
X16750357Y-11142500D01*
X16778928Y-11156786D01*
X16793214Y-11171072D01*
X16807500Y-11199643D01*
X16807500Y-11271071D01*
X16793214Y-11299643D01*
X16778928Y-11313929D01*
X16750357Y-11328214D01*
X16664643Y-11328214D01*
X16636071Y-11313929D01*
X16621786Y-11299643D01*
X16921786Y-11028214D02*
X16921786Y-11085357D01*
X17036071Y-11028214D02*
X17036071Y-11085357D01*
X17478928Y-11442500D02*
X17464643Y-11428214D01*
X17436071Y-11385357D01*
X17421786Y-11356786D01*
X17407500Y-11313929D01*
X17393214Y-11242500D01*
X17393214Y-11185357D01*
X17407500Y-11113929D01*
X17421786Y-11071072D01*
X17436071Y-11042500D01*
X17464643Y-10999643D01*
X17478928Y-10985357D01*
X17750357Y-11328214D02*
X17578928Y-11328214D01*
X17664643Y-11328214D02*
X17664643Y-11028214D01*
X17636071Y-11071072D01*
X17607500Y-11099643D01*
X17578928Y-11113929D01*
X18107500Y-11328214D02*
X18107500Y-11028214D01*
X18236071Y-11328214D02*
X18236071Y-11171072D01*
X18221786Y-11142500D01*
X18193214Y-11128214D01*
X18150357Y-11128214D01*
X18121786Y-11142500D01*
X18107500Y-11156786D01*
X18421786Y-11328214D02*
X18393214Y-11313929D01*
X18378928Y-11299643D01*
X18364643Y-11271071D01*
X18364643Y-11185357D01*
X18378928Y-11156786D01*
X18393214Y-11142500D01*
X18421786Y-11128214D01*
X18464643Y-11128214D01*
X18493214Y-11142500D01*
X18507500Y-11156786D01*
X18521786Y-11185357D01*
X18521786Y-11271071D01*
X18507500Y-11299643D01*
X18493214Y-11313929D01*
X18464643Y-11328214D01*
X18421786Y-11328214D01*
X18693214Y-11328214D02*
X18664643Y-11313929D01*
X18650357Y-11285357D01*
X18650357Y-11028214D01*
X18921786Y-11313929D02*
X18893214Y-11328214D01*
X18836071Y-11328214D01*
X18807500Y-11313929D01*
X18793214Y-11285357D01*
X18793214Y-11171072D01*
X18807500Y-11142500D01*
X18836071Y-11128214D01*
X18893214Y-11128214D01*
X18921786Y-11142500D01*
X18936071Y-11171072D01*
X18936071Y-11199643D01*
X18793214Y-11228214D01*
X19036071Y-11442500D02*
X19050357Y-11428214D01*
X19078928Y-11385357D01*
X19093214Y-11356786D01*
X19107500Y-11313929D01*
X19121786Y-11242500D01*
X19121786Y-11185357D01*
X19107500Y-11113929D01*
X19093214Y-11071072D01*
X19078928Y-11042500D01*
X19050357Y-10999643D01*
X19036071Y-10985357D01*
X19578928Y-11442500D02*
X19564643Y-11428214D01*
X19536071Y-11385357D01*
X19521786Y-11356786D01*
X19507500Y-11313929D01*
X19493214Y-11242500D01*
X19493214Y-11185357D01*
X19507500Y-11113929D01*
X19521786Y-11071072D01*
X19536071Y-11042500D01*
X19564643Y-10999643D01*
X19578928Y-10985357D01*
X19693214Y-11128214D02*
X19693214Y-11328214D01*
X19693214Y-11156786D02*
X19707500Y-11142500D01*
X19736071Y-11128214D01*
X19778928Y-11128214D01*
X19807500Y-11142500D01*
X19821786Y-11171072D01*
X19821786Y-11328214D01*
X20007500Y-11328214D02*
X19978928Y-11313929D01*
X19964643Y-11299643D01*
X19950357Y-11271071D01*
X19950357Y-11185357D01*
X19964643Y-11156786D01*
X19978928Y-11142500D01*
X20007500Y-11128214D01*
X20050357Y-11128214D01*
X20078928Y-11142500D01*
X20093214Y-11156786D01*
X20107500Y-11185357D01*
X20107500Y-11271071D01*
X20093214Y-11299643D01*
X20078928Y-11313929D01*
X20050357Y-11328214D01*
X20007500Y-11328214D01*
X20193214Y-11128214D02*
X20307500Y-11128214D01*
X20236071Y-11028214D02*
X20236071Y-11285357D01*
X20250357Y-11313929D01*
X20278928Y-11328214D01*
X20307500Y-11328214D01*
X20636071Y-11128214D02*
X20636071Y-11428214D01*
X20636071Y-11142500D02*
X20664643Y-11128214D01*
X20721786Y-11128214D01*
X20750357Y-11142500D01*
X20764643Y-11156786D01*
X20778928Y-11185357D01*
X20778928Y-11271071D01*
X20764643Y-11299643D01*
X20750357Y-11313929D01*
X20721786Y-11328214D01*
X20664643Y-11328214D01*
X20636071Y-11313929D01*
X20950357Y-11328214D02*
X20921786Y-11313929D01*
X20907500Y-11285357D01*
X20907500Y-11028214D01*
X21193214Y-11328214D02*
X21193214Y-11171072D01*
X21178928Y-11142500D01*
X21150357Y-11128214D01*
X21093214Y-11128214D01*
X21064643Y-11142500D01*
X21193214Y-11313929D02*
X21164643Y-11328214D01*
X21093214Y-11328214D01*
X21064643Y-11313929D01*
X21050357Y-11285357D01*
X21050357Y-11256786D01*
X21064643Y-11228214D01*
X21093214Y-11213929D01*
X21164643Y-11213929D01*
X21193214Y-11199643D01*
X21293214Y-11128214D02*
X21407500Y-11128214D01*
X21336071Y-11028214D02*
X21336071Y-11285357D01*
X21350357Y-11313929D01*
X21378928Y-11328214D01*
X21407500Y-11328214D01*
X21621786Y-11313929D02*
X21593214Y-11328214D01*
X21536071Y-11328214D01*
X21507500Y-11313929D01*
X21493214Y-11285357D01*
X21493214Y-11171072D01*
X21507500Y-11142500D01*
X21536071Y-11128214D01*
X21593214Y-11128214D01*
X21621786Y-11142500D01*
X21636071Y-11171072D01*
X21636071Y-11199643D01*
X21493214Y-11228214D01*
X21893214Y-11328214D02*
X21893214Y-11028214D01*
X21893214Y-11313929D02*
X21864643Y-11328214D01*
X21807500Y-11328214D01*
X21778928Y-11313929D01*
X21764643Y-11299643D01*
X21750357Y-11271071D01*
X21750357Y-11185357D01*
X21764643Y-11156786D01*
X21778928Y-11142500D01*
X21807500Y-11128214D01*
X21864643Y-11128214D01*
X21893214Y-11142500D01*
X22007500Y-11442500D02*
X22021786Y-11428214D01*
X22050357Y-11385357D01*
X22064643Y-11356786D01*
X22078928Y-11313929D01*
X22093214Y-11242500D01*
X22093214Y-11185357D01*
X22078928Y-11113929D01*
X22064643Y-11071072D01*
X22050357Y-11042500D01*
X22021786Y-10999643D01*
X22007500Y-10985357D01*
X12792500Y-11588500D02*
G75*
G03*
X12792500Y-11588500I-150000J0D01*
G01*
X13050357Y-11424214D02*
X13236071Y-11424214D01*
X13136071Y-11538500D01*
X13178928Y-11538500D01*
X13207500Y-11552786D01*
X13221786Y-11567071D01*
X13236071Y-11595643D01*
X13236071Y-11667071D01*
X13221786Y-11695643D01*
X13207500Y-11709929D01*
X13178928Y-11724214D01*
X13093214Y-11724214D01*
X13064643Y-11709929D01*
X13050357Y-11695643D01*
X13364643Y-11695643D02*
X13378928Y-11709929D01*
X13364643Y-11724214D01*
X13350357Y-11709929D01*
X13364643Y-11695643D01*
X13364643Y-11724214D01*
X13564643Y-11424214D02*
X13593214Y-11424214D01*
X13621786Y-11438500D01*
X13636071Y-11452786D01*
X13650357Y-11481357D01*
X13664643Y-11538500D01*
X13664643Y-11609929D01*
X13650357Y-11667071D01*
X13636071Y-11695643D01*
X13621786Y-11709929D01*
X13593214Y-11724214D01*
X13564643Y-11724214D01*
X13536071Y-11709929D01*
X13521786Y-11695643D01*
X13507500Y-11667071D01*
X13493214Y-11609929D01*
X13493214Y-11538500D01*
X13507500Y-11481357D01*
X13521786Y-11452786D01*
X13536071Y-11438500D01*
X13564643Y-11424214D01*
X13850357Y-11424214D02*
X13878928Y-11424214D01*
X13907500Y-11438500D01*
X13921786Y-11452786D01*
X13936071Y-11481357D01*
X13950357Y-11538500D01*
X13950357Y-11609929D01*
X13936071Y-11667071D01*
X13921786Y-11695643D01*
X13907500Y-11709929D01*
X13878928Y-11724214D01*
X13850357Y-11724214D01*
X13821786Y-11709929D01*
X13807500Y-11695643D01*
X13793214Y-11667071D01*
X13778928Y-11609929D01*
X13778928Y-11538500D01*
X13793214Y-11481357D01*
X13807500Y-11452786D01*
X13821786Y-11438500D01*
X13850357Y-11424214D01*
X14078928Y-11724214D02*
X14078928Y-11524214D01*
X14078928Y-11552786D02*
X14093214Y-11538500D01*
X14121786Y-11524214D01*
X14164643Y-11524214D01*
X14193214Y-11538500D01*
X14207500Y-11567071D01*
X14207500Y-11724214D01*
X14207500Y-11567071D02*
X14221786Y-11538500D01*
X14250357Y-11524214D01*
X14293214Y-11524214D01*
X14321786Y-11538500D01*
X14336071Y-11567071D01*
X14336071Y-11724214D01*
X14478928Y-11724214D02*
X14478928Y-11524214D01*
X14478928Y-11552786D02*
X14493214Y-11538500D01*
X14521786Y-11524214D01*
X14564643Y-11524214D01*
X14593214Y-11538500D01*
X14607500Y-11567071D01*
X14607500Y-11724214D01*
X14607500Y-11567071D02*
X14621786Y-11538500D01*
X14650357Y-11524214D01*
X14693214Y-11524214D01*
X14721786Y-11538500D01*
X14736071Y-11567071D01*
X14736071Y-11724214D01*
X15321786Y-11409929D02*
X15064643Y-11795643D01*
X15707500Y-11424214D02*
X15736071Y-11424214D01*
X15764643Y-11438500D01*
X15778928Y-11452786D01*
X15793214Y-11481357D01*
X15807500Y-11538500D01*
X15807500Y-11609929D01*
X15793214Y-11667071D01*
X15778928Y-11695643D01*
X15764643Y-11709929D01*
X15736071Y-11724214D01*
X15707500Y-11724214D01*
X15678928Y-11709929D01*
X15664643Y-11695643D01*
X15650357Y-11667071D01*
X15636071Y-11609929D01*
X15636071Y-11538500D01*
X15650357Y-11481357D01*
X15664643Y-11452786D01*
X15678928Y-11438500D01*
X15707500Y-11424214D01*
X15936071Y-11695643D02*
X15950357Y-11709929D01*
X15936071Y-11724214D01*
X15921786Y-11709929D01*
X15936071Y-11695643D01*
X15936071Y-11724214D01*
X16236071Y-11724214D02*
X16064643Y-11724214D01*
X16150357Y-11724214D02*
X16150357Y-11424214D01*
X16121786Y-11467071D01*
X16093214Y-11495643D01*
X16064643Y-11509929D01*
X16521786Y-11724214D02*
X16350357Y-11724214D01*
X16436071Y-11724214D02*
X16436071Y-11424214D01*
X16407500Y-11467071D01*
X16378928Y-11495643D01*
X16350357Y-11509929D01*
X16693214Y-11552786D02*
X16664643Y-11538500D01*
X16650357Y-11524214D01*
X16636071Y-11495643D01*
X16636071Y-11481357D01*
X16650357Y-11452786D01*
X16664643Y-11438500D01*
X16693214Y-11424214D01*
X16750357Y-11424214D01*
X16778928Y-11438500D01*
X16793214Y-11452786D01*
X16807500Y-11481357D01*
X16807500Y-11495643D01*
X16793214Y-11524214D01*
X16778928Y-11538500D01*
X16750357Y-11552786D01*
X16693214Y-11552786D01*
X16664643Y-11567071D01*
X16650357Y-11581357D01*
X16636071Y-11609929D01*
X16636071Y-11667071D01*
X16650357Y-11695643D01*
X16664643Y-11709929D01*
X16693214Y-11724214D01*
X16750357Y-11724214D01*
X16778928Y-11709929D01*
X16793214Y-11695643D01*
X16807500Y-11667071D01*
X16807500Y-11609929D01*
X16793214Y-11581357D01*
X16778928Y-11567071D01*
X16750357Y-11552786D01*
X16921786Y-11424214D02*
X16921786Y-11481357D01*
X17036071Y-11424214D02*
X17036071Y-11481357D01*
X17478928Y-11838500D02*
X17464643Y-11824214D01*
X17436071Y-11781357D01*
X17421786Y-11752786D01*
X17407500Y-11709929D01*
X17393214Y-11638500D01*
X17393214Y-11581357D01*
X17407500Y-11509929D01*
X17421786Y-11467071D01*
X17436071Y-11438500D01*
X17464643Y-11395643D01*
X17478928Y-11381357D01*
X17750357Y-11724214D02*
X17578928Y-11724214D01*
X17664643Y-11724214D02*
X17664643Y-11424214D01*
X17636071Y-11467071D01*
X17607500Y-11495643D01*
X17578928Y-11509929D01*
X18107500Y-11724214D02*
X18107500Y-11424214D01*
X18236071Y-11724214D02*
X18236071Y-11567071D01*
X18221786Y-11538500D01*
X18193214Y-11524214D01*
X18150357Y-11524214D01*
X18121786Y-11538500D01*
X18107500Y-11552786D01*
X18421786Y-11724214D02*
X18393214Y-11709929D01*
X18378928Y-11695643D01*
X18364643Y-11667071D01*
X18364643Y-11581357D01*
X18378928Y-11552786D01*
X18393214Y-11538500D01*
X18421786Y-11524214D01*
X18464643Y-11524214D01*
X18493214Y-11538500D01*
X18507500Y-11552786D01*
X18521786Y-11581357D01*
X18521786Y-11667071D01*
X18507500Y-11695643D01*
X18493214Y-11709929D01*
X18464643Y-11724214D01*
X18421786Y-11724214D01*
X18693214Y-11724214D02*
X18664643Y-11709929D01*
X18650357Y-11681357D01*
X18650357Y-11424214D01*
X18921786Y-11709929D02*
X18893214Y-11724214D01*
X18836071Y-11724214D01*
X18807500Y-11709929D01*
X18793214Y-11681357D01*
X18793214Y-11567071D01*
X18807500Y-11538500D01*
X18836071Y-11524214D01*
X18893214Y-11524214D01*
X18921786Y-11538500D01*
X18936071Y-11567071D01*
X18936071Y-11595643D01*
X18793214Y-11624214D01*
X19036071Y-11838500D02*
X19050357Y-11824214D01*
X19078928Y-11781357D01*
X19093214Y-11752786D01*
X19107500Y-11709929D01*
X19121786Y-11638500D01*
X19121786Y-11581357D01*
X19107500Y-11509929D01*
X19093214Y-11467071D01*
X19078928Y-11438500D01*
X19050357Y-11395643D01*
X19036071Y-11381357D01*
X19578928Y-11838500D02*
X19564643Y-11824214D01*
X19536071Y-11781357D01*
X19521786Y-11752786D01*
X19507500Y-11709929D01*
X19493214Y-11638500D01*
X19493214Y-11581357D01*
X19507500Y-11509929D01*
X19521786Y-11467071D01*
X19536071Y-11438500D01*
X19564643Y-11395643D01*
X19578928Y-11381357D01*
X19693214Y-11524214D02*
X19693214Y-11724214D01*
X19693214Y-11552786D02*
X19707500Y-11538500D01*
X19736071Y-11524214D01*
X19778928Y-11524214D01*
X19807500Y-11538500D01*
X19821786Y-11567071D01*
X19821786Y-11724214D01*
X20007500Y-11724214D02*
X19978928Y-11709929D01*
X19964643Y-11695643D01*
X19950357Y-11667071D01*
X19950357Y-11581357D01*
X19964643Y-11552786D01*
X19978928Y-11538500D01*
X20007500Y-11524214D01*
X20050357Y-11524214D01*
X20078928Y-11538500D01*
X20093214Y-11552786D01*
X20107500Y-11581357D01*
X20107500Y-11667071D01*
X20093214Y-11695643D01*
X20078928Y-11709929D01*
X20050357Y-11724214D01*
X20007500Y-11724214D01*
X20193214Y-11524214D02*
X20307500Y-11524214D01*
X20236071Y-11424214D02*
X20236071Y-11681357D01*
X20250357Y-11709929D01*
X20278928Y-11724214D01*
X20307500Y-11724214D01*
X20636071Y-11524214D02*
X20636071Y-11824214D01*
X20636071Y-11538500D02*
X20664643Y-11524214D01*
X20721786Y-11524214D01*
X20750357Y-11538500D01*
X20764643Y-11552786D01*
X20778928Y-11581357D01*
X20778928Y-11667071D01*
X20764643Y-11695643D01*
X20750357Y-11709929D01*
X20721786Y-11724214D01*
X20664643Y-11724214D01*
X20636071Y-11709929D01*
X20950357Y-11724214D02*
X20921786Y-11709929D01*
X20907500Y-11681357D01*
X20907500Y-11424214D01*
X21193214Y-11724214D02*
X21193214Y-11567071D01*
X21178928Y-11538500D01*
X21150357Y-11524214D01*
X21093214Y-11524214D01*
X21064643Y-11538500D01*
X21193214Y-11709929D02*
X21164643Y-11724214D01*
X21093214Y-11724214D01*
X21064643Y-11709929D01*
X21050357Y-11681357D01*
X21050357Y-11652786D01*
X21064643Y-11624214D01*
X21093214Y-11609929D01*
X21164643Y-11609929D01*
X21193214Y-11595643D01*
X21293214Y-11524214D02*
X21407500Y-11524214D01*
X21336071Y-11424214D02*
X21336071Y-11681357D01*
X21350357Y-11709929D01*
X21378928Y-11724214D01*
X21407500Y-11724214D01*
X21621786Y-11709929D02*
X21593214Y-11724214D01*
X21536071Y-11724214D01*
X21507500Y-11709929D01*
X21493214Y-11681357D01*
X21493214Y-11567071D01*
X21507500Y-11538500D01*
X21536071Y-11524214D01*
X21593214Y-11524214D01*
X21621786Y-11538500D01*
X21636071Y-11567071D01*
X21636071Y-11595643D01*
X21493214Y-11624214D01*
X21893214Y-11724214D02*
X21893214Y-11424214D01*
X21893214Y-11709929D02*
X21864643Y-11724214D01*
X21807500Y-11724214D01*
X21778928Y-11709929D01*
X21764643Y-11695643D01*
X21750357Y-11667071D01*
X21750357Y-11581357D01*
X21764643Y-11552786D01*
X21778928Y-11538500D01*
X21807500Y-11524214D01*
X21864643Y-11524214D01*
X21893214Y-11538500D01*
X22007500Y-11838500D02*
X22021786Y-11824214D01*
X22050357Y-11781357D01*
X22064643Y-11752786D01*
X22078928Y-11709929D01*
X22093214Y-11638500D01*
X22093214Y-11581357D01*
X22078928Y-11509929D01*
X22064643Y-11467071D01*
X22050357Y-11438500D01*
X22021786Y-11395643D01*
X22007500Y-11381357D01*
M02*
