%TF.GenerationSoftware,KiCad,Pcbnew,(5.1.6)-1*%
%TF.CreationDate,2022-05-27T14:19:17+02:00*%
%TF.ProjectId,Charger,43686172-6765-4722-9e6b-696361645f70,V1.0*%
%TF.SameCoordinates,Original*%
%TF.FileFunction,Legend,Top*%
%TF.FilePolarity,Positive*%
%FSLAX46Y46*%
G04 Gerber Fmt 4.6, Leading zero omitted, Abs format (unit mm)*
G04 Created by KiCad (PCBNEW (5.1.6)-1) date 2022-05-27 14:19:17*
%MOMM*%
%LPD*%
G01*
G04 APERTURE LIST*
%ADD10C,0.300000*%
%ADD11C,0.010000*%
%ADD12C,0.127000*%
%ADD13C,0.120000*%
%ADD14C,0.150000*%
G04 APERTURE END LIST*
D10*
X148714285Y-96778571D02*
X149214285Y-98278571D01*
X149714285Y-96778571D01*
X151000000Y-98278571D02*
X150142857Y-98278571D01*
X150571428Y-98278571D02*
X150571428Y-96778571D01*
X150428571Y-96992857D01*
X150285714Y-97135714D01*
X150142857Y-97207142D01*
X151642857Y-98135714D02*
X151714285Y-98207142D01*
X151642857Y-98278571D01*
X151571428Y-98207142D01*
X151642857Y-98135714D01*
X151642857Y-98278571D01*
X152642857Y-96778571D02*
X152785714Y-96778571D01*
X152928571Y-96850000D01*
X153000000Y-96921428D01*
X153071428Y-97064285D01*
X153142857Y-97350000D01*
X153142857Y-97707142D01*
X153071428Y-97992857D01*
X153000000Y-98135714D01*
X152928571Y-98207142D01*
X152785714Y-98278571D01*
X152642857Y-98278571D01*
X152500000Y-98207142D01*
X152428571Y-98135714D01*
X152357142Y-97992857D01*
X152285714Y-97707142D01*
X152285714Y-97350000D01*
X152357142Y-97064285D01*
X152428571Y-96921428D01*
X152500000Y-96850000D01*
X152642857Y-96778571D01*
D11*
%TO.C,G\u002A\u002A\u002A*%
G36*
X143994832Y-77599058D02*
G01*
X144011593Y-77611200D01*
X144030362Y-77628968D01*
X144046928Y-77652269D01*
X144062407Y-77683869D01*
X144077915Y-77726536D01*
X144094571Y-77783035D01*
X144113490Y-77856135D01*
X144118200Y-77875262D01*
X144146620Y-77997047D01*
X144171410Y-78116024D01*
X144192861Y-78234784D01*
X144211260Y-78355915D01*
X144226899Y-78482006D01*
X144240067Y-78615646D01*
X144251053Y-78759424D01*
X144260148Y-78915928D01*
X144267641Y-79087748D01*
X144273383Y-79262096D01*
X144276724Y-79408878D01*
X144278507Y-79559831D01*
X144278790Y-79712156D01*
X144277632Y-79863053D01*
X144275093Y-80009723D01*
X144271230Y-80149366D01*
X144266104Y-80279181D01*
X144259771Y-80396370D01*
X144252293Y-80498132D01*
X144246070Y-80561720D01*
X144230364Y-80680688D01*
X144210374Y-80797494D01*
X144186912Y-80908762D01*
X144160790Y-81011115D01*
X144132822Y-81101177D01*
X144103819Y-81175572D01*
X144092751Y-81198920D01*
X144059517Y-81250865D01*
X144017005Y-81297234D01*
X143971484Y-81331355D01*
X143965005Y-81334890D01*
X143922681Y-81346348D01*
X143870240Y-81344360D01*
X143811607Y-81330168D01*
X143750710Y-81305013D01*
X143691474Y-81270135D01*
X143645522Y-81233916D01*
X143621913Y-81209710D01*
X143588379Y-81171270D01*
X143546747Y-81120938D01*
X143498841Y-81061058D01*
X143446487Y-80993973D01*
X143391512Y-80922027D01*
X143335739Y-80847563D01*
X143280995Y-80772925D01*
X143229105Y-80700456D01*
X143220838Y-80688720D01*
X143144122Y-80577590D01*
X143065352Y-80459924D01*
X142986686Y-80339152D01*
X142910280Y-80218701D01*
X142838291Y-80102002D01*
X142772875Y-79992482D01*
X142716189Y-79893572D01*
X142685777Y-79837962D01*
X142665668Y-79801578D01*
X142648679Y-79773156D01*
X142637253Y-79756676D01*
X142634268Y-79754142D01*
X142628029Y-79763950D01*
X142623114Y-79792912D01*
X142619564Y-79839902D01*
X142617422Y-79903795D01*
X142616731Y-79983465D01*
X142617534Y-80077786D01*
X142619089Y-80155320D01*
X142628454Y-80398490D01*
X142644262Y-80623874D01*
X142666469Y-80830996D01*
X142695030Y-81019380D01*
X142702139Y-81058142D01*
X142715412Y-81167265D01*
X142711918Y-81265720D01*
X142691723Y-81353204D01*
X142654897Y-81429416D01*
X142603874Y-81491779D01*
X142570965Y-81519390D01*
X142544223Y-81529967D01*
X142519475Y-81523968D01*
X142494445Y-81503768D01*
X142481326Y-81487682D01*
X142469766Y-81465662D01*
X142458364Y-81433965D01*
X142445718Y-81388847D01*
X142434525Y-81343748D01*
X142420120Y-81281219D01*
X142407360Y-81219492D01*
X142396146Y-81156971D01*
X142386379Y-81092059D01*
X142377962Y-81023161D01*
X142370795Y-80948680D01*
X142364781Y-80867021D01*
X142359821Y-80776587D01*
X142355817Y-80675783D01*
X142352670Y-80563012D01*
X142350282Y-80436679D01*
X142348555Y-80295187D01*
X142347391Y-80136941D01*
X142346690Y-79960344D01*
X142346584Y-79916560D01*
X142344946Y-79169800D01*
X142281040Y-79007240D01*
X142244522Y-78911654D01*
X142216184Y-78830566D01*
X142195127Y-78760291D01*
X142180452Y-78697147D01*
X142171260Y-78637453D01*
X142166651Y-78577526D01*
X142165676Y-78534800D01*
X142166176Y-78477589D01*
X142168845Y-78434382D01*
X142174455Y-78398911D01*
X142183775Y-78364908D01*
X142188150Y-78351925D01*
X142201389Y-78317595D01*
X142213901Y-78291174D01*
X142222941Y-78278420D01*
X142251721Y-78270088D01*
X142279339Y-78281583D01*
X142302301Y-78308740D01*
X142311396Y-78325184D01*
X142328561Y-78357927D01*
X142352831Y-78405065D01*
X142383239Y-78464696D01*
X142418819Y-78534919D01*
X142458606Y-78613830D01*
X142501632Y-78699528D01*
X142546933Y-78790111D01*
X142556418Y-78809120D01*
X142662498Y-79019909D01*
X142762366Y-79214217D01*
X142857367Y-79394422D01*
X142948848Y-79562904D01*
X143038154Y-79722043D01*
X143126630Y-79874218D01*
X143215623Y-80021809D01*
X143306479Y-80167195D01*
X143400544Y-80312757D01*
X143444204Y-80378840D01*
X143509646Y-80476469D01*
X143565776Y-80558368D01*
X143613830Y-80626169D01*
X143655046Y-80681508D01*
X143690661Y-80726020D01*
X143721913Y-80761340D01*
X143750039Y-80789102D01*
X143763760Y-80801028D01*
X143800766Y-80829561D01*
X143828408Y-80843957D01*
X143851265Y-80844858D01*
X143873917Y-80832907D01*
X143890429Y-80818803D01*
X143904612Y-80804912D01*
X143915209Y-80791211D01*
X143923482Y-80773952D01*
X143930688Y-80749387D01*
X143938088Y-80713770D01*
X143946941Y-80663352D01*
X143951218Y-80637920D01*
X143986321Y-80378969D01*
X144007353Y-80105392D01*
X144014316Y-79817221D01*
X144007210Y-79514490D01*
X143986034Y-79197233D01*
X143950790Y-78865482D01*
X143930551Y-78712966D01*
X143911538Y-78584755D01*
X143892501Y-78472051D01*
X143872445Y-78370066D01*
X143850372Y-78274012D01*
X143825285Y-78179099D01*
X143804759Y-78108656D01*
X143754417Y-77941593D01*
X143786350Y-77845292D01*
X143818839Y-77762769D01*
X143856711Y-77693436D01*
X143898325Y-77639992D01*
X143925753Y-77615675D01*
X143954152Y-77596931D01*
X143974771Y-77591517D01*
X143994832Y-77599058D01*
G37*
X143994832Y-77599058D02*
X144011593Y-77611200D01*
X144030362Y-77628968D01*
X144046928Y-77652269D01*
X144062407Y-77683869D01*
X144077915Y-77726536D01*
X144094571Y-77783035D01*
X144113490Y-77856135D01*
X144118200Y-77875262D01*
X144146620Y-77997047D01*
X144171410Y-78116024D01*
X144192861Y-78234784D01*
X144211260Y-78355915D01*
X144226899Y-78482006D01*
X144240067Y-78615646D01*
X144251053Y-78759424D01*
X144260148Y-78915928D01*
X144267641Y-79087748D01*
X144273383Y-79262096D01*
X144276724Y-79408878D01*
X144278507Y-79559831D01*
X144278790Y-79712156D01*
X144277632Y-79863053D01*
X144275093Y-80009723D01*
X144271230Y-80149366D01*
X144266104Y-80279181D01*
X144259771Y-80396370D01*
X144252293Y-80498132D01*
X144246070Y-80561720D01*
X144230364Y-80680688D01*
X144210374Y-80797494D01*
X144186912Y-80908762D01*
X144160790Y-81011115D01*
X144132822Y-81101177D01*
X144103819Y-81175572D01*
X144092751Y-81198920D01*
X144059517Y-81250865D01*
X144017005Y-81297234D01*
X143971484Y-81331355D01*
X143965005Y-81334890D01*
X143922681Y-81346348D01*
X143870240Y-81344360D01*
X143811607Y-81330168D01*
X143750710Y-81305013D01*
X143691474Y-81270135D01*
X143645522Y-81233916D01*
X143621913Y-81209710D01*
X143588379Y-81171270D01*
X143546747Y-81120938D01*
X143498841Y-81061058D01*
X143446487Y-80993973D01*
X143391512Y-80922027D01*
X143335739Y-80847563D01*
X143280995Y-80772925D01*
X143229105Y-80700456D01*
X143220838Y-80688720D01*
X143144122Y-80577590D01*
X143065352Y-80459924D01*
X142986686Y-80339152D01*
X142910280Y-80218701D01*
X142838291Y-80102002D01*
X142772875Y-79992482D01*
X142716189Y-79893572D01*
X142685777Y-79837962D01*
X142665668Y-79801578D01*
X142648679Y-79773156D01*
X142637253Y-79756676D01*
X142634268Y-79754142D01*
X142628029Y-79763950D01*
X142623114Y-79792912D01*
X142619564Y-79839902D01*
X142617422Y-79903795D01*
X142616731Y-79983465D01*
X142617534Y-80077786D01*
X142619089Y-80155320D01*
X142628454Y-80398490D01*
X142644262Y-80623874D01*
X142666469Y-80830996D01*
X142695030Y-81019380D01*
X142702139Y-81058142D01*
X142715412Y-81167265D01*
X142711918Y-81265720D01*
X142691723Y-81353204D01*
X142654897Y-81429416D01*
X142603874Y-81491779D01*
X142570965Y-81519390D01*
X142544223Y-81529967D01*
X142519475Y-81523968D01*
X142494445Y-81503768D01*
X142481326Y-81487682D01*
X142469766Y-81465662D01*
X142458364Y-81433965D01*
X142445718Y-81388847D01*
X142434525Y-81343748D01*
X142420120Y-81281219D01*
X142407360Y-81219492D01*
X142396146Y-81156971D01*
X142386379Y-81092059D01*
X142377962Y-81023161D01*
X142370795Y-80948680D01*
X142364781Y-80867021D01*
X142359821Y-80776587D01*
X142355817Y-80675783D01*
X142352670Y-80563012D01*
X142350282Y-80436679D01*
X142348555Y-80295187D01*
X142347391Y-80136941D01*
X142346690Y-79960344D01*
X142346584Y-79916560D01*
X142344946Y-79169800D01*
X142281040Y-79007240D01*
X142244522Y-78911654D01*
X142216184Y-78830566D01*
X142195127Y-78760291D01*
X142180452Y-78697147D01*
X142171260Y-78637453D01*
X142166651Y-78577526D01*
X142165676Y-78534800D01*
X142166176Y-78477589D01*
X142168845Y-78434382D01*
X142174455Y-78398911D01*
X142183775Y-78364908D01*
X142188150Y-78351925D01*
X142201389Y-78317595D01*
X142213901Y-78291174D01*
X142222941Y-78278420D01*
X142251721Y-78270088D01*
X142279339Y-78281583D01*
X142302301Y-78308740D01*
X142311396Y-78325184D01*
X142328561Y-78357927D01*
X142352831Y-78405065D01*
X142383239Y-78464696D01*
X142418819Y-78534919D01*
X142458606Y-78613830D01*
X142501632Y-78699528D01*
X142546933Y-78790111D01*
X142556418Y-78809120D01*
X142662498Y-79019909D01*
X142762366Y-79214217D01*
X142857367Y-79394422D01*
X142948848Y-79562904D01*
X143038154Y-79722043D01*
X143126630Y-79874218D01*
X143215623Y-80021809D01*
X143306479Y-80167195D01*
X143400544Y-80312757D01*
X143444204Y-80378840D01*
X143509646Y-80476469D01*
X143565776Y-80558368D01*
X143613830Y-80626169D01*
X143655046Y-80681508D01*
X143690661Y-80726020D01*
X143721913Y-80761340D01*
X143750039Y-80789102D01*
X143763760Y-80801028D01*
X143800766Y-80829561D01*
X143828408Y-80843957D01*
X143851265Y-80844858D01*
X143873917Y-80832907D01*
X143890429Y-80818803D01*
X143904612Y-80804912D01*
X143915209Y-80791211D01*
X143923482Y-80773952D01*
X143930688Y-80749387D01*
X143938088Y-80713770D01*
X143946941Y-80663352D01*
X143951218Y-80637920D01*
X143986321Y-80378969D01*
X144007353Y-80105392D01*
X144014316Y-79817221D01*
X144007210Y-79514490D01*
X143986034Y-79197233D01*
X143950790Y-78865482D01*
X143930551Y-78712966D01*
X143911538Y-78584755D01*
X143892501Y-78472051D01*
X143872445Y-78370066D01*
X143850372Y-78274012D01*
X143825285Y-78179099D01*
X143804759Y-78108656D01*
X143754417Y-77941593D01*
X143786350Y-77845292D01*
X143818839Y-77762769D01*
X143856711Y-77693436D01*
X143898325Y-77639992D01*
X143925753Y-77615675D01*
X143954152Y-77596931D01*
X143974771Y-77591517D01*
X143994832Y-77599058D01*
G36*
X145164405Y-79000471D02*
G01*
X145230189Y-79034109D01*
X145275515Y-79071513D01*
X145315741Y-79117219D01*
X145346577Y-79167767D01*
X145368925Y-79226183D01*
X145383686Y-79295490D01*
X145391760Y-79378713D01*
X145394055Y-79469520D01*
X145387701Y-79602900D01*
X145367526Y-79728976D01*
X145332320Y-79852572D01*
X145280873Y-79978513D01*
X145251213Y-80038965D01*
X145152665Y-80210185D01*
X145037813Y-80371805D01*
X144905316Y-80525617D01*
X144830503Y-80601646D01*
X144716483Y-80712692D01*
X144733184Y-80772760D01*
X144760137Y-80848997D01*
X144796332Y-80921539D01*
X144832260Y-80975133D01*
X144859312Y-81001252D01*
X144897253Y-81027804D01*
X144939682Y-81051262D01*
X144980195Y-81068100D01*
X145012389Y-81074792D01*
X145013218Y-81074800D01*
X145073233Y-81065171D01*
X145135949Y-81037254D01*
X145199260Y-80992507D01*
X145261060Y-80932383D01*
X145312484Y-80867964D01*
X145329241Y-80841717D01*
X145353146Y-80800452D01*
X145382435Y-80747413D01*
X145415342Y-80685844D01*
X145450103Y-80618988D01*
X145479141Y-80561720D01*
X145601289Y-80317880D01*
X145591611Y-80231520D01*
X145586763Y-80171831D01*
X145583481Y-80096608D01*
X145581727Y-80010574D01*
X145581465Y-79918452D01*
X145582658Y-79824964D01*
X145585268Y-79734834D01*
X145589260Y-79652783D01*
X145594595Y-79583536D01*
X145596834Y-79562682D01*
X145611319Y-79460080D01*
X145628296Y-79377181D01*
X145647983Y-79313497D01*
X145670600Y-79268538D01*
X145696366Y-79241816D01*
X145725500Y-79232840D01*
X145743623Y-79235456D01*
X145796913Y-79261242D01*
X145844771Y-79306226D01*
X145886728Y-79369903D01*
X145906607Y-79411511D01*
X145912930Y-79426540D01*
X145917572Y-79440148D01*
X145920474Y-79455125D01*
X145921578Y-79474257D01*
X145920826Y-79500332D01*
X145918159Y-79536138D01*
X145913519Y-79584461D01*
X145906847Y-79648090D01*
X145900395Y-79708280D01*
X145885055Y-79940867D01*
X145888699Y-80173123D01*
X145911133Y-80402680D01*
X145952168Y-80627170D01*
X145985312Y-80757300D01*
X145997524Y-80797562D01*
X146008687Y-80829203D01*
X146017216Y-80847969D01*
X146020383Y-80851280D01*
X146028076Y-80841878D01*
X146038021Y-80816159D01*
X146049136Y-80777849D01*
X146060339Y-80730673D01*
X146070453Y-80678897D01*
X146095545Y-80567054D01*
X146132260Y-80447321D01*
X146178435Y-80324715D01*
X146231908Y-80204258D01*
X146290514Y-80090969D01*
X146352091Y-79989867D01*
X146390738Y-79935603D01*
X146455376Y-79856882D01*
X146515368Y-79796511D01*
X146572069Y-79753428D01*
X146626833Y-79726570D01*
X146670316Y-79716028D01*
X146727159Y-79714420D01*
X146770438Y-79726899D01*
X146800321Y-79753796D01*
X146816979Y-79795442D01*
X146820580Y-79852167D01*
X146811294Y-79924302D01*
X146800769Y-79970613D01*
X146793686Y-80000846D01*
X146788312Y-80031069D01*
X146784399Y-80064781D01*
X146781703Y-80105481D01*
X146779976Y-80156667D01*
X146778975Y-80221840D01*
X146778526Y-80287266D01*
X146778761Y-80374752D01*
X146780252Y-80452256D01*
X146782895Y-80516988D01*
X146786586Y-80566161D01*
X146789742Y-80589847D01*
X146818214Y-80708834D01*
X146858166Y-80812600D01*
X146909250Y-80900456D01*
X146971116Y-80971714D01*
X146992380Y-80990286D01*
X147048445Y-81026716D01*
X147102576Y-81042935D01*
X147154935Y-81038947D01*
X147205684Y-81014752D01*
X147232885Y-80992909D01*
X147272108Y-80948058D01*
X147309265Y-80889845D01*
X147340371Y-80825139D01*
X147356112Y-80780661D01*
X147373658Y-80697482D01*
X147382133Y-80597840D01*
X147381559Y-80483447D01*
X147371955Y-80356012D01*
X147353343Y-80217247D01*
X147348984Y-80190880D01*
X147330300Y-80097090D01*
X147306464Y-80009303D01*
X147275336Y-79920975D01*
X147234772Y-79825561D01*
X147216509Y-79786234D01*
X147175020Y-79696923D01*
X147143381Y-79625101D01*
X147121500Y-79570536D01*
X147109282Y-79532997D01*
X147106400Y-79515417D01*
X147115469Y-79487070D01*
X147140571Y-79467668D01*
X147178546Y-79459482D01*
X147184423Y-79459360D01*
X147240285Y-79465510D01*
X147292156Y-79484824D01*
X147341476Y-79518600D01*
X147389685Y-79568134D01*
X147438222Y-79634722D01*
X147488527Y-79719662D01*
X147502622Y-79745953D01*
X147566555Y-79887686D01*
X147614772Y-80038340D01*
X147647184Y-80195100D01*
X147663703Y-80355149D01*
X147664243Y-80515670D01*
X147648714Y-80673846D01*
X147617029Y-80826861D01*
X147569100Y-80971898D01*
X147542758Y-81032641D01*
X147494319Y-81115750D01*
X147432102Y-81190643D01*
X147359400Y-81254659D01*
X147279501Y-81305133D01*
X147195695Y-81339403D01*
X147150531Y-81350136D01*
X147070999Y-81353941D01*
X146989699Y-81338387D01*
X146908383Y-81304126D01*
X146828808Y-81251811D01*
X146784867Y-81214131D01*
X146716811Y-81141708D01*
X146660786Y-81061793D01*
X146614153Y-80970073D01*
X146579632Y-80878713D01*
X146557954Y-80810359D01*
X146541631Y-80750169D01*
X146529955Y-80693156D01*
X146522217Y-80634334D01*
X146517709Y-80568716D01*
X146515723Y-80491315D01*
X146515453Y-80427100D01*
X146515094Y-80368253D01*
X146513940Y-80317105D01*
X146512132Y-80276840D01*
X146509811Y-80250641D01*
X146507221Y-80241680D01*
X146494893Y-80250872D01*
X146477552Y-80276558D01*
X146456444Y-80315897D01*
X146432818Y-80366051D01*
X146407920Y-80424182D01*
X146382998Y-80487449D01*
X146359298Y-80553015D01*
X146338068Y-80618041D01*
X146330046Y-80644999D01*
X146307431Y-80728513D01*
X146287176Y-80814588D01*
X146268438Y-80907455D01*
X146250377Y-81011347D01*
X146232151Y-81130494D01*
X146228619Y-81155073D01*
X146219346Y-81218082D01*
X146211643Y-81264199D01*
X146204680Y-81296710D01*
X146197627Y-81318899D01*
X146189655Y-81334053D01*
X146180759Y-81344643D01*
X146145646Y-81367742D01*
X146102143Y-81374138D01*
X146048333Y-81364094D01*
X146045570Y-81363238D01*
X145995609Y-81337918D01*
X145944961Y-81294053D01*
X145894770Y-81233334D01*
X145846182Y-81157454D01*
X145800339Y-81068105D01*
X145758388Y-80966978D01*
X145737884Y-80908459D01*
X145721361Y-80859492D01*
X145706424Y-80817439D01*
X145694481Y-80786113D01*
X145686943Y-80769327D01*
X145685870Y-80767806D01*
X145677795Y-80772671D01*
X145662042Y-80792170D01*
X145640863Y-80823211D01*
X145616515Y-80862703D01*
X145615918Y-80863716D01*
X145534353Y-80992669D01*
X145453274Y-81101517D01*
X145372510Y-81190463D01*
X145291888Y-81259712D01*
X145263092Y-81279711D01*
X145176106Y-81325119D01*
X145085778Y-81351466D01*
X144994229Y-81359261D01*
X144903578Y-81349016D01*
X144815945Y-81321242D01*
X144733448Y-81276448D01*
X144658209Y-81215146D01*
X144592346Y-81137846D01*
X144576421Y-81114261D01*
X144512690Y-81001061D01*
X144462905Y-80881005D01*
X144426504Y-80751873D01*
X144402925Y-80611440D01*
X144391604Y-80457487D01*
X144390360Y-80378840D01*
X144391764Y-80347008D01*
X144676840Y-80347008D01*
X144680376Y-80374056D01*
X144688083Y-80383915D01*
X144688290Y-80383920D01*
X144700917Y-80377578D01*
X144722661Y-80361257D01*
X144740127Y-80346241D01*
X144791902Y-80292137D01*
X144846384Y-80222110D01*
X144901337Y-80139949D01*
X144954528Y-80049442D01*
X145003723Y-79954377D01*
X145046687Y-79858542D01*
X145079487Y-79770866D01*
X145102512Y-79691620D01*
X145119398Y-79612270D01*
X145129978Y-79535945D01*
X145134083Y-79465772D01*
X145131547Y-79404878D01*
X145122203Y-79356391D01*
X145105882Y-79323437D01*
X145103584Y-79320820D01*
X145073638Y-79302278D01*
X145035659Y-79296452D01*
X144998277Y-79304432D01*
X144993220Y-79306906D01*
X144974777Y-79323936D01*
X144950796Y-79356693D01*
X144922993Y-79401919D01*
X144893082Y-79456360D01*
X144862781Y-79516760D01*
X144833803Y-79579862D01*
X144807865Y-79642413D01*
X144788716Y-79695012D01*
X144771086Y-79752988D01*
X144753891Y-79819402D01*
X144737505Y-79891693D01*
X144722302Y-79967298D01*
X144708655Y-80043654D01*
X144696938Y-80118199D01*
X144687524Y-80188369D01*
X144680788Y-80251603D01*
X144677102Y-80305337D01*
X144676840Y-80347008D01*
X144391764Y-80347008D01*
X144399310Y-80175990D01*
X144425294Y-79972260D01*
X144467453Y-79772907D01*
X144515972Y-79609038D01*
X144565157Y-79476564D01*
X144616854Y-79362561D01*
X144672074Y-79265235D01*
X144731832Y-79182792D01*
X144794793Y-79115625D01*
X144870000Y-79055196D01*
X144945807Y-79013352D01*
X145020972Y-78990207D01*
X145094252Y-78985875D01*
X145164405Y-79000471D01*
G37*
X145164405Y-79000471D02*
X145230189Y-79034109D01*
X145275515Y-79071513D01*
X145315741Y-79117219D01*
X145346577Y-79167767D01*
X145368925Y-79226183D01*
X145383686Y-79295490D01*
X145391760Y-79378713D01*
X145394055Y-79469520D01*
X145387701Y-79602900D01*
X145367526Y-79728976D01*
X145332320Y-79852572D01*
X145280873Y-79978513D01*
X145251213Y-80038965D01*
X145152665Y-80210185D01*
X145037813Y-80371805D01*
X144905316Y-80525617D01*
X144830503Y-80601646D01*
X144716483Y-80712692D01*
X144733184Y-80772760D01*
X144760137Y-80848997D01*
X144796332Y-80921539D01*
X144832260Y-80975133D01*
X144859312Y-81001252D01*
X144897253Y-81027804D01*
X144939682Y-81051262D01*
X144980195Y-81068100D01*
X145012389Y-81074792D01*
X145013218Y-81074800D01*
X145073233Y-81065171D01*
X145135949Y-81037254D01*
X145199260Y-80992507D01*
X145261060Y-80932383D01*
X145312484Y-80867964D01*
X145329241Y-80841717D01*
X145353146Y-80800452D01*
X145382435Y-80747413D01*
X145415342Y-80685844D01*
X145450103Y-80618988D01*
X145479141Y-80561720D01*
X145601289Y-80317880D01*
X145591611Y-80231520D01*
X145586763Y-80171831D01*
X145583481Y-80096608D01*
X145581727Y-80010574D01*
X145581465Y-79918452D01*
X145582658Y-79824964D01*
X145585268Y-79734834D01*
X145589260Y-79652783D01*
X145594595Y-79583536D01*
X145596834Y-79562682D01*
X145611319Y-79460080D01*
X145628296Y-79377181D01*
X145647983Y-79313497D01*
X145670600Y-79268538D01*
X145696366Y-79241816D01*
X145725500Y-79232840D01*
X145743623Y-79235456D01*
X145796913Y-79261242D01*
X145844771Y-79306226D01*
X145886728Y-79369903D01*
X145906607Y-79411511D01*
X145912930Y-79426540D01*
X145917572Y-79440148D01*
X145920474Y-79455125D01*
X145921578Y-79474257D01*
X145920826Y-79500332D01*
X145918159Y-79536138D01*
X145913519Y-79584461D01*
X145906847Y-79648090D01*
X145900395Y-79708280D01*
X145885055Y-79940867D01*
X145888699Y-80173123D01*
X145911133Y-80402680D01*
X145952168Y-80627170D01*
X145985312Y-80757300D01*
X145997524Y-80797562D01*
X146008687Y-80829203D01*
X146017216Y-80847969D01*
X146020383Y-80851280D01*
X146028076Y-80841878D01*
X146038021Y-80816159D01*
X146049136Y-80777849D01*
X146060339Y-80730673D01*
X146070453Y-80678897D01*
X146095545Y-80567054D01*
X146132260Y-80447321D01*
X146178435Y-80324715D01*
X146231908Y-80204258D01*
X146290514Y-80090969D01*
X146352091Y-79989867D01*
X146390738Y-79935603D01*
X146455376Y-79856882D01*
X146515368Y-79796511D01*
X146572069Y-79753428D01*
X146626833Y-79726570D01*
X146670316Y-79716028D01*
X146727159Y-79714420D01*
X146770438Y-79726899D01*
X146800321Y-79753796D01*
X146816979Y-79795442D01*
X146820580Y-79852167D01*
X146811294Y-79924302D01*
X146800769Y-79970613D01*
X146793686Y-80000846D01*
X146788312Y-80031069D01*
X146784399Y-80064781D01*
X146781703Y-80105481D01*
X146779976Y-80156667D01*
X146778975Y-80221840D01*
X146778526Y-80287266D01*
X146778761Y-80374752D01*
X146780252Y-80452256D01*
X146782895Y-80516988D01*
X146786586Y-80566161D01*
X146789742Y-80589847D01*
X146818214Y-80708834D01*
X146858166Y-80812600D01*
X146909250Y-80900456D01*
X146971116Y-80971714D01*
X146992380Y-80990286D01*
X147048445Y-81026716D01*
X147102576Y-81042935D01*
X147154935Y-81038947D01*
X147205684Y-81014752D01*
X147232885Y-80992909D01*
X147272108Y-80948058D01*
X147309265Y-80889845D01*
X147340371Y-80825139D01*
X147356112Y-80780661D01*
X147373658Y-80697482D01*
X147382133Y-80597840D01*
X147381559Y-80483447D01*
X147371955Y-80356012D01*
X147353343Y-80217247D01*
X147348984Y-80190880D01*
X147330300Y-80097090D01*
X147306464Y-80009303D01*
X147275336Y-79920975D01*
X147234772Y-79825561D01*
X147216509Y-79786234D01*
X147175020Y-79696923D01*
X147143381Y-79625101D01*
X147121500Y-79570536D01*
X147109282Y-79532997D01*
X147106400Y-79515417D01*
X147115469Y-79487070D01*
X147140571Y-79467668D01*
X147178546Y-79459482D01*
X147184423Y-79459360D01*
X147240285Y-79465510D01*
X147292156Y-79484824D01*
X147341476Y-79518600D01*
X147389685Y-79568134D01*
X147438222Y-79634722D01*
X147488527Y-79719662D01*
X147502622Y-79745953D01*
X147566555Y-79887686D01*
X147614772Y-80038340D01*
X147647184Y-80195100D01*
X147663703Y-80355149D01*
X147664243Y-80515670D01*
X147648714Y-80673846D01*
X147617029Y-80826861D01*
X147569100Y-80971898D01*
X147542758Y-81032641D01*
X147494319Y-81115750D01*
X147432102Y-81190643D01*
X147359400Y-81254659D01*
X147279501Y-81305133D01*
X147195695Y-81339403D01*
X147150531Y-81350136D01*
X147070999Y-81353941D01*
X146989699Y-81338387D01*
X146908383Y-81304126D01*
X146828808Y-81251811D01*
X146784867Y-81214131D01*
X146716811Y-81141708D01*
X146660786Y-81061793D01*
X146614153Y-80970073D01*
X146579632Y-80878713D01*
X146557954Y-80810359D01*
X146541631Y-80750169D01*
X146529955Y-80693156D01*
X146522217Y-80634334D01*
X146517709Y-80568716D01*
X146515723Y-80491315D01*
X146515453Y-80427100D01*
X146515094Y-80368253D01*
X146513940Y-80317105D01*
X146512132Y-80276840D01*
X146509811Y-80250641D01*
X146507221Y-80241680D01*
X146494893Y-80250872D01*
X146477552Y-80276558D01*
X146456444Y-80315897D01*
X146432818Y-80366051D01*
X146407920Y-80424182D01*
X146382998Y-80487449D01*
X146359298Y-80553015D01*
X146338068Y-80618041D01*
X146330046Y-80644999D01*
X146307431Y-80728513D01*
X146287176Y-80814588D01*
X146268438Y-80907455D01*
X146250377Y-81011347D01*
X146232151Y-81130494D01*
X146228619Y-81155073D01*
X146219346Y-81218082D01*
X146211643Y-81264199D01*
X146204680Y-81296710D01*
X146197627Y-81318899D01*
X146189655Y-81334053D01*
X146180759Y-81344643D01*
X146145646Y-81367742D01*
X146102143Y-81374138D01*
X146048333Y-81364094D01*
X146045570Y-81363238D01*
X145995609Y-81337918D01*
X145944961Y-81294053D01*
X145894770Y-81233334D01*
X145846182Y-81157454D01*
X145800339Y-81068105D01*
X145758388Y-80966978D01*
X145737884Y-80908459D01*
X145721361Y-80859492D01*
X145706424Y-80817439D01*
X145694481Y-80786113D01*
X145686943Y-80769327D01*
X145685870Y-80767806D01*
X145677795Y-80772671D01*
X145662042Y-80792170D01*
X145640863Y-80823211D01*
X145616515Y-80862703D01*
X145615918Y-80863716D01*
X145534353Y-80992669D01*
X145453274Y-81101517D01*
X145372510Y-81190463D01*
X145291888Y-81259712D01*
X145263092Y-81279711D01*
X145176106Y-81325119D01*
X145085778Y-81351466D01*
X144994229Y-81359261D01*
X144903578Y-81349016D01*
X144815945Y-81321242D01*
X144733448Y-81276448D01*
X144658209Y-81215146D01*
X144592346Y-81137846D01*
X144576421Y-81114261D01*
X144512690Y-81001061D01*
X144462905Y-80881005D01*
X144426504Y-80751873D01*
X144402925Y-80611440D01*
X144391604Y-80457487D01*
X144390360Y-80378840D01*
X144391764Y-80347008D01*
X144676840Y-80347008D01*
X144680376Y-80374056D01*
X144688083Y-80383915D01*
X144688290Y-80383920D01*
X144700917Y-80377578D01*
X144722661Y-80361257D01*
X144740127Y-80346241D01*
X144791902Y-80292137D01*
X144846384Y-80222110D01*
X144901337Y-80139949D01*
X144954528Y-80049442D01*
X145003723Y-79954377D01*
X145046687Y-79858542D01*
X145079487Y-79770866D01*
X145102512Y-79691620D01*
X145119398Y-79612270D01*
X145129978Y-79535945D01*
X145134083Y-79465772D01*
X145131547Y-79404878D01*
X145122203Y-79356391D01*
X145105882Y-79323437D01*
X145103584Y-79320820D01*
X145073638Y-79302278D01*
X145035659Y-79296452D01*
X144998277Y-79304432D01*
X144993220Y-79306906D01*
X144974777Y-79323936D01*
X144950796Y-79356693D01*
X144922993Y-79401919D01*
X144893082Y-79456360D01*
X144862781Y-79516760D01*
X144833803Y-79579862D01*
X144807865Y-79642413D01*
X144788716Y-79695012D01*
X144771086Y-79752988D01*
X144753891Y-79819402D01*
X144737505Y-79891693D01*
X144722302Y-79967298D01*
X144708655Y-80043654D01*
X144696938Y-80118199D01*
X144687524Y-80188369D01*
X144680788Y-80251603D01*
X144677102Y-80305337D01*
X144676840Y-80347008D01*
X144391764Y-80347008D01*
X144399310Y-80175990D01*
X144425294Y-79972260D01*
X144467453Y-79772907D01*
X144515972Y-79609038D01*
X144565157Y-79476564D01*
X144616854Y-79362561D01*
X144672074Y-79265235D01*
X144731832Y-79182792D01*
X144794793Y-79115625D01*
X144870000Y-79055196D01*
X144945807Y-79013352D01*
X145020972Y-78990207D01*
X145094252Y-78985875D01*
X145164405Y-79000471D01*
G36*
X149274219Y-77469744D02*
G01*
X149293253Y-77471916D01*
X149332855Y-77487646D01*
X149357282Y-77515673D01*
X149365393Y-77553601D01*
X149356047Y-77599035D01*
X149355013Y-77601682D01*
X149337473Y-77630740D01*
X149307058Y-77666792D01*
X149267990Y-77705849D01*
X149224490Y-77743924D01*
X149180779Y-77777027D01*
X149147367Y-77797868D01*
X149116459Y-77813418D01*
X149093283Y-77819786D01*
X149068312Y-77818510D01*
X149046186Y-77814223D01*
X148978378Y-77804982D01*
X148901931Y-77805088D01*
X148813258Y-77814669D01*
X148755535Y-77824480D01*
X148641911Y-77845867D01*
X148616107Y-77918553D01*
X148591602Y-77995666D01*
X148566198Y-78090651D01*
X148540302Y-78201099D01*
X148514324Y-78324605D01*
X148488671Y-78458762D01*
X148463752Y-78601162D01*
X148439974Y-78749399D01*
X148417747Y-78901066D01*
X148397479Y-79053756D01*
X148379578Y-79205063D01*
X148364451Y-79352579D01*
X148355567Y-79454363D01*
X148350927Y-79515821D01*
X148348474Y-79562991D01*
X148348405Y-79601806D01*
X148350917Y-79638203D01*
X148356207Y-79678113D01*
X148364472Y-79727473D01*
X148364684Y-79728683D01*
X148398157Y-79938490D01*
X148422451Y-80135537D01*
X148437987Y-80324974D01*
X148445185Y-80511951D01*
X148444468Y-80701617D01*
X148444425Y-80703449D01*
X148439347Y-80843621D01*
X148431161Y-80964722D01*
X148419679Y-81067791D01*
X148404719Y-81153866D01*
X148386093Y-81223984D01*
X148363617Y-81279183D01*
X148337105Y-81320502D01*
X148333563Y-81324669D01*
X148308275Y-81348945D01*
X148284830Y-81357475D01*
X148255797Y-81351829D01*
X148238229Y-81344775D01*
X148213703Y-81329453D01*
X148192292Y-81304789D01*
X148172464Y-81268008D01*
X148152685Y-81216334D01*
X148134028Y-81156080D01*
X148103567Y-81037272D01*
X148077641Y-80906832D01*
X148056144Y-80763591D01*
X148038974Y-80606380D01*
X148026025Y-80434030D01*
X148017193Y-80245372D01*
X148012375Y-80039238D01*
X148011464Y-79814458D01*
X148011623Y-79784480D01*
X148014406Y-79342520D01*
X147977301Y-79249799D01*
X147945989Y-79159136D01*
X147929708Y-79080213D01*
X147928329Y-79011235D01*
X147941726Y-78950409D01*
X147954051Y-78922250D01*
X147972571Y-78895693D01*
X147994035Y-78887125D01*
X148023117Y-78895270D01*
X148033546Y-78900524D01*
X148068704Y-78919367D01*
X148080236Y-78866783D01*
X148086406Y-78834708D01*
X148094048Y-78789205D01*
X148102072Y-78737007D01*
X148107704Y-78697360D01*
X148113992Y-78656988D01*
X148123905Y-78600508D01*
X148136727Y-78531665D01*
X148151743Y-78454202D01*
X148168237Y-78371862D01*
X148185495Y-78288389D01*
X148189060Y-78271489D01*
X148205215Y-78194913D01*
X148219919Y-78124707D01*
X148232664Y-78063343D01*
X148242939Y-78013295D01*
X148250234Y-77977037D01*
X148254041Y-77957043D01*
X148254480Y-77953989D01*
X148245799Y-77947549D01*
X148229843Y-77945520D01*
X148210720Y-77948837D01*
X148175191Y-77958193D01*
X148125952Y-77972692D01*
X148065696Y-77991442D01*
X147997120Y-78013546D01*
X147922918Y-78038110D01*
X147845784Y-78064241D01*
X147768415Y-78091043D01*
X147693505Y-78117623D01*
X147623749Y-78143085D01*
X147561841Y-78166535D01*
X147549834Y-78171220D01*
X147485053Y-78196372D01*
X147436292Y-78214485D01*
X147400826Y-78226357D01*
X147375928Y-78232789D01*
X147358871Y-78234581D01*
X147346929Y-78232531D01*
X147344374Y-78231490D01*
X147322375Y-78212809D01*
X147312877Y-78181480D01*
X147315504Y-78135789D01*
X147319183Y-78116257D01*
X147345092Y-78036813D01*
X147386992Y-77968530D01*
X147445869Y-77910155D01*
X147518702Y-77862586D01*
X147546895Y-77849519D01*
X147591483Y-77831558D01*
X147649425Y-77809736D01*
X147717679Y-77785085D01*
X147793204Y-77758637D01*
X147872960Y-77731427D01*
X147953904Y-77704486D01*
X148032996Y-77678848D01*
X148107194Y-77655545D01*
X148173457Y-77635610D01*
X148228744Y-77620077D01*
X148245868Y-77615637D01*
X148324340Y-77597233D01*
X148412678Y-77578792D01*
X148508317Y-77560664D01*
X148608690Y-77543203D01*
X148711231Y-77526760D01*
X148813376Y-77511688D01*
X148912558Y-77498337D01*
X149006210Y-77487061D01*
X149091769Y-77478212D01*
X149166667Y-77472141D01*
X149228339Y-77469201D01*
X149274219Y-77469744D01*
G37*
X149274219Y-77469744D02*
X149293253Y-77471916D01*
X149332855Y-77487646D01*
X149357282Y-77515673D01*
X149365393Y-77553601D01*
X149356047Y-77599035D01*
X149355013Y-77601682D01*
X149337473Y-77630740D01*
X149307058Y-77666792D01*
X149267990Y-77705849D01*
X149224490Y-77743924D01*
X149180779Y-77777027D01*
X149147367Y-77797868D01*
X149116459Y-77813418D01*
X149093283Y-77819786D01*
X149068312Y-77818510D01*
X149046186Y-77814223D01*
X148978378Y-77804982D01*
X148901931Y-77805088D01*
X148813258Y-77814669D01*
X148755535Y-77824480D01*
X148641911Y-77845867D01*
X148616107Y-77918553D01*
X148591602Y-77995666D01*
X148566198Y-78090651D01*
X148540302Y-78201099D01*
X148514324Y-78324605D01*
X148488671Y-78458762D01*
X148463752Y-78601162D01*
X148439974Y-78749399D01*
X148417747Y-78901066D01*
X148397479Y-79053756D01*
X148379578Y-79205063D01*
X148364451Y-79352579D01*
X148355567Y-79454363D01*
X148350927Y-79515821D01*
X148348474Y-79562991D01*
X148348405Y-79601806D01*
X148350917Y-79638203D01*
X148356207Y-79678113D01*
X148364472Y-79727473D01*
X148364684Y-79728683D01*
X148398157Y-79938490D01*
X148422451Y-80135537D01*
X148437987Y-80324974D01*
X148445185Y-80511951D01*
X148444468Y-80701617D01*
X148444425Y-80703449D01*
X148439347Y-80843621D01*
X148431161Y-80964722D01*
X148419679Y-81067791D01*
X148404719Y-81153866D01*
X148386093Y-81223984D01*
X148363617Y-81279183D01*
X148337105Y-81320502D01*
X148333563Y-81324669D01*
X148308275Y-81348945D01*
X148284830Y-81357475D01*
X148255797Y-81351829D01*
X148238229Y-81344775D01*
X148213703Y-81329453D01*
X148192292Y-81304789D01*
X148172464Y-81268008D01*
X148152685Y-81216334D01*
X148134028Y-81156080D01*
X148103567Y-81037272D01*
X148077641Y-80906832D01*
X148056144Y-80763591D01*
X148038974Y-80606380D01*
X148026025Y-80434030D01*
X148017193Y-80245372D01*
X148012375Y-80039238D01*
X148011464Y-79814458D01*
X148011623Y-79784480D01*
X148014406Y-79342520D01*
X147977301Y-79249799D01*
X147945989Y-79159136D01*
X147929708Y-79080213D01*
X147928329Y-79011235D01*
X147941726Y-78950409D01*
X147954051Y-78922250D01*
X147972571Y-78895693D01*
X147994035Y-78887125D01*
X148023117Y-78895270D01*
X148033546Y-78900524D01*
X148068704Y-78919367D01*
X148080236Y-78866783D01*
X148086406Y-78834708D01*
X148094048Y-78789205D01*
X148102072Y-78737007D01*
X148107704Y-78697360D01*
X148113992Y-78656988D01*
X148123905Y-78600508D01*
X148136727Y-78531665D01*
X148151743Y-78454202D01*
X148168237Y-78371862D01*
X148185495Y-78288389D01*
X148189060Y-78271489D01*
X148205215Y-78194913D01*
X148219919Y-78124707D01*
X148232664Y-78063343D01*
X148242939Y-78013295D01*
X148250234Y-77977037D01*
X148254041Y-77957043D01*
X148254480Y-77953989D01*
X148245799Y-77947549D01*
X148229843Y-77945520D01*
X148210720Y-77948837D01*
X148175191Y-77958193D01*
X148125952Y-77972692D01*
X148065696Y-77991442D01*
X147997120Y-78013546D01*
X147922918Y-78038110D01*
X147845784Y-78064241D01*
X147768415Y-78091043D01*
X147693505Y-78117623D01*
X147623749Y-78143085D01*
X147561841Y-78166535D01*
X147549834Y-78171220D01*
X147485053Y-78196372D01*
X147436292Y-78214485D01*
X147400826Y-78226357D01*
X147375928Y-78232789D01*
X147358871Y-78234581D01*
X147346929Y-78232531D01*
X147344374Y-78231490D01*
X147322375Y-78212809D01*
X147312877Y-78181480D01*
X147315504Y-78135789D01*
X147319183Y-78116257D01*
X147345092Y-78036813D01*
X147386992Y-77968530D01*
X147445869Y-77910155D01*
X147518702Y-77862586D01*
X147546895Y-77849519D01*
X147591483Y-77831558D01*
X147649425Y-77809736D01*
X147717679Y-77785085D01*
X147793204Y-77758637D01*
X147872960Y-77731427D01*
X147953904Y-77704486D01*
X148032996Y-77678848D01*
X148107194Y-77655545D01*
X148173457Y-77635610D01*
X148228744Y-77620077D01*
X148245868Y-77615637D01*
X148324340Y-77597233D01*
X148412678Y-77578792D01*
X148508317Y-77560664D01*
X148608690Y-77543203D01*
X148711231Y-77526760D01*
X148813376Y-77511688D01*
X148912558Y-77498337D01*
X149006210Y-77487061D01*
X149091769Y-77478212D01*
X149166667Y-77472141D01*
X149228339Y-77469201D01*
X149274219Y-77469744D01*
G36*
X151032320Y-78939350D02*
G01*
X151060258Y-78958751D01*
X151067940Y-78970074D01*
X151075505Y-78994064D01*
X151082427Y-79034154D01*
X151088380Y-79086125D01*
X151093042Y-79145759D01*
X151096086Y-79208838D01*
X151097190Y-79271144D01*
X151096028Y-79328458D01*
X151095827Y-79332716D01*
X151091280Y-79394549D01*
X151083894Y-79460915D01*
X151074405Y-79527460D01*
X151063548Y-79589834D01*
X151052059Y-79643684D01*
X151040674Y-79684659D01*
X151033157Y-79703359D01*
X151013422Y-79730842D01*
X150982549Y-79762781D01*
X150946893Y-79793301D01*
X150912810Y-79816521D01*
X150907913Y-79819174D01*
X150877111Y-79831305D01*
X150841414Y-79840477D01*
X150837168Y-79841210D01*
X150809601Y-79843856D01*
X150793155Y-79838302D01*
X150779310Y-79821571D01*
X150778799Y-79820794D01*
X150771948Y-79808546D01*
X150767634Y-79794254D01*
X150765726Y-79774226D01*
X150766096Y-79744767D01*
X150768614Y-79702183D01*
X150772737Y-79647966D01*
X150779696Y-79548750D01*
X150783261Y-79468498D01*
X150783433Y-79406139D01*
X150780215Y-79360603D01*
X150773611Y-79330821D01*
X150773483Y-79330481D01*
X150749346Y-79287562D01*
X150716315Y-79262877D01*
X150680622Y-79256159D01*
X150623542Y-79266092D01*
X150567086Y-79294983D01*
X150512055Y-79341471D01*
X150459246Y-79404194D01*
X150409459Y-79481792D01*
X150363492Y-79572902D01*
X150322144Y-79676165D01*
X150286215Y-79790219D01*
X150256503Y-79913702D01*
X150239359Y-80008003D01*
X150230590Y-80080635D01*
X150224867Y-80164688D01*
X150222191Y-80254682D01*
X150222560Y-80345137D01*
X150225978Y-80430574D01*
X150232443Y-80505513D01*
X150239297Y-80551560D01*
X150264612Y-80663210D01*
X150295636Y-80762263D01*
X150331525Y-80846585D01*
X150371435Y-80914045D01*
X150394172Y-80942503D01*
X150433030Y-80977066D01*
X150479843Y-81006198D01*
X150527847Y-81026396D01*
X150570277Y-81034155D01*
X150571144Y-81034160D01*
X150632014Y-81024499D01*
X150694774Y-80996643D01*
X150757131Y-80952279D01*
X150816789Y-80893095D01*
X150871452Y-80820781D01*
X150880484Y-80806659D01*
X150916115Y-80744819D01*
X150954511Y-80670284D01*
X150992491Y-80589788D01*
X151026873Y-80510066D01*
X151053793Y-80439800D01*
X151070680Y-80393184D01*
X151083806Y-80362558D01*
X151095684Y-80344587D01*
X151108829Y-80335933D01*
X151125754Y-80333261D01*
X151134183Y-80333120D01*
X151168204Y-80342618D01*
X151199393Y-80368546D01*
X151223629Y-80407054D01*
X151229503Y-80422175D01*
X151235893Y-80463110D01*
X151233959Y-80518151D01*
X151224624Y-80583312D01*
X151208810Y-80654604D01*
X151187440Y-80728041D01*
X151161438Y-80799634D01*
X151131727Y-80865397D01*
X151123121Y-80881760D01*
X151051699Y-81002985D01*
X150979923Y-81104713D01*
X150906998Y-81187763D01*
X150832129Y-81252953D01*
X150754522Y-81301100D01*
X150689734Y-81327962D01*
X150591594Y-81350933D01*
X150497258Y-81354133D01*
X150407101Y-81337818D01*
X150321499Y-81302247D01*
X150240827Y-81247675D01*
X150165461Y-81174361D01*
X150095776Y-81082561D01*
X150032148Y-80972533D01*
X149974951Y-80844534D01*
X149971636Y-80836040D01*
X149958426Y-80803284D01*
X149947396Y-80778339D01*
X149941481Y-80767453D01*
X149934013Y-80772210D01*
X149919510Y-80791350D01*
X149900511Y-80821333D01*
X149890519Y-80838573D01*
X149812773Y-80967646D01*
X149736006Y-81077112D01*
X149659587Y-81167623D01*
X149582885Y-81239827D01*
X149505270Y-81294376D01*
X149426110Y-81331919D01*
X149404762Y-81339109D01*
X149329450Y-81354410D01*
X149246442Y-81357981D01*
X149164656Y-81349788D01*
X149123160Y-81340178D01*
X149078151Y-81326035D01*
X149042630Y-81311294D01*
X149008876Y-81292031D01*
X148969169Y-81264320D01*
X148958663Y-81256549D01*
X148900424Y-81202723D01*
X148845153Y-81131312D01*
X148794107Y-81044979D01*
X148748538Y-80946387D01*
X148709703Y-80838198D01*
X148678856Y-80723076D01*
X148659992Y-80622680D01*
X148653615Y-80562635D01*
X148649840Y-80488020D01*
X148648605Y-80404408D01*
X148649152Y-80366078D01*
X148945360Y-80366078D01*
X148968220Y-80351110D01*
X148983600Y-80338000D01*
X149008969Y-80313100D01*
X149040903Y-80279887D01*
X149075983Y-80241837D01*
X149078793Y-80238722D01*
X149184236Y-80109469D01*
X149269565Y-79978163D01*
X149334914Y-79844491D01*
X149380414Y-79708142D01*
X149406197Y-79568807D01*
X149412720Y-79452444D01*
X149410425Y-79395045D01*
X149402535Y-79352677D01*
X149387541Y-79320469D01*
X149363935Y-79293546D01*
X149363369Y-79293031D01*
X149337978Y-79279798D01*
X149308942Y-79284030D01*
X149274710Y-79306230D01*
X149249504Y-79329950D01*
X149216416Y-79371524D01*
X149180614Y-79429694D01*
X149143559Y-79501171D01*
X149106713Y-79582665D01*
X149071536Y-79670886D01*
X149039490Y-79762544D01*
X149012037Y-79854349D01*
X149005382Y-79879590D01*
X148991984Y-79938735D01*
X148978888Y-80008397D01*
X148966906Y-80082942D01*
X148956847Y-80156740D01*
X148949523Y-80224159D01*
X148945744Y-80279566D01*
X148945406Y-80296259D01*
X148945360Y-80366078D01*
X148649152Y-80366078D01*
X148649849Y-80317371D01*
X148653510Y-80232485D01*
X148659525Y-80155321D01*
X148665746Y-80104520D01*
X148691959Y-79957450D01*
X148725792Y-79812292D01*
X148766217Y-79671902D01*
X148812206Y-79539138D01*
X148862730Y-79416856D01*
X148916760Y-79307916D01*
X148973268Y-79215172D01*
X148998312Y-79180673D01*
X149062329Y-79108541D01*
X149131392Y-79050395D01*
X149203372Y-79007077D01*
X149276141Y-78979429D01*
X149347572Y-78968292D01*
X149415538Y-78974507D01*
X149469532Y-78994340D01*
X149530719Y-79035862D01*
X149584498Y-79090997D01*
X149626183Y-79154219D01*
X149646540Y-79203126D01*
X149674905Y-79329062D01*
X149684356Y-79460765D01*
X149675139Y-79597230D01*
X149647499Y-79737456D01*
X149601682Y-79880441D01*
X149537933Y-80025181D01*
X149456499Y-80170674D01*
X149382087Y-80282320D01*
X149335770Y-80341626D01*
X149275956Y-80409418D01*
X149205756Y-80482470D01*
X149128281Y-80557556D01*
X149046641Y-80631453D01*
X149038415Y-80638612D01*
X148973991Y-80694473D01*
X148991303Y-80755096D01*
X149022073Y-80840065D01*
X149061868Y-80914072D01*
X149108963Y-80975579D01*
X149161634Y-81023048D01*
X149218155Y-81054940D01*
X149276803Y-81069717D01*
X149335852Y-81065840D01*
X149338868Y-81065108D01*
X149401993Y-81039322D01*
X149464217Y-80994535D01*
X149516867Y-80940307D01*
X149544789Y-80906156D01*
X149569917Y-80872851D01*
X149594173Y-80837261D01*
X149619478Y-80796259D01*
X149647756Y-80746715D01*
X149680927Y-80685501D01*
X149720915Y-80609487D01*
X149725489Y-80600710D01*
X149757854Y-80539224D01*
X149789754Y-80479833D01*
X149819073Y-80426385D01*
X149843696Y-80382729D01*
X149861508Y-80352714D01*
X149863533Y-80349514D01*
X149880009Y-80322884D01*
X149891346Y-80300279D01*
X149898923Y-80276462D01*
X149904117Y-80246200D01*
X149908305Y-80204255D01*
X149911106Y-80168694D01*
X149919025Y-80079176D01*
X149928772Y-80001429D01*
X149941709Y-79926910D01*
X149959194Y-79847077D01*
X149968227Y-79809880D01*
X150008698Y-79670173D01*
X150058609Y-79537128D01*
X150116519Y-79413578D01*
X150180988Y-79302359D01*
X150250575Y-79206305D01*
X150306010Y-79145178D01*
X150391874Y-79068811D01*
X150475986Y-79011404D01*
X150560306Y-78971940D01*
X150646790Y-78949400D01*
X150692880Y-78944057D01*
X150736634Y-78942144D01*
X150769578Y-78944673D01*
X150800999Y-78953060D01*
X150832124Y-78965296D01*
X150895168Y-78991874D01*
X150922261Y-78966765D01*
X150958299Y-78943243D01*
X150996660Y-78934142D01*
X151032320Y-78939350D01*
G37*
X151032320Y-78939350D02*
X151060258Y-78958751D01*
X151067940Y-78970074D01*
X151075505Y-78994064D01*
X151082427Y-79034154D01*
X151088380Y-79086125D01*
X151093042Y-79145759D01*
X151096086Y-79208838D01*
X151097190Y-79271144D01*
X151096028Y-79328458D01*
X151095827Y-79332716D01*
X151091280Y-79394549D01*
X151083894Y-79460915D01*
X151074405Y-79527460D01*
X151063548Y-79589834D01*
X151052059Y-79643684D01*
X151040674Y-79684659D01*
X151033157Y-79703359D01*
X151013422Y-79730842D01*
X150982549Y-79762781D01*
X150946893Y-79793301D01*
X150912810Y-79816521D01*
X150907913Y-79819174D01*
X150877111Y-79831305D01*
X150841414Y-79840477D01*
X150837168Y-79841210D01*
X150809601Y-79843856D01*
X150793155Y-79838302D01*
X150779310Y-79821571D01*
X150778799Y-79820794D01*
X150771948Y-79808546D01*
X150767634Y-79794254D01*
X150765726Y-79774226D01*
X150766096Y-79744767D01*
X150768614Y-79702183D01*
X150772737Y-79647966D01*
X150779696Y-79548750D01*
X150783261Y-79468498D01*
X150783433Y-79406139D01*
X150780215Y-79360603D01*
X150773611Y-79330821D01*
X150773483Y-79330481D01*
X150749346Y-79287562D01*
X150716315Y-79262877D01*
X150680622Y-79256159D01*
X150623542Y-79266092D01*
X150567086Y-79294983D01*
X150512055Y-79341471D01*
X150459246Y-79404194D01*
X150409459Y-79481792D01*
X150363492Y-79572902D01*
X150322144Y-79676165D01*
X150286215Y-79790219D01*
X150256503Y-79913702D01*
X150239359Y-80008003D01*
X150230590Y-80080635D01*
X150224867Y-80164688D01*
X150222191Y-80254682D01*
X150222560Y-80345137D01*
X150225978Y-80430574D01*
X150232443Y-80505513D01*
X150239297Y-80551560D01*
X150264612Y-80663210D01*
X150295636Y-80762263D01*
X150331525Y-80846585D01*
X150371435Y-80914045D01*
X150394172Y-80942503D01*
X150433030Y-80977066D01*
X150479843Y-81006198D01*
X150527847Y-81026396D01*
X150570277Y-81034155D01*
X150571144Y-81034160D01*
X150632014Y-81024499D01*
X150694774Y-80996643D01*
X150757131Y-80952279D01*
X150816789Y-80893095D01*
X150871452Y-80820781D01*
X150880484Y-80806659D01*
X150916115Y-80744819D01*
X150954511Y-80670284D01*
X150992491Y-80589788D01*
X151026873Y-80510066D01*
X151053793Y-80439800D01*
X151070680Y-80393184D01*
X151083806Y-80362558D01*
X151095684Y-80344587D01*
X151108829Y-80335933D01*
X151125754Y-80333261D01*
X151134183Y-80333120D01*
X151168204Y-80342618D01*
X151199393Y-80368546D01*
X151223629Y-80407054D01*
X151229503Y-80422175D01*
X151235893Y-80463110D01*
X151233959Y-80518151D01*
X151224624Y-80583312D01*
X151208810Y-80654604D01*
X151187440Y-80728041D01*
X151161438Y-80799634D01*
X151131727Y-80865397D01*
X151123121Y-80881760D01*
X151051699Y-81002985D01*
X150979923Y-81104713D01*
X150906998Y-81187763D01*
X150832129Y-81252953D01*
X150754522Y-81301100D01*
X150689734Y-81327962D01*
X150591594Y-81350933D01*
X150497258Y-81354133D01*
X150407101Y-81337818D01*
X150321499Y-81302247D01*
X150240827Y-81247675D01*
X150165461Y-81174361D01*
X150095776Y-81082561D01*
X150032148Y-80972533D01*
X149974951Y-80844534D01*
X149971636Y-80836040D01*
X149958426Y-80803284D01*
X149947396Y-80778339D01*
X149941481Y-80767453D01*
X149934013Y-80772210D01*
X149919510Y-80791350D01*
X149900511Y-80821333D01*
X149890519Y-80838573D01*
X149812773Y-80967646D01*
X149736006Y-81077112D01*
X149659587Y-81167623D01*
X149582885Y-81239827D01*
X149505270Y-81294376D01*
X149426110Y-81331919D01*
X149404762Y-81339109D01*
X149329450Y-81354410D01*
X149246442Y-81357981D01*
X149164656Y-81349788D01*
X149123160Y-81340178D01*
X149078151Y-81326035D01*
X149042630Y-81311294D01*
X149008876Y-81292031D01*
X148969169Y-81264320D01*
X148958663Y-81256549D01*
X148900424Y-81202723D01*
X148845153Y-81131312D01*
X148794107Y-81044979D01*
X148748538Y-80946387D01*
X148709703Y-80838198D01*
X148678856Y-80723076D01*
X148659992Y-80622680D01*
X148653615Y-80562635D01*
X148649840Y-80488020D01*
X148648605Y-80404408D01*
X148649152Y-80366078D01*
X148945360Y-80366078D01*
X148968220Y-80351110D01*
X148983600Y-80338000D01*
X149008969Y-80313100D01*
X149040903Y-80279887D01*
X149075983Y-80241837D01*
X149078793Y-80238722D01*
X149184236Y-80109469D01*
X149269565Y-79978163D01*
X149334914Y-79844491D01*
X149380414Y-79708142D01*
X149406197Y-79568807D01*
X149412720Y-79452444D01*
X149410425Y-79395045D01*
X149402535Y-79352677D01*
X149387541Y-79320469D01*
X149363935Y-79293546D01*
X149363369Y-79293031D01*
X149337978Y-79279798D01*
X149308942Y-79284030D01*
X149274710Y-79306230D01*
X149249504Y-79329950D01*
X149216416Y-79371524D01*
X149180614Y-79429694D01*
X149143559Y-79501171D01*
X149106713Y-79582665D01*
X149071536Y-79670886D01*
X149039490Y-79762544D01*
X149012037Y-79854349D01*
X149005382Y-79879590D01*
X148991984Y-79938735D01*
X148978888Y-80008397D01*
X148966906Y-80082942D01*
X148956847Y-80156740D01*
X148949523Y-80224159D01*
X148945744Y-80279566D01*
X148945406Y-80296259D01*
X148945360Y-80366078D01*
X148649152Y-80366078D01*
X148649849Y-80317371D01*
X148653510Y-80232485D01*
X148659525Y-80155321D01*
X148665746Y-80104520D01*
X148691959Y-79957450D01*
X148725792Y-79812292D01*
X148766217Y-79671902D01*
X148812206Y-79539138D01*
X148862730Y-79416856D01*
X148916760Y-79307916D01*
X148973268Y-79215172D01*
X148998312Y-79180673D01*
X149062329Y-79108541D01*
X149131392Y-79050395D01*
X149203372Y-79007077D01*
X149276141Y-78979429D01*
X149347572Y-78968292D01*
X149415538Y-78974507D01*
X149469532Y-78994340D01*
X149530719Y-79035862D01*
X149584498Y-79090997D01*
X149626183Y-79154219D01*
X149646540Y-79203126D01*
X149674905Y-79329062D01*
X149684356Y-79460765D01*
X149675139Y-79597230D01*
X149647499Y-79737456D01*
X149601682Y-79880441D01*
X149537933Y-80025181D01*
X149456499Y-80170674D01*
X149382087Y-80282320D01*
X149335770Y-80341626D01*
X149275956Y-80409418D01*
X149205756Y-80482470D01*
X149128281Y-80557556D01*
X149046641Y-80631453D01*
X149038415Y-80638612D01*
X148973991Y-80694473D01*
X148991303Y-80755096D01*
X149022073Y-80840065D01*
X149061868Y-80914072D01*
X149108963Y-80975579D01*
X149161634Y-81023048D01*
X149218155Y-81054940D01*
X149276803Y-81069717D01*
X149335852Y-81065840D01*
X149338868Y-81065108D01*
X149401993Y-81039322D01*
X149464217Y-80994535D01*
X149516867Y-80940307D01*
X149544789Y-80906156D01*
X149569917Y-80872851D01*
X149594173Y-80837261D01*
X149619478Y-80796259D01*
X149647756Y-80746715D01*
X149680927Y-80685501D01*
X149720915Y-80609487D01*
X149725489Y-80600710D01*
X149757854Y-80539224D01*
X149789754Y-80479833D01*
X149819073Y-80426385D01*
X149843696Y-80382729D01*
X149861508Y-80352714D01*
X149863533Y-80349514D01*
X149880009Y-80322884D01*
X149891346Y-80300279D01*
X149898923Y-80276462D01*
X149904117Y-80246200D01*
X149908305Y-80204255D01*
X149911106Y-80168694D01*
X149919025Y-80079176D01*
X149928772Y-80001429D01*
X149941709Y-79926910D01*
X149959194Y-79847077D01*
X149968227Y-79809880D01*
X150008698Y-79670173D01*
X150058609Y-79537128D01*
X150116519Y-79413578D01*
X150180988Y-79302359D01*
X150250575Y-79206305D01*
X150306010Y-79145178D01*
X150391874Y-79068811D01*
X150475986Y-79011404D01*
X150560306Y-78971940D01*
X150646790Y-78949400D01*
X150692880Y-78944057D01*
X150736634Y-78942144D01*
X150769578Y-78944673D01*
X150800999Y-78953060D01*
X150832124Y-78965296D01*
X150895168Y-78991874D01*
X150922261Y-78966765D01*
X150958299Y-78943243D01*
X150996660Y-78934142D01*
X151032320Y-78939350D01*
D12*
%TO.C,J2*%
X138100000Y-88760000D02*
X138100000Y-91550000D01*
X138100000Y-87540000D02*
X138100000Y-84850000D01*
X128200000Y-84850000D02*
X138100000Y-84850000D01*
X128200000Y-91550000D02*
X128200000Y-84850000D01*
X138100000Y-91550000D02*
X128200000Y-91550000D01*
D13*
%TO.C,R1*%
X148970000Y-86611252D02*
X148970000Y-86088748D01*
X147550000Y-86611252D02*
X147550000Y-86088748D01*
%TO.C,U1*%
X153000000Y-88890000D02*
X150075000Y-88890000D01*
X153000000Y-88890000D02*
X154500000Y-88890000D01*
X153000000Y-92110000D02*
X151500000Y-92110000D01*
X153000000Y-92110000D02*
X154500000Y-92110000D01*
%TO.C,J1*%
X160400000Y-89200000D02*
X160400000Y-87200000D01*
X173810000Y-93310000D02*
X170750000Y-93310000D01*
X173810000Y-83090000D02*
X173810000Y-93310000D01*
X170750000Y-83090000D02*
X173810000Y-83090000D01*
X160590000Y-83090000D02*
X166650000Y-83090000D01*
X160590000Y-85900000D02*
X160590000Y-83090000D01*
X160590000Y-93310000D02*
X160590000Y-90500000D01*
X166650000Y-93310000D02*
X160590000Y-93310000D01*
%TO.C,R3*%
X145871267Y-92990000D02*
X145528733Y-92990000D01*
X145871267Y-94010000D02*
X145528733Y-94010000D01*
%TO.C,R2*%
X143971267Y-91290000D02*
X143628733Y-91290000D01*
X143971267Y-92310000D02*
X143628733Y-92310000D01*
%TO.C,Q1*%
X151970000Y-85610000D02*
X154400000Y-85610000D01*
X151950000Y-85600000D02*
X151950000Y-84600000D01*
X151950000Y-82550000D02*
X153800000Y-82550000D01*
X151950000Y-83600000D02*
X151950000Y-82550000D01*
%TO.C,D1*%
X149260000Y-91065000D02*
X146800000Y-91065000D01*
X149260000Y-92535000D02*
X149260000Y-91065000D01*
X146800000Y-92535000D02*
X149260000Y-92535000D01*
%TO.C,C3*%
X154771267Y-92790000D02*
X154428733Y-92790000D01*
X154771267Y-93810000D02*
X154428733Y-93810000D01*
%TO.C,C2*%
X156890000Y-90897936D02*
X156890000Y-92102064D01*
X158710000Y-90897936D02*
X158710000Y-92102064D01*
%TO.C,C1*%
X147402064Y-88790000D02*
X146197936Y-88790000D01*
X147402064Y-90610000D02*
X146197936Y-90610000D01*
%TO.C,J2*%
D14*
X137166666Y-82952380D02*
X137166666Y-83666666D01*
X137119047Y-83809523D01*
X137023809Y-83904761D01*
X136880952Y-83952380D01*
X136785714Y-83952380D01*
X137595238Y-83047619D02*
X137642857Y-83000000D01*
X137738095Y-82952380D01*
X137976190Y-82952380D01*
X138071428Y-83000000D01*
X138119047Y-83047619D01*
X138166666Y-83142857D01*
X138166666Y-83238095D01*
X138119047Y-83380952D01*
X137547619Y-83952380D01*
X138166666Y-83952380D01*
%TO.C,U1*%
X152238095Y-87502380D02*
X152238095Y-88311904D01*
X152285714Y-88407142D01*
X152333333Y-88454761D01*
X152428571Y-88502380D01*
X152619047Y-88502380D01*
X152714285Y-88454761D01*
X152761904Y-88407142D01*
X152809523Y-88311904D01*
X152809523Y-87502380D01*
X153809523Y-88502380D02*
X153238095Y-88502380D01*
X153523809Y-88502380D02*
X153523809Y-87502380D01*
X153428571Y-87645238D01*
X153333333Y-87740476D01*
X153238095Y-87788095D01*
%TO.C,J1*%
X160966666Y-81452380D02*
X160966666Y-82166666D01*
X160919047Y-82309523D01*
X160823809Y-82404761D01*
X160680952Y-82452380D01*
X160585714Y-82452380D01*
X161966666Y-82452380D02*
X161395238Y-82452380D01*
X161680952Y-82452380D02*
X161680952Y-81452380D01*
X161585714Y-81595238D01*
X161490476Y-81690476D01*
X161395238Y-81738095D01*
%TO.C,Q1*%
X152904761Y-82147619D02*
X152809523Y-82100000D01*
X152714285Y-82004761D01*
X152571428Y-81861904D01*
X152476190Y-81814285D01*
X152380952Y-81814285D01*
X152428571Y-82052380D02*
X152333333Y-82004761D01*
X152238095Y-81909523D01*
X152190476Y-81719047D01*
X152190476Y-81385714D01*
X152238095Y-81195238D01*
X152333333Y-81100000D01*
X152428571Y-81052380D01*
X152619047Y-81052380D01*
X152714285Y-81100000D01*
X152809523Y-81195238D01*
X152857142Y-81385714D01*
X152857142Y-81719047D01*
X152809523Y-81909523D01*
X152714285Y-82004761D01*
X152619047Y-82052380D01*
X152428571Y-82052380D01*
X153809523Y-82052380D02*
X153238095Y-82052380D01*
X153523809Y-82052380D02*
X153523809Y-81052380D01*
X153428571Y-81195238D01*
X153333333Y-81290476D01*
X153238095Y-81338095D01*
%TD*%
M02*
