%TF.GenerationSoftware,KiCad,Pcbnew,(5.1.6)-1*%
%TF.CreationDate,2022-05-27T14:19:17+02:00*%
%TF.ProjectId,Charger,43686172-6765-4722-9e6b-696361645f70,V1.0*%
%TF.SameCoordinates,Original*%
%TF.FileFunction,Soldermask,Top*%
%TF.FilePolarity,Negative*%
%FSLAX46Y46*%
G04 Gerber Fmt 4.6, Leading zero omitted, Abs format (unit mm)*
G04 Created by KiCad (PCBNEW (5.1.6)-1) date 2022-05-27 14:19:17*
%MOMM*%
%LPD*%
G01*
G04 APERTURE LIST*
%ADD10C,0.200000*%
%ADD11C,3.100000*%
%ADD12C,1.630000*%
%ADD13C,4.500000*%
%ADD14C,1.700000*%
%ADD15O,3.600000X2.100000*%
%ADD16O,2.100000X3.400000*%
%ADD17R,2.100000X4.100000*%
%ADD18R,2.100000X0.750000*%
G04 APERTURE END LIST*
D10*
X137690476Y-99552380D02*
X138261904Y-99552380D01*
X137976190Y-100552380D02*
X137976190Y-99552380D01*
X138785714Y-99552380D02*
X138976190Y-99552380D01*
X139071428Y-99600000D01*
X139166666Y-99695238D01*
X139214285Y-99885714D01*
X139214285Y-100219047D01*
X139166666Y-100409523D01*
X139071428Y-100504761D01*
X138976190Y-100552380D01*
X138785714Y-100552380D01*
X138690476Y-100504761D01*
X138595238Y-100409523D01*
X138547619Y-100219047D01*
X138547619Y-99885714D01*
X138595238Y-99695238D01*
X138690476Y-99600000D01*
X138785714Y-99552380D01*
X139642857Y-100552380D02*
X139642857Y-99552380D01*
X140023809Y-99552380D01*
X140119047Y-99600000D01*
X140166666Y-99647619D01*
X140214285Y-99742857D01*
X140214285Y-99885714D01*
X140166666Y-99980952D01*
X140119047Y-100028571D01*
X140023809Y-100076190D01*
X139642857Y-100076190D01*
D11*
%TO.C,J2*%
X132800000Y-88200000D03*
D12*
X140100000Y-88200000D03*
X137100000Y-88200000D03*
%TD*%
D13*
%TO.C,H4*%
X169000000Y-78000000D03*
%TD*%
%TO.C,H3*%
X169000000Y-98500000D03*
%TD*%
%TO.C,H2*%
X133000000Y-98500000D03*
%TD*%
%TO.C,H1*%
X133000000Y-78000000D03*
%TD*%
%TO.C,R1*%
G36*
G01*
X148738262Y-85950000D02*
X147781738Y-85950000D01*
G75*
G02*
X147510000Y-85678262I0J271738D01*
G01*
X147510000Y-84971738D01*
G75*
G02*
X147781738Y-84700000I271738J0D01*
G01*
X148738262Y-84700000D01*
G75*
G02*
X149010000Y-84971738I0J-271738D01*
G01*
X149010000Y-85678262D01*
G75*
G02*
X148738262Y-85950000I-271738J0D01*
G01*
G37*
G36*
G01*
X148738262Y-88000000D02*
X147781738Y-88000000D01*
G75*
G02*
X147510000Y-87728262I0J271738D01*
G01*
X147510000Y-87021738D01*
G75*
G02*
X147781738Y-86750000I271738J0D01*
G01*
X148738262Y-86750000D01*
G75*
G02*
X149010000Y-87021738I0J-271738D01*
G01*
X149010000Y-87728262D01*
G75*
G02*
X148738262Y-88000000I-271738J0D01*
G01*
G37*
%TD*%
%TO.C,U1*%
G36*
G01*
X154250000Y-89650000D02*
X154250000Y-89400000D01*
G75*
G02*
X154375000Y-89275000I125000J0D01*
G01*
X155850000Y-89275000D01*
G75*
G02*
X155975000Y-89400000I0J-125000D01*
G01*
X155975000Y-89650000D01*
G75*
G02*
X155850000Y-89775000I-125000J0D01*
G01*
X154375000Y-89775000D01*
G75*
G02*
X154250000Y-89650000I0J125000D01*
G01*
G37*
G36*
G01*
X154250000Y-90300000D02*
X154250000Y-90050000D01*
G75*
G02*
X154375000Y-89925000I125000J0D01*
G01*
X155850000Y-89925000D01*
G75*
G02*
X155975000Y-90050000I0J-125000D01*
G01*
X155975000Y-90300000D01*
G75*
G02*
X155850000Y-90425000I-125000J0D01*
G01*
X154375000Y-90425000D01*
G75*
G02*
X154250000Y-90300000I0J125000D01*
G01*
G37*
G36*
G01*
X154250000Y-90950000D02*
X154250000Y-90700000D01*
G75*
G02*
X154375000Y-90575000I125000J0D01*
G01*
X155850000Y-90575000D01*
G75*
G02*
X155975000Y-90700000I0J-125000D01*
G01*
X155975000Y-90950000D01*
G75*
G02*
X155850000Y-91075000I-125000J0D01*
G01*
X154375000Y-91075000D01*
G75*
G02*
X154250000Y-90950000I0J125000D01*
G01*
G37*
G36*
G01*
X154250000Y-91600000D02*
X154250000Y-91350000D01*
G75*
G02*
X154375000Y-91225000I125000J0D01*
G01*
X155850000Y-91225000D01*
G75*
G02*
X155975000Y-91350000I0J-125000D01*
G01*
X155975000Y-91600000D01*
G75*
G02*
X155850000Y-91725000I-125000J0D01*
G01*
X154375000Y-91725000D01*
G75*
G02*
X154250000Y-91600000I0J125000D01*
G01*
G37*
G36*
G01*
X150025000Y-91600000D02*
X150025000Y-91350000D01*
G75*
G02*
X150150000Y-91225000I125000J0D01*
G01*
X151625000Y-91225000D01*
G75*
G02*
X151750000Y-91350000I0J-125000D01*
G01*
X151750000Y-91600000D01*
G75*
G02*
X151625000Y-91725000I-125000J0D01*
G01*
X150150000Y-91725000D01*
G75*
G02*
X150025000Y-91600000I0J125000D01*
G01*
G37*
G36*
G01*
X150025000Y-90950000D02*
X150025000Y-90700000D01*
G75*
G02*
X150150000Y-90575000I125000J0D01*
G01*
X151625000Y-90575000D01*
G75*
G02*
X151750000Y-90700000I0J-125000D01*
G01*
X151750000Y-90950000D01*
G75*
G02*
X151625000Y-91075000I-125000J0D01*
G01*
X150150000Y-91075000D01*
G75*
G02*
X150025000Y-90950000I0J125000D01*
G01*
G37*
G36*
G01*
X150025000Y-90300000D02*
X150025000Y-90050000D01*
G75*
G02*
X150150000Y-89925000I125000J0D01*
G01*
X151625000Y-89925000D01*
G75*
G02*
X151750000Y-90050000I0J-125000D01*
G01*
X151750000Y-90300000D01*
G75*
G02*
X151625000Y-90425000I-125000J0D01*
G01*
X150150000Y-90425000D01*
G75*
G02*
X150025000Y-90300000I0J125000D01*
G01*
G37*
G36*
G01*
X150025000Y-89650000D02*
X150025000Y-89400000D01*
G75*
G02*
X150150000Y-89275000I125000J0D01*
G01*
X151625000Y-89275000D01*
G75*
G02*
X151750000Y-89400000I0J-125000D01*
G01*
X151750000Y-89650000D01*
G75*
G02*
X151625000Y-89775000I-125000J0D01*
G01*
X150150000Y-89775000D01*
G75*
G02*
X150025000Y-89650000I0J125000D01*
G01*
G37*
%TD*%
D14*
%TO.C,J1*%
X170700000Y-88200000D03*
D15*
X168700000Y-83700000D03*
X168700000Y-92700000D03*
D16*
X167700000Y-88200000D03*
D17*
X161700000Y-88200000D03*
%TD*%
%TO.C,R3*%
G36*
G01*
X145400000Y-93237500D02*
X145400000Y-93762500D01*
G75*
G02*
X145137500Y-94025000I-262500J0D01*
G01*
X144512500Y-94025000D01*
G75*
G02*
X144250000Y-93762500I0J262500D01*
G01*
X144250000Y-93237500D01*
G75*
G02*
X144512500Y-92975000I262500J0D01*
G01*
X145137500Y-92975000D01*
G75*
G02*
X145400000Y-93237500I0J-262500D01*
G01*
G37*
G36*
G01*
X147150000Y-93237500D02*
X147150000Y-93762500D01*
G75*
G02*
X146887500Y-94025000I-262500J0D01*
G01*
X146262500Y-94025000D01*
G75*
G02*
X146000000Y-93762500I0J262500D01*
G01*
X146000000Y-93237500D01*
G75*
G02*
X146262500Y-92975000I262500J0D01*
G01*
X146887500Y-92975000D01*
G75*
G02*
X147150000Y-93237500I0J-262500D01*
G01*
G37*
%TD*%
%TO.C,R2*%
G36*
G01*
X143500000Y-91537500D02*
X143500000Y-92062500D01*
G75*
G02*
X143237500Y-92325000I-262500J0D01*
G01*
X142612500Y-92325000D01*
G75*
G02*
X142350000Y-92062500I0J262500D01*
G01*
X142350000Y-91537500D01*
G75*
G02*
X142612500Y-91275000I262500J0D01*
G01*
X143237500Y-91275000D01*
G75*
G02*
X143500000Y-91537500I0J-262500D01*
G01*
G37*
G36*
G01*
X145250000Y-91537500D02*
X145250000Y-92062500D01*
G75*
G02*
X144987500Y-92325000I-262500J0D01*
G01*
X144362500Y-92325000D01*
G75*
G02*
X144100000Y-92062500I0J262500D01*
G01*
X144100000Y-91537500D01*
G75*
G02*
X144362500Y-91275000I262500J0D01*
G01*
X144987500Y-91275000D01*
G75*
G02*
X145250000Y-91537500I0J-262500D01*
G01*
G37*
%TD*%
D18*
%TO.C,Q1*%
X151190000Y-84100000D03*
X154610000Y-83150000D03*
X154610000Y-85050000D03*
%TD*%
%TO.C,D1*%
G36*
G01*
X147300000Y-91537500D02*
X147300000Y-92062500D01*
G75*
G02*
X147037500Y-92325000I-262500J0D01*
G01*
X146412500Y-92325000D01*
G75*
G02*
X146150000Y-92062500I0J262500D01*
G01*
X146150000Y-91537500D01*
G75*
G02*
X146412500Y-91275000I262500J0D01*
G01*
X147037500Y-91275000D01*
G75*
G02*
X147300000Y-91537500I0J-262500D01*
G01*
G37*
G36*
G01*
X149050000Y-91537500D02*
X149050000Y-92062500D01*
G75*
G02*
X148787500Y-92325000I-262500J0D01*
G01*
X148162500Y-92325000D01*
G75*
G02*
X147900000Y-92062500I0J262500D01*
G01*
X147900000Y-91537500D01*
G75*
G02*
X148162500Y-91275000I262500J0D01*
G01*
X148787500Y-91275000D01*
G75*
G02*
X149050000Y-91537500I0J-262500D01*
G01*
G37*
%TD*%
%TO.C,C3*%
G36*
G01*
X154300000Y-93037500D02*
X154300000Y-93562500D01*
G75*
G02*
X154037500Y-93825000I-262500J0D01*
G01*
X153412500Y-93825000D01*
G75*
G02*
X153150000Y-93562500I0J262500D01*
G01*
X153150000Y-93037500D01*
G75*
G02*
X153412500Y-92775000I262500J0D01*
G01*
X154037500Y-92775000D01*
G75*
G02*
X154300000Y-93037500I0J-262500D01*
G01*
G37*
G36*
G01*
X156050000Y-93037500D02*
X156050000Y-93562500D01*
G75*
G02*
X155787500Y-93825000I-262500J0D01*
G01*
X155162500Y-93825000D01*
G75*
G02*
X154900000Y-93562500I0J262500D01*
G01*
X154900000Y-93037500D01*
G75*
G02*
X155162500Y-92775000I262500J0D01*
G01*
X155787500Y-92775000D01*
G75*
G02*
X156050000Y-93037500I0J-262500D01*
G01*
G37*
%TD*%
%TO.C,C2*%
G36*
G01*
X157142544Y-92225000D02*
X158457456Y-92225000D01*
G75*
G02*
X158725000Y-92492544I0J-267544D01*
G01*
X158725000Y-93482456D01*
G75*
G02*
X158457456Y-93750000I-267544J0D01*
G01*
X157142544Y-93750000D01*
G75*
G02*
X156875000Y-93482456I0J267544D01*
G01*
X156875000Y-92492544D01*
G75*
G02*
X157142544Y-92225000I267544J0D01*
G01*
G37*
G36*
G01*
X157142544Y-89250000D02*
X158457456Y-89250000D01*
G75*
G02*
X158725000Y-89517544I0J-267544D01*
G01*
X158725000Y-90507456D01*
G75*
G02*
X158457456Y-90775000I-267544J0D01*
G01*
X157142544Y-90775000D01*
G75*
G02*
X156875000Y-90507456I0J267544D01*
G01*
X156875000Y-89517544D01*
G75*
G02*
X157142544Y-89250000I267544J0D01*
G01*
G37*
%TD*%
%TO.C,C1*%
G36*
G01*
X146075000Y-89042544D02*
X146075000Y-90357456D01*
G75*
G02*
X145807456Y-90625000I-267544J0D01*
G01*
X144817544Y-90625000D01*
G75*
G02*
X144550000Y-90357456I0J267544D01*
G01*
X144550000Y-89042544D01*
G75*
G02*
X144817544Y-88775000I267544J0D01*
G01*
X145807456Y-88775000D01*
G75*
G02*
X146075000Y-89042544I0J-267544D01*
G01*
G37*
G36*
G01*
X149050000Y-89042544D02*
X149050000Y-90357456D01*
G75*
G02*
X148782456Y-90625000I-267544J0D01*
G01*
X147792544Y-90625000D01*
G75*
G02*
X147525000Y-90357456I0J267544D01*
G01*
X147525000Y-89042544D01*
G75*
G02*
X147792544Y-88775000I267544J0D01*
G01*
X148782456Y-88775000D01*
G75*
G02*
X149050000Y-89042544I0J-267544D01*
G01*
G37*
%TD*%
M02*
