%TF.GenerationSoftware,KiCad,Pcbnew,(5.1.6)-1*%
%TF.CreationDate,2022-05-27T14:19:17+02:00*%
%TF.ProjectId,Charger,43686172-6765-4722-9e6b-696361645f70,V1.0*%
%TF.SameCoordinates,Original*%
%TF.FileFunction,Paste,Top*%
%TF.FilePolarity,Positive*%
%FSLAX46Y46*%
G04 Gerber Fmt 4.6, Leading zero omitted, Abs format (unit mm)*
G04 Created by KiCad (PCBNEW (5.1.6)-1) date 2022-05-27 14:19:17*
%MOMM*%
%LPD*%
G01*
G04 APERTURE LIST*
%ADD10R,2.000000X0.650000*%
G04 APERTURE END LIST*
%TO.C,R1*%
G36*
G01*
X148710001Y-85900000D02*
X147809999Y-85900000D01*
G75*
G02*
X147560000Y-85650001I0J249999D01*
G01*
X147560000Y-84999999D01*
G75*
G02*
X147809999Y-84750000I249999J0D01*
G01*
X148710001Y-84750000D01*
G75*
G02*
X148960000Y-84999999I0J-249999D01*
G01*
X148960000Y-85650001D01*
G75*
G02*
X148710001Y-85900000I-249999J0D01*
G01*
G37*
G36*
G01*
X148710001Y-87950000D02*
X147809999Y-87950000D01*
G75*
G02*
X147560000Y-87700001I0J249999D01*
G01*
X147560000Y-87049999D01*
G75*
G02*
X147809999Y-86800000I249999J0D01*
G01*
X148710001Y-86800000D01*
G75*
G02*
X148960000Y-87049999I0J-249999D01*
G01*
X148960000Y-87700001D01*
G75*
G02*
X148710001Y-87950000I-249999J0D01*
G01*
G37*
%TD*%
%TO.C,U1*%
G36*
G01*
X154300000Y-89625000D02*
X154300000Y-89425000D01*
G75*
G02*
X154400000Y-89325000I100000J0D01*
G01*
X155825000Y-89325000D01*
G75*
G02*
X155925000Y-89425000I0J-100000D01*
G01*
X155925000Y-89625000D01*
G75*
G02*
X155825000Y-89725000I-100000J0D01*
G01*
X154400000Y-89725000D01*
G75*
G02*
X154300000Y-89625000I0J100000D01*
G01*
G37*
G36*
G01*
X154300000Y-90275000D02*
X154300000Y-90075000D01*
G75*
G02*
X154400000Y-89975000I100000J0D01*
G01*
X155825000Y-89975000D01*
G75*
G02*
X155925000Y-90075000I0J-100000D01*
G01*
X155925000Y-90275000D01*
G75*
G02*
X155825000Y-90375000I-100000J0D01*
G01*
X154400000Y-90375000D01*
G75*
G02*
X154300000Y-90275000I0J100000D01*
G01*
G37*
G36*
G01*
X154300000Y-90925000D02*
X154300000Y-90725000D01*
G75*
G02*
X154400000Y-90625000I100000J0D01*
G01*
X155825000Y-90625000D01*
G75*
G02*
X155925000Y-90725000I0J-100000D01*
G01*
X155925000Y-90925000D01*
G75*
G02*
X155825000Y-91025000I-100000J0D01*
G01*
X154400000Y-91025000D01*
G75*
G02*
X154300000Y-90925000I0J100000D01*
G01*
G37*
G36*
G01*
X154300000Y-91575000D02*
X154300000Y-91375000D01*
G75*
G02*
X154400000Y-91275000I100000J0D01*
G01*
X155825000Y-91275000D01*
G75*
G02*
X155925000Y-91375000I0J-100000D01*
G01*
X155925000Y-91575000D01*
G75*
G02*
X155825000Y-91675000I-100000J0D01*
G01*
X154400000Y-91675000D01*
G75*
G02*
X154300000Y-91575000I0J100000D01*
G01*
G37*
G36*
G01*
X150075000Y-91575000D02*
X150075000Y-91375000D01*
G75*
G02*
X150175000Y-91275000I100000J0D01*
G01*
X151600000Y-91275000D01*
G75*
G02*
X151700000Y-91375000I0J-100000D01*
G01*
X151700000Y-91575000D01*
G75*
G02*
X151600000Y-91675000I-100000J0D01*
G01*
X150175000Y-91675000D01*
G75*
G02*
X150075000Y-91575000I0J100000D01*
G01*
G37*
G36*
G01*
X150075000Y-90925000D02*
X150075000Y-90725000D01*
G75*
G02*
X150175000Y-90625000I100000J0D01*
G01*
X151600000Y-90625000D01*
G75*
G02*
X151700000Y-90725000I0J-100000D01*
G01*
X151700000Y-90925000D01*
G75*
G02*
X151600000Y-91025000I-100000J0D01*
G01*
X150175000Y-91025000D01*
G75*
G02*
X150075000Y-90925000I0J100000D01*
G01*
G37*
G36*
G01*
X150075000Y-90275000D02*
X150075000Y-90075000D01*
G75*
G02*
X150175000Y-89975000I100000J0D01*
G01*
X151600000Y-89975000D01*
G75*
G02*
X151700000Y-90075000I0J-100000D01*
G01*
X151700000Y-90275000D01*
G75*
G02*
X151600000Y-90375000I-100000J0D01*
G01*
X150175000Y-90375000D01*
G75*
G02*
X150075000Y-90275000I0J100000D01*
G01*
G37*
G36*
G01*
X150075000Y-89625000D02*
X150075000Y-89425000D01*
G75*
G02*
X150175000Y-89325000I100000J0D01*
G01*
X151600000Y-89325000D01*
G75*
G02*
X151700000Y-89425000I0J-100000D01*
G01*
X151700000Y-89625000D01*
G75*
G02*
X151600000Y-89725000I-100000J0D01*
G01*
X150175000Y-89725000D01*
G75*
G02*
X150075000Y-89625000I0J100000D01*
G01*
G37*
%TD*%
%TO.C,R3*%
G36*
G01*
X145350000Y-93262500D02*
X145350000Y-93737500D01*
G75*
G02*
X145112500Y-93975000I-237500J0D01*
G01*
X144537500Y-93975000D01*
G75*
G02*
X144300000Y-93737500I0J237500D01*
G01*
X144300000Y-93262500D01*
G75*
G02*
X144537500Y-93025000I237500J0D01*
G01*
X145112500Y-93025000D01*
G75*
G02*
X145350000Y-93262500I0J-237500D01*
G01*
G37*
G36*
G01*
X147100000Y-93262500D02*
X147100000Y-93737500D01*
G75*
G02*
X146862500Y-93975000I-237500J0D01*
G01*
X146287500Y-93975000D01*
G75*
G02*
X146050000Y-93737500I0J237500D01*
G01*
X146050000Y-93262500D01*
G75*
G02*
X146287500Y-93025000I237500J0D01*
G01*
X146862500Y-93025000D01*
G75*
G02*
X147100000Y-93262500I0J-237500D01*
G01*
G37*
%TD*%
%TO.C,R2*%
G36*
G01*
X143450000Y-91562500D02*
X143450000Y-92037500D01*
G75*
G02*
X143212500Y-92275000I-237500J0D01*
G01*
X142637500Y-92275000D01*
G75*
G02*
X142400000Y-92037500I0J237500D01*
G01*
X142400000Y-91562500D01*
G75*
G02*
X142637500Y-91325000I237500J0D01*
G01*
X143212500Y-91325000D01*
G75*
G02*
X143450000Y-91562500I0J-237500D01*
G01*
G37*
G36*
G01*
X145200000Y-91562500D02*
X145200000Y-92037500D01*
G75*
G02*
X144962500Y-92275000I-237500J0D01*
G01*
X144387500Y-92275000D01*
G75*
G02*
X144150000Y-92037500I0J237500D01*
G01*
X144150000Y-91562500D01*
G75*
G02*
X144387500Y-91325000I237500J0D01*
G01*
X144962500Y-91325000D01*
G75*
G02*
X145200000Y-91562500I0J-237500D01*
G01*
G37*
%TD*%
D10*
%TO.C,Q1*%
X151190000Y-84100000D03*
X154610000Y-83150000D03*
X154610000Y-85050000D03*
%TD*%
%TO.C,D1*%
G36*
G01*
X147250000Y-91562500D02*
X147250000Y-92037500D01*
G75*
G02*
X147012500Y-92275000I-237500J0D01*
G01*
X146437500Y-92275000D01*
G75*
G02*
X146200000Y-92037500I0J237500D01*
G01*
X146200000Y-91562500D01*
G75*
G02*
X146437500Y-91325000I237500J0D01*
G01*
X147012500Y-91325000D01*
G75*
G02*
X147250000Y-91562500I0J-237500D01*
G01*
G37*
G36*
G01*
X149000000Y-91562500D02*
X149000000Y-92037500D01*
G75*
G02*
X148762500Y-92275000I-237500J0D01*
G01*
X148187500Y-92275000D01*
G75*
G02*
X147950000Y-92037500I0J237500D01*
G01*
X147950000Y-91562500D01*
G75*
G02*
X148187500Y-91325000I237500J0D01*
G01*
X148762500Y-91325000D01*
G75*
G02*
X149000000Y-91562500I0J-237500D01*
G01*
G37*
%TD*%
%TO.C,C3*%
G36*
G01*
X154250000Y-93062500D02*
X154250000Y-93537500D01*
G75*
G02*
X154012500Y-93775000I-237500J0D01*
G01*
X153437500Y-93775000D01*
G75*
G02*
X153200000Y-93537500I0J237500D01*
G01*
X153200000Y-93062500D01*
G75*
G02*
X153437500Y-92825000I237500J0D01*
G01*
X154012500Y-92825000D01*
G75*
G02*
X154250000Y-93062500I0J-237500D01*
G01*
G37*
G36*
G01*
X156000000Y-93062500D02*
X156000000Y-93537500D01*
G75*
G02*
X155762500Y-93775000I-237500J0D01*
G01*
X155187500Y-93775000D01*
G75*
G02*
X154950000Y-93537500I0J237500D01*
G01*
X154950000Y-93062500D01*
G75*
G02*
X155187500Y-92825000I237500J0D01*
G01*
X155762500Y-92825000D01*
G75*
G02*
X156000000Y-93062500I0J-237500D01*
G01*
G37*
%TD*%
%TO.C,C2*%
G36*
G01*
X157175000Y-92275000D02*
X158425000Y-92275000D01*
G75*
G02*
X158675000Y-92525000I0J-250000D01*
G01*
X158675000Y-93450000D01*
G75*
G02*
X158425000Y-93700000I-250000J0D01*
G01*
X157175000Y-93700000D01*
G75*
G02*
X156925000Y-93450000I0J250000D01*
G01*
X156925000Y-92525000D01*
G75*
G02*
X157175000Y-92275000I250000J0D01*
G01*
G37*
G36*
G01*
X157175000Y-89300000D02*
X158425000Y-89300000D01*
G75*
G02*
X158675000Y-89550000I0J-250000D01*
G01*
X158675000Y-90475000D01*
G75*
G02*
X158425000Y-90725000I-250000J0D01*
G01*
X157175000Y-90725000D01*
G75*
G02*
X156925000Y-90475000I0J250000D01*
G01*
X156925000Y-89550000D01*
G75*
G02*
X157175000Y-89300000I250000J0D01*
G01*
G37*
%TD*%
%TO.C,C1*%
G36*
G01*
X146025000Y-89075000D02*
X146025000Y-90325000D01*
G75*
G02*
X145775000Y-90575000I-250000J0D01*
G01*
X144850000Y-90575000D01*
G75*
G02*
X144600000Y-90325000I0J250000D01*
G01*
X144600000Y-89075000D01*
G75*
G02*
X144850000Y-88825000I250000J0D01*
G01*
X145775000Y-88825000D01*
G75*
G02*
X146025000Y-89075000I0J-250000D01*
G01*
G37*
G36*
G01*
X149000000Y-89075000D02*
X149000000Y-90325000D01*
G75*
G02*
X148750000Y-90575000I-250000J0D01*
G01*
X147825000Y-90575000D01*
G75*
G02*
X147575000Y-90325000I0J250000D01*
G01*
X147575000Y-89075000D01*
G75*
G02*
X147825000Y-88825000I250000J0D01*
G01*
X148750000Y-88825000D01*
G75*
G02*
X149000000Y-89075000I0J-250000D01*
G01*
G37*
%TD*%
M02*
