%TF.GenerationSoftware,KiCad,Pcbnew,(5.1.6)-1*%
%TF.CreationDate,2022-05-27T14:19:14+02:00*%
%TF.ProjectId,Charger,43686172-6765-4722-9e6b-696361645f70,V1.0*%
%TF.SameCoordinates,Original*%
%TF.FileFunction,Plated,1,2,PTH,Mixed*%
%TF.FilePolarity,Positive*%
%FSLAX46Y46*%
G04 Gerber Fmt 4.6, Leading zero omitted, Abs format (unit mm)*
G04 Created by KiCad (PCBNEW (5.1.6)-1) date 2022-05-27 14:19:14*
%MOMM*%
%LPD*%
G01*
G04 APERTURE LIST*
%TA.AperFunction,ViaDrill*%
%ADD10C,0.400000*%
%TD*%
G04 aperture for slot hole*
%TA.AperFunction,ComponentDrill*%
%ADD11C,1.000000*%
%TD*%
%TA.AperFunction,ComponentDrill*%
%ADD12C,1.020000*%
%TD*%
%TA.AperFunction,ComponentDrill*%
%ADD13C,2.200000*%
%TD*%
G04 APERTURE END LIST*
D10*
X130291667Y-81942500D03*
X130291667Y-90942500D03*
X134291667Y-84942500D03*
X134291667Y-93942500D03*
X137291667Y-76942500D03*
X137291667Y-97942500D03*
X138291667Y-90942500D03*
X139291667Y-81942500D03*
X141291667Y-94942500D03*
X142291667Y-85942500D03*
X143000000Y-77942500D03*
X143291667Y-99942500D03*
X144000000Y-89700000D03*
X146291667Y-81942500D03*
X146700000Y-89700000D03*
X147291667Y-95942500D03*
X149291667Y-76942500D03*
X150291667Y-99942500D03*
X150300000Y-86300000D03*
X150900000Y-88400000D03*
X152000000Y-80500000D03*
X152064998Y-85325000D03*
X152291667Y-92942500D03*
X153200000Y-90000000D03*
X154610000Y-86190000D03*
X155291667Y-96942500D03*
X156291667Y-76942500D03*
X157291667Y-82942500D03*
X159291667Y-99942500D03*
X160291667Y-91942500D03*
X161291667Y-78942500D03*
X163291667Y-83942500D03*
X163291667Y-95942500D03*
X165291667Y-88942500D03*
X172291667Y-80942500D03*
X172291667Y-94942500D03*
D11*
%TO.C,J1*%
X161700000Y-87200000D02*
X161700000Y-89200000D01*
X167700000Y-87550000D02*
X167700000Y-88850000D01*
X169450000Y-83700000D02*
X167950000Y-83700000D01*
X169450000Y-92700000D02*
X167950000Y-92700000D01*
D12*
%TO.C,J2*%
X137100000Y-88200000D03*
X140100000Y-88200000D03*
D13*
%TO.C,H4*%
X169000000Y-78000000D03*
%TO.C,H3*%
X169000000Y-98500000D03*
%TO.C,H1*%
X133000000Y-78000000D03*
%TO.C,H2*%
X133000000Y-98500000D03*
M02*
