%TF.GenerationSoftware,KiCad,Pcbnew,(5.1.6)-1*%
%TF.CreationDate,2022-08-05T13:09:53+02:00*%
%TF.ProjectId,ZumoComSystem,5a756d6f-436f-46d5-9379-7374656d2e6b,V1.1*%
%TF.SameCoordinates,Original*%
%TF.FileFunction,Legend,Top*%
%TF.FilePolarity,Positive*%
%FSLAX46Y46*%
G04 Gerber Fmt 4.6, Leading zero omitted, Abs format (unit mm)*
G04 Created by KiCad (PCBNEW (5.1.6)-1) date 2022-08-05 13:09:53*
%MOMM*%
%LPD*%
G01*
G04 APERTURE LIST*
%ADD10C,0.300000*%
%ADD11C,0.120000*%
%ADD12C,0.150000*%
%ADD13C,0.127000*%
%ADD14C,0.200000*%
%ADD15C,0.015000*%
G04 APERTURE END LIST*
D10*
X150335714Y-104538571D02*
X150648214Y-106038571D01*
X151335714Y-104538571D01*
X152433928Y-106038571D02*
X151576785Y-106038571D01*
X152005357Y-106038571D02*
X152192857Y-104538571D01*
X152023214Y-104752857D01*
X151862500Y-104895714D01*
X151710714Y-104967142D01*
X153094642Y-105895714D02*
X153157142Y-105967142D01*
X153076785Y-106038571D01*
X153014285Y-105967142D01*
X153094642Y-105895714D01*
X153076785Y-106038571D01*
X154576785Y-106038571D02*
X153719642Y-106038571D01*
X154148214Y-106038571D02*
X154335714Y-104538571D01*
X154166071Y-104752857D01*
X154005357Y-104895714D01*
X153853571Y-104967142D01*
D11*
X141800000Y-88600000D02*
X141800000Y-88800000D01*
X142500000Y-91600000D02*
X141800000Y-91600000D01*
X142500000Y-88600000D02*
X141800000Y-88600000D01*
D12*
X143142857Y-88528571D02*
X143285714Y-88576190D01*
X143333333Y-88623809D01*
X143380952Y-88719047D01*
X143380952Y-88861904D01*
X143333333Y-88957142D01*
X143285714Y-89004761D01*
X143190476Y-89052380D01*
X142809523Y-89052380D01*
X142809523Y-88052380D01*
X143142857Y-88052380D01*
X143238095Y-88100000D01*
X143285714Y-88147619D01*
X143333333Y-88242857D01*
X143333333Y-88338095D01*
X143285714Y-88433333D01*
X143238095Y-88480952D01*
X143142857Y-88528571D01*
X142809523Y-88528571D01*
X143761904Y-88766666D02*
X144238095Y-88766666D01*
X143666666Y-89052380D02*
X144000000Y-88052380D01*
X144333333Y-89052380D01*
X144523809Y-88052380D02*
X145095238Y-88052380D01*
X144809523Y-89052380D02*
X144809523Y-88052380D01*
X145428571Y-88671428D02*
X146190476Y-88671428D01*
X143142857Y-91528571D02*
X143285714Y-91576190D01*
X143333333Y-91623809D01*
X143380952Y-91719047D01*
X143380952Y-91861904D01*
X143333333Y-91957142D01*
X143285714Y-92004761D01*
X143190476Y-92052380D01*
X142809523Y-92052380D01*
X142809523Y-91052380D01*
X143142857Y-91052380D01*
X143238095Y-91100000D01*
X143285714Y-91147619D01*
X143333333Y-91242857D01*
X143333333Y-91338095D01*
X143285714Y-91433333D01*
X143238095Y-91480952D01*
X143142857Y-91528571D01*
X142809523Y-91528571D01*
X143761904Y-91766666D02*
X144238095Y-91766666D01*
X143666666Y-92052380D02*
X144000000Y-91052380D01*
X144333333Y-92052380D01*
X144523809Y-91052380D02*
X145095238Y-91052380D01*
X144809523Y-92052380D02*
X144809523Y-91052380D01*
X145428571Y-91671428D02*
X146190476Y-91671428D01*
X145809523Y-92052380D02*
X145809523Y-91290476D01*
X132480952Y-142311904D02*
X132633333Y-142311904D01*
X132709523Y-142350000D01*
X132785714Y-142426190D01*
X132823809Y-142578571D01*
X132823809Y-142845238D01*
X132785714Y-142997619D01*
X132709523Y-143073809D01*
X132633333Y-143111904D01*
X132480952Y-143111904D01*
X132404761Y-143073809D01*
X132328571Y-142997619D01*
X132290476Y-142845238D01*
X132290476Y-142578571D01*
X132328571Y-142426190D01*
X132404761Y-142350000D01*
X132480952Y-142311904D01*
X133433333Y-142692857D02*
X133166666Y-142692857D01*
X133166666Y-143111904D02*
X133166666Y-142311904D01*
X133547619Y-142311904D01*
X134119047Y-142692857D02*
X133852380Y-142692857D01*
X133852380Y-143111904D02*
X133852380Y-142311904D01*
X134233333Y-142311904D01*
X135109523Y-142273809D02*
X134423809Y-143302380D01*
X135528571Y-142311904D02*
X135680952Y-142311904D01*
X135757142Y-142350000D01*
X135833333Y-142426190D01*
X135871428Y-142578571D01*
X135871428Y-142845238D01*
X135833333Y-142997619D01*
X135757142Y-143073809D01*
X135680952Y-143111904D01*
X135528571Y-143111904D01*
X135452380Y-143073809D01*
X135376190Y-142997619D01*
X135338095Y-142845238D01*
X135338095Y-142578571D01*
X135376190Y-142426190D01*
X135452380Y-142350000D01*
X135528571Y-142311904D01*
X136214285Y-143111904D02*
X136214285Y-142311904D01*
X136671428Y-143111904D01*
X136671428Y-142311904D01*
X130957142Y-137823809D02*
X131071428Y-137861904D01*
X131261904Y-137861904D01*
X131338095Y-137823809D01*
X131376190Y-137785714D01*
X131414285Y-137709523D01*
X131414285Y-137633333D01*
X131376190Y-137557142D01*
X131338095Y-137519047D01*
X131261904Y-137480952D01*
X131109523Y-137442857D01*
X131033333Y-137404761D01*
X130995238Y-137366666D01*
X130957142Y-137290476D01*
X130957142Y-137214285D01*
X130995238Y-137138095D01*
X131033333Y-137100000D01*
X131109523Y-137061904D01*
X131300000Y-137061904D01*
X131414285Y-137100000D01*
X131642857Y-137061904D02*
X132100000Y-137061904D01*
X131871428Y-137861904D02*
X131871428Y-137061904D01*
X132328571Y-137633333D02*
X132709523Y-137633333D01*
X132252380Y-137861904D02*
X132519047Y-137061904D01*
X132785714Y-137861904D01*
X132938095Y-137061904D02*
X133395238Y-137061904D01*
X133166666Y-137861904D02*
X133166666Y-137061904D01*
X133661904Y-137442857D02*
X133928571Y-137442857D01*
X134042857Y-137861904D02*
X133661904Y-137861904D01*
X133661904Y-137061904D01*
X134042857Y-137061904D01*
D11*
X114000000Y-58000000D02*
X139400000Y-58000000D01*
D12*
X177034523Y-136632142D02*
X176986904Y-136679761D01*
X176844047Y-136727380D01*
X176748809Y-136727380D01*
X176605952Y-136679761D01*
X176510714Y-136584523D01*
X176463095Y-136489285D01*
X176415476Y-136298809D01*
X176415476Y-136155952D01*
X176463095Y-135965476D01*
X176510714Y-135870238D01*
X176605952Y-135775000D01*
X176748809Y-135727380D01*
X176844047Y-135727380D01*
X176986904Y-135775000D01*
X177034523Y-135822619D01*
X170021428Y-136203571D02*
X170164285Y-136251190D01*
X170211904Y-136298809D01*
X170259523Y-136394047D01*
X170259523Y-136536904D01*
X170211904Y-136632142D01*
X170164285Y-136679761D01*
X170069047Y-136727380D01*
X169688095Y-136727380D01*
X169688095Y-135727380D01*
X170021428Y-135727380D01*
X170116666Y-135775000D01*
X170164285Y-135822619D01*
X170211904Y-135917857D01*
X170211904Y-136013095D01*
X170164285Y-136108333D01*
X170116666Y-136155952D01*
X170021428Y-136203571D01*
X169688095Y-136203571D01*
X162911904Y-136441666D02*
X163388095Y-136441666D01*
X162816666Y-136727380D02*
X163150000Y-135727380D01*
X163483333Y-136727380D01*
D11*
X115741666Y-143041666D02*
X115408333Y-143275000D01*
X115741666Y-143441666D02*
X115041666Y-143441666D01*
X115041666Y-143175000D01*
X115075000Y-143108333D01*
X115108333Y-143075000D01*
X115175000Y-143041666D01*
X115275000Y-143041666D01*
X115341666Y-143075000D01*
X115375000Y-143108333D01*
X115408333Y-143175000D01*
X115408333Y-143441666D01*
X115708333Y-142775000D02*
X115741666Y-142675000D01*
X115741666Y-142508333D01*
X115708333Y-142441666D01*
X115675000Y-142408333D01*
X115608333Y-142375000D01*
X115541666Y-142375000D01*
X115475000Y-142408333D01*
X115441666Y-142441666D01*
X115408333Y-142508333D01*
X115375000Y-142641666D01*
X115341666Y-142708333D01*
X115308333Y-142741666D01*
X115241666Y-142775000D01*
X115175000Y-142775000D01*
X115108333Y-142741666D01*
X115075000Y-142708333D01*
X115041666Y-142641666D01*
X115041666Y-142475000D01*
X115075000Y-142375000D01*
X115041666Y-142175000D02*
X115041666Y-141775000D01*
X115741666Y-141975000D02*
X115041666Y-141975000D01*
X115008333Y-141041666D02*
X115908333Y-141641666D01*
X115541666Y-140841666D02*
X115541666Y-140508333D01*
X115741666Y-140908333D02*
X115041666Y-140675000D01*
X115741666Y-140441666D01*
X115741666Y-140208333D02*
X115041666Y-140208333D01*
X115041666Y-139941666D01*
X115075000Y-139875000D01*
X115108333Y-139841666D01*
X115175000Y-139808333D01*
X115275000Y-139808333D01*
X115341666Y-139841666D01*
X115375000Y-139875000D01*
X115408333Y-139941666D01*
X115408333Y-140208333D01*
X115475000Y-139508333D02*
X115475000Y-138975000D01*
X115741666Y-138641666D02*
X115041666Y-138641666D01*
X115541666Y-138408333D01*
X115041666Y-138175000D01*
X115741666Y-138175000D01*
X115741666Y-137741666D02*
X115708333Y-137808333D01*
X115675000Y-137841666D01*
X115608333Y-137875000D01*
X115408333Y-137875000D01*
X115341666Y-137841666D01*
X115308333Y-137808333D01*
X115275000Y-137741666D01*
X115275000Y-137641666D01*
X115308333Y-137575000D01*
X115341666Y-137541666D01*
X115408333Y-137508333D01*
X115608333Y-137508333D01*
X115675000Y-137541666D01*
X115708333Y-137575000D01*
X115741666Y-137641666D01*
X115741666Y-137741666D01*
X115741666Y-136908333D02*
X115041666Y-136908333D01*
X115708333Y-136908333D02*
X115741666Y-136975000D01*
X115741666Y-137108333D01*
X115708333Y-137175000D01*
X115675000Y-137208333D01*
X115608333Y-137241666D01*
X115408333Y-137241666D01*
X115341666Y-137208333D01*
X115308333Y-137175000D01*
X115275000Y-137108333D01*
X115275000Y-136975000D01*
X115308333Y-136908333D01*
X115708333Y-136308333D02*
X115741666Y-136375000D01*
X115741666Y-136508333D01*
X115708333Y-136575000D01*
X115641666Y-136608333D01*
X115375000Y-136608333D01*
X115308333Y-136575000D01*
X115275000Y-136508333D01*
X115275000Y-136375000D01*
X115308333Y-136308333D01*
X115375000Y-136275000D01*
X115441666Y-136275000D01*
X115508333Y-136608333D01*
X171100000Y-119200000D02*
X171100000Y-118700000D01*
X120000000Y-119200000D02*
X114000000Y-119200000D01*
D13*
%TO.C,SW1*%
X131025000Y-142150000D02*
X131025000Y-143150000D01*
X124675000Y-144000000D02*
X130675000Y-144000000D01*
X124675000Y-141300000D02*
X130675000Y-141300000D01*
X124325000Y-142150000D02*
X124325000Y-143150000D01*
X127675000Y-145500000D02*
X127675000Y-144000000D01*
X126175000Y-145500000D02*
X127675000Y-145500000D01*
X126175000Y-144000000D02*
X126175000Y-145500000D01*
D14*
X125525000Y-139600000D02*
G75*
G03*
X125525000Y-139600000I-100000J0D01*
G01*
D11*
%TO.C,TP2*%
X139870000Y-112630000D02*
X139870000Y-111300000D01*
X141200000Y-112630000D02*
X139870000Y-112630000D01*
X142470000Y-112630000D02*
X142470000Y-109970000D01*
X142470000Y-109970000D02*
X145070000Y-109970000D01*
X142470000Y-112630000D02*
X145070000Y-112630000D01*
X145070000Y-112630000D02*
X145070000Y-109970000D01*
%TO.C,TP1*%
X153030000Y-100570000D02*
X153030000Y-101900000D01*
X151700000Y-100570000D02*
X153030000Y-100570000D01*
X150430000Y-100570000D02*
X150430000Y-103230000D01*
X150430000Y-103230000D02*
X147830000Y-103230000D01*
X150430000Y-100570000D02*
X147830000Y-100570000D01*
X147830000Y-100570000D02*
X147830000Y-103230000D01*
D12*
%TO.C,D11*%
X130375000Y-139000000D02*
X124975000Y-139000000D01*
X130375000Y-136000000D02*
X124875000Y-136000000D01*
X124875000Y-137000000D02*
X124875000Y-136000000D01*
D14*
%TO.C,SW5*%
X175600000Y-140400000D02*
X175600000Y-142800000D01*
%TO.C,SW4*%
X171500000Y-142800000D02*
X171500000Y-140400000D01*
%TO.C,SW3*%
X164600000Y-142800000D02*
X164600000Y-140400000D01*
D11*
%TO.C,J1*%
X143725000Y-93500000D02*
X148675000Y-93500000D01*
X143725000Y-93500000D02*
X143725000Y-96100000D01*
X157125000Y-93500000D02*
X157125000Y-96100000D01*
X157125000Y-93500000D02*
X152175000Y-93500000D01*
X157125000Y-99500000D02*
X143725000Y-99500000D01*
%TO.C,U6*%
X156045000Y-119550000D02*
X156045000Y-118770000D01*
X156045000Y-118770000D02*
X155045000Y-118770000D01*
X137805000Y-119550000D02*
X137805000Y-118770000D01*
X137805000Y-118770000D02*
X138805000Y-118770000D01*
X156045000Y-144515000D02*
X137805000Y-144515000D01*
X137805000Y-144515000D02*
X137805000Y-138095000D01*
X156045000Y-144515000D02*
X156045000Y-138095000D01*
X156045000Y-138095000D02*
X156425000Y-138095000D01*
%TO.C,J3*%
X143800000Y-105425000D02*
X143800000Y-106175000D01*
X143800000Y-106175000D02*
X143200000Y-106175000D01*
X144100000Y-106175000D02*
X146250000Y-106175000D01*
X137950000Y-106175000D02*
X137950000Y-102625000D01*
X146250000Y-102625000D02*
X143350000Y-102625000D01*
X146250000Y-106175000D02*
X146250000Y-102625000D01*
X137950000Y-102625000D02*
X140850000Y-102625000D01*
X140100000Y-106175000D02*
X137950000Y-106175000D01*
%TO.C,D8*%
X163972500Y-137015000D02*
X161512500Y-137015000D01*
X161512500Y-137015000D02*
X161512500Y-138485000D01*
X161512500Y-138485000D02*
X163972500Y-138485000D01*
%TO.C,D10*%
X177814166Y-137015000D02*
X175354166Y-137015000D01*
X175354166Y-137015000D02*
X175354166Y-138485000D01*
X175354166Y-138485000D02*
X177814166Y-138485000D01*
%TO.C,D9*%
X170850000Y-137015000D02*
X168390000Y-137015000D01*
X168390000Y-137015000D02*
X168390000Y-138485000D01*
X168390000Y-138485000D02*
X170850000Y-138485000D01*
%TO.C,SW2*%
X116850000Y-138175000D02*
X116400000Y-138625000D01*
X116850000Y-141575000D02*
X116400000Y-141125000D01*
X121450000Y-141575000D02*
X121900000Y-141125000D01*
X121450000Y-138175000D02*
X121900000Y-138625000D01*
X120150000Y-142625000D02*
X118150000Y-142625000D01*
X116400000Y-138625000D02*
X116400000Y-141125000D01*
X120150000Y-137125000D02*
X118150000Y-137125000D01*
X121900000Y-138625000D02*
X121900000Y-141125000D01*
D13*
%TO.C,BT1*%
X124400000Y-127350000D02*
X124400000Y-128850000D01*
X123650000Y-128100000D02*
X125150000Y-128100000D01*
X134725000Y-58075000D02*
X114075000Y-58075000D01*
X114075000Y-58075000D02*
X114075000Y-135125000D01*
X114075000Y-135125000D02*
X134725000Y-135125000D01*
X134725000Y-135125000D02*
X134725000Y-58075000D01*
X124400000Y-65850000D02*
X124400000Y-64350000D01*
D11*
%TO.C,R15*%
X157040000Y-134946267D02*
X157040000Y-134603733D01*
X158060000Y-134946267D02*
X158060000Y-134603733D01*
%TO.C,R17*%
X136485000Y-120503733D02*
X136485000Y-120846267D01*
X135465000Y-120503733D02*
X135465000Y-120846267D01*
%TO.C,R22*%
X159153733Y-137090000D02*
X159496267Y-137090000D01*
X159153733Y-138110000D02*
X159496267Y-138110000D01*
%TO.C,R26*%
X173671267Y-138260000D02*
X173328733Y-138260000D01*
X173671267Y-137240000D02*
X173328733Y-137240000D01*
%TO.C,R24*%
X166771267Y-138260000D02*
X166428733Y-138260000D01*
X166771267Y-137240000D02*
X166428733Y-137240000D01*
%TO.C,D4*%
X148450000Y-107200000D02*
X146750000Y-107200000D01*
X146750000Y-107200000D02*
X146750000Y-110350000D01*
X148450000Y-107200000D02*
X148450000Y-110350000D01*
%TO.C,J7*%
X138050000Y-65550000D02*
X138050000Y-60350000D01*
X138050000Y-60350000D02*
X138620000Y-60350000D01*
X140140000Y-60350000D02*
X141160000Y-60350000D01*
X142680000Y-60350000D02*
X143700000Y-60350000D01*
X145220000Y-60350000D02*
X146240000Y-60350000D01*
X147760000Y-60350000D02*
X148780000Y-60350000D01*
X150300000Y-60350000D02*
X151320000Y-60350000D01*
X152840000Y-60350000D02*
X153860000Y-60350000D01*
X155380000Y-60350000D02*
X155950000Y-60350000D01*
X155950000Y-65550000D02*
X155950000Y-60350000D01*
X138050000Y-65550000D02*
X138620000Y-65550000D01*
X140140000Y-65550000D02*
X141160000Y-65550000D01*
X142680000Y-65550000D02*
X143700000Y-65550000D01*
X145220000Y-65550000D02*
X146240000Y-65550000D01*
X147760000Y-65550000D02*
X148780000Y-65550000D01*
X150300000Y-65550000D02*
X151320000Y-65550000D01*
X152840000Y-65550000D02*
X153860000Y-65550000D01*
X155380000Y-65550000D02*
X155950000Y-65550000D01*
X138620000Y-60350000D02*
X138620000Y-58990000D01*
%TO.C,D5*%
X142300000Y-108850000D02*
X142300000Y-107150000D01*
X142300000Y-107150000D02*
X139150000Y-107150000D01*
X142300000Y-108850000D02*
X139150000Y-108850000D01*
%TO.C,D6*%
X142600000Y-107150000D02*
X142600000Y-108850000D01*
X142600000Y-108850000D02*
X145750000Y-108850000D01*
X142600000Y-107150000D02*
X145750000Y-107150000D01*
%TO.C,R12*%
X137171267Y-109990000D02*
X136828733Y-109990000D01*
X137171267Y-111010000D02*
X136828733Y-111010000D01*
%TO.C,Q5*%
X135420000Y-113860000D02*
X135420000Y-112400000D01*
X138580000Y-113860000D02*
X138580000Y-111700000D01*
X138580000Y-113860000D02*
X137650000Y-113860000D01*
X135420000Y-113860000D02*
X136350000Y-113860000D01*
D13*
%TO.C,J2*%
X141810000Y-86730000D02*
X135110000Y-86730000D01*
X135110000Y-94090000D02*
X141810000Y-94090000D01*
X135110000Y-88740000D02*
X135110000Y-94090000D01*
X141810000Y-88750000D02*
X141810000Y-94050000D01*
X135110000Y-87060000D02*
X135110000Y-86730000D01*
X141810000Y-87060000D02*
X141810000Y-86730000D01*
D11*
%TO.C,C16*%
X165240000Y-141978733D02*
X165240000Y-142321267D01*
X166260000Y-141978733D02*
X166260000Y-142321267D01*
%TO.C,C17*%
X172170000Y-142008733D02*
X172170000Y-142351267D01*
X173190000Y-142008733D02*
X173190000Y-142351267D01*
%TO.C,C18*%
X173920000Y-141998733D02*
X173920000Y-142341267D01*
X174940000Y-141998733D02*
X174940000Y-142341267D01*
D13*
%TO.C,BT2*%
X169600000Y-65850000D02*
X169600000Y-64350000D01*
X170350000Y-65100000D02*
X168850000Y-65100000D01*
X159275000Y-135125000D02*
X179925000Y-135125000D01*
X179925000Y-135125000D02*
X179925000Y-58075000D01*
X179925000Y-58075000D02*
X159275000Y-58075000D01*
X159275000Y-58075000D02*
X159275000Y-135125000D01*
X169600000Y-127350000D02*
X169600000Y-128850000D01*
%TO.C,SW1*%
D15*
X125016077Y-139041949D02*
X125158967Y-139089579D01*
X125397116Y-139089579D01*
X125492376Y-139041949D01*
X125540006Y-138994319D01*
X125587636Y-138899059D01*
X125587636Y-138803799D01*
X125540006Y-138708539D01*
X125492376Y-138660909D01*
X125397116Y-138613280D01*
X125206597Y-138565650D01*
X125111337Y-138518020D01*
X125063707Y-138470390D01*
X125016077Y-138375130D01*
X125016077Y-138279870D01*
X125063707Y-138184610D01*
X125111337Y-138136981D01*
X125206597Y-138089351D01*
X125444746Y-138089351D01*
X125587636Y-138136981D01*
X125921045Y-138089351D02*
X126159195Y-139089579D01*
X126349715Y-138375130D01*
X126540234Y-139089579D01*
X126778384Y-138089351D01*
X127683352Y-139089579D02*
X127111793Y-139089579D01*
X127397572Y-139089579D02*
X127397572Y-138089351D01*
X127302313Y-138232240D01*
X127207053Y-138327500D01*
X127111793Y-138375130D01*
%TO.C,J1*%
D12*
X150091666Y-90752380D02*
X150091666Y-91466666D01*
X150044047Y-91609523D01*
X149948809Y-91704761D01*
X149805952Y-91752380D01*
X149710714Y-91752380D01*
X151091666Y-91752380D02*
X150520238Y-91752380D01*
X150805952Y-91752380D02*
X150805952Y-90752380D01*
X150710714Y-90895238D01*
X150615476Y-90990476D01*
X150520238Y-91038095D01*
%TO.C,U6*%
X154013095Y-116702380D02*
X154013095Y-117511904D01*
X154060714Y-117607142D01*
X154108333Y-117654761D01*
X154203571Y-117702380D01*
X154394047Y-117702380D01*
X154489285Y-117654761D01*
X154536904Y-117607142D01*
X154584523Y-117511904D01*
X154584523Y-116702380D01*
X155489285Y-116702380D02*
X155298809Y-116702380D01*
X155203571Y-116750000D01*
X155155952Y-116797619D01*
X155060714Y-116940476D01*
X155013095Y-117130952D01*
X155013095Y-117511904D01*
X155060714Y-117607142D01*
X155108333Y-117654761D01*
X155203571Y-117702380D01*
X155394047Y-117702380D01*
X155489285Y-117654761D01*
X155536904Y-117607142D01*
X155584523Y-117511904D01*
X155584523Y-117273809D01*
X155536904Y-117178571D01*
X155489285Y-117130952D01*
X155394047Y-117083333D01*
X155203571Y-117083333D01*
X155108333Y-117130952D01*
X155060714Y-117178571D01*
X155013095Y-117273809D01*
%TO.C,J3*%
X141766666Y-100514333D02*
X141766666Y-101228619D01*
X141719047Y-101371476D01*
X141623809Y-101466714D01*
X141480952Y-101514333D01*
X141385714Y-101514333D01*
X142147619Y-100514333D02*
X142766666Y-100514333D01*
X142433333Y-100895286D01*
X142576190Y-100895286D01*
X142671428Y-100942905D01*
X142719047Y-100990524D01*
X142766666Y-101085762D01*
X142766666Y-101323857D01*
X142719047Y-101419095D01*
X142671428Y-101466714D01*
X142576190Y-101514333D01*
X142290476Y-101514333D01*
X142195238Y-101466714D01*
X142147619Y-101419095D01*
%TO.C,J7*%
X146666666Y-68152380D02*
X146666666Y-68866666D01*
X146619047Y-69009523D01*
X146523809Y-69104761D01*
X146380952Y-69152380D01*
X146285714Y-69152380D01*
X147047619Y-68152380D02*
X147714285Y-68152380D01*
X147285714Y-69152380D01*
%TO.C,J2*%
X135656666Y-85012380D02*
X135656666Y-85726666D01*
X135609047Y-85869523D01*
X135513809Y-85964761D01*
X135370952Y-86012380D01*
X135275714Y-86012380D01*
X136085238Y-85107619D02*
X136132857Y-85060000D01*
X136228095Y-85012380D01*
X136466190Y-85012380D01*
X136561428Y-85060000D01*
X136609047Y-85107619D01*
X136656666Y-85202857D01*
X136656666Y-85298095D01*
X136609047Y-85440952D01*
X136037619Y-86012380D01*
X136656666Y-86012380D01*
X140275714Y-93302380D02*
X139704285Y-93302380D01*
X139990000Y-93302380D02*
X139990000Y-92302380D01*
X139894761Y-92445238D01*
X139799523Y-92540476D01*
X139704285Y-92588095D01*
%TD*%
M02*
