%TF.GenerationSoftware,KiCad,Pcbnew,7.0.1*%
%TF.CreationDate,2023-12-18T13:28:22+01:00*%
%TF.ProjectId,ZumoComSystem,5a756d6f-436f-46d5-9379-7374656d2e6b,V1.2*%
%TF.SameCoordinates,Original*%
%TF.FileFunction,Paste,Top*%
%TF.FilePolarity,Positive*%
%FSLAX45Y45*%
G04 Gerber Fmt 4.5, Leading zero omitted, Abs format (unit mm)*
G04 Created by KiCad (PCBNEW 7.0.1) date 2023-12-18 13:28:22*
%MOMM*%
%LPD*%
G01*
G04 APERTURE LIST*
G04 Aperture macros list*
%AMRoundRect*
0 Rectangle with rounded corners*
0 $1 Rounding radius*
0 $2 $3 $4 $5 $6 $7 $8 $9 X,Y pos of 4 corners*
0 Add a 4 corners polygon primitive as box body*
4,1,4,$2,$3,$4,$5,$6,$7,$8,$9,$2,$3,0*
0 Add four circle primitives for the rounded corners*
1,1,$1+$1,$2,$3*
1,1,$1+$1,$4,$5*
1,1,$1+$1,$6,$7*
1,1,$1+$1,$8,$9*
0 Add four rect primitives between the rounded corners*
20,1,$1+$1,$2,$3,$4,$5,0*
20,1,$1+$1,$4,$5,$6,$7,0*
20,1,$1+$1,$6,$7,$8,$9,0*
20,1,$1+$1,$8,$9,$2,$3,0*%
G04 Aperture macros list end*
%ADD10R,0.900000X2.900000*%
%ADD11R,0.900000X1.600000*%
%ADD12R,1.400000X0.900000*%
%ADD13R,0.350000X1.400000*%
%ADD14R,1.600000X0.800000*%
%ADD15RoundRect,0.200000X-0.650000X0.412500X-0.650000X-0.412500X0.650000X-0.412500X0.650000X0.412500X0*%
%ADD16RoundRect,0.200000X0.412500X0.650000X-0.412500X0.650000X-0.412500X-0.650000X0.412500X-0.650000X0*%
%ADD17RoundRect,0.187500X0.237500X-0.250000X0.237500X0.250000X-0.237500X0.250000X-0.237500X-0.250000X0*%
%ADD18RoundRect,0.200000X-0.250000X-0.250000X0.250000X-0.250000X0.250000X0.250000X-0.250000X0.250000X0*%
%ADD19RoundRect,0.200000X0.250000X-0.250000X0.250000X0.250000X-0.250000X0.250000X-0.250000X-0.250000X0*%
%ADD20RoundRect,0.187500X0.287500X0.237500X-0.287500X0.237500X-0.287500X-0.237500X0.287500X-0.237500X0*%
%ADD21RoundRect,0.187500X-0.237500X0.250000X-0.237500X-0.250000X0.237500X-0.250000X0.237500X0.250000X0*%
%ADD22RoundRect,0.200000X0.250000X0.250000X-0.250000X0.250000X-0.250000X-0.250000X0.250000X-0.250000X0*%
%ADD23RoundRect,0.187500X-0.287500X-0.237500X0.287500X-0.237500X0.287500X0.237500X-0.287500X0.237500X0*%
%ADD24RoundRect,0.187500X0.250000X0.237500X-0.250000X0.237500X-0.250000X-0.237500X0.250000X-0.237500X0*%
%ADD25R,1.400000X0.800000*%
%ADD26R,0.800000X1.400000*%
%ADD27R,0.800000X1.600000*%
%ADD28R,0.700000X1.800000*%
%ADD29R,0.600000X1.000000*%
%ADD30R,0.900000X0.700000*%
G04 APERTURE END LIST*
D10*
%TO.C,J5*%
X13938000Y-6043000D03*
X13938000Y-6547000D03*
X14192000Y-6043000D03*
X14192000Y-6547000D03*
X14446000Y-6043000D03*
X14446000Y-6547000D03*
X14700000Y-6043000D03*
X14700000Y-6547000D03*
X14954000Y-6043000D03*
X14954000Y-6547000D03*
X15208000Y-6043000D03*
X15208000Y-6547000D03*
X15462000Y-6043000D03*
X15462000Y-6547000D03*
%TD*%
D11*
%TO.C,SW1*%
X11725000Y-14302500D03*
X11725000Y-13672500D03*
X12105000Y-14302500D03*
X12105000Y-13672500D03*
%TD*%
D12*
%TO.C,D1*%
X12592500Y-13680000D03*
X12592500Y-13820000D03*
X12942500Y-13820000D03*
X12942500Y-13680000D03*
%TD*%
D13*
%TO.C,J7*%
X14510000Y-10627500D03*
X14445000Y-10627500D03*
X14380000Y-10627500D03*
X14315000Y-10627500D03*
X14250000Y-10627500D03*
%TD*%
D14*
%TO.C,SW3*%
X17010000Y-14310000D03*
X17010000Y-13970000D03*
%TD*%
D15*
%TO.C,C5*%
X15190000Y-8603750D03*
X15190000Y-8916250D03*
%TD*%
D16*
%TO.C,C2*%
X14246250Y-8670000D03*
X13933750Y-8670000D03*
%TD*%
D17*
%TO.C,R1*%
X15800000Y-13471250D03*
X15800000Y-13288750D03*
%TD*%
D18*
%TO.C,D13*%
X14507500Y-10860000D03*
X14757500Y-10860000D03*
%TD*%
D14*
%TO.C,SW2*%
X16310000Y-14310000D03*
X16310000Y-13970000D03*
%TD*%
D19*
%TO.C,D11*%
X14950000Y-10755000D03*
X14950000Y-10505000D03*
%TD*%
D20*
%TO.C,D4*%
X17797500Y-13770000D03*
X17622500Y-13770000D03*
%TD*%
D21*
%TO.C,R27*%
X14070000Y-11048750D03*
X14070000Y-11231250D03*
%TD*%
D22*
%TO.C,D12*%
X14315000Y-10860000D03*
X14065000Y-10860000D03*
%TD*%
D23*
%TO.C,D9*%
X14602500Y-8670000D03*
X14777500Y-8670000D03*
%TD*%
D24*
%TO.C,R30*%
X14971250Y-11254000D03*
X14788750Y-11254000D03*
%TD*%
D20*
%TO.C,D2*%
X16397500Y-13770000D03*
X16222500Y-13770000D03*
%TD*%
D25*
%TO.C,U1*%
X15575000Y-13685000D03*
X15575000Y-13558000D03*
X15575000Y-13431000D03*
X15575000Y-13304000D03*
X15575000Y-13177000D03*
X15575000Y-13050000D03*
X15575000Y-12923000D03*
X15575000Y-12796000D03*
X15575000Y-12669000D03*
X15575000Y-12542000D03*
X15575000Y-12415000D03*
X15575000Y-12288000D03*
X15575000Y-12161000D03*
X15575000Y-12034000D03*
D26*
X15398500Y-11909000D03*
X15271500Y-11909000D03*
X15144500Y-11909000D03*
X15017500Y-11909000D03*
X14890500Y-11909000D03*
X14763500Y-11909000D03*
X14636500Y-11909000D03*
X14509500Y-11909000D03*
X14382500Y-11909000D03*
X14255500Y-11909000D03*
X14128500Y-11909000D03*
X14001500Y-11909000D03*
D25*
X13825000Y-12034000D03*
X13825000Y-12161000D03*
X13825000Y-12288000D03*
X13825000Y-12415000D03*
X13825000Y-12542000D03*
X13825000Y-12669000D03*
X13825000Y-12796000D03*
X13825000Y-12923000D03*
X13825000Y-13050000D03*
X13825000Y-13177000D03*
X13825000Y-13304000D03*
X13825000Y-13431000D03*
X13825000Y-13558000D03*
X13825000Y-13685000D03*
%TD*%
D27*
%TO.C,SW5*%
X15760000Y-8690000D03*
X15420000Y-8690000D03*
%TD*%
D20*
%TO.C,D3*%
X17097500Y-13770000D03*
X16922500Y-13770000D03*
%TD*%
D17*
%TO.C,R18*%
X14970000Y-8771250D03*
X14970000Y-8588750D03*
%TD*%
D28*
%TO.C,Q6*%
X13845000Y-10750000D03*
X13655000Y-10750000D03*
X13750000Y-11050000D03*
%TD*%
D14*
%TO.C,SW4*%
X17710000Y-14310000D03*
X17710000Y-13970000D03*
%TD*%
D29*
%TO.C,SW6*%
X12542500Y-14035000D03*
X12842500Y-14035000D03*
X12992500Y-14035000D03*
D30*
X12392500Y-14125000D03*
X13142500Y-14125000D03*
X12392500Y-14355000D03*
X13142500Y-14355000D03*
%TD*%
M02*
