%TF.GenerationSoftware,KiCad,Pcbnew,(5.1.6)-1*%
%TF.CreationDate,2022-10-11T16:22:54+02:00*%
%TF.ProjectId,ZumoComSystem,5a756d6f-436f-46d5-9379-7374656d2e6b,V1.2*%
%TF.SameCoordinates,Original*%
%TF.FileFunction,Legend,Bot*%
%TF.FilePolarity,Positive*%
%FSLAX46Y46*%
G04 Gerber Fmt 4.6, Leading zero omitted, Abs format (unit mm)*
G04 Created by KiCad (PCBNEW (5.1.6)-1) date 2022-10-11 16:22:54*
%MOMM*%
%LPD*%
G01*
G04 APERTURE LIST*
%ADD10C,0.120000*%
%ADD11C,0.200000*%
%ADD12C,0.150000*%
%ADD13C,0.152400*%
%ADD14C,0.127000*%
G04 APERTURE END LIST*
D10*
X138510000Y-140500000D02*
X155510000Y-140500000D01*
D11*
X154667142Y-138970000D02*
X154781428Y-138912857D01*
X154952857Y-138912857D01*
X155124285Y-138970000D01*
X155238571Y-139084285D01*
X155295714Y-139198571D01*
X155352857Y-139427142D01*
X155352857Y-139598571D01*
X155295714Y-139827142D01*
X155238571Y-139941428D01*
X155124285Y-140055714D01*
X154952857Y-140112857D01*
X154838571Y-140112857D01*
X154667142Y-140055714D01*
X154610000Y-139998571D01*
X154610000Y-139598571D01*
X154838571Y-139598571D01*
X154095714Y-140112857D02*
X154095714Y-139312857D01*
X154095714Y-138912857D02*
X154152857Y-138970000D01*
X154095714Y-139027142D01*
X154038571Y-138970000D01*
X154095714Y-138912857D01*
X154095714Y-139027142D01*
X153695714Y-139312857D02*
X153238571Y-139312857D01*
X153524285Y-138912857D02*
X153524285Y-139941428D01*
X153467142Y-140055714D01*
X153352857Y-140112857D01*
X153238571Y-140112857D01*
X152838571Y-140112857D02*
X152838571Y-138912857D01*
X152324285Y-140112857D02*
X152324285Y-139484285D01*
X152381428Y-139370000D01*
X152495714Y-139312857D01*
X152667142Y-139312857D01*
X152781428Y-139370000D01*
X152838571Y-139427142D01*
X151238571Y-139312857D02*
X151238571Y-140112857D01*
X151752857Y-139312857D02*
X151752857Y-139941428D01*
X151695714Y-140055714D01*
X151581428Y-140112857D01*
X151410000Y-140112857D01*
X151295714Y-140055714D01*
X151238571Y-139998571D01*
X150667142Y-140112857D02*
X150667142Y-138912857D01*
X150667142Y-139370000D02*
X150552857Y-139312857D01*
X150324285Y-139312857D01*
X150210000Y-139370000D01*
X150152857Y-139427142D01*
X150095714Y-139541428D01*
X150095714Y-139884285D01*
X150152857Y-139998571D01*
X150210000Y-140055714D01*
X150324285Y-140112857D01*
X150552857Y-140112857D01*
X150667142Y-140055714D01*
X149581428Y-139655714D02*
X148667142Y-139655714D01*
X147410000Y-140112857D02*
X147810000Y-139541428D01*
X148095714Y-140112857D02*
X148095714Y-138912857D01*
X147638571Y-138912857D01*
X147524285Y-138970000D01*
X147467142Y-139027142D01*
X147410000Y-139141428D01*
X147410000Y-139312857D01*
X147467142Y-139427142D01*
X147524285Y-139484285D01*
X147638571Y-139541428D01*
X148095714Y-139541428D01*
X146438571Y-140055714D02*
X146552857Y-140112857D01*
X146781428Y-140112857D01*
X146895714Y-140055714D01*
X146952857Y-139941428D01*
X146952857Y-139484285D01*
X146895714Y-139370000D01*
X146781428Y-139312857D01*
X146552857Y-139312857D01*
X146438571Y-139370000D01*
X146381428Y-139484285D01*
X146381428Y-139598571D01*
X146952857Y-139712857D01*
X145867142Y-139312857D02*
X145867142Y-140512857D01*
X145867142Y-139370000D02*
X145752857Y-139312857D01*
X145524285Y-139312857D01*
X145410000Y-139370000D01*
X145352857Y-139427142D01*
X145295714Y-139541428D01*
X145295714Y-139884285D01*
X145352857Y-139998571D01*
X145410000Y-140055714D01*
X145524285Y-140112857D01*
X145752857Y-140112857D01*
X145867142Y-140055714D01*
X144610000Y-140112857D02*
X144724285Y-140055714D01*
X144781428Y-139998571D01*
X144838571Y-139884285D01*
X144838571Y-139541428D01*
X144781428Y-139427142D01*
X144724285Y-139370000D01*
X144610000Y-139312857D01*
X144438571Y-139312857D01*
X144324285Y-139370000D01*
X144267142Y-139427142D01*
X144210000Y-139541428D01*
X144210000Y-139884285D01*
X144267142Y-139998571D01*
X144324285Y-140055714D01*
X144438571Y-140112857D01*
X144610000Y-140112857D01*
X143752857Y-140055714D02*
X143638571Y-140112857D01*
X143410000Y-140112857D01*
X143295714Y-140055714D01*
X143238571Y-139941428D01*
X143238571Y-139884285D01*
X143295714Y-139770000D01*
X143410000Y-139712857D01*
X143581428Y-139712857D01*
X143695714Y-139655714D01*
X143752857Y-139541428D01*
X143752857Y-139484285D01*
X143695714Y-139370000D01*
X143581428Y-139312857D01*
X143410000Y-139312857D01*
X143295714Y-139370000D01*
X142724285Y-140112857D02*
X142724285Y-139312857D01*
X142724285Y-138912857D02*
X142781428Y-138970000D01*
X142724285Y-139027142D01*
X142667142Y-138970000D01*
X142724285Y-138912857D01*
X142724285Y-139027142D01*
X142324285Y-139312857D02*
X141867142Y-139312857D01*
X142152857Y-138912857D02*
X142152857Y-139941428D01*
X142095714Y-140055714D01*
X141981428Y-140112857D01*
X141867142Y-140112857D01*
X141295714Y-140112857D02*
X141410000Y-140055714D01*
X141467142Y-139998571D01*
X141524285Y-139884285D01*
X141524285Y-139541428D01*
X141467142Y-139427142D01*
X141410000Y-139370000D01*
X141295714Y-139312857D01*
X141124285Y-139312857D01*
X141010000Y-139370000D01*
X140952857Y-139427142D01*
X140895714Y-139541428D01*
X140895714Y-139884285D01*
X140952857Y-139998571D01*
X141010000Y-140055714D01*
X141124285Y-140112857D01*
X141295714Y-140112857D01*
X140381428Y-140112857D02*
X140381428Y-139312857D01*
X140381428Y-139541428D02*
X140324285Y-139427142D01*
X140267142Y-139370000D01*
X140152857Y-139312857D01*
X140038571Y-139312857D01*
X139752857Y-139312857D02*
X139467142Y-140112857D01*
X139181428Y-139312857D02*
X139467142Y-140112857D01*
X139581428Y-140398571D01*
X139638571Y-140455714D01*
X139752857Y-140512857D01*
X138724285Y-139998571D02*
X138667142Y-140055714D01*
X138724285Y-140112857D01*
X138781428Y-140055714D01*
X138724285Y-139998571D01*
X138724285Y-140112857D01*
X138724285Y-139370000D02*
X138667142Y-139427142D01*
X138724285Y-139484285D01*
X138781428Y-139427142D01*
X138724285Y-139370000D01*
X138724285Y-139484285D01*
D12*
X152861889Y-142087380D02*
X152736889Y-141087380D01*
X152290461Y-142087380D01*
X152165461Y-141087380D01*
X151427366Y-142039761D02*
X151528556Y-142087380D01*
X151719032Y-142087380D01*
X151808318Y-142039761D01*
X151844032Y-141944523D01*
X151796413Y-141563571D01*
X151736889Y-141468333D01*
X151635699Y-141420714D01*
X151445223Y-141420714D01*
X151355937Y-141468333D01*
X151320223Y-141563571D01*
X151332127Y-141658809D01*
X151820223Y-141754047D01*
X150969032Y-141420714D02*
X150861889Y-142087380D01*
X150611889Y-141611190D01*
X150480937Y-142087380D01*
X150207127Y-141420714D01*
X149927366Y-141087380D02*
X149355937Y-141087380D01*
X149766651Y-142087380D02*
X149641651Y-141087380D01*
X148760699Y-142039761D02*
X148861889Y-142087380D01*
X149052366Y-142087380D01*
X149141651Y-142039761D01*
X149177366Y-141944523D01*
X149129747Y-141563571D01*
X149070223Y-141468333D01*
X148969032Y-141420714D01*
X148778556Y-141420714D01*
X148689270Y-141468333D01*
X148653556Y-141563571D01*
X148665461Y-141658809D01*
X149153556Y-141754047D01*
X147855937Y-142039761D02*
X147957127Y-142087380D01*
X148147604Y-142087380D01*
X148236889Y-142039761D01*
X148278556Y-141992142D01*
X148314270Y-141896904D01*
X148278556Y-141611190D01*
X148219032Y-141515952D01*
X148165461Y-141468333D01*
X148064270Y-141420714D01*
X147873794Y-141420714D01*
X147784508Y-141468333D01*
X147385699Y-141706428D02*
X146623794Y-141706428D01*
X145552366Y-141135000D02*
X145641651Y-141087380D01*
X145784508Y-141087380D01*
X145933318Y-141135000D01*
X146040461Y-141230238D01*
X146099985Y-141325476D01*
X146171413Y-141515952D01*
X146189270Y-141658809D01*
X146165461Y-141849285D01*
X146129747Y-141944523D01*
X146046413Y-142039761D01*
X145909508Y-142087380D01*
X145814270Y-142087380D01*
X145665461Y-142039761D01*
X145611889Y-141992142D01*
X145570223Y-141658809D01*
X145760699Y-141658809D01*
X145195223Y-142087380D02*
X145111889Y-141420714D01*
X145123794Y-141515952D02*
X145070223Y-141468333D01*
X144969032Y-141420714D01*
X144826175Y-141420714D01*
X144736889Y-141468333D01*
X144701175Y-141563571D01*
X144766651Y-142087380D01*
X144701175Y-141563571D02*
X144641651Y-141468333D01*
X144540461Y-141420714D01*
X144397604Y-141420714D01*
X144308318Y-141468333D01*
X144272604Y-141563571D01*
X144338080Y-142087380D01*
X143861889Y-142087380D02*
X143736889Y-141087380D01*
X143784508Y-141468333D02*
X143683318Y-141420714D01*
X143492842Y-141420714D01*
X143403556Y-141468333D01*
X143361889Y-141515952D01*
X143326175Y-141611190D01*
X143361889Y-141896904D01*
X143421413Y-141992142D01*
X143474985Y-142039761D01*
X143576175Y-142087380D01*
X143766651Y-142087380D01*
X143855937Y-142039761D01*
X142957127Y-142087380D02*
X142832127Y-141087380D01*
X142891651Y-141563571D02*
X142320223Y-141563571D01*
X142385699Y-142087380D02*
X142260699Y-141087380D01*
X141064270Y-141039761D02*
X142082127Y-142325476D01*
X153141651Y-142737380D02*
X152474985Y-142737380D01*
X153266651Y-143737380D01*
X152599985Y-143737380D01*
X151707127Y-143070714D02*
X151790461Y-143737380D01*
X152135699Y-143070714D02*
X152201175Y-143594523D01*
X152165461Y-143689761D01*
X152076175Y-143737380D01*
X151933318Y-143737380D01*
X151832127Y-143689761D01*
X151778556Y-143642142D01*
X151314270Y-143737380D02*
X151230937Y-143070714D01*
X151242842Y-143165952D02*
X151189270Y-143118333D01*
X151088080Y-143070714D01*
X150945223Y-143070714D01*
X150855937Y-143118333D01*
X150820223Y-143213571D01*
X150885699Y-143737380D01*
X150820223Y-143213571D02*
X150760699Y-143118333D01*
X150659508Y-143070714D01*
X150516651Y-143070714D01*
X150427366Y-143118333D01*
X150391651Y-143213571D01*
X150457127Y-143737380D01*
X149838080Y-143737380D02*
X149927366Y-143689761D01*
X149969032Y-143642142D01*
X150004747Y-143546904D01*
X149969032Y-143261190D01*
X149909508Y-143165952D01*
X149855937Y-143118333D01*
X149754747Y-143070714D01*
X149611889Y-143070714D01*
X149522604Y-143118333D01*
X149480937Y-143165952D01*
X149445223Y-143261190D01*
X149480937Y-143546904D01*
X149540461Y-143642142D01*
X149594032Y-143689761D01*
X149695223Y-143737380D01*
X149838080Y-143737380D01*
X148492842Y-143642142D02*
X148546413Y-143689761D01*
X148695223Y-143737380D01*
X148790461Y-143737380D01*
X148927366Y-143689761D01*
X149010699Y-143594523D01*
X149046413Y-143499285D01*
X149070223Y-143308809D01*
X149052366Y-143165952D01*
X148980937Y-142975476D01*
X148921413Y-142880238D01*
X148814270Y-142785000D01*
X148665461Y-142737380D01*
X148570223Y-142737380D01*
X148433318Y-142785000D01*
X148391651Y-142832619D01*
X147933318Y-143737380D02*
X148022604Y-143689761D01*
X148064270Y-143642142D01*
X148099985Y-143546904D01*
X148064270Y-143261190D01*
X148004747Y-143165952D01*
X147951175Y-143118333D01*
X147849985Y-143070714D01*
X147707127Y-143070714D01*
X147617842Y-143118333D01*
X147576175Y-143165952D01*
X147540461Y-143261190D01*
X147576175Y-143546904D01*
X147635699Y-143642142D01*
X147689270Y-143689761D01*
X147790461Y-143737380D01*
X147933318Y-143737380D01*
X147171413Y-143737380D02*
X147088080Y-143070714D01*
X147099985Y-143165952D02*
X147046413Y-143118333D01*
X146945223Y-143070714D01*
X146802366Y-143070714D01*
X146713080Y-143118333D01*
X146677366Y-143213571D01*
X146742842Y-143737380D01*
X146677366Y-143213571D02*
X146617842Y-143118333D01*
X146516651Y-143070714D01*
X146373794Y-143070714D01*
X146284508Y-143118333D01*
X146248794Y-143213571D01*
X146314270Y-143737380D01*
X145879747Y-143689761D02*
X145742842Y-143737380D01*
X145504747Y-143737380D01*
X145403556Y-143689761D01*
X145349985Y-143642142D01*
X145290461Y-143546904D01*
X145278556Y-143451666D01*
X145314270Y-143356428D01*
X145355937Y-143308809D01*
X145445223Y-143261190D01*
X145629747Y-143213571D01*
X145719032Y-143165952D01*
X145760699Y-143118333D01*
X145796413Y-143023095D01*
X145784508Y-142927857D01*
X145724985Y-142832619D01*
X145671413Y-142785000D01*
X145570223Y-142737380D01*
X145332127Y-142737380D01*
X145195223Y-142785000D01*
X144897604Y-143070714D02*
X144742842Y-143737380D01*
X144421413Y-143070714D02*
X144742842Y-143737380D01*
X144867842Y-143975476D01*
X144921413Y-144023095D01*
X145022604Y-144070714D01*
X144165461Y-143689761D02*
X144076175Y-143737380D01*
X143885699Y-143737380D01*
X143784508Y-143689761D01*
X143724985Y-143594523D01*
X143719032Y-143546904D01*
X143754747Y-143451666D01*
X143844032Y-143404047D01*
X143986889Y-143404047D01*
X144076175Y-143356428D01*
X144111889Y-143261190D01*
X144105937Y-143213571D01*
X144046413Y-143118333D01*
X143945223Y-143070714D01*
X143802366Y-143070714D01*
X143713080Y-143118333D01*
X143373794Y-143070714D02*
X142992842Y-143070714D01*
X143189270Y-142737380D02*
X143296413Y-143594523D01*
X143260699Y-143689761D01*
X143171413Y-143737380D01*
X143076175Y-143737380D01*
X142355937Y-143689761D02*
X142457127Y-143737380D01*
X142647604Y-143737380D01*
X142736889Y-143689761D01*
X142772604Y-143594523D01*
X142724985Y-143213571D01*
X142665461Y-143118333D01*
X142564270Y-143070714D01*
X142373794Y-143070714D01*
X142284508Y-143118333D01*
X142248794Y-143213571D01*
X142260699Y-143308809D01*
X142748794Y-143404047D01*
X141885699Y-143737380D02*
X141802366Y-143070714D01*
X141814270Y-143165952D02*
X141760699Y-143118333D01*
X141659508Y-143070714D01*
X141516651Y-143070714D01*
X141427366Y-143118333D01*
X141391651Y-143213571D01*
X141457127Y-143737380D01*
X141391651Y-143213571D02*
X141332127Y-143118333D01*
X141230937Y-143070714D01*
X141088080Y-143070714D01*
X140998794Y-143118333D01*
X140963080Y-143213571D01*
X141028556Y-143737380D01*
D10*
%TO.C,R26*%
X176928733Y-137190000D02*
X177271267Y-137190000D01*
X176928733Y-138210000D02*
X177271267Y-138210000D01*
D13*
%TO.C,U1*%
X131266400Y-65158400D02*
X135533600Y-65158400D01*
X135533600Y-70441600D02*
X131266400Y-70441600D01*
D10*
%TO.C,R25*%
X171528733Y-137190000D02*
X171871267Y-137190000D01*
X171528733Y-138210000D02*
X171871267Y-138210000D01*
%TO.C,R24*%
X164678733Y-137190000D02*
X165021267Y-137190000D01*
X164678733Y-138210000D02*
X165021267Y-138210000D01*
%TO.C,L1*%
X178564000Y-71204000D02*
X178564000Y-66896000D01*
X174256000Y-66896000D02*
X174256000Y-71204000D01*
%TO.C,L2*%
X134780000Y-78425000D02*
X134780000Y-76020000D01*
X134780000Y-76020000D02*
X124420000Y-76020000D01*
X124420000Y-76020000D02*
X124420000Y-78425000D01*
X134780000Y-83975000D02*
X134780000Y-86380000D01*
X134780000Y-86380000D02*
X124420000Y-86380000D01*
X124420000Y-86380000D02*
X124420000Y-83975000D01*
%TO.C,R5*%
X152099520Y-113648271D02*
X152341729Y-113890480D01*
X151378271Y-114369520D02*
X151620480Y-114611729D01*
%TO.C,R3*%
X152139520Y-106318271D02*
X152381729Y-106560480D01*
X151418271Y-107039520D02*
X151660480Y-107281729D01*
%TO.C,R2*%
X152760480Y-106181729D02*
X152518271Y-105939520D01*
X153481729Y-105460480D02*
X153239520Y-105218271D01*
%TO.C,D7*%
X138650000Y-103850000D02*
X138650000Y-98150000D01*
X134350000Y-103850000D02*
X134350000Y-98150000D01*
X138650000Y-103850000D02*
X134350000Y-103850000D01*
%TO.C,C3*%
X139228733Y-68910000D02*
X139571267Y-68910000D01*
X139228733Y-67890000D02*
X139571267Y-67890000D01*
%TO.C,D2*%
X133500000Y-71750000D02*
X130350000Y-71750000D01*
X133500000Y-73450000D02*
X130350000Y-73450000D01*
X133500000Y-71750000D02*
X133500000Y-73450000D01*
%TO.C,Q1*%
X126210000Y-63190000D02*
X124750000Y-63190000D01*
X126210000Y-66350000D02*
X123050000Y-66350000D01*
X126210000Y-66350000D02*
X126210000Y-65420000D01*
X126210000Y-63190000D02*
X126210000Y-64120000D01*
%TO.C,U2*%
X169633246Y-68180000D02*
G75*
G03*
X169633246Y-68180000I-63246J0D01*
G01*
D13*
X170811000Y-68649400D02*
X170150600Y-68649400D01*
X170150600Y-68649400D02*
X170150600Y-68344600D01*
X173249400Y-68649400D02*
X172589000Y-68649400D01*
X173249400Y-65550600D02*
X173249400Y-65855400D01*
X170150600Y-65550600D02*
X170811000Y-65550600D01*
X170150600Y-65855400D02*
X170150600Y-65550600D01*
X173249400Y-68344600D02*
X173249400Y-68649400D01*
X172589000Y-65550600D02*
X173249400Y-65550600D01*
D10*
%TO.C,R1*%
X171871267Y-63490000D02*
X171528733Y-63490000D01*
X171871267Y-64510000D02*
X171528733Y-64510000D01*
%TO.C,C6*%
X171961252Y-71110000D02*
X171438748Y-71110000D01*
X171961252Y-69690000D02*
X171438748Y-69690000D01*
D14*
%TO.C,U5*%
X139700000Y-113500000D02*
X140250000Y-113500000D01*
X144700000Y-113500000D02*
X144150000Y-113500000D01*
X139700000Y-118500000D02*
X140250000Y-118500000D01*
X144700000Y-118500000D02*
X144150000Y-118500000D01*
X139700000Y-113500000D02*
X139700000Y-114050000D01*
X144700000Y-113500000D02*
X144700000Y-114050000D01*
X139700000Y-118500000D02*
X139700000Y-117950000D01*
X144700000Y-118500000D02*
X144700000Y-117950000D01*
D11*
X140800000Y-112460000D02*
G75*
G03*
X140800000Y-112460000I-100000J0D01*
G01*
D14*
%TO.C,U3*%
X162835534Y-113100000D02*
X162626937Y-113308597D01*
X159300000Y-116635534D02*
X159508597Y-116426937D01*
X159300000Y-109564466D02*
X159091403Y-109773063D01*
X155764466Y-113100000D02*
X155973063Y-112891403D01*
X162835534Y-113100000D02*
X162626937Y-112891403D01*
X159300000Y-116635534D02*
X159091403Y-116426937D01*
X159300000Y-109564466D02*
X159508597Y-109773063D01*
X155764466Y-113100000D02*
X155973063Y-113308597D01*
D11*
X164035085Y-114567247D02*
G75*
G03*
X164035085Y-114567247I-100000J0D01*
G01*
D10*
%TO.C,J5*%
X155905000Y-79155000D02*
X155905000Y-84355000D01*
X140605000Y-79155000D02*
X155905000Y-79155000D01*
X138005000Y-84355000D02*
X155905000Y-84355000D01*
X140605000Y-79155000D02*
X140605000Y-81755000D01*
X140605000Y-81755000D02*
X138005000Y-81755000D01*
X138005000Y-81755000D02*
X138005000Y-84355000D01*
X139335000Y-79155000D02*
X138005000Y-79155000D01*
X138005000Y-79155000D02*
X138005000Y-80485000D01*
%TO.C,C1*%
X127390000Y-70697936D02*
X127390000Y-71902064D01*
X129210000Y-70697936D02*
X129210000Y-71902064D01*
%TO.C,C2*%
X169110000Y-67938748D02*
X169110000Y-68461252D01*
X167690000Y-67938748D02*
X167690000Y-68461252D01*
%TO.C,C4*%
X132538748Y-75510000D02*
X133061252Y-75510000D01*
X132538748Y-74090000D02*
X133061252Y-74090000D01*
%TO.C,C5*%
X133397936Y-90610000D02*
X134602064Y-90610000D01*
X133397936Y-88790000D02*
X134602064Y-88790000D01*
%TO.C,C9*%
X128310000Y-124871267D02*
X128310000Y-124528733D01*
X127290000Y-124871267D02*
X127290000Y-124528733D01*
%TO.C,C10*%
X127290000Y-128028733D02*
X127290000Y-128371267D01*
X128310000Y-128028733D02*
X128310000Y-128371267D01*
%TO.C,D1*%
X140800000Y-75035000D02*
X134740000Y-75035000D01*
X134740000Y-75035000D02*
X134740000Y-70765000D01*
X134740000Y-70765000D02*
X140800000Y-70765000D01*
%TO.C,D3*%
X114250000Y-122000000D02*
X118550000Y-122000000D01*
X118550000Y-122000000D02*
X118550000Y-129300000D01*
X114250000Y-122000000D02*
X114250000Y-129300000D01*
%TO.C,F1*%
X120697936Y-124860000D02*
X121902064Y-124860000D01*
X120697936Y-122140000D02*
X121902064Y-122140000D01*
%TO.C,Q7*%
X162585000Y-117645000D02*
X162585000Y-118575000D01*
X162585000Y-120805000D02*
X162585000Y-119875000D01*
X162585000Y-120805000D02*
X160425000Y-120805000D01*
X162585000Y-117645000D02*
X161125000Y-117645000D01*
%TO.C,R7*%
X129910000Y-124871267D02*
X129910000Y-124528733D01*
X128890000Y-124871267D02*
X128890000Y-124528733D01*
%TO.C,R8*%
X129910000Y-128371267D02*
X129910000Y-128028733D01*
X128890000Y-128371267D02*
X128890000Y-128028733D01*
%TO.C,R10*%
X119290000Y-127128733D02*
X119290000Y-127471267D01*
X120310000Y-127128733D02*
X120310000Y-127471267D01*
%TO.C,R16*%
X132103733Y-118210000D02*
X132446267Y-118210000D01*
X132103733Y-117190000D02*
X132446267Y-117190000D01*
%TO.C,R18*%
X131910000Y-120621267D02*
X131910000Y-120278733D01*
X130890000Y-120621267D02*
X130890000Y-120278733D01*
%TO.C,R19*%
X132665000Y-120278733D02*
X132665000Y-120621267D01*
X133685000Y-120278733D02*
X133685000Y-120621267D01*
%TO.C,R20*%
X165021267Y-139390000D02*
X164678733Y-139390000D01*
X165021267Y-140410000D02*
X164678733Y-140410000D01*
%TO.C,R21*%
X132728733Y-127810000D02*
X133071267Y-127810000D01*
X132728733Y-126790000D02*
X133071267Y-126790000D01*
%TO.C,R22*%
X132728733Y-130885000D02*
X133071267Y-130885000D01*
X132728733Y-129865000D02*
X133071267Y-129865000D01*
%TO.C,R23*%
X132728733Y-129347500D02*
X133071267Y-129347500D01*
X132728733Y-128327500D02*
X133071267Y-128327500D01*
%TO.C,R27*%
X171871267Y-139390000D02*
X171528733Y-139390000D01*
X171871267Y-140410000D02*
X171528733Y-140410000D01*
%TO.C,R30*%
X176928733Y-140410000D02*
X177271267Y-140410000D01*
X176928733Y-139390000D02*
X177271267Y-139390000D01*
%TO.C,R31*%
X161996267Y-121365000D02*
X161653733Y-121365000D01*
X161996267Y-122385000D02*
X161653733Y-122385000D01*
%TO.C,R32*%
X164960000Y-121121267D02*
X164960000Y-120778733D01*
X163940000Y-121121267D02*
X163940000Y-120778733D01*
%TO.C,U4*%
X123020000Y-125740000D02*
X124780000Y-125740000D01*
X124780000Y-128810000D02*
X122350000Y-128810000D01*
%TO.C,C11*%
X146228733Y-107610000D02*
X146571267Y-107610000D01*
X146228733Y-106590000D02*
X146571267Y-106590000D01*
%TO.C,C12*%
X146228733Y-109210000D02*
X146571267Y-109210000D01*
X146228733Y-108190000D02*
X146571267Y-108190000D01*
%TO.C,C13*%
X142703733Y-109210000D02*
X143046267Y-109210000D01*
X142703733Y-108190000D02*
X143046267Y-108190000D01*
%TO.C,C14*%
X142703733Y-107610000D02*
X143046267Y-107610000D01*
X142703733Y-106590000D02*
X143046267Y-106590000D01*
%TO.C,R13*%
X146910000Y-114271267D02*
X146910000Y-113928733D01*
X145890000Y-114271267D02*
X145890000Y-113928733D01*
%TO.C,R14*%
X145890000Y-117328733D02*
X145890000Y-117671267D01*
X146910000Y-117328733D02*
X146910000Y-117671267D01*
%TO.C,Y1*%
X162000000Y-108350000D02*
X156600000Y-108350000D01*
X162000000Y-103850000D02*
X162000000Y-108350000D01*
%TO.C,J4*%
X126775000Y-104710000D02*
X126775000Y-105730000D01*
X126775000Y-120520000D02*
X121575000Y-120520000D01*
X121575000Y-87950000D02*
X120135000Y-87950000D01*
X126775000Y-94550000D02*
X126775000Y-95570000D01*
X121575000Y-99630000D02*
X121575000Y-100650000D01*
X121575000Y-102170000D02*
X121575000Y-103190000D01*
X126775000Y-109790000D02*
X126775000Y-110810000D01*
X126775000Y-97090000D02*
X126775000Y-98110000D01*
X121575000Y-92010000D02*
X121575000Y-93030000D01*
X126775000Y-99630000D02*
X126775000Y-100650000D01*
X126775000Y-107250000D02*
X126775000Y-108270000D01*
X126775000Y-117410000D02*
X126775000Y-118430000D01*
X126775000Y-114870000D02*
X126775000Y-115890000D01*
X126775000Y-102170000D02*
X126775000Y-103190000D01*
X121575000Y-117410000D02*
X121575000Y-118430000D01*
X121575000Y-119950000D02*
X121575000Y-120520000D01*
X121575000Y-94550000D02*
X121575000Y-95570000D01*
X121575000Y-97090000D02*
X121575000Y-98110000D01*
X121575000Y-89470000D02*
X121575000Y-90490000D01*
X121575000Y-112330000D02*
X121575000Y-113350000D01*
X126775000Y-87380000D02*
X121575000Y-87380000D01*
X126775000Y-112330000D02*
X126775000Y-113350000D01*
X126775000Y-119950000D02*
X126775000Y-120520000D01*
X121575000Y-104710000D02*
X121575000Y-105730000D01*
X126775000Y-89470000D02*
X126775000Y-90490000D01*
X121575000Y-87380000D02*
X121575000Y-87950000D01*
X126775000Y-92010000D02*
X126775000Y-93030000D01*
X121575000Y-107250000D02*
X121575000Y-108270000D01*
X121575000Y-109790000D02*
X121575000Y-110810000D01*
X126775000Y-87380000D02*
X126775000Y-87950000D01*
X121575000Y-114870000D02*
X121575000Y-115890000D01*
%TO.C,J6*%
X172425000Y-104720000D02*
X172425000Y-105740000D01*
X172425000Y-120530000D02*
X167225000Y-120530000D01*
X167225000Y-87960000D02*
X165785000Y-87960000D01*
X172425000Y-94560000D02*
X172425000Y-95580000D01*
X167225000Y-99640000D02*
X167225000Y-100660000D01*
X167225000Y-102180000D02*
X167225000Y-103200000D01*
X172425000Y-109800000D02*
X172425000Y-110820000D01*
X172425000Y-97100000D02*
X172425000Y-98120000D01*
X167225000Y-92020000D02*
X167225000Y-93040000D01*
X172425000Y-99640000D02*
X172425000Y-100660000D01*
X172425000Y-107260000D02*
X172425000Y-108280000D01*
X172425000Y-117420000D02*
X172425000Y-118440000D01*
X172425000Y-114880000D02*
X172425000Y-115900000D01*
X172425000Y-102180000D02*
X172425000Y-103200000D01*
X167225000Y-117420000D02*
X167225000Y-118440000D01*
X167225000Y-119960000D02*
X167225000Y-120530000D01*
X167225000Y-94560000D02*
X167225000Y-95580000D01*
X167225000Y-97100000D02*
X167225000Y-98120000D01*
X167225000Y-89480000D02*
X167225000Y-90500000D01*
X167225000Y-112340000D02*
X167225000Y-113360000D01*
X172425000Y-87390000D02*
X167225000Y-87390000D01*
X172425000Y-112340000D02*
X172425000Y-113360000D01*
X172425000Y-119960000D02*
X172425000Y-120530000D01*
X167225000Y-104720000D02*
X167225000Y-105740000D01*
X172425000Y-89480000D02*
X172425000Y-90500000D01*
X167225000Y-87390000D02*
X167225000Y-87960000D01*
X172425000Y-92020000D02*
X172425000Y-93040000D01*
X167225000Y-107260000D02*
X167225000Y-108280000D01*
X167225000Y-109800000D02*
X167225000Y-110820000D01*
X172425000Y-87390000D02*
X172425000Y-87960000D01*
X167225000Y-114880000D02*
X167225000Y-115900000D01*
%TO.C,C7*%
X162590000Y-106271267D02*
X162590000Y-105928733D01*
X163610000Y-106271267D02*
X163610000Y-105928733D01*
%TO.C,R9*%
X159232936Y-134400000D02*
X160437064Y-134400000D01*
X159232936Y-132580000D02*
X160437064Y-132580000D01*
D14*
%TO.C,Q3*%
X155690000Y-135060000D02*
X154035000Y-135060000D01*
X154035000Y-131920000D02*
X155685000Y-131920000D01*
X155690000Y-135060000D02*
X155690000Y-134110000D01*
X155690000Y-132870000D02*
X155690000Y-131953500D01*
X154035000Y-133826500D02*
X154035000Y-133153500D01*
D11*
X152360000Y-134440000D02*
G75*
G03*
X152360000Y-134440000I-100000J0D01*
G01*
D14*
%TO.C,Q2*%
X163455000Y-133130000D02*
X163455000Y-131475000D01*
X166595000Y-131475000D02*
X166595000Y-133125000D01*
X163455000Y-133130000D02*
X164405000Y-133130000D01*
X165645000Y-133130000D02*
X166561500Y-133130000D01*
X164688500Y-131475000D02*
X165361500Y-131475000D01*
D11*
X164175000Y-129700000D02*
G75*
G03*
X164175000Y-129700000I-100000J0D01*
G01*
D10*
%TO.C,C15*%
X135510000Y-116971267D02*
X135510000Y-116628733D01*
X134490000Y-116971267D02*
X134490000Y-116628733D01*
%TO.C,R11*%
X155460000Y-128821267D02*
X155460000Y-128478733D01*
X154440000Y-128821267D02*
X154440000Y-128478733D01*
%TO.C,Q4*%
X158340000Y-127190000D02*
X158340000Y-128120000D01*
X158340000Y-130350000D02*
X158340000Y-129420000D01*
X158340000Y-130350000D02*
X156180000Y-130350000D01*
X158340000Y-127190000D02*
X156880000Y-127190000D01*
%TO.C,C8*%
X156010000Y-105928733D02*
X156010000Y-106271267D01*
X154990000Y-105928733D02*
X154990000Y-106271267D01*
%TO.C,R6*%
X152518271Y-111460480D02*
X152760480Y-111218271D01*
X153239520Y-112181729D02*
X153481729Y-111939520D01*
%TO.C,R4*%
X158139520Y-119718271D02*
X158381729Y-119960480D01*
X157418271Y-120439520D02*
X157660480Y-120681729D01*
%TO.C,U1*%
D12*
X134161904Y-63552380D02*
X134161904Y-64361904D01*
X134114285Y-64457142D01*
X134066666Y-64504761D01*
X133971428Y-64552380D01*
X133780952Y-64552380D01*
X133685714Y-64504761D01*
X133638095Y-64457142D01*
X133590476Y-64361904D01*
X133590476Y-63552380D01*
X132590476Y-64552380D02*
X133161904Y-64552380D01*
X132876190Y-64552380D02*
X132876190Y-63552380D01*
X132971428Y-63695238D01*
X133066666Y-63790476D01*
X133161904Y-63838095D01*
%TO.C,U2*%
X169561904Y-64552380D02*
X169561904Y-65361904D01*
X169514285Y-65457142D01*
X169466666Y-65504761D01*
X169371428Y-65552380D01*
X169180952Y-65552380D01*
X169085714Y-65504761D01*
X169038095Y-65457142D01*
X168990476Y-65361904D01*
X168990476Y-64552380D01*
X168561904Y-64647619D02*
X168514285Y-64600000D01*
X168419047Y-64552380D01*
X168180952Y-64552380D01*
X168085714Y-64600000D01*
X168038095Y-64647619D01*
X167990476Y-64742857D01*
X167990476Y-64838095D01*
X168038095Y-64980952D01*
X168609523Y-65552380D01*
X167990476Y-65552380D01*
%TO.C,U5*%
X139661904Y-111852380D02*
X139661904Y-112661904D01*
X139614285Y-112757142D01*
X139566666Y-112804761D01*
X139471428Y-112852380D01*
X139280952Y-112852380D01*
X139185714Y-112804761D01*
X139138095Y-112757142D01*
X139090476Y-112661904D01*
X139090476Y-111852380D01*
X138138095Y-111852380D02*
X138614285Y-111852380D01*
X138661904Y-112328571D01*
X138614285Y-112280952D01*
X138519047Y-112233333D01*
X138280952Y-112233333D01*
X138185714Y-112280952D01*
X138138095Y-112328571D01*
X138090476Y-112423809D01*
X138090476Y-112661904D01*
X138138095Y-112757142D01*
X138185714Y-112804761D01*
X138280952Y-112852380D01*
X138519047Y-112852380D01*
X138614285Y-112804761D01*
X138661904Y-112757142D01*
%TO.C,U3*%
X163694332Y-110016508D02*
X163121912Y-110588928D01*
X163020897Y-110622600D01*
X162953553Y-110622600D01*
X162852538Y-110588928D01*
X162717851Y-110454241D01*
X162684179Y-110353226D01*
X162684179Y-110285882D01*
X162717851Y-110184867D01*
X163290271Y-109612447D01*
X163020897Y-109343073D02*
X162583164Y-108905341D01*
X162549492Y-109410417D01*
X162448477Y-109309402D01*
X162347462Y-109275730D01*
X162280118Y-109275730D01*
X162179103Y-109309402D01*
X162010744Y-109477760D01*
X161977072Y-109578776D01*
X161977072Y-109646119D01*
X162010744Y-109747134D01*
X162212775Y-109949165D01*
X162313790Y-109982837D01*
X162381133Y-109982837D01*
%TO.C,J5*%
X147333333Y-77752380D02*
X147333333Y-78466666D01*
X147380952Y-78609523D01*
X147476190Y-78704761D01*
X147619047Y-78752380D01*
X147714285Y-78752380D01*
X146380952Y-77752380D02*
X146857142Y-77752380D01*
X146904761Y-78228571D01*
X146857142Y-78180952D01*
X146761904Y-78133333D01*
X146523809Y-78133333D01*
X146428571Y-78180952D01*
X146380952Y-78228571D01*
X146333333Y-78323809D01*
X146333333Y-78561904D01*
X146380952Y-78657142D01*
X146428571Y-78704761D01*
X146523809Y-78752380D01*
X146761904Y-78752380D01*
X146857142Y-78704761D01*
X146904761Y-78657142D01*
%TO.C,U4*%
X124661904Y-129202380D02*
X124661904Y-130011904D01*
X124614285Y-130107142D01*
X124566666Y-130154761D01*
X124471428Y-130202380D01*
X124280952Y-130202380D01*
X124185714Y-130154761D01*
X124138095Y-130107142D01*
X124090476Y-130011904D01*
X124090476Y-129202380D01*
X123185714Y-129535714D02*
X123185714Y-130202380D01*
X123423809Y-129154761D02*
X123661904Y-129869047D01*
X123042857Y-129869047D01*
%TO.C,J4*%
X120333333Y-86352380D02*
X120333333Y-87066666D01*
X120380952Y-87209523D01*
X120476190Y-87304761D01*
X120619047Y-87352380D01*
X120714285Y-87352380D01*
X119428571Y-86685714D02*
X119428571Y-87352380D01*
X119666666Y-86304761D02*
X119904761Y-87019047D01*
X119285714Y-87019047D01*
%TO.C,J6*%
X166133333Y-86152380D02*
X166133333Y-86866666D01*
X166180952Y-87009523D01*
X166276190Y-87104761D01*
X166419047Y-87152380D01*
X166514285Y-87152380D01*
X165228571Y-86152380D02*
X165419047Y-86152380D01*
X165514285Y-86200000D01*
X165561904Y-86247619D01*
X165657142Y-86390476D01*
X165704761Y-86580952D01*
X165704761Y-86961904D01*
X165657142Y-87057142D01*
X165609523Y-87104761D01*
X165514285Y-87152380D01*
X165323809Y-87152380D01*
X165228571Y-87104761D01*
X165180952Y-87057142D01*
X165133333Y-86961904D01*
X165133333Y-86723809D01*
X165180952Y-86628571D01*
X165228571Y-86580952D01*
X165323809Y-86533333D01*
X165514285Y-86533333D01*
X165609523Y-86580952D01*
X165657142Y-86628571D01*
X165704761Y-86723809D01*
%TD*%
M02*
