%TF.GenerationSoftware,KiCad,Pcbnew,(5.1.6)-1*%
%TF.CreationDate,2022-08-05T13:09:53+02:00*%
%TF.ProjectId,ZumoComSystem,5a756d6f-436f-46d5-9379-7374656d2e6b,V1.1*%
%TF.SameCoordinates,Original*%
%TF.FileFunction,Legend,Bot*%
%TF.FilePolarity,Positive*%
%FSLAX46Y46*%
G04 Gerber Fmt 4.6, Leading zero omitted, Abs format (unit mm)*
G04 Created by KiCad (PCBNEW (5.1.6)-1) date 2022-08-05 13:09:53*
%MOMM*%
%LPD*%
G01*
G04 APERTURE LIST*
%ADD10C,0.152400*%
%ADD11C,0.120000*%
%ADD12C,0.200000*%
%ADD13C,0.127000*%
%ADD14C,0.150000*%
G04 APERTURE END LIST*
D10*
%TO.C,U1*%
X131266400Y-65158400D02*
X135533600Y-65158400D01*
X135533600Y-70441600D02*
X131266400Y-70441600D01*
D11*
%TO.C,L2*%
X134780000Y-78425000D02*
X134780000Y-76020000D01*
X134780000Y-76020000D02*
X124420000Y-76020000D01*
X124420000Y-76020000D02*
X124420000Y-78425000D01*
X134780000Y-83975000D02*
X134780000Y-86380000D01*
X134780000Y-86380000D02*
X124420000Y-86380000D01*
X124420000Y-86380000D02*
X124420000Y-83975000D01*
%TO.C,R5*%
X152099520Y-113648271D02*
X152341729Y-113890480D01*
X151378271Y-114369520D02*
X151620480Y-114611729D01*
%TO.C,R3*%
X152139520Y-106318271D02*
X152381729Y-106560480D01*
X151418271Y-107039520D02*
X151660480Y-107281729D01*
%TO.C,R2*%
X152760480Y-106181729D02*
X152518271Y-105939520D01*
X153481729Y-105460480D02*
X153239520Y-105218271D01*
%TO.C,D7*%
X138650000Y-103850000D02*
X138650000Y-98150000D01*
X134350000Y-103850000D02*
X134350000Y-98150000D01*
X138650000Y-103850000D02*
X134350000Y-103850000D01*
%TO.C,C3*%
X139228733Y-68910000D02*
X139571267Y-68910000D01*
X139228733Y-67890000D02*
X139571267Y-67890000D01*
%TO.C,D2*%
X133500000Y-71750000D02*
X130350000Y-71750000D01*
X133500000Y-73450000D02*
X130350000Y-73450000D01*
X133500000Y-71750000D02*
X133500000Y-73450000D01*
%TO.C,Q1*%
X126210000Y-63190000D02*
X124750000Y-63190000D01*
X126210000Y-66350000D02*
X123050000Y-66350000D01*
X126210000Y-66350000D02*
X126210000Y-65420000D01*
X126210000Y-63190000D02*
X126210000Y-64120000D01*
%TO.C,L1*%
X173846000Y-68146000D02*
X173846000Y-72454000D01*
X178154000Y-72454000D02*
X178154000Y-68146000D01*
%TO.C,U2*%
X169633246Y-67680000D02*
G75*
G03*
X169633246Y-67680000I-63246J0D01*
G01*
D10*
X170811000Y-68149400D02*
X170150600Y-68149400D01*
X170150600Y-68149400D02*
X170150600Y-67844600D01*
X173249400Y-68149400D02*
X172589000Y-68149400D01*
X173249400Y-65050600D02*
X173249400Y-65355400D01*
X170150600Y-65050600D02*
X170811000Y-65050600D01*
X170150600Y-65355400D02*
X170150600Y-65050600D01*
X173249400Y-67844600D02*
X173249400Y-68149400D01*
X172589000Y-65050600D02*
X173249400Y-65050600D01*
D11*
%TO.C,R1*%
X171871267Y-62990000D02*
X171528733Y-62990000D01*
X171871267Y-64010000D02*
X171528733Y-64010000D01*
%TO.C,C6*%
X175261252Y-74510000D02*
X174738748Y-74510000D01*
X175261252Y-73090000D02*
X174738748Y-73090000D01*
D12*
%TO.C,U5*%
X140800000Y-112460000D02*
G75*
G03*
X140800000Y-112460000I-100000J0D01*
G01*
D13*
X144700000Y-118500000D02*
X144700000Y-117950000D01*
X139700000Y-118500000D02*
X139700000Y-117950000D01*
X144700000Y-113500000D02*
X144700000Y-114050000D01*
X139700000Y-113500000D02*
X139700000Y-114050000D01*
X144700000Y-118500000D02*
X144150000Y-118500000D01*
X139700000Y-118500000D02*
X140250000Y-118500000D01*
X144700000Y-113500000D02*
X144150000Y-113500000D01*
X139700000Y-113500000D02*
X140250000Y-113500000D01*
D12*
%TO.C,U3*%
X164035085Y-114567247D02*
G75*
G03*
X164035085Y-114567247I-100000J0D01*
G01*
D13*
X155764466Y-113100000D02*
X155973063Y-113308597D01*
X159300000Y-109564466D02*
X159508597Y-109773063D01*
X159300000Y-116635534D02*
X159091403Y-116426937D01*
X162835534Y-113100000D02*
X162626937Y-112891403D01*
X155764466Y-113100000D02*
X155973063Y-112891403D01*
X159300000Y-109564466D02*
X159091403Y-109773063D01*
X159300000Y-116635534D02*
X159508597Y-116426937D01*
X162835534Y-113100000D02*
X162626937Y-113308597D01*
D11*
%TO.C,J5*%
X155905000Y-79155000D02*
X155905000Y-84355000D01*
X140605000Y-79155000D02*
X155905000Y-79155000D01*
X138005000Y-84355000D02*
X155905000Y-84355000D01*
X140605000Y-79155000D02*
X140605000Y-81755000D01*
X140605000Y-81755000D02*
X138005000Y-81755000D01*
X138005000Y-81755000D02*
X138005000Y-84355000D01*
X139335000Y-79155000D02*
X138005000Y-79155000D01*
X138005000Y-79155000D02*
X138005000Y-80485000D01*
%TO.C,C1*%
X127390000Y-70697936D02*
X127390000Y-71902064D01*
X129210000Y-70697936D02*
X129210000Y-71902064D01*
%TO.C,C2*%
X169110000Y-67438748D02*
X169110000Y-67961252D01*
X167690000Y-67438748D02*
X167690000Y-67961252D01*
%TO.C,C4*%
X132538748Y-75510000D02*
X133061252Y-75510000D01*
X132538748Y-74090000D02*
X133061252Y-74090000D01*
%TO.C,C5*%
X133397936Y-91710000D02*
X134602064Y-91710000D01*
X133397936Y-89890000D02*
X134602064Y-89890000D01*
%TO.C,C9*%
X128310000Y-124871267D02*
X128310000Y-124528733D01*
X127290000Y-124871267D02*
X127290000Y-124528733D01*
%TO.C,C10*%
X127290000Y-128028733D02*
X127290000Y-128371267D01*
X128310000Y-128028733D02*
X128310000Y-128371267D01*
%TO.C,D1*%
X140800000Y-75035000D02*
X134740000Y-75035000D01*
X134740000Y-75035000D02*
X134740000Y-70765000D01*
X134740000Y-70765000D02*
X140800000Y-70765000D01*
%TO.C,D3*%
X114250000Y-122000000D02*
X118550000Y-122000000D01*
X118550000Y-122000000D02*
X118550000Y-129300000D01*
X114250000Y-122000000D02*
X114250000Y-129300000D01*
%TO.C,F1*%
X120697936Y-124860000D02*
X121902064Y-124860000D01*
X120697936Y-122140000D02*
X121902064Y-122140000D01*
%TO.C,Q6*%
X162060000Y-135170000D02*
X162060000Y-136100000D01*
X162060000Y-138330000D02*
X162060000Y-137400000D01*
X162060000Y-138330000D02*
X159900000Y-138330000D01*
X162060000Y-135170000D02*
X160600000Y-135170000D01*
%TO.C,Q8*%
X175910000Y-135170000D02*
X175910000Y-136100000D01*
X175910000Y-138330000D02*
X175910000Y-137400000D01*
X175910000Y-138330000D02*
X173750000Y-138330000D01*
X175910000Y-135170000D02*
X174450000Y-135170000D01*
%TO.C,Q7*%
X168935000Y-135170000D02*
X168935000Y-136100000D01*
X168935000Y-138330000D02*
X168935000Y-137400000D01*
X168935000Y-138330000D02*
X166775000Y-138330000D01*
X168935000Y-135170000D02*
X167475000Y-135170000D01*
%TO.C,Q9*%
X130420000Y-106665000D02*
X131350000Y-106665000D01*
X133580000Y-106665000D02*
X132650000Y-106665000D01*
X133580000Y-106665000D02*
X133580000Y-108825000D01*
X130420000Y-106665000D02*
X130420000Y-108125000D01*
%TO.C,Q10*%
X162585000Y-117645000D02*
X162585000Y-118575000D01*
X162585000Y-120805000D02*
X162585000Y-119875000D01*
X162585000Y-120805000D02*
X160425000Y-120805000D01*
X162585000Y-117645000D02*
X161125000Y-117645000D01*
%TO.C,R7*%
X129910000Y-124871267D02*
X129910000Y-124528733D01*
X128890000Y-124871267D02*
X128890000Y-124528733D01*
%TO.C,R8*%
X129910000Y-128371267D02*
X129910000Y-128028733D01*
X128890000Y-128371267D02*
X128890000Y-128028733D01*
%TO.C,R10*%
X119290000Y-127128733D02*
X119290000Y-127471267D01*
X120310000Y-127128733D02*
X120310000Y-127471267D01*
%TO.C,R16*%
X132103733Y-118210000D02*
X132446267Y-118210000D01*
X132103733Y-117190000D02*
X132446267Y-117190000D01*
%TO.C,R18*%
X131910000Y-120621267D02*
X131910000Y-120278733D01*
X130890000Y-120621267D02*
X130890000Y-120278733D01*
%TO.C,R19*%
X132665000Y-120278733D02*
X132665000Y-120621267D01*
X133685000Y-120278733D02*
X133685000Y-120621267D01*
%TO.C,R20*%
X165021267Y-139065000D02*
X164678733Y-139065000D01*
X165021267Y-140085000D02*
X164678733Y-140085000D01*
%TO.C,R21*%
X164560000Y-137046267D02*
X164560000Y-136703733D01*
X163540000Y-137046267D02*
X163540000Y-136703733D01*
%TO.C,R25*%
X178435000Y-137046267D02*
X178435000Y-136703733D01*
X177415000Y-137046267D02*
X177415000Y-136703733D01*
%TO.C,R23*%
X171485000Y-137046267D02*
X171485000Y-136703733D01*
X170465000Y-137046267D02*
X170465000Y-136703733D01*
%TO.C,R27*%
X132428733Y-127810000D02*
X132771267Y-127810000D01*
X132428733Y-126790000D02*
X132771267Y-126790000D01*
%TO.C,R28*%
X132428733Y-130885000D02*
X132771267Y-130885000D01*
X132428733Y-129865000D02*
X132771267Y-129865000D01*
%TO.C,R29*%
X132428733Y-129347500D02*
X132771267Y-129347500D01*
X132428733Y-128327500D02*
X132771267Y-128327500D01*
%TO.C,R30*%
X171921267Y-139115000D02*
X171578733Y-139115000D01*
X171921267Y-140135000D02*
X171578733Y-140135000D01*
%TO.C,R31*%
X134240000Y-107253733D02*
X134240000Y-107596267D01*
X135260000Y-107253733D02*
X135260000Y-107596267D01*
%TO.C,R32*%
X132196267Y-104290000D02*
X131853733Y-104290000D01*
X132196267Y-105310000D02*
X131853733Y-105310000D01*
%TO.C,R33*%
X175178733Y-140135000D02*
X175521267Y-140135000D01*
X175178733Y-139115000D02*
X175521267Y-139115000D01*
%TO.C,R34*%
X161996267Y-121365000D02*
X161653733Y-121365000D01*
X161996267Y-122385000D02*
X161653733Y-122385000D01*
%TO.C,R35*%
X164960000Y-121121267D02*
X164960000Y-120778733D01*
X163940000Y-121121267D02*
X163940000Y-120778733D01*
%TO.C,U4*%
X123020000Y-125740000D02*
X124780000Y-125740000D01*
X124780000Y-128810000D02*
X122350000Y-128810000D01*
%TO.C,C11*%
X146228733Y-107610000D02*
X146571267Y-107610000D01*
X146228733Y-106590000D02*
X146571267Y-106590000D01*
%TO.C,C12*%
X146228733Y-109210000D02*
X146571267Y-109210000D01*
X146228733Y-108190000D02*
X146571267Y-108190000D01*
%TO.C,C13*%
X142703733Y-109210000D02*
X143046267Y-109210000D01*
X142703733Y-108190000D02*
X143046267Y-108190000D01*
%TO.C,C14*%
X142703733Y-107610000D02*
X143046267Y-107610000D01*
X142703733Y-106590000D02*
X143046267Y-106590000D01*
%TO.C,R13*%
X146910000Y-114271267D02*
X146910000Y-113928733D01*
X145890000Y-114271267D02*
X145890000Y-113928733D01*
%TO.C,R14*%
X145890000Y-117328733D02*
X145890000Y-117671267D01*
X146910000Y-117328733D02*
X146910000Y-117671267D01*
%TO.C,Y1*%
X162000000Y-108350000D02*
X156600000Y-108350000D01*
X162000000Y-103850000D02*
X162000000Y-108350000D01*
%TO.C,J4*%
X121575000Y-114870000D02*
X121575000Y-115890000D01*
X126775000Y-87380000D02*
X126775000Y-87950000D01*
X121575000Y-109790000D02*
X121575000Y-110810000D01*
X121575000Y-107250000D02*
X121575000Y-108270000D01*
X126775000Y-92010000D02*
X126775000Y-93030000D01*
X121575000Y-87380000D02*
X121575000Y-87950000D01*
X126775000Y-89470000D02*
X126775000Y-90490000D01*
X121575000Y-104710000D02*
X121575000Y-105730000D01*
X126775000Y-119950000D02*
X126775000Y-120520000D01*
X126775000Y-112330000D02*
X126775000Y-113350000D01*
X126775000Y-87380000D02*
X121575000Y-87380000D01*
X121575000Y-112330000D02*
X121575000Y-113350000D01*
X121575000Y-89470000D02*
X121575000Y-90490000D01*
X121575000Y-97090000D02*
X121575000Y-98110000D01*
X121575000Y-94550000D02*
X121575000Y-95570000D01*
X121575000Y-119950000D02*
X121575000Y-120520000D01*
X121575000Y-117410000D02*
X121575000Y-118430000D01*
X126775000Y-102170000D02*
X126775000Y-103190000D01*
X126775000Y-114870000D02*
X126775000Y-115890000D01*
X126775000Y-117410000D02*
X126775000Y-118430000D01*
X126775000Y-107250000D02*
X126775000Y-108270000D01*
X126775000Y-99630000D02*
X126775000Y-100650000D01*
X121575000Y-92010000D02*
X121575000Y-93030000D01*
X126775000Y-97090000D02*
X126775000Y-98110000D01*
X126775000Y-109790000D02*
X126775000Y-110810000D01*
X121575000Y-102170000D02*
X121575000Y-103190000D01*
X121575000Y-99630000D02*
X121575000Y-100650000D01*
X126775000Y-94550000D02*
X126775000Y-95570000D01*
X121575000Y-87950000D02*
X120135000Y-87950000D01*
X126775000Y-120520000D02*
X121575000Y-120520000D01*
X126775000Y-104710000D02*
X126775000Y-105730000D01*
%TO.C,J6*%
X167225000Y-114880000D02*
X167225000Y-115900000D01*
X172425000Y-87390000D02*
X172425000Y-87960000D01*
X167225000Y-109800000D02*
X167225000Y-110820000D01*
X167225000Y-107260000D02*
X167225000Y-108280000D01*
X172425000Y-92020000D02*
X172425000Y-93040000D01*
X167225000Y-87390000D02*
X167225000Y-87960000D01*
X172425000Y-89480000D02*
X172425000Y-90500000D01*
X167225000Y-104720000D02*
X167225000Y-105740000D01*
X172425000Y-119960000D02*
X172425000Y-120530000D01*
X172425000Y-112340000D02*
X172425000Y-113360000D01*
X172425000Y-87390000D02*
X167225000Y-87390000D01*
X167225000Y-112340000D02*
X167225000Y-113360000D01*
X167225000Y-89480000D02*
X167225000Y-90500000D01*
X167225000Y-97100000D02*
X167225000Y-98120000D01*
X167225000Y-94560000D02*
X167225000Y-95580000D01*
X167225000Y-119960000D02*
X167225000Y-120530000D01*
X167225000Y-117420000D02*
X167225000Y-118440000D01*
X172425000Y-102180000D02*
X172425000Y-103200000D01*
X172425000Y-114880000D02*
X172425000Y-115900000D01*
X172425000Y-117420000D02*
X172425000Y-118440000D01*
X172425000Y-107260000D02*
X172425000Y-108280000D01*
X172425000Y-99640000D02*
X172425000Y-100660000D01*
X167225000Y-92020000D02*
X167225000Y-93040000D01*
X172425000Y-97100000D02*
X172425000Y-98120000D01*
X172425000Y-109800000D02*
X172425000Y-110820000D01*
X167225000Y-102180000D02*
X167225000Y-103200000D01*
X167225000Y-99640000D02*
X167225000Y-100660000D01*
X172425000Y-94560000D02*
X172425000Y-95580000D01*
X167225000Y-87960000D02*
X165785000Y-87960000D01*
X172425000Y-120530000D02*
X167225000Y-120530000D01*
X172425000Y-104720000D02*
X172425000Y-105740000D01*
%TO.C,C7*%
X162590000Y-106271267D02*
X162590000Y-105928733D01*
X163610000Y-106271267D02*
X163610000Y-105928733D01*
%TO.C,R9*%
X159232936Y-134400000D02*
X160437064Y-134400000D01*
X159232936Y-132580000D02*
X160437064Y-132580000D01*
D13*
%TO.C,Q3*%
X155690000Y-135060000D02*
X154035000Y-135060000D01*
X154035000Y-131920000D02*
X155685000Y-131920000D01*
X155690000Y-135060000D02*
X155690000Y-134110000D01*
X155690000Y-132870000D02*
X155690000Y-131953500D01*
X154035000Y-133826500D02*
X154035000Y-133153500D01*
D12*
X152360000Y-134440000D02*
G75*
G03*
X152360000Y-134440000I-100000J0D01*
G01*
D13*
%TO.C,Q2*%
X163455000Y-133130000D02*
X163455000Y-131475000D01*
X166595000Y-131475000D02*
X166595000Y-133125000D01*
X163455000Y-133130000D02*
X164405000Y-133130000D01*
X165645000Y-133130000D02*
X166561500Y-133130000D01*
X164688500Y-131475000D02*
X165361500Y-131475000D01*
D12*
X164175000Y-129700000D02*
G75*
G03*
X164175000Y-129700000I-100000J0D01*
G01*
D11*
%TO.C,C15*%
X135410000Y-116971267D02*
X135410000Y-116628733D01*
X134390000Y-116971267D02*
X134390000Y-116628733D01*
%TO.C,R11*%
X155460000Y-128821267D02*
X155460000Y-128478733D01*
X154440000Y-128821267D02*
X154440000Y-128478733D01*
%TO.C,Q4*%
X158340000Y-127190000D02*
X158340000Y-128120000D01*
X158340000Y-130350000D02*
X158340000Y-129420000D01*
X158340000Y-130350000D02*
X156180000Y-130350000D01*
X158340000Y-127190000D02*
X156880000Y-127190000D01*
%TO.C,C8*%
X156010000Y-105928733D02*
X156010000Y-106271267D01*
X154990000Y-105928733D02*
X154990000Y-106271267D01*
%TO.C,R6*%
X152518271Y-111460480D02*
X152760480Y-111218271D01*
X153239520Y-112181729D02*
X153481729Y-111939520D01*
%TO.C,R4*%
X157569520Y-118608271D02*
X157811729Y-118850480D01*
X156848271Y-119329520D02*
X157090480Y-119571729D01*
%TO.C,U1*%
D14*
X134161904Y-70852380D02*
X134161904Y-71661904D01*
X134114285Y-71757142D01*
X134066666Y-71804761D01*
X133971428Y-71852380D01*
X133780952Y-71852380D01*
X133685714Y-71804761D01*
X133638095Y-71757142D01*
X133590476Y-71661904D01*
X133590476Y-70852380D01*
X132590476Y-71852380D02*
X133161904Y-71852380D01*
X132876190Y-71852380D02*
X132876190Y-70852380D01*
X132971428Y-70995238D01*
X133066666Y-71090476D01*
X133161904Y-71138095D01*
%TO.C,U2*%
X172461904Y-69452380D02*
X172461904Y-70261904D01*
X172414285Y-70357142D01*
X172366666Y-70404761D01*
X172271428Y-70452380D01*
X172080952Y-70452380D01*
X171985714Y-70404761D01*
X171938095Y-70357142D01*
X171890476Y-70261904D01*
X171890476Y-69452380D01*
X171461904Y-69547619D02*
X171414285Y-69500000D01*
X171319047Y-69452380D01*
X171080952Y-69452380D01*
X170985714Y-69500000D01*
X170938095Y-69547619D01*
X170890476Y-69642857D01*
X170890476Y-69738095D01*
X170938095Y-69880952D01*
X171509523Y-70452380D01*
X170890476Y-70452380D01*
%TO.C,U5*%
X139661904Y-111852380D02*
X139661904Y-112661904D01*
X139614285Y-112757142D01*
X139566666Y-112804761D01*
X139471428Y-112852380D01*
X139280952Y-112852380D01*
X139185714Y-112804761D01*
X139138095Y-112757142D01*
X139090476Y-112661904D01*
X139090476Y-111852380D01*
X138138095Y-111852380D02*
X138614285Y-111852380D01*
X138661904Y-112328571D01*
X138614285Y-112280952D01*
X138519047Y-112233333D01*
X138280952Y-112233333D01*
X138185714Y-112280952D01*
X138138095Y-112328571D01*
X138090476Y-112423809D01*
X138090476Y-112661904D01*
X138138095Y-112757142D01*
X138185714Y-112804761D01*
X138280952Y-112852380D01*
X138519047Y-112852380D01*
X138614285Y-112804761D01*
X138661904Y-112757142D01*
%TO.C,U3*%
X163694332Y-110016508D02*
X163121912Y-110588928D01*
X163020897Y-110622600D01*
X162953553Y-110622600D01*
X162852538Y-110588928D01*
X162717851Y-110454241D01*
X162684179Y-110353226D01*
X162684179Y-110285882D01*
X162717851Y-110184867D01*
X163290271Y-109612447D01*
X163020897Y-109343073D02*
X162583164Y-108905341D01*
X162549492Y-109410417D01*
X162448477Y-109309402D01*
X162347462Y-109275730D01*
X162280118Y-109275730D01*
X162179103Y-109309402D01*
X162010744Y-109477760D01*
X161977072Y-109578776D01*
X161977072Y-109646119D01*
X162010744Y-109747134D01*
X162212775Y-109949165D01*
X162313790Y-109982837D01*
X162381133Y-109982837D01*
%TO.C,J5*%
X147333333Y-77752380D02*
X147333333Y-78466666D01*
X147380952Y-78609523D01*
X147476190Y-78704761D01*
X147619047Y-78752380D01*
X147714285Y-78752380D01*
X146380952Y-77752380D02*
X146857142Y-77752380D01*
X146904761Y-78228571D01*
X146857142Y-78180952D01*
X146761904Y-78133333D01*
X146523809Y-78133333D01*
X146428571Y-78180952D01*
X146380952Y-78228571D01*
X146333333Y-78323809D01*
X146333333Y-78561904D01*
X146380952Y-78657142D01*
X146428571Y-78704761D01*
X146523809Y-78752380D01*
X146761904Y-78752380D01*
X146857142Y-78704761D01*
X146904761Y-78657142D01*
%TO.C,U4*%
X124661904Y-129202380D02*
X124661904Y-130011904D01*
X124614285Y-130107142D01*
X124566666Y-130154761D01*
X124471428Y-130202380D01*
X124280952Y-130202380D01*
X124185714Y-130154761D01*
X124138095Y-130107142D01*
X124090476Y-130011904D01*
X124090476Y-129202380D01*
X123185714Y-129535714D02*
X123185714Y-130202380D01*
X123423809Y-129154761D02*
X123661904Y-129869047D01*
X123042857Y-129869047D01*
%TO.C,J4*%
X120333333Y-86352380D02*
X120333333Y-87066666D01*
X120380952Y-87209523D01*
X120476190Y-87304761D01*
X120619047Y-87352380D01*
X120714285Y-87352380D01*
X119428571Y-86685714D02*
X119428571Y-87352380D01*
X119666666Y-86304761D02*
X119904761Y-87019047D01*
X119285714Y-87019047D01*
%TO.C,J6*%
X166133333Y-86152380D02*
X166133333Y-86866666D01*
X166180952Y-87009523D01*
X166276190Y-87104761D01*
X166419047Y-87152380D01*
X166514285Y-87152380D01*
X165228571Y-86152380D02*
X165419047Y-86152380D01*
X165514285Y-86200000D01*
X165561904Y-86247619D01*
X165657142Y-86390476D01*
X165704761Y-86580952D01*
X165704761Y-86961904D01*
X165657142Y-87057142D01*
X165609523Y-87104761D01*
X165514285Y-87152380D01*
X165323809Y-87152380D01*
X165228571Y-87104761D01*
X165180952Y-87057142D01*
X165133333Y-86961904D01*
X165133333Y-86723809D01*
X165180952Y-86628571D01*
X165228571Y-86580952D01*
X165323809Y-86533333D01*
X165514285Y-86533333D01*
X165609523Y-86580952D01*
X165657142Y-86628571D01*
X165704761Y-86723809D01*
%TD*%
M02*
