%TF.GenerationSoftware,KiCad,Pcbnew,(5.1.6)-1*%
%TF.CreationDate,2022-08-12T14:15:25+02:00*%
%TF.ProjectId,ZumoComSystem,5a756d6f-436f-46d5-9379-7374656d2e6b,V1.1*%
%TF.SameCoordinates,Original*%
%TF.FileFunction,Soldermask,Bot*%
%TF.FilePolarity,Negative*%
%FSLAX46Y46*%
G04 Gerber Fmt 4.6, Leading zero omitted, Abs format (unit mm)*
G04 Created by KiCad (PCBNEW (5.1.6)-1) date 2022-08-12 14:15:25*
%MOMM*%
%LPD*%
G01*
G04 APERTURE LIST*
%ADD10C,0.300000*%
%ADD11C,1.000000*%
%ADD12R,2.081200X0.633400*%
%ADD13R,3.275000X5.050000*%
%ADD14R,1.800000X1.800000*%
%ADD15O,1.800000X1.800000*%
%ADD16R,2.400000X2.600000*%
%ADD17R,1.100000X1.100000*%
%ADD18R,2.000000X0.900000*%
%ADD19R,3.500000X1.600000*%
%ADD20R,0.912800X0.404800*%
%ADD21R,1.700000X4.100000*%
%ADD22R,3.250000X3.250000*%
%ADD23C,0.100000*%
%ADD24O,3.000000X2.000000*%
%ADD25O,2.000000X3.000000*%
%ADD26C,1.400000*%
%ADD27R,1.400000X1.400000*%
%ADD28O,1.900000X1.200000*%
%ADD29O,2.300000X1.200000*%
%ADD30C,2.080000*%
%ADD31C,3.650000*%
%ADD32C,2.490000*%
%ADD33R,2.400000X3.600000*%
%ADD34R,1.000000X0.900000*%
%ADD35R,0.900000X1.000000*%
%ADD36R,2.100000X0.750000*%
%ADD37R,2.200000X1.900000*%
%ADD38R,3.250000X1.100000*%
%ADD39R,1.410000X0.700000*%
%ADD40R,0.700000X1.410000*%
%ADD41C,1.120000*%
%ADD42C,1.630000*%
G04 APERTURE END LIST*
D10*
X172250000Y-76642857D02*
X172035714Y-76714285D01*
X171964285Y-76785714D01*
X171892857Y-76928571D01*
X171892857Y-77142857D01*
X171964285Y-77285714D01*
X172035714Y-77357142D01*
X172178571Y-77428571D01*
X172750000Y-77428571D01*
X172750000Y-75928571D01*
X172250000Y-75928571D01*
X172107142Y-76000000D01*
X172035714Y-76071428D01*
X171964285Y-76214285D01*
X171964285Y-76357142D01*
X172035714Y-76500000D01*
X172107142Y-76571428D01*
X172250000Y-76642857D01*
X172750000Y-76642857D01*
X170964285Y-75928571D02*
X170678571Y-75928571D01*
X170535714Y-76000000D01*
X170392857Y-76142857D01*
X170321428Y-76428571D01*
X170321428Y-76928571D01*
X170392857Y-77214285D01*
X170535714Y-77357142D01*
X170678571Y-77428571D01*
X170964285Y-77428571D01*
X171107142Y-77357142D01*
X171250000Y-77214285D01*
X171321428Y-76928571D01*
X171321428Y-76428571D01*
X171250000Y-76142857D01*
X171107142Y-76000000D01*
X170964285Y-75928571D01*
X169892857Y-75928571D02*
X169035714Y-75928571D01*
X169464285Y-77428571D02*
X169464285Y-75928571D01*
D11*
%TO.C,SW1*%
X129175000Y-142650000D03*
X126175000Y-142650000D03*
%TD*%
D12*
%TO.C,U1*%
X135863800Y-69705000D03*
X135863800Y-68435000D03*
X135863800Y-67165000D03*
X135863800Y-65895000D03*
X130936200Y-65895000D03*
X130936200Y-67165000D03*
X130936200Y-68435000D03*
X130936200Y-69705000D03*
%TD*%
D13*
%TO.C,L3*%
X134107500Y-81200000D03*
X125092500Y-81200000D03*
%TD*%
%TO.C,R5*%
G36*
G01*
X150649080Y-113290311D02*
X151020311Y-112919080D01*
G75*
G02*
X151391543Y-112919080I185616J-185616D01*
G01*
X151833484Y-113361021D01*
G75*
G02*
X151833484Y-113732253I-185616J-185616D01*
G01*
X151462253Y-114103484D01*
G75*
G02*
X151091021Y-114103484I-185616J185616D01*
G01*
X150649080Y-113661543D01*
G75*
G02*
X150649080Y-113290311I185616J185616D01*
G01*
G37*
G36*
G01*
X151886516Y-114527747D02*
X152257747Y-114156516D01*
G75*
G02*
X152628979Y-114156516I185616J-185616D01*
G01*
X153070920Y-114598457D01*
G75*
G02*
X153070920Y-114969689I-185616J-185616D01*
G01*
X152699689Y-115340920D01*
G75*
G02*
X152328457Y-115340920I-185616J185616D01*
G01*
X151886516Y-114898979D01*
G75*
G02*
X151886516Y-114527747I185616J185616D01*
G01*
G37*
%TD*%
D14*
%TO.C,TP2*%
X141200000Y-111300000D03*
D15*
X143740000Y-111300000D03*
%TD*%
D14*
%TO.C,TP1*%
X151700000Y-101900000D03*
D15*
X149160000Y-101900000D03*
%TD*%
%TO.C,R3*%
G36*
G01*
X150689080Y-105960311D02*
X151060311Y-105589080D01*
G75*
G02*
X151431543Y-105589080I185616J-185616D01*
G01*
X151873484Y-106031021D01*
G75*
G02*
X151873484Y-106402253I-185616J-185616D01*
G01*
X151502253Y-106773484D01*
G75*
G02*
X151131021Y-106773484I-185616J185616D01*
G01*
X150689080Y-106331543D01*
G75*
G02*
X150689080Y-105960311I185616J185616D01*
G01*
G37*
G36*
G01*
X151926516Y-107197747D02*
X152297747Y-106826516D01*
G75*
G02*
X152668979Y-106826516I185616J-185616D01*
G01*
X153110920Y-107268457D01*
G75*
G02*
X153110920Y-107639689I-185616J-185616D01*
G01*
X152739689Y-108010920D01*
G75*
G02*
X152368457Y-108010920I-185616J185616D01*
G01*
X151926516Y-107568979D01*
G75*
G02*
X151926516Y-107197747I185616J185616D01*
G01*
G37*
%TD*%
%TO.C,R2*%
G36*
G01*
X154210920Y-106539689D02*
X153839689Y-106910920D01*
G75*
G02*
X153468457Y-106910920I-185616J185616D01*
G01*
X153026516Y-106468979D01*
G75*
G02*
X153026516Y-106097747I185616J185616D01*
G01*
X153397747Y-105726516D01*
G75*
G02*
X153768979Y-105726516I185616J-185616D01*
G01*
X154210920Y-106168457D01*
G75*
G02*
X154210920Y-106539689I-185616J-185616D01*
G01*
G37*
G36*
G01*
X152973484Y-105302253D02*
X152602253Y-105673484D01*
G75*
G02*
X152231021Y-105673484I-185616J185616D01*
G01*
X151789080Y-105231543D01*
G75*
G02*
X151789080Y-104860311I185616J185616D01*
G01*
X152160311Y-104489080D01*
G75*
G02*
X152531543Y-104489080I185616J-185616D01*
G01*
X152973484Y-104931021D01*
G75*
G02*
X152973484Y-105302253I-185616J-185616D01*
G01*
G37*
%TD*%
D16*
%TO.C,D7*%
X136500000Y-102450000D03*
X136500000Y-98150000D03*
%TD*%
%TO.C,C3*%
G36*
G01*
X137950000Y-68662500D02*
X137950000Y-68137500D01*
G75*
G02*
X138212500Y-67875000I262500J0D01*
G01*
X138837500Y-67875000D01*
G75*
G02*
X139100000Y-68137500I0J-262500D01*
G01*
X139100000Y-68662500D01*
G75*
G02*
X138837500Y-68925000I-262500J0D01*
G01*
X138212500Y-68925000D01*
G75*
G02*
X137950000Y-68662500I0J262500D01*
G01*
G37*
G36*
G01*
X139700000Y-68662500D02*
X139700000Y-68137500D01*
G75*
G02*
X139962500Y-67875000I262500J0D01*
G01*
X140587500Y-67875000D01*
G75*
G02*
X140850000Y-68137500I0J-262500D01*
G01*
X140850000Y-68662500D01*
G75*
G02*
X140587500Y-68925000I-262500J0D01*
G01*
X139962500Y-68925000D01*
G75*
G02*
X139700000Y-68662500I0J262500D01*
G01*
G37*
%TD*%
D17*
%TO.C,D2*%
X132850000Y-72600000D03*
X130350000Y-72600000D03*
%TD*%
D18*
%TO.C,Q1*%
X123950000Y-65720000D03*
X123950000Y-63820000D03*
X126950000Y-64770000D03*
%TD*%
D19*
%TO.C,L2*%
X176200000Y-67665000D03*
X176200000Y-70535000D03*
%TD*%
D20*
%TO.C,U2*%
X170252200Y-67862000D03*
X170252200Y-67354000D03*
X170252200Y-66846000D03*
X170252200Y-66338000D03*
X173147800Y-66338000D03*
X173147800Y-66846000D03*
X173147800Y-67354000D03*
X173147800Y-67862000D03*
D21*
X171700000Y-67100000D03*
%TD*%
%TO.C,R1*%
G36*
G01*
X173150000Y-63737500D02*
X173150000Y-64262500D01*
G75*
G02*
X172887500Y-64525000I-262500J0D01*
G01*
X172262500Y-64525000D01*
G75*
G02*
X172000000Y-64262500I0J262500D01*
G01*
X172000000Y-63737500D01*
G75*
G02*
X172262500Y-63475000I262500J0D01*
G01*
X172887500Y-63475000D01*
G75*
G02*
X173150000Y-63737500I0J-262500D01*
G01*
G37*
G36*
G01*
X171400000Y-63737500D02*
X171400000Y-64262500D01*
G75*
G02*
X171137500Y-64525000I-262500J0D01*
G01*
X170512500Y-64525000D01*
G75*
G02*
X170250000Y-64262500I0J262500D01*
G01*
X170250000Y-63737500D01*
G75*
G02*
X170512500Y-63475000I262500J0D01*
G01*
X171137500Y-63475000D01*
G75*
G02*
X171400000Y-63737500I0J-262500D01*
G01*
G37*
%TD*%
%TO.C,C6*%
G36*
G01*
X171300000Y-69921738D02*
X171300000Y-70878262D01*
G75*
G02*
X171028262Y-71150000I-271738J0D01*
G01*
X170321738Y-71150000D01*
G75*
G02*
X170050000Y-70878262I0J271738D01*
G01*
X170050000Y-69921738D01*
G75*
G02*
X170321738Y-69650000I271738J0D01*
G01*
X171028262Y-69650000D01*
G75*
G02*
X171300000Y-69921738I0J-271738D01*
G01*
G37*
G36*
G01*
X173350000Y-69921738D02*
X173350000Y-70878262D01*
G75*
G02*
X173078262Y-71150000I-271738J0D01*
G01*
X172371738Y-71150000D01*
G75*
G02*
X172100000Y-70878262I0J271738D01*
G01*
X172100000Y-69921738D01*
G75*
G02*
X172371738Y-69650000I271738J0D01*
G01*
X173078262Y-69650000D01*
G75*
G02*
X173350000Y-69921738I0J-271738D01*
G01*
G37*
%TD*%
%TO.C,U5*%
G36*
G01*
X145105000Y-114330800D02*
X145105000Y-114669200D01*
G75*
G02*
X145094200Y-114680000I-10800J0D01*
G01*
X144045800Y-114680000D01*
G75*
G02*
X144035000Y-114669200I0J10800D01*
G01*
X144035000Y-114330800D01*
G75*
G02*
X144045800Y-114320000I10800J0D01*
G01*
X145094200Y-114320000D01*
G75*
G02*
X145105000Y-114330800I0J-10800D01*
G01*
G37*
G36*
G01*
X145105000Y-114830800D02*
X145105000Y-115169200D01*
G75*
G02*
X145094200Y-115180000I-10800J0D01*
G01*
X144045800Y-115180000D01*
G75*
G02*
X144035000Y-115169200I0J10800D01*
G01*
X144035000Y-114830800D01*
G75*
G02*
X144045800Y-114820000I10800J0D01*
G01*
X145094200Y-114820000D01*
G75*
G02*
X145105000Y-114830800I0J-10800D01*
G01*
G37*
G36*
G01*
X145105000Y-115330800D02*
X145105000Y-115669200D01*
G75*
G02*
X145094200Y-115680000I-10800J0D01*
G01*
X144045800Y-115680000D01*
G75*
G02*
X144035000Y-115669200I0J10800D01*
G01*
X144035000Y-115330800D01*
G75*
G02*
X144045800Y-115320000I10800J0D01*
G01*
X145094200Y-115320000D01*
G75*
G02*
X145105000Y-115330800I0J-10800D01*
G01*
G37*
G36*
G01*
X145105000Y-115830800D02*
X145105000Y-116169200D01*
G75*
G02*
X145094200Y-116180000I-10800J0D01*
G01*
X144045800Y-116180000D01*
G75*
G02*
X144035000Y-116169200I0J10800D01*
G01*
X144035000Y-115830800D01*
G75*
G02*
X144045800Y-115820000I10800J0D01*
G01*
X145094200Y-115820000D01*
G75*
G02*
X145105000Y-115830800I0J-10800D01*
G01*
G37*
G36*
G01*
X145105000Y-116330800D02*
X145105000Y-116669200D01*
G75*
G02*
X145094200Y-116680000I-10800J0D01*
G01*
X144045800Y-116680000D01*
G75*
G02*
X144035000Y-116669200I0J10800D01*
G01*
X144035000Y-116330800D01*
G75*
G02*
X144045800Y-116320000I10800J0D01*
G01*
X145094200Y-116320000D01*
G75*
G02*
X145105000Y-116330800I0J-10800D01*
G01*
G37*
G36*
G01*
X145105000Y-116830800D02*
X145105000Y-117169200D01*
G75*
G02*
X145094200Y-117180000I-10800J0D01*
G01*
X144045800Y-117180000D01*
G75*
G02*
X144035000Y-117169200I0J10800D01*
G01*
X144035000Y-116830800D01*
G75*
G02*
X144045800Y-116820000I10800J0D01*
G01*
X145094200Y-116820000D01*
G75*
G02*
X145105000Y-116830800I0J-10800D01*
G01*
G37*
G36*
G01*
X145105000Y-117330800D02*
X145105000Y-117669200D01*
G75*
G02*
X145094200Y-117680000I-10800J0D01*
G01*
X144045800Y-117680000D01*
G75*
G02*
X144035000Y-117669200I0J10800D01*
G01*
X144035000Y-117330800D01*
G75*
G02*
X144045800Y-117320000I10800J0D01*
G01*
X145094200Y-117320000D01*
G75*
G02*
X145105000Y-117330800I0J-10800D01*
G01*
G37*
G36*
G01*
X140365000Y-117330800D02*
X140365000Y-117669200D01*
G75*
G02*
X140354200Y-117680000I-10800J0D01*
G01*
X139305800Y-117680000D01*
G75*
G02*
X139295000Y-117669200I0J10800D01*
G01*
X139295000Y-117330800D01*
G75*
G02*
X139305800Y-117320000I10800J0D01*
G01*
X140354200Y-117320000D01*
G75*
G02*
X140365000Y-117330800I0J-10800D01*
G01*
G37*
G36*
G01*
X140365000Y-116830800D02*
X140365000Y-117169200D01*
G75*
G02*
X140354200Y-117180000I-10800J0D01*
G01*
X139305800Y-117180000D01*
G75*
G02*
X139295000Y-117169200I0J10800D01*
G01*
X139295000Y-116830800D01*
G75*
G02*
X139305800Y-116820000I10800J0D01*
G01*
X140354200Y-116820000D01*
G75*
G02*
X140365000Y-116830800I0J-10800D01*
G01*
G37*
G36*
G01*
X140365000Y-116330800D02*
X140365000Y-116669200D01*
G75*
G02*
X140354200Y-116680000I-10800J0D01*
G01*
X139305800Y-116680000D01*
G75*
G02*
X139295000Y-116669200I0J10800D01*
G01*
X139295000Y-116330800D01*
G75*
G02*
X139305800Y-116320000I10800J0D01*
G01*
X140354200Y-116320000D01*
G75*
G02*
X140365000Y-116330800I0J-10800D01*
G01*
G37*
G36*
G01*
X140365000Y-115830800D02*
X140365000Y-116169200D01*
G75*
G02*
X140354200Y-116180000I-10800J0D01*
G01*
X139305800Y-116180000D01*
G75*
G02*
X139295000Y-116169200I0J10800D01*
G01*
X139295000Y-115830800D01*
G75*
G02*
X139305800Y-115820000I10800J0D01*
G01*
X140354200Y-115820000D01*
G75*
G02*
X140365000Y-115830800I0J-10800D01*
G01*
G37*
G36*
G01*
X140365000Y-115330800D02*
X140365000Y-115669200D01*
G75*
G02*
X140354200Y-115680000I-10800J0D01*
G01*
X139305800Y-115680000D01*
G75*
G02*
X139295000Y-115669200I0J10800D01*
G01*
X139295000Y-115330800D01*
G75*
G02*
X139305800Y-115320000I10800J0D01*
G01*
X140354200Y-115320000D01*
G75*
G02*
X140365000Y-115330800I0J-10800D01*
G01*
G37*
G36*
G01*
X140365000Y-114830800D02*
X140365000Y-115169200D01*
G75*
G02*
X140354200Y-115180000I-10800J0D01*
G01*
X139305800Y-115180000D01*
G75*
G02*
X139295000Y-115169200I0J10800D01*
G01*
X139295000Y-114830800D01*
G75*
G02*
X139305800Y-114820000I10800J0D01*
G01*
X140354200Y-114820000D01*
G75*
G02*
X140365000Y-114830800I0J-10800D01*
G01*
G37*
G36*
G01*
X140365000Y-114330800D02*
X140365000Y-114669200D01*
G75*
G02*
X140354200Y-114680000I-10800J0D01*
G01*
X139305800Y-114680000D01*
G75*
G02*
X139295000Y-114669200I0J10800D01*
G01*
X139295000Y-114330800D01*
G75*
G02*
X139305800Y-114320000I10800J0D01*
G01*
X140354200Y-114320000D01*
G75*
G02*
X140365000Y-114330800I0J-10800D01*
G01*
G37*
G36*
G01*
X140530800Y-113095000D02*
X140869200Y-113095000D01*
G75*
G02*
X140880000Y-113105800I0J-10800D01*
G01*
X140880000Y-114154200D01*
G75*
G02*
X140869200Y-114165000I-10800J0D01*
G01*
X140530800Y-114165000D01*
G75*
G02*
X140520000Y-114154200I0J10800D01*
G01*
X140520000Y-113105800D01*
G75*
G02*
X140530800Y-113095000I10800J0D01*
G01*
G37*
G36*
G01*
X141030800Y-113095000D02*
X141369200Y-113095000D01*
G75*
G02*
X141380000Y-113105800I0J-10800D01*
G01*
X141380000Y-114154200D01*
G75*
G02*
X141369200Y-114165000I-10800J0D01*
G01*
X141030800Y-114165000D01*
G75*
G02*
X141020000Y-114154200I0J10800D01*
G01*
X141020000Y-113105800D01*
G75*
G02*
X141030800Y-113095000I10800J0D01*
G01*
G37*
G36*
G01*
X141530800Y-113095000D02*
X141869200Y-113095000D01*
G75*
G02*
X141880000Y-113105800I0J-10800D01*
G01*
X141880000Y-114154200D01*
G75*
G02*
X141869200Y-114165000I-10800J0D01*
G01*
X141530800Y-114165000D01*
G75*
G02*
X141520000Y-114154200I0J10800D01*
G01*
X141520000Y-113105800D01*
G75*
G02*
X141530800Y-113095000I10800J0D01*
G01*
G37*
G36*
G01*
X142030800Y-113095000D02*
X142369200Y-113095000D01*
G75*
G02*
X142380000Y-113105800I0J-10800D01*
G01*
X142380000Y-114154200D01*
G75*
G02*
X142369200Y-114165000I-10800J0D01*
G01*
X142030800Y-114165000D01*
G75*
G02*
X142020000Y-114154200I0J10800D01*
G01*
X142020000Y-113105800D01*
G75*
G02*
X142030800Y-113095000I10800J0D01*
G01*
G37*
G36*
G01*
X142530800Y-113095000D02*
X142869200Y-113095000D01*
G75*
G02*
X142880000Y-113105800I0J-10800D01*
G01*
X142880000Y-114154200D01*
G75*
G02*
X142869200Y-114165000I-10800J0D01*
G01*
X142530800Y-114165000D01*
G75*
G02*
X142520000Y-114154200I0J10800D01*
G01*
X142520000Y-113105800D01*
G75*
G02*
X142530800Y-113095000I10800J0D01*
G01*
G37*
G36*
G01*
X143030800Y-113095000D02*
X143369200Y-113095000D01*
G75*
G02*
X143380000Y-113105800I0J-10800D01*
G01*
X143380000Y-114154200D01*
G75*
G02*
X143369200Y-114165000I-10800J0D01*
G01*
X143030800Y-114165000D01*
G75*
G02*
X143020000Y-114154200I0J10800D01*
G01*
X143020000Y-113105800D01*
G75*
G02*
X143030800Y-113095000I10800J0D01*
G01*
G37*
G36*
G01*
X143530800Y-113095000D02*
X143869200Y-113095000D01*
G75*
G02*
X143880000Y-113105800I0J-10800D01*
G01*
X143880000Y-114154200D01*
G75*
G02*
X143869200Y-114165000I-10800J0D01*
G01*
X143530800Y-114165000D01*
G75*
G02*
X143520000Y-114154200I0J10800D01*
G01*
X143520000Y-113105800D01*
G75*
G02*
X143530800Y-113095000I10800J0D01*
G01*
G37*
G36*
G01*
X143530800Y-117835000D02*
X143869200Y-117835000D01*
G75*
G02*
X143880000Y-117845800I0J-10800D01*
G01*
X143880000Y-118894200D01*
G75*
G02*
X143869200Y-118905000I-10800J0D01*
G01*
X143530800Y-118905000D01*
G75*
G02*
X143520000Y-118894200I0J10800D01*
G01*
X143520000Y-117845800D01*
G75*
G02*
X143530800Y-117835000I10800J0D01*
G01*
G37*
G36*
G01*
X143030800Y-117835000D02*
X143369200Y-117835000D01*
G75*
G02*
X143380000Y-117845800I0J-10800D01*
G01*
X143380000Y-118894200D01*
G75*
G02*
X143369200Y-118905000I-10800J0D01*
G01*
X143030800Y-118905000D01*
G75*
G02*
X143020000Y-118894200I0J10800D01*
G01*
X143020000Y-117845800D01*
G75*
G02*
X143030800Y-117835000I10800J0D01*
G01*
G37*
G36*
G01*
X142530800Y-117835000D02*
X142869200Y-117835000D01*
G75*
G02*
X142880000Y-117845800I0J-10800D01*
G01*
X142880000Y-118894200D01*
G75*
G02*
X142869200Y-118905000I-10800J0D01*
G01*
X142530800Y-118905000D01*
G75*
G02*
X142520000Y-118894200I0J10800D01*
G01*
X142520000Y-117845800D01*
G75*
G02*
X142530800Y-117835000I10800J0D01*
G01*
G37*
G36*
G01*
X142030800Y-117835000D02*
X142369200Y-117835000D01*
G75*
G02*
X142380000Y-117845800I0J-10800D01*
G01*
X142380000Y-118894200D01*
G75*
G02*
X142369200Y-118905000I-10800J0D01*
G01*
X142030800Y-118905000D01*
G75*
G02*
X142020000Y-118894200I0J10800D01*
G01*
X142020000Y-117845800D01*
G75*
G02*
X142030800Y-117835000I10800J0D01*
G01*
G37*
G36*
G01*
X141530800Y-117835000D02*
X141869200Y-117835000D01*
G75*
G02*
X141880000Y-117845800I0J-10800D01*
G01*
X141880000Y-118894200D01*
G75*
G02*
X141869200Y-118905000I-10800J0D01*
G01*
X141530800Y-118905000D01*
G75*
G02*
X141520000Y-118894200I0J10800D01*
G01*
X141520000Y-117845800D01*
G75*
G02*
X141530800Y-117835000I10800J0D01*
G01*
G37*
G36*
G01*
X141030800Y-117835000D02*
X141369200Y-117835000D01*
G75*
G02*
X141380000Y-117845800I0J-10800D01*
G01*
X141380000Y-118894200D01*
G75*
G02*
X141369200Y-118905000I-10800J0D01*
G01*
X141030800Y-118905000D01*
G75*
G02*
X141020000Y-118894200I0J10800D01*
G01*
X141020000Y-117845800D01*
G75*
G02*
X141030800Y-117835000I10800J0D01*
G01*
G37*
G36*
G01*
X140530800Y-117835000D02*
X140869200Y-117835000D01*
G75*
G02*
X140880000Y-117845800I0J-10800D01*
G01*
X140880000Y-118894200D01*
G75*
G02*
X140869200Y-118905000I-10800J0D01*
G01*
X140530800Y-118905000D01*
G75*
G02*
X140520000Y-118894200I0J10800D01*
G01*
X140520000Y-117845800D01*
G75*
G02*
X140530800Y-117835000I10800J0D01*
G01*
G37*
D22*
X142200000Y-116000000D03*
%TD*%
%TO.C,U3*%
G36*
G01*
X157796620Y-117324186D02*
X157550688Y-117078254D01*
G75*
G02*
X157550688Y-117062556I7849J7849D01*
G01*
X158949204Y-115664040D01*
G75*
G02*
X158964902Y-115664040I7849J-7849D01*
G01*
X159210834Y-115909972D01*
G75*
G02*
X159210834Y-115925670I-7849J-7849D01*
G01*
X157812318Y-117324186D01*
G75*
G02*
X157796620Y-117324186I-7849J7849D01*
G01*
G37*
G36*
G01*
X157443067Y-116970632D02*
X157197135Y-116724700D01*
G75*
G02*
X157197135Y-116709002I7849J7849D01*
G01*
X158666361Y-115239776D01*
G75*
G02*
X158682059Y-115239776I7849J-7849D01*
G01*
X158927991Y-115485708D01*
G75*
G02*
X158927991Y-115501406I-7849J-7849D01*
G01*
X157458765Y-116970632D01*
G75*
G02*
X157443067Y-116970632I-7849J7849D01*
G01*
G37*
G36*
G01*
X157089514Y-116617078D02*
X156843582Y-116371146D01*
G75*
G02*
X156843582Y-116355448I7849J7849D01*
G01*
X158312808Y-114886222D01*
G75*
G02*
X158328506Y-114886222I7849J-7849D01*
G01*
X158574438Y-115132154D01*
G75*
G02*
X158574438Y-115147852I-7849J-7849D01*
G01*
X157105212Y-116617078D01*
G75*
G02*
X157089514Y-116617078I-7849J7849D01*
G01*
G37*
G36*
G01*
X156735960Y-116263525D02*
X156490028Y-116017593D01*
G75*
G02*
X156490028Y-116001895I7849J7849D01*
G01*
X157959254Y-114532669D01*
G75*
G02*
X157974952Y-114532669I7849J-7849D01*
G01*
X158220884Y-114778601D01*
G75*
G02*
X158220884Y-114794299I-7849J-7849D01*
G01*
X156751658Y-116263525D01*
G75*
G02*
X156735960Y-116263525I-7849J7849D01*
G01*
G37*
G36*
G01*
X156382407Y-115909972D02*
X156136475Y-115664040D01*
G75*
G02*
X156136475Y-115648342I7849J7849D01*
G01*
X157605701Y-114179116D01*
G75*
G02*
X157621399Y-114179116I7849J-7849D01*
G01*
X157867331Y-114425048D01*
G75*
G02*
X157867331Y-114440746I-7849J-7849D01*
G01*
X156398105Y-115909972D01*
G75*
G02*
X156382407Y-115909972I-7849J7849D01*
G01*
G37*
G36*
G01*
X156028854Y-115556418D02*
X155782922Y-115310486D01*
G75*
G02*
X155782922Y-115294788I7849J7849D01*
G01*
X157252148Y-113825562D01*
G75*
G02*
X157267846Y-113825562I7849J-7849D01*
G01*
X157513778Y-114071494D01*
G75*
G02*
X157513778Y-114087192I-7849J-7849D01*
G01*
X156044552Y-115556418D01*
G75*
G02*
X156028854Y-115556418I-7849J7849D01*
G01*
G37*
G36*
G01*
X155675300Y-115202865D02*
X155429368Y-114956933D01*
G75*
G02*
X155429368Y-114941235I7849J7849D01*
G01*
X156898594Y-113472009D01*
G75*
G02*
X156914292Y-113472009I7849J-7849D01*
G01*
X157160224Y-113717941D01*
G75*
G02*
X157160224Y-113733639I-7849J-7849D01*
G01*
X155690998Y-115202865D01*
G75*
G02*
X155675300Y-115202865I-7849J7849D01*
G01*
G37*
G36*
G01*
X155321746Y-114849312D02*
X155075814Y-114603380D01*
G75*
G02*
X155075814Y-114587682I7849J7849D01*
G01*
X156474330Y-113189166D01*
G75*
G02*
X156490028Y-113189166I7849J-7849D01*
G01*
X156735960Y-113435098D01*
G75*
G02*
X156735960Y-113450796I-7849J-7849D01*
G01*
X155337444Y-114849312D01*
G75*
G02*
X155321746Y-114849312I-7849J7849D01*
G01*
G37*
G36*
G01*
X159635098Y-110535960D02*
X159389166Y-110290028D01*
G75*
G02*
X159389166Y-110274330I7849J7849D01*
G01*
X160787682Y-108875814D01*
G75*
G02*
X160803380Y-108875814I7849J-7849D01*
G01*
X161049312Y-109121746D01*
G75*
G02*
X161049312Y-109137444I-7849J-7849D01*
G01*
X159650796Y-110535960D01*
G75*
G02*
X159635098Y-110535960I-7849J7849D01*
G01*
G37*
G36*
G01*
X159917941Y-110960224D02*
X159672009Y-110714292D01*
G75*
G02*
X159672009Y-110698594I7849J7849D01*
G01*
X161141235Y-109229368D01*
G75*
G02*
X161156933Y-109229368I7849J-7849D01*
G01*
X161402865Y-109475300D01*
G75*
G02*
X161402865Y-109490998I-7849J-7849D01*
G01*
X159933639Y-110960224D01*
G75*
G02*
X159917941Y-110960224I-7849J7849D01*
G01*
G37*
G36*
G01*
X160271494Y-111313778D02*
X160025562Y-111067846D01*
G75*
G02*
X160025562Y-111052148I7849J7849D01*
G01*
X161494788Y-109582922D01*
G75*
G02*
X161510486Y-109582922I7849J-7849D01*
G01*
X161756418Y-109828854D01*
G75*
G02*
X161756418Y-109844552I-7849J-7849D01*
G01*
X160287192Y-111313778D01*
G75*
G02*
X160271494Y-111313778I-7849J7849D01*
G01*
G37*
G36*
G01*
X160625048Y-111667331D02*
X160379116Y-111421399D01*
G75*
G02*
X160379116Y-111405701I7849J7849D01*
G01*
X161848342Y-109936475D01*
G75*
G02*
X161864040Y-109936475I7849J-7849D01*
G01*
X162109972Y-110182407D01*
G75*
G02*
X162109972Y-110198105I-7849J-7849D01*
G01*
X160640746Y-111667331D01*
G75*
G02*
X160625048Y-111667331I-7849J7849D01*
G01*
G37*
G36*
G01*
X160978601Y-112020884D02*
X160732669Y-111774952D01*
G75*
G02*
X160732669Y-111759254I7849J7849D01*
G01*
X162201895Y-110290028D01*
G75*
G02*
X162217593Y-110290028I7849J-7849D01*
G01*
X162463525Y-110535960D01*
G75*
G02*
X162463525Y-110551658I-7849J-7849D01*
G01*
X160994299Y-112020884D01*
G75*
G02*
X160978601Y-112020884I-7849J7849D01*
G01*
G37*
G36*
G01*
X161332154Y-112374438D02*
X161086222Y-112128506D01*
G75*
G02*
X161086222Y-112112808I7849J7849D01*
G01*
X162555448Y-110643582D01*
G75*
G02*
X162571146Y-110643582I7849J-7849D01*
G01*
X162817078Y-110889514D01*
G75*
G02*
X162817078Y-110905212I-7849J-7849D01*
G01*
X161347852Y-112374438D01*
G75*
G02*
X161332154Y-112374438I-7849J7849D01*
G01*
G37*
G36*
G01*
X161685708Y-112727991D02*
X161439776Y-112482059D01*
G75*
G02*
X161439776Y-112466361I7849J7849D01*
G01*
X162909002Y-110997135D01*
G75*
G02*
X162924700Y-110997135I7849J-7849D01*
G01*
X163170632Y-111243067D01*
G75*
G02*
X163170632Y-111258765I-7849J-7849D01*
G01*
X161701406Y-112727991D01*
G75*
G02*
X161685708Y-112727991I-7849J7849D01*
G01*
G37*
G36*
G01*
X162109972Y-113010834D02*
X161864040Y-112764902D01*
G75*
G02*
X161864040Y-112749204I7849J7849D01*
G01*
X163262556Y-111350688D01*
G75*
G02*
X163278254Y-111350688I7849J-7849D01*
G01*
X163524186Y-111596620D01*
G75*
G02*
X163524186Y-111612318I-7849J-7849D01*
G01*
X162125670Y-113010834D01*
G75*
G02*
X162109972Y-113010834I-7849J7849D01*
G01*
G37*
G36*
G01*
X163524186Y-114603380D02*
X163278254Y-114849312D01*
G75*
G02*
X163262556Y-114849312I-7849J7849D01*
G01*
X161864040Y-113450796D01*
G75*
G02*
X161864040Y-113435098I7849J7849D01*
G01*
X162109972Y-113189166D01*
G75*
G02*
X162125670Y-113189166I7849J-7849D01*
G01*
X163524186Y-114587682D01*
G75*
G02*
X163524186Y-114603380I-7849J-7849D01*
G01*
G37*
G36*
G01*
X163170632Y-114956933D02*
X162924700Y-115202865D01*
G75*
G02*
X162909002Y-115202865I-7849J7849D01*
G01*
X161439776Y-113733639D01*
G75*
G02*
X161439776Y-113717941I7849J7849D01*
G01*
X161685708Y-113472009D01*
G75*
G02*
X161701406Y-113472009I7849J-7849D01*
G01*
X163170632Y-114941235D01*
G75*
G02*
X163170632Y-114956933I-7849J-7849D01*
G01*
G37*
G36*
G01*
X162817078Y-115310486D02*
X162571146Y-115556418D01*
G75*
G02*
X162555448Y-115556418I-7849J7849D01*
G01*
X161086222Y-114087192D01*
G75*
G02*
X161086222Y-114071494I7849J7849D01*
G01*
X161332154Y-113825562D01*
G75*
G02*
X161347852Y-113825562I7849J-7849D01*
G01*
X162817078Y-115294788D01*
G75*
G02*
X162817078Y-115310486I-7849J-7849D01*
G01*
G37*
G36*
G01*
X162463525Y-115664040D02*
X162217593Y-115909972D01*
G75*
G02*
X162201895Y-115909972I-7849J7849D01*
G01*
X160732669Y-114440746D01*
G75*
G02*
X160732669Y-114425048I7849J7849D01*
G01*
X160978601Y-114179116D01*
G75*
G02*
X160994299Y-114179116I7849J-7849D01*
G01*
X162463525Y-115648342D01*
G75*
G02*
X162463525Y-115664040I-7849J-7849D01*
G01*
G37*
G36*
G01*
X162109972Y-116017593D02*
X161864040Y-116263525D01*
G75*
G02*
X161848342Y-116263525I-7849J7849D01*
G01*
X160379116Y-114794299D01*
G75*
G02*
X160379116Y-114778601I7849J7849D01*
G01*
X160625048Y-114532669D01*
G75*
G02*
X160640746Y-114532669I7849J-7849D01*
G01*
X162109972Y-116001895D01*
G75*
G02*
X162109972Y-116017593I-7849J-7849D01*
G01*
G37*
G36*
G01*
X161756418Y-116371146D02*
X161510486Y-116617078D01*
G75*
G02*
X161494788Y-116617078I-7849J7849D01*
G01*
X160025562Y-115147852D01*
G75*
G02*
X160025562Y-115132154I7849J7849D01*
G01*
X160271494Y-114886222D01*
G75*
G02*
X160287192Y-114886222I7849J-7849D01*
G01*
X161756418Y-116355448D01*
G75*
G02*
X161756418Y-116371146I-7849J-7849D01*
G01*
G37*
G36*
G01*
X161402865Y-116724700D02*
X161156933Y-116970632D01*
G75*
G02*
X161141235Y-116970632I-7849J7849D01*
G01*
X159672009Y-115501406D01*
G75*
G02*
X159672009Y-115485708I7849J7849D01*
G01*
X159917941Y-115239776D01*
G75*
G02*
X159933639Y-115239776I7849J-7849D01*
G01*
X161402865Y-116709002D01*
G75*
G02*
X161402865Y-116724700I-7849J-7849D01*
G01*
G37*
G36*
G01*
X161049312Y-117078254D02*
X160803380Y-117324186D01*
G75*
G02*
X160787682Y-117324186I-7849J7849D01*
G01*
X159389166Y-115925670D01*
G75*
G02*
X159389166Y-115909972I7849J7849D01*
G01*
X159635098Y-115664040D01*
G75*
G02*
X159650796Y-115664040I7849J-7849D01*
G01*
X161049312Y-117062556D01*
G75*
G02*
X161049312Y-117078254I-7849J-7849D01*
G01*
G37*
G36*
G01*
X156735960Y-112764902D02*
X156490028Y-113010834D01*
G75*
G02*
X156474330Y-113010834I-7849J7849D01*
G01*
X155075814Y-111612318D01*
G75*
G02*
X155075814Y-111596620I7849J7849D01*
G01*
X155321746Y-111350688D01*
G75*
G02*
X155337444Y-111350688I7849J-7849D01*
G01*
X156735960Y-112749204D01*
G75*
G02*
X156735960Y-112764902I-7849J-7849D01*
G01*
G37*
G36*
G01*
X157160224Y-112482059D02*
X156914292Y-112727991D01*
G75*
G02*
X156898594Y-112727991I-7849J7849D01*
G01*
X155429368Y-111258765D01*
G75*
G02*
X155429368Y-111243067I7849J7849D01*
G01*
X155675300Y-110997135D01*
G75*
G02*
X155690998Y-110997135I7849J-7849D01*
G01*
X157160224Y-112466361D01*
G75*
G02*
X157160224Y-112482059I-7849J-7849D01*
G01*
G37*
G36*
G01*
X157513778Y-112128506D02*
X157267846Y-112374438D01*
G75*
G02*
X157252148Y-112374438I-7849J7849D01*
G01*
X155782922Y-110905212D01*
G75*
G02*
X155782922Y-110889514I7849J7849D01*
G01*
X156028854Y-110643582D01*
G75*
G02*
X156044552Y-110643582I7849J-7849D01*
G01*
X157513778Y-112112808D01*
G75*
G02*
X157513778Y-112128506I-7849J-7849D01*
G01*
G37*
G36*
G01*
X157867331Y-111774952D02*
X157621399Y-112020884D01*
G75*
G02*
X157605701Y-112020884I-7849J7849D01*
G01*
X156136475Y-110551658D01*
G75*
G02*
X156136475Y-110535960I7849J7849D01*
G01*
X156382407Y-110290028D01*
G75*
G02*
X156398105Y-110290028I7849J-7849D01*
G01*
X157867331Y-111759254D01*
G75*
G02*
X157867331Y-111774952I-7849J-7849D01*
G01*
G37*
G36*
G01*
X158220884Y-111421399D02*
X157974952Y-111667331D01*
G75*
G02*
X157959254Y-111667331I-7849J7849D01*
G01*
X156490028Y-110198105D01*
G75*
G02*
X156490028Y-110182407I7849J7849D01*
G01*
X156735960Y-109936475D01*
G75*
G02*
X156751658Y-109936475I7849J-7849D01*
G01*
X158220884Y-111405701D01*
G75*
G02*
X158220884Y-111421399I-7849J-7849D01*
G01*
G37*
G36*
G01*
X158574438Y-111067846D02*
X158328506Y-111313778D01*
G75*
G02*
X158312808Y-111313778I-7849J7849D01*
G01*
X156843582Y-109844552D01*
G75*
G02*
X156843582Y-109828854I7849J7849D01*
G01*
X157089514Y-109582922D01*
G75*
G02*
X157105212Y-109582922I7849J-7849D01*
G01*
X158574438Y-111052148D01*
G75*
G02*
X158574438Y-111067846I-7849J-7849D01*
G01*
G37*
G36*
G01*
X158927991Y-110714292D02*
X158682059Y-110960224D01*
G75*
G02*
X158666361Y-110960224I-7849J7849D01*
G01*
X157197135Y-109490998D01*
G75*
G02*
X157197135Y-109475300I7849J7849D01*
G01*
X157443067Y-109229368D01*
G75*
G02*
X157458765Y-109229368I7849J-7849D01*
G01*
X158927991Y-110698594D01*
G75*
G02*
X158927991Y-110714292I-7849J-7849D01*
G01*
G37*
G36*
G01*
X159210834Y-110290028D02*
X158964902Y-110535960D01*
G75*
G02*
X158949204Y-110535960I-7849J7849D01*
G01*
X157550688Y-109137444D01*
G75*
G02*
X157550688Y-109121746I7849J7849D01*
G01*
X157796620Y-108875814D01*
G75*
G02*
X157812318Y-108875814I7849J-7849D01*
G01*
X159210834Y-110274330D01*
G75*
G02*
X159210834Y-110290028I-7849J-7849D01*
G01*
G37*
D23*
G36*
X161562742Y-113100000D02*
G01*
X159300000Y-115362742D01*
X157037258Y-113100000D01*
X159300000Y-110837258D01*
X161562742Y-113100000D01*
G37*
%TD*%
D24*
%TO.C,J1*%
X150425000Y-93620000D03*
D25*
X156995000Y-97800000D03*
X143855000Y-97800000D03*
D26*
X153925000Y-98400000D03*
X151425000Y-98400000D03*
X149425000Y-98400000D03*
D27*
X146925000Y-98400000D03*
%TD*%
D14*
%TO.C,J5*%
X139335000Y-80485000D03*
D15*
X139335000Y-83025000D03*
X141875000Y-80485000D03*
X141875000Y-83025000D03*
X144415000Y-80485000D03*
X144415000Y-83025000D03*
X146955000Y-80485000D03*
X146955000Y-83025000D03*
X149495000Y-80485000D03*
X149495000Y-83025000D03*
X152035000Y-80485000D03*
X152035000Y-83025000D03*
X154575000Y-80485000D03*
X154575000Y-83025000D03*
%TD*%
D28*
%TO.C,J3*%
X144900000Y-105425000D03*
X139300000Y-105425000D03*
D29*
X142100000Y-103275000D03*
%TD*%
D30*
%TO.C,BT1*%
X124400000Y-132710000D03*
X124400000Y-60490000D03*
D31*
X132270000Y-124330000D03*
X116530000Y-69130000D03*
D32*
X116530000Y-132710000D03*
%TD*%
%TO.C,C1*%
G36*
G01*
X127642544Y-69050000D02*
X128957456Y-69050000D01*
G75*
G02*
X129225000Y-69317544I0J-267544D01*
G01*
X129225000Y-70307456D01*
G75*
G02*
X128957456Y-70575000I-267544J0D01*
G01*
X127642544Y-70575000D01*
G75*
G02*
X127375000Y-70307456I0J267544D01*
G01*
X127375000Y-69317544D01*
G75*
G02*
X127642544Y-69050000I267544J0D01*
G01*
G37*
G36*
G01*
X127642544Y-72025000D02*
X128957456Y-72025000D01*
G75*
G02*
X129225000Y-72292544I0J-267544D01*
G01*
X129225000Y-73282456D01*
G75*
G02*
X128957456Y-73550000I-267544J0D01*
G01*
X127642544Y-73550000D01*
G75*
G02*
X127375000Y-73282456I0J267544D01*
G01*
X127375000Y-72292544D01*
G75*
G02*
X127642544Y-72025000I267544J0D01*
G01*
G37*
%TD*%
%TO.C,C2*%
G36*
G01*
X167921738Y-68600000D02*
X168878262Y-68600000D01*
G75*
G02*
X169150000Y-68871738I0J-271738D01*
G01*
X169150000Y-69578262D01*
G75*
G02*
X168878262Y-69850000I-271738J0D01*
G01*
X167921738Y-69850000D01*
G75*
G02*
X167650000Y-69578262I0J271738D01*
G01*
X167650000Y-68871738D01*
G75*
G02*
X167921738Y-68600000I271738J0D01*
G01*
G37*
G36*
G01*
X167921738Y-66550000D02*
X168878262Y-66550000D01*
G75*
G02*
X169150000Y-66821738I0J-271738D01*
G01*
X169150000Y-67528262D01*
G75*
G02*
X168878262Y-67800000I-271738J0D01*
G01*
X167921738Y-67800000D01*
G75*
G02*
X167650000Y-67528262I0J271738D01*
G01*
X167650000Y-66821738D01*
G75*
G02*
X167921738Y-66550000I271738J0D01*
G01*
G37*
%TD*%
%TO.C,C4*%
G36*
G01*
X131150000Y-75278262D02*
X131150000Y-74321738D01*
G75*
G02*
X131421738Y-74050000I271738J0D01*
G01*
X132128262Y-74050000D01*
G75*
G02*
X132400000Y-74321738I0J-271738D01*
G01*
X132400000Y-75278262D01*
G75*
G02*
X132128262Y-75550000I-271738J0D01*
G01*
X131421738Y-75550000D01*
G75*
G02*
X131150000Y-75278262I0J271738D01*
G01*
G37*
G36*
G01*
X133200000Y-75278262D02*
X133200000Y-74321738D01*
G75*
G02*
X133471738Y-74050000I271738J0D01*
G01*
X134178262Y-74050000D01*
G75*
G02*
X134450000Y-74321738I0J-271738D01*
G01*
X134450000Y-75278262D01*
G75*
G02*
X134178262Y-75550000I-271738J0D01*
G01*
X133471738Y-75550000D01*
G75*
G02*
X133200000Y-75278262I0J271738D01*
G01*
G37*
%TD*%
%TO.C,C5*%
G36*
G01*
X131750000Y-90357456D02*
X131750000Y-89042544D01*
G75*
G02*
X132017544Y-88775000I267544J0D01*
G01*
X133007456Y-88775000D01*
G75*
G02*
X133275000Y-89042544I0J-267544D01*
G01*
X133275000Y-90357456D01*
G75*
G02*
X133007456Y-90625000I-267544J0D01*
G01*
X132017544Y-90625000D01*
G75*
G02*
X131750000Y-90357456I0J267544D01*
G01*
G37*
G36*
G01*
X134725000Y-90357456D02*
X134725000Y-89042544D01*
G75*
G02*
X134992544Y-88775000I267544J0D01*
G01*
X135982456Y-88775000D01*
G75*
G02*
X136250000Y-89042544I0J-267544D01*
G01*
X136250000Y-90357456D01*
G75*
G02*
X135982456Y-90625000I-267544J0D01*
G01*
X134992544Y-90625000D01*
G75*
G02*
X134725000Y-90357456I0J267544D01*
G01*
G37*
%TD*%
%TO.C,C9*%
G36*
G01*
X128062500Y-126150000D02*
X127537500Y-126150000D01*
G75*
G02*
X127275000Y-125887500I0J262500D01*
G01*
X127275000Y-125262500D01*
G75*
G02*
X127537500Y-125000000I262500J0D01*
G01*
X128062500Y-125000000D01*
G75*
G02*
X128325000Y-125262500I0J-262500D01*
G01*
X128325000Y-125887500D01*
G75*
G02*
X128062500Y-126150000I-262500J0D01*
G01*
G37*
G36*
G01*
X128062500Y-124400000D02*
X127537500Y-124400000D01*
G75*
G02*
X127275000Y-124137500I0J262500D01*
G01*
X127275000Y-123512500D01*
G75*
G02*
X127537500Y-123250000I262500J0D01*
G01*
X128062500Y-123250000D01*
G75*
G02*
X128325000Y-123512500I0J-262500D01*
G01*
X128325000Y-124137500D01*
G75*
G02*
X128062500Y-124400000I-262500J0D01*
G01*
G37*
%TD*%
%TO.C,C10*%
G36*
G01*
X127537500Y-126750000D02*
X128062500Y-126750000D01*
G75*
G02*
X128325000Y-127012500I0J-262500D01*
G01*
X128325000Y-127637500D01*
G75*
G02*
X128062500Y-127900000I-262500J0D01*
G01*
X127537500Y-127900000D01*
G75*
G02*
X127275000Y-127637500I0J262500D01*
G01*
X127275000Y-127012500D01*
G75*
G02*
X127537500Y-126750000I262500J0D01*
G01*
G37*
G36*
G01*
X127537500Y-128500000D02*
X128062500Y-128500000D01*
G75*
G02*
X128325000Y-128762500I0J-262500D01*
G01*
X128325000Y-129387500D01*
G75*
G02*
X128062500Y-129650000I-262500J0D01*
G01*
X127537500Y-129650000D01*
G75*
G02*
X127275000Y-129387500I0J262500D01*
G01*
X127275000Y-128762500D01*
G75*
G02*
X127537500Y-128500000I262500J0D01*
G01*
G37*
%TD*%
%TO.C,D1*%
G36*
G01*
X134950000Y-74561487D02*
X134950000Y-71238513D01*
G75*
G02*
X135213513Y-70975000I263513J0D01*
G01*
X136636487Y-70975000D01*
G75*
G02*
X136900000Y-71238513I0J-263513D01*
G01*
X136900000Y-74561487D01*
G75*
G02*
X136636487Y-74825000I-263513J0D01*
G01*
X135213513Y-74825000D01*
G75*
G02*
X134950000Y-74561487I0J263513D01*
G01*
G37*
G36*
G01*
X139500000Y-74561487D02*
X139500000Y-71238513D01*
G75*
G02*
X139763513Y-70975000I263513J0D01*
G01*
X141186487Y-70975000D01*
G75*
G02*
X141450000Y-71238513I0J-263513D01*
G01*
X141450000Y-74561487D01*
G75*
G02*
X141186487Y-74825000I-263513J0D01*
G01*
X139763513Y-74825000D01*
G75*
G02*
X139500000Y-74561487I0J263513D01*
G01*
G37*
%TD*%
D33*
%TO.C,D3*%
X116400000Y-123900000D03*
X116400000Y-129300000D03*
%TD*%
%TO.C,F1*%
G36*
G01*
X119050000Y-124608125D02*
X119050000Y-122391875D01*
G75*
G02*
X119316875Y-122125000I266875J0D01*
G01*
X120308125Y-122125000D01*
G75*
G02*
X120575000Y-122391875I0J-266875D01*
G01*
X120575000Y-124608125D01*
G75*
G02*
X120308125Y-124875000I-266875J0D01*
G01*
X119316875Y-124875000D01*
G75*
G02*
X119050000Y-124608125I0J266875D01*
G01*
G37*
G36*
G01*
X122025000Y-124608125D02*
X122025000Y-122391875D01*
G75*
G02*
X122291875Y-122125000I266875J0D01*
G01*
X123283125Y-122125000D01*
G75*
G02*
X123550000Y-122391875I0J-266875D01*
G01*
X123550000Y-124608125D01*
G75*
G02*
X123283125Y-124875000I-266875J0D01*
G01*
X122291875Y-124875000D01*
G75*
G02*
X122025000Y-124608125I0J266875D01*
G01*
G37*
%TD*%
D34*
%TO.C,Q6*%
X160300000Y-137390000D03*
X160300000Y-135490000D03*
X162300000Y-136440000D03*
%TD*%
%TO.C,Q8*%
X174150000Y-137700000D03*
X174150000Y-135800000D03*
X176150000Y-136750000D03*
%TD*%
%TO.C,Q7*%
X167175000Y-137700000D03*
X167175000Y-135800000D03*
X169175000Y-136750000D03*
%TD*%
D35*
%TO.C,Q9*%
X132950000Y-108425000D03*
X131050000Y-108425000D03*
X132000000Y-106425000D03*
%TD*%
D34*
%TO.C,Q10*%
X160825000Y-120175000D03*
X160825000Y-118275000D03*
X162825000Y-119225000D03*
%TD*%
%TO.C,R7*%
G36*
G01*
X129662500Y-126150000D02*
X129137500Y-126150000D01*
G75*
G02*
X128875000Y-125887500I0J262500D01*
G01*
X128875000Y-125262500D01*
G75*
G02*
X129137500Y-125000000I262500J0D01*
G01*
X129662500Y-125000000D01*
G75*
G02*
X129925000Y-125262500I0J-262500D01*
G01*
X129925000Y-125887500D01*
G75*
G02*
X129662500Y-126150000I-262500J0D01*
G01*
G37*
G36*
G01*
X129662500Y-124400000D02*
X129137500Y-124400000D01*
G75*
G02*
X128875000Y-124137500I0J262500D01*
G01*
X128875000Y-123512500D01*
G75*
G02*
X129137500Y-123250000I262500J0D01*
G01*
X129662500Y-123250000D01*
G75*
G02*
X129925000Y-123512500I0J-262500D01*
G01*
X129925000Y-124137500D01*
G75*
G02*
X129662500Y-124400000I-262500J0D01*
G01*
G37*
%TD*%
%TO.C,R8*%
G36*
G01*
X129662500Y-129650000D02*
X129137500Y-129650000D01*
G75*
G02*
X128875000Y-129387500I0J262500D01*
G01*
X128875000Y-128762500D01*
G75*
G02*
X129137500Y-128500000I262500J0D01*
G01*
X129662500Y-128500000D01*
G75*
G02*
X129925000Y-128762500I0J-262500D01*
G01*
X129925000Y-129387500D01*
G75*
G02*
X129662500Y-129650000I-262500J0D01*
G01*
G37*
G36*
G01*
X129662500Y-127900000D02*
X129137500Y-127900000D01*
G75*
G02*
X128875000Y-127637500I0J262500D01*
G01*
X128875000Y-127012500D01*
G75*
G02*
X129137500Y-126750000I262500J0D01*
G01*
X129662500Y-126750000D01*
G75*
G02*
X129925000Y-127012500I0J-262500D01*
G01*
X129925000Y-127637500D01*
G75*
G02*
X129662500Y-127900000I-262500J0D01*
G01*
G37*
%TD*%
%TO.C,R10*%
G36*
G01*
X119537500Y-125850000D02*
X120062500Y-125850000D01*
G75*
G02*
X120325000Y-126112500I0J-262500D01*
G01*
X120325000Y-126737500D01*
G75*
G02*
X120062500Y-127000000I-262500J0D01*
G01*
X119537500Y-127000000D01*
G75*
G02*
X119275000Y-126737500I0J262500D01*
G01*
X119275000Y-126112500D01*
G75*
G02*
X119537500Y-125850000I262500J0D01*
G01*
G37*
G36*
G01*
X119537500Y-127600000D02*
X120062500Y-127600000D01*
G75*
G02*
X120325000Y-127862500I0J-262500D01*
G01*
X120325000Y-128487500D01*
G75*
G02*
X120062500Y-128750000I-262500J0D01*
G01*
X119537500Y-128750000D01*
G75*
G02*
X119275000Y-128487500I0J262500D01*
G01*
X119275000Y-127862500D01*
G75*
G02*
X119537500Y-127600000I262500J0D01*
G01*
G37*
%TD*%
%TO.C,R16*%
G36*
G01*
X130825000Y-117962500D02*
X130825000Y-117437500D01*
G75*
G02*
X131087500Y-117175000I262500J0D01*
G01*
X131712500Y-117175000D01*
G75*
G02*
X131975000Y-117437500I0J-262500D01*
G01*
X131975000Y-117962500D01*
G75*
G02*
X131712500Y-118225000I-262500J0D01*
G01*
X131087500Y-118225000D01*
G75*
G02*
X130825000Y-117962500I0J262500D01*
G01*
G37*
G36*
G01*
X132575000Y-117962500D02*
X132575000Y-117437500D01*
G75*
G02*
X132837500Y-117175000I262500J0D01*
G01*
X133462500Y-117175000D01*
G75*
G02*
X133725000Y-117437500I0J-262500D01*
G01*
X133725000Y-117962500D01*
G75*
G02*
X133462500Y-118225000I-262500J0D01*
G01*
X132837500Y-118225000D01*
G75*
G02*
X132575000Y-117962500I0J262500D01*
G01*
G37*
%TD*%
%TO.C,R18*%
G36*
G01*
X131662500Y-121900000D02*
X131137500Y-121900000D01*
G75*
G02*
X130875000Y-121637500I0J262500D01*
G01*
X130875000Y-121012500D01*
G75*
G02*
X131137500Y-120750000I262500J0D01*
G01*
X131662500Y-120750000D01*
G75*
G02*
X131925000Y-121012500I0J-262500D01*
G01*
X131925000Y-121637500D01*
G75*
G02*
X131662500Y-121900000I-262500J0D01*
G01*
G37*
G36*
G01*
X131662500Y-120150000D02*
X131137500Y-120150000D01*
G75*
G02*
X130875000Y-119887500I0J262500D01*
G01*
X130875000Y-119262500D01*
G75*
G02*
X131137500Y-119000000I262500J0D01*
G01*
X131662500Y-119000000D01*
G75*
G02*
X131925000Y-119262500I0J-262500D01*
G01*
X131925000Y-119887500D01*
G75*
G02*
X131662500Y-120150000I-262500J0D01*
G01*
G37*
%TD*%
%TO.C,R19*%
G36*
G01*
X132912500Y-119000000D02*
X133437500Y-119000000D01*
G75*
G02*
X133700000Y-119262500I0J-262500D01*
G01*
X133700000Y-119887500D01*
G75*
G02*
X133437500Y-120150000I-262500J0D01*
G01*
X132912500Y-120150000D01*
G75*
G02*
X132650000Y-119887500I0J262500D01*
G01*
X132650000Y-119262500D01*
G75*
G02*
X132912500Y-119000000I262500J0D01*
G01*
G37*
G36*
G01*
X132912500Y-120750000D02*
X133437500Y-120750000D01*
G75*
G02*
X133700000Y-121012500I0J-262500D01*
G01*
X133700000Y-121637500D01*
G75*
G02*
X133437500Y-121900000I-262500J0D01*
G01*
X132912500Y-121900000D01*
G75*
G02*
X132650000Y-121637500I0J262500D01*
G01*
X132650000Y-121012500D01*
G75*
G02*
X132912500Y-120750000I262500J0D01*
G01*
G37*
%TD*%
%TO.C,R20*%
G36*
G01*
X166300000Y-139312500D02*
X166300000Y-139837500D01*
G75*
G02*
X166037500Y-140100000I-262500J0D01*
G01*
X165412500Y-140100000D01*
G75*
G02*
X165150000Y-139837500I0J262500D01*
G01*
X165150000Y-139312500D01*
G75*
G02*
X165412500Y-139050000I262500J0D01*
G01*
X166037500Y-139050000D01*
G75*
G02*
X166300000Y-139312500I0J-262500D01*
G01*
G37*
G36*
G01*
X164550000Y-139312500D02*
X164550000Y-139837500D01*
G75*
G02*
X164287500Y-140100000I-262500J0D01*
G01*
X163662500Y-140100000D01*
G75*
G02*
X163400000Y-139837500I0J262500D01*
G01*
X163400000Y-139312500D01*
G75*
G02*
X163662500Y-139050000I262500J0D01*
G01*
X164287500Y-139050000D01*
G75*
G02*
X164550000Y-139312500I0J-262500D01*
G01*
G37*
%TD*%
%TO.C,R21*%
G36*
G01*
X164312500Y-138325000D02*
X163787500Y-138325000D01*
G75*
G02*
X163525000Y-138062500I0J262500D01*
G01*
X163525000Y-137437500D01*
G75*
G02*
X163787500Y-137175000I262500J0D01*
G01*
X164312500Y-137175000D01*
G75*
G02*
X164575000Y-137437500I0J-262500D01*
G01*
X164575000Y-138062500D01*
G75*
G02*
X164312500Y-138325000I-262500J0D01*
G01*
G37*
G36*
G01*
X164312500Y-136575000D02*
X163787500Y-136575000D01*
G75*
G02*
X163525000Y-136312500I0J262500D01*
G01*
X163525000Y-135687500D01*
G75*
G02*
X163787500Y-135425000I262500J0D01*
G01*
X164312500Y-135425000D01*
G75*
G02*
X164575000Y-135687500I0J-262500D01*
G01*
X164575000Y-136312500D01*
G75*
G02*
X164312500Y-136575000I-262500J0D01*
G01*
G37*
%TD*%
%TO.C,R25*%
G36*
G01*
X178187500Y-138325000D02*
X177662500Y-138325000D01*
G75*
G02*
X177400000Y-138062500I0J262500D01*
G01*
X177400000Y-137437500D01*
G75*
G02*
X177662500Y-137175000I262500J0D01*
G01*
X178187500Y-137175000D01*
G75*
G02*
X178450000Y-137437500I0J-262500D01*
G01*
X178450000Y-138062500D01*
G75*
G02*
X178187500Y-138325000I-262500J0D01*
G01*
G37*
G36*
G01*
X178187500Y-136575000D02*
X177662500Y-136575000D01*
G75*
G02*
X177400000Y-136312500I0J262500D01*
G01*
X177400000Y-135687500D01*
G75*
G02*
X177662500Y-135425000I262500J0D01*
G01*
X178187500Y-135425000D01*
G75*
G02*
X178450000Y-135687500I0J-262500D01*
G01*
X178450000Y-136312500D01*
G75*
G02*
X178187500Y-136575000I-262500J0D01*
G01*
G37*
%TD*%
%TO.C,R23*%
G36*
G01*
X171237500Y-138325000D02*
X170712500Y-138325000D01*
G75*
G02*
X170450000Y-138062500I0J262500D01*
G01*
X170450000Y-137437500D01*
G75*
G02*
X170712500Y-137175000I262500J0D01*
G01*
X171237500Y-137175000D01*
G75*
G02*
X171500000Y-137437500I0J-262500D01*
G01*
X171500000Y-138062500D01*
G75*
G02*
X171237500Y-138325000I-262500J0D01*
G01*
G37*
G36*
G01*
X171237500Y-136575000D02*
X170712500Y-136575000D01*
G75*
G02*
X170450000Y-136312500I0J262500D01*
G01*
X170450000Y-135687500D01*
G75*
G02*
X170712500Y-135425000I262500J0D01*
G01*
X171237500Y-135425000D01*
G75*
G02*
X171500000Y-135687500I0J-262500D01*
G01*
X171500000Y-136312500D01*
G75*
G02*
X171237500Y-136575000I-262500J0D01*
G01*
G37*
%TD*%
%TO.C,R27*%
G36*
G01*
X131150000Y-127562500D02*
X131150000Y-127037500D01*
G75*
G02*
X131412500Y-126775000I262500J0D01*
G01*
X132037500Y-126775000D01*
G75*
G02*
X132300000Y-127037500I0J-262500D01*
G01*
X132300000Y-127562500D01*
G75*
G02*
X132037500Y-127825000I-262500J0D01*
G01*
X131412500Y-127825000D01*
G75*
G02*
X131150000Y-127562500I0J262500D01*
G01*
G37*
G36*
G01*
X132900000Y-127562500D02*
X132900000Y-127037500D01*
G75*
G02*
X133162500Y-126775000I262500J0D01*
G01*
X133787500Y-126775000D01*
G75*
G02*
X134050000Y-127037500I0J-262500D01*
G01*
X134050000Y-127562500D01*
G75*
G02*
X133787500Y-127825000I-262500J0D01*
G01*
X133162500Y-127825000D01*
G75*
G02*
X132900000Y-127562500I0J262500D01*
G01*
G37*
%TD*%
%TO.C,R28*%
G36*
G01*
X131150000Y-130637500D02*
X131150000Y-130112500D01*
G75*
G02*
X131412500Y-129850000I262500J0D01*
G01*
X132037500Y-129850000D01*
G75*
G02*
X132300000Y-130112500I0J-262500D01*
G01*
X132300000Y-130637500D01*
G75*
G02*
X132037500Y-130900000I-262500J0D01*
G01*
X131412500Y-130900000D01*
G75*
G02*
X131150000Y-130637500I0J262500D01*
G01*
G37*
G36*
G01*
X132900000Y-130637500D02*
X132900000Y-130112500D01*
G75*
G02*
X133162500Y-129850000I262500J0D01*
G01*
X133787500Y-129850000D01*
G75*
G02*
X134050000Y-130112500I0J-262500D01*
G01*
X134050000Y-130637500D01*
G75*
G02*
X133787500Y-130900000I-262500J0D01*
G01*
X133162500Y-130900000D01*
G75*
G02*
X132900000Y-130637500I0J262500D01*
G01*
G37*
%TD*%
%TO.C,R29*%
G36*
G01*
X131150000Y-129100000D02*
X131150000Y-128575000D01*
G75*
G02*
X131412500Y-128312500I262500J0D01*
G01*
X132037500Y-128312500D01*
G75*
G02*
X132300000Y-128575000I0J-262500D01*
G01*
X132300000Y-129100000D01*
G75*
G02*
X132037500Y-129362500I-262500J0D01*
G01*
X131412500Y-129362500D01*
G75*
G02*
X131150000Y-129100000I0J262500D01*
G01*
G37*
G36*
G01*
X132900000Y-129100000D02*
X132900000Y-128575000D01*
G75*
G02*
X133162500Y-128312500I262500J0D01*
G01*
X133787500Y-128312500D01*
G75*
G02*
X134050000Y-128575000I0J-262500D01*
G01*
X134050000Y-129100000D01*
G75*
G02*
X133787500Y-129362500I-262500J0D01*
G01*
X133162500Y-129362500D01*
G75*
G02*
X132900000Y-129100000I0J262500D01*
G01*
G37*
%TD*%
%TO.C,R30*%
G36*
G01*
X173200000Y-139362500D02*
X173200000Y-139887500D01*
G75*
G02*
X172937500Y-140150000I-262500J0D01*
G01*
X172312500Y-140150000D01*
G75*
G02*
X172050000Y-139887500I0J262500D01*
G01*
X172050000Y-139362500D01*
G75*
G02*
X172312500Y-139100000I262500J0D01*
G01*
X172937500Y-139100000D01*
G75*
G02*
X173200000Y-139362500I0J-262500D01*
G01*
G37*
G36*
G01*
X171450000Y-139362500D02*
X171450000Y-139887500D01*
G75*
G02*
X171187500Y-140150000I-262500J0D01*
G01*
X170562500Y-140150000D01*
G75*
G02*
X170300000Y-139887500I0J262500D01*
G01*
X170300000Y-139362500D01*
G75*
G02*
X170562500Y-139100000I262500J0D01*
G01*
X171187500Y-139100000D01*
G75*
G02*
X171450000Y-139362500I0J-262500D01*
G01*
G37*
%TD*%
%TO.C,R31*%
G36*
G01*
X134487500Y-105975000D02*
X135012500Y-105975000D01*
G75*
G02*
X135275000Y-106237500I0J-262500D01*
G01*
X135275000Y-106862500D01*
G75*
G02*
X135012500Y-107125000I-262500J0D01*
G01*
X134487500Y-107125000D01*
G75*
G02*
X134225000Y-106862500I0J262500D01*
G01*
X134225000Y-106237500D01*
G75*
G02*
X134487500Y-105975000I262500J0D01*
G01*
G37*
G36*
G01*
X134487500Y-107725000D02*
X135012500Y-107725000D01*
G75*
G02*
X135275000Y-107987500I0J-262500D01*
G01*
X135275000Y-108612500D01*
G75*
G02*
X135012500Y-108875000I-262500J0D01*
G01*
X134487500Y-108875000D01*
G75*
G02*
X134225000Y-108612500I0J262500D01*
G01*
X134225000Y-107987500D01*
G75*
G02*
X134487500Y-107725000I262500J0D01*
G01*
G37*
%TD*%
%TO.C,R32*%
G36*
G01*
X133475000Y-104537500D02*
X133475000Y-105062500D01*
G75*
G02*
X133212500Y-105325000I-262500J0D01*
G01*
X132587500Y-105325000D01*
G75*
G02*
X132325000Y-105062500I0J262500D01*
G01*
X132325000Y-104537500D01*
G75*
G02*
X132587500Y-104275000I262500J0D01*
G01*
X133212500Y-104275000D01*
G75*
G02*
X133475000Y-104537500I0J-262500D01*
G01*
G37*
G36*
G01*
X131725000Y-104537500D02*
X131725000Y-105062500D01*
G75*
G02*
X131462500Y-105325000I-262500J0D01*
G01*
X130837500Y-105325000D01*
G75*
G02*
X130575000Y-105062500I0J262500D01*
G01*
X130575000Y-104537500D01*
G75*
G02*
X130837500Y-104275000I262500J0D01*
G01*
X131462500Y-104275000D01*
G75*
G02*
X131725000Y-104537500I0J-262500D01*
G01*
G37*
%TD*%
%TO.C,R33*%
G36*
G01*
X173900000Y-139887500D02*
X173900000Y-139362500D01*
G75*
G02*
X174162500Y-139100000I262500J0D01*
G01*
X174787500Y-139100000D01*
G75*
G02*
X175050000Y-139362500I0J-262500D01*
G01*
X175050000Y-139887500D01*
G75*
G02*
X174787500Y-140150000I-262500J0D01*
G01*
X174162500Y-140150000D01*
G75*
G02*
X173900000Y-139887500I0J262500D01*
G01*
G37*
G36*
G01*
X175650000Y-139887500D02*
X175650000Y-139362500D01*
G75*
G02*
X175912500Y-139100000I262500J0D01*
G01*
X176537500Y-139100000D01*
G75*
G02*
X176800000Y-139362500I0J-262500D01*
G01*
X176800000Y-139887500D01*
G75*
G02*
X176537500Y-140150000I-262500J0D01*
G01*
X175912500Y-140150000D01*
G75*
G02*
X175650000Y-139887500I0J262500D01*
G01*
G37*
%TD*%
%TO.C,R34*%
G36*
G01*
X163275000Y-121612500D02*
X163275000Y-122137500D01*
G75*
G02*
X163012500Y-122400000I-262500J0D01*
G01*
X162387500Y-122400000D01*
G75*
G02*
X162125000Y-122137500I0J262500D01*
G01*
X162125000Y-121612500D01*
G75*
G02*
X162387500Y-121350000I262500J0D01*
G01*
X163012500Y-121350000D01*
G75*
G02*
X163275000Y-121612500I0J-262500D01*
G01*
G37*
G36*
G01*
X161525000Y-121612500D02*
X161525000Y-122137500D01*
G75*
G02*
X161262500Y-122400000I-262500J0D01*
G01*
X160637500Y-122400000D01*
G75*
G02*
X160375000Y-122137500I0J262500D01*
G01*
X160375000Y-121612500D01*
G75*
G02*
X160637500Y-121350000I262500J0D01*
G01*
X161262500Y-121350000D01*
G75*
G02*
X161525000Y-121612500I0J-262500D01*
G01*
G37*
%TD*%
%TO.C,R35*%
G36*
G01*
X164712500Y-122400000D02*
X164187500Y-122400000D01*
G75*
G02*
X163925000Y-122137500I0J262500D01*
G01*
X163925000Y-121512500D01*
G75*
G02*
X164187500Y-121250000I262500J0D01*
G01*
X164712500Y-121250000D01*
G75*
G02*
X164975000Y-121512500I0J-262500D01*
G01*
X164975000Y-122137500D01*
G75*
G02*
X164712500Y-122400000I-262500J0D01*
G01*
G37*
G36*
G01*
X164712500Y-120650000D02*
X164187500Y-120650000D01*
G75*
G02*
X163925000Y-120387500I0J262500D01*
G01*
X163925000Y-119762500D01*
G75*
G02*
X164187500Y-119500000I262500J0D01*
G01*
X164712500Y-119500000D01*
G75*
G02*
X164975000Y-119762500I0J-262500D01*
G01*
X164975000Y-120387500D01*
G75*
G02*
X164712500Y-120650000I-262500J0D01*
G01*
G37*
%TD*%
D36*
%TO.C,U4*%
X122190000Y-128250000D03*
X122190000Y-127300000D03*
X122190000Y-126350000D03*
X125610000Y-126350000D03*
X125610000Y-127300000D03*
X125610000Y-128250000D03*
%TD*%
%TO.C,C11*%
G36*
G01*
X144950000Y-107362500D02*
X144950000Y-106837500D01*
G75*
G02*
X145212500Y-106575000I262500J0D01*
G01*
X145837500Y-106575000D01*
G75*
G02*
X146100000Y-106837500I0J-262500D01*
G01*
X146100000Y-107362500D01*
G75*
G02*
X145837500Y-107625000I-262500J0D01*
G01*
X145212500Y-107625000D01*
G75*
G02*
X144950000Y-107362500I0J262500D01*
G01*
G37*
G36*
G01*
X146700000Y-107362500D02*
X146700000Y-106837500D01*
G75*
G02*
X146962500Y-106575000I262500J0D01*
G01*
X147587500Y-106575000D01*
G75*
G02*
X147850000Y-106837500I0J-262500D01*
G01*
X147850000Y-107362500D01*
G75*
G02*
X147587500Y-107625000I-262500J0D01*
G01*
X146962500Y-107625000D01*
G75*
G02*
X146700000Y-107362500I0J262500D01*
G01*
G37*
%TD*%
%TO.C,C12*%
G36*
G01*
X144950000Y-108962500D02*
X144950000Y-108437500D01*
G75*
G02*
X145212500Y-108175000I262500J0D01*
G01*
X145837500Y-108175000D01*
G75*
G02*
X146100000Y-108437500I0J-262500D01*
G01*
X146100000Y-108962500D01*
G75*
G02*
X145837500Y-109225000I-262500J0D01*
G01*
X145212500Y-109225000D01*
G75*
G02*
X144950000Y-108962500I0J262500D01*
G01*
G37*
G36*
G01*
X146700000Y-108962500D02*
X146700000Y-108437500D01*
G75*
G02*
X146962500Y-108175000I262500J0D01*
G01*
X147587500Y-108175000D01*
G75*
G02*
X147850000Y-108437500I0J-262500D01*
G01*
X147850000Y-108962500D01*
G75*
G02*
X147587500Y-109225000I-262500J0D01*
G01*
X146962500Y-109225000D01*
G75*
G02*
X146700000Y-108962500I0J262500D01*
G01*
G37*
%TD*%
%TO.C,C13*%
G36*
G01*
X141425000Y-108962500D02*
X141425000Y-108437500D01*
G75*
G02*
X141687500Y-108175000I262500J0D01*
G01*
X142312500Y-108175000D01*
G75*
G02*
X142575000Y-108437500I0J-262500D01*
G01*
X142575000Y-108962500D01*
G75*
G02*
X142312500Y-109225000I-262500J0D01*
G01*
X141687500Y-109225000D01*
G75*
G02*
X141425000Y-108962500I0J262500D01*
G01*
G37*
G36*
G01*
X143175000Y-108962500D02*
X143175000Y-108437500D01*
G75*
G02*
X143437500Y-108175000I262500J0D01*
G01*
X144062500Y-108175000D01*
G75*
G02*
X144325000Y-108437500I0J-262500D01*
G01*
X144325000Y-108962500D01*
G75*
G02*
X144062500Y-109225000I-262500J0D01*
G01*
X143437500Y-109225000D01*
G75*
G02*
X143175000Y-108962500I0J262500D01*
G01*
G37*
%TD*%
%TO.C,C14*%
G36*
G01*
X141425000Y-107362500D02*
X141425000Y-106837500D01*
G75*
G02*
X141687500Y-106575000I262500J0D01*
G01*
X142312500Y-106575000D01*
G75*
G02*
X142575000Y-106837500I0J-262500D01*
G01*
X142575000Y-107362500D01*
G75*
G02*
X142312500Y-107625000I-262500J0D01*
G01*
X141687500Y-107625000D01*
G75*
G02*
X141425000Y-107362500I0J262500D01*
G01*
G37*
G36*
G01*
X143175000Y-107362500D02*
X143175000Y-106837500D01*
G75*
G02*
X143437500Y-106575000I262500J0D01*
G01*
X144062500Y-106575000D01*
G75*
G02*
X144325000Y-106837500I0J-262500D01*
G01*
X144325000Y-107362500D01*
G75*
G02*
X144062500Y-107625000I-262500J0D01*
G01*
X143437500Y-107625000D01*
G75*
G02*
X143175000Y-107362500I0J262500D01*
G01*
G37*
%TD*%
%TO.C,R13*%
G36*
G01*
X146662500Y-115550000D02*
X146137500Y-115550000D01*
G75*
G02*
X145875000Y-115287500I0J262500D01*
G01*
X145875000Y-114662500D01*
G75*
G02*
X146137500Y-114400000I262500J0D01*
G01*
X146662500Y-114400000D01*
G75*
G02*
X146925000Y-114662500I0J-262500D01*
G01*
X146925000Y-115287500D01*
G75*
G02*
X146662500Y-115550000I-262500J0D01*
G01*
G37*
G36*
G01*
X146662500Y-113800000D02*
X146137500Y-113800000D01*
G75*
G02*
X145875000Y-113537500I0J262500D01*
G01*
X145875000Y-112912500D01*
G75*
G02*
X146137500Y-112650000I262500J0D01*
G01*
X146662500Y-112650000D01*
G75*
G02*
X146925000Y-112912500I0J-262500D01*
G01*
X146925000Y-113537500D01*
G75*
G02*
X146662500Y-113800000I-262500J0D01*
G01*
G37*
%TD*%
%TO.C,R14*%
G36*
G01*
X146137500Y-116050000D02*
X146662500Y-116050000D01*
G75*
G02*
X146925000Y-116312500I0J-262500D01*
G01*
X146925000Y-116937500D01*
G75*
G02*
X146662500Y-117200000I-262500J0D01*
G01*
X146137500Y-117200000D01*
G75*
G02*
X145875000Y-116937500I0J262500D01*
G01*
X145875000Y-116312500D01*
G75*
G02*
X146137500Y-116050000I262500J0D01*
G01*
G37*
G36*
G01*
X146137500Y-117800000D02*
X146662500Y-117800000D01*
G75*
G02*
X146925000Y-118062500I0J-262500D01*
G01*
X146925000Y-118687500D01*
G75*
G02*
X146662500Y-118950000I-262500J0D01*
G01*
X146137500Y-118950000D01*
G75*
G02*
X145875000Y-118687500I0J262500D01*
G01*
X145875000Y-118062500D01*
G75*
G02*
X146137500Y-117800000I262500J0D01*
G01*
G37*
%TD*%
D37*
%TO.C,Y1*%
X160750000Y-104950000D03*
X157850000Y-104950000D03*
X157850000Y-107250000D03*
X160750000Y-107250000D03*
%TD*%
D38*
%TO.C,J4*%
X121650000Y-98870000D03*
X126700000Y-103950000D03*
X126700000Y-114110000D03*
X121650000Y-114110000D03*
X121650000Y-93790000D03*
X121650000Y-101410000D03*
X121650000Y-88710000D03*
X121650000Y-103950000D03*
X121650000Y-96330000D03*
X126700000Y-109030000D03*
X126700000Y-119190000D03*
X121650000Y-119190000D03*
X126700000Y-116650000D03*
X121650000Y-116650000D03*
X121650000Y-109030000D03*
X121650000Y-106490000D03*
X126700000Y-111570000D03*
X121650000Y-111570000D03*
X126700000Y-106490000D03*
X126700000Y-88710000D03*
X126700000Y-101410000D03*
X121650000Y-91250000D03*
X126700000Y-93790000D03*
X126700000Y-98870000D03*
X126700000Y-96330000D03*
X126700000Y-91250000D03*
%TD*%
%TO.C,J6*%
X167300000Y-98880000D03*
X172350000Y-103960000D03*
X172350000Y-114120000D03*
X167300000Y-114120000D03*
X167300000Y-93800000D03*
X167300000Y-101420000D03*
X167300000Y-88720000D03*
X167300000Y-103960000D03*
X167300000Y-96340000D03*
X172350000Y-109040000D03*
X172350000Y-119200000D03*
X167300000Y-119200000D03*
X172350000Y-116660000D03*
X167300000Y-116660000D03*
X167300000Y-109040000D03*
X167300000Y-106500000D03*
X172350000Y-111580000D03*
X167300000Y-111580000D03*
X172350000Y-106500000D03*
X172350000Y-88720000D03*
X172350000Y-101420000D03*
X167300000Y-91260000D03*
X172350000Y-93800000D03*
X172350000Y-98880000D03*
X172350000Y-96340000D03*
X172350000Y-91260000D03*
%TD*%
%TO.C,C7*%
G36*
G01*
X163362500Y-105800000D02*
X162837500Y-105800000D01*
G75*
G02*
X162575000Y-105537500I0J262500D01*
G01*
X162575000Y-104912500D01*
G75*
G02*
X162837500Y-104650000I262500J0D01*
G01*
X163362500Y-104650000D01*
G75*
G02*
X163625000Y-104912500I0J-262500D01*
G01*
X163625000Y-105537500D01*
G75*
G02*
X163362500Y-105800000I-262500J0D01*
G01*
G37*
G36*
G01*
X163362500Y-107550000D02*
X162837500Y-107550000D01*
G75*
G02*
X162575000Y-107287500I0J262500D01*
G01*
X162575000Y-106662500D01*
G75*
G02*
X162837500Y-106400000I262500J0D01*
G01*
X163362500Y-106400000D01*
G75*
G02*
X163625000Y-106662500I0J-262500D01*
G01*
X163625000Y-107287500D01*
G75*
G02*
X163362500Y-107550000I-262500J0D01*
G01*
G37*
%TD*%
%TO.C,R9*%
G36*
G01*
X157585000Y-134147456D02*
X157585000Y-132832544D01*
G75*
G02*
X157852544Y-132565000I267544J0D01*
G01*
X158842456Y-132565000D01*
G75*
G02*
X159110000Y-132832544I0J-267544D01*
G01*
X159110000Y-134147456D01*
G75*
G02*
X158842456Y-134415000I-267544J0D01*
G01*
X157852544Y-134415000D01*
G75*
G02*
X157585000Y-134147456I0J267544D01*
G01*
G37*
G36*
G01*
X160560000Y-134147456D02*
X160560000Y-132832544D01*
G75*
G02*
X160827544Y-132565000I267544J0D01*
G01*
X161817456Y-132565000D01*
G75*
G02*
X162085000Y-132832544I0J-267544D01*
G01*
X162085000Y-134147456D01*
G75*
G02*
X161817456Y-134415000I-267544J0D01*
G01*
X160827544Y-134415000D01*
G75*
G02*
X160560000Y-134147456I0J267544D01*
G01*
G37*
%TD*%
D39*
%TO.C,Q3*%
X153655000Y-134440000D03*
X153655000Y-132540000D03*
X156065000Y-133490000D03*
%TD*%
D40*
%TO.C,Q2*%
X164075000Y-131095000D03*
X165975000Y-131095000D03*
X165025000Y-133505000D03*
%TD*%
%TO.C,C15*%
G36*
G01*
X135262500Y-118250000D02*
X134737500Y-118250000D01*
G75*
G02*
X134475000Y-117987500I0J262500D01*
G01*
X134475000Y-117362500D01*
G75*
G02*
X134737500Y-117100000I262500J0D01*
G01*
X135262500Y-117100000D01*
G75*
G02*
X135525000Y-117362500I0J-262500D01*
G01*
X135525000Y-117987500D01*
G75*
G02*
X135262500Y-118250000I-262500J0D01*
G01*
G37*
G36*
G01*
X135262500Y-116500000D02*
X134737500Y-116500000D01*
G75*
G02*
X134475000Y-116237500I0J262500D01*
G01*
X134475000Y-115612500D01*
G75*
G02*
X134737500Y-115350000I262500J0D01*
G01*
X135262500Y-115350000D01*
G75*
G02*
X135525000Y-115612500I0J-262500D01*
G01*
X135525000Y-116237500D01*
G75*
G02*
X135262500Y-116500000I-262500J0D01*
G01*
G37*
%TD*%
%TO.C,R11*%
G36*
G01*
X155212500Y-128350000D02*
X154687500Y-128350000D01*
G75*
G02*
X154425000Y-128087500I0J262500D01*
G01*
X154425000Y-127462500D01*
G75*
G02*
X154687500Y-127200000I262500J0D01*
G01*
X155212500Y-127200000D01*
G75*
G02*
X155475000Y-127462500I0J-262500D01*
G01*
X155475000Y-128087500D01*
G75*
G02*
X155212500Y-128350000I-262500J0D01*
G01*
G37*
G36*
G01*
X155212500Y-130100000D02*
X154687500Y-130100000D01*
G75*
G02*
X154425000Y-129837500I0J262500D01*
G01*
X154425000Y-129212500D01*
G75*
G02*
X154687500Y-128950000I262500J0D01*
G01*
X155212500Y-128950000D01*
G75*
G02*
X155475000Y-129212500I0J-262500D01*
G01*
X155475000Y-129837500D01*
G75*
G02*
X155212500Y-130100000I-262500J0D01*
G01*
G37*
%TD*%
D34*
%TO.C,Q4*%
X158580000Y-128770000D03*
X156580000Y-127820000D03*
X156580000Y-129720000D03*
%TD*%
%TO.C,C8*%
G36*
G01*
X155237500Y-106400000D02*
X155762500Y-106400000D01*
G75*
G02*
X156025000Y-106662500I0J-262500D01*
G01*
X156025000Y-107287500D01*
G75*
G02*
X155762500Y-107550000I-262500J0D01*
G01*
X155237500Y-107550000D01*
G75*
G02*
X154975000Y-107287500I0J262500D01*
G01*
X154975000Y-106662500D01*
G75*
G02*
X155237500Y-106400000I262500J0D01*
G01*
G37*
G36*
G01*
X155237500Y-104650000D02*
X155762500Y-104650000D01*
G75*
G02*
X156025000Y-104912500I0J-262500D01*
G01*
X156025000Y-105537500D01*
G75*
G02*
X155762500Y-105800000I-262500J0D01*
G01*
X155237500Y-105800000D01*
G75*
G02*
X154975000Y-105537500I0J262500D01*
G01*
X154975000Y-104912500D01*
G75*
G02*
X155237500Y-104650000I262500J0D01*
G01*
G37*
%TD*%
D41*
%TO.C,J2*%
X141460000Y-87670000D03*
X135460000Y-87670000D03*
D42*
X138460000Y-88610000D03*
X138460000Y-91610000D03*
%TD*%
%TO.C,R6*%
G36*
G01*
X152160311Y-112910920D02*
X151789080Y-112539689D01*
G75*
G02*
X151789080Y-112168457I185616J185616D01*
G01*
X152231021Y-111726516D01*
G75*
G02*
X152602253Y-111726516I185616J-185616D01*
G01*
X152973484Y-112097747D01*
G75*
G02*
X152973484Y-112468979I-185616J-185616D01*
G01*
X152531543Y-112910920D01*
G75*
G02*
X152160311Y-112910920I-185616J185616D01*
G01*
G37*
G36*
G01*
X153397747Y-111673484D02*
X153026516Y-111302253D01*
G75*
G02*
X153026516Y-110931021I185616J185616D01*
G01*
X153468457Y-110489080D01*
G75*
G02*
X153839689Y-110489080I185616J-185616D01*
G01*
X154210920Y-110860311D01*
G75*
G02*
X154210920Y-111231543I-185616J-185616D01*
G01*
X153768979Y-111673484D01*
G75*
G02*
X153397747Y-111673484I-185616J185616D01*
G01*
G37*
%TD*%
%TO.C,R4*%
G36*
G01*
X156689080Y-119360311D02*
X157060311Y-118989080D01*
G75*
G02*
X157431543Y-118989080I185616J-185616D01*
G01*
X157873484Y-119431021D01*
G75*
G02*
X157873484Y-119802253I-185616J-185616D01*
G01*
X157502253Y-120173484D01*
G75*
G02*
X157131021Y-120173484I-185616J185616D01*
G01*
X156689080Y-119731543D01*
G75*
G02*
X156689080Y-119360311I185616J185616D01*
G01*
G37*
G36*
G01*
X157926516Y-120597747D02*
X158297747Y-120226516D01*
G75*
G02*
X158668979Y-120226516I185616J-185616D01*
G01*
X159110920Y-120668457D01*
G75*
G02*
X159110920Y-121039689I-185616J-185616D01*
G01*
X158739689Y-121410920D01*
G75*
G02*
X158368457Y-121410920I-185616J185616D01*
G01*
X157926516Y-120968979D01*
G75*
G02*
X157926516Y-120597747I185616J185616D01*
G01*
G37*
%TD*%
D30*
%TO.C,BT2*%
X169600000Y-60490000D03*
X169600000Y-132710000D03*
D31*
X161730000Y-68870000D03*
X177470000Y-124070000D03*
D32*
X177470000Y-60490000D03*
%TD*%
M02*
