%TF.GenerationSoftware,KiCad,Pcbnew,(5.1.6)-1*%
%TF.CreationDate,2022-08-05T13:09:58+02:00*%
%TF.ProjectId,ZumoComSystem,5a756d6f-436f-46d5-9379-7374656d2e6b,V1.1*%
%TF.SameCoordinates,Original*%
%TF.FileFunction,Plated,1,2,PTH,Mixed*%
%TF.FilePolarity,Positive*%
%FSLAX46Y46*%
G04 Gerber Fmt 4.6, Leading zero omitted, Abs format (unit mm)*
G04 Created by KiCad (PCBNEW (5.1.6)-1) date 2022-08-05 13:09:58*
%MOMM*%
%LPD*%
G01*
G04 APERTURE LIST*
%TA.AperFunction,ViaDrill*%
%ADD10C,0.300000*%
%TD*%
%TA.AperFunction,ViaDrill*%
%ADD11C,0.400000*%
%TD*%
G04 aperture for slot hole*
%TA.AperFunction,ComponentDrill*%
%ADD12C,0.500000*%
%TD*%
%TA.AperFunction,ComponentDrill*%
%ADD13C,0.900000*%
%TD*%
%TA.AperFunction,ComponentDrill*%
%ADD14C,1.000000*%
%TD*%
%TA.AperFunction,ComponentDrill*%
%ADD15C,1.020000*%
%TD*%
G04 aperture for slot hole*
%TA.AperFunction,ComponentDrill*%
%ADD16C,1.300000*%
%TD*%
%TA.AperFunction,ComponentDrill*%
%ADD17C,1.320000*%
%TD*%
%TA.AperFunction,ComponentDrill*%
%ADD18C,1.500000*%
%TD*%
%TA.AperFunction,ComponentDrill*%
%ADD19C,2.000000*%
%TD*%
%TA.AperFunction,ComponentDrill*%
%ADD20C,3.000000*%
%TD*%
G04 APERTURE END LIST*
D10*
X115141667Y-58947500D03*
X115141667Y-126947500D03*
X115141667Y-134947500D03*
X116000000Y-90600000D03*
X116000000Y-92600000D03*
X117000000Y-91600000D03*
X117200000Y-134800000D03*
X117200000Y-139800000D03*
X118000000Y-90600000D03*
X118000000Y-92600000D03*
X118341667Y-62147500D03*
X118430000Y-139410000D03*
X119025010Y-132497250D03*
X119200000Y-76600000D03*
X119200000Y-120200000D03*
X119750000Y-134250000D03*
X119941667Y-142947500D03*
X120000000Y-129900000D03*
X120130000Y-84300000D03*
X120700000Y-125500000D03*
X121541667Y-97347500D03*
X121541667Y-105347500D03*
X121600000Y-115400000D03*
X121700000Y-107700000D03*
X121700000Y-110300000D03*
X121700000Y-112800000D03*
X121700000Y-118000000D03*
X122500000Y-143500000D03*
X122600000Y-141400000D03*
X122617500Y-139392500D03*
X122800000Y-136150000D03*
X123700000Y-138600000D03*
X123941667Y-101347500D03*
X124000000Y-110500000D03*
X124000000Y-112750000D03*
X124000000Y-115500000D03*
X124000000Y-118000000D03*
X124000000Y-120000000D03*
X124000000Y-137000000D03*
X124250000Y-88710000D03*
X124500000Y-121900000D03*
X124500000Y-123400000D03*
X124500000Y-124900000D03*
X125420000Y-67890000D03*
X126000000Y-121900000D03*
X126000000Y-123400000D03*
X126000000Y-124900000D03*
X126600000Y-72500000D03*
X127000000Y-140600000D03*
X127200000Y-135800000D03*
X127600000Y-143400000D03*
X127749995Y-130249997D03*
X127750000Y-122500004D03*
X127780000Y-121650000D03*
X127860000Y-138650000D03*
X127941667Y-97347500D03*
X127941667Y-105347500D03*
X128000000Y-131920000D03*
X128400000Y-132800000D03*
X128699990Y-121654675D03*
X128800000Y-133900002D03*
X129100000Y-74400000D03*
X129500000Y-118000000D03*
X129500000Y-120000000D03*
X130100000Y-133900000D03*
X130300000Y-122100000D03*
X130340000Y-135710000D03*
X130500000Y-110500000D03*
X130500000Y-113000000D03*
X130500000Y-115500000D03*
X130650000Y-126390000D03*
X130750000Y-97250000D03*
X130750000Y-100000000D03*
X130750000Y-102500000D03*
X131100002Y-133700000D03*
X131141667Y-139747500D03*
X131200000Y-71400000D03*
X131200000Y-76600000D03*
X131925000Y-136175000D03*
X132000000Y-98500000D03*
X132000000Y-101250000D03*
X132000000Y-111500000D03*
X132000000Y-114500000D03*
X132500000Y-69700000D03*
X133000000Y-65900000D03*
X133250000Y-97250000D03*
X133250000Y-100000000D03*
X133250000Y-102500000D03*
X133500000Y-110500000D03*
X133500000Y-113000000D03*
X133500000Y-115500000D03*
X133800000Y-67200000D03*
X134000000Y-68600000D03*
X134341667Y-136547500D03*
X134600000Y-134400000D03*
X134700000Y-120600000D03*
X134700000Y-128900000D03*
X134800000Y-130500000D03*
X135141667Y-126947500D03*
X135250000Y-123000000D03*
X135420000Y-114030000D03*
X135600000Y-104700000D03*
X136020000Y-131830000D03*
X136050000Y-113049994D03*
X136100000Y-108400000D03*
X136150000Y-125320000D03*
X136325010Y-117700000D03*
X136500000Y-105600000D03*
X136600000Y-107100000D03*
X136600000Y-116100000D03*
X136900000Y-109400000D03*
X137450002Y-67349998D03*
X137603074Y-115006918D03*
X138341667Y-86947500D03*
X138540000Y-113180000D03*
X138574990Y-116800000D03*
X139141667Y-76547500D03*
X139300000Y-77800000D03*
X139754840Y-118400000D03*
X139900000Y-113700000D03*
X140100000Y-109600000D03*
X140174990Y-130225010D03*
X140200000Y-129200000D03*
X140541667Y-96647500D03*
X140600000Y-98800000D03*
X140730000Y-124840000D03*
X140741667Y-136547500D03*
X140900000Y-121900000D03*
X141000000Y-114800000D03*
X141000000Y-117200000D03*
X141490000Y-132490000D03*
X141541667Y-90147500D03*
X141600000Y-126100000D03*
X141800000Y-70000000D03*
X141800000Y-130200000D03*
X141900000Y-75600000D03*
X142000000Y-127400000D03*
X142220000Y-134400000D03*
X142600000Y-123100000D03*
X142780000Y-129000000D03*
X143060001Y-135040000D03*
X143141667Y-84547500D03*
X143400000Y-114800000D03*
X143400000Y-117200000D03*
X143500000Y-101250000D03*
X143941667Y-68547500D03*
X143941667Y-78147500D03*
X144560000Y-130170000D03*
X144600000Y-113700000D03*
X144600000Y-122100000D03*
X144620000Y-128250000D03*
X144741667Y-93347500D03*
X145000000Y-112500000D03*
X145400000Y-132700000D03*
X145500000Y-110000000D03*
X145541667Y-73347500D03*
X145541667Y-134947500D03*
X145600000Y-114200000D03*
X146250000Y-127750000D03*
X146250000Y-131000000D03*
X146341667Y-87747500D03*
X147150000Y-103150000D03*
X147600000Y-105100000D03*
X147600000Y-111800000D03*
X147750000Y-125500000D03*
X148000000Y-136600000D03*
X148620000Y-121800000D03*
X148741667Y-70147500D03*
X148741667Y-76547500D03*
X149310000Y-132520000D03*
X149500000Y-127750000D03*
X149500000Y-131000000D03*
X149749989Y-124699970D03*
X150341667Y-85347500D03*
X150776276Y-124000000D03*
X150800000Y-115950000D03*
X151000000Y-109050000D03*
X151229078Y-125324980D03*
X151229078Y-127770922D03*
X151229078Y-132520922D03*
X151900000Y-69300000D03*
X151900000Y-73250000D03*
X151900000Y-77200000D03*
X151900000Y-122700000D03*
X152060000Y-132310000D03*
X152100000Y-129300000D03*
X152700000Y-130600002D03*
X152741667Y-89347500D03*
X153000000Y-123900000D03*
X153200001Y-113199999D03*
X153240000Y-125240000D03*
X153250000Y-127250000D03*
X153300000Y-115600000D03*
X153541667Y-136547500D03*
X153580000Y-131750000D03*
X153630000Y-129990000D03*
X154500000Y-68547500D03*
X154500000Y-71665000D03*
X154500000Y-74782500D03*
X154500000Y-77900000D03*
X154600000Y-113600000D03*
X154800000Y-119000000D03*
X155000000Y-102500000D03*
X155141667Y-93347500D03*
X155900000Y-117600000D03*
X155941667Y-84547500D03*
X156741667Y-78947500D03*
X156980000Y-108980000D03*
X157000000Y-131800000D03*
X157541667Y-70947500D03*
X157700000Y-113100000D03*
X157700000Y-126100000D03*
X158341667Y-88547500D03*
X158800000Y-136100000D03*
X159141667Y-66147500D03*
X159300000Y-111500000D03*
X159300000Y-114700000D03*
X159300000Y-131800000D03*
X159560000Y-127380000D03*
X159941667Y-75747500D03*
X159941667Y-82147500D03*
X160000000Y-108800000D03*
X160110000Y-118100000D03*
X160300000Y-134800000D03*
X160500000Y-97500000D03*
X160900000Y-113100000D03*
X160900000Y-123000000D03*
X160900000Y-127200000D03*
X161300002Y-136700000D03*
X161300005Y-130200000D03*
X161541667Y-91747500D03*
X162200000Y-130000000D03*
X162299996Y-135700000D03*
X162341667Y-86147500D03*
X162341667Y-120247500D03*
X162600000Y-141800000D03*
X163000000Y-130200000D03*
X163141667Y-71747500D03*
X163141667Y-78947500D03*
X163200000Y-135000000D03*
X163300000Y-141100000D03*
X163600000Y-108900000D03*
X163600000Y-115600000D03*
X163800000Y-101200000D03*
X163941667Y-122947500D03*
X164000000Y-88700000D03*
X164300000Y-141800000D03*
X164834350Y-136943766D03*
X165100000Y-129500000D03*
X165380000Y-123480000D03*
X165500006Y-136499994D03*
X165541667Y-82947500D03*
X166250000Y-135750000D03*
X166341667Y-90147500D03*
X166341667Y-107747500D03*
X166400000Y-133900000D03*
X166749999Y-138750001D03*
X167100000Y-63200000D03*
X167400000Y-127300000D03*
X167400000Y-129600000D03*
X167400000Y-140200000D03*
X167400000Y-143200000D03*
X168100000Y-136600002D03*
X168280000Y-135730000D03*
X168500000Y-130300000D03*
X168741667Y-86147500D03*
X168800000Y-118000000D03*
X169200000Y-135800000D03*
X169541667Y-70147500D03*
X169541667Y-93347500D03*
X169541667Y-99747500D03*
X169600000Y-63400000D03*
X169750000Y-111500000D03*
X169800000Y-90200000D03*
X169900000Y-110000000D03*
X170040000Y-125310000D03*
X170180000Y-136870000D03*
X170199990Y-141100000D03*
X170300000Y-65100000D03*
X170341667Y-105347500D03*
X170900000Y-141900000D03*
X171000000Y-134800000D03*
X171700000Y-65100000D03*
X171700000Y-68000000D03*
X171700000Y-137000000D03*
X171700000Y-138700000D03*
X172054997Y-129579999D03*
X172300000Y-86500000D03*
X172300000Y-110200000D03*
X172500000Y-136250000D03*
X172741667Y-90147500D03*
X173200000Y-131100000D03*
X173300000Y-64700000D03*
X173500000Y-134700000D03*
X173541667Y-58947500D03*
X173600000Y-138800000D03*
X174000000Y-95000000D03*
X174341667Y-78147500D03*
X174400000Y-65800006D03*
X174410087Y-64449989D03*
X175200000Y-135800000D03*
X176000000Y-141800000D03*
X176150000Y-135000000D03*
X176300000Y-65900000D03*
X176741667Y-64100000D03*
X176741667Y-98947500D03*
X176741667Y-105347500D03*
X176741667Y-111747500D03*
X176741667Y-118147500D03*
X176974999Y-141125001D03*
X177470000Y-131840000D03*
X177541667Y-87747500D03*
X177541667Y-126947500D03*
X177600000Y-141800000D03*
X178739990Y-136750000D03*
X179000000Y-139599992D03*
X179141667Y-66947500D03*
X179141667Y-73347500D03*
X179141667Y-79747500D03*
X179141667Y-92547500D03*
X179300000Y-141600000D03*
D11*
X138600000Y-100300000D03*
X157000000Y-100300000D03*
X171040000Y-121830000D03*
X175000000Y-97600000D03*
X177900000Y-133899998D03*
D12*
%TO.C,J3*%
X138950000Y-105425000D02*
X139650000Y-105425000D01*
X141550000Y-103275000D02*
X142650000Y-103275000D01*
X144550000Y-105425000D02*
X145250000Y-105425000D01*
D13*
%TO.C,J1*%
X146925000Y-98400000D03*
X149425000Y-98400000D03*
X151425000Y-98400000D03*
X153925000Y-98400000D03*
D14*
%TO.C,TP2*%
X141200000Y-111300000D03*
X143740000Y-111300000D03*
%TO.C,J5*%
X139335000Y-80485000D03*
X139335000Y-83025000D03*
X141875000Y-80485000D03*
X141875000Y-83025000D03*
X144415000Y-80485000D03*
X144415000Y-83025000D03*
X146955000Y-80485000D03*
X146955000Y-83025000D03*
X149495000Y-80485000D03*
X149495000Y-83025000D03*
X152035000Y-80485000D03*
X152035000Y-83025000D03*
X154575000Y-80485000D03*
X154575000Y-83025000D03*
%TO.C,TP1*%
X149160000Y-101900000D03*
X151700000Y-101900000D03*
D15*
%TO.C,J2*%
X138460000Y-88610000D03*
X138460000Y-91610000D03*
D16*
%TO.C,J1*%
X143855000Y-97300000D02*
X143855000Y-98300000D01*
X150925000Y-93620000D02*
X149925000Y-93620000D01*
X156995000Y-98300000D02*
X156995000Y-97300000D01*
D17*
%TO.C,BT1*%
X124400000Y-60490000D03*
X124400000Y-132710000D03*
%TO.C,BT2*%
X169600000Y-60490000D03*
X169600000Y-132710000D03*
D18*
%TO.C,U2*%
X171700000Y-66600000D03*
D19*
%TO.C,U3*%
X159300000Y-113100000D03*
%TO.C,U5*%
X142200000Y-116000000D03*
D20*
%TO.C,U6*%
X147925000Y-129405000D03*
M02*
