%TF.GenerationSoftware,KiCad,Pcbnew,7.0.1*%
%TF.CreationDate,2023-12-18T13:28:22+01:00*%
%TF.ProjectId,ZumoComSystem,5a756d6f-436f-46d5-9379-7374656d2e6b,V1.2*%
%TF.SameCoordinates,Original*%
%TF.FileFunction,Soldermask,Bot*%
%TF.FilePolarity,Negative*%
%FSLAX45Y45*%
G04 Gerber Fmt 4.5, Leading zero omitted, Abs format (unit mm)*
G04 Created by KiCad (PCBNEW 7.0.1) date 2023-12-18 13:28:22*
%MOMM*%
%LPD*%
G01*
G04 APERTURE LIST*
G04 Aperture macros list*
%AMRoundRect*
0 Rectangle with rounded corners*
0 $1 Rounding radius*
0 $2 $3 $4 $5 $6 $7 $8 $9 X,Y pos of 4 corners*
0 Add a 4 corners polygon primitive as box body*
4,1,4,$2,$3,$4,$5,$6,$7,$8,$9,$2,$3,0*
0 Add four circle primitives for the rounded corners*
1,1,$1+$1,$2,$3*
1,1,$1+$1,$4,$5*
1,1,$1+$1,$6,$7*
1,1,$1+$1,$8,$9*
0 Add four rect primitives between the rounded corners*
20,1,$1+$1,$2,$3,$4,$5,0*
20,1,$1+$1,$4,$5,$6,$7,0*
20,1,$1+$1,$6,$7,$8,$9,0*
20,1,$1+$1,$8,$9,$2,$3,0*%
G04 Aperture macros list end*
%ADD10C,0.300000*%
%ADD11RoundRect,0.050000X-0.650000X0.650000X-0.650000X-0.650000X0.650000X-0.650000X0.650000X0.650000X0*%
%ADD12C,1.400000*%
%ADD13O,3.000000X2.000000*%
%ADD14O,2.000000X3.000000*%
%ADD15O,1.900000X1.200000*%
%ADD16O,2.300000X1.200000*%
%ADD17RoundRect,0.050000X0.850000X-0.850000X0.850000X0.850000X-0.850000X0.850000X-0.850000X-0.850000X0*%
%ADD18O,1.800000X1.800000*%
%ADD19C,3.650000*%
%ADD20C,2.490000*%
%ADD21C,2.080000*%
%ADD22RoundRect,0.050000X-0.850000X-0.850000X0.850000X-0.850000X0.850000X0.850000X-0.850000X0.850000X0*%
%ADD23C,3.204000*%
%ADD24O,3.804000X2.004000*%
%ADD25O,1.712000X3.220000*%
%ADD26C,1.000000*%
%ADD27RoundRect,0.300000X-0.900000X1.275000X-0.900000X-1.275000X0.900000X-1.275000X0.900000X1.275000X0*%
%ADD28RoundRect,0.300000X-0.899998X1.275000X-0.899998X-1.275000X0.899998X-1.275000X0.899998X1.275000X0*%
%ADD29RoundRect,0.050000X-1.000000X-0.325000X1.000000X-0.325000X1.000000X0.325000X-1.000000X0.325000X0*%
%ADD30RoundRect,0.300000X-0.400000X-0.625000X0.400000X-0.625000X0.400000X0.625000X-0.400000X0.625000X0*%
%ADD31RoundRect,0.050000X1.587500X2.475000X-1.587500X2.475000X-1.587500X-2.475000X1.587500X-2.475000X0*%
%ADD32RoundRect,0.050000X-0.325000X1.000000X-0.325000X-1.000000X0.325000X-1.000000X0.325000X1.000000X0*%
%ADD33RoundRect,0.287500X-0.344715X0.008839X0.008839X-0.344715X0.344715X-0.008839X-0.008839X0.344715X0*%
%ADD34RoundRect,0.057800X-0.122200X0.477200X-0.122200X-0.477200X0.122200X-0.477200X0.122200X0.477200X0*%
%ADD35RoundRect,0.057800X0.477200X0.122200X-0.477200X0.122200X-0.477200X-0.122200X0.477200X-0.122200X0*%
%ADD36RoundRect,0.050000X-1.575000X1.575000X-1.575000X-1.575000X1.575000X-1.575000X1.575000X1.575000X0*%
%ADD37RoundRect,0.287500X-0.237500X0.250000X-0.237500X-0.250000X0.237500X-0.250000X0.237500X0.250000X0*%
%ADD38RoundRect,0.287500X-0.237500X0.300000X-0.237500X-0.300000X0.237500X-0.300000X0.237500X0.300000X0*%
%ADD39RoundRect,0.300000X-0.412500X-0.650000X0.412500X-0.650000X0.412500X0.650000X-0.412500X0.650000X0*%
%ADD40RoundRect,0.287500X-0.300000X-0.237500X0.300000X-0.237500X0.300000X0.237500X-0.300000X0.237500X0*%
%ADD41RoundRect,0.287500X0.250000X0.237500X-0.250000X0.237500X-0.250000X-0.237500X0.250000X-0.237500X0*%
%ADD42RoundRect,0.287500X0.237500X-0.300000X0.237500X0.300000X-0.237500X0.300000X-0.237500X-0.300000X0*%
%ADD43RoundRect,0.287500X-0.250000X-0.237500X0.250000X-0.237500X0.250000X0.237500X-0.250000X0.237500X0*%
%ADD44RoundRect,0.050000X-0.950000X-0.400000X0.950000X-0.400000X0.950000X0.400000X-0.950000X0.400000X0*%
%ADD45RoundRect,0.050000X-1.575000X-0.500000X1.575000X-0.500000X1.575000X0.500000X-1.575000X0.500000X0*%
%ADD46RoundRect,0.299999X-0.475001X-0.299999X0.475001X-0.299999X0.475001X0.299999X-0.475001X0.299999X0*%
%ADD47RoundRect,0.287500X0.237500X-0.250000X0.237500X0.250000X-0.237500X0.250000X-0.237500X-0.250000X0*%
%ADD48RoundRect,0.200000X-0.725000X-0.150000X0.725000X-0.150000X0.725000X0.150000X-0.725000X0.150000X0*%
%ADD49RoundRect,0.300000X-0.250000X0.250000X-0.250000X-0.250000X0.250000X-0.250000X0.250000X0.250000X0*%
%ADD50RoundRect,0.287500X0.344715X-0.008839X-0.008839X0.344715X-0.344715X0.008839X0.008839X-0.344715X0*%
%ADD51RoundRect,0.050000X-0.400000X0.950000X-0.400000X-0.950000X0.400000X-0.950000X0.400000X0.950000X0*%
%ADD52RoundRect,0.300000X-0.425000X0.537500X-0.425000X-0.537500X0.425000X-0.537500X0.425000X0.537500X0*%
%ADD53RoundRect,0.300000X-0.650000X0.412500X-0.650000X-0.412500X0.650000X-0.412500X0.650000X0.412500X0*%
%ADD54RoundRect,0.300000X0.537500X0.425000X-0.537500X0.425000X-0.537500X-0.425000X0.537500X-0.425000X0*%
%ADD55RoundRect,0.050000X-1.000000X-0.750000X1.000000X-0.750000X1.000000X0.750000X-1.000000X0.750000X0*%
%ADD56RoundRect,0.050000X-1.000000X-1.900000X1.000000X-1.900000X1.000000X1.900000X-1.000000X1.900000X0*%
%ADD57RoundRect,0.300000X0.250000X-0.250000X0.250000X0.250000X-0.250000X0.250000X-0.250000X-0.250000X0*%
%ADD58RoundRect,0.300000X-0.250000X-0.250000X0.250000X-0.250000X0.250000X0.250000X-0.250000X0.250000X0*%
%ADD59RoundRect,0.050000X-0.850000X0.850000X-0.850000X-0.850000X0.850000X-0.850000X0.850000X0.850000X0*%
%ADD60RoundRect,0.300000X0.350000X0.450000X-0.350000X0.450000X-0.350000X-0.450000X0.350000X-0.450000X0*%
%ADD61RoundRect,0.300000X0.250000X0.250000X-0.250000X0.250000X-0.250000X-0.250000X0.250000X-0.250000X0*%
%ADD62RoundRect,0.300000X-0.337500X-0.475000X0.337500X-0.475000X0.337500X0.475000X-0.337500X0.475000X0*%
%ADD63RoundRect,0.300001X-0.462499X-1.074999X0.462499X-1.074999X0.462499X1.074999X-0.462499X1.074999X0*%
%ADD64RoundRect,0.300000X-0.450000X-0.800000X0.450000X-0.800000X0.450000X0.800000X-0.450000X0.800000X0*%
%ADD65RoundRect,0.050000X-0.780000X-0.325000X0.780000X-0.325000X0.780000X0.325000X-0.780000X0.325000X0*%
%ADD66RoundRect,0.150000X-0.712500X-0.100000X0.712500X-0.100000X0.712500X0.100000X-0.712500X0.100000X0*%
%ADD67RoundRect,0.300000X-0.675000X-1.625000X0.675000X-1.625000X0.675000X1.625000X-0.675000X1.625000X0*%
%ADD68C,0.700000*%
%ADD69C,1.100000*%
G04 APERTURE END LIST*
D10*
X17225000Y-7665821D02*
X17203571Y-7672964D01*
X17203571Y-7672964D02*
X17196429Y-7680107D01*
X17196429Y-7680107D02*
X17189286Y-7694393D01*
X17189286Y-7694393D02*
X17189286Y-7715821D01*
X17189286Y-7715821D02*
X17196429Y-7730107D01*
X17196429Y-7730107D02*
X17203571Y-7737250D01*
X17203571Y-7737250D02*
X17217857Y-7744393D01*
X17217857Y-7744393D02*
X17275000Y-7744393D01*
X17275000Y-7744393D02*
X17275000Y-7594393D01*
X17275000Y-7594393D02*
X17225000Y-7594393D01*
X17225000Y-7594393D02*
X17210714Y-7601536D01*
X17210714Y-7601536D02*
X17203571Y-7608678D01*
X17203571Y-7608678D02*
X17196429Y-7622964D01*
X17196429Y-7622964D02*
X17196429Y-7637250D01*
X17196429Y-7637250D02*
X17203571Y-7651536D01*
X17203571Y-7651536D02*
X17210714Y-7658678D01*
X17210714Y-7658678D02*
X17225000Y-7665821D01*
X17225000Y-7665821D02*
X17275000Y-7665821D01*
X17096429Y-7594393D02*
X17067857Y-7594393D01*
X17067857Y-7594393D02*
X17053571Y-7601536D01*
X17053571Y-7601536D02*
X17039286Y-7615821D01*
X17039286Y-7615821D02*
X17032143Y-7644393D01*
X17032143Y-7644393D02*
X17032143Y-7694393D01*
X17032143Y-7694393D02*
X17039286Y-7722964D01*
X17039286Y-7722964D02*
X17053571Y-7737250D01*
X17053571Y-7737250D02*
X17067857Y-7744393D01*
X17067857Y-7744393D02*
X17096429Y-7744393D01*
X17096429Y-7744393D02*
X17110714Y-7737250D01*
X17110714Y-7737250D02*
X17125000Y-7722964D01*
X17125000Y-7722964D02*
X17132143Y-7694393D01*
X17132143Y-7694393D02*
X17132143Y-7644393D01*
X17132143Y-7644393D02*
X17125000Y-7615821D01*
X17125000Y-7615821D02*
X17110714Y-7601536D01*
X17110714Y-7601536D02*
X17096429Y-7594393D01*
X16989286Y-7594393D02*
X16903571Y-7594393D01*
X16946429Y-7744393D02*
X16946429Y-7594393D01*
D11*
%TO.C,J1*%
X15231500Y-9650000D03*
D12*
X15231500Y-9900000D03*
X15231500Y-10100000D03*
X15231500Y-10350000D03*
D13*
X15291500Y-9343000D03*
D14*
X15709500Y-10000000D03*
D13*
X15291500Y-10657000D03*
%TD*%
D15*
%TO.C,J7*%
X14660000Y-10652500D03*
D16*
X14380000Y-10437500D03*
D15*
X14100000Y-10652500D03*
%TD*%
D17*
%TO.C,TP5*%
X15462500Y-11030000D03*
D18*
X15716500Y-11030000D03*
%TD*%
D19*
%TO.C,BT2*%
X17747000Y-12406000D03*
X16173000Y-6886000D03*
D20*
X17747000Y-6048000D03*
D21*
X16960000Y-6048000D03*
X16960000Y-13270000D03*
%TD*%
D22*
%TO.C,TP7*%
X13780000Y-11360000D03*
D18*
X13780000Y-11614000D03*
%TD*%
D23*
%TO.C,J6*%
X14300000Y-9300000D03*
D24*
X14180000Y-9830000D03*
X14550000Y-9580000D03*
D25*
X14760000Y-9150000D03*
%TD*%
D26*
%TO.C,SW6*%
X12617500Y-14240000D03*
X12917500Y-14240000D03*
%TD*%
D19*
%TO.C,BT1*%
X11653000Y-6913000D03*
X13227000Y-12433000D03*
D20*
X11653000Y-13271000D03*
D21*
X12440000Y-13271000D03*
X12440000Y-6049000D03*
%TD*%
D27*
%TO.C,D10*%
X11640000Y-12402500D03*
D28*
X11640000Y-12897500D03*
%TD*%
D29*
%TO.C,Q3*%
X15315000Y-13444000D03*
X15315000Y-13254000D03*
X15657000Y-13349000D03*
%TD*%
D30*
%TO.C,R21*%
X15905000Y-13350000D03*
X16215000Y-13350000D03*
%TD*%
D31*
%TO.C,L1*%
X13410750Y-8120000D03*
X12509250Y-8120000D03*
%TD*%
D32*
%TO.C,Q2*%
X16407500Y-13007000D03*
X16597500Y-13007000D03*
X16502500Y-13349000D03*
%TD*%
D33*
%TO.C,R13*%
X15775476Y-11315476D03*
X15904523Y-11444523D03*
%TD*%
D34*
%TO.C,U2*%
X14237500Y-11263500D03*
X14287500Y-11263500D03*
X14337500Y-11263500D03*
X14387500Y-11263500D03*
X14437500Y-11263500D03*
X14487500Y-11263500D03*
X14537500Y-11263500D03*
D35*
X14624500Y-11350500D03*
X14624500Y-11400500D03*
X14624500Y-11450500D03*
X14624500Y-11500500D03*
X14624500Y-11550500D03*
X14624500Y-11600500D03*
X14624500Y-11650500D03*
D34*
X14537500Y-11737500D03*
X14487500Y-11737500D03*
X14437500Y-11737500D03*
X14387500Y-11737500D03*
X14337500Y-11737500D03*
X14287500Y-11737500D03*
X14237500Y-11737500D03*
D35*
X14150500Y-11650500D03*
X14150500Y-11600500D03*
X14150500Y-11550500D03*
X14150500Y-11500500D03*
X14150500Y-11450500D03*
X14150500Y-11400500D03*
X14150500Y-11350500D03*
D36*
X14387500Y-11500500D03*
%TD*%
D33*
%TO.C,R12*%
X15662976Y-11427476D03*
X15792023Y-11556523D03*
%TD*%
D37*
%TO.C,R8*%
X16920000Y-13746250D03*
X16920000Y-13928750D03*
%TD*%
%TO.C,R11*%
X17800000Y-13746250D03*
X17800000Y-13928750D03*
%TD*%
D38*
%TO.C,C3*%
X12780000Y-12733750D03*
X12780000Y-12906250D03*
%TD*%
D39*
%TO.C,C7*%
X14593750Y-11061000D03*
X14906250Y-11061000D03*
%TD*%
D40*
%TO.C,C8*%
X14793750Y-11270000D03*
X14966250Y-11270000D03*
%TD*%
D41*
%TO.C,R2*%
X13371250Y-12730000D03*
X13188750Y-12730000D03*
%TD*%
D42*
%TO.C,C1*%
X12780000Y-12556250D03*
X12780000Y-12383750D03*
%TD*%
D43*
%TO.C,R19*%
X14125500Y-8590000D03*
X14308000Y-8590000D03*
%TD*%
D44*
%TO.C,Q1*%
X16300000Y-12385000D03*
X16300000Y-12195000D03*
X16600000Y-12290000D03*
%TD*%
D45*
%TO.C,J2*%
X12164500Y-8871000D03*
X12669500Y-8871000D03*
X12164500Y-9125000D03*
X12669500Y-9125000D03*
X12164500Y-9379000D03*
X12669500Y-9379000D03*
X12164500Y-9633000D03*
X12669500Y-9633000D03*
X12164500Y-9887000D03*
X12669500Y-9887000D03*
X12164500Y-10141000D03*
X12669500Y-10141000D03*
X12164500Y-10395000D03*
X12669500Y-10395000D03*
X12164500Y-10649000D03*
X12669500Y-10649000D03*
X12164500Y-10903000D03*
X12669500Y-10903000D03*
X12164500Y-11157000D03*
X12669500Y-11157000D03*
X12164500Y-11411000D03*
X12669500Y-11411000D03*
X12164500Y-11665000D03*
X12669500Y-11665000D03*
X12164500Y-11919000D03*
X12669500Y-11919000D03*
%TD*%
D40*
%TO.C,C4*%
X15186750Y-8570000D03*
X15359250Y-8570000D03*
%TD*%
D46*
%TO.C,D16*%
X15582500Y-9230000D03*
X15897500Y-9230000D03*
%TD*%
D47*
%TO.C,R17*%
X12940000Y-12911250D03*
X12940000Y-12728750D03*
%TD*%
D41*
%TO.C,R14*%
X16641250Y-12550000D03*
X16458750Y-12550000D03*
%TD*%
D38*
%TO.C,C6*%
X14880000Y-12093750D03*
X14880000Y-12266250D03*
%TD*%
D48*
%TO.C,U3*%
X13082500Y-6970500D03*
X13082500Y-6843500D03*
X13082500Y-6716500D03*
X13082500Y-6589500D03*
X13597500Y-6589500D03*
X13597500Y-6716500D03*
X13597500Y-6843500D03*
X13597500Y-6970500D03*
%TD*%
D49*
%TO.C,D6*%
X15450000Y-10085000D03*
X15450000Y-10335000D03*
%TD*%
D50*
%TO.C,R24*%
X13744523Y-12344523D03*
X13615476Y-12215476D03*
%TD*%
D51*
%TO.C,Q4*%
X13741750Y-8800000D03*
X13931750Y-8800000D03*
X13836750Y-9100000D03*
%TD*%
D33*
%TO.C,R23*%
X13735476Y-12095476D03*
X13864523Y-12224523D03*
%TD*%
D52*
%TO.C,C11*%
X16500000Y-6406250D03*
X16500000Y-6693750D03*
%TD*%
D44*
%TO.C,Q5*%
X15690000Y-12970000D03*
X15690000Y-12780000D03*
X15990000Y-12875000D03*
%TD*%
D47*
%TO.C,R16*%
X12940000Y-12561250D03*
X12940000Y-12378750D03*
%TD*%
D43*
%TO.C,R25*%
X14518750Y-12090000D03*
X14701250Y-12090000D03*
%TD*%
D53*
%TO.C,C9*%
X12820000Y-6963750D03*
X12820000Y-7276250D03*
%TD*%
D54*
%TO.C,C14*%
X17403750Y-7130000D03*
X17116250Y-7130000D03*
%TD*%
D55*
%TO.C,U4*%
X16775000Y-6866000D03*
X16775000Y-6636000D03*
D56*
X17405000Y-6636000D03*
D55*
X16775000Y-6406000D03*
%TD*%
D39*
%TO.C,C13*%
X13243750Y-8780000D03*
X13556250Y-8780000D03*
%TD*%
D33*
%TO.C,R5*%
X13854523Y-11984523D03*
X13725476Y-11855476D03*
%TD*%
D57*
%TO.C,D7*%
X15450000Y-9912500D03*
X15450000Y-9662500D03*
%TD*%
D47*
%TO.C,R26*%
X15470000Y-12960000D03*
X15470000Y-12777500D03*
%TD*%
D58*
%TO.C,D5*%
X15560000Y-9480000D03*
X15810000Y-9480000D03*
%TD*%
D45*
%TO.C,J3*%
X16730500Y-8872000D03*
X17235500Y-8872000D03*
X16730500Y-9126000D03*
X17235500Y-9126000D03*
X16730500Y-9380000D03*
X17235500Y-9380000D03*
X16730500Y-9634000D03*
X17235500Y-9634000D03*
X16730500Y-9888000D03*
X17235500Y-9888000D03*
X16730500Y-10142000D03*
X17235500Y-10142000D03*
X16730500Y-10396000D03*
X17235500Y-10396000D03*
X16730500Y-10650000D03*
X17235500Y-10650000D03*
X16730500Y-10904000D03*
X17235500Y-10904000D03*
X16730500Y-11158000D03*
X17235500Y-11158000D03*
X16730500Y-11412000D03*
X17235500Y-11412000D03*
X16730500Y-11666000D03*
X17235500Y-11666000D03*
X16730500Y-11920000D03*
X17235500Y-11920000D03*
%TD*%
D37*
%TO.C,R6*%
X16402500Y-13746250D03*
X16402500Y-13928750D03*
%TD*%
D44*
%TO.C,Q7*%
X12395000Y-6572000D03*
X12395000Y-6382000D03*
X12695000Y-6477000D03*
%TD*%
D59*
%TO.C,J4*%
X13933500Y-8048500D03*
D18*
X13933500Y-8302500D03*
X14187500Y-8048500D03*
X14187500Y-8302500D03*
X14441500Y-8048500D03*
X14441500Y-8302500D03*
X14695500Y-8048500D03*
X14695500Y-8302500D03*
X14949500Y-8048500D03*
X14949500Y-8302500D03*
X15203500Y-8048500D03*
X15203500Y-8302500D03*
X15457500Y-8048500D03*
X15457500Y-8302500D03*
%TD*%
D43*
%TO.C,R31*%
X14787500Y-11500000D03*
X14970000Y-11500000D03*
%TD*%
D47*
%TO.C,R28*%
X15140000Y-11131250D03*
X15140000Y-10948750D03*
%TD*%
D60*
%TO.C,R20*%
X14316750Y-8770000D03*
X14116750Y-8770000D03*
%TD*%
D41*
%TO.C,R3*%
X13371250Y-13050000D03*
X13188750Y-13050000D03*
%TD*%
D37*
%TO.C,R22*%
X11980000Y-12640000D03*
X11980000Y-12822500D03*
%TD*%
D61*
%TO.C,D15*%
X13320000Y-7230000D03*
X13070000Y-7230000D03*
%TD*%
D62*
%TO.C,C12*%
X13176250Y-7470000D03*
X13383750Y-7470000D03*
%TD*%
D40*
%TO.C,C10*%
X13853750Y-6840000D03*
X14026250Y-6840000D03*
%TD*%
D63*
%TO.C,F1*%
X11981250Y-12350000D03*
X12278750Y-12350000D03*
%TD*%
D47*
%TO.C,R15*%
X16810000Y-12550000D03*
X16810000Y-12367500D03*
%TD*%
D64*
%TO.C,D8*%
X14126750Y-9020000D03*
X14566750Y-9020000D03*
%TD*%
D37*
%TO.C,R29*%
X15140000Y-11308750D03*
X15140000Y-11491250D03*
%TD*%
D65*
%TO.C,IC1*%
X12255000Y-12825000D03*
X12255000Y-12730000D03*
X12255000Y-12635000D03*
X12525000Y-12635000D03*
X12525000Y-12730000D03*
X12525000Y-12825000D03*
%TD*%
D66*
%TO.C,IC2*%
X14558750Y-8767500D03*
X14558750Y-8702500D03*
X14558750Y-8637500D03*
X14558750Y-8572500D03*
X14981250Y-8572500D03*
X14981250Y-8637500D03*
X14981250Y-8702500D03*
X14981250Y-8767500D03*
%TD*%
D37*
%TO.C,R10*%
X17100000Y-13746250D03*
X17100000Y-13928750D03*
%TD*%
%TO.C,R9*%
X17620000Y-13746250D03*
X17620000Y-13928750D03*
%TD*%
D67*
%TO.C,D14*%
X13602500Y-7290000D03*
X14057500Y-7290000D03*
%TD*%
D37*
%TO.C,R7*%
X16220000Y-13746250D03*
X16220000Y-13928750D03*
%TD*%
D41*
%TO.C,R4*%
X13371250Y-12890000D03*
X13188750Y-12890000D03*
%TD*%
D68*
X15709000Y-13570000D03*
X13196000Y-13656000D03*
D69*
X17070000Y-9250000D03*
X17524507Y-13550493D03*
D68*
X12460000Y-13679550D03*
X14650000Y-11201000D03*
X14810000Y-10140000D03*
X17460000Y-12550000D03*
X13557550Y-11930000D03*
D69*
X17460000Y-9250000D03*
D68*
X15129000Y-10832000D03*
X15450000Y-6854750D03*
X15450000Y-7166500D03*
X12859000Y-12819000D03*
X11956000Y-9782450D03*
X15354167Y-13654750D03*
X12170000Y-11280000D03*
X16925000Y-12455000D03*
X15293000Y-9192000D03*
X16725000Y-11285000D03*
X12861000Y-12468000D03*
X12800000Y-13200000D03*
X16660000Y-14100000D03*
X11785000Y-13495000D03*
X14580000Y-12775000D03*
X13985000Y-9560000D03*
X12910000Y-7440000D03*
X13690000Y-13300000D03*
X17237500Y-12055000D03*
X16860000Y-8080000D03*
X17910000Y-9880000D03*
X17731000Y-13340000D03*
X16725000Y-11530000D03*
X13544784Y-12644784D03*
X15270000Y-11040000D03*
X13570000Y-10460000D03*
X14173001Y-11270500D03*
X16871000Y-13651000D03*
X12404000Y-13987550D03*
X15358000Y-6648000D03*
X12690000Y-14040000D03*
X12860000Y-12990000D03*
X15120000Y-12040000D03*
X14826000Y-7196000D03*
X15735000Y-9245000D03*
X15708000Y-12312000D03*
X14389000Y-13143000D03*
X14931000Y-13252000D03*
X14325000Y-10987000D03*
X17050000Y-6860000D03*
X17565000Y-12980000D03*
X11514000Y-6214000D03*
X12154167Y-10534750D03*
X17245000Y-11285000D03*
X15420000Y-12660000D03*
X16660000Y-13600000D03*
X15650000Y-11770000D03*
X15136000Y-13111000D03*
X16170000Y-14370000D03*
X14633000Y-10865000D03*
X15450000Y-7478250D03*
X12262000Y-14151550D03*
X17900000Y-12670000D03*
X14249000Y-12689000D03*
X14800000Y-13660000D03*
X12083000Y-12725000D03*
X13430000Y-8490000D03*
X17005000Y-9460000D03*
X15425000Y-11430000D03*
X15006750Y-8930000D03*
X17327550Y-12466000D03*
X15994167Y-7574750D03*
X13073400Y-12639000D03*
X13245450Y-7110000D03*
X16100000Y-13520000D03*
X14234000Y-7840000D03*
X16395000Y-11940000D03*
X13560755Y-9940050D03*
X16440000Y-12290000D03*
X14740000Y-10290000D03*
X12410000Y-9420000D03*
X17910000Y-5890000D03*
X15136000Y-12845000D03*
X14267500Y-11620500D03*
X16469000Y-6869000D03*
X12170000Y-11800000D03*
X15040000Y-10290000D03*
X17165671Y-12619950D03*
X17914167Y-7974750D03*
X16725000Y-10774750D03*
X11941000Y-9398000D03*
X12013000Y-8430000D03*
X13422000Y-12247000D03*
X13910000Y-6960000D03*
X12250000Y-14350000D03*
X13550000Y-9420000D03*
X17373000Y-13441000D03*
X12170000Y-10770000D03*
X13143000Y-14240000D03*
X17754167Y-8774750D03*
X17580000Y-12130000D03*
X13820000Y-7700000D03*
X13510000Y-13650000D03*
X16640000Y-7030000D03*
X15037000Y-11040000D03*
X14824167Y-7654750D03*
X11975000Y-13425000D03*
X13363341Y-6852341D03*
X15190000Y-7325000D03*
X11500000Y-13494750D03*
X17815000Y-13575000D03*
X12170000Y-11030000D03*
X13820000Y-8660000D03*
X13490000Y-11810000D03*
X13893389Y-11512950D03*
X12861000Y-12270000D03*
X14330000Y-13250000D03*
X11490000Y-14360000D03*
X11994167Y-14294750D03*
X17920000Y-14100000D03*
X15363000Y-12970000D03*
X12495000Y-14140000D03*
X12794167Y-10534750D03*
X17580000Y-11090000D03*
X15104000Y-6648000D03*
X13867000Y-11041000D03*
X16730000Y-11795000D03*
X12394167Y-10134750D03*
X13890000Y-7290000D03*
X17910000Y-14360000D03*
X14456000Y-7842000D03*
X13000000Y-12170000D03*
X16985000Y-11675000D03*
X16660000Y-13842193D03*
X17360000Y-8440000D03*
X12770000Y-12170000D03*
X15358000Y-13175000D03*
X16990000Y-10046000D03*
X17354000Y-6311000D03*
X14507500Y-11620500D03*
X16660000Y-14370000D03*
X14681533Y-10050000D03*
X15815000Y-13092500D03*
X13164000Y-13442000D03*
X17162000Y-13352000D03*
X11500000Y-12705000D03*
X15327000Y-8812000D03*
X14456000Y-7292000D03*
X17500000Y-13840000D03*
X14580000Y-13100000D03*
X14010000Y-12660000D03*
X16485000Y-12835000D03*
X14650000Y-11750000D03*
X12275000Y-13585000D03*
X16490000Y-9385000D03*
X16050000Y-9750000D03*
X12425000Y-8871000D03*
X15150000Y-11757000D03*
X12720000Y-13580000D03*
X12977500Y-13062500D03*
X12728000Y-9782450D03*
X15420000Y-12456000D03*
X15180000Y-12530000D03*
X14581000Y-13797000D03*
X14340000Y-12420000D03*
X16735000Y-12190000D03*
X13500000Y-12850000D03*
X13452000Y-12530000D03*
X16128000Y-9359000D03*
X16300000Y-6630000D03*
X14234000Y-6870000D03*
X16314167Y-7894750D03*
X15040000Y-12290000D03*
X13650000Y-11030000D03*
X14216000Y-13173000D03*
X11980000Y-12990000D03*
X16570000Y-7590000D03*
X15754167Y-7094750D03*
X17240000Y-11795000D03*
X17245000Y-11545000D03*
X12030000Y-7700000D03*
X13750000Y-10780000D03*
X12370000Y-13860000D03*
X15450000Y-7790000D03*
X15250000Y-12160000D03*
X17360000Y-14100000D03*
X14610000Y-12300000D03*
X12071000Y-5896000D03*
X13124000Y-7746000D03*
X12168000Y-13987550D03*
X17790000Y-6400000D03*
X15674167Y-7894750D03*
X13610000Y-12380000D03*
X16725000Y-11036000D03*
X17634850Y-7496000D03*
X13776000Y-11216000D03*
X14787000Y-11011000D03*
X17430000Y-9005000D03*
X16510000Y-8870000D03*
X16380000Y-10120000D03*
X14020000Y-12290000D03*
X16983000Y-10396000D03*
X14552000Y-6648000D03*
X17910000Y-10520000D03*
X13400000Y-13441400D03*
X16314167Y-7174750D03*
X15420000Y-12240000D03*
X14828000Y-6614000D03*
X14388000Y-12753000D03*
X13150000Y-13583000D03*
X17580000Y-9810000D03*
X17720000Y-8310000D03*
X13996000Y-13441400D03*
X17911000Y-13073000D03*
X14074167Y-13654750D03*
X14796750Y-8570000D03*
X14611000Y-11277000D03*
X13280000Y-12970000D03*
X15830000Y-13795000D03*
X11785000Y-12705000D03*
X16990000Y-8805000D03*
X13186000Y-13297000D03*
X12071000Y-6214000D03*
X14870000Y-12510000D03*
X17920000Y-13690000D03*
X15914167Y-6614750D03*
X14240000Y-12960393D03*
X17610000Y-9250000D03*
X12865000Y-13351000D03*
X11995000Y-13813000D03*
X12160000Y-11540000D03*
X17720000Y-7210000D03*
X12170000Y-8060000D03*
X17171345Y-13537500D03*
X13181000Y-7326000D03*
X17200000Y-7290000D03*
X14825000Y-8815000D03*
X16140000Y-11095000D03*
X15190000Y-6930000D03*
X13930000Y-10140000D03*
X11500000Y-13130000D03*
X16930000Y-7500000D03*
X16985000Y-9135000D03*
X16508000Y-9640000D03*
X13490000Y-11430000D03*
X17280000Y-13840000D03*
X17327550Y-12200000D03*
X13860000Y-10530000D03*
X14510000Y-12510000D03*
X17910000Y-11800000D03*
X16010000Y-8560000D03*
X15725000Y-12875000D03*
X17910000Y-12200000D03*
X13680000Y-12860000D03*
X16170000Y-14040000D03*
X15543000Y-13788000D03*
X16554167Y-8294750D03*
X13555000Y-8930000D03*
X14222000Y-13441400D03*
X17020000Y-6410000D03*
X17914167Y-9254750D03*
X17914167Y-7334750D03*
X14042000Y-6646000D03*
X14039000Y-10290000D03*
X17360000Y-7830000D03*
X13280000Y-12810000D03*
X13114167Y-13974750D03*
X14340000Y-12130000D03*
X12640000Y-7670000D03*
X12790000Y-13860000D03*
X15800000Y-9630000D03*
X15510000Y-9350000D03*
X15059950Y-9956769D03*
X13520000Y-10140000D03*
X12859000Y-12644000D03*
X15750000Y-12604450D03*
X13990000Y-12970000D03*
X17650095Y-13537437D03*
X17025000Y-12200000D03*
X11514167Y-5894750D03*
X15420000Y-12060000D03*
X14456000Y-6872000D03*
X15994167Y-8214750D03*
X15934000Y-12327000D03*
X16225841Y-12605841D03*
X17580000Y-11730000D03*
X14507500Y-11380500D03*
X13217000Y-13838000D03*
X11785000Y-13130000D03*
X13319500Y-6589500D03*
X13790000Y-6630000D03*
X17360000Y-14370000D03*
X16785000Y-8570000D03*
X13490000Y-10830000D03*
X13918000Y-11687000D03*
X16385000Y-8565000D03*
X17321000Y-13157000D03*
X12646000Y-7273000D03*
X14700000Y-13453000D03*
X12547000Y-6604000D03*
X17354167Y-5894750D03*
X15594167Y-8454750D03*
X17610000Y-6780000D03*
X11720000Y-13980000D03*
X13385000Y-7126000D03*
X16230000Y-9015000D03*
X12968000Y-13573000D03*
X15765000Y-8895000D03*
X17910000Y-11160000D03*
X12067000Y-12563000D03*
X13010000Y-14160000D03*
X12290000Y-7460000D03*
X12760000Y-14340000D03*
X16890000Y-13030000D03*
X13530000Y-13080000D03*
X15835000Y-10575000D03*
X14325000Y-10755000D03*
X14267500Y-11380500D03*
X17580000Y-10450000D03*
X15190000Y-7720000D03*
X15060000Y-11400000D03*
X14234000Y-7290000D03*
X13183000Y-7227000D03*
X13075000Y-10020000D03*
X13320000Y-9770000D03*
X13200000Y-10150000D03*
X12974000Y-11050000D03*
X13075000Y-9770000D03*
X12974000Y-11550000D03*
X12974000Y-11300000D03*
X13124000Y-11150000D03*
X13274000Y-11300000D03*
X12400000Y-11800000D03*
X13075000Y-10250000D03*
X13325000Y-10250000D03*
X12400000Y-11275000D03*
X12907000Y-11991000D03*
X12425000Y-11993000D03*
X13124000Y-11450000D03*
X12425000Y-11050000D03*
X13274000Y-11050000D03*
X13325000Y-10020000D03*
X13333500Y-6716500D03*
X12950000Y-11800000D03*
X13274000Y-11550000D03*
X12400000Y-11550000D03*
X13200000Y-9900000D03*
X13133597Y-13361518D03*
X12780000Y-12255000D03*
X12780000Y-13020000D03*
X11919000Y-11885000D03*
X12132000Y-12170000D03*
X11915805Y-12064195D03*
X13460000Y-6844000D03*
X13245450Y-6970000D03*
X14426750Y-8660000D03*
X14690000Y-8800000D03*
X11600000Y-9180000D03*
X13736750Y-9180000D03*
X11600000Y-9020000D03*
X11800000Y-9020000D03*
X13736750Y-9020000D03*
X11800000Y-9180000D03*
X13936750Y-9020000D03*
X11930000Y-12170000D03*
X11700000Y-9100000D03*
X13936750Y-9180000D03*
X14949000Y-10867000D03*
X14370000Y-11142500D03*
X14455000Y-11142500D03*
X14512000Y-13298000D03*
X14306000Y-13504000D03*
X14406750Y-8870000D03*
X14206750Y-8870000D03*
X15120000Y-8720000D03*
X15969375Y-13109375D03*
X15410000Y-13110000D03*
X14036002Y-11596385D03*
X13965836Y-11227096D03*
X14062450Y-11693714D03*
X11938000Y-7888000D03*
X11840000Y-13925000D03*
X12250250Y-13927750D03*
X13950000Y-12038000D03*
X13475000Y-12033500D03*
X16310000Y-14065000D03*
X17010000Y-14065000D03*
X17710000Y-14065000D03*
X13951000Y-13199000D03*
X14047000Y-13193000D03*
X15017500Y-12034000D03*
X13960000Y-12540000D03*
X13390050Y-13160000D03*
X13450000Y-13230000D03*
X16052500Y-11890000D03*
X15967500Y-11890000D03*
X12600000Y-12350000D03*
X12450000Y-12350000D03*
X12600000Y-12490000D03*
X12600000Y-12220000D03*
X12450000Y-12220000D03*
X12450000Y-12490000D03*
X12869999Y-12165467D03*
X16298750Y-13850000D03*
X16998750Y-13850000D03*
X17704375Y-13844375D03*
X14973911Y-7915725D03*
X14796000Y-11400500D03*
X13060000Y-13398996D03*
X12934000Y-13393000D03*
X12856500Y-13270500D03*
X14010000Y-12130000D03*
X14370000Y-12040000D03*
G36*
X15368760Y-13208177D02*
G01*
X15368816Y-13208349D01*
X15368709Y-13208496D01*
X15367836Y-13208941D01*
X15369640Y-13216453D01*
X15369603Y-13216624D01*
X15369445Y-13216700D01*
X15346554Y-13216700D01*
X15346397Y-13216624D01*
X15346360Y-13216453D01*
X15348163Y-13208941D01*
X15347290Y-13208496D01*
X15347184Y-13208349D01*
X15347240Y-13208177D01*
X15347412Y-13208121D01*
X15358000Y-13209797D01*
X15368587Y-13208121D01*
X15368760Y-13208177D01*
G37*
G36*
X11940760Y-12203177D02*
G01*
X11940816Y-12203349D01*
X11940709Y-12203496D01*
X11937874Y-12204941D01*
X11939641Y-12212300D01*
X12027137Y-12212300D01*
X12027311Y-12212400D01*
X12027311Y-12212600D01*
X12027137Y-12212700D01*
X11935012Y-12212700D01*
X11928185Y-12213492D01*
X11921853Y-12216287D01*
X11921657Y-12216267D01*
X11921573Y-12216088D01*
X11921685Y-12215925D01*
X11929888Y-12211915D01*
X11928832Y-12204876D01*
X11928889Y-12204704D01*
X11929061Y-12204649D01*
X11930000Y-12204797D01*
X11940587Y-12203121D01*
X11940760Y-12203177D01*
G37*
M02*
