%TF.GenerationSoftware,KiCad,Pcbnew,(5.1.6)-1*%
%TF.CreationDate,2022-10-11T16:22:45+02:00*%
%TF.ProjectId,ZumoComSystem,5a756d6f-436f-46d5-9379-7374656d2e6b,V1.2*%
%TF.SameCoordinates,Original*%
%TF.FileFunction,Plated,1,2,PTH,Mixed*%
%TF.FilePolarity,Positive*%
%FSLAX46Y46*%
G04 Gerber Fmt 4.6, Leading zero omitted, Abs format (unit mm)*
G04 Created by KiCad (PCBNEW (5.1.6)-1) date 2022-10-11 16:22:45*
%MOMM*%
%LPD*%
G01*
G04 APERTURE LIST*
%TA.AperFunction,ViaDrill*%
%ADD10C,0.300000*%
%TD*%
%TA.AperFunction,ViaDrill*%
%ADD11C,0.400000*%
%TD*%
G04 aperture for slot hole*
%TA.AperFunction,ComponentDrill*%
%ADD12C,0.500000*%
%TD*%
%TA.AperFunction,ComponentDrill*%
%ADD13C,0.900000*%
%TD*%
%TA.AperFunction,ComponentDrill*%
%ADD14C,1.000000*%
%TD*%
%TA.AperFunction,ComponentDrill*%
%ADD15C,1.020000*%
%TD*%
G04 aperture for slot hole*
%TA.AperFunction,ComponentDrill*%
%ADD16C,1.300000*%
%TD*%
%TA.AperFunction,ComponentDrill*%
%ADD17C,1.320000*%
%TD*%
%TA.AperFunction,ComponentDrill*%
%ADD18C,1.500000*%
%TD*%
%TA.AperFunction,ComponentDrill*%
%ADD19C,2.000000*%
%TD*%
%TA.AperFunction,ComponentDrill*%
%ADD20C,3.000000*%
%TD*%
G04 APERTURE END LIST*
D10*
X114700000Y-143700000D03*
X115000000Y-127050000D03*
X115000000Y-131500000D03*
X115141667Y-58947500D03*
X115141667Y-134947500D03*
X116000000Y-90600000D03*
X116000000Y-92600000D03*
X117000000Y-91600000D03*
X117200000Y-134800000D03*
X117200000Y-139800000D03*
X117850000Y-127050000D03*
X117850000Y-131500000D03*
X118000000Y-90600000D03*
X118000000Y-92600000D03*
X118530542Y-139414440D03*
X118700000Y-61000000D03*
X119158051Y-120641949D03*
X119190000Y-118850000D03*
X119380000Y-78880000D03*
X119410000Y-93980000D03*
X119480000Y-121630000D03*
X119560000Y-97640000D03*
X119750000Y-134250000D03*
X119800000Y-129900000D03*
X119941667Y-142947500D03*
X119950000Y-138130000D03*
X120130000Y-84300000D03*
X120300000Y-77000000D03*
X120650000Y-125650000D03*
X121440000Y-121580000D03*
X121540000Y-139960000D03*
X121541667Y-105347500D03*
X121600000Y-115400000D03*
X121700000Y-80600000D03*
X121700000Y-107700000D03*
X121700000Y-110300000D03*
X121700000Y-112800000D03*
X121700000Y-118000000D03*
X122500000Y-143500000D03*
X122502500Y-139277500D03*
X122600000Y-141400000D03*
X122750000Y-135850000D03*
X122900000Y-74600000D03*
X123700000Y-138600000D03*
X123941667Y-101347500D03*
X124000000Y-110500000D03*
X124000000Y-112750000D03*
X124000000Y-115500000D03*
X124000000Y-118000000D03*
X124060000Y-139930000D03*
X124100000Y-94200000D03*
X124250000Y-88710000D03*
X124250000Y-119930000D03*
X124500000Y-122200000D03*
X124500000Y-123500000D03*
X124500000Y-124900000D03*
X124599996Y-136800000D03*
X125330000Y-69320000D03*
X125530000Y-66250000D03*
X126000000Y-122200000D03*
X126000000Y-123500000D03*
X126000000Y-124900000D03*
X126400000Y-76700000D03*
X126600000Y-72500000D03*
X127000000Y-140600000D03*
X127200000Y-135800000D03*
X127280000Y-97610000D03*
X127600000Y-143400000D03*
X127750000Y-122500004D03*
X127750000Y-130049998D03*
X127780000Y-121650000D03*
X127870000Y-138540000D03*
X127941667Y-105347500D03*
X128000000Y-132000000D03*
X128564997Y-132705003D03*
X128590000Y-126440000D03*
X128590000Y-128190000D03*
X128590000Y-129910000D03*
X128610000Y-122700000D03*
X128610000Y-124680000D03*
X128650000Y-133510000D03*
X128699990Y-121654675D03*
X129070000Y-119910000D03*
X129100000Y-74400000D03*
X129340000Y-133930000D03*
X129500000Y-118000000D03*
X129680000Y-135730000D03*
X129740000Y-110500000D03*
X129740000Y-113000000D03*
X129740000Y-115500000D03*
X129775000Y-130625000D03*
X129990000Y-121970000D03*
X130599997Y-133989961D03*
X130650000Y-126390000D03*
X130750000Y-97250000D03*
X130750000Y-100000000D03*
X130750000Y-102500000D03*
X131141667Y-139747500D03*
X131200000Y-71400000D03*
X131240000Y-77460000D03*
X131240000Y-111500000D03*
X131240000Y-114500000D03*
X131335971Y-133615185D03*
X131400000Y-73100000D03*
X131430000Y-142660000D03*
X131500000Y-135830000D03*
X131640000Y-134420000D03*
X131860000Y-132970000D03*
X131960000Y-136560000D03*
X132000000Y-98500000D03*
X132000000Y-101250000D03*
X132300000Y-71100000D03*
X132400000Y-69700000D03*
X132540000Y-66450000D03*
X132740000Y-110500000D03*
X132740000Y-113000000D03*
X132740000Y-115500000D03*
X132890000Y-128070000D03*
X132910000Y-129590000D03*
X133250000Y-97250000D03*
X133250000Y-100000000D03*
X133250000Y-102500000D03*
X133800000Y-67200000D03*
X133800000Y-68690000D03*
X134200000Y-65780000D03*
X134220000Y-122470000D03*
X134341667Y-136547500D03*
X134520000Y-125300000D03*
X134600000Y-134400000D03*
X134820000Y-98690000D03*
X134850000Y-106200000D03*
X134900000Y-128900000D03*
X134900000Y-130400000D03*
X134940000Y-127880000D03*
X134990000Y-119270000D03*
X135000000Y-120750000D03*
X135250000Y-123000000D03*
X135500000Y-94200000D03*
X135560000Y-114360000D03*
X135700000Y-104600000D03*
X135900000Y-109300000D03*
X136005032Y-116800000D03*
X136400000Y-100400000D03*
X136501662Y-105600362D03*
X136590000Y-113150000D03*
X136590000Y-115820000D03*
X136600000Y-107100000D03*
X136610000Y-123640000D03*
X136610000Y-126440000D03*
X136620000Y-132590000D03*
X136630000Y-117490000D03*
X136730000Y-129670000D03*
X136870000Y-84380000D03*
X137400000Y-115050020D03*
X137850000Y-69660000D03*
X138200000Y-77000000D03*
X138574990Y-116800000D03*
X138710000Y-102710000D03*
X138800000Y-117600000D03*
X138900000Y-72900000D03*
X139000000Y-113700000D03*
X139100000Y-69600000D03*
X139300000Y-111260000D03*
X139320000Y-118440000D03*
X139910546Y-131525556D03*
X139960000Y-134400000D03*
X140055010Y-113700000D03*
X140100000Y-109600000D03*
X140100000Y-121350000D03*
X140240000Y-119340000D03*
X140370000Y-127680000D03*
X140380000Y-129630000D03*
X140600000Y-98800000D03*
X140600000Y-130770000D03*
X140710000Y-132770000D03*
X140741667Y-136547500D03*
X141000000Y-114800000D03*
X141000000Y-117200000D03*
X141090000Y-124690000D03*
X141541667Y-90147500D03*
X141900000Y-68700000D03*
X141900000Y-72900000D03*
X141900000Y-78400000D03*
X142130000Y-127450000D03*
X142160000Y-131730000D03*
X142220000Y-134400000D03*
X142970000Y-123080000D03*
X143060001Y-135040000D03*
X143141667Y-84547500D03*
X143400000Y-114800000D03*
X143400000Y-117200000D03*
X143500000Y-101250000D03*
X143880000Y-127530000D03*
X143890000Y-131430000D03*
X144400000Y-68700000D03*
X144400000Y-72900000D03*
X144400000Y-78400000D03*
X144600000Y-113700000D03*
X144630000Y-121510000D03*
X144741667Y-93347500D03*
X145000000Y-112500000D03*
X145120003Y-132980000D03*
X145600000Y-114200000D03*
X146000000Y-110050000D03*
X146250000Y-125410000D03*
X146250000Y-127750000D03*
X146250000Y-131000000D03*
X146341667Y-87747500D03*
X146580000Y-121410000D03*
X147000000Y-134530000D03*
X147150000Y-103150000D03*
X147600000Y-105100000D03*
X147600000Y-111800000D03*
X147750000Y-125500000D03*
X147870000Y-114560000D03*
X147980000Y-121984957D03*
X148000000Y-136600000D03*
X148241667Y-76547500D03*
X148260000Y-71960000D03*
X148280000Y-66140000D03*
X148490000Y-117610000D03*
X148620000Y-121380000D03*
X149110000Y-124150000D03*
X149250000Y-125000000D03*
X149310000Y-132520000D03*
X149500000Y-127750000D03*
X149500000Y-131000000D03*
X149700000Y-114900000D03*
X149739115Y-79157252D03*
X149840000Y-105380000D03*
X149870011Y-123710000D03*
X150345010Y-122425535D03*
X150800000Y-121760000D03*
X150810000Y-124670000D03*
X151000000Y-109050000D03*
X151229078Y-125504978D03*
X151360000Y-128450000D03*
X151360000Y-131110000D03*
X151780000Y-103720000D03*
X151900000Y-69300000D03*
X151900000Y-73250000D03*
X151900000Y-77200000D03*
X152826985Y-130606985D03*
X153100000Y-90700000D03*
X153140000Y-121510000D03*
X153160000Y-124820000D03*
X153180000Y-123140000D03*
X153200001Y-113199999D03*
X153210000Y-126860000D03*
X153350000Y-115500000D03*
X153541667Y-136547500D03*
X153580000Y-131750000D03*
X153630000Y-129700000D03*
X153810000Y-120170000D03*
X153950000Y-114750000D03*
X154500000Y-68547500D03*
X154500000Y-71665000D03*
X154500000Y-74782500D03*
X154500000Y-77900000D03*
X154600000Y-113600000D03*
X154750000Y-110030000D03*
X155000000Y-102500000D03*
X155141667Y-93347500D03*
X155430000Y-137880000D03*
X155941667Y-84547500D03*
X156440000Y-116750000D03*
X156500000Y-117700000D03*
X156741667Y-78947500D03*
X156800000Y-91200000D03*
X156980000Y-108980000D03*
X157000000Y-121290000D03*
X157040000Y-125950000D03*
X157080000Y-123120000D03*
X157080000Y-131290000D03*
X157540000Y-127910000D03*
X157541667Y-70947500D03*
X157690000Y-129780000D03*
X157700000Y-113100000D03*
X158341667Y-88547500D03*
X158760000Y-131300000D03*
X158790000Y-119480000D03*
X158970000Y-136440000D03*
X159141667Y-66147500D03*
X159300000Y-111500000D03*
X159300000Y-114700000D03*
X159300000Y-116800000D03*
X159340000Y-123270000D03*
X159370000Y-129940000D03*
X159420000Y-125680000D03*
X159710000Y-120910000D03*
X159730000Y-127730000D03*
X159760000Y-118280000D03*
X159941667Y-75747500D03*
X159941667Y-82147500D03*
X160000000Y-108800000D03*
X160000000Y-134870000D03*
X160400000Y-130920000D03*
X160500000Y-97500000D03*
X160700000Y-136050000D03*
X160900000Y-113100000D03*
X160970000Y-122860000D03*
X161280000Y-93590000D03*
X161400000Y-139550000D03*
X161541667Y-91747500D03*
X161765000Y-122745000D03*
X161940000Y-136280000D03*
X162341667Y-86147500D03*
X162500000Y-130010000D03*
X162600000Y-141800000D03*
X162660000Y-120590000D03*
X163050000Y-136900000D03*
X163141667Y-71747500D03*
X163141667Y-78947500D03*
X163300000Y-141400000D03*
X163540000Y-124070000D03*
X163600000Y-108900000D03*
X163600000Y-115600000D03*
X163750000Y-135010000D03*
X163800000Y-101200000D03*
X163880000Y-128210000D03*
X164060000Y-93010000D03*
X164100000Y-142300000D03*
X164210000Y-88120000D03*
X164640000Y-125520000D03*
X164720000Y-138770000D03*
X164750000Y-140775000D03*
X164900000Y-131420000D03*
X165080000Y-96400000D03*
X165300000Y-135830000D03*
X165530000Y-120860000D03*
X165541667Y-82947500D03*
X165700000Y-75900000D03*
X166160000Y-133060000D03*
X166220000Y-134370000D03*
X166230000Y-123950000D03*
X166341667Y-90147500D03*
X166341667Y-107747500D03*
X166370000Y-129300000D03*
X166400000Y-112850000D03*
X166580000Y-136980000D03*
X166600000Y-139000000D03*
X167100000Y-63200000D03*
X167196949Y-134993051D03*
X167300000Y-112600000D03*
X167300000Y-115300000D03*
X167340000Y-110360000D03*
X167350000Y-141050000D03*
X167400000Y-143200000D03*
X167650000Y-120375000D03*
X167850000Y-134500000D03*
X168310000Y-138750000D03*
X168560000Y-126920000D03*
X168590000Y-123390000D03*
X168600000Y-80800000D03*
X168650000Y-130250000D03*
X168700000Y-73600000D03*
X168741667Y-86147500D03*
X168800000Y-118000000D03*
X168900000Y-115650000D03*
X169000000Y-70647500D03*
X169080000Y-136620000D03*
X169240000Y-64040000D03*
X169541667Y-93347500D03*
X169580000Y-103780000D03*
X169800000Y-90200000D03*
X169810000Y-115640000D03*
X169850000Y-68950000D03*
X169900000Y-100460000D03*
X169900000Y-137000000D03*
X169910000Y-96380000D03*
X170199990Y-141100000D03*
X170250000Y-65650000D03*
X170280000Y-110950000D03*
X170570000Y-135040000D03*
X170758343Y-115660264D03*
X170900000Y-141900000D03*
X171310000Y-120880000D03*
X171400000Y-122900000D03*
X171580000Y-136350000D03*
X171600000Y-117925000D03*
X171620000Y-133520000D03*
X171640000Y-126130000D03*
X171700000Y-65600000D03*
X171700000Y-68500000D03*
X172300000Y-86500000D03*
X172375000Y-120550000D03*
X172390000Y-107880000D03*
X172450000Y-112920000D03*
X172450000Y-115450000D03*
X172570000Y-138770000D03*
X172741667Y-90147500D03*
X173100000Y-62900000D03*
X173100000Y-65000000D03*
X173210000Y-131570000D03*
X173260000Y-95339986D03*
X173330000Y-124660000D03*
X173340000Y-110330000D03*
X173530000Y-143940000D03*
X173540000Y-140600000D03*
X173541667Y-58947500D03*
X173550000Y-68950000D03*
X173600000Y-78300000D03*
X173730000Y-134410000D03*
X173850000Y-128280000D03*
X173900000Y-71200000D03*
X173960000Y-136400000D03*
X174140705Y-66030695D03*
X174200002Y-64000000D03*
X174240000Y-132690000D03*
X174420000Y-139100000D03*
X175480000Y-136949998D03*
X175710000Y-74960000D03*
X175970000Y-130420000D03*
X176000000Y-141800000D03*
X176340000Y-136650000D03*
X176510000Y-131130000D03*
X176741667Y-64600000D03*
X176741667Y-98947500D03*
X176741667Y-105347500D03*
X176741667Y-111747500D03*
X176741667Y-118147500D03*
X176974999Y-140914997D03*
X177310000Y-133400000D03*
X177380000Y-121110000D03*
X177500000Y-69200000D03*
X177541667Y-87747500D03*
X177541667Y-126947500D03*
X177600000Y-141800000D03*
X178150000Y-135750000D03*
X178190000Y-131950000D03*
X179141667Y-73347500D03*
X179141667Y-79747500D03*
X179141667Y-92547500D03*
X179200000Y-58800000D03*
X179260000Y-130740000D03*
X179300000Y-141600000D03*
X179340000Y-66950000D03*
D11*
X138304000Y-100091000D03*
X157000000Y-100760000D03*
X169880000Y-122070000D03*
X175000000Y-97350000D03*
X175255770Y-135202512D03*
D12*
%TO.C,J3*%
X138950000Y-105425000D02*
X139650000Y-105425000D01*
X141550000Y-103275000D02*
X142650000Y-103275000D01*
X144550000Y-105425000D02*
X145250000Y-105425000D01*
D13*
%TO.C,J1*%
X146925000Y-98400000D03*
X149425000Y-98400000D03*
X151425000Y-98400000D03*
X153925000Y-98400000D03*
D14*
%TO.C,TP1*%
X149160000Y-101900000D03*
X151700000Y-101900000D03*
%TO.C,JP1*%
X149485000Y-87400000D03*
X152025000Y-87400000D03*
X154565000Y-87400000D03*
%TO.C,J5*%
X139335000Y-80485000D03*
X139335000Y-83025000D03*
X141875000Y-80485000D03*
X141875000Y-83025000D03*
X144415000Y-80485000D03*
X144415000Y-83025000D03*
X146955000Y-80485000D03*
X146955000Y-83025000D03*
X149495000Y-80485000D03*
X149495000Y-83025000D03*
X152035000Y-80485000D03*
X152035000Y-83025000D03*
X154575000Y-80485000D03*
X154575000Y-83025000D03*
%TO.C,TP2*%
X141200000Y-111300000D03*
X143740000Y-111300000D03*
D15*
%TO.C,J2*%
X138460000Y-88610000D03*
X138460000Y-91610000D03*
D16*
%TO.C,J1*%
X143855000Y-97300000D02*
X143855000Y-98300000D01*
X150925000Y-93620000D02*
X149925000Y-93620000D01*
X156995000Y-98300000D02*
X156995000Y-97300000D01*
D17*
%TO.C,BT1*%
X124400000Y-60490000D03*
X124400000Y-132710000D03*
%TO.C,BT2*%
X169600000Y-60490000D03*
X169600000Y-132710000D03*
D18*
%TO.C,U2*%
X171700000Y-67100000D03*
D19*
%TO.C,U3*%
X159300000Y-113100000D03*
%TO.C,U5*%
X142200000Y-116000000D03*
D20*
%TO.C,U6*%
X147925000Y-129405000D03*
M02*
