%TF.GenerationSoftware,KiCad,Pcbnew,7.0.1*%
%TF.CreationDate,2023-12-18T13:28:22+01:00*%
%TF.ProjectId,ZumoComSystem,5a756d6f-436f-46d5-9379-7374656d2e6b,V1.2*%
%TF.SameCoordinates,Original*%
%TF.FileFunction,Paste,Bot*%
%TF.FilePolarity,Positive*%
%FSLAX45Y45*%
G04 Gerber Fmt 4.5, Leading zero omitted, Abs format (unit mm)*
G04 Created by KiCad (PCBNEW 7.0.1) date 2023-12-18 13:28:22*
%MOMM*%
%LPD*%
G01*
G04 APERTURE LIST*
G04 Aperture macros list*
%AMRoundRect*
0 Rectangle with rounded corners*
0 $1 Rounding radius*
0 $2 $3 $4 $5 $6 $7 $8 $9 X,Y pos of 4 corners*
0 Add a 4 corners polygon primitive as box body*
4,1,4,$2,$3,$4,$5,$6,$7,$8,$9,$2,$3,0*
0 Add four circle primitives for the rounded corners*
1,1,$1+$1,$2,$3*
1,1,$1+$1,$4,$5*
1,1,$1+$1,$6,$7*
1,1,$1+$1,$8,$9*
0 Add four rect primitives between the rounded corners*
20,1,$1+$1,$2,$3,$4,$5,0*
20,1,$1+$1,$4,$5,$6,$7,0*
20,1,$1+$1,$6,$7,$8,$9,0*
20,1,$1+$1,$8,$9,$2,$3,0*%
G04 Aperture macros list end*
%ADD10C,0.010000*%
%ADD11RoundRect,0.200000X-0.900000X1.275000X-0.900000X-1.275000X0.900000X-1.275000X0.900000X1.275000X0*%
%ADD12RoundRect,0.200000X-0.899998X1.275000X-0.899998X-1.275000X0.899998X-1.275000X0.899998X1.275000X0*%
%ADD13R,1.900000X0.550000*%
%ADD14RoundRect,0.200000X-0.400000X-0.625000X0.400000X-0.625000X0.400000X0.625000X-0.400000X0.625000X0*%
%ADD15R,3.075000X4.850000*%
%ADD16R,0.550000X1.900000*%
%ADD17RoundRect,0.187500X-0.344715X0.008839X0.008839X-0.344715X0.344715X-0.008839X-0.008839X0.344715X0*%
%ADD18RoundRect,0.000000X-0.080000X0.435000X-0.080000X-0.435000X0.080000X-0.435000X0.080000X0.435000X0*%
%ADD19RoundRect,0.000000X0.435000X0.080000X-0.435000X0.080000X-0.435000X-0.080000X0.435000X-0.080000X0*%
%ADD20RoundRect,0.187500X-0.237500X0.250000X-0.237500X-0.250000X0.237500X-0.250000X0.237500X0.250000X0*%
%ADD21RoundRect,0.187500X-0.237500X0.300000X-0.237500X-0.300000X0.237500X-0.300000X0.237500X0.300000X0*%
%ADD22RoundRect,0.200000X-0.412500X-0.650000X0.412500X-0.650000X0.412500X0.650000X-0.412500X0.650000X0*%
%ADD23RoundRect,0.187500X-0.300000X-0.237500X0.300000X-0.237500X0.300000X0.237500X-0.300000X0.237500X0*%
%ADD24RoundRect,0.187500X0.250000X0.237500X-0.250000X0.237500X-0.250000X-0.237500X0.250000X-0.237500X0*%
%ADD25RoundRect,0.187500X0.237500X-0.300000X0.237500X0.300000X-0.237500X0.300000X-0.237500X-0.300000X0*%
%ADD26RoundRect,0.187500X-0.250000X-0.237500X0.250000X-0.237500X0.250000X0.237500X-0.250000X0.237500X0*%
%ADD27R,1.800000X0.700000*%
%ADD28R,3.050000X0.900000*%
%ADD29RoundRect,0.199999X-0.475001X-0.299999X0.475001X-0.299999X0.475001X0.299999X-0.475001X0.299999X0*%
%ADD30RoundRect,0.187500X0.237500X-0.250000X0.237500X0.250000X-0.237500X0.250000X-0.237500X-0.250000X0*%
%ADD31RoundRect,0.100000X-0.725000X-0.150000X0.725000X-0.150000X0.725000X0.150000X-0.725000X0.150000X0*%
%ADD32RoundRect,0.200000X-0.250000X0.250000X-0.250000X-0.250000X0.250000X-0.250000X0.250000X0.250000X0*%
%ADD33RoundRect,0.187500X0.344715X-0.008839X-0.008839X0.344715X-0.344715X0.008839X0.008839X-0.344715X0*%
%ADD34R,0.700000X1.800000*%
%ADD35RoundRect,0.200000X-0.425000X0.537500X-0.425000X-0.537500X0.425000X-0.537500X0.425000X0.537500X0*%
%ADD36RoundRect,0.200000X-0.650000X0.412500X-0.650000X-0.412500X0.650000X-0.412500X0.650000X0.412500X0*%
%ADD37RoundRect,0.200000X0.537500X0.425000X-0.537500X0.425000X-0.537500X-0.425000X0.537500X-0.425000X0*%
%ADD38R,1.900000X1.400000*%
%ADD39R,1.900000X3.700000*%
%ADD40RoundRect,0.200000X0.250000X-0.250000X0.250000X0.250000X-0.250000X0.250000X-0.250000X-0.250000X0*%
%ADD41RoundRect,0.200000X-0.250000X-0.250000X0.250000X-0.250000X0.250000X0.250000X-0.250000X0.250000X0*%
%ADD42RoundRect,0.200000X0.350000X0.450000X-0.350000X0.450000X-0.350000X-0.450000X0.350000X-0.450000X0*%
%ADD43RoundRect,0.200000X0.250000X0.250000X-0.250000X0.250000X-0.250000X-0.250000X0.250000X-0.250000X0*%
%ADD44RoundRect,0.200000X-0.337500X-0.475000X0.337500X-0.475000X0.337500X0.475000X-0.337500X0.475000X0*%
%ADD45RoundRect,0.200001X-0.462499X-1.074999X0.462499X-1.074999X0.462499X1.074999X-0.462499X1.074999X0*%
%ADD46RoundRect,0.200000X-0.450000X-0.800000X0.450000X-0.800000X0.450000X0.800000X-0.450000X0.800000X0*%
%ADD47R,1.460000X0.550000*%
%ADD48RoundRect,0.050000X-0.712500X-0.100000X0.712500X-0.100000X0.712500X0.100000X-0.712500X0.100000X0*%
%ADD49RoundRect,0.200000X-0.675000X-1.625000X0.675000X-1.625000X0.675000X1.625000X-0.675000X1.625000X0*%
G04 APERTURE END LIST*
%TO.C,U2*%
D10*
X14487500Y-11600500D02*
X14287500Y-11600500D01*
X14287500Y-11400500D01*
X14487500Y-11400500D01*
X14487500Y-11600500D01*
G36*
X14487500Y-11600500D02*
G01*
X14287500Y-11600500D01*
X14287500Y-11400500D01*
X14487500Y-11400500D01*
X14487500Y-11600500D01*
G37*
%TD*%
D11*
%TO.C,D10*%
X11640000Y-12402500D03*
D12*
X11640000Y-12897500D03*
%TD*%
D13*
%TO.C,Q3*%
X15315000Y-13444000D03*
X15315000Y-13254000D03*
X15657000Y-13349000D03*
%TD*%
D14*
%TO.C,R21*%
X15905000Y-13350000D03*
X16215000Y-13350000D03*
%TD*%
D15*
%TO.C,L1*%
X13410750Y-8120000D03*
X12509250Y-8120000D03*
%TD*%
D16*
%TO.C,Q2*%
X16407500Y-13007000D03*
X16597500Y-13007000D03*
X16502500Y-13349000D03*
%TD*%
D17*
%TO.C,R13*%
X15775476Y-11315476D03*
X15904523Y-11444523D03*
%TD*%
D18*
%TO.C,U2*%
X14237500Y-11263500D03*
X14287500Y-11263500D03*
X14337500Y-11263500D03*
X14387500Y-11263500D03*
X14437500Y-11263500D03*
X14487500Y-11263500D03*
X14537500Y-11263500D03*
D19*
X14624500Y-11350500D03*
X14624500Y-11400500D03*
X14624500Y-11450500D03*
X14624500Y-11500500D03*
X14624500Y-11550500D03*
X14624500Y-11600500D03*
X14624500Y-11650500D03*
D18*
X14537500Y-11737500D03*
X14487500Y-11737500D03*
X14437500Y-11737500D03*
X14387500Y-11737500D03*
X14337500Y-11737500D03*
X14287500Y-11737500D03*
X14237500Y-11737500D03*
D19*
X14150500Y-11650500D03*
X14150500Y-11600500D03*
X14150500Y-11550500D03*
X14150500Y-11500500D03*
X14150500Y-11450500D03*
X14150500Y-11400500D03*
X14150500Y-11350500D03*
%TD*%
D17*
%TO.C,R12*%
X15662976Y-11427476D03*
X15792023Y-11556523D03*
%TD*%
D20*
%TO.C,R8*%
X16920000Y-13746250D03*
X16920000Y-13928750D03*
%TD*%
%TO.C,R11*%
X17800000Y-13746250D03*
X17800000Y-13928750D03*
%TD*%
D21*
%TO.C,C3*%
X12780000Y-12733750D03*
X12780000Y-12906250D03*
%TD*%
D22*
%TO.C,C7*%
X14593750Y-11061000D03*
X14906250Y-11061000D03*
%TD*%
D23*
%TO.C,C8*%
X14793750Y-11270000D03*
X14966250Y-11270000D03*
%TD*%
D24*
%TO.C,R2*%
X13371250Y-12730000D03*
X13188750Y-12730000D03*
%TD*%
D25*
%TO.C,C1*%
X12780000Y-12556250D03*
X12780000Y-12383750D03*
%TD*%
D26*
%TO.C,R19*%
X14125500Y-8590000D03*
X14308000Y-8590000D03*
%TD*%
D27*
%TO.C,Q1*%
X16300000Y-12385000D03*
X16300000Y-12195000D03*
X16600000Y-12290000D03*
%TD*%
D28*
%TO.C,J2*%
X12164500Y-8871000D03*
X12669500Y-8871000D03*
X12164500Y-9125000D03*
X12669500Y-9125000D03*
X12164500Y-9379000D03*
X12669500Y-9379000D03*
X12164500Y-9633000D03*
X12669500Y-9633000D03*
X12164500Y-9887000D03*
X12669500Y-9887000D03*
X12164500Y-10141000D03*
X12669500Y-10141000D03*
X12164500Y-10395000D03*
X12669500Y-10395000D03*
X12164500Y-10649000D03*
X12669500Y-10649000D03*
X12164500Y-10903000D03*
X12669500Y-10903000D03*
X12164500Y-11157000D03*
X12669500Y-11157000D03*
X12164500Y-11411000D03*
X12669500Y-11411000D03*
X12164500Y-11665000D03*
X12669500Y-11665000D03*
X12164500Y-11919000D03*
X12669500Y-11919000D03*
%TD*%
D23*
%TO.C,C4*%
X15186750Y-8570000D03*
X15359250Y-8570000D03*
%TD*%
D29*
%TO.C,D16*%
X15582500Y-9230000D03*
X15897500Y-9230000D03*
%TD*%
D30*
%TO.C,R17*%
X12940000Y-12911250D03*
X12940000Y-12728750D03*
%TD*%
D24*
%TO.C,R14*%
X16641250Y-12550000D03*
X16458750Y-12550000D03*
%TD*%
D21*
%TO.C,C6*%
X14880000Y-12093750D03*
X14880000Y-12266250D03*
%TD*%
D31*
%TO.C,U3*%
X13082500Y-6970500D03*
X13082500Y-6843500D03*
X13082500Y-6716500D03*
X13082500Y-6589500D03*
X13597500Y-6589500D03*
X13597500Y-6716500D03*
X13597500Y-6843500D03*
X13597500Y-6970500D03*
%TD*%
D32*
%TO.C,D6*%
X15450000Y-10085000D03*
X15450000Y-10335000D03*
%TD*%
D33*
%TO.C,R24*%
X13744523Y-12344523D03*
X13615476Y-12215476D03*
%TD*%
D34*
%TO.C,Q4*%
X13741750Y-8800000D03*
X13931750Y-8800000D03*
X13836750Y-9100000D03*
%TD*%
D17*
%TO.C,R23*%
X13735476Y-12095476D03*
X13864523Y-12224523D03*
%TD*%
D35*
%TO.C,C11*%
X16500000Y-6406250D03*
X16500000Y-6693750D03*
%TD*%
D27*
%TO.C,Q5*%
X15690000Y-12970000D03*
X15690000Y-12780000D03*
X15990000Y-12875000D03*
%TD*%
D30*
%TO.C,R16*%
X12940000Y-12561250D03*
X12940000Y-12378750D03*
%TD*%
D26*
%TO.C,R25*%
X14518750Y-12090000D03*
X14701250Y-12090000D03*
%TD*%
D36*
%TO.C,C9*%
X12820000Y-6963750D03*
X12820000Y-7276250D03*
%TD*%
D37*
%TO.C,C14*%
X17403750Y-7130000D03*
X17116250Y-7130000D03*
%TD*%
D38*
%TO.C,U4*%
X16775000Y-6866000D03*
X16775000Y-6636000D03*
D39*
X17405000Y-6636000D03*
D38*
X16775000Y-6406000D03*
%TD*%
D22*
%TO.C,C13*%
X13243750Y-8780000D03*
X13556250Y-8780000D03*
%TD*%
D17*
%TO.C,R5*%
X13854523Y-11984523D03*
X13725476Y-11855476D03*
%TD*%
D40*
%TO.C,D7*%
X15450000Y-9912500D03*
X15450000Y-9662500D03*
%TD*%
D30*
%TO.C,R26*%
X15470000Y-12960000D03*
X15470000Y-12777500D03*
%TD*%
D41*
%TO.C,D5*%
X15560000Y-9480000D03*
X15810000Y-9480000D03*
%TD*%
D28*
%TO.C,J3*%
X16730500Y-8872000D03*
X17235500Y-8872000D03*
X16730500Y-9126000D03*
X17235500Y-9126000D03*
X16730500Y-9380000D03*
X17235500Y-9380000D03*
X16730500Y-9634000D03*
X17235500Y-9634000D03*
X16730500Y-9888000D03*
X17235500Y-9888000D03*
X16730500Y-10142000D03*
X17235500Y-10142000D03*
X16730500Y-10396000D03*
X17235500Y-10396000D03*
X16730500Y-10650000D03*
X17235500Y-10650000D03*
X16730500Y-10904000D03*
X17235500Y-10904000D03*
X16730500Y-11158000D03*
X17235500Y-11158000D03*
X16730500Y-11412000D03*
X17235500Y-11412000D03*
X16730500Y-11666000D03*
X17235500Y-11666000D03*
X16730500Y-11920000D03*
X17235500Y-11920000D03*
%TD*%
D20*
%TO.C,R6*%
X16402500Y-13746250D03*
X16402500Y-13928750D03*
%TD*%
D27*
%TO.C,Q7*%
X12395000Y-6572000D03*
X12395000Y-6382000D03*
X12695000Y-6477000D03*
%TD*%
D26*
%TO.C,R31*%
X14787500Y-11500000D03*
X14970000Y-11500000D03*
%TD*%
D30*
%TO.C,R28*%
X15140000Y-11131250D03*
X15140000Y-10948750D03*
%TD*%
D42*
%TO.C,R20*%
X14316750Y-8770000D03*
X14116750Y-8770000D03*
%TD*%
D24*
%TO.C,R3*%
X13371250Y-13050000D03*
X13188750Y-13050000D03*
%TD*%
D20*
%TO.C,R22*%
X11980000Y-12640000D03*
X11980000Y-12822500D03*
%TD*%
D43*
%TO.C,D15*%
X13320000Y-7230000D03*
X13070000Y-7230000D03*
%TD*%
D44*
%TO.C,C12*%
X13176250Y-7470000D03*
X13383750Y-7470000D03*
%TD*%
D23*
%TO.C,C10*%
X13853750Y-6840000D03*
X14026250Y-6840000D03*
%TD*%
D45*
%TO.C,F1*%
X11981250Y-12350000D03*
X12278750Y-12350000D03*
%TD*%
D30*
%TO.C,R15*%
X16810000Y-12550000D03*
X16810000Y-12367500D03*
%TD*%
D46*
%TO.C,D8*%
X14126750Y-9020000D03*
X14566750Y-9020000D03*
%TD*%
D20*
%TO.C,R29*%
X15140000Y-11308750D03*
X15140000Y-11491250D03*
%TD*%
D47*
%TO.C,IC1*%
X12255000Y-12825000D03*
X12255000Y-12730000D03*
X12255000Y-12635000D03*
X12525000Y-12635000D03*
X12525000Y-12730000D03*
X12525000Y-12825000D03*
%TD*%
D48*
%TO.C,IC2*%
X14558750Y-8767500D03*
X14558750Y-8702500D03*
X14558750Y-8637500D03*
X14558750Y-8572500D03*
X14981250Y-8572500D03*
X14981250Y-8637500D03*
X14981250Y-8702500D03*
X14981250Y-8767500D03*
%TD*%
D20*
%TO.C,R10*%
X17100000Y-13746250D03*
X17100000Y-13928750D03*
%TD*%
%TO.C,R9*%
X17620000Y-13746250D03*
X17620000Y-13928750D03*
%TD*%
D49*
%TO.C,D14*%
X13602500Y-7290000D03*
X14057500Y-7290000D03*
%TD*%
D20*
%TO.C,R7*%
X16220000Y-13746250D03*
X16220000Y-13928750D03*
%TD*%
D24*
%TO.C,R4*%
X13371250Y-12890000D03*
X13188750Y-12890000D03*
%TD*%
M02*
