%TF.GenerationSoftware,KiCad,Pcbnew,(5.1.6)-1*%
%TF.CreationDate,2022-05-13T20:51:27+02:00*%
%TF.ProjectId,ZumoComSystem,5a756d6f-436f-46d5-9379-7374656d2e6b,V1.0*%
%TF.SameCoordinates,Original*%
%TF.FileFunction,Plated,1,2,PTH,Mixed*%
%TF.FilePolarity,Positive*%
%FSLAX46Y46*%
G04 Gerber Fmt 4.6, Leading zero omitted, Abs format (unit mm)*
G04 Created by KiCad (PCBNEW (5.1.6)-1) date 2022-05-13 20:51:27*
%MOMM*%
%LPD*%
G01*
G04 APERTURE LIST*
%TA.AperFunction,ViaDrill*%
%ADD10C,0.300000*%
%TD*%
%TA.AperFunction,ViaDrill*%
%ADD11C,0.400000*%
%TD*%
G04 aperture for slot hole*
%TA.AperFunction,ComponentDrill*%
%ADD12C,0.500000*%
%TD*%
%TA.AperFunction,ComponentDrill*%
%ADD13C,0.900000*%
%TD*%
%TA.AperFunction,ComponentDrill*%
%ADD14C,1.000000*%
%TD*%
%TA.AperFunction,ComponentDrill*%
%ADD15C,1.020000*%
%TD*%
G04 aperture for slot hole*
%TA.AperFunction,ComponentDrill*%
%ADD16C,1.300000*%
%TD*%
%TA.AperFunction,ComponentDrill*%
%ADD17C,1.320000*%
%TD*%
%TA.AperFunction,ComponentDrill*%
%ADD18C,1.500000*%
%TD*%
%TA.AperFunction,ComponentDrill*%
%ADD19C,2.000000*%
%TD*%
G04 APERTURE END LIST*
D10*
X115141667Y-58947500D03*
X115141667Y-126947500D03*
X115141667Y-134947500D03*
X116000000Y-90600000D03*
X116000000Y-92600000D03*
X117000000Y-91600000D03*
X117200000Y-134800000D03*
X117200000Y-139800000D03*
X118000000Y-90600000D03*
X118000000Y-92600000D03*
X118341667Y-62147500D03*
X118430000Y-139410000D03*
X119025010Y-132497250D03*
X119250000Y-77500000D03*
X119750000Y-134250000D03*
X119941667Y-142947500D03*
X120000000Y-129900000D03*
X120130000Y-84300000D03*
X120700000Y-125500000D03*
X121541667Y-97347500D03*
X121541667Y-105347500D03*
X121600000Y-115400000D03*
X121700000Y-107700000D03*
X121700000Y-110300000D03*
X121700000Y-112800000D03*
X121700000Y-118000000D03*
X122500000Y-143500000D03*
X122600000Y-141400000D03*
X122617500Y-139392500D03*
X123680000Y-136150000D03*
X123700000Y-138600000D03*
X123941667Y-72547500D03*
X123941667Y-101347500D03*
X124000000Y-110500000D03*
X124000000Y-112750000D03*
X124000000Y-115500000D03*
X124000000Y-118000000D03*
X124000000Y-120000000D03*
X124250000Y-88710000D03*
X124500000Y-121900000D03*
X124500000Y-123400000D03*
X124500000Y-124900000D03*
X125000000Y-76000000D03*
X125420000Y-67890000D03*
X126000000Y-121900000D03*
X126000000Y-123400000D03*
X126000000Y-124900000D03*
X127000000Y-140600000D03*
X127400000Y-136500000D03*
X127600000Y-143400000D03*
X127749995Y-130249997D03*
X127750000Y-122500004D03*
X127750000Y-132250004D03*
X127780000Y-121650000D03*
X127941667Y-74947500D03*
X127941667Y-97347500D03*
X127941667Y-105347500D03*
X128463249Y-133674990D03*
X128699990Y-121654675D03*
X129000000Y-88820000D03*
X129400000Y-133200000D03*
X129500000Y-118000000D03*
X129500000Y-120000000D03*
X129700000Y-132200000D03*
X130150000Y-131520000D03*
X130500000Y-110500000D03*
X130500000Y-113000000D03*
X130500000Y-115500000D03*
X130650000Y-126390000D03*
X130750000Y-97250000D03*
X130750000Y-100000000D03*
X130750000Y-102500000D03*
X130900000Y-136500000D03*
X131141667Y-139747500D03*
X131563943Y-131140992D03*
X132000000Y-98500000D03*
X132000000Y-101250000D03*
X132000000Y-111500000D03*
X132000000Y-114500000D03*
X133000000Y-67000000D03*
X133250000Y-97250000D03*
X133250000Y-100000000D03*
X133250000Y-102500000D03*
X133500000Y-69750000D03*
X133500000Y-110500000D03*
X133500000Y-113000000D03*
X133500000Y-115500000D03*
X134341667Y-136547500D03*
X134600000Y-105000002D03*
X134700000Y-120600000D03*
X134750004Y-129000000D03*
X135141667Y-83747500D03*
X135141667Y-96547500D03*
X135141667Y-126947500D03*
X135250000Y-123000000D03*
X135420000Y-114030000D03*
X135941667Y-102947500D03*
X136020000Y-131830000D03*
X136049995Y-113050005D03*
X136100000Y-108400000D03*
X136150000Y-125320000D03*
X136300000Y-129750000D03*
X136325010Y-117700000D03*
X136400000Y-116500000D03*
X136700000Y-115600000D03*
X136750000Y-107000000D03*
X137500000Y-67500000D03*
X138000000Y-98500000D03*
X138341667Y-86947500D03*
X138574990Y-115400000D03*
X139141667Y-76547500D03*
X139300000Y-77800000D03*
X139600000Y-117200000D03*
X139900000Y-112300000D03*
X139900000Y-118700000D03*
X139941667Y-120547500D03*
X140174990Y-130225010D03*
X140200000Y-129200000D03*
X140730000Y-124840000D03*
X140741667Y-136547500D03*
X140900000Y-121900000D03*
X141000000Y-110800000D03*
X141000000Y-113400000D03*
X141000000Y-115800000D03*
X141400000Y-72330000D03*
X141541667Y-90147500D03*
X141541667Y-96547500D03*
X141600000Y-126100000D03*
X141800000Y-77800000D03*
X141800000Y-130200000D03*
X141900000Y-68900000D03*
X142000000Y-127400000D03*
X142025000Y-110800000D03*
X142600000Y-123100000D03*
X142800000Y-128500000D03*
X142875000Y-110800000D03*
X143141667Y-84547500D03*
X143300000Y-134700000D03*
X143400000Y-113400000D03*
X143400000Y-115800000D03*
X143500000Y-101250000D03*
X143941667Y-68547500D03*
X143941667Y-78147500D03*
X144000000Y-110700000D03*
X144500000Y-109900000D03*
X144560000Y-130170000D03*
X144600000Y-112300000D03*
X144620000Y-128250000D03*
X144741667Y-93347500D03*
X144741667Y-117347500D03*
X144800000Y-121300000D03*
X145400000Y-132700000D03*
X145500000Y-110000000D03*
X145541667Y-73347500D03*
X145541667Y-134947500D03*
X146249998Y-105499998D03*
X146341667Y-87747500D03*
X146450000Y-103050000D03*
X147941667Y-110147500D03*
X148000000Y-136600000D03*
X148620000Y-121800000D03*
X148741667Y-70147500D03*
X148741667Y-76547500D03*
X149310000Y-132520000D03*
X149749989Y-125550011D03*
X150341667Y-85347500D03*
X150800000Y-113850000D03*
X150800000Y-124699996D03*
X151000000Y-106950000D03*
X151400000Y-130200000D03*
X151500000Y-101850000D03*
X151800000Y-73200000D03*
X151900000Y-69300000D03*
X151900000Y-77200000D03*
X151900000Y-122700000D03*
X152060000Y-132310000D03*
X152300000Y-129799999D03*
X152741667Y-89347500D03*
X153000000Y-123900000D03*
X153240000Y-125240000D03*
X153380000Y-110989988D03*
X153541667Y-136547500D03*
X153580000Y-131750000D03*
X153630000Y-129990000D03*
X154200000Y-102900000D03*
X154300000Y-69200000D03*
X154341667Y-67747500D03*
X154341667Y-74947500D03*
X154400000Y-73200000D03*
X154500000Y-77100000D03*
X154600000Y-111500000D03*
X155141667Y-93347500D03*
X155941667Y-84547500D03*
X156099998Y-117300000D03*
X156741667Y-78947500D03*
X156741667Y-118947500D03*
X156980000Y-106880000D03*
X157000000Y-131800000D03*
X157541667Y-70947500D03*
X157700000Y-111000000D03*
X157700000Y-126100000D03*
X158180000Y-128640000D03*
X158341667Y-88547500D03*
X158800000Y-136100000D03*
X159141667Y-66147500D03*
X159180000Y-127390000D03*
X159300000Y-109400000D03*
X159300000Y-112600000D03*
X159300000Y-131800000D03*
X159941667Y-75747500D03*
X159941667Y-82147500D03*
X160000000Y-106700000D03*
X160110000Y-116000000D03*
X160300000Y-134800000D03*
X160500000Y-97500000D03*
X160900000Y-111000000D03*
X160900000Y-123000000D03*
X160900000Y-127200000D03*
X161300002Y-136700000D03*
X161300005Y-130200000D03*
X161541667Y-91747500D03*
X162200000Y-130000000D03*
X162299996Y-135700000D03*
X162341667Y-86147500D03*
X162341667Y-118147500D03*
X162600000Y-141600000D03*
X163000000Y-130200000D03*
X163141667Y-71747500D03*
X163141667Y-78947500D03*
X163200000Y-135000000D03*
X163266049Y-142758091D03*
X163400000Y-107100000D03*
X163600000Y-113500000D03*
X163800000Y-101200000D03*
X163941667Y-122947500D03*
X164000000Y-88700000D03*
X164300000Y-141600000D03*
X164834350Y-136943766D03*
X165100000Y-129500000D03*
X165380000Y-123480000D03*
X165500006Y-136499994D03*
X165541667Y-82947500D03*
X166250000Y-135750000D03*
X166341667Y-90147500D03*
X166341667Y-107747500D03*
X166400000Y-133900000D03*
X166735004Y-141275004D03*
X166749999Y-138750001D03*
X167100000Y-63200000D03*
X167400000Y-127300000D03*
X167400000Y-129600000D03*
X167400000Y-140200000D03*
X167400000Y-143200000D03*
X168100000Y-136600002D03*
X168280000Y-135730000D03*
X168500000Y-130300000D03*
X168741667Y-86147500D03*
X168741667Y-118147500D03*
X169200000Y-135800000D03*
X169541667Y-70147500D03*
X169541667Y-93347500D03*
X169541667Y-99747500D03*
X169600000Y-63400000D03*
X169750000Y-111500000D03*
X169800000Y-90200000D03*
X169800000Y-108700000D03*
X169996787Y-142904313D03*
X170040000Y-125310000D03*
X170200000Y-65100000D03*
X170341667Y-105347500D03*
X170800000Y-141600000D03*
X171000000Y-134800000D03*
X171700000Y-65100000D03*
X171700000Y-68000000D03*
X171700000Y-137000000D03*
X171700000Y-138700000D03*
X171760002Y-140530000D03*
X172054997Y-129579999D03*
X172300000Y-86500000D03*
X172300000Y-110200000D03*
X172500000Y-136250000D03*
X172741667Y-90147500D03*
X173200000Y-65040000D03*
X173200000Y-131100000D03*
X173500000Y-134700000D03*
X173541667Y-58947500D03*
X173600000Y-138800000D03*
X174000000Y-95000000D03*
X174341667Y-78147500D03*
X174400000Y-64600000D03*
X174400000Y-66000000D03*
X175200000Y-135800000D03*
X175262500Y-140462500D03*
X176000000Y-141600000D03*
X176150000Y-135000000D03*
X176741667Y-64100000D03*
X176741667Y-98947500D03*
X176741667Y-105347500D03*
X176741667Y-111747500D03*
X176741667Y-118147500D03*
X176820361Y-142714691D03*
X177200000Y-66400000D03*
X177470000Y-131840000D03*
X177541667Y-87747500D03*
X177541667Y-126947500D03*
X177600000Y-141600000D03*
X178739990Y-136750000D03*
X179000000Y-139599992D03*
X179141667Y-66947500D03*
X179141667Y-73347500D03*
X179141667Y-79747500D03*
X179141667Y-92547500D03*
X179300000Y-141600000D03*
D11*
X157000000Y-100400000D03*
X171040000Y-121830000D03*
X175000000Y-97600000D03*
X177900000Y-133899998D03*
D12*
%TO.C,J3*%
X138250000Y-105325000D02*
X138950000Y-105325000D01*
X140850000Y-103175000D02*
X141950000Y-103175000D01*
X143850000Y-105325000D02*
X144550000Y-105325000D01*
D13*
%TO.C,J1*%
X147000000Y-98400000D03*
X149500000Y-98400000D03*
X151500000Y-98400000D03*
X154000000Y-98400000D03*
D14*
%TO.C,J5*%
X139335000Y-80485000D03*
X139335000Y-83025000D03*
X141875000Y-80485000D03*
X141875000Y-83025000D03*
X144415000Y-80485000D03*
X144415000Y-83025000D03*
X146955000Y-80485000D03*
X146955000Y-83025000D03*
X149495000Y-80485000D03*
X149495000Y-83025000D03*
X152035000Y-80485000D03*
X152035000Y-83025000D03*
X154575000Y-80485000D03*
X154575000Y-83025000D03*
D15*
%TO.C,J2*%
X138460000Y-88610000D03*
X138460000Y-91610000D03*
D16*
%TO.C,J1*%
X143930000Y-97300000D02*
X143930000Y-98300000D01*
X151000000Y-93620000D02*
X150000000Y-93620000D01*
X157070000Y-98300000D02*
X157070000Y-97300000D01*
D17*
%TO.C,BT2*%
X169600000Y-60490000D03*
X169600000Y-132710000D03*
%TO.C,BT1*%
X124400000Y-60490000D03*
X124400000Y-132710000D03*
D18*
%TO.C,U2*%
X171700000Y-66600000D03*
D19*
%TO.C,U5*%
X142200000Y-114600000D03*
%TO.C,U3*%
X159300000Y-111000000D03*
M02*
