%TF.GenerationSoftware,KiCad,Pcbnew,(5.1.6)-1*%
%TF.CreationDate,2022-05-13T20:51:31+02:00*%
%TF.ProjectId,ZumoComSystem,5a756d6f-436f-46d5-9379-7374656d2e6b,V1.0*%
%TF.SameCoordinates,Original*%
%TF.FileFunction,Legend,Top*%
%TF.FilePolarity,Positive*%
%FSLAX46Y46*%
G04 Gerber Fmt 4.6, Leading zero omitted, Abs format (unit mm)*
G04 Created by KiCad (PCBNEW (5.1.6)-1) date 2022-05-13 20:51:31*
%MOMM*%
%LPD*%
G01*
G04 APERTURE LIST*
%ADD10C,0.300000*%
%ADD11C,0.120000*%
%ADD12C,0.150000*%
%ADD13C,0.010000*%
%ADD14C,0.200000*%
%ADD15C,0.127000*%
G04 APERTURE END LIST*
D10*
X150335714Y-104538571D02*
X150648214Y-106038571D01*
X151335714Y-104538571D01*
X152433928Y-106038571D02*
X151576785Y-106038571D01*
X152005357Y-106038571D02*
X152192857Y-104538571D01*
X152023214Y-104752857D01*
X151862500Y-104895714D01*
X151710714Y-104967142D01*
X153094642Y-105895714D02*
X153157142Y-105967142D01*
X153076785Y-106038571D01*
X153014285Y-105967142D01*
X153094642Y-105895714D01*
X153076785Y-106038571D01*
X154264285Y-104538571D02*
X154407142Y-104538571D01*
X154541071Y-104610000D01*
X154603571Y-104681428D01*
X154657142Y-104824285D01*
X154692857Y-105110000D01*
X154648214Y-105467142D01*
X154541071Y-105752857D01*
X154451785Y-105895714D01*
X154371428Y-105967142D01*
X154219642Y-106038571D01*
X154076785Y-106038571D01*
X153942857Y-105967142D01*
X153880357Y-105895714D01*
X153826785Y-105752857D01*
X153791071Y-105467142D01*
X153835714Y-105110000D01*
X153942857Y-104824285D01*
X154032142Y-104681428D01*
X154112500Y-104610000D01*
X154264285Y-104538571D01*
D11*
X141800000Y-88600000D02*
X141800000Y-88800000D01*
X142500000Y-91600000D02*
X141800000Y-91600000D01*
X142500000Y-88600000D02*
X141800000Y-88600000D01*
D12*
X143142857Y-88528571D02*
X143285714Y-88576190D01*
X143333333Y-88623809D01*
X143380952Y-88719047D01*
X143380952Y-88861904D01*
X143333333Y-88957142D01*
X143285714Y-89004761D01*
X143190476Y-89052380D01*
X142809523Y-89052380D01*
X142809523Y-88052380D01*
X143142857Y-88052380D01*
X143238095Y-88100000D01*
X143285714Y-88147619D01*
X143333333Y-88242857D01*
X143333333Y-88338095D01*
X143285714Y-88433333D01*
X143238095Y-88480952D01*
X143142857Y-88528571D01*
X142809523Y-88528571D01*
X143761904Y-88766666D02*
X144238095Y-88766666D01*
X143666666Y-89052380D02*
X144000000Y-88052380D01*
X144333333Y-89052380D01*
X144523809Y-88052380D02*
X145095238Y-88052380D01*
X144809523Y-89052380D02*
X144809523Y-88052380D01*
X145428571Y-88671428D02*
X146190476Y-88671428D01*
X143142857Y-91528571D02*
X143285714Y-91576190D01*
X143333333Y-91623809D01*
X143380952Y-91719047D01*
X143380952Y-91861904D01*
X143333333Y-91957142D01*
X143285714Y-92004761D01*
X143190476Y-92052380D01*
X142809523Y-92052380D01*
X142809523Y-91052380D01*
X143142857Y-91052380D01*
X143238095Y-91100000D01*
X143285714Y-91147619D01*
X143333333Y-91242857D01*
X143333333Y-91338095D01*
X143285714Y-91433333D01*
X143238095Y-91480952D01*
X143142857Y-91528571D01*
X142809523Y-91528571D01*
X143761904Y-91766666D02*
X144238095Y-91766666D01*
X143666666Y-92052380D02*
X144000000Y-91052380D01*
X144333333Y-92052380D01*
X144523809Y-91052380D02*
X145095238Y-91052380D01*
X144809523Y-92052380D02*
X144809523Y-91052380D01*
X145428571Y-91671428D02*
X146190476Y-91671428D01*
X145809523Y-92052380D02*
X145809523Y-91290476D01*
X132480952Y-142311904D02*
X132633333Y-142311904D01*
X132709523Y-142350000D01*
X132785714Y-142426190D01*
X132823809Y-142578571D01*
X132823809Y-142845238D01*
X132785714Y-142997619D01*
X132709523Y-143073809D01*
X132633333Y-143111904D01*
X132480952Y-143111904D01*
X132404761Y-143073809D01*
X132328571Y-142997619D01*
X132290476Y-142845238D01*
X132290476Y-142578571D01*
X132328571Y-142426190D01*
X132404761Y-142350000D01*
X132480952Y-142311904D01*
X133433333Y-142692857D02*
X133166666Y-142692857D01*
X133166666Y-143111904D02*
X133166666Y-142311904D01*
X133547619Y-142311904D01*
X134119047Y-142692857D02*
X133852380Y-142692857D01*
X133852380Y-143111904D02*
X133852380Y-142311904D01*
X134233333Y-142311904D01*
X135109523Y-142273809D02*
X134423809Y-143302380D01*
X135528571Y-142311904D02*
X135680952Y-142311904D01*
X135757142Y-142350000D01*
X135833333Y-142426190D01*
X135871428Y-142578571D01*
X135871428Y-142845238D01*
X135833333Y-142997619D01*
X135757142Y-143073809D01*
X135680952Y-143111904D01*
X135528571Y-143111904D01*
X135452380Y-143073809D01*
X135376190Y-142997619D01*
X135338095Y-142845238D01*
X135338095Y-142578571D01*
X135376190Y-142426190D01*
X135452380Y-142350000D01*
X135528571Y-142311904D01*
X136214285Y-143111904D02*
X136214285Y-142311904D01*
X136671428Y-143111904D01*
X136671428Y-142311904D01*
X130957142Y-137823809D02*
X131071428Y-137861904D01*
X131261904Y-137861904D01*
X131338095Y-137823809D01*
X131376190Y-137785714D01*
X131414285Y-137709523D01*
X131414285Y-137633333D01*
X131376190Y-137557142D01*
X131338095Y-137519047D01*
X131261904Y-137480952D01*
X131109523Y-137442857D01*
X131033333Y-137404761D01*
X130995238Y-137366666D01*
X130957142Y-137290476D01*
X130957142Y-137214285D01*
X130995238Y-137138095D01*
X131033333Y-137100000D01*
X131109523Y-137061904D01*
X131300000Y-137061904D01*
X131414285Y-137100000D01*
X131642857Y-137061904D02*
X132100000Y-137061904D01*
X131871428Y-137861904D02*
X131871428Y-137061904D01*
X132328571Y-137633333D02*
X132709523Y-137633333D01*
X132252380Y-137861904D02*
X132519047Y-137061904D01*
X132785714Y-137861904D01*
X132938095Y-137061904D02*
X133395238Y-137061904D01*
X133166666Y-137861904D02*
X133166666Y-137061904D01*
X133661904Y-137442857D02*
X133928571Y-137442857D01*
X134042857Y-137861904D02*
X133661904Y-137861904D01*
X133661904Y-137061904D01*
X134042857Y-137061904D01*
D11*
X114000000Y-58000000D02*
X139400000Y-58000000D01*
D12*
X177034523Y-136632142D02*
X176986904Y-136679761D01*
X176844047Y-136727380D01*
X176748809Y-136727380D01*
X176605952Y-136679761D01*
X176510714Y-136584523D01*
X176463095Y-136489285D01*
X176415476Y-136298809D01*
X176415476Y-136155952D01*
X176463095Y-135965476D01*
X176510714Y-135870238D01*
X176605952Y-135775000D01*
X176748809Y-135727380D01*
X176844047Y-135727380D01*
X176986904Y-135775000D01*
X177034523Y-135822619D01*
X170021428Y-136203571D02*
X170164285Y-136251190D01*
X170211904Y-136298809D01*
X170259523Y-136394047D01*
X170259523Y-136536904D01*
X170211904Y-136632142D01*
X170164285Y-136679761D01*
X170069047Y-136727380D01*
X169688095Y-136727380D01*
X169688095Y-135727380D01*
X170021428Y-135727380D01*
X170116666Y-135775000D01*
X170164285Y-135822619D01*
X170211904Y-135917857D01*
X170211904Y-136013095D01*
X170164285Y-136108333D01*
X170116666Y-136155952D01*
X170021428Y-136203571D01*
X169688095Y-136203571D01*
X162911904Y-136441666D02*
X163388095Y-136441666D01*
X162816666Y-136727380D02*
X163150000Y-135727380D01*
X163483333Y-136727380D01*
D11*
X115741666Y-143041666D02*
X115408333Y-143275000D01*
X115741666Y-143441666D02*
X115041666Y-143441666D01*
X115041666Y-143175000D01*
X115075000Y-143108333D01*
X115108333Y-143075000D01*
X115175000Y-143041666D01*
X115275000Y-143041666D01*
X115341666Y-143075000D01*
X115375000Y-143108333D01*
X115408333Y-143175000D01*
X115408333Y-143441666D01*
X115708333Y-142775000D02*
X115741666Y-142675000D01*
X115741666Y-142508333D01*
X115708333Y-142441666D01*
X115675000Y-142408333D01*
X115608333Y-142375000D01*
X115541666Y-142375000D01*
X115475000Y-142408333D01*
X115441666Y-142441666D01*
X115408333Y-142508333D01*
X115375000Y-142641666D01*
X115341666Y-142708333D01*
X115308333Y-142741666D01*
X115241666Y-142775000D01*
X115175000Y-142775000D01*
X115108333Y-142741666D01*
X115075000Y-142708333D01*
X115041666Y-142641666D01*
X115041666Y-142475000D01*
X115075000Y-142375000D01*
X115041666Y-142175000D02*
X115041666Y-141775000D01*
X115741666Y-141975000D02*
X115041666Y-141975000D01*
X115008333Y-141041666D02*
X115908333Y-141641666D01*
X115541666Y-140841666D02*
X115541666Y-140508333D01*
X115741666Y-140908333D02*
X115041666Y-140675000D01*
X115741666Y-140441666D01*
X115741666Y-140208333D02*
X115041666Y-140208333D01*
X115041666Y-139941666D01*
X115075000Y-139875000D01*
X115108333Y-139841666D01*
X115175000Y-139808333D01*
X115275000Y-139808333D01*
X115341666Y-139841666D01*
X115375000Y-139875000D01*
X115408333Y-139941666D01*
X115408333Y-140208333D01*
X115475000Y-139508333D02*
X115475000Y-138975000D01*
X115741666Y-138641666D02*
X115041666Y-138641666D01*
X115541666Y-138408333D01*
X115041666Y-138175000D01*
X115741666Y-138175000D01*
X115741666Y-137741666D02*
X115708333Y-137808333D01*
X115675000Y-137841666D01*
X115608333Y-137875000D01*
X115408333Y-137875000D01*
X115341666Y-137841666D01*
X115308333Y-137808333D01*
X115275000Y-137741666D01*
X115275000Y-137641666D01*
X115308333Y-137575000D01*
X115341666Y-137541666D01*
X115408333Y-137508333D01*
X115608333Y-137508333D01*
X115675000Y-137541666D01*
X115708333Y-137575000D01*
X115741666Y-137641666D01*
X115741666Y-137741666D01*
X115741666Y-136908333D02*
X115041666Y-136908333D01*
X115708333Y-136908333D02*
X115741666Y-136975000D01*
X115741666Y-137108333D01*
X115708333Y-137175000D01*
X115675000Y-137208333D01*
X115608333Y-137241666D01*
X115408333Y-137241666D01*
X115341666Y-137208333D01*
X115308333Y-137175000D01*
X115275000Y-137108333D01*
X115275000Y-136975000D01*
X115308333Y-136908333D01*
X115708333Y-136308333D02*
X115741666Y-136375000D01*
X115741666Y-136508333D01*
X115708333Y-136575000D01*
X115641666Y-136608333D01*
X115375000Y-136608333D01*
X115308333Y-136575000D01*
X115275000Y-136508333D01*
X115275000Y-136375000D01*
X115308333Y-136308333D01*
X115375000Y-136275000D01*
X115441666Y-136275000D01*
X115508333Y-136608333D01*
X171100000Y-119200000D02*
X171100000Y-118700000D01*
X120000000Y-119200000D02*
X114000000Y-119200000D01*
D13*
%TO.C,G\u002A\u002A\u002A*%
G36*
X145544832Y-113099058D02*
G01*
X145561593Y-113111200D01*
X145580362Y-113128968D01*
X145596928Y-113152269D01*
X145612407Y-113183869D01*
X145627915Y-113226536D01*
X145644571Y-113283035D01*
X145663490Y-113356135D01*
X145668200Y-113375262D01*
X145696620Y-113497047D01*
X145721410Y-113616024D01*
X145742861Y-113734784D01*
X145761260Y-113855915D01*
X145776899Y-113982006D01*
X145790067Y-114115646D01*
X145801053Y-114259424D01*
X145810148Y-114415928D01*
X145817641Y-114587748D01*
X145823383Y-114762096D01*
X145826724Y-114908878D01*
X145828507Y-115059831D01*
X145828790Y-115212156D01*
X145827632Y-115363053D01*
X145825093Y-115509723D01*
X145821230Y-115649366D01*
X145816104Y-115779181D01*
X145809771Y-115896370D01*
X145802293Y-115998132D01*
X145796070Y-116061720D01*
X145780364Y-116180688D01*
X145760374Y-116297494D01*
X145736912Y-116408762D01*
X145710790Y-116511115D01*
X145682822Y-116601177D01*
X145653819Y-116675572D01*
X145642751Y-116698920D01*
X145609517Y-116750865D01*
X145567005Y-116797234D01*
X145521484Y-116831355D01*
X145515005Y-116834890D01*
X145472681Y-116846348D01*
X145420240Y-116844360D01*
X145361607Y-116830168D01*
X145300710Y-116805013D01*
X145241474Y-116770135D01*
X145195522Y-116733916D01*
X145171913Y-116709710D01*
X145138379Y-116671270D01*
X145096747Y-116620938D01*
X145048841Y-116561058D01*
X144996487Y-116493973D01*
X144941512Y-116422027D01*
X144885739Y-116347563D01*
X144830995Y-116272925D01*
X144779105Y-116200456D01*
X144770838Y-116188720D01*
X144694122Y-116077590D01*
X144615352Y-115959924D01*
X144536686Y-115839152D01*
X144460280Y-115718701D01*
X144388291Y-115602002D01*
X144322875Y-115492482D01*
X144266189Y-115393572D01*
X144235777Y-115337962D01*
X144215668Y-115301578D01*
X144198679Y-115273156D01*
X144187253Y-115256676D01*
X144184268Y-115254142D01*
X144178029Y-115263950D01*
X144173114Y-115292912D01*
X144169564Y-115339902D01*
X144167422Y-115403795D01*
X144166731Y-115483465D01*
X144167534Y-115577786D01*
X144169089Y-115655320D01*
X144178454Y-115898490D01*
X144194262Y-116123874D01*
X144216469Y-116330996D01*
X144245030Y-116519380D01*
X144252139Y-116558142D01*
X144265412Y-116667265D01*
X144261918Y-116765720D01*
X144241723Y-116853204D01*
X144204897Y-116929416D01*
X144153874Y-116991779D01*
X144120965Y-117019390D01*
X144094223Y-117029967D01*
X144069475Y-117023968D01*
X144044445Y-117003768D01*
X144031326Y-116987682D01*
X144019766Y-116965662D01*
X144008364Y-116933965D01*
X143995718Y-116888847D01*
X143984525Y-116843748D01*
X143970120Y-116781219D01*
X143957360Y-116719492D01*
X143946146Y-116656971D01*
X143936379Y-116592059D01*
X143927962Y-116523161D01*
X143920795Y-116448680D01*
X143914781Y-116367021D01*
X143909821Y-116276587D01*
X143905817Y-116175783D01*
X143902670Y-116063012D01*
X143900282Y-115936679D01*
X143898555Y-115795187D01*
X143897391Y-115636941D01*
X143896690Y-115460344D01*
X143896584Y-115416560D01*
X143894946Y-114669800D01*
X143831040Y-114507240D01*
X143794522Y-114411654D01*
X143766184Y-114330566D01*
X143745127Y-114260291D01*
X143730452Y-114197147D01*
X143721260Y-114137453D01*
X143716651Y-114077526D01*
X143715676Y-114034800D01*
X143716176Y-113977589D01*
X143718845Y-113934382D01*
X143724455Y-113898911D01*
X143733775Y-113864908D01*
X143738150Y-113851925D01*
X143751389Y-113817595D01*
X143763901Y-113791174D01*
X143772941Y-113778420D01*
X143801721Y-113770088D01*
X143829339Y-113781583D01*
X143852301Y-113808740D01*
X143861396Y-113825184D01*
X143878561Y-113857927D01*
X143902831Y-113905065D01*
X143933239Y-113964696D01*
X143968819Y-114034919D01*
X144008606Y-114113830D01*
X144051632Y-114199528D01*
X144096933Y-114290111D01*
X144106418Y-114309120D01*
X144212498Y-114519909D01*
X144312366Y-114714217D01*
X144407367Y-114894422D01*
X144498848Y-115062904D01*
X144588154Y-115222043D01*
X144676630Y-115374218D01*
X144765623Y-115521809D01*
X144856479Y-115667195D01*
X144950544Y-115812757D01*
X144994204Y-115878840D01*
X145059646Y-115976469D01*
X145115776Y-116058368D01*
X145163830Y-116126169D01*
X145205046Y-116181508D01*
X145240661Y-116226020D01*
X145271913Y-116261340D01*
X145300039Y-116289102D01*
X145313760Y-116301028D01*
X145350766Y-116329561D01*
X145378408Y-116343957D01*
X145401265Y-116344858D01*
X145423917Y-116332907D01*
X145440429Y-116318803D01*
X145454612Y-116304912D01*
X145465209Y-116291211D01*
X145473482Y-116273952D01*
X145480688Y-116249387D01*
X145488088Y-116213770D01*
X145496941Y-116163352D01*
X145501218Y-116137920D01*
X145536321Y-115878969D01*
X145557353Y-115605392D01*
X145564316Y-115317221D01*
X145557210Y-115014490D01*
X145536034Y-114697233D01*
X145500790Y-114365482D01*
X145480551Y-114212966D01*
X145461538Y-114084755D01*
X145442501Y-113972051D01*
X145422445Y-113870066D01*
X145400372Y-113774012D01*
X145375285Y-113679099D01*
X145354759Y-113608656D01*
X145304417Y-113441593D01*
X145336350Y-113345292D01*
X145368839Y-113262769D01*
X145406711Y-113193436D01*
X145448325Y-113139992D01*
X145475753Y-113115675D01*
X145504152Y-113096931D01*
X145524771Y-113091517D01*
X145544832Y-113099058D01*
G37*
X145544832Y-113099058D02*
X145561593Y-113111200D01*
X145580362Y-113128968D01*
X145596928Y-113152269D01*
X145612407Y-113183869D01*
X145627915Y-113226536D01*
X145644571Y-113283035D01*
X145663490Y-113356135D01*
X145668200Y-113375262D01*
X145696620Y-113497047D01*
X145721410Y-113616024D01*
X145742861Y-113734784D01*
X145761260Y-113855915D01*
X145776899Y-113982006D01*
X145790067Y-114115646D01*
X145801053Y-114259424D01*
X145810148Y-114415928D01*
X145817641Y-114587748D01*
X145823383Y-114762096D01*
X145826724Y-114908878D01*
X145828507Y-115059831D01*
X145828790Y-115212156D01*
X145827632Y-115363053D01*
X145825093Y-115509723D01*
X145821230Y-115649366D01*
X145816104Y-115779181D01*
X145809771Y-115896370D01*
X145802293Y-115998132D01*
X145796070Y-116061720D01*
X145780364Y-116180688D01*
X145760374Y-116297494D01*
X145736912Y-116408762D01*
X145710790Y-116511115D01*
X145682822Y-116601177D01*
X145653819Y-116675572D01*
X145642751Y-116698920D01*
X145609517Y-116750865D01*
X145567005Y-116797234D01*
X145521484Y-116831355D01*
X145515005Y-116834890D01*
X145472681Y-116846348D01*
X145420240Y-116844360D01*
X145361607Y-116830168D01*
X145300710Y-116805013D01*
X145241474Y-116770135D01*
X145195522Y-116733916D01*
X145171913Y-116709710D01*
X145138379Y-116671270D01*
X145096747Y-116620938D01*
X145048841Y-116561058D01*
X144996487Y-116493973D01*
X144941512Y-116422027D01*
X144885739Y-116347563D01*
X144830995Y-116272925D01*
X144779105Y-116200456D01*
X144770838Y-116188720D01*
X144694122Y-116077590D01*
X144615352Y-115959924D01*
X144536686Y-115839152D01*
X144460280Y-115718701D01*
X144388291Y-115602002D01*
X144322875Y-115492482D01*
X144266189Y-115393572D01*
X144235777Y-115337962D01*
X144215668Y-115301578D01*
X144198679Y-115273156D01*
X144187253Y-115256676D01*
X144184268Y-115254142D01*
X144178029Y-115263950D01*
X144173114Y-115292912D01*
X144169564Y-115339902D01*
X144167422Y-115403795D01*
X144166731Y-115483465D01*
X144167534Y-115577786D01*
X144169089Y-115655320D01*
X144178454Y-115898490D01*
X144194262Y-116123874D01*
X144216469Y-116330996D01*
X144245030Y-116519380D01*
X144252139Y-116558142D01*
X144265412Y-116667265D01*
X144261918Y-116765720D01*
X144241723Y-116853204D01*
X144204897Y-116929416D01*
X144153874Y-116991779D01*
X144120965Y-117019390D01*
X144094223Y-117029967D01*
X144069475Y-117023968D01*
X144044445Y-117003768D01*
X144031326Y-116987682D01*
X144019766Y-116965662D01*
X144008364Y-116933965D01*
X143995718Y-116888847D01*
X143984525Y-116843748D01*
X143970120Y-116781219D01*
X143957360Y-116719492D01*
X143946146Y-116656971D01*
X143936379Y-116592059D01*
X143927962Y-116523161D01*
X143920795Y-116448680D01*
X143914781Y-116367021D01*
X143909821Y-116276587D01*
X143905817Y-116175783D01*
X143902670Y-116063012D01*
X143900282Y-115936679D01*
X143898555Y-115795187D01*
X143897391Y-115636941D01*
X143896690Y-115460344D01*
X143896584Y-115416560D01*
X143894946Y-114669800D01*
X143831040Y-114507240D01*
X143794522Y-114411654D01*
X143766184Y-114330566D01*
X143745127Y-114260291D01*
X143730452Y-114197147D01*
X143721260Y-114137453D01*
X143716651Y-114077526D01*
X143715676Y-114034800D01*
X143716176Y-113977589D01*
X143718845Y-113934382D01*
X143724455Y-113898911D01*
X143733775Y-113864908D01*
X143738150Y-113851925D01*
X143751389Y-113817595D01*
X143763901Y-113791174D01*
X143772941Y-113778420D01*
X143801721Y-113770088D01*
X143829339Y-113781583D01*
X143852301Y-113808740D01*
X143861396Y-113825184D01*
X143878561Y-113857927D01*
X143902831Y-113905065D01*
X143933239Y-113964696D01*
X143968819Y-114034919D01*
X144008606Y-114113830D01*
X144051632Y-114199528D01*
X144096933Y-114290111D01*
X144106418Y-114309120D01*
X144212498Y-114519909D01*
X144312366Y-114714217D01*
X144407367Y-114894422D01*
X144498848Y-115062904D01*
X144588154Y-115222043D01*
X144676630Y-115374218D01*
X144765623Y-115521809D01*
X144856479Y-115667195D01*
X144950544Y-115812757D01*
X144994204Y-115878840D01*
X145059646Y-115976469D01*
X145115776Y-116058368D01*
X145163830Y-116126169D01*
X145205046Y-116181508D01*
X145240661Y-116226020D01*
X145271913Y-116261340D01*
X145300039Y-116289102D01*
X145313760Y-116301028D01*
X145350766Y-116329561D01*
X145378408Y-116343957D01*
X145401265Y-116344858D01*
X145423917Y-116332907D01*
X145440429Y-116318803D01*
X145454612Y-116304912D01*
X145465209Y-116291211D01*
X145473482Y-116273952D01*
X145480688Y-116249387D01*
X145488088Y-116213770D01*
X145496941Y-116163352D01*
X145501218Y-116137920D01*
X145536321Y-115878969D01*
X145557353Y-115605392D01*
X145564316Y-115317221D01*
X145557210Y-115014490D01*
X145536034Y-114697233D01*
X145500790Y-114365482D01*
X145480551Y-114212966D01*
X145461538Y-114084755D01*
X145442501Y-113972051D01*
X145422445Y-113870066D01*
X145400372Y-113774012D01*
X145375285Y-113679099D01*
X145354759Y-113608656D01*
X145304417Y-113441593D01*
X145336350Y-113345292D01*
X145368839Y-113262769D01*
X145406711Y-113193436D01*
X145448325Y-113139992D01*
X145475753Y-113115675D01*
X145504152Y-113096931D01*
X145524771Y-113091517D01*
X145544832Y-113099058D01*
G36*
X146714405Y-114500471D02*
G01*
X146780189Y-114534109D01*
X146825515Y-114571513D01*
X146865741Y-114617219D01*
X146896577Y-114667767D01*
X146918925Y-114726183D01*
X146933686Y-114795490D01*
X146941760Y-114878713D01*
X146944055Y-114969520D01*
X146937701Y-115102900D01*
X146917526Y-115228976D01*
X146882320Y-115352572D01*
X146830873Y-115478513D01*
X146801213Y-115538965D01*
X146702665Y-115710185D01*
X146587813Y-115871805D01*
X146455316Y-116025617D01*
X146380503Y-116101646D01*
X146266483Y-116212692D01*
X146283184Y-116272760D01*
X146310137Y-116348997D01*
X146346332Y-116421539D01*
X146382260Y-116475133D01*
X146409312Y-116501252D01*
X146447253Y-116527804D01*
X146489682Y-116551262D01*
X146530195Y-116568100D01*
X146562389Y-116574792D01*
X146563218Y-116574800D01*
X146623233Y-116565171D01*
X146685949Y-116537254D01*
X146749260Y-116492507D01*
X146811060Y-116432383D01*
X146862484Y-116367964D01*
X146879241Y-116341717D01*
X146903146Y-116300452D01*
X146932435Y-116247413D01*
X146965342Y-116185844D01*
X147000103Y-116118988D01*
X147029141Y-116061720D01*
X147151289Y-115817880D01*
X147141611Y-115731520D01*
X147136763Y-115671831D01*
X147133481Y-115596608D01*
X147131727Y-115510574D01*
X147131465Y-115418452D01*
X147132658Y-115324964D01*
X147135268Y-115234834D01*
X147139260Y-115152783D01*
X147144595Y-115083536D01*
X147146834Y-115062682D01*
X147161319Y-114960080D01*
X147178296Y-114877181D01*
X147197983Y-114813497D01*
X147220600Y-114768538D01*
X147246366Y-114741816D01*
X147275500Y-114732840D01*
X147293623Y-114735456D01*
X147346913Y-114761242D01*
X147394771Y-114806226D01*
X147436728Y-114869903D01*
X147456607Y-114911511D01*
X147462930Y-114926540D01*
X147467572Y-114940148D01*
X147470474Y-114955125D01*
X147471578Y-114974257D01*
X147470826Y-115000332D01*
X147468159Y-115036138D01*
X147463519Y-115084461D01*
X147456847Y-115148090D01*
X147450395Y-115208280D01*
X147435055Y-115440867D01*
X147438699Y-115673123D01*
X147461133Y-115902680D01*
X147502168Y-116127170D01*
X147535312Y-116257300D01*
X147547524Y-116297562D01*
X147558687Y-116329203D01*
X147567216Y-116347969D01*
X147570383Y-116351280D01*
X147578076Y-116341878D01*
X147588021Y-116316159D01*
X147599136Y-116277849D01*
X147610339Y-116230673D01*
X147620453Y-116178897D01*
X147645545Y-116067054D01*
X147682260Y-115947321D01*
X147728435Y-115824715D01*
X147781908Y-115704258D01*
X147840514Y-115590969D01*
X147902091Y-115489867D01*
X147940738Y-115435603D01*
X148005376Y-115356882D01*
X148065368Y-115296511D01*
X148122069Y-115253428D01*
X148176833Y-115226570D01*
X148220316Y-115216028D01*
X148277159Y-115214420D01*
X148320438Y-115226899D01*
X148350321Y-115253796D01*
X148366979Y-115295442D01*
X148370580Y-115352167D01*
X148361294Y-115424302D01*
X148350769Y-115470613D01*
X148343686Y-115500846D01*
X148338312Y-115531069D01*
X148334399Y-115564781D01*
X148331703Y-115605481D01*
X148329976Y-115656667D01*
X148328975Y-115721840D01*
X148328526Y-115787266D01*
X148328761Y-115874752D01*
X148330252Y-115952256D01*
X148332895Y-116016988D01*
X148336586Y-116066161D01*
X148339742Y-116089847D01*
X148368214Y-116208834D01*
X148408166Y-116312600D01*
X148459250Y-116400456D01*
X148521116Y-116471714D01*
X148542380Y-116490286D01*
X148598445Y-116526716D01*
X148652576Y-116542935D01*
X148704935Y-116538947D01*
X148755684Y-116514752D01*
X148782885Y-116492909D01*
X148822108Y-116448058D01*
X148859265Y-116389845D01*
X148890371Y-116325139D01*
X148906112Y-116280661D01*
X148923658Y-116197482D01*
X148932133Y-116097840D01*
X148931559Y-115983447D01*
X148921955Y-115856012D01*
X148903343Y-115717247D01*
X148898984Y-115690880D01*
X148880300Y-115597090D01*
X148856464Y-115509303D01*
X148825336Y-115420975D01*
X148784772Y-115325561D01*
X148766509Y-115286234D01*
X148725020Y-115196923D01*
X148693381Y-115125101D01*
X148671500Y-115070536D01*
X148659282Y-115032997D01*
X148656400Y-115015417D01*
X148665469Y-114987070D01*
X148690571Y-114967668D01*
X148728546Y-114959482D01*
X148734423Y-114959360D01*
X148790285Y-114965510D01*
X148842156Y-114984824D01*
X148891476Y-115018600D01*
X148939685Y-115068134D01*
X148988222Y-115134722D01*
X149038527Y-115219662D01*
X149052622Y-115245953D01*
X149116555Y-115387686D01*
X149164772Y-115538340D01*
X149197184Y-115695100D01*
X149213703Y-115855149D01*
X149214243Y-116015670D01*
X149198714Y-116173846D01*
X149167029Y-116326861D01*
X149119100Y-116471898D01*
X149092758Y-116532641D01*
X149044319Y-116615750D01*
X148982102Y-116690643D01*
X148909400Y-116754659D01*
X148829501Y-116805133D01*
X148745695Y-116839403D01*
X148700531Y-116850136D01*
X148620999Y-116853941D01*
X148539699Y-116838387D01*
X148458383Y-116804126D01*
X148378808Y-116751811D01*
X148334867Y-116714131D01*
X148266811Y-116641708D01*
X148210786Y-116561793D01*
X148164153Y-116470073D01*
X148129632Y-116378713D01*
X148107954Y-116310359D01*
X148091631Y-116250169D01*
X148079955Y-116193156D01*
X148072217Y-116134334D01*
X148067709Y-116068716D01*
X148065723Y-115991315D01*
X148065453Y-115927100D01*
X148065094Y-115868253D01*
X148063940Y-115817105D01*
X148062132Y-115776840D01*
X148059811Y-115750641D01*
X148057221Y-115741680D01*
X148044893Y-115750872D01*
X148027552Y-115776558D01*
X148006444Y-115815897D01*
X147982818Y-115866051D01*
X147957920Y-115924182D01*
X147932998Y-115987449D01*
X147909298Y-116053015D01*
X147888068Y-116118041D01*
X147880046Y-116144999D01*
X147857431Y-116228513D01*
X147837176Y-116314588D01*
X147818438Y-116407455D01*
X147800377Y-116511347D01*
X147782151Y-116630494D01*
X147778619Y-116655073D01*
X147769346Y-116718082D01*
X147761643Y-116764199D01*
X147754680Y-116796710D01*
X147747627Y-116818899D01*
X147739655Y-116834053D01*
X147730759Y-116844643D01*
X147695646Y-116867742D01*
X147652143Y-116874138D01*
X147598333Y-116864094D01*
X147595570Y-116863238D01*
X147545609Y-116837918D01*
X147494961Y-116794053D01*
X147444770Y-116733334D01*
X147396182Y-116657454D01*
X147350339Y-116568105D01*
X147308388Y-116466978D01*
X147287884Y-116408459D01*
X147271361Y-116359492D01*
X147256424Y-116317439D01*
X147244481Y-116286113D01*
X147236943Y-116269327D01*
X147235870Y-116267806D01*
X147227795Y-116272671D01*
X147212042Y-116292170D01*
X147190863Y-116323211D01*
X147166515Y-116362703D01*
X147165918Y-116363716D01*
X147084353Y-116492669D01*
X147003274Y-116601517D01*
X146922510Y-116690463D01*
X146841888Y-116759712D01*
X146813092Y-116779711D01*
X146726106Y-116825119D01*
X146635778Y-116851466D01*
X146544229Y-116859261D01*
X146453578Y-116849016D01*
X146365945Y-116821242D01*
X146283448Y-116776448D01*
X146208209Y-116715146D01*
X146142346Y-116637846D01*
X146126421Y-116614261D01*
X146062690Y-116501061D01*
X146012905Y-116381005D01*
X145976504Y-116251873D01*
X145952925Y-116111440D01*
X145941604Y-115957487D01*
X145940360Y-115878840D01*
X145941764Y-115847008D01*
X146226840Y-115847008D01*
X146230376Y-115874056D01*
X146238083Y-115883915D01*
X146238290Y-115883920D01*
X146250917Y-115877578D01*
X146272661Y-115861257D01*
X146290127Y-115846241D01*
X146341902Y-115792137D01*
X146396384Y-115722110D01*
X146451337Y-115639949D01*
X146504528Y-115549442D01*
X146553723Y-115454377D01*
X146596687Y-115358542D01*
X146629487Y-115270866D01*
X146652512Y-115191620D01*
X146669398Y-115112270D01*
X146679978Y-115035945D01*
X146684083Y-114965772D01*
X146681547Y-114904878D01*
X146672203Y-114856391D01*
X146655882Y-114823437D01*
X146653584Y-114820820D01*
X146623638Y-114802278D01*
X146585659Y-114796452D01*
X146548277Y-114804432D01*
X146543220Y-114806906D01*
X146524777Y-114823936D01*
X146500796Y-114856693D01*
X146472993Y-114901919D01*
X146443082Y-114956360D01*
X146412781Y-115016760D01*
X146383803Y-115079862D01*
X146357865Y-115142413D01*
X146338716Y-115195012D01*
X146321086Y-115252988D01*
X146303891Y-115319402D01*
X146287505Y-115391693D01*
X146272302Y-115467298D01*
X146258655Y-115543654D01*
X146246938Y-115618199D01*
X146237524Y-115688369D01*
X146230788Y-115751603D01*
X146227102Y-115805337D01*
X146226840Y-115847008D01*
X145941764Y-115847008D01*
X145949310Y-115675990D01*
X145975294Y-115472260D01*
X146017453Y-115272907D01*
X146065972Y-115109038D01*
X146115157Y-114976564D01*
X146166854Y-114862561D01*
X146222074Y-114765235D01*
X146281832Y-114682792D01*
X146344793Y-114615625D01*
X146420000Y-114555196D01*
X146495807Y-114513352D01*
X146570972Y-114490207D01*
X146644252Y-114485875D01*
X146714405Y-114500471D01*
G37*
X146714405Y-114500471D02*
X146780189Y-114534109D01*
X146825515Y-114571513D01*
X146865741Y-114617219D01*
X146896577Y-114667767D01*
X146918925Y-114726183D01*
X146933686Y-114795490D01*
X146941760Y-114878713D01*
X146944055Y-114969520D01*
X146937701Y-115102900D01*
X146917526Y-115228976D01*
X146882320Y-115352572D01*
X146830873Y-115478513D01*
X146801213Y-115538965D01*
X146702665Y-115710185D01*
X146587813Y-115871805D01*
X146455316Y-116025617D01*
X146380503Y-116101646D01*
X146266483Y-116212692D01*
X146283184Y-116272760D01*
X146310137Y-116348997D01*
X146346332Y-116421539D01*
X146382260Y-116475133D01*
X146409312Y-116501252D01*
X146447253Y-116527804D01*
X146489682Y-116551262D01*
X146530195Y-116568100D01*
X146562389Y-116574792D01*
X146563218Y-116574800D01*
X146623233Y-116565171D01*
X146685949Y-116537254D01*
X146749260Y-116492507D01*
X146811060Y-116432383D01*
X146862484Y-116367964D01*
X146879241Y-116341717D01*
X146903146Y-116300452D01*
X146932435Y-116247413D01*
X146965342Y-116185844D01*
X147000103Y-116118988D01*
X147029141Y-116061720D01*
X147151289Y-115817880D01*
X147141611Y-115731520D01*
X147136763Y-115671831D01*
X147133481Y-115596608D01*
X147131727Y-115510574D01*
X147131465Y-115418452D01*
X147132658Y-115324964D01*
X147135268Y-115234834D01*
X147139260Y-115152783D01*
X147144595Y-115083536D01*
X147146834Y-115062682D01*
X147161319Y-114960080D01*
X147178296Y-114877181D01*
X147197983Y-114813497D01*
X147220600Y-114768538D01*
X147246366Y-114741816D01*
X147275500Y-114732840D01*
X147293623Y-114735456D01*
X147346913Y-114761242D01*
X147394771Y-114806226D01*
X147436728Y-114869903D01*
X147456607Y-114911511D01*
X147462930Y-114926540D01*
X147467572Y-114940148D01*
X147470474Y-114955125D01*
X147471578Y-114974257D01*
X147470826Y-115000332D01*
X147468159Y-115036138D01*
X147463519Y-115084461D01*
X147456847Y-115148090D01*
X147450395Y-115208280D01*
X147435055Y-115440867D01*
X147438699Y-115673123D01*
X147461133Y-115902680D01*
X147502168Y-116127170D01*
X147535312Y-116257300D01*
X147547524Y-116297562D01*
X147558687Y-116329203D01*
X147567216Y-116347969D01*
X147570383Y-116351280D01*
X147578076Y-116341878D01*
X147588021Y-116316159D01*
X147599136Y-116277849D01*
X147610339Y-116230673D01*
X147620453Y-116178897D01*
X147645545Y-116067054D01*
X147682260Y-115947321D01*
X147728435Y-115824715D01*
X147781908Y-115704258D01*
X147840514Y-115590969D01*
X147902091Y-115489867D01*
X147940738Y-115435603D01*
X148005376Y-115356882D01*
X148065368Y-115296511D01*
X148122069Y-115253428D01*
X148176833Y-115226570D01*
X148220316Y-115216028D01*
X148277159Y-115214420D01*
X148320438Y-115226899D01*
X148350321Y-115253796D01*
X148366979Y-115295442D01*
X148370580Y-115352167D01*
X148361294Y-115424302D01*
X148350769Y-115470613D01*
X148343686Y-115500846D01*
X148338312Y-115531069D01*
X148334399Y-115564781D01*
X148331703Y-115605481D01*
X148329976Y-115656667D01*
X148328975Y-115721840D01*
X148328526Y-115787266D01*
X148328761Y-115874752D01*
X148330252Y-115952256D01*
X148332895Y-116016988D01*
X148336586Y-116066161D01*
X148339742Y-116089847D01*
X148368214Y-116208834D01*
X148408166Y-116312600D01*
X148459250Y-116400456D01*
X148521116Y-116471714D01*
X148542380Y-116490286D01*
X148598445Y-116526716D01*
X148652576Y-116542935D01*
X148704935Y-116538947D01*
X148755684Y-116514752D01*
X148782885Y-116492909D01*
X148822108Y-116448058D01*
X148859265Y-116389845D01*
X148890371Y-116325139D01*
X148906112Y-116280661D01*
X148923658Y-116197482D01*
X148932133Y-116097840D01*
X148931559Y-115983447D01*
X148921955Y-115856012D01*
X148903343Y-115717247D01*
X148898984Y-115690880D01*
X148880300Y-115597090D01*
X148856464Y-115509303D01*
X148825336Y-115420975D01*
X148784772Y-115325561D01*
X148766509Y-115286234D01*
X148725020Y-115196923D01*
X148693381Y-115125101D01*
X148671500Y-115070536D01*
X148659282Y-115032997D01*
X148656400Y-115015417D01*
X148665469Y-114987070D01*
X148690571Y-114967668D01*
X148728546Y-114959482D01*
X148734423Y-114959360D01*
X148790285Y-114965510D01*
X148842156Y-114984824D01*
X148891476Y-115018600D01*
X148939685Y-115068134D01*
X148988222Y-115134722D01*
X149038527Y-115219662D01*
X149052622Y-115245953D01*
X149116555Y-115387686D01*
X149164772Y-115538340D01*
X149197184Y-115695100D01*
X149213703Y-115855149D01*
X149214243Y-116015670D01*
X149198714Y-116173846D01*
X149167029Y-116326861D01*
X149119100Y-116471898D01*
X149092758Y-116532641D01*
X149044319Y-116615750D01*
X148982102Y-116690643D01*
X148909400Y-116754659D01*
X148829501Y-116805133D01*
X148745695Y-116839403D01*
X148700531Y-116850136D01*
X148620999Y-116853941D01*
X148539699Y-116838387D01*
X148458383Y-116804126D01*
X148378808Y-116751811D01*
X148334867Y-116714131D01*
X148266811Y-116641708D01*
X148210786Y-116561793D01*
X148164153Y-116470073D01*
X148129632Y-116378713D01*
X148107954Y-116310359D01*
X148091631Y-116250169D01*
X148079955Y-116193156D01*
X148072217Y-116134334D01*
X148067709Y-116068716D01*
X148065723Y-115991315D01*
X148065453Y-115927100D01*
X148065094Y-115868253D01*
X148063940Y-115817105D01*
X148062132Y-115776840D01*
X148059811Y-115750641D01*
X148057221Y-115741680D01*
X148044893Y-115750872D01*
X148027552Y-115776558D01*
X148006444Y-115815897D01*
X147982818Y-115866051D01*
X147957920Y-115924182D01*
X147932998Y-115987449D01*
X147909298Y-116053015D01*
X147888068Y-116118041D01*
X147880046Y-116144999D01*
X147857431Y-116228513D01*
X147837176Y-116314588D01*
X147818438Y-116407455D01*
X147800377Y-116511347D01*
X147782151Y-116630494D01*
X147778619Y-116655073D01*
X147769346Y-116718082D01*
X147761643Y-116764199D01*
X147754680Y-116796710D01*
X147747627Y-116818899D01*
X147739655Y-116834053D01*
X147730759Y-116844643D01*
X147695646Y-116867742D01*
X147652143Y-116874138D01*
X147598333Y-116864094D01*
X147595570Y-116863238D01*
X147545609Y-116837918D01*
X147494961Y-116794053D01*
X147444770Y-116733334D01*
X147396182Y-116657454D01*
X147350339Y-116568105D01*
X147308388Y-116466978D01*
X147287884Y-116408459D01*
X147271361Y-116359492D01*
X147256424Y-116317439D01*
X147244481Y-116286113D01*
X147236943Y-116269327D01*
X147235870Y-116267806D01*
X147227795Y-116272671D01*
X147212042Y-116292170D01*
X147190863Y-116323211D01*
X147166515Y-116362703D01*
X147165918Y-116363716D01*
X147084353Y-116492669D01*
X147003274Y-116601517D01*
X146922510Y-116690463D01*
X146841888Y-116759712D01*
X146813092Y-116779711D01*
X146726106Y-116825119D01*
X146635778Y-116851466D01*
X146544229Y-116859261D01*
X146453578Y-116849016D01*
X146365945Y-116821242D01*
X146283448Y-116776448D01*
X146208209Y-116715146D01*
X146142346Y-116637846D01*
X146126421Y-116614261D01*
X146062690Y-116501061D01*
X146012905Y-116381005D01*
X145976504Y-116251873D01*
X145952925Y-116111440D01*
X145941604Y-115957487D01*
X145940360Y-115878840D01*
X145941764Y-115847008D01*
X146226840Y-115847008D01*
X146230376Y-115874056D01*
X146238083Y-115883915D01*
X146238290Y-115883920D01*
X146250917Y-115877578D01*
X146272661Y-115861257D01*
X146290127Y-115846241D01*
X146341902Y-115792137D01*
X146396384Y-115722110D01*
X146451337Y-115639949D01*
X146504528Y-115549442D01*
X146553723Y-115454377D01*
X146596687Y-115358542D01*
X146629487Y-115270866D01*
X146652512Y-115191620D01*
X146669398Y-115112270D01*
X146679978Y-115035945D01*
X146684083Y-114965772D01*
X146681547Y-114904878D01*
X146672203Y-114856391D01*
X146655882Y-114823437D01*
X146653584Y-114820820D01*
X146623638Y-114802278D01*
X146585659Y-114796452D01*
X146548277Y-114804432D01*
X146543220Y-114806906D01*
X146524777Y-114823936D01*
X146500796Y-114856693D01*
X146472993Y-114901919D01*
X146443082Y-114956360D01*
X146412781Y-115016760D01*
X146383803Y-115079862D01*
X146357865Y-115142413D01*
X146338716Y-115195012D01*
X146321086Y-115252988D01*
X146303891Y-115319402D01*
X146287505Y-115391693D01*
X146272302Y-115467298D01*
X146258655Y-115543654D01*
X146246938Y-115618199D01*
X146237524Y-115688369D01*
X146230788Y-115751603D01*
X146227102Y-115805337D01*
X146226840Y-115847008D01*
X145941764Y-115847008D01*
X145949310Y-115675990D01*
X145975294Y-115472260D01*
X146017453Y-115272907D01*
X146065972Y-115109038D01*
X146115157Y-114976564D01*
X146166854Y-114862561D01*
X146222074Y-114765235D01*
X146281832Y-114682792D01*
X146344793Y-114615625D01*
X146420000Y-114555196D01*
X146495807Y-114513352D01*
X146570972Y-114490207D01*
X146644252Y-114485875D01*
X146714405Y-114500471D01*
G36*
X150824219Y-112969744D02*
G01*
X150843253Y-112971916D01*
X150882855Y-112987646D01*
X150907282Y-113015673D01*
X150915393Y-113053601D01*
X150906047Y-113099035D01*
X150905013Y-113101682D01*
X150887473Y-113130740D01*
X150857058Y-113166792D01*
X150817990Y-113205849D01*
X150774490Y-113243924D01*
X150730779Y-113277027D01*
X150697367Y-113297868D01*
X150666459Y-113313418D01*
X150643283Y-113319786D01*
X150618312Y-113318510D01*
X150596186Y-113314223D01*
X150528378Y-113304982D01*
X150451931Y-113305088D01*
X150363258Y-113314669D01*
X150305535Y-113324480D01*
X150191911Y-113345867D01*
X150166107Y-113418553D01*
X150141602Y-113495666D01*
X150116198Y-113590651D01*
X150090302Y-113701099D01*
X150064324Y-113824605D01*
X150038671Y-113958762D01*
X150013752Y-114101162D01*
X149989974Y-114249399D01*
X149967747Y-114401066D01*
X149947479Y-114553756D01*
X149929578Y-114705063D01*
X149914451Y-114852579D01*
X149905567Y-114954363D01*
X149900927Y-115015821D01*
X149898474Y-115062991D01*
X149898405Y-115101806D01*
X149900917Y-115138203D01*
X149906207Y-115178113D01*
X149914472Y-115227473D01*
X149914684Y-115228683D01*
X149948157Y-115438490D01*
X149972451Y-115635537D01*
X149987987Y-115824974D01*
X149995185Y-116011951D01*
X149994468Y-116201617D01*
X149994425Y-116203449D01*
X149989347Y-116343621D01*
X149981161Y-116464722D01*
X149969679Y-116567791D01*
X149954719Y-116653866D01*
X149936093Y-116723984D01*
X149913617Y-116779183D01*
X149887105Y-116820502D01*
X149883563Y-116824669D01*
X149858275Y-116848945D01*
X149834830Y-116857475D01*
X149805797Y-116851829D01*
X149788229Y-116844775D01*
X149763703Y-116829453D01*
X149742292Y-116804789D01*
X149722464Y-116768008D01*
X149702685Y-116716334D01*
X149684028Y-116656080D01*
X149653567Y-116537272D01*
X149627641Y-116406832D01*
X149606144Y-116263591D01*
X149588974Y-116106380D01*
X149576025Y-115934030D01*
X149567193Y-115745372D01*
X149562375Y-115539238D01*
X149561464Y-115314458D01*
X149561623Y-115284480D01*
X149564406Y-114842520D01*
X149527301Y-114749799D01*
X149495989Y-114659136D01*
X149479708Y-114580213D01*
X149478329Y-114511235D01*
X149491726Y-114450409D01*
X149504051Y-114422250D01*
X149522571Y-114395693D01*
X149544035Y-114387125D01*
X149573117Y-114395270D01*
X149583546Y-114400524D01*
X149618704Y-114419367D01*
X149630236Y-114366783D01*
X149636406Y-114334708D01*
X149644048Y-114289205D01*
X149652072Y-114237007D01*
X149657704Y-114197360D01*
X149663992Y-114156988D01*
X149673905Y-114100508D01*
X149686727Y-114031665D01*
X149701743Y-113954202D01*
X149718237Y-113871862D01*
X149735495Y-113788389D01*
X149739060Y-113771489D01*
X149755215Y-113694913D01*
X149769919Y-113624707D01*
X149782664Y-113563343D01*
X149792939Y-113513295D01*
X149800234Y-113477037D01*
X149804041Y-113457043D01*
X149804480Y-113453989D01*
X149795799Y-113447549D01*
X149779843Y-113445520D01*
X149760720Y-113448837D01*
X149725191Y-113458193D01*
X149675952Y-113472692D01*
X149615696Y-113491442D01*
X149547120Y-113513546D01*
X149472918Y-113538110D01*
X149395784Y-113564241D01*
X149318415Y-113591043D01*
X149243505Y-113617623D01*
X149173749Y-113643085D01*
X149111841Y-113666535D01*
X149099834Y-113671220D01*
X149035053Y-113696372D01*
X148986292Y-113714485D01*
X148950826Y-113726357D01*
X148925928Y-113732789D01*
X148908871Y-113734581D01*
X148896929Y-113732531D01*
X148894374Y-113731490D01*
X148872375Y-113712809D01*
X148862877Y-113681480D01*
X148865504Y-113635789D01*
X148869183Y-113616257D01*
X148895092Y-113536813D01*
X148936992Y-113468530D01*
X148995869Y-113410155D01*
X149068702Y-113362586D01*
X149096895Y-113349519D01*
X149141483Y-113331558D01*
X149199425Y-113309736D01*
X149267679Y-113285085D01*
X149343204Y-113258637D01*
X149422960Y-113231427D01*
X149503904Y-113204486D01*
X149582996Y-113178848D01*
X149657194Y-113155545D01*
X149723457Y-113135610D01*
X149778744Y-113120077D01*
X149795868Y-113115637D01*
X149874340Y-113097233D01*
X149962678Y-113078792D01*
X150058317Y-113060664D01*
X150158690Y-113043203D01*
X150261231Y-113026760D01*
X150363376Y-113011688D01*
X150462558Y-112998337D01*
X150556210Y-112987061D01*
X150641769Y-112978212D01*
X150716667Y-112972141D01*
X150778339Y-112969201D01*
X150824219Y-112969744D01*
G37*
X150824219Y-112969744D02*
X150843253Y-112971916D01*
X150882855Y-112987646D01*
X150907282Y-113015673D01*
X150915393Y-113053601D01*
X150906047Y-113099035D01*
X150905013Y-113101682D01*
X150887473Y-113130740D01*
X150857058Y-113166792D01*
X150817990Y-113205849D01*
X150774490Y-113243924D01*
X150730779Y-113277027D01*
X150697367Y-113297868D01*
X150666459Y-113313418D01*
X150643283Y-113319786D01*
X150618312Y-113318510D01*
X150596186Y-113314223D01*
X150528378Y-113304982D01*
X150451931Y-113305088D01*
X150363258Y-113314669D01*
X150305535Y-113324480D01*
X150191911Y-113345867D01*
X150166107Y-113418553D01*
X150141602Y-113495666D01*
X150116198Y-113590651D01*
X150090302Y-113701099D01*
X150064324Y-113824605D01*
X150038671Y-113958762D01*
X150013752Y-114101162D01*
X149989974Y-114249399D01*
X149967747Y-114401066D01*
X149947479Y-114553756D01*
X149929578Y-114705063D01*
X149914451Y-114852579D01*
X149905567Y-114954363D01*
X149900927Y-115015821D01*
X149898474Y-115062991D01*
X149898405Y-115101806D01*
X149900917Y-115138203D01*
X149906207Y-115178113D01*
X149914472Y-115227473D01*
X149914684Y-115228683D01*
X149948157Y-115438490D01*
X149972451Y-115635537D01*
X149987987Y-115824974D01*
X149995185Y-116011951D01*
X149994468Y-116201617D01*
X149994425Y-116203449D01*
X149989347Y-116343621D01*
X149981161Y-116464722D01*
X149969679Y-116567791D01*
X149954719Y-116653866D01*
X149936093Y-116723984D01*
X149913617Y-116779183D01*
X149887105Y-116820502D01*
X149883563Y-116824669D01*
X149858275Y-116848945D01*
X149834830Y-116857475D01*
X149805797Y-116851829D01*
X149788229Y-116844775D01*
X149763703Y-116829453D01*
X149742292Y-116804789D01*
X149722464Y-116768008D01*
X149702685Y-116716334D01*
X149684028Y-116656080D01*
X149653567Y-116537272D01*
X149627641Y-116406832D01*
X149606144Y-116263591D01*
X149588974Y-116106380D01*
X149576025Y-115934030D01*
X149567193Y-115745372D01*
X149562375Y-115539238D01*
X149561464Y-115314458D01*
X149561623Y-115284480D01*
X149564406Y-114842520D01*
X149527301Y-114749799D01*
X149495989Y-114659136D01*
X149479708Y-114580213D01*
X149478329Y-114511235D01*
X149491726Y-114450409D01*
X149504051Y-114422250D01*
X149522571Y-114395693D01*
X149544035Y-114387125D01*
X149573117Y-114395270D01*
X149583546Y-114400524D01*
X149618704Y-114419367D01*
X149630236Y-114366783D01*
X149636406Y-114334708D01*
X149644048Y-114289205D01*
X149652072Y-114237007D01*
X149657704Y-114197360D01*
X149663992Y-114156988D01*
X149673905Y-114100508D01*
X149686727Y-114031665D01*
X149701743Y-113954202D01*
X149718237Y-113871862D01*
X149735495Y-113788389D01*
X149739060Y-113771489D01*
X149755215Y-113694913D01*
X149769919Y-113624707D01*
X149782664Y-113563343D01*
X149792939Y-113513295D01*
X149800234Y-113477037D01*
X149804041Y-113457043D01*
X149804480Y-113453989D01*
X149795799Y-113447549D01*
X149779843Y-113445520D01*
X149760720Y-113448837D01*
X149725191Y-113458193D01*
X149675952Y-113472692D01*
X149615696Y-113491442D01*
X149547120Y-113513546D01*
X149472918Y-113538110D01*
X149395784Y-113564241D01*
X149318415Y-113591043D01*
X149243505Y-113617623D01*
X149173749Y-113643085D01*
X149111841Y-113666535D01*
X149099834Y-113671220D01*
X149035053Y-113696372D01*
X148986292Y-113714485D01*
X148950826Y-113726357D01*
X148925928Y-113732789D01*
X148908871Y-113734581D01*
X148896929Y-113732531D01*
X148894374Y-113731490D01*
X148872375Y-113712809D01*
X148862877Y-113681480D01*
X148865504Y-113635789D01*
X148869183Y-113616257D01*
X148895092Y-113536813D01*
X148936992Y-113468530D01*
X148995869Y-113410155D01*
X149068702Y-113362586D01*
X149096895Y-113349519D01*
X149141483Y-113331558D01*
X149199425Y-113309736D01*
X149267679Y-113285085D01*
X149343204Y-113258637D01*
X149422960Y-113231427D01*
X149503904Y-113204486D01*
X149582996Y-113178848D01*
X149657194Y-113155545D01*
X149723457Y-113135610D01*
X149778744Y-113120077D01*
X149795868Y-113115637D01*
X149874340Y-113097233D01*
X149962678Y-113078792D01*
X150058317Y-113060664D01*
X150158690Y-113043203D01*
X150261231Y-113026760D01*
X150363376Y-113011688D01*
X150462558Y-112998337D01*
X150556210Y-112987061D01*
X150641769Y-112978212D01*
X150716667Y-112972141D01*
X150778339Y-112969201D01*
X150824219Y-112969744D01*
G36*
X152582320Y-114439350D02*
G01*
X152610258Y-114458751D01*
X152617940Y-114470074D01*
X152625505Y-114494064D01*
X152632427Y-114534154D01*
X152638380Y-114586125D01*
X152643042Y-114645759D01*
X152646086Y-114708838D01*
X152647190Y-114771144D01*
X152646028Y-114828458D01*
X152645827Y-114832716D01*
X152641280Y-114894549D01*
X152633894Y-114960915D01*
X152624405Y-115027460D01*
X152613548Y-115089834D01*
X152602059Y-115143684D01*
X152590674Y-115184659D01*
X152583157Y-115203359D01*
X152563422Y-115230842D01*
X152532549Y-115262781D01*
X152496893Y-115293301D01*
X152462810Y-115316521D01*
X152457913Y-115319174D01*
X152427111Y-115331305D01*
X152391414Y-115340477D01*
X152387168Y-115341210D01*
X152359601Y-115343856D01*
X152343155Y-115338302D01*
X152329310Y-115321571D01*
X152328799Y-115320794D01*
X152321948Y-115308546D01*
X152317634Y-115294254D01*
X152315726Y-115274226D01*
X152316096Y-115244767D01*
X152318614Y-115202183D01*
X152322737Y-115147966D01*
X152329696Y-115048750D01*
X152333261Y-114968498D01*
X152333433Y-114906139D01*
X152330215Y-114860603D01*
X152323611Y-114830821D01*
X152323483Y-114830481D01*
X152299346Y-114787562D01*
X152266315Y-114762877D01*
X152230622Y-114756159D01*
X152173542Y-114766092D01*
X152117086Y-114794983D01*
X152062055Y-114841471D01*
X152009246Y-114904194D01*
X151959459Y-114981792D01*
X151913492Y-115072902D01*
X151872144Y-115176165D01*
X151836215Y-115290219D01*
X151806503Y-115413702D01*
X151789359Y-115508003D01*
X151780590Y-115580635D01*
X151774867Y-115664688D01*
X151772191Y-115754682D01*
X151772560Y-115845137D01*
X151775978Y-115930574D01*
X151782443Y-116005513D01*
X151789297Y-116051560D01*
X151814612Y-116163210D01*
X151845636Y-116262263D01*
X151881525Y-116346585D01*
X151921435Y-116414045D01*
X151944172Y-116442503D01*
X151983030Y-116477066D01*
X152029843Y-116506198D01*
X152077847Y-116526396D01*
X152120277Y-116534155D01*
X152121144Y-116534160D01*
X152182014Y-116524499D01*
X152244774Y-116496643D01*
X152307131Y-116452279D01*
X152366789Y-116393095D01*
X152421452Y-116320781D01*
X152430484Y-116306659D01*
X152466115Y-116244819D01*
X152504511Y-116170284D01*
X152542491Y-116089788D01*
X152576873Y-116010066D01*
X152603793Y-115939800D01*
X152620680Y-115893184D01*
X152633806Y-115862558D01*
X152645684Y-115844587D01*
X152658829Y-115835933D01*
X152675754Y-115833261D01*
X152684183Y-115833120D01*
X152718204Y-115842618D01*
X152749393Y-115868546D01*
X152773629Y-115907054D01*
X152779503Y-115922175D01*
X152785893Y-115963110D01*
X152783959Y-116018151D01*
X152774624Y-116083312D01*
X152758810Y-116154604D01*
X152737440Y-116228041D01*
X152711438Y-116299634D01*
X152681727Y-116365397D01*
X152673121Y-116381760D01*
X152601699Y-116502985D01*
X152529923Y-116604713D01*
X152456998Y-116687763D01*
X152382129Y-116752953D01*
X152304522Y-116801100D01*
X152239734Y-116827962D01*
X152141594Y-116850933D01*
X152047258Y-116854133D01*
X151957101Y-116837818D01*
X151871499Y-116802247D01*
X151790827Y-116747675D01*
X151715461Y-116674361D01*
X151645776Y-116582561D01*
X151582148Y-116472533D01*
X151524951Y-116344534D01*
X151521636Y-116336040D01*
X151508426Y-116303284D01*
X151497396Y-116278339D01*
X151491481Y-116267453D01*
X151484013Y-116272210D01*
X151469510Y-116291350D01*
X151450511Y-116321333D01*
X151440519Y-116338573D01*
X151362773Y-116467646D01*
X151286006Y-116577112D01*
X151209587Y-116667623D01*
X151132885Y-116739827D01*
X151055270Y-116794376D01*
X150976110Y-116831919D01*
X150954762Y-116839109D01*
X150879450Y-116854410D01*
X150796442Y-116857981D01*
X150714656Y-116849788D01*
X150673160Y-116840178D01*
X150628151Y-116826035D01*
X150592630Y-116811294D01*
X150558876Y-116792031D01*
X150519169Y-116764320D01*
X150508663Y-116756549D01*
X150450424Y-116702723D01*
X150395153Y-116631312D01*
X150344107Y-116544979D01*
X150298538Y-116446387D01*
X150259703Y-116338198D01*
X150228856Y-116223076D01*
X150209992Y-116122680D01*
X150203615Y-116062635D01*
X150199840Y-115988020D01*
X150198605Y-115904408D01*
X150199152Y-115866078D01*
X150495360Y-115866078D01*
X150518220Y-115851110D01*
X150533600Y-115838000D01*
X150558969Y-115813100D01*
X150590903Y-115779887D01*
X150625983Y-115741837D01*
X150628793Y-115738722D01*
X150734236Y-115609469D01*
X150819565Y-115478163D01*
X150884914Y-115344491D01*
X150930414Y-115208142D01*
X150956197Y-115068807D01*
X150962720Y-114952444D01*
X150960425Y-114895045D01*
X150952535Y-114852677D01*
X150937541Y-114820469D01*
X150913935Y-114793546D01*
X150913369Y-114793031D01*
X150887978Y-114779798D01*
X150858942Y-114784030D01*
X150824710Y-114806230D01*
X150799504Y-114829950D01*
X150766416Y-114871524D01*
X150730614Y-114929694D01*
X150693559Y-115001171D01*
X150656713Y-115082665D01*
X150621536Y-115170886D01*
X150589490Y-115262544D01*
X150562037Y-115354349D01*
X150555382Y-115379590D01*
X150541984Y-115438735D01*
X150528888Y-115508397D01*
X150516906Y-115582942D01*
X150506847Y-115656740D01*
X150499523Y-115724159D01*
X150495744Y-115779566D01*
X150495406Y-115796259D01*
X150495360Y-115866078D01*
X150199152Y-115866078D01*
X150199849Y-115817371D01*
X150203510Y-115732485D01*
X150209525Y-115655321D01*
X150215746Y-115604520D01*
X150241959Y-115457450D01*
X150275792Y-115312292D01*
X150316217Y-115171902D01*
X150362206Y-115039138D01*
X150412730Y-114916856D01*
X150466760Y-114807916D01*
X150523268Y-114715172D01*
X150548312Y-114680673D01*
X150612329Y-114608541D01*
X150681392Y-114550395D01*
X150753372Y-114507077D01*
X150826141Y-114479429D01*
X150897572Y-114468292D01*
X150965538Y-114474507D01*
X151019532Y-114494340D01*
X151080719Y-114535862D01*
X151134498Y-114590997D01*
X151176183Y-114654219D01*
X151196540Y-114703126D01*
X151224905Y-114829062D01*
X151234356Y-114960765D01*
X151225139Y-115097230D01*
X151197499Y-115237456D01*
X151151682Y-115380441D01*
X151087933Y-115525181D01*
X151006499Y-115670674D01*
X150932087Y-115782320D01*
X150885770Y-115841626D01*
X150825956Y-115909418D01*
X150755756Y-115982470D01*
X150678281Y-116057556D01*
X150596641Y-116131453D01*
X150588415Y-116138612D01*
X150523991Y-116194473D01*
X150541303Y-116255096D01*
X150572073Y-116340065D01*
X150611868Y-116414072D01*
X150658963Y-116475579D01*
X150711634Y-116523048D01*
X150768155Y-116554940D01*
X150826803Y-116569717D01*
X150885852Y-116565840D01*
X150888868Y-116565108D01*
X150951993Y-116539322D01*
X151014217Y-116494535D01*
X151066867Y-116440307D01*
X151094789Y-116406156D01*
X151119917Y-116372851D01*
X151144173Y-116337261D01*
X151169478Y-116296259D01*
X151197756Y-116246715D01*
X151230927Y-116185501D01*
X151270915Y-116109487D01*
X151275489Y-116100710D01*
X151307854Y-116039224D01*
X151339754Y-115979833D01*
X151369073Y-115926385D01*
X151393696Y-115882729D01*
X151411508Y-115852714D01*
X151413533Y-115849514D01*
X151430009Y-115822884D01*
X151441346Y-115800279D01*
X151448923Y-115776462D01*
X151454117Y-115746200D01*
X151458305Y-115704255D01*
X151461106Y-115668694D01*
X151469025Y-115579176D01*
X151478772Y-115501429D01*
X151491709Y-115426910D01*
X151509194Y-115347077D01*
X151518227Y-115309880D01*
X151558698Y-115170173D01*
X151608609Y-115037128D01*
X151666519Y-114913578D01*
X151730988Y-114802359D01*
X151800575Y-114706305D01*
X151856010Y-114645178D01*
X151941874Y-114568811D01*
X152025986Y-114511404D01*
X152110306Y-114471940D01*
X152196790Y-114449400D01*
X152242880Y-114444057D01*
X152286634Y-114442144D01*
X152319578Y-114444673D01*
X152350999Y-114453060D01*
X152382124Y-114465296D01*
X152445168Y-114491874D01*
X152472261Y-114466765D01*
X152508299Y-114443243D01*
X152546660Y-114434142D01*
X152582320Y-114439350D01*
G37*
X152582320Y-114439350D02*
X152610258Y-114458751D01*
X152617940Y-114470074D01*
X152625505Y-114494064D01*
X152632427Y-114534154D01*
X152638380Y-114586125D01*
X152643042Y-114645759D01*
X152646086Y-114708838D01*
X152647190Y-114771144D01*
X152646028Y-114828458D01*
X152645827Y-114832716D01*
X152641280Y-114894549D01*
X152633894Y-114960915D01*
X152624405Y-115027460D01*
X152613548Y-115089834D01*
X152602059Y-115143684D01*
X152590674Y-115184659D01*
X152583157Y-115203359D01*
X152563422Y-115230842D01*
X152532549Y-115262781D01*
X152496893Y-115293301D01*
X152462810Y-115316521D01*
X152457913Y-115319174D01*
X152427111Y-115331305D01*
X152391414Y-115340477D01*
X152387168Y-115341210D01*
X152359601Y-115343856D01*
X152343155Y-115338302D01*
X152329310Y-115321571D01*
X152328799Y-115320794D01*
X152321948Y-115308546D01*
X152317634Y-115294254D01*
X152315726Y-115274226D01*
X152316096Y-115244767D01*
X152318614Y-115202183D01*
X152322737Y-115147966D01*
X152329696Y-115048750D01*
X152333261Y-114968498D01*
X152333433Y-114906139D01*
X152330215Y-114860603D01*
X152323611Y-114830821D01*
X152323483Y-114830481D01*
X152299346Y-114787562D01*
X152266315Y-114762877D01*
X152230622Y-114756159D01*
X152173542Y-114766092D01*
X152117086Y-114794983D01*
X152062055Y-114841471D01*
X152009246Y-114904194D01*
X151959459Y-114981792D01*
X151913492Y-115072902D01*
X151872144Y-115176165D01*
X151836215Y-115290219D01*
X151806503Y-115413702D01*
X151789359Y-115508003D01*
X151780590Y-115580635D01*
X151774867Y-115664688D01*
X151772191Y-115754682D01*
X151772560Y-115845137D01*
X151775978Y-115930574D01*
X151782443Y-116005513D01*
X151789297Y-116051560D01*
X151814612Y-116163210D01*
X151845636Y-116262263D01*
X151881525Y-116346585D01*
X151921435Y-116414045D01*
X151944172Y-116442503D01*
X151983030Y-116477066D01*
X152029843Y-116506198D01*
X152077847Y-116526396D01*
X152120277Y-116534155D01*
X152121144Y-116534160D01*
X152182014Y-116524499D01*
X152244774Y-116496643D01*
X152307131Y-116452279D01*
X152366789Y-116393095D01*
X152421452Y-116320781D01*
X152430484Y-116306659D01*
X152466115Y-116244819D01*
X152504511Y-116170284D01*
X152542491Y-116089788D01*
X152576873Y-116010066D01*
X152603793Y-115939800D01*
X152620680Y-115893184D01*
X152633806Y-115862558D01*
X152645684Y-115844587D01*
X152658829Y-115835933D01*
X152675754Y-115833261D01*
X152684183Y-115833120D01*
X152718204Y-115842618D01*
X152749393Y-115868546D01*
X152773629Y-115907054D01*
X152779503Y-115922175D01*
X152785893Y-115963110D01*
X152783959Y-116018151D01*
X152774624Y-116083312D01*
X152758810Y-116154604D01*
X152737440Y-116228041D01*
X152711438Y-116299634D01*
X152681727Y-116365397D01*
X152673121Y-116381760D01*
X152601699Y-116502985D01*
X152529923Y-116604713D01*
X152456998Y-116687763D01*
X152382129Y-116752953D01*
X152304522Y-116801100D01*
X152239734Y-116827962D01*
X152141594Y-116850933D01*
X152047258Y-116854133D01*
X151957101Y-116837818D01*
X151871499Y-116802247D01*
X151790827Y-116747675D01*
X151715461Y-116674361D01*
X151645776Y-116582561D01*
X151582148Y-116472533D01*
X151524951Y-116344534D01*
X151521636Y-116336040D01*
X151508426Y-116303284D01*
X151497396Y-116278339D01*
X151491481Y-116267453D01*
X151484013Y-116272210D01*
X151469510Y-116291350D01*
X151450511Y-116321333D01*
X151440519Y-116338573D01*
X151362773Y-116467646D01*
X151286006Y-116577112D01*
X151209587Y-116667623D01*
X151132885Y-116739827D01*
X151055270Y-116794376D01*
X150976110Y-116831919D01*
X150954762Y-116839109D01*
X150879450Y-116854410D01*
X150796442Y-116857981D01*
X150714656Y-116849788D01*
X150673160Y-116840178D01*
X150628151Y-116826035D01*
X150592630Y-116811294D01*
X150558876Y-116792031D01*
X150519169Y-116764320D01*
X150508663Y-116756549D01*
X150450424Y-116702723D01*
X150395153Y-116631312D01*
X150344107Y-116544979D01*
X150298538Y-116446387D01*
X150259703Y-116338198D01*
X150228856Y-116223076D01*
X150209992Y-116122680D01*
X150203615Y-116062635D01*
X150199840Y-115988020D01*
X150198605Y-115904408D01*
X150199152Y-115866078D01*
X150495360Y-115866078D01*
X150518220Y-115851110D01*
X150533600Y-115838000D01*
X150558969Y-115813100D01*
X150590903Y-115779887D01*
X150625983Y-115741837D01*
X150628793Y-115738722D01*
X150734236Y-115609469D01*
X150819565Y-115478163D01*
X150884914Y-115344491D01*
X150930414Y-115208142D01*
X150956197Y-115068807D01*
X150962720Y-114952444D01*
X150960425Y-114895045D01*
X150952535Y-114852677D01*
X150937541Y-114820469D01*
X150913935Y-114793546D01*
X150913369Y-114793031D01*
X150887978Y-114779798D01*
X150858942Y-114784030D01*
X150824710Y-114806230D01*
X150799504Y-114829950D01*
X150766416Y-114871524D01*
X150730614Y-114929694D01*
X150693559Y-115001171D01*
X150656713Y-115082665D01*
X150621536Y-115170886D01*
X150589490Y-115262544D01*
X150562037Y-115354349D01*
X150555382Y-115379590D01*
X150541984Y-115438735D01*
X150528888Y-115508397D01*
X150516906Y-115582942D01*
X150506847Y-115656740D01*
X150499523Y-115724159D01*
X150495744Y-115779566D01*
X150495406Y-115796259D01*
X150495360Y-115866078D01*
X150199152Y-115866078D01*
X150199849Y-115817371D01*
X150203510Y-115732485D01*
X150209525Y-115655321D01*
X150215746Y-115604520D01*
X150241959Y-115457450D01*
X150275792Y-115312292D01*
X150316217Y-115171902D01*
X150362206Y-115039138D01*
X150412730Y-114916856D01*
X150466760Y-114807916D01*
X150523268Y-114715172D01*
X150548312Y-114680673D01*
X150612329Y-114608541D01*
X150681392Y-114550395D01*
X150753372Y-114507077D01*
X150826141Y-114479429D01*
X150897572Y-114468292D01*
X150965538Y-114474507D01*
X151019532Y-114494340D01*
X151080719Y-114535862D01*
X151134498Y-114590997D01*
X151176183Y-114654219D01*
X151196540Y-114703126D01*
X151224905Y-114829062D01*
X151234356Y-114960765D01*
X151225139Y-115097230D01*
X151197499Y-115237456D01*
X151151682Y-115380441D01*
X151087933Y-115525181D01*
X151006499Y-115670674D01*
X150932087Y-115782320D01*
X150885770Y-115841626D01*
X150825956Y-115909418D01*
X150755756Y-115982470D01*
X150678281Y-116057556D01*
X150596641Y-116131453D01*
X150588415Y-116138612D01*
X150523991Y-116194473D01*
X150541303Y-116255096D01*
X150572073Y-116340065D01*
X150611868Y-116414072D01*
X150658963Y-116475579D01*
X150711634Y-116523048D01*
X150768155Y-116554940D01*
X150826803Y-116569717D01*
X150885852Y-116565840D01*
X150888868Y-116565108D01*
X150951993Y-116539322D01*
X151014217Y-116494535D01*
X151066867Y-116440307D01*
X151094789Y-116406156D01*
X151119917Y-116372851D01*
X151144173Y-116337261D01*
X151169478Y-116296259D01*
X151197756Y-116246715D01*
X151230927Y-116185501D01*
X151270915Y-116109487D01*
X151275489Y-116100710D01*
X151307854Y-116039224D01*
X151339754Y-115979833D01*
X151369073Y-115926385D01*
X151393696Y-115882729D01*
X151411508Y-115852714D01*
X151413533Y-115849514D01*
X151430009Y-115822884D01*
X151441346Y-115800279D01*
X151448923Y-115776462D01*
X151454117Y-115746200D01*
X151458305Y-115704255D01*
X151461106Y-115668694D01*
X151469025Y-115579176D01*
X151478772Y-115501429D01*
X151491709Y-115426910D01*
X151509194Y-115347077D01*
X151518227Y-115309880D01*
X151558698Y-115170173D01*
X151608609Y-115037128D01*
X151666519Y-114913578D01*
X151730988Y-114802359D01*
X151800575Y-114706305D01*
X151856010Y-114645178D01*
X151941874Y-114568811D01*
X152025986Y-114511404D01*
X152110306Y-114471940D01*
X152196790Y-114449400D01*
X152242880Y-114444057D01*
X152286634Y-114442144D01*
X152319578Y-114444673D01*
X152350999Y-114453060D01*
X152382124Y-114465296D01*
X152445168Y-114491874D01*
X152472261Y-114466765D01*
X152508299Y-114443243D01*
X152546660Y-114434142D01*
X152582320Y-114439350D01*
D14*
%TO.C,SW5*%
X175600000Y-140400000D02*
X175600000Y-142800000D01*
%TO.C,SW4*%
X171500000Y-142800000D02*
X171500000Y-140400000D01*
%TO.C,SW3*%
X164600000Y-142800000D02*
X164600000Y-140400000D01*
D15*
%TO.C,SW1*%
X131025000Y-142150000D02*
X131025000Y-143150000D01*
X124675000Y-144000000D02*
X130675000Y-144000000D01*
X124675000Y-141300000D02*
X130675000Y-141300000D01*
X124325000Y-142150000D02*
X124325000Y-143150000D01*
X127675000Y-145500000D02*
X127675000Y-144000000D01*
X126175000Y-145500000D02*
X127675000Y-145500000D01*
X126175000Y-144000000D02*
X126175000Y-145500000D01*
D14*
X125525000Y-139600000D02*
G75*
G03*
X125525000Y-139600000I-100000J0D01*
G01*
D11*
%TO.C,J1*%
X157200000Y-99500000D02*
X143800000Y-99500000D01*
X157200000Y-93500000D02*
X152250000Y-93500000D01*
X157200000Y-93500000D02*
X157200000Y-96100000D01*
X143800000Y-93500000D02*
X143800000Y-96100000D01*
X143800000Y-93500000D02*
X148750000Y-93500000D01*
%TO.C,U6*%
X156045000Y-138095000D02*
X156425000Y-138095000D01*
X156045000Y-144515000D02*
X156045000Y-138095000D01*
X137805000Y-144515000D02*
X137805000Y-138095000D01*
X156045000Y-144515000D02*
X137805000Y-144515000D01*
X137805000Y-118770000D02*
X138805000Y-118770000D01*
X137805000Y-119550000D02*
X137805000Y-118770000D01*
X156045000Y-118770000D02*
X155045000Y-118770000D01*
X156045000Y-119550000D02*
X156045000Y-118770000D01*
%TO.C,J3*%
X139400000Y-106075000D02*
X137250000Y-106075000D01*
X137250000Y-102525000D02*
X140150000Y-102525000D01*
X145550000Y-106075000D02*
X145550000Y-102525000D01*
X145550000Y-102525000D02*
X142650000Y-102525000D01*
X137250000Y-106075000D02*
X137250000Y-102525000D01*
X143400000Y-106075000D02*
X145550000Y-106075000D01*
X143100000Y-106075000D02*
X142500000Y-106075000D01*
X143100000Y-105325000D02*
X143100000Y-106075000D01*
%TO.C,D7*%
X161512500Y-138485000D02*
X163972500Y-138485000D01*
X161512500Y-137015000D02*
X161512500Y-138485000D01*
X163972500Y-137015000D02*
X161512500Y-137015000D01*
%TO.C,D9*%
X175354166Y-138485000D02*
X177814166Y-138485000D01*
X175354166Y-137015000D02*
X175354166Y-138485000D01*
X177814166Y-137015000D02*
X175354166Y-137015000D01*
%TO.C,D8*%
X168390000Y-138485000D02*
X170850000Y-138485000D01*
X168390000Y-137015000D02*
X168390000Y-138485000D01*
X170850000Y-137015000D02*
X168390000Y-137015000D01*
D12*
%TO.C,D10*%
X124875000Y-137000000D02*
X124875000Y-136000000D01*
X130375000Y-136000000D02*
X124875000Y-136000000D01*
X130375000Y-139000000D02*
X124975000Y-139000000D01*
D11*
%TO.C,SW2*%
X121900000Y-138625000D02*
X121900000Y-141125000D01*
X120150000Y-137125000D02*
X118150000Y-137125000D01*
X116400000Y-138625000D02*
X116400000Y-141125000D01*
X120150000Y-142625000D02*
X118150000Y-142625000D01*
X121450000Y-138175000D02*
X121900000Y-138625000D01*
X121450000Y-141575000D02*
X121900000Y-141125000D01*
X116850000Y-141575000D02*
X116400000Y-141125000D01*
X116850000Y-138175000D02*
X116400000Y-138625000D01*
D15*
%TO.C,BT1*%
X124400000Y-65850000D02*
X124400000Y-64350000D01*
X134725000Y-135125000D02*
X134725000Y-58075000D01*
X114075000Y-135125000D02*
X134725000Y-135125000D01*
X114075000Y-58075000D02*
X114075000Y-135125000D01*
X134725000Y-58075000D02*
X114075000Y-58075000D01*
X123650000Y-128100000D02*
X125150000Y-128100000D01*
X124400000Y-127350000D02*
X124400000Y-128850000D01*
D11*
%TO.C,C5*%
X137110000Y-61902064D02*
X137110000Y-60697936D01*
X135290000Y-61902064D02*
X135290000Y-60697936D01*
%TO.C,R15*%
X158060000Y-134946267D02*
X158060000Y-134603733D01*
X157040000Y-134946267D02*
X157040000Y-134603733D01*
%TO.C,R17*%
X135465000Y-120503733D02*
X135465000Y-120846267D01*
X136485000Y-120503733D02*
X136485000Y-120846267D01*
%TO.C,R23*%
X159153733Y-138235000D02*
X159496267Y-138235000D01*
X159153733Y-137215000D02*
X159496267Y-137215000D01*
%TO.C,R27*%
X173671267Y-137240000D02*
X173328733Y-137240000D01*
X173671267Y-138260000D02*
X173328733Y-138260000D01*
%TO.C,R25*%
X166771267Y-137240000D02*
X166428733Y-137240000D01*
X166771267Y-138260000D02*
X166428733Y-138260000D01*
%TO.C,D4*%
X147750000Y-107100000D02*
X147750000Y-110250000D01*
X146050000Y-107100000D02*
X146050000Y-110250000D01*
X147750000Y-107100000D02*
X146050000Y-107100000D01*
%TO.C,J7*%
X138620000Y-60350000D02*
X138620000Y-58990000D01*
X155380000Y-65550000D02*
X155950000Y-65550000D01*
X152840000Y-65550000D02*
X153860000Y-65550000D01*
X150300000Y-65550000D02*
X151320000Y-65550000D01*
X147760000Y-65550000D02*
X148780000Y-65550000D01*
X145220000Y-65550000D02*
X146240000Y-65550000D01*
X142680000Y-65550000D02*
X143700000Y-65550000D01*
X140140000Y-65550000D02*
X141160000Y-65550000D01*
X138050000Y-65550000D02*
X138620000Y-65550000D01*
X155950000Y-65550000D02*
X155950000Y-60350000D01*
X155380000Y-60350000D02*
X155950000Y-60350000D01*
X152840000Y-60350000D02*
X153860000Y-60350000D01*
X150300000Y-60350000D02*
X151320000Y-60350000D01*
X147760000Y-60350000D02*
X148780000Y-60350000D01*
X145220000Y-60350000D02*
X146240000Y-60350000D01*
X142680000Y-60350000D02*
X143700000Y-60350000D01*
X140140000Y-60350000D02*
X141160000Y-60350000D01*
X138050000Y-60350000D02*
X138620000Y-60350000D01*
X138050000Y-65550000D02*
X138050000Y-60350000D01*
%TO.C,D5*%
X141600000Y-108750000D02*
X138450000Y-108750000D01*
X141600000Y-107050000D02*
X138450000Y-107050000D01*
X141600000Y-108750000D02*
X141600000Y-107050000D01*
%TO.C,D6*%
X141900000Y-107050000D02*
X145050000Y-107050000D01*
X141900000Y-108750000D02*
X145050000Y-108750000D01*
X141900000Y-107050000D02*
X141900000Y-108750000D01*
%TO.C,R12*%
X137171267Y-111010000D02*
X136828733Y-111010000D01*
X137171267Y-109990000D02*
X136828733Y-109990000D01*
%TO.C,Q5*%
X135420000Y-113860000D02*
X136350000Y-113860000D01*
X138580000Y-113860000D02*
X137650000Y-113860000D01*
X138580000Y-113860000D02*
X138580000Y-111700000D01*
X135420000Y-113860000D02*
X135420000Y-112400000D01*
D15*
%TO.C,J2*%
X141810000Y-87060000D02*
X141810000Y-86730000D01*
X135110000Y-87060000D02*
X135110000Y-86730000D01*
X141810000Y-88750000D02*
X141810000Y-94050000D01*
X135110000Y-88740000D02*
X135110000Y-94090000D01*
X135110000Y-94090000D02*
X141810000Y-94090000D01*
X141810000Y-86730000D02*
X135110000Y-86730000D01*
D11*
%TO.C,C16*%
X166260000Y-141978733D02*
X166260000Y-142321267D01*
X165240000Y-141978733D02*
X165240000Y-142321267D01*
%TO.C,C17*%
X173190000Y-142008733D02*
X173190000Y-142351267D01*
X172170000Y-142008733D02*
X172170000Y-142351267D01*
%TO.C,C18*%
X174940000Y-141998733D02*
X174940000Y-142341267D01*
X173920000Y-141998733D02*
X173920000Y-142341267D01*
%TO.C,R5*%
X155019520Y-114098271D02*
X155261729Y-114340480D01*
X154298271Y-114819520D02*
X154540480Y-115061729D01*
D15*
%TO.C,BT2*%
X169600000Y-127350000D02*
X169600000Y-128850000D01*
X159275000Y-58075000D02*
X159275000Y-135125000D01*
X179925000Y-58075000D02*
X159275000Y-58075000D01*
X179925000Y-135125000D02*
X179925000Y-58075000D01*
X159275000Y-135125000D02*
X179925000Y-135125000D01*
X170350000Y-65100000D02*
X168850000Y-65100000D01*
X169600000Y-65850000D02*
X169600000Y-64350000D01*
%TO.C,J1*%
D12*
X150166666Y-90752380D02*
X150166666Y-91466666D01*
X150119047Y-91609523D01*
X150023809Y-91704761D01*
X149880952Y-91752380D01*
X149785714Y-91752380D01*
X151166666Y-91752380D02*
X150595238Y-91752380D01*
X150880952Y-91752380D02*
X150880952Y-90752380D01*
X150785714Y-90895238D01*
X150690476Y-90990476D01*
X150595238Y-91038095D01*
%TO.C,U6*%
X154013095Y-116702380D02*
X154013095Y-117511904D01*
X154060714Y-117607142D01*
X154108333Y-117654761D01*
X154203571Y-117702380D01*
X154394047Y-117702380D01*
X154489285Y-117654761D01*
X154536904Y-117607142D01*
X154584523Y-117511904D01*
X154584523Y-116702380D01*
X155489285Y-116702380D02*
X155298809Y-116702380D01*
X155203571Y-116750000D01*
X155155952Y-116797619D01*
X155060714Y-116940476D01*
X155013095Y-117130952D01*
X155013095Y-117511904D01*
X155060714Y-117607142D01*
X155108333Y-117654761D01*
X155203571Y-117702380D01*
X155394047Y-117702380D01*
X155489285Y-117654761D01*
X155536904Y-117607142D01*
X155584523Y-117511904D01*
X155584523Y-117273809D01*
X155536904Y-117178571D01*
X155489285Y-117130952D01*
X155394047Y-117083333D01*
X155203571Y-117083333D01*
X155108333Y-117130952D01*
X155060714Y-117178571D01*
X155013095Y-117273809D01*
%TO.C,J3*%
X141066666Y-100414333D02*
X141066666Y-101128619D01*
X141019047Y-101271476D01*
X140923809Y-101366714D01*
X140780952Y-101414333D01*
X140685714Y-101414333D01*
X141447619Y-100414333D02*
X142066666Y-100414333D01*
X141733333Y-100795286D01*
X141876190Y-100795286D01*
X141971428Y-100842905D01*
X142019047Y-100890524D01*
X142066666Y-100985762D01*
X142066666Y-101223857D01*
X142019047Y-101319095D01*
X141971428Y-101366714D01*
X141876190Y-101414333D01*
X141590476Y-101414333D01*
X141495238Y-101366714D01*
X141447619Y-101319095D01*
%TO.C,J7*%
X146666666Y-68152380D02*
X146666666Y-68866666D01*
X146619047Y-69009523D01*
X146523809Y-69104761D01*
X146380952Y-69152380D01*
X146285714Y-69152380D01*
X147047619Y-68152380D02*
X147714285Y-68152380D01*
X147285714Y-69152380D01*
%TO.C,J2*%
X135656666Y-85012380D02*
X135656666Y-85726666D01*
X135609047Y-85869523D01*
X135513809Y-85964761D01*
X135370952Y-86012380D01*
X135275714Y-86012380D01*
X136085238Y-85107619D02*
X136132857Y-85060000D01*
X136228095Y-85012380D01*
X136466190Y-85012380D01*
X136561428Y-85060000D01*
X136609047Y-85107619D01*
X136656666Y-85202857D01*
X136656666Y-85298095D01*
X136609047Y-85440952D01*
X136037619Y-86012380D01*
X136656666Y-86012380D01*
X140275714Y-93302380D02*
X139704285Y-93302380D01*
X139990000Y-93302380D02*
X139990000Y-92302380D01*
X139894761Y-92445238D01*
X139799523Y-92540476D01*
X139704285Y-92588095D01*
%TD*%
M02*
