%TF.GenerationSoftware,KiCad,Pcbnew,(5.1.6)-1*%
%TF.CreationDate,2022-08-11T18:16:32+02:00*%
%TF.ProjectId,ZumoComSystem,5a756d6f-436f-46d5-9379-7374656d2e6b,V1.1*%
%TF.SameCoordinates,Original*%
%TF.FileFunction,Soldermask,Top*%
%TF.FilePolarity,Negative*%
%FSLAX46Y46*%
G04 Gerber Fmt 4.6, Leading zero omitted, Abs format (unit mm)*
G04 Created by KiCad (PCBNEW (5.1.6)-1) date 2022-08-11 18:16:32*
%MOMM*%
%LPD*%
G01*
G04 APERTURE LIST*
%ADD10C,0.300000*%
%ADD11R,1.100000X0.900000*%
%ADD12R,0.800000X1.200000*%
%ADD13C,1.000000*%
%ADD14R,1.800000X1.800000*%
%ADD15O,1.800000X1.800000*%
%ADD16R,1.600000X1.100000*%
%ADD17R,1.100000X1.000000*%
%ADD18R,0.650000X1.800000*%
%ADD19O,3.000000X2.000000*%
%ADD20O,2.000000X3.000000*%
%ADD21C,1.400000*%
%ADD22R,1.400000X1.400000*%
%ADD23R,5.100000X5.100000*%
%ADD24R,2.100000X1.000000*%
%ADD25R,1.000000X2.100000*%
%ADD26R,0.550000X1.600000*%
%ADD27O,1.900000X1.200000*%
%ADD28O,2.300000X1.200000*%
%ADD29R,1.100000X1.800000*%
%ADD30C,2.080000*%
%ADD31C,3.650000*%
%ADD32C,2.490000*%
%ADD33R,1.100000X1.100000*%
%ADD34R,1.100000X3.100000*%
%ADD35R,0.900000X1.000000*%
%ADD36C,1.120000*%
%ADD37C,1.630000*%
G04 APERTURE END LIST*
D10*
X169035714Y-75928571D02*
X169892857Y-75928571D01*
X169464285Y-77428571D02*
X169464285Y-75928571D01*
X170678571Y-75928571D02*
X170964285Y-75928571D01*
X171107142Y-76000000D01*
X171250000Y-76142857D01*
X171321428Y-76428571D01*
X171321428Y-76928571D01*
X171250000Y-77214285D01*
X171107142Y-77357142D01*
X170964285Y-77428571D01*
X170678571Y-77428571D01*
X170535714Y-77357142D01*
X170392857Y-77214285D01*
X170321428Y-76928571D01*
X170321428Y-76428571D01*
X170392857Y-76142857D01*
X170535714Y-76000000D01*
X170678571Y-75928571D01*
X171964285Y-77428571D02*
X171964285Y-75928571D01*
X172535714Y-75928571D01*
X172678571Y-76000000D01*
X172750000Y-76071428D01*
X172821428Y-76214285D01*
X172821428Y-76428571D01*
X172750000Y-76571428D01*
X172678571Y-76642857D01*
X172535714Y-76714285D01*
X171964285Y-76714285D01*
D11*
%TO.C,SW1*%
X131425000Y-143800000D03*
X131425000Y-141500000D03*
X123925000Y-143800000D03*
X123925000Y-141500000D03*
D12*
X129925000Y-140600000D03*
X128425000Y-140600000D03*
X125425000Y-140600000D03*
D13*
X129175000Y-142650000D03*
X126175000Y-142650000D03*
%TD*%
D14*
%TO.C,TP2*%
X141200000Y-111300000D03*
D15*
X143740000Y-111300000D03*
%TD*%
D14*
%TO.C,TP1*%
X151700000Y-101900000D03*
D15*
X149160000Y-101900000D03*
%TD*%
D16*
%TO.C,D11*%
X129425000Y-138200000D03*
X129425000Y-136800000D03*
X125925000Y-138200000D03*
X125925000Y-136800000D03*
%TD*%
D17*
%TO.C,SW5*%
X177800000Y-139550000D03*
X176200000Y-139550000D03*
X176200000Y-143650000D03*
X177800000Y-143650000D03*
D18*
X178425000Y-141600000D03*
%TD*%
D17*
%TO.C,SW4*%
X169300000Y-143650000D03*
X170900000Y-143650000D03*
X170900000Y-139550000D03*
X169300000Y-139550000D03*
D18*
X168675000Y-141600000D03*
%TD*%
%TO.C,SW3*%
X161775000Y-141600000D03*
D17*
X162400000Y-139550000D03*
X164000000Y-139550000D03*
X164000000Y-143650000D03*
X162400000Y-143650000D03*
%TD*%
D19*
%TO.C,J1*%
X150425000Y-93620000D03*
D20*
X156995000Y-97800000D03*
X143855000Y-97800000D03*
D21*
X153925000Y-98400000D03*
X151425000Y-98400000D03*
X149425000Y-98400000D03*
D22*
X146925000Y-98400000D03*
%TD*%
D14*
%TO.C,J5*%
X139335000Y-80485000D03*
D15*
X139335000Y-83025000D03*
X141875000Y-80485000D03*
X141875000Y-83025000D03*
X144415000Y-80485000D03*
X144415000Y-83025000D03*
X146955000Y-80485000D03*
X146955000Y-83025000D03*
X149495000Y-80485000D03*
X149495000Y-83025000D03*
X152035000Y-80485000D03*
X152035000Y-83025000D03*
X154575000Y-80485000D03*
X154575000Y-83025000D03*
%TD*%
D23*
%TO.C,U6*%
X147925000Y-129405000D03*
D24*
X155425000Y-136905000D03*
X155425000Y-135635000D03*
X155425000Y-134365000D03*
X155425000Y-133095000D03*
X155425000Y-131825000D03*
X155425000Y-130555000D03*
X155425000Y-129285000D03*
X155425000Y-128015000D03*
X155425000Y-126745000D03*
X155425000Y-125475000D03*
X155425000Y-124205000D03*
X155425000Y-122935000D03*
X155425000Y-121665000D03*
X155425000Y-120395000D03*
D25*
X152640000Y-119395000D03*
X151370000Y-119395000D03*
X150100000Y-119395000D03*
X148830000Y-119395000D03*
X147560000Y-119395000D03*
X146290000Y-119395000D03*
X145020000Y-119395000D03*
X143750000Y-119395000D03*
X142480000Y-119395000D03*
X141210000Y-119395000D03*
D24*
X138425000Y-120395000D03*
X138425000Y-121665000D03*
X138425000Y-122935000D03*
X138425000Y-124205000D03*
X138425000Y-125475000D03*
X138425000Y-126745000D03*
X138425000Y-128015000D03*
X138425000Y-129285000D03*
X138425000Y-130555000D03*
X138425000Y-131825000D03*
X138425000Y-133095000D03*
X138425000Y-134365000D03*
X138425000Y-135635000D03*
X138425000Y-136905000D03*
%TD*%
D26*
%TO.C,J3*%
X142100000Y-105175000D03*
X141450000Y-105175000D03*
X142750000Y-105175000D03*
X140800000Y-105175000D03*
X143400000Y-105175000D03*
D27*
X144900000Y-105425000D03*
X139300000Y-105425000D03*
D28*
X142100000Y-103275000D03*
%TD*%
%TO.C,D8*%
G36*
G01*
X161722500Y-138012500D02*
X161722500Y-137487500D01*
G75*
G02*
X161985000Y-137225000I262500J0D01*
G01*
X162610000Y-137225000D01*
G75*
G02*
X162872500Y-137487500I0J-262500D01*
G01*
X162872500Y-138012500D01*
G75*
G02*
X162610000Y-138275000I-262500J0D01*
G01*
X161985000Y-138275000D01*
G75*
G02*
X161722500Y-138012500I0J262500D01*
G01*
G37*
G36*
G01*
X163472500Y-138012500D02*
X163472500Y-137487500D01*
G75*
G02*
X163735000Y-137225000I262500J0D01*
G01*
X164360000Y-137225000D01*
G75*
G02*
X164622500Y-137487500I0J-262500D01*
G01*
X164622500Y-138012500D01*
G75*
G02*
X164360000Y-138275000I-262500J0D01*
G01*
X163735000Y-138275000D01*
G75*
G02*
X163472500Y-138012500I0J262500D01*
G01*
G37*
%TD*%
%TO.C,D10*%
G36*
G01*
X175564166Y-138012500D02*
X175564166Y-137487500D01*
G75*
G02*
X175826666Y-137225000I262500J0D01*
G01*
X176451666Y-137225000D01*
G75*
G02*
X176714166Y-137487500I0J-262500D01*
G01*
X176714166Y-138012500D01*
G75*
G02*
X176451666Y-138275000I-262500J0D01*
G01*
X175826666Y-138275000D01*
G75*
G02*
X175564166Y-138012500I0J262500D01*
G01*
G37*
G36*
G01*
X177314166Y-138012500D02*
X177314166Y-137487500D01*
G75*
G02*
X177576666Y-137225000I262500J0D01*
G01*
X178201666Y-137225000D01*
G75*
G02*
X178464166Y-137487500I0J-262500D01*
G01*
X178464166Y-138012500D01*
G75*
G02*
X178201666Y-138275000I-262500J0D01*
G01*
X177576666Y-138275000D01*
G75*
G02*
X177314166Y-138012500I0J262500D01*
G01*
G37*
%TD*%
%TO.C,D9*%
G36*
G01*
X168600000Y-138012500D02*
X168600000Y-137487500D01*
G75*
G02*
X168862500Y-137225000I262500J0D01*
G01*
X169487500Y-137225000D01*
G75*
G02*
X169750000Y-137487500I0J-262500D01*
G01*
X169750000Y-138012500D01*
G75*
G02*
X169487500Y-138275000I-262500J0D01*
G01*
X168862500Y-138275000D01*
G75*
G02*
X168600000Y-138012500I0J262500D01*
G01*
G37*
G36*
G01*
X170350000Y-138012500D02*
X170350000Y-137487500D01*
G75*
G02*
X170612500Y-137225000I262500J0D01*
G01*
X171237500Y-137225000D01*
G75*
G02*
X171500000Y-137487500I0J-262500D01*
G01*
X171500000Y-138012500D01*
G75*
G02*
X171237500Y-138275000I-262500J0D01*
G01*
X170612500Y-138275000D01*
G75*
G02*
X170350000Y-138012500I0J262500D01*
G01*
G37*
%TD*%
D29*
%TO.C,SW2*%
X121050000Y-136725000D03*
X121050000Y-143025000D03*
X117250000Y-136725000D03*
X117250000Y-143025000D03*
%TD*%
D30*
%TO.C,BT1*%
X124400000Y-132710000D03*
X124400000Y-60490000D03*
D31*
X132270000Y-124330000D03*
X116530000Y-69130000D03*
D32*
X116530000Y-132710000D03*
%TD*%
%TO.C,R15*%
G36*
G01*
X157812500Y-136225000D02*
X157287500Y-136225000D01*
G75*
G02*
X157025000Y-135962500I0J262500D01*
G01*
X157025000Y-135337500D01*
G75*
G02*
X157287500Y-135075000I262500J0D01*
G01*
X157812500Y-135075000D01*
G75*
G02*
X158075000Y-135337500I0J-262500D01*
G01*
X158075000Y-135962500D01*
G75*
G02*
X157812500Y-136225000I-262500J0D01*
G01*
G37*
G36*
G01*
X157812500Y-134475000D02*
X157287500Y-134475000D01*
G75*
G02*
X157025000Y-134212500I0J262500D01*
G01*
X157025000Y-133587500D01*
G75*
G02*
X157287500Y-133325000I262500J0D01*
G01*
X157812500Y-133325000D01*
G75*
G02*
X158075000Y-133587500I0J-262500D01*
G01*
X158075000Y-134212500D01*
G75*
G02*
X157812500Y-134475000I-262500J0D01*
G01*
G37*
%TD*%
%TO.C,R17*%
G36*
G01*
X135712500Y-119225000D02*
X136237500Y-119225000D01*
G75*
G02*
X136500000Y-119487500I0J-262500D01*
G01*
X136500000Y-120112500D01*
G75*
G02*
X136237500Y-120375000I-262500J0D01*
G01*
X135712500Y-120375000D01*
G75*
G02*
X135450000Y-120112500I0J262500D01*
G01*
X135450000Y-119487500D01*
G75*
G02*
X135712500Y-119225000I262500J0D01*
G01*
G37*
G36*
G01*
X135712500Y-120975000D02*
X136237500Y-120975000D01*
G75*
G02*
X136500000Y-121237500I0J-262500D01*
G01*
X136500000Y-121862500D01*
G75*
G02*
X136237500Y-122125000I-262500J0D01*
G01*
X135712500Y-122125000D01*
G75*
G02*
X135450000Y-121862500I0J262500D01*
G01*
X135450000Y-121237500D01*
G75*
G02*
X135712500Y-120975000I262500J0D01*
G01*
G37*
%TD*%
%TO.C,R22*%
G36*
G01*
X157880000Y-137632500D02*
X157880000Y-137107500D01*
G75*
G02*
X158142500Y-136845000I262500J0D01*
G01*
X158767500Y-136845000D01*
G75*
G02*
X159030000Y-137107500I0J-262500D01*
G01*
X159030000Y-137632500D01*
G75*
G02*
X158767500Y-137895000I-262500J0D01*
G01*
X158142500Y-137895000D01*
G75*
G02*
X157880000Y-137632500I0J262500D01*
G01*
G37*
G36*
G01*
X159630000Y-137632500D02*
X159630000Y-137107500D01*
G75*
G02*
X159892500Y-136845000I262500J0D01*
G01*
X160517500Y-136845000D01*
G75*
G02*
X160780000Y-137107500I0J-262500D01*
G01*
X160780000Y-137632500D01*
G75*
G02*
X160517500Y-137895000I-262500J0D01*
G01*
X159892500Y-137895000D01*
G75*
G02*
X159630000Y-137632500I0J262500D01*
G01*
G37*
%TD*%
%TO.C,R26*%
G36*
G01*
X174950000Y-137487500D02*
X174950000Y-138012500D01*
G75*
G02*
X174687500Y-138275000I-262500J0D01*
G01*
X174062500Y-138275000D01*
G75*
G02*
X173800000Y-138012500I0J262500D01*
G01*
X173800000Y-137487500D01*
G75*
G02*
X174062500Y-137225000I262500J0D01*
G01*
X174687500Y-137225000D01*
G75*
G02*
X174950000Y-137487500I0J-262500D01*
G01*
G37*
G36*
G01*
X173200000Y-137487500D02*
X173200000Y-138012500D01*
G75*
G02*
X172937500Y-138275000I-262500J0D01*
G01*
X172312500Y-138275000D01*
G75*
G02*
X172050000Y-138012500I0J262500D01*
G01*
X172050000Y-137487500D01*
G75*
G02*
X172312500Y-137225000I262500J0D01*
G01*
X172937500Y-137225000D01*
G75*
G02*
X173200000Y-137487500I0J-262500D01*
G01*
G37*
%TD*%
%TO.C,R24*%
G36*
G01*
X168050000Y-137487500D02*
X168050000Y-138012500D01*
G75*
G02*
X167787500Y-138275000I-262500J0D01*
G01*
X167162500Y-138275000D01*
G75*
G02*
X166900000Y-138012500I0J262500D01*
G01*
X166900000Y-137487500D01*
G75*
G02*
X167162500Y-137225000I262500J0D01*
G01*
X167787500Y-137225000D01*
G75*
G02*
X168050000Y-137487500I0J-262500D01*
G01*
G37*
G36*
G01*
X166300000Y-137487500D02*
X166300000Y-138012500D01*
G75*
G02*
X166037500Y-138275000I-262500J0D01*
G01*
X165412500Y-138275000D01*
G75*
G02*
X165150000Y-138012500I0J262500D01*
G01*
X165150000Y-137487500D01*
G75*
G02*
X165412500Y-137225000I262500J0D01*
G01*
X166037500Y-137225000D01*
G75*
G02*
X166300000Y-137487500I0J-262500D01*
G01*
G37*
%TD*%
D33*
%TO.C,D4*%
X147600000Y-107850000D03*
X147600000Y-110350000D03*
%TD*%
D34*
%TO.C,J7*%
X154620000Y-65470000D03*
X154620000Y-60430000D03*
X152080000Y-65470000D03*
X152080000Y-60430000D03*
X149540000Y-65470000D03*
X149540000Y-60430000D03*
X147000000Y-65470000D03*
X147000000Y-60430000D03*
X144460000Y-65470000D03*
X144460000Y-60430000D03*
X141920000Y-65470000D03*
X141920000Y-60430000D03*
X139380000Y-65470000D03*
X139380000Y-60430000D03*
%TD*%
D33*
%TO.C,D5*%
X141650000Y-108000000D03*
X139150000Y-108000000D03*
%TD*%
%TO.C,D6*%
X143250000Y-108000000D03*
X145750000Y-108000000D03*
%TD*%
%TO.C,R12*%
G36*
G01*
X138450000Y-110237500D02*
X138450000Y-110762500D01*
G75*
G02*
X138187500Y-111025000I-262500J0D01*
G01*
X137562500Y-111025000D01*
G75*
G02*
X137300000Y-110762500I0J262500D01*
G01*
X137300000Y-110237500D01*
G75*
G02*
X137562500Y-109975000I262500J0D01*
G01*
X138187500Y-109975000D01*
G75*
G02*
X138450000Y-110237500I0J-262500D01*
G01*
G37*
G36*
G01*
X136700000Y-110237500D02*
X136700000Y-110762500D01*
G75*
G02*
X136437500Y-111025000I-262500J0D01*
G01*
X135812500Y-111025000D01*
G75*
G02*
X135550000Y-110762500I0J262500D01*
G01*
X135550000Y-110237500D01*
G75*
G02*
X135812500Y-109975000I262500J0D01*
G01*
X136437500Y-109975000D01*
G75*
G02*
X136700000Y-110237500I0J-262500D01*
G01*
G37*
%TD*%
D35*
%TO.C,Q5*%
X137950000Y-112100000D03*
X136050000Y-112100000D03*
X137000000Y-114100000D03*
%TD*%
D36*
%TO.C,J2*%
X141460000Y-87670000D03*
X135460000Y-87670000D03*
D37*
X138460000Y-88610000D03*
X138460000Y-91610000D03*
%TD*%
%TO.C,C16*%
G36*
G01*
X165487500Y-140700000D02*
X166012500Y-140700000D01*
G75*
G02*
X166275000Y-140962500I0J-262500D01*
G01*
X166275000Y-141587500D01*
G75*
G02*
X166012500Y-141850000I-262500J0D01*
G01*
X165487500Y-141850000D01*
G75*
G02*
X165225000Y-141587500I0J262500D01*
G01*
X165225000Y-140962500D01*
G75*
G02*
X165487500Y-140700000I262500J0D01*
G01*
G37*
G36*
G01*
X165487500Y-142450000D02*
X166012500Y-142450000D01*
G75*
G02*
X166275000Y-142712500I0J-262500D01*
G01*
X166275000Y-143337500D01*
G75*
G02*
X166012500Y-143600000I-262500J0D01*
G01*
X165487500Y-143600000D01*
G75*
G02*
X165225000Y-143337500I0J262500D01*
G01*
X165225000Y-142712500D01*
G75*
G02*
X165487500Y-142450000I262500J0D01*
G01*
G37*
%TD*%
%TO.C,C17*%
G36*
G01*
X172417500Y-140730000D02*
X172942500Y-140730000D01*
G75*
G02*
X173205000Y-140992500I0J-262500D01*
G01*
X173205000Y-141617500D01*
G75*
G02*
X172942500Y-141880000I-262500J0D01*
G01*
X172417500Y-141880000D01*
G75*
G02*
X172155000Y-141617500I0J262500D01*
G01*
X172155000Y-140992500D01*
G75*
G02*
X172417500Y-140730000I262500J0D01*
G01*
G37*
G36*
G01*
X172417500Y-142480000D02*
X172942500Y-142480000D01*
G75*
G02*
X173205000Y-142742500I0J-262500D01*
G01*
X173205000Y-143367500D01*
G75*
G02*
X172942500Y-143630000I-262500J0D01*
G01*
X172417500Y-143630000D01*
G75*
G02*
X172155000Y-143367500I0J262500D01*
G01*
X172155000Y-142742500D01*
G75*
G02*
X172417500Y-142480000I262500J0D01*
G01*
G37*
%TD*%
%TO.C,C18*%
G36*
G01*
X174167500Y-140720000D02*
X174692500Y-140720000D01*
G75*
G02*
X174955000Y-140982500I0J-262500D01*
G01*
X174955000Y-141607500D01*
G75*
G02*
X174692500Y-141870000I-262500J0D01*
G01*
X174167500Y-141870000D01*
G75*
G02*
X173905000Y-141607500I0J262500D01*
G01*
X173905000Y-140982500D01*
G75*
G02*
X174167500Y-140720000I262500J0D01*
G01*
G37*
G36*
G01*
X174167500Y-142470000D02*
X174692500Y-142470000D01*
G75*
G02*
X174955000Y-142732500I0J-262500D01*
G01*
X174955000Y-143357500D01*
G75*
G02*
X174692500Y-143620000I-262500J0D01*
G01*
X174167500Y-143620000D01*
G75*
G02*
X173905000Y-143357500I0J262500D01*
G01*
X173905000Y-142732500D01*
G75*
G02*
X174167500Y-142470000I262500J0D01*
G01*
G37*
%TD*%
D30*
%TO.C,BT2*%
X169600000Y-60490000D03*
X169600000Y-132710000D03*
D31*
X161730000Y-68870000D03*
X177470000Y-124070000D03*
D32*
X177470000Y-60490000D03*
%TD*%
M02*
