%TF.GenerationSoftware,KiCad,Pcbnew,(5.1.6)-1*%
%TF.CreationDate,2022-05-13T20:51:31+02:00*%
%TF.ProjectId,ZumoComSystem,5a756d6f-436f-46d5-9379-7374656d2e6b,V1.0*%
%TF.SameCoordinates,Original*%
%TF.FileFunction,Legend,Bot*%
%TF.FilePolarity,Positive*%
%FSLAX46Y46*%
G04 Gerber Fmt 4.6, Leading zero omitted, Abs format (unit mm)*
G04 Created by KiCad (PCBNEW (5.1.6)-1) date 2022-05-13 20:51:31*
%MOMM*%
%LPD*%
G01*
G04 APERTURE LIST*
%ADD10C,0.152400*%
%ADD11C,0.120000*%
%ADD12C,0.127000*%
%ADD13C,0.200000*%
%ADD14C,0.015000*%
%ADD15C,0.150000*%
G04 APERTURE END LIST*
D10*
%TO.C,U1*%
X135533600Y-70441600D02*
X131266400Y-70441600D01*
X131266400Y-65158400D02*
X135533600Y-65158400D01*
D11*
%TO.C,U2*%
X169633246Y-67680000D02*
G75*
G03*
X169633246Y-67680000I-63246J0D01*
G01*
D10*
X170811000Y-68149400D02*
X170150600Y-68149400D01*
X170150600Y-68149400D02*
X170150600Y-67844600D01*
X173249400Y-68149400D02*
X172589000Y-68149400D01*
X173249400Y-65050600D02*
X173249400Y-65355400D01*
X170150600Y-65050600D02*
X170811000Y-65050600D01*
X170150600Y-65355400D02*
X170150600Y-65050600D01*
X173249400Y-67844600D02*
X173249400Y-68149400D01*
X172589000Y-65050600D02*
X173249400Y-65050600D01*
D11*
%TO.C,L1*%
X173846000Y-69446000D02*
X173846000Y-73754000D01*
X178154000Y-73754000D02*
X178154000Y-69446000D01*
%TO.C,R3*%
X171871267Y-64010000D02*
X171528733Y-64010000D01*
X171871267Y-62990000D02*
X171528733Y-62990000D01*
%TO.C,C6*%
X174990000Y-64461252D02*
X174990000Y-63938748D01*
X176410000Y-64461252D02*
X176410000Y-63938748D01*
D12*
%TO.C,U5*%
X139700000Y-112100000D02*
X140250000Y-112100000D01*
X144700000Y-112100000D02*
X144150000Y-112100000D01*
X139700000Y-117100000D02*
X140250000Y-117100000D01*
X144700000Y-117100000D02*
X144150000Y-117100000D01*
X139700000Y-112100000D02*
X139700000Y-112650000D01*
X144700000Y-112100000D02*
X144700000Y-112650000D01*
X139700000Y-117100000D02*
X139700000Y-116550000D01*
X144700000Y-117100000D02*
X144700000Y-116550000D01*
D13*
X140800000Y-111060000D02*
G75*
G03*
X140800000Y-111060000I-100000J0D01*
G01*
D12*
%TO.C,U3*%
X162835534Y-111000000D02*
X162626937Y-111208597D01*
X159300000Y-114535534D02*
X159508597Y-114326937D01*
X159300000Y-107464466D02*
X159091403Y-107673063D01*
X155764466Y-111000000D02*
X155973063Y-110791403D01*
X162835534Y-111000000D02*
X162626937Y-110791403D01*
X159300000Y-114535534D02*
X159091403Y-114326937D01*
X159300000Y-107464466D02*
X159508597Y-107673063D01*
X155764466Y-111000000D02*
X155973063Y-111208597D01*
D13*
X164035085Y-112467247D02*
G75*
G03*
X164035085Y-112467247I-100000J0D01*
G01*
D11*
%TO.C,J5*%
X138005000Y-79155000D02*
X138005000Y-80485000D01*
X139335000Y-79155000D02*
X138005000Y-79155000D01*
X138005000Y-81755000D02*
X138005000Y-84355000D01*
X140605000Y-81755000D02*
X138005000Y-81755000D01*
X140605000Y-79155000D02*
X140605000Y-81755000D01*
X138005000Y-84355000D02*
X155905000Y-84355000D01*
X140605000Y-79155000D02*
X155905000Y-79155000D01*
X155905000Y-79155000D02*
X155905000Y-84355000D01*
%TO.C,L2*%
X136100000Y-82700000D02*
X136100000Y-86300000D01*
X136100000Y-86300000D02*
X123100000Y-86300000D01*
X123100000Y-86300000D02*
X123100000Y-82700000D01*
X136100000Y-76900000D02*
X136100000Y-73300000D01*
X136100000Y-73300000D02*
X123100000Y-73300000D01*
X123100000Y-73300000D02*
X123100000Y-76900000D01*
%TO.C,C1*%
X128910000Y-69897936D02*
X128910000Y-71102064D01*
X127090000Y-69897936D02*
X127090000Y-71102064D01*
%TO.C,C2*%
X167590000Y-65461252D02*
X167590000Y-64938748D01*
X169010000Y-65461252D02*
X169010000Y-64938748D01*
%TO.C,C3*%
X131253733Y-70890000D02*
X131596267Y-70890000D01*
X131253733Y-71910000D02*
X131596267Y-71910000D01*
%TO.C,C4*%
X139138748Y-68040000D02*
X139661252Y-68040000D01*
X139138748Y-69460000D02*
X139661252Y-69460000D01*
%TO.C,C9*%
X127290000Y-124871267D02*
X127290000Y-124528733D01*
X128310000Y-124871267D02*
X128310000Y-124528733D01*
%TO.C,C10*%
X128310000Y-128028733D02*
X128310000Y-128371267D01*
X127290000Y-128028733D02*
X127290000Y-128371267D01*
%TO.C,D1*%
X137540000Y-70315000D02*
X143600000Y-70315000D01*
X137540000Y-74585000D02*
X137540000Y-70315000D01*
X143600000Y-74585000D02*
X137540000Y-74585000D01*
%TO.C,D2*%
X140750000Y-65650000D02*
X138200000Y-65650000D01*
X140750000Y-67350000D02*
X138200000Y-67350000D01*
X140750000Y-65650000D02*
X140750000Y-67350000D01*
%TO.C,D3*%
X114250000Y-122000000D02*
X114250000Y-129300000D01*
X118550000Y-122000000D02*
X118550000Y-129300000D01*
X114250000Y-122000000D02*
X118550000Y-122000000D01*
%TO.C,F1*%
X120697936Y-122140000D02*
X121902064Y-122140000D01*
X120697936Y-124860000D02*
X121902064Y-124860000D01*
%TO.C,Q6*%
X162060000Y-135170000D02*
X160600000Y-135170000D01*
X162060000Y-138330000D02*
X159900000Y-138330000D01*
X162060000Y-138330000D02*
X162060000Y-137400000D01*
X162060000Y-135170000D02*
X162060000Y-136100000D01*
%TO.C,Q8*%
X175910000Y-135170000D02*
X174450000Y-135170000D01*
X175910000Y-138330000D02*
X173750000Y-138330000D01*
X175910000Y-138330000D02*
X175910000Y-137400000D01*
X175910000Y-135170000D02*
X175910000Y-136100000D01*
%TO.C,Q7*%
X168935000Y-135170000D02*
X167475000Y-135170000D01*
X168935000Y-138330000D02*
X166775000Y-138330000D01*
X168935000Y-138330000D02*
X168935000Y-137400000D01*
X168935000Y-135170000D02*
X168935000Y-136100000D01*
%TO.C,Q9*%
X130420000Y-106665000D02*
X130420000Y-108125000D01*
X133580000Y-106665000D02*
X133580000Y-108825000D01*
X133580000Y-106665000D02*
X132650000Y-106665000D01*
X130420000Y-106665000D02*
X131350000Y-106665000D01*
%TO.C,Q10*%
X162585000Y-117645000D02*
X161125000Y-117645000D01*
X162585000Y-120805000D02*
X160425000Y-120805000D01*
X162585000Y-120805000D02*
X162585000Y-119875000D01*
X162585000Y-117645000D02*
X162585000Y-118575000D01*
%TO.C,R7*%
X128890000Y-124871267D02*
X128890000Y-124528733D01*
X129910000Y-124871267D02*
X129910000Y-124528733D01*
%TO.C,R8*%
X128890000Y-128371267D02*
X128890000Y-128028733D01*
X129910000Y-128371267D02*
X129910000Y-128028733D01*
%TO.C,R10*%
X120310000Y-127128733D02*
X120310000Y-127471267D01*
X119290000Y-127128733D02*
X119290000Y-127471267D01*
%TO.C,R16*%
X132103733Y-117190000D02*
X132446267Y-117190000D01*
X132103733Y-118210000D02*
X132446267Y-118210000D01*
%TO.C,R18*%
X130890000Y-120621267D02*
X130890000Y-120278733D01*
X131910000Y-120621267D02*
X131910000Y-120278733D01*
%TO.C,R19*%
X133685000Y-120278733D02*
X133685000Y-120621267D01*
X132665000Y-120278733D02*
X132665000Y-120621267D01*
%TO.C,R20*%
X166260000Y-141978733D02*
X166260000Y-142321267D01*
X165240000Y-141978733D02*
X165240000Y-142321267D01*
%TO.C,R21*%
X165021267Y-140085000D02*
X164678733Y-140085000D01*
X165021267Y-139065000D02*
X164678733Y-139065000D01*
%TO.C,R22*%
X163540000Y-137046267D02*
X163540000Y-136703733D01*
X164560000Y-137046267D02*
X164560000Y-136703733D01*
%TO.C,R26*%
X177415000Y-137046267D02*
X177415000Y-136703733D01*
X178435000Y-137046267D02*
X178435000Y-136703733D01*
%TO.C,R24*%
X170465000Y-137046267D02*
X170465000Y-136703733D01*
X171485000Y-137046267D02*
X171485000Y-136703733D01*
%TO.C,R28*%
X132378733Y-126790000D02*
X132721267Y-126790000D01*
X132378733Y-127810000D02*
X132721267Y-127810000D01*
%TO.C,R29*%
X132353733Y-128315000D02*
X132696267Y-128315000D01*
X132353733Y-129335000D02*
X132696267Y-129335000D01*
%TO.C,R30*%
X132353733Y-129865000D02*
X132696267Y-129865000D01*
X132353733Y-130885000D02*
X132696267Y-130885000D01*
%TO.C,R31*%
X173185000Y-142003733D02*
X173185000Y-142346267D01*
X172165000Y-142003733D02*
X172165000Y-142346267D01*
%TO.C,R32*%
X171921267Y-140135000D02*
X171578733Y-140135000D01*
X171921267Y-139115000D02*
X171578733Y-139115000D01*
%TO.C,R33*%
X135260000Y-107253733D02*
X135260000Y-107596267D01*
X134240000Y-107253733D02*
X134240000Y-107596267D01*
%TO.C,R34*%
X132196267Y-105310000D02*
X131853733Y-105310000D01*
X132196267Y-104290000D02*
X131853733Y-104290000D01*
%TO.C,R35*%
X174935000Y-142003733D02*
X174935000Y-142346267D01*
X173915000Y-142003733D02*
X173915000Y-142346267D01*
%TO.C,R36*%
X175178733Y-139115000D02*
X175521267Y-139115000D01*
X175178733Y-140135000D02*
X175521267Y-140135000D01*
%TO.C,R37*%
X161996267Y-122385000D02*
X161653733Y-122385000D01*
X161996267Y-121365000D02*
X161653733Y-121365000D01*
%TO.C,R38*%
X163940000Y-121121267D02*
X163940000Y-120778733D01*
X164960000Y-121121267D02*
X164960000Y-120778733D01*
%TO.C,U4*%
X124780000Y-128810000D02*
X122350000Y-128810000D01*
X123020000Y-125740000D02*
X124780000Y-125740000D01*
%TO.C,C11*%
X146228733Y-106590000D02*
X146571267Y-106590000D01*
X146228733Y-107610000D02*
X146571267Y-107610000D01*
%TO.C,C12*%
X146228733Y-108190000D02*
X146571267Y-108190000D01*
X146228733Y-109210000D02*
X146571267Y-109210000D01*
%TO.C,C13*%
X142703733Y-108190000D02*
X143046267Y-108190000D01*
X142703733Y-109210000D02*
X143046267Y-109210000D01*
%TO.C,C14*%
X142703733Y-106590000D02*
X143046267Y-106590000D01*
X142703733Y-107610000D02*
X143046267Y-107610000D01*
%TO.C,R13*%
X145890000Y-112871267D02*
X145890000Y-112528733D01*
X146910000Y-112871267D02*
X146910000Y-112528733D01*
%TO.C,R14*%
X146910000Y-115928733D02*
X146910000Y-116271267D01*
X145890000Y-115928733D02*
X145890000Y-116271267D01*
%TO.C,Y1*%
X162000000Y-101750000D02*
X162000000Y-106250000D01*
X162000000Y-106250000D02*
X156600000Y-106250000D01*
%TO.C,J4*%
X126775000Y-104710000D02*
X126775000Y-105730000D01*
X126775000Y-120520000D02*
X121575000Y-120520000D01*
X121575000Y-87950000D02*
X120135000Y-87950000D01*
X126775000Y-94550000D02*
X126775000Y-95570000D01*
X121575000Y-99630000D02*
X121575000Y-100650000D01*
X121575000Y-102170000D02*
X121575000Y-103190000D01*
X126775000Y-109790000D02*
X126775000Y-110810000D01*
X126775000Y-97090000D02*
X126775000Y-98110000D01*
X121575000Y-92010000D02*
X121575000Y-93030000D01*
X126775000Y-99630000D02*
X126775000Y-100650000D01*
X126775000Y-107250000D02*
X126775000Y-108270000D01*
X126775000Y-117410000D02*
X126775000Y-118430000D01*
X126775000Y-114870000D02*
X126775000Y-115890000D01*
X126775000Y-102170000D02*
X126775000Y-103190000D01*
X121575000Y-117410000D02*
X121575000Y-118430000D01*
X121575000Y-119950000D02*
X121575000Y-120520000D01*
X121575000Y-94550000D02*
X121575000Y-95570000D01*
X121575000Y-97090000D02*
X121575000Y-98110000D01*
X121575000Y-89470000D02*
X121575000Y-90490000D01*
X121575000Y-112330000D02*
X121575000Y-113350000D01*
X126775000Y-87380000D02*
X121575000Y-87380000D01*
X126775000Y-112330000D02*
X126775000Y-113350000D01*
X126775000Y-119950000D02*
X126775000Y-120520000D01*
X121575000Y-104710000D02*
X121575000Y-105730000D01*
X126775000Y-89470000D02*
X126775000Y-90490000D01*
X121575000Y-87380000D02*
X121575000Y-87950000D01*
X126775000Y-92010000D02*
X126775000Y-93030000D01*
X121575000Y-107250000D02*
X121575000Y-108270000D01*
X121575000Y-109790000D02*
X121575000Y-110810000D01*
X126775000Y-87380000D02*
X126775000Y-87950000D01*
X121575000Y-114870000D02*
X121575000Y-115890000D01*
%TO.C,J6*%
X172425000Y-104720000D02*
X172425000Y-105740000D01*
X172425000Y-120530000D02*
X167225000Y-120530000D01*
X167225000Y-87960000D02*
X165785000Y-87960000D01*
X172425000Y-94560000D02*
X172425000Y-95580000D01*
X167225000Y-99640000D02*
X167225000Y-100660000D01*
X167225000Y-102180000D02*
X167225000Y-103200000D01*
X172425000Y-109800000D02*
X172425000Y-110820000D01*
X172425000Y-97100000D02*
X172425000Y-98120000D01*
X167225000Y-92020000D02*
X167225000Y-93040000D01*
X172425000Y-99640000D02*
X172425000Y-100660000D01*
X172425000Y-107260000D02*
X172425000Y-108280000D01*
X172425000Y-117420000D02*
X172425000Y-118440000D01*
X172425000Y-114880000D02*
X172425000Y-115900000D01*
X172425000Y-102180000D02*
X172425000Y-103200000D01*
X167225000Y-117420000D02*
X167225000Y-118440000D01*
X167225000Y-119960000D02*
X167225000Y-120530000D01*
X167225000Y-94560000D02*
X167225000Y-95580000D01*
X167225000Y-97100000D02*
X167225000Y-98120000D01*
X167225000Y-89480000D02*
X167225000Y-90500000D01*
X167225000Y-112340000D02*
X167225000Y-113360000D01*
X172425000Y-87390000D02*
X167225000Y-87390000D01*
X172425000Y-112340000D02*
X172425000Y-113360000D01*
X172425000Y-119960000D02*
X172425000Y-120530000D01*
X167225000Y-104720000D02*
X167225000Y-105740000D01*
X172425000Y-89480000D02*
X172425000Y-90500000D01*
X167225000Y-87390000D02*
X167225000Y-87960000D01*
X172425000Y-92020000D02*
X172425000Y-93040000D01*
X167225000Y-107260000D02*
X167225000Y-108280000D01*
X167225000Y-109800000D02*
X167225000Y-110820000D01*
X172425000Y-87390000D02*
X172425000Y-87960000D01*
X167225000Y-114880000D02*
X167225000Y-115900000D01*
%TO.C,R1*%
X124528733Y-70990000D02*
X124871267Y-70990000D01*
X124528733Y-72010000D02*
X124871267Y-72010000D01*
%TO.C,R2*%
X124871267Y-69290000D02*
X124528733Y-69290000D01*
X124871267Y-70310000D02*
X124528733Y-70310000D01*
%TO.C,C7*%
X163610000Y-104171267D02*
X163610000Y-103828733D01*
X162590000Y-104171267D02*
X162590000Y-103828733D01*
%TO.C,R9*%
X159232936Y-132580000D02*
X160437064Y-132580000D01*
X159232936Y-134400000D02*
X160437064Y-134400000D01*
D13*
%TO.C,Q3*%
X152360000Y-134440000D02*
G75*
G03*
X152360000Y-134440000I-100000J0D01*
G01*
D12*
X154035000Y-133826500D02*
X154035000Y-133153500D01*
X155690000Y-132870000D02*
X155690000Y-131953500D01*
X155690000Y-135060000D02*
X155690000Y-134110000D01*
X154035000Y-131920000D02*
X155685000Y-131920000D01*
X155690000Y-135060000D02*
X154035000Y-135060000D01*
D13*
%TO.C,Q2*%
X164175000Y-129700000D02*
G75*
G03*
X164175000Y-129700000I-100000J0D01*
G01*
D12*
X164688500Y-131475000D02*
X165361500Y-131475000D01*
X165645000Y-133130000D02*
X166561500Y-133130000D01*
X163455000Y-133130000D02*
X164405000Y-133130000D01*
X166595000Y-131475000D02*
X166595000Y-133125000D01*
X163455000Y-133130000D02*
X163455000Y-131475000D01*
D11*
%TO.C,C15*%
X134390000Y-116971267D02*
X134390000Y-116628733D01*
X135410000Y-116971267D02*
X135410000Y-116628733D01*
%TO.C,R11*%
X149210000Y-128571267D02*
X149210000Y-128228733D01*
X148190000Y-128571267D02*
X148190000Y-128228733D01*
%TO.C,Q4*%
X152090000Y-126940000D02*
X152090000Y-127870000D01*
X152090000Y-130100000D02*
X152090000Y-129170000D01*
X152090000Y-130100000D02*
X149930000Y-130100000D01*
X152090000Y-126940000D02*
X150630000Y-126940000D01*
%TO.C,C8*%
X154990000Y-103828733D02*
X154990000Y-104171267D01*
X156010000Y-103828733D02*
X156010000Y-104171267D01*
D13*
%TO.C,Q1*%
X122950000Y-65720000D02*
G75*
G03*
X122950000Y-65720000I-100000J0D01*
G01*
D12*
X124625000Y-65106500D02*
X124625000Y-64433500D01*
X126280000Y-64150000D02*
X126280000Y-63233500D01*
X126280000Y-66340000D02*
X126280000Y-65390000D01*
X124625000Y-63200000D02*
X126275000Y-63200000D01*
X126280000Y-66340000D02*
X124625000Y-66340000D01*
D11*
%TO.C,R6*%
X153239520Y-110081729D02*
X153481729Y-109839520D01*
X152518271Y-109360480D02*
X152760480Y-109118271D01*
%TO.C,R4*%
X156848271Y-117229520D02*
X157090480Y-117471729D01*
X157569520Y-116508271D02*
X157811729Y-116750480D01*
%TO.C,U1*%
D14*
X131185570Y-70699221D02*
X131185570Y-70954189D01*
X131170572Y-70984186D01*
X131155574Y-70999184D01*
X131125577Y-71014182D01*
X131065585Y-71014182D01*
X131035588Y-70999184D01*
X131020590Y-70984186D01*
X131005592Y-70954189D01*
X131005592Y-70699221D01*
X130690631Y-71014182D02*
X130870609Y-71014182D01*
X130780620Y-71014182D02*
X130780620Y-70699221D01*
X130810616Y-70744215D01*
X130840613Y-70774212D01*
X130870609Y-70789210D01*
%TO.C,U2*%
D15*
X172981811Y-69078697D02*
X172981811Y-70440622D01*
X172901698Y-70600849D01*
X172821585Y-70680962D01*
X172661358Y-70761075D01*
X172340905Y-70761075D01*
X172180679Y-70680962D01*
X172100566Y-70600849D01*
X172020452Y-70440622D01*
X172020452Y-69078697D01*
X171299433Y-69238924D02*
X171219320Y-69158811D01*
X171059094Y-69078697D01*
X170658527Y-69078697D01*
X170498301Y-69158811D01*
X170418188Y-69238924D01*
X170338074Y-69399150D01*
X170338074Y-69559377D01*
X170418188Y-69799716D01*
X171379547Y-70761075D01*
X170338074Y-70761075D01*
%TO.C,U5*%
X139661904Y-110452380D02*
X139661904Y-111261904D01*
X139614285Y-111357142D01*
X139566666Y-111404761D01*
X139471428Y-111452380D01*
X139280952Y-111452380D01*
X139185714Y-111404761D01*
X139138095Y-111357142D01*
X139090476Y-111261904D01*
X139090476Y-110452380D01*
X138138095Y-110452380D02*
X138614285Y-110452380D01*
X138661904Y-110928571D01*
X138614285Y-110880952D01*
X138519047Y-110833333D01*
X138280952Y-110833333D01*
X138185714Y-110880952D01*
X138138095Y-110928571D01*
X138090476Y-111023809D01*
X138090476Y-111261904D01*
X138138095Y-111357142D01*
X138185714Y-111404761D01*
X138280952Y-111452380D01*
X138519047Y-111452380D01*
X138614285Y-111404761D01*
X138661904Y-111357142D01*
%TO.C,U3*%
X163694332Y-107916508D02*
X163121912Y-108488928D01*
X163020897Y-108522600D01*
X162953553Y-108522600D01*
X162852538Y-108488928D01*
X162717851Y-108354241D01*
X162684179Y-108253226D01*
X162684179Y-108185882D01*
X162717851Y-108084867D01*
X163290271Y-107512447D01*
X163020897Y-107243073D02*
X162583164Y-106805341D01*
X162549492Y-107310417D01*
X162448477Y-107209402D01*
X162347462Y-107175730D01*
X162280118Y-107175730D01*
X162179103Y-107209402D01*
X162010744Y-107377760D01*
X161977072Y-107478776D01*
X161977072Y-107546119D01*
X162010744Y-107647134D01*
X162212775Y-107849165D01*
X162313790Y-107882837D01*
X162381133Y-107882837D01*
%TO.C,J5*%
X147333333Y-77752380D02*
X147333333Y-78466666D01*
X147380952Y-78609523D01*
X147476190Y-78704761D01*
X147619047Y-78752380D01*
X147714285Y-78752380D01*
X146380952Y-77752380D02*
X146857142Y-77752380D01*
X146904761Y-78228571D01*
X146857142Y-78180952D01*
X146761904Y-78133333D01*
X146523809Y-78133333D01*
X146428571Y-78180952D01*
X146380952Y-78228571D01*
X146333333Y-78323809D01*
X146333333Y-78561904D01*
X146380952Y-78657142D01*
X146428571Y-78704761D01*
X146523809Y-78752380D01*
X146761904Y-78752380D01*
X146857142Y-78704761D01*
X146904761Y-78657142D01*
%TO.C,U4*%
X124661904Y-129202380D02*
X124661904Y-130011904D01*
X124614285Y-130107142D01*
X124566666Y-130154761D01*
X124471428Y-130202380D01*
X124280952Y-130202380D01*
X124185714Y-130154761D01*
X124138095Y-130107142D01*
X124090476Y-130011904D01*
X124090476Y-129202380D01*
X123185714Y-129535714D02*
X123185714Y-130202380D01*
X123423809Y-129154761D02*
X123661904Y-129869047D01*
X123042857Y-129869047D01*
%TO.C,J4*%
X120333333Y-86352380D02*
X120333333Y-87066666D01*
X120380952Y-87209523D01*
X120476190Y-87304761D01*
X120619047Y-87352380D01*
X120714285Y-87352380D01*
X119428571Y-86685714D02*
X119428571Y-87352380D01*
X119666666Y-86304761D02*
X119904761Y-87019047D01*
X119285714Y-87019047D01*
%TO.C,J6*%
X166133333Y-86152380D02*
X166133333Y-86866666D01*
X166180952Y-87009523D01*
X166276190Y-87104761D01*
X166419047Y-87152380D01*
X166514285Y-87152380D01*
X165228571Y-86152380D02*
X165419047Y-86152380D01*
X165514285Y-86200000D01*
X165561904Y-86247619D01*
X165657142Y-86390476D01*
X165704761Y-86580952D01*
X165704761Y-86961904D01*
X165657142Y-87057142D01*
X165609523Y-87104761D01*
X165514285Y-87152380D01*
X165323809Y-87152380D01*
X165228571Y-87104761D01*
X165180952Y-87057142D01*
X165133333Y-86961904D01*
X165133333Y-86723809D01*
X165180952Y-86628571D01*
X165228571Y-86580952D01*
X165323809Y-86533333D01*
X165514285Y-86533333D01*
X165609523Y-86580952D01*
X165657142Y-86628571D01*
X165704761Y-86723809D01*
%TO.C,Q1*%
X125966190Y-67766095D02*
X126042380Y-67728000D01*
X126118571Y-67651809D01*
X126232857Y-67537523D01*
X126309047Y-67499428D01*
X126385238Y-67499428D01*
X126347142Y-67689904D02*
X126423333Y-67651809D01*
X126499523Y-67575619D01*
X126537619Y-67423238D01*
X126537619Y-67156571D01*
X126499523Y-67004190D01*
X126423333Y-66928000D01*
X126347142Y-66889904D01*
X126194761Y-66889904D01*
X126118571Y-66928000D01*
X126042380Y-67004190D01*
X126004285Y-67156571D01*
X126004285Y-67423238D01*
X126042380Y-67575619D01*
X126118571Y-67651809D01*
X126194761Y-67689904D01*
X126347142Y-67689904D01*
X125242380Y-67689904D02*
X125699523Y-67689904D01*
X125470952Y-67689904D02*
X125470952Y-66889904D01*
X125547142Y-67004190D01*
X125623333Y-67080380D01*
X125699523Y-67118476D01*
%TD*%
M02*
