%FSLAX45Y45*%
G04 Gerber Fmt 4.5, Leading zero omitted, Abs format (unit mm)*
G04 Created by KiCad (PCBNEW (5.1.6)-1) date 2022-10-11 16:22:45*
%MOMM*%
%LPD*%
G01*
G04 APERTURE LIST*
%TA.AperFunction,Profile*%
%ADD10C,0.050000*%
%TD*%
%ADD11C,0.200000*%
%ADD12C,0.300000*%
G04 APERTURE END LIST*
D10*
X11480000Y-14450000D02*
X17920000Y-14450000D01*
X11400000Y-5800000D02*
X18000000Y-5800000D01*
X11480000Y-14450000D02*
G75*
G02*
X11400000Y-14370000I0J80000D01*
G01*
X18000000Y-14370000D02*
G75*
G02*
X17920000Y-14450000I-80000J0D01*
G01*
X18000000Y-14370000D02*
X18000000Y-5800000D01*
X11400000Y-5800000D02*
X11400000Y-14370000D01*
D11*
X11455000Y-14355000D02*
X11485000Y-14385000D01*
X11485000Y-14355000D02*
X11455000Y-14385000D01*
X11485000Y-12690000D02*
X11515000Y-12720000D01*
X11515000Y-12690000D02*
X11485000Y-12720000D01*
X11485000Y-13135000D02*
X11515000Y-13165000D01*
X11515000Y-13135000D02*
X11485000Y-13165000D01*
X11499167Y-5879750D02*
X11529167Y-5909750D01*
X11529167Y-5879750D02*
X11499167Y-5909750D01*
X11499167Y-13479750D02*
X11529167Y-13509750D01*
X11529167Y-13479750D02*
X11499167Y-13509750D01*
X11585000Y-9045000D02*
X11615000Y-9075000D01*
X11615000Y-9045000D02*
X11585000Y-9075000D01*
X11585000Y-9245000D02*
X11615000Y-9275000D01*
X11615000Y-9245000D02*
X11585000Y-9275000D01*
X11685000Y-9145000D02*
X11715000Y-9175000D01*
X11715000Y-9145000D02*
X11685000Y-9175000D01*
X11705000Y-13465000D02*
X11735000Y-13495000D01*
X11735000Y-13465000D02*
X11705000Y-13495000D01*
X11705000Y-13965000D02*
X11735000Y-13995000D01*
X11735000Y-13965000D02*
X11705000Y-13995000D01*
X11770000Y-12690000D02*
X11800000Y-12720000D01*
X11800000Y-12690000D02*
X11770000Y-12720000D01*
X11770000Y-13135000D02*
X11800000Y-13165000D01*
X11800000Y-13135000D02*
X11770000Y-13165000D01*
X11785000Y-9045000D02*
X11815000Y-9075000D01*
X11815000Y-9045000D02*
X11785000Y-9075000D01*
X11785000Y-9245000D02*
X11815000Y-9275000D01*
X11815000Y-9245000D02*
X11785000Y-9275000D01*
X11838054Y-13926444D02*
X11868054Y-13956444D01*
X11868054Y-13926444D02*
X11838054Y-13956444D01*
X11855000Y-6085000D02*
X11885000Y-6115000D01*
X11885000Y-6085000D02*
X11855000Y-6115000D01*
X11900805Y-12049195D02*
X11930805Y-12079195D01*
X11930805Y-12049195D02*
X11900805Y-12079195D01*
X11904000Y-11870000D02*
X11934000Y-11900000D01*
X11934000Y-11870000D02*
X11904000Y-11900000D01*
X11923000Y-7873000D02*
X11953000Y-7903000D01*
X11953000Y-7873000D02*
X11923000Y-7903000D01*
X11926000Y-9383000D02*
X11956000Y-9413000D01*
X11956000Y-9383000D02*
X11926000Y-9413000D01*
X11933000Y-12148000D02*
X11963000Y-12178000D01*
X11963000Y-12148000D02*
X11933000Y-12178000D01*
X11941000Y-9749000D02*
X11971000Y-9779000D01*
X11971000Y-9749000D02*
X11941000Y-9779000D01*
X11960000Y-13410000D02*
X11990000Y-13440000D01*
X11990000Y-13410000D02*
X11960000Y-13440000D01*
X11965000Y-12975000D02*
X11995000Y-13005000D01*
X11995000Y-12975000D02*
X11965000Y-13005000D01*
X11979167Y-14279750D02*
X12009167Y-14309750D01*
X12009167Y-14279750D02*
X11979167Y-14309750D01*
X11980000Y-13798000D02*
X12010000Y-13828000D01*
X12010000Y-13798000D02*
X11980000Y-13828000D01*
X11998000Y-8415000D02*
X12028000Y-8445000D01*
X12028000Y-8415000D02*
X11998000Y-8445000D01*
X12015000Y-7685000D02*
X12045000Y-7715000D01*
X12045000Y-7685000D02*
X12015000Y-7715000D01*
X12050000Y-12550000D02*
X12080000Y-12580000D01*
X12080000Y-12550000D02*
X12050000Y-12580000D01*
X12129000Y-12143000D02*
X12159000Y-12173000D01*
X12159000Y-12143000D02*
X12129000Y-12173000D01*
X12139000Y-13981000D02*
X12169000Y-14011000D01*
X12169000Y-13981000D02*
X12139000Y-14011000D01*
X12139167Y-10519750D02*
X12169167Y-10549750D01*
X12169167Y-10519750D02*
X12139167Y-10549750D01*
X12145000Y-11525000D02*
X12175000Y-11555000D01*
X12175000Y-11525000D02*
X12145000Y-11555000D01*
X12155000Y-8045000D02*
X12185000Y-8075000D01*
X12185000Y-8045000D02*
X12155000Y-8075000D01*
X12155000Y-10755000D02*
X12185000Y-10785000D01*
X12185000Y-10755000D02*
X12155000Y-10785000D01*
X12155000Y-11015000D02*
X12185000Y-11045000D01*
X12185000Y-11015000D02*
X12155000Y-11045000D01*
X12155000Y-11265000D02*
X12185000Y-11295000D01*
X12185000Y-11265000D02*
X12155000Y-11295000D01*
X12155000Y-11785000D02*
X12185000Y-11815000D01*
X12185000Y-11785000D02*
X12155000Y-11815000D01*
X12235000Y-14335000D02*
X12265000Y-14365000D01*
X12265000Y-14335000D02*
X12235000Y-14365000D01*
X12235250Y-13912750D02*
X12265250Y-13942750D01*
X12265250Y-13912750D02*
X12235250Y-13942750D01*
X12245000Y-14125000D02*
X12275000Y-14155000D01*
X12275000Y-14125000D02*
X12245000Y-14155000D01*
X12260000Y-13570000D02*
X12290000Y-13600000D01*
X12290000Y-13570000D02*
X12260000Y-13600000D01*
X12275000Y-7445000D02*
X12305000Y-7475000D01*
X12305000Y-7445000D02*
X12275000Y-7475000D01*
X12355000Y-13845000D02*
X12385000Y-13875000D01*
X12385000Y-13845000D02*
X12355000Y-13875000D01*
X12379167Y-10119750D02*
X12409167Y-10149750D01*
X12409167Y-10119750D02*
X12379167Y-10149750D01*
X12385000Y-11035000D02*
X12415000Y-11065000D01*
X12415000Y-11035000D02*
X12385000Y-11065000D01*
X12385000Y-11260000D02*
X12415000Y-11290000D01*
X12415000Y-11260000D02*
X12385000Y-11290000D01*
X12385000Y-11535000D02*
X12415000Y-11565000D01*
X12415000Y-11535000D02*
X12385000Y-11565000D01*
X12385000Y-11785000D02*
X12415000Y-11815000D01*
X12415000Y-11785000D02*
X12385000Y-11815000D01*
X12391000Y-13978000D02*
X12421000Y-14008000D01*
X12421000Y-13978000D02*
X12391000Y-14008000D01*
X12395000Y-9405000D02*
X12425000Y-9435000D01*
X12425000Y-9405000D02*
X12395000Y-9435000D01*
X12410000Y-8856000D02*
X12440000Y-8886000D01*
X12440000Y-8856000D02*
X12410000Y-8886000D01*
X12410000Y-11978000D02*
X12440000Y-12008000D01*
X12440000Y-11978000D02*
X12410000Y-12008000D01*
X12435000Y-12205000D02*
X12465000Y-12235000D01*
X12465000Y-12205000D02*
X12435000Y-12235000D01*
X12435000Y-12335000D02*
X12465000Y-12365000D01*
X12465000Y-12335000D02*
X12435000Y-12365000D01*
X12435000Y-12475000D02*
X12465000Y-12505000D01*
X12465000Y-12475000D02*
X12435000Y-12505000D01*
X12445000Y-13665000D02*
X12475000Y-13695000D01*
X12475000Y-13665000D02*
X12445000Y-13695000D01*
X12518000Y-6917000D02*
X12548000Y-6947000D01*
X12548000Y-6917000D02*
X12518000Y-6947000D01*
X12538000Y-6610000D02*
X12568000Y-6640000D01*
X12568000Y-6610000D02*
X12538000Y-6640000D01*
X12585000Y-12205000D02*
X12615000Y-12235000D01*
X12615000Y-12205000D02*
X12585000Y-12235000D01*
X12585000Y-12335000D02*
X12615000Y-12365000D01*
X12615000Y-12335000D02*
X12585000Y-12365000D01*
X12585000Y-12475000D02*
X12615000Y-12505000D01*
X12615000Y-12475000D02*
X12585000Y-12505000D01*
X12625000Y-7655000D02*
X12655000Y-7685000D01*
X12655000Y-7655000D02*
X12625000Y-7685000D01*
X12645000Y-7235000D02*
X12675000Y-7265000D01*
X12675000Y-7235000D02*
X12645000Y-7265000D01*
X12685000Y-14045000D02*
X12715000Y-14075000D01*
X12715000Y-14045000D02*
X12685000Y-14075000D01*
X12705000Y-13565000D02*
X12735000Y-13595000D01*
X12735000Y-13565000D02*
X12705000Y-13595000D01*
X12713000Y-9746000D02*
X12743000Y-9776000D01*
X12743000Y-9746000D02*
X12713000Y-9776000D01*
X12745000Y-14325000D02*
X12775000Y-14355000D01*
X12775000Y-14325000D02*
X12745000Y-14355000D01*
X12760000Y-12235000D02*
X12790000Y-12265000D01*
X12790000Y-12235000D02*
X12760000Y-12265000D01*
X12760000Y-12990000D02*
X12790000Y-13020000D01*
X12790000Y-12990000D02*
X12760000Y-13020000D01*
X12763000Y-12150000D02*
X12793000Y-12180000D01*
X12793000Y-12150000D02*
X12763000Y-12180000D01*
X12772000Y-13839000D02*
X12802000Y-13869000D01*
X12802000Y-13839000D02*
X12772000Y-13869000D01*
X12779167Y-10519750D02*
X12809167Y-10549750D01*
X12809167Y-10519750D02*
X12779167Y-10549750D01*
X12785000Y-13185000D02*
X12815000Y-13215000D01*
X12815000Y-13185000D02*
X12785000Y-13215000D01*
X12841500Y-13255500D02*
X12871500Y-13285500D01*
X12871500Y-13255500D02*
X12841500Y-13285500D01*
X12844000Y-12629000D02*
X12874000Y-12659000D01*
X12874000Y-12629000D02*
X12844000Y-12659000D01*
X12844000Y-12804000D02*
X12874000Y-12834000D01*
X12874000Y-12804000D02*
X12844000Y-12834000D01*
X12844000Y-12976000D02*
X12874000Y-13006000D01*
X12874000Y-12976000D02*
X12844000Y-13006000D01*
X12846000Y-12255000D02*
X12876000Y-12285000D01*
X12876000Y-12255000D02*
X12846000Y-12285000D01*
X12846000Y-12453000D02*
X12876000Y-12483000D01*
X12876000Y-12453000D02*
X12846000Y-12483000D01*
X12850000Y-13336000D02*
X12880000Y-13366000D01*
X12880000Y-13336000D02*
X12850000Y-13366000D01*
X12854999Y-12150467D02*
X12884999Y-12180467D01*
X12884999Y-12150467D02*
X12854999Y-12180467D01*
X12892000Y-11976000D02*
X12922000Y-12006000D01*
X12922000Y-11976000D02*
X12892000Y-12006000D01*
X12895000Y-7425000D02*
X12925000Y-7455000D01*
X12925000Y-7425000D02*
X12895000Y-7455000D01*
X12919000Y-13378000D02*
X12949000Y-13408000D01*
X12949000Y-13378000D02*
X12919000Y-13408000D01*
X12935000Y-11785000D02*
X12965000Y-11815000D01*
X12965000Y-11785000D02*
X12935000Y-11815000D01*
X12953000Y-13558000D02*
X12983000Y-13588000D01*
X12983000Y-13558000D02*
X12953000Y-13588000D01*
X12959000Y-11035000D02*
X12989000Y-11065000D01*
X12989000Y-11035000D02*
X12959000Y-11065000D01*
X12959000Y-11285000D02*
X12989000Y-11315000D01*
X12989000Y-11285000D02*
X12959000Y-11315000D01*
X12959000Y-11535000D02*
X12989000Y-11565000D01*
X12989000Y-11535000D02*
X12959000Y-11565000D01*
X12962500Y-13047500D02*
X12992500Y-13077500D01*
X12992500Y-13047500D02*
X12962500Y-13077500D01*
X12984000Y-12182000D02*
X13014000Y-12212000D01*
X13014000Y-12182000D02*
X12984000Y-12212000D01*
X13045000Y-13383996D02*
X13075000Y-13413996D01*
X13075000Y-13383996D02*
X13045000Y-13413996D01*
X13050000Y-12624000D02*
X13080000Y-12654000D01*
X13080000Y-12624000D02*
X13050000Y-12654000D01*
X13060000Y-9710000D02*
X13090000Y-9740000D01*
X13090000Y-9710000D02*
X13060000Y-9740000D01*
X13060000Y-9985000D02*
X13090000Y-10015000D01*
X13090000Y-9985000D02*
X13060000Y-10015000D01*
X13060000Y-10235000D02*
X13090000Y-10265000D01*
X13090000Y-10235000D02*
X13060000Y-10265000D01*
X13099167Y-13959750D02*
X13129167Y-13989750D01*
X13129167Y-13959750D02*
X13099167Y-13989750D01*
X13105000Y-7125000D02*
X13135000Y-7155000D01*
X13135000Y-7125000D02*
X13105000Y-7155000D01*
X13109000Y-7731000D02*
X13139000Y-7761000D01*
X13139000Y-7731000D02*
X13109000Y-7761000D01*
X13109000Y-11135000D02*
X13139000Y-11165000D01*
X13139000Y-11135000D02*
X13109000Y-11165000D01*
X13109000Y-11435000D02*
X13139000Y-11465000D01*
X13139000Y-11435000D02*
X13109000Y-11465000D01*
X13118597Y-13346518D02*
X13148597Y-13376518D01*
X13148597Y-13346518D02*
X13118597Y-13376518D01*
X13125000Y-7295000D02*
X13155000Y-7325000D01*
X13155000Y-7295000D02*
X13125000Y-7325000D01*
X13128000Y-14251000D02*
X13158000Y-14281000D01*
X13158000Y-14251000D02*
X13128000Y-14281000D01*
X13135000Y-13568000D02*
X13165000Y-13598000D01*
X13165000Y-13568000D02*
X13135000Y-13598000D01*
X13149000Y-13427000D02*
X13179000Y-13457000D01*
X13179000Y-13427000D02*
X13149000Y-13457000D01*
X13171000Y-13282000D02*
X13201000Y-13312000D01*
X13201000Y-13282000D02*
X13171000Y-13312000D01*
X13181000Y-13641000D02*
X13211000Y-13671000D01*
X13211000Y-13641000D02*
X13181000Y-13671000D01*
X13185000Y-9835000D02*
X13215000Y-9865000D01*
X13215000Y-9835000D02*
X13185000Y-9865000D01*
X13185000Y-10110000D02*
X13215000Y-10140000D01*
X13215000Y-10110000D02*
X13185000Y-10140000D01*
X13215000Y-7095000D02*
X13245000Y-7125000D01*
X13245000Y-7095000D02*
X13215000Y-7125000D01*
X13225000Y-6955000D02*
X13255000Y-6985000D01*
X13255000Y-6955000D02*
X13225000Y-6985000D01*
X13239000Y-6630000D02*
X13269000Y-6660000D01*
X13269000Y-6630000D02*
X13239000Y-6660000D01*
X13259000Y-11035000D02*
X13289000Y-11065000D01*
X13289000Y-11035000D02*
X13259000Y-11065000D01*
X13259000Y-11285000D02*
X13289000Y-11315000D01*
X13289000Y-11285000D02*
X13259000Y-11315000D01*
X13259000Y-11535000D02*
X13289000Y-11565000D01*
X13289000Y-11535000D02*
X13259000Y-11565000D01*
X13274000Y-12792000D02*
X13304000Y-12822000D01*
X13304000Y-12792000D02*
X13274000Y-12822000D01*
X13276000Y-12944000D02*
X13306000Y-12974000D01*
X13306000Y-12944000D02*
X13276000Y-12974000D01*
X13310000Y-9710000D02*
X13340000Y-9740000D01*
X13340000Y-9710000D02*
X13310000Y-9740000D01*
X13310000Y-9985000D02*
X13340000Y-10015000D01*
X13340000Y-9985000D02*
X13310000Y-10015000D01*
X13310000Y-10235000D02*
X13340000Y-10265000D01*
X13340000Y-10235000D02*
X13310000Y-10265000D01*
X13365000Y-6705000D02*
X13395000Y-6735000D01*
X13395000Y-6705000D02*
X13365000Y-6735000D01*
X13365000Y-6854000D02*
X13395000Y-6884000D01*
X13395000Y-6854000D02*
X13365000Y-6884000D01*
X13405000Y-6563000D02*
X13435000Y-6593000D01*
X13435000Y-6563000D02*
X13405000Y-6593000D01*
X13407000Y-12232000D02*
X13437000Y-12262000D01*
X13437000Y-12232000D02*
X13407000Y-12262000D01*
X13419167Y-13639750D02*
X13449167Y-13669750D01*
X13449167Y-13639750D02*
X13419167Y-13669750D01*
X13437000Y-12515000D02*
X13467000Y-12545000D01*
X13467000Y-12515000D02*
X13437000Y-12545000D01*
X13445000Y-13425000D02*
X13475000Y-13455000D01*
X13475000Y-13425000D02*
X13445000Y-13455000D01*
X13467000Y-9854000D02*
X13497000Y-9884000D01*
X13497000Y-9854000D02*
X13467000Y-9884000D01*
X13470000Y-10605000D02*
X13500000Y-10635000D01*
X13500000Y-10605000D02*
X13470000Y-10635000D01*
X13475000Y-12875000D02*
X13505000Y-12905000D01*
X13505000Y-12875000D02*
X13475000Y-12905000D01*
X13475000Y-13025000D02*
X13505000Y-13055000D01*
X13505000Y-13025000D02*
X13475000Y-13055000D01*
X13479000Y-12773000D02*
X13509000Y-12803000D01*
X13509000Y-12773000D02*
X13479000Y-12803000D01*
X13484000Y-11912000D02*
X13514000Y-11942000D01*
X13514000Y-11912000D02*
X13484000Y-11942000D01*
X13485000Y-12060000D02*
X13515000Y-12090000D01*
X13515000Y-12060000D02*
X13485000Y-12090000D01*
X13510000Y-12285000D02*
X13540000Y-12315000D01*
X13540000Y-12285000D02*
X13510000Y-12315000D01*
X13535000Y-9405000D02*
X13565000Y-9435000D01*
X13565000Y-9405000D02*
X13535000Y-9435000D01*
X13541000Y-11421000D02*
X13571000Y-11451000D01*
X13571000Y-11421000D02*
X13541000Y-11451000D01*
X13555000Y-10445000D02*
X13585000Y-10475000D01*
X13585000Y-10445000D02*
X13555000Y-10475000D01*
X13575000Y-10915000D02*
X13605000Y-10945000D01*
X13605000Y-10915000D02*
X13575000Y-10945000D01*
X13585503Y-11665000D02*
X13615503Y-11695000D01*
X13615503Y-11665000D02*
X13585503Y-11695000D01*
X13625000Y-10025000D02*
X13655000Y-10055000D01*
X13655000Y-10025000D02*
X13625000Y-10055000D01*
X13635166Y-10545036D02*
X13665166Y-10575036D01*
X13665166Y-10545036D02*
X13635166Y-10575036D01*
X13644000Y-11300000D02*
X13674000Y-11330000D01*
X13674000Y-11300000D02*
X13644000Y-11330000D01*
X13644000Y-11567000D02*
X13674000Y-11597000D01*
X13674000Y-11567000D02*
X13644000Y-11597000D01*
X13645000Y-10695000D02*
X13675000Y-10725000D01*
X13675000Y-10695000D02*
X13645000Y-10725000D01*
X13646000Y-12349000D02*
X13676000Y-12379000D01*
X13676000Y-12349000D02*
X13646000Y-12379000D01*
X13646000Y-12629000D02*
X13676000Y-12659000D01*
X13676000Y-12629000D02*
X13646000Y-12659000D01*
X13647000Y-13244000D02*
X13677000Y-13274000D01*
X13677000Y-13244000D02*
X13647000Y-13274000D01*
X13648000Y-11734000D02*
X13678000Y-11764000D01*
X13678000Y-11734000D02*
X13648000Y-11764000D01*
X13658000Y-12952000D02*
X13688000Y-12982000D01*
X13688000Y-12952000D02*
X13658000Y-12982000D01*
X13672000Y-8423000D02*
X13702000Y-8453000D01*
X13702000Y-8423000D02*
X13672000Y-8453000D01*
X13725000Y-11490002D02*
X13755000Y-11520002D01*
X13755000Y-11490002D02*
X13725000Y-11520002D01*
X13770000Y-6951000D02*
X13800000Y-6981000D01*
X13800000Y-6951000D02*
X13770000Y-6981000D01*
X13805000Y-7685000D02*
X13835000Y-7715000D01*
X13835000Y-7685000D02*
X13805000Y-7715000D01*
X13842499Y-11665000D02*
X13872499Y-11695000D01*
X13872499Y-11665000D02*
X13842499Y-11695000D01*
X13856000Y-10256000D02*
X13886000Y-10286000D01*
X13886000Y-10256000D02*
X13856000Y-10286000D01*
X13865000Y-11745000D02*
X13895000Y-11775000D01*
X13895000Y-11745000D02*
X13865000Y-11775000D01*
X13875000Y-7275000D02*
X13905000Y-7305000D01*
X13905000Y-7275000D02*
X13875000Y-7305000D01*
X13885000Y-11355000D02*
X13915000Y-11385000D01*
X13915000Y-11355000D02*
X13885000Y-11385000D01*
X13895000Y-6945000D02*
X13925000Y-6975000D01*
X13925000Y-6945000D02*
X13895000Y-6975000D01*
X13915000Y-11111000D02*
X13945000Y-11141000D01*
X13945000Y-11111000D02*
X13915000Y-11141000D01*
X13917000Y-11829000D02*
X13947000Y-11859000D01*
X13947000Y-11829000D02*
X13917000Y-11859000D01*
X13976055Y-13137556D02*
X14006055Y-13167556D01*
X14006055Y-13137556D02*
X13976055Y-13167556D01*
X13981000Y-13425000D02*
X14011000Y-13455000D01*
X14011000Y-13425000D02*
X13981000Y-13455000D01*
X13990501Y-11355000D02*
X14020501Y-11385000D01*
X14020501Y-11355000D02*
X13990501Y-11385000D01*
X13995000Y-10945000D02*
X14025000Y-10975000D01*
X14025000Y-10945000D02*
X13995000Y-10975000D01*
X13995000Y-12120000D02*
X14025000Y-12150000D01*
X14025000Y-12120000D02*
X13995000Y-12150000D01*
X14009000Y-11919000D02*
X14039000Y-11949000D01*
X14039000Y-11919000D02*
X14009000Y-11949000D01*
X14022000Y-12753000D02*
X14052000Y-12783000D01*
X14052000Y-12753000D02*
X14022000Y-12783000D01*
X14023000Y-12948000D02*
X14053000Y-12978000D01*
X14053000Y-12948000D02*
X14023000Y-12978000D01*
X14045000Y-9865000D02*
X14075000Y-9895000D01*
X14075000Y-9865000D02*
X14045000Y-9895000D01*
X14045000Y-13062000D02*
X14075000Y-13092000D01*
X14075000Y-13062000D02*
X14045000Y-13092000D01*
X14056000Y-13262000D02*
X14086000Y-13292000D01*
X14086000Y-13262000D02*
X14056000Y-13292000D01*
X14059167Y-13639750D02*
X14089167Y-13669750D01*
X14089167Y-13639750D02*
X14059167Y-13669750D01*
X14085000Y-11465000D02*
X14115000Y-11495000D01*
X14115000Y-11465000D02*
X14085000Y-11495000D01*
X14085000Y-11705000D02*
X14115000Y-11735000D01*
X14115000Y-11705000D02*
X14085000Y-11735000D01*
X14094000Y-12454000D02*
X14124000Y-12484000D01*
X14124000Y-12454000D02*
X14094000Y-12484000D01*
X14139167Y-8999750D02*
X14169167Y-9029750D01*
X14169167Y-8999750D02*
X14139167Y-9029750D01*
X14175000Y-6855000D02*
X14205000Y-6885000D01*
X14205000Y-6855000D02*
X14175000Y-6885000D01*
X14175000Y-7275000D02*
X14205000Y-7305000D01*
X14205000Y-7275000D02*
X14175000Y-7305000D01*
X14175000Y-7825000D02*
X14205000Y-7855000D01*
X14205000Y-7825000D02*
X14175000Y-7855000D01*
X14198000Y-12730000D02*
X14228000Y-12760000D01*
X14228000Y-12730000D02*
X14198000Y-12760000D01*
X14201000Y-13158000D02*
X14231000Y-13188000D01*
X14231000Y-13158000D02*
X14201000Y-13188000D01*
X14207000Y-13425000D02*
X14237000Y-13455000D01*
X14237000Y-13425000D02*
X14207000Y-13455000D01*
X14282000Y-12293000D02*
X14312000Y-12323000D01*
X14312000Y-12293000D02*
X14282000Y-12323000D01*
X14291000Y-13489000D02*
X14321000Y-13519000D01*
X14321000Y-13489000D02*
X14291000Y-13519000D01*
X14299167Y-8439750D02*
X14329167Y-8469750D01*
X14329167Y-8439750D02*
X14299167Y-8469750D01*
X14325000Y-11465000D02*
X14355000Y-11495000D01*
X14355000Y-11465000D02*
X14325000Y-11495000D01*
X14325000Y-11705000D02*
X14355000Y-11735000D01*
X14355000Y-11705000D02*
X14325000Y-11735000D01*
X14335000Y-10110000D02*
X14365000Y-10140000D01*
X14365000Y-10110000D02*
X14335000Y-10140000D01*
X14373000Y-12738000D02*
X14403000Y-12768000D01*
X14403000Y-12738000D02*
X14373000Y-12768000D01*
X14374000Y-13128000D02*
X14404000Y-13158000D01*
X14404000Y-13128000D02*
X14374000Y-13158000D01*
X14425000Y-6855000D02*
X14455000Y-6885000D01*
X14455000Y-6855000D02*
X14425000Y-6885000D01*
X14425000Y-7275000D02*
X14455000Y-7305000D01*
X14455000Y-7275000D02*
X14425000Y-7305000D01*
X14425000Y-7825000D02*
X14455000Y-7855000D01*
X14455000Y-7825000D02*
X14425000Y-7855000D01*
X14445000Y-11355000D02*
X14475000Y-11385000D01*
X14475000Y-11355000D02*
X14445000Y-11385000D01*
X14448000Y-12136000D02*
X14478000Y-12166000D01*
X14478000Y-12136000D02*
X14448000Y-12166000D01*
X14459167Y-9319750D02*
X14489167Y-9349750D01*
X14489167Y-9319750D02*
X14459167Y-9349750D01*
X14485000Y-11235000D02*
X14515000Y-11265000D01*
X14515000Y-11235000D02*
X14485000Y-11265000D01*
X14497000Y-13283000D02*
X14527000Y-13313000D01*
X14527000Y-13283000D02*
X14497000Y-13313000D01*
X14545000Y-11405000D02*
X14575000Y-11435000D01*
X14575000Y-11405000D02*
X14545000Y-11435000D01*
X14585000Y-10990000D02*
X14615000Y-11020000D01*
X14615000Y-10990000D02*
X14585000Y-11020000D01*
X14610000Y-12526000D02*
X14640000Y-12556000D01*
X14640000Y-12526000D02*
X14610000Y-12556000D01*
X14610000Y-12760000D02*
X14640000Y-12790000D01*
X14640000Y-12760000D02*
X14610000Y-12790000D01*
X14610000Y-13085000D02*
X14640000Y-13115000D01*
X14640000Y-13085000D02*
X14610000Y-13115000D01*
X14619167Y-8759750D02*
X14649167Y-8789750D01*
X14649167Y-8759750D02*
X14619167Y-8789750D01*
X14643000Y-12126000D02*
X14673000Y-12156000D01*
X14673000Y-12126000D02*
X14643000Y-12156000D01*
X14685000Y-13438000D02*
X14715000Y-13468000D01*
X14715000Y-13438000D02*
X14685000Y-13468000D01*
X14700000Y-10300000D02*
X14730000Y-10330000D01*
X14730000Y-10300000D02*
X14700000Y-10330000D01*
X14745000Y-10495000D02*
X14775000Y-10525000D01*
X14775000Y-10495000D02*
X14745000Y-10525000D01*
X14745000Y-11165000D02*
X14775000Y-11195000D01*
X14775000Y-11165000D02*
X14745000Y-11195000D01*
X14760000Y-12535000D02*
X14790000Y-12565000D01*
X14790000Y-12535000D02*
X14760000Y-12565000D01*
X14772000Y-11441000D02*
X14802000Y-11471000D01*
X14802000Y-11441000D02*
X14772000Y-11471000D01*
X14783000Y-12183496D02*
X14813000Y-12213496D01*
X14813000Y-12183496D02*
X14783000Y-12213496D01*
X14785000Y-13645000D02*
X14815000Y-13675000D01*
X14815000Y-13645000D02*
X14785000Y-13675000D01*
X14809167Y-7639750D02*
X14839167Y-7669750D01*
X14839167Y-7639750D02*
X14809167Y-7669750D01*
X14811000Y-7181000D02*
X14841000Y-7211000D01*
X14841000Y-7181000D02*
X14811000Y-7211000D01*
X14813000Y-6599000D02*
X14843000Y-6629000D01*
X14843000Y-6599000D02*
X14813000Y-6629000D01*
X14834000Y-11746000D02*
X14864000Y-11776000D01*
X14864000Y-11746000D02*
X14834000Y-11776000D01*
X14847000Y-12123000D02*
X14877000Y-12153000D01*
X14877000Y-12123000D02*
X14847000Y-12153000D01*
X14896000Y-12400000D02*
X14926000Y-12430000D01*
X14926000Y-12400000D02*
X14896000Y-12430000D01*
X14910000Y-12485000D02*
X14940000Y-12515000D01*
X14940000Y-12485000D02*
X14910000Y-12515000D01*
X14916000Y-13237000D02*
X14946000Y-13267000D01*
X14946000Y-13237000D02*
X14916000Y-13267000D01*
X14935000Y-12760000D02*
X14965000Y-12790000D01*
X14965000Y-12760000D02*
X14935000Y-12790000D01*
X14935000Y-13085000D02*
X14965000Y-13115000D01*
X14965000Y-13085000D02*
X14935000Y-13115000D01*
X14955000Y-11475000D02*
X14985000Y-11505000D01*
X14985000Y-11475000D02*
X14955000Y-11505000D01*
X14958911Y-7900725D02*
X14988911Y-7930725D01*
X14988911Y-7900725D02*
X14958911Y-7930725D01*
X14969000Y-10523000D02*
X14999000Y-10553000D01*
X14999000Y-10523000D02*
X14969000Y-10553000D01*
X14972001Y-12356000D02*
X15002001Y-12386000D01*
X15002001Y-12356000D02*
X14972001Y-12386000D01*
X15019501Y-12227553D02*
X15049501Y-12257553D01*
X15049501Y-12227553D02*
X15019501Y-12257553D01*
X15065000Y-12161000D02*
X15095000Y-12191000D01*
X15095000Y-12161000D02*
X15065000Y-12191000D01*
X15066000Y-12452000D02*
X15096000Y-12482000D01*
X15096000Y-12452000D02*
X15066000Y-12482000D01*
X15085000Y-10890000D02*
X15115000Y-10920000D01*
X15115000Y-10890000D02*
X15085000Y-10920000D01*
X15107908Y-12535498D02*
X15137908Y-12565498D01*
X15137908Y-12535498D02*
X15107908Y-12565498D01*
X15121000Y-12830000D02*
X15151000Y-12860000D01*
X15151000Y-12830000D02*
X15121000Y-12860000D01*
X15121000Y-13096000D02*
X15151000Y-13126000D01*
X15151000Y-13096000D02*
X15121000Y-13126000D01*
X15163000Y-10357000D02*
X15193000Y-10387000D01*
X15193000Y-10357000D02*
X15163000Y-10387000D01*
X15175000Y-6915000D02*
X15205000Y-6945000D01*
X15205000Y-6915000D02*
X15175000Y-6945000D01*
X15175000Y-7310000D02*
X15205000Y-7340000D01*
X15205000Y-7310000D02*
X15175000Y-7340000D01*
X15175000Y-7705000D02*
X15205000Y-7735000D01*
X15205000Y-7705000D02*
X15175000Y-7735000D01*
X15267698Y-13045698D02*
X15297698Y-13075698D01*
X15297698Y-13045698D02*
X15267698Y-13075698D01*
X15295000Y-9055000D02*
X15325000Y-9085000D01*
X15325000Y-9055000D02*
X15295000Y-9085000D01*
X15299000Y-12136000D02*
X15329000Y-12166000D01*
X15329000Y-12136000D02*
X15299000Y-12166000D01*
X15301000Y-12467000D02*
X15331000Y-12497000D01*
X15331000Y-12467000D02*
X15301000Y-12497000D01*
X15303000Y-12299000D02*
X15333000Y-12329000D01*
X15333000Y-12299000D02*
X15303000Y-12329000D01*
X15305000Y-11305000D02*
X15335000Y-11335000D01*
X15335000Y-11305000D02*
X15305000Y-11335000D01*
X15306000Y-12671000D02*
X15336000Y-12701000D01*
X15336000Y-12671000D02*
X15306000Y-12701000D01*
X15320000Y-11535000D02*
X15350000Y-11565000D01*
X15350000Y-11535000D02*
X15320000Y-11565000D01*
X15339167Y-13639750D02*
X15369167Y-13669750D01*
X15369167Y-13639750D02*
X15339167Y-13669750D01*
X15343000Y-13160000D02*
X15373000Y-13190000D01*
X15373000Y-13160000D02*
X15343000Y-13190000D01*
X15348000Y-12955000D02*
X15378000Y-12985000D01*
X15378000Y-12955000D02*
X15348000Y-12985000D01*
X15366000Y-12002000D02*
X15396000Y-12032000D01*
X15396000Y-12002000D02*
X15366000Y-12032000D01*
X15380000Y-11460000D02*
X15410000Y-11490000D01*
X15410000Y-11460000D02*
X15380000Y-11490000D01*
X15435000Y-6839750D02*
X15465000Y-6869750D01*
X15465000Y-6839750D02*
X15435000Y-6869750D01*
X15435000Y-7151500D02*
X15465000Y-7181500D01*
X15465000Y-7151500D02*
X15435000Y-7181500D01*
X15435000Y-7463250D02*
X15465000Y-7493250D01*
X15465000Y-7463250D02*
X15435000Y-7493250D01*
X15435000Y-7775000D02*
X15465000Y-7805000D01*
X15465000Y-7775000D02*
X15435000Y-7805000D01*
X15445000Y-11345000D02*
X15475000Y-11375000D01*
X15475000Y-11345000D02*
X15445000Y-11375000D01*
X15460000Y-10988000D02*
X15490000Y-11018000D01*
X15490000Y-10988000D02*
X15460000Y-11018000D01*
X15485000Y-10235000D02*
X15515000Y-10265000D01*
X15515000Y-10235000D02*
X15485000Y-10265000D01*
X15499167Y-9319750D02*
X15529167Y-9349750D01*
X15529167Y-9319750D02*
X15499167Y-9349750D01*
X15528000Y-13773000D02*
X15558000Y-13803000D01*
X15558000Y-13773000D02*
X15528000Y-13803000D01*
X15579167Y-8439750D02*
X15609167Y-8469750D01*
X15609167Y-8439750D02*
X15579167Y-8469750D01*
X15629000Y-11660000D02*
X15659000Y-11690000D01*
X15659000Y-11660000D02*
X15629000Y-11690000D01*
X15635000Y-11755000D02*
X15665000Y-11785000D01*
X15665000Y-11755000D02*
X15635000Y-11785000D01*
X15659167Y-7879750D02*
X15689167Y-7909750D01*
X15689167Y-7879750D02*
X15659167Y-7909750D01*
X15665000Y-9105000D02*
X15695000Y-9135000D01*
X15695000Y-9105000D02*
X15665000Y-9135000D01*
X15683000Y-10883000D02*
X15713000Y-10913000D01*
X15713000Y-10883000D02*
X15683000Y-10913000D01*
X15685000Y-12114000D02*
X15715000Y-12144000D01*
X15715000Y-12114000D02*
X15685000Y-12144000D01*
X15689000Y-12580000D02*
X15719000Y-12610000D01*
X15719000Y-12580000D02*
X15689000Y-12610000D01*
X15693000Y-12297000D02*
X15723000Y-12327000D01*
X15723000Y-12297000D02*
X15693000Y-12327000D01*
X15693000Y-13114000D02*
X15723000Y-13144000D01*
X15723000Y-13114000D02*
X15693000Y-13144000D01*
X15739000Y-12776000D02*
X15769000Y-12806000D01*
X15769000Y-12776000D02*
X15739000Y-12806000D01*
X15739167Y-7079750D02*
X15769167Y-7109750D01*
X15769167Y-7079750D02*
X15739167Y-7109750D01*
X15754000Y-12963000D02*
X15784000Y-12993000D01*
X15784000Y-12963000D02*
X15754000Y-12993000D01*
X15755000Y-11295000D02*
X15785000Y-11325000D01*
X15785000Y-11295000D02*
X15755000Y-11325000D01*
X15819167Y-8839750D02*
X15849167Y-8869750D01*
X15849167Y-8839750D02*
X15819167Y-8869750D01*
X15861000Y-13115000D02*
X15891000Y-13145000D01*
X15891000Y-13115000D02*
X15861000Y-13145000D01*
X15864000Y-11933000D02*
X15894000Y-11963000D01*
X15894000Y-11933000D02*
X15864000Y-11963000D01*
X15882000Y-13629000D02*
X15912000Y-13659000D01*
X15912000Y-13629000D02*
X15882000Y-13659000D01*
X15899167Y-6599750D02*
X15929167Y-6629750D01*
X15929167Y-6599750D02*
X15899167Y-6629750D01*
X15915000Y-11135000D02*
X15945000Y-11165000D01*
X15945000Y-11135000D02*
X15915000Y-11165000D01*
X15915000Y-11455000D02*
X15945000Y-11485000D01*
X15945000Y-11455000D02*
X15915000Y-11485000D01*
X15915000Y-11665000D02*
X15945000Y-11695000D01*
X15945000Y-11665000D02*
X15915000Y-11695000D01*
X15919000Y-12312000D02*
X15949000Y-12342000D01*
X15949000Y-12312000D02*
X15919000Y-12342000D01*
X15922000Y-12979000D02*
X15952000Y-13009000D01*
X15952000Y-12979000D02*
X15922000Y-13009000D01*
X15927000Y-12553000D02*
X15957000Y-12583000D01*
X15957000Y-12553000D02*
X15927000Y-12583000D01*
X15956000Y-12076000D02*
X15986000Y-12106000D01*
X15986000Y-12076000D02*
X15956000Y-12106000D01*
X15958000Y-12758000D02*
X15988000Y-12788000D01*
X15988000Y-12758000D02*
X15958000Y-12788000D01*
X15961000Y-11813000D02*
X15991000Y-11843000D01*
X15991000Y-11813000D02*
X15961000Y-11843000D01*
X15979167Y-7559750D02*
X16009167Y-7589750D01*
X16009167Y-7559750D02*
X15979167Y-7589750D01*
X15979167Y-8199750D02*
X16009167Y-8229750D01*
X16009167Y-8199750D02*
X15979167Y-8229750D01*
X15985000Y-10865000D02*
X16015000Y-10895000D01*
X16015000Y-10865000D02*
X15985000Y-10895000D01*
X15985000Y-13472000D02*
X16015000Y-13502000D01*
X16015000Y-13472000D02*
X15985000Y-13502000D01*
X16025000Y-13077000D02*
X16055000Y-13107000D01*
X16055000Y-13077000D02*
X16025000Y-13107000D01*
X16035000Y-9735000D02*
X16065000Y-9765000D01*
X16065000Y-9735000D02*
X16035000Y-9765000D01*
X16055000Y-13590000D02*
X16085000Y-13620000D01*
X16085000Y-13590000D02*
X16055000Y-13620000D01*
X16075000Y-11295000D02*
X16105000Y-11325000D01*
X16105000Y-11295000D02*
X16075000Y-11325000D01*
X16082000Y-12271000D02*
X16112000Y-12301000D01*
X16112000Y-12271000D02*
X16082000Y-12301000D01*
X16113000Y-9344000D02*
X16143000Y-9374000D01*
X16143000Y-9344000D02*
X16113000Y-9374000D01*
X16125000Y-13940000D02*
X16155000Y-13970000D01*
X16155000Y-13940000D02*
X16125000Y-13970000D01*
X16139167Y-9159750D02*
X16169167Y-9189750D01*
X16169167Y-9159750D02*
X16139167Y-9189750D01*
X16161500Y-12259500D02*
X16191500Y-12289500D01*
X16191500Y-12259500D02*
X16161500Y-12289500D01*
X16179000Y-13613000D02*
X16209000Y-13643000D01*
X16209000Y-13613000D02*
X16179000Y-13643000D01*
X16219167Y-8599750D02*
X16249167Y-8629750D01*
X16249167Y-8599750D02*
X16219167Y-8629750D01*
X16235000Y-12986000D02*
X16265000Y-13016000D01*
X16265000Y-12986000D02*
X16235000Y-13016000D01*
X16245000Y-14165000D02*
X16275000Y-14195000D01*
X16275000Y-14165000D02*
X16245000Y-14195000D01*
X16251000Y-12044000D02*
X16281000Y-12074000D01*
X16281000Y-12044000D02*
X16251000Y-12074000D01*
X16290000Y-13675000D02*
X16320000Y-13705000D01*
X16320000Y-13675000D02*
X16290000Y-13705000D01*
X16299167Y-7159750D02*
X16329167Y-7189750D01*
X16329167Y-7159750D02*
X16299167Y-7189750D01*
X16299167Y-7879750D02*
X16329167Y-7909750D01*
X16329167Y-7879750D02*
X16299167Y-7909750D01*
X16315000Y-14125000D02*
X16345000Y-14155000D01*
X16345000Y-14125000D02*
X16315000Y-14155000D01*
X16339000Y-12392000D02*
X16369000Y-12422000D01*
X16369000Y-12392000D02*
X16339000Y-12422000D01*
X16345000Y-10875000D02*
X16375000Y-10905000D01*
X16375000Y-10875000D02*
X16345000Y-10905000D01*
X16345000Y-11545000D02*
X16375000Y-11575000D01*
X16375000Y-11545000D02*
X16345000Y-11575000D01*
X16360000Y-13486000D02*
X16390000Y-13516000D01*
X16390000Y-13486000D02*
X16360000Y-13516000D01*
X16365000Y-10105000D02*
X16395000Y-10135000D01*
X16395000Y-10105000D02*
X16365000Y-10135000D01*
X16373000Y-12806000D02*
X16403000Y-12836000D01*
X16403000Y-12806000D02*
X16373000Y-12836000D01*
X16391000Y-9286000D02*
X16421000Y-9316000D01*
X16421000Y-9286000D02*
X16391000Y-9316000D01*
X16395000Y-14215000D02*
X16425000Y-14245000D01*
X16425000Y-14215000D02*
X16395000Y-14245000D01*
X16406000Y-8797000D02*
X16436000Y-8827000D01*
X16436000Y-8797000D02*
X16406000Y-8827000D01*
X16449000Y-12537000D02*
X16479000Y-12567000D01*
X16479000Y-12537000D02*
X16449000Y-12567000D01*
X16457000Y-13862000D02*
X16487000Y-13892000D01*
X16487000Y-13862000D02*
X16457000Y-13892000D01*
X16460000Y-14062500D02*
X16490000Y-14092500D01*
X16490000Y-14062500D02*
X16460000Y-14092500D01*
X16475000Y-13127000D02*
X16505000Y-13157000D01*
X16505000Y-13127000D02*
X16475000Y-13157000D01*
X16493000Y-9625000D02*
X16523000Y-9655000D01*
X16523000Y-9625000D02*
X16493000Y-9655000D01*
X16515000Y-13568000D02*
X16545000Y-13598000D01*
X16545000Y-13568000D02*
X16515000Y-13598000D01*
X16538000Y-12071000D02*
X16568000Y-12101000D01*
X16568000Y-12071000D02*
X16538000Y-12101000D01*
X16539167Y-8279750D02*
X16569167Y-8309750D01*
X16569167Y-8279750D02*
X16539167Y-8309750D01*
X16555000Y-7575000D02*
X16585000Y-7605000D01*
X16585000Y-7575000D02*
X16555000Y-7605000D01*
X16601000Y-13291000D02*
X16631000Y-13321000D01*
X16631000Y-13291000D02*
X16601000Y-13321000D01*
X16607000Y-13422000D02*
X16637000Y-13452000D01*
X16637000Y-13422000D02*
X16607000Y-13452000D01*
X16608000Y-12380000D02*
X16638000Y-12410000D01*
X16638000Y-12380000D02*
X16608000Y-12410000D01*
X16619167Y-8999750D02*
X16649167Y-9029750D01*
X16649167Y-8999750D02*
X16619167Y-9029750D01*
X16619167Y-10759750D02*
X16649167Y-10789750D01*
X16649167Y-10759750D02*
X16619167Y-10789750D01*
X16622000Y-12915000D02*
X16652000Y-12945000D01*
X16652000Y-12915000D02*
X16622000Y-12945000D01*
X16625000Y-11270000D02*
X16655000Y-11300000D01*
X16655000Y-11270000D02*
X16625000Y-11300000D01*
X16643000Y-13683000D02*
X16673000Y-13713000D01*
X16673000Y-13683000D02*
X16643000Y-13713000D01*
X16645000Y-13885000D02*
X16675000Y-13915000D01*
X16675000Y-13885000D02*
X16645000Y-13915000D01*
X16695000Y-6305000D02*
X16725000Y-6335000D01*
X16725000Y-6305000D02*
X16695000Y-6335000D01*
X16704695Y-13484305D02*
X16734695Y-13514305D01*
X16734695Y-13484305D02*
X16704695Y-13514305D01*
X16715000Y-11245000D02*
X16745000Y-11275000D01*
X16745000Y-11245000D02*
X16715000Y-11275000D01*
X16715000Y-11515000D02*
X16745000Y-11545000D01*
X16745000Y-11515000D02*
X16715000Y-11545000D01*
X16719000Y-11021000D02*
X16749000Y-11051000D01*
X16749000Y-11021000D02*
X16719000Y-11051000D01*
X16720000Y-14090000D02*
X16750000Y-14120000D01*
X16750000Y-14090000D02*
X16720000Y-14120000D01*
X16725000Y-14305000D02*
X16755000Y-14335000D01*
X16755000Y-14305000D02*
X16725000Y-14335000D01*
X16750000Y-12022500D02*
X16780000Y-12052500D01*
X16780000Y-12022500D02*
X16750000Y-12052500D01*
X16770000Y-13435000D02*
X16800000Y-13465000D01*
X16800000Y-13435000D02*
X16770000Y-13465000D01*
X16816000Y-13860000D02*
X16846000Y-13890000D01*
X16846000Y-13860000D02*
X16816000Y-13890000D01*
X16841000Y-12677000D02*
X16871000Y-12707000D01*
X16871000Y-12677000D02*
X16841000Y-12707000D01*
X16844000Y-12324000D02*
X16874000Y-12354000D01*
X16874000Y-12324000D02*
X16844000Y-12354000D01*
X16845000Y-8065000D02*
X16875000Y-8095000D01*
X16875000Y-8065000D02*
X16845000Y-8095000D01*
X16850000Y-13010000D02*
X16880000Y-13040000D01*
X16880000Y-13010000D02*
X16850000Y-13040000D01*
X16855000Y-7345000D02*
X16885000Y-7375000D01*
X16885000Y-7345000D02*
X16855000Y-7375000D01*
X16859167Y-8599750D02*
X16889167Y-8629750D01*
X16889167Y-8599750D02*
X16859167Y-8629750D01*
X16865000Y-11785000D02*
X16895000Y-11815000D01*
X16895000Y-11785000D02*
X16865000Y-11815000D01*
X16875000Y-11550000D02*
X16905000Y-11580000D01*
X16905000Y-11550000D02*
X16875000Y-11580000D01*
X16885000Y-7049750D02*
X16915000Y-7079750D01*
X16915000Y-7049750D02*
X16885000Y-7079750D01*
X16893000Y-13647000D02*
X16923000Y-13677000D01*
X16923000Y-13647000D02*
X16893000Y-13677000D01*
X16909000Y-6389000D02*
X16939000Y-6419000D01*
X16939000Y-6389000D02*
X16909000Y-6419000D01*
X16939167Y-9319750D02*
X16969167Y-9349750D01*
X16969167Y-9319750D02*
X16939167Y-9349750D01*
X16943000Y-10363000D02*
X16973000Y-10393000D01*
X16973000Y-10363000D02*
X16943000Y-10393000D01*
X16965000Y-9005000D02*
X16995000Y-9035000D01*
X16995000Y-9005000D02*
X16965000Y-9035000D01*
X16966000Y-11549000D02*
X16996000Y-11579000D01*
X16996000Y-11549000D02*
X16966000Y-11579000D01*
X16970000Y-6880000D02*
X17000000Y-6910000D01*
X17000000Y-6880000D02*
X16970000Y-6910000D01*
X16975000Y-10031000D02*
X17005000Y-10061000D01*
X17005000Y-10031000D02*
X16975000Y-10061000D01*
X16975000Y-13685000D02*
X17005000Y-13715000D01*
X17005000Y-13685000D02*
X16975000Y-13715000D01*
X16976000Y-9623000D02*
X17006000Y-9653000D01*
X17006000Y-9623000D02*
X16976000Y-9653000D01*
X17004999Y-14095000D02*
X17034999Y-14125000D01*
X17034999Y-14095000D02*
X17004999Y-14125000D01*
X17010000Y-6550000D02*
X17040000Y-6580000D01*
X17040000Y-6550000D02*
X17010000Y-6580000D01*
X17013000Y-11080000D02*
X17043000Y-11110000D01*
X17043000Y-11080000D02*
X17013000Y-11110000D01*
X17042000Y-13489000D02*
X17072000Y-13519000D01*
X17072000Y-13489000D02*
X17042000Y-13519000D01*
X17060834Y-11551026D02*
X17090834Y-11581026D01*
X17090834Y-11551026D02*
X17060834Y-11581026D01*
X17075000Y-14175000D02*
X17105000Y-14205000D01*
X17105000Y-14175000D02*
X17075000Y-14205000D01*
X17116000Y-12073000D02*
X17146000Y-12103000D01*
X17146000Y-12073000D02*
X17116000Y-12103000D01*
X17125000Y-12275000D02*
X17155000Y-12305000D01*
X17155000Y-12275000D02*
X17125000Y-12305000D01*
X17143000Y-13620000D02*
X17173000Y-13650000D01*
X17173000Y-13620000D02*
X17143000Y-13650000D01*
X17145000Y-11777500D02*
X17175000Y-11807500D01*
X17175000Y-11777500D02*
X17145000Y-11807500D01*
X17147000Y-13337000D02*
X17177000Y-13367000D01*
X17177000Y-13337000D02*
X17147000Y-13367000D01*
X17149000Y-12598000D02*
X17179000Y-12628000D01*
X17179000Y-12598000D02*
X17149000Y-12628000D01*
X17155000Y-6545000D02*
X17185000Y-6575000D01*
X17185000Y-6545000D02*
X17155000Y-6575000D01*
X17155000Y-6835000D02*
X17185000Y-6865000D01*
X17185000Y-6835000D02*
X17155000Y-6865000D01*
X17215000Y-8635000D02*
X17245000Y-8665000D01*
X17245000Y-8635000D02*
X17215000Y-8665000D01*
X17222500Y-12040000D02*
X17252500Y-12070000D01*
X17252500Y-12040000D02*
X17222500Y-12070000D01*
X17224000Y-10773000D02*
X17254000Y-10803000D01*
X17254000Y-10773000D02*
X17224000Y-10803000D01*
X17230000Y-11277000D02*
X17260000Y-11307000D01*
X17260000Y-11277000D02*
X17230000Y-11307000D01*
X17230000Y-11530000D02*
X17260000Y-11560000D01*
X17260000Y-11530000D02*
X17230000Y-11560000D01*
X17242000Y-13862000D02*
X17272000Y-13892000D01*
X17272000Y-13862000D02*
X17242000Y-13892000D01*
X17259167Y-8999750D02*
X17289167Y-9029750D01*
X17289167Y-8999750D02*
X17259167Y-9029750D01*
X17295000Y-6275000D02*
X17325000Y-6305000D01*
X17325000Y-6275000D02*
X17295000Y-6305000D01*
X17295000Y-6485000D02*
X17325000Y-6515000D01*
X17325000Y-6485000D02*
X17295000Y-6515000D01*
X17306000Y-13142000D02*
X17336000Y-13172000D01*
X17336000Y-13142000D02*
X17306000Y-13172000D01*
X17311000Y-9518999D02*
X17341000Y-9548999D01*
X17341000Y-9518999D02*
X17311000Y-9548999D01*
X17318000Y-12451000D02*
X17348000Y-12481000D01*
X17348000Y-12451000D02*
X17318000Y-12481000D01*
X17319000Y-11018000D02*
X17349000Y-11048000D01*
X17349000Y-11018000D02*
X17319000Y-11048000D01*
X17338000Y-14379000D02*
X17368000Y-14409000D01*
X17368000Y-14379000D02*
X17338000Y-14409000D01*
X17339000Y-14045000D02*
X17369000Y-14075000D01*
X17369000Y-14045000D02*
X17339000Y-14075000D01*
X17339167Y-5879750D02*
X17369167Y-5909750D01*
X17369167Y-5879750D02*
X17339167Y-5909750D01*
X17340000Y-6880000D02*
X17370000Y-6910000D01*
X17370000Y-6880000D02*
X17340000Y-6910000D01*
X17345000Y-7815000D02*
X17375000Y-7845000D01*
X17375000Y-7815000D02*
X17345000Y-7845000D01*
X17358000Y-13426000D02*
X17388000Y-13456000D01*
X17388000Y-13426000D02*
X17358000Y-13456000D01*
X17370000Y-12813000D02*
X17400000Y-12843000D01*
X17400000Y-12813000D02*
X17370000Y-12843000D01*
X17375000Y-7105000D02*
X17405000Y-7135000D01*
X17405000Y-7105000D02*
X17375000Y-7135000D01*
X17381000Y-13625000D02*
X17411000Y-13655000D01*
X17411000Y-13625000D02*
X17381000Y-13655000D01*
X17399071Y-6588069D02*
X17429071Y-6618069D01*
X17429071Y-6588069D02*
X17399071Y-6618069D01*
X17405000Y-6385000D02*
X17435000Y-6415000D01*
X17435000Y-6385000D02*
X17405000Y-6415000D01*
X17409000Y-13254000D02*
X17439000Y-13284000D01*
X17439000Y-13254000D02*
X17409000Y-13284000D01*
X17427000Y-13895000D02*
X17457000Y-13925000D01*
X17457000Y-13895000D02*
X17427000Y-13925000D01*
X17533000Y-13680000D02*
X17563000Y-13710000D01*
X17563000Y-13680000D02*
X17533000Y-13710000D01*
X17556000Y-7481000D02*
X17586000Y-7511000D01*
X17586000Y-7481000D02*
X17556000Y-7511000D01*
X17582000Y-13027000D02*
X17612000Y-13057000D01*
X17612000Y-13027000D02*
X17582000Y-13057000D01*
X17585000Y-14165000D02*
X17615000Y-14195000D01*
X17615000Y-14165000D02*
X17585000Y-14195000D01*
X17619000Y-13650000D02*
X17649000Y-13680000D01*
X17649000Y-13650000D02*
X17619000Y-13680000D01*
X17636000Y-13098000D02*
X17666000Y-13128000D01*
X17666000Y-13098000D02*
X17636000Y-13128000D01*
X17659167Y-6445000D02*
X17689167Y-6475000D01*
X17689167Y-6445000D02*
X17659167Y-6475000D01*
X17659167Y-9879750D02*
X17689167Y-9909750D01*
X17689167Y-9879750D02*
X17659167Y-9909750D01*
X17659167Y-10519750D02*
X17689167Y-10549750D01*
X17689167Y-10519750D02*
X17659167Y-10549750D01*
X17659167Y-11159750D02*
X17689167Y-11189750D01*
X17689167Y-11159750D02*
X17659167Y-11189750D01*
X17659167Y-11799750D02*
X17689167Y-11829750D01*
X17689167Y-11799750D02*
X17659167Y-11829750D01*
X17682500Y-14076500D02*
X17712500Y-14106500D01*
X17712500Y-14076500D02*
X17682500Y-14106500D01*
X17716000Y-13325000D02*
X17746000Y-13355000D01*
X17746000Y-13325000D02*
X17716000Y-13355000D01*
X17723000Y-12096000D02*
X17753000Y-12126000D01*
X17753000Y-12096000D02*
X17723000Y-12126000D01*
X17735000Y-6905000D02*
X17765000Y-6935000D01*
X17765000Y-6905000D02*
X17735000Y-6935000D01*
X17739167Y-8759750D02*
X17769167Y-8789750D01*
X17769167Y-8759750D02*
X17739167Y-8789750D01*
X17739167Y-12679750D02*
X17769167Y-12709750D01*
X17769167Y-12679750D02*
X17739167Y-12709750D01*
X17745000Y-14165000D02*
X17775000Y-14195000D01*
X17775000Y-14165000D02*
X17745000Y-14195000D01*
X17800000Y-13560000D02*
X17830000Y-13590000D01*
X17830000Y-13560000D02*
X17800000Y-13590000D01*
X17804000Y-13180000D02*
X17834000Y-13210000D01*
X17834000Y-13180000D02*
X17804000Y-13210000D01*
X17899167Y-7319750D02*
X17929167Y-7349750D01*
X17929167Y-7319750D02*
X17899167Y-7349750D01*
X17899167Y-7959750D02*
X17929167Y-7989750D01*
X17929167Y-7959750D02*
X17899167Y-7989750D01*
X17899167Y-9239750D02*
X17929167Y-9269750D01*
X17929167Y-9239750D02*
X17899167Y-9269750D01*
X17905000Y-5865000D02*
X17935000Y-5895000D01*
X17935000Y-5865000D02*
X17905000Y-5895000D01*
X17911000Y-13059000D02*
X17941000Y-13089000D01*
X17941000Y-13059000D02*
X17911000Y-13089000D01*
X17915000Y-14145000D02*
X17945000Y-14175000D01*
X17945000Y-14145000D02*
X17915000Y-14175000D01*
X17919000Y-6680000D02*
X17949000Y-6710000D01*
X17949000Y-6680000D02*
X17919000Y-6710000D01*
X13850400Y-10009100D02*
G75*
G03*
X13850400Y-10009100I-20000J0D01*
G01*
X15720000Y-10076000D02*
G75*
G03*
X15720000Y-10076000I-20000J0D01*
G01*
X17008000Y-12207000D02*
G75*
G03*
X17008000Y-12207000I-20000J0D01*
G01*
X17520000Y-9735000D02*
G75*
G03*
X17520000Y-9735000I-20000J0D01*
G01*
X17545577Y-13520251D02*
G75*
G03*
X17545577Y-13520251I-20000J0D01*
G01*
X13930000Y-10517500D02*
X13930000Y-10567500D01*
X13905000Y-10542500D02*
X13955000Y-10542500D01*
X13965000Y-10527500D02*
X13895000Y-10527500D01*
X13965000Y-10557500D02*
X13895000Y-10557500D01*
X13895000Y-10527500D02*
G75*
G03*
X13895000Y-10557500I0J-15000D01*
G01*
X13965000Y-10557500D02*
G75*
G03*
X13965000Y-10527500I0J15000D01*
G01*
X14210000Y-10302500D02*
X14210000Y-10352500D01*
X14185000Y-10327500D02*
X14235000Y-10327500D01*
X14265000Y-10312500D02*
X14155000Y-10312500D01*
X14265000Y-10342500D02*
X14155000Y-10342500D01*
X14155000Y-10312500D02*
G75*
G03*
X14155000Y-10342500I0J-15000D01*
G01*
X14265000Y-10342500D02*
G75*
G03*
X14265000Y-10312500I0J15000D01*
G01*
X14490000Y-10517500D02*
X14490000Y-10567500D01*
X14465000Y-10542500D02*
X14515000Y-10542500D01*
X14525000Y-10527500D02*
X14455000Y-10527500D01*
X14525000Y-10557500D02*
X14455000Y-10557500D01*
X14455000Y-10527500D02*
G75*
G03*
X14455000Y-10557500I0J-15000D01*
G01*
X14525000Y-10557500D02*
G75*
G03*
X14525000Y-10527500I0J15000D01*
G01*
X14724320Y-9871820D02*
X14724320Y-9808180D01*
X14660680Y-9808180D01*
X14660680Y-9871820D01*
X14724320Y-9871820D01*
X14974320Y-9871820D02*
X14974320Y-9808180D01*
X14910680Y-9808180D01*
X14910680Y-9871820D01*
X14974320Y-9871820D01*
X15174320Y-9871820D02*
X15174320Y-9808180D01*
X15110680Y-9808180D01*
X15110680Y-9871820D01*
X15174320Y-9871820D01*
X15424320Y-9871820D02*
X15424320Y-9808180D01*
X15360680Y-9808180D01*
X15360680Y-9871820D01*
X15424320Y-9871820D01*
X14916000Y-10240000D02*
X14966000Y-10190000D01*
X14916000Y-10140000D01*
X14866000Y-10190000D01*
X14916000Y-10240000D01*
X15170000Y-10240000D02*
X15220000Y-10190000D01*
X15170000Y-10140000D01*
X15120000Y-10190000D01*
X15170000Y-10240000D01*
X14948500Y-8790000D02*
X14998500Y-8740000D01*
X14948500Y-8690000D01*
X14898500Y-8740000D01*
X14948500Y-8790000D01*
X15202500Y-8790000D02*
X15252500Y-8740000D01*
X15202500Y-8690000D01*
X15152500Y-8740000D01*
X15202500Y-8790000D01*
X15456500Y-8790000D02*
X15506500Y-8740000D01*
X15456500Y-8690000D01*
X15406500Y-8740000D01*
X15456500Y-8790000D01*
X13933500Y-8098500D02*
X13983500Y-8048500D01*
X13933500Y-7998500D01*
X13883500Y-8048500D01*
X13933500Y-8098500D01*
X13933500Y-8352500D02*
X13983500Y-8302500D01*
X13933500Y-8252500D01*
X13883500Y-8302500D01*
X13933500Y-8352500D01*
X14187500Y-8098500D02*
X14237500Y-8048500D01*
X14187500Y-7998500D01*
X14137500Y-8048500D01*
X14187500Y-8098500D01*
X14187500Y-8352500D02*
X14237500Y-8302500D01*
X14187500Y-8252500D01*
X14137500Y-8302500D01*
X14187500Y-8352500D01*
X14441500Y-8098500D02*
X14491500Y-8048500D01*
X14441500Y-7998500D01*
X14391500Y-8048500D01*
X14441500Y-8098500D01*
X14441500Y-8352500D02*
X14491500Y-8302500D01*
X14441500Y-8252500D01*
X14391500Y-8302500D01*
X14441500Y-8352500D01*
X14695500Y-8098500D02*
X14745500Y-8048500D01*
X14695500Y-7998500D01*
X14645500Y-8048500D01*
X14695500Y-8098500D01*
X14695500Y-8352500D02*
X14745500Y-8302500D01*
X14695500Y-8252500D01*
X14645500Y-8302500D01*
X14695500Y-8352500D01*
X14949500Y-8098500D02*
X14999500Y-8048500D01*
X14949500Y-7998500D01*
X14899500Y-8048500D01*
X14949500Y-8098500D01*
X14949500Y-8352500D02*
X14999500Y-8302500D01*
X14949500Y-8252500D01*
X14899500Y-8302500D01*
X14949500Y-8352500D01*
X15203500Y-8098500D02*
X15253500Y-8048500D01*
X15203500Y-7998500D01*
X15153500Y-8048500D01*
X15203500Y-8098500D01*
X15203500Y-8352500D02*
X15253500Y-8302500D01*
X15203500Y-8252500D01*
X15153500Y-8302500D01*
X15203500Y-8352500D01*
X15457500Y-8098500D02*
X15507500Y-8048500D01*
X15457500Y-7998500D01*
X15407500Y-8048500D01*
X15457500Y-8098500D01*
X15457500Y-8352500D02*
X15507500Y-8302500D01*
X15457500Y-8252500D01*
X15407500Y-8302500D01*
X15457500Y-8352500D01*
X14120000Y-11180000D02*
X14170000Y-11130000D01*
X14120000Y-11080000D01*
X14070000Y-11130000D01*
X14120000Y-11180000D01*
X14374000Y-11180000D02*
X14424000Y-11130000D01*
X14374000Y-11080000D01*
X14324000Y-11130000D01*
X14374000Y-11180000D01*
X13795000Y-8810000D02*
X13897000Y-8912000D01*
X13897000Y-8810000D02*
X13795000Y-8912000D01*
X13897000Y-8861000D02*
G75*
G03*
X13897000Y-8861000I-51000J0D01*
G01*
X13795000Y-9110000D02*
X13897000Y-9212000D01*
X13897000Y-9110000D02*
X13795000Y-9212000D01*
X13897000Y-9161000D02*
G75*
G03*
X13897000Y-9161000I-51000J0D01*
G01*
X14320500Y-9715000D02*
X14450500Y-9845000D01*
X14450500Y-9715000D02*
X14320500Y-9845000D01*
X14385500Y-9715000D02*
X14385500Y-9845000D01*
X14320500Y-9780000D02*
X14450500Y-9780000D01*
X14440500Y-9830000D02*
X14440500Y-9730000D01*
X14330500Y-9830000D02*
X14330500Y-9730000D01*
X14440500Y-9730000D02*
G75*
G03*
X14330500Y-9730000I-55000J0D01*
G01*
X14330500Y-9830000D02*
G75*
G03*
X14440500Y-9830000I55000J0D01*
G01*
X14977500Y-9297000D02*
X15107500Y-9427000D01*
X15107500Y-9297000D02*
X14977500Y-9427000D01*
X15042500Y-9297000D02*
X15042500Y-9427000D01*
X14977500Y-9362000D02*
X15107500Y-9362000D01*
X14992500Y-9417000D02*
X15092500Y-9417000D01*
X14992500Y-9307000D02*
X15092500Y-9307000D01*
X15092500Y-9417000D02*
G75*
G03*
X15092500Y-9307000I0J55000D01*
G01*
X14992500Y-9307000D02*
G75*
G03*
X14992500Y-9417000I0J-55000D01*
G01*
X15634500Y-9715000D02*
X15764500Y-9845000D01*
X15764500Y-9715000D02*
X15634500Y-9845000D01*
X15699500Y-9715000D02*
X15699500Y-9845000D01*
X15634500Y-9780000D02*
X15764500Y-9780000D01*
X15644500Y-9730000D02*
X15644500Y-9830000D01*
X15754500Y-9730000D02*
X15754500Y-9830000D01*
X15644500Y-9830000D02*
G75*
G03*
X15754500Y-9830000I55000J0D01*
G01*
X15754500Y-9730000D02*
G75*
G03*
X15644500Y-9730000I-55000J0D01*
G01*
X12374000Y-5983000D02*
X12506000Y-6115000D01*
X12506000Y-5983000D02*
X12374000Y-6115000D01*
X12486669Y-6095669D02*
X12486669Y-6002330D01*
X12393330Y-6002330D01*
X12393330Y-6095669D01*
X12486669Y-6095669D01*
X12374000Y-13205000D02*
X12506000Y-13337000D01*
X12506000Y-13205000D02*
X12374000Y-13337000D01*
X12486669Y-13317669D02*
X12486669Y-13224330D01*
X12393330Y-13224330D01*
X12393330Y-13317669D01*
X12486669Y-13317669D01*
X16894000Y-5983000D02*
X17026000Y-6115000D01*
X17026000Y-5983000D02*
X16894000Y-6115000D01*
X17006670Y-6095669D02*
X17006670Y-6002330D01*
X16913331Y-6002330D01*
X16913331Y-6095669D01*
X17006670Y-6095669D01*
X16894000Y-13205000D02*
X17026000Y-13337000D01*
X17026000Y-13205000D02*
X16894000Y-13337000D01*
X17006670Y-13317669D02*
X17006670Y-13224330D01*
X16913331Y-13224330D01*
X16913331Y-13317669D01*
X17006670Y-13317669D01*
X17095000Y-6635000D02*
X17245000Y-6785000D01*
X17245000Y-6635000D02*
X17095000Y-6785000D01*
X17170000Y-6785000D02*
X17245000Y-6710000D01*
X17170000Y-6635000D01*
X17095000Y-6710000D01*
X17170000Y-6785000D01*
X15930000Y-11210000D02*
X15930000Y-11410000D01*
X15830000Y-11310000D02*
X16030000Y-11310000D01*
X16030000Y-11310000D02*
G75*
G03*
X16030000Y-11310000I-100000J0D01*
G01*
X14220000Y-11500000D02*
X14220000Y-11700000D01*
X14120000Y-11600000D02*
X14320000Y-11600000D01*
X14320000Y-11600000D02*
G75*
G03*
X14320000Y-11600000I-100000J0D01*
G01*
X14898567Y-13046567D02*
X14898567Y-12834433D01*
X14686433Y-12834433D01*
X14686433Y-13046567D01*
X14898567Y-13046567D01*
X14942500Y-12940500D02*
G75*
G03*
X14942500Y-12940500I-150000J0D01*
G01*
D12*
X11683928Y-14918214D02*
X11683928Y-14618214D01*
X11755357Y-14618214D01*
X11798214Y-14632500D01*
X11826786Y-14661071D01*
X11841071Y-14689643D01*
X11855357Y-14746786D01*
X11855357Y-14789643D01*
X11841071Y-14846786D01*
X11826786Y-14875357D01*
X11798214Y-14903929D01*
X11755357Y-14918214D01*
X11683928Y-14918214D01*
X11983928Y-14918214D02*
X11983928Y-14718214D01*
X11983928Y-14775357D02*
X11998214Y-14746786D01*
X12012500Y-14732500D01*
X12041071Y-14718214D01*
X12069643Y-14718214D01*
X12169643Y-14918214D02*
X12169643Y-14718214D01*
X12169643Y-14618214D02*
X12155357Y-14632500D01*
X12169643Y-14646786D01*
X12183928Y-14632500D01*
X12169643Y-14618214D01*
X12169643Y-14646786D01*
X12355357Y-14918214D02*
X12326786Y-14903929D01*
X12312500Y-14875357D01*
X12312500Y-14618214D01*
X12512500Y-14918214D02*
X12483928Y-14903929D01*
X12469643Y-14875357D01*
X12469643Y-14618214D01*
X12855357Y-14918214D02*
X12855357Y-14618214D01*
X12955357Y-14832500D01*
X13055357Y-14618214D01*
X13055357Y-14918214D01*
X13326786Y-14918214D02*
X13326786Y-14761071D01*
X13312500Y-14732500D01*
X13283928Y-14718214D01*
X13226786Y-14718214D01*
X13198214Y-14732500D01*
X13326786Y-14903929D02*
X13298214Y-14918214D01*
X13226786Y-14918214D01*
X13198214Y-14903929D01*
X13183928Y-14875357D01*
X13183928Y-14846786D01*
X13198214Y-14818214D01*
X13226786Y-14803929D01*
X13298214Y-14803929D01*
X13326786Y-14789643D01*
X13469643Y-14718214D02*
X13469643Y-15018214D01*
X13469643Y-14732500D02*
X13498214Y-14718214D01*
X13555357Y-14718214D01*
X13583928Y-14732500D01*
X13598214Y-14746786D01*
X13612500Y-14775357D01*
X13612500Y-14861071D01*
X13598214Y-14889643D01*
X13583928Y-14903929D01*
X13555357Y-14918214D01*
X13498214Y-14918214D01*
X13469643Y-14903929D01*
X13741071Y-14889643D02*
X13755357Y-14903929D01*
X13741071Y-14918214D01*
X13726786Y-14903929D01*
X13741071Y-14889643D01*
X13741071Y-14918214D01*
X13741071Y-14732500D02*
X13755357Y-14746786D01*
X13741071Y-14761071D01*
X13726786Y-14746786D01*
X13741071Y-14732500D01*
X13741071Y-14761071D01*
X11367500Y-15397500D02*
X11397500Y-15427500D01*
X11397500Y-15397500D02*
X11367500Y-15427500D01*
X11741071Y-15248214D02*
X11769643Y-15248214D01*
X11798214Y-15262500D01*
X11812500Y-15276786D01*
X11826786Y-15305357D01*
X11841071Y-15362500D01*
X11841071Y-15433929D01*
X11826786Y-15491071D01*
X11812500Y-15519643D01*
X11798214Y-15533929D01*
X11769643Y-15548214D01*
X11741071Y-15548214D01*
X11712500Y-15533929D01*
X11698214Y-15519643D01*
X11683928Y-15491071D01*
X11669643Y-15433929D01*
X11669643Y-15362500D01*
X11683928Y-15305357D01*
X11698214Y-15276786D01*
X11712500Y-15262500D01*
X11741071Y-15248214D01*
X11969643Y-15519643D02*
X11983928Y-15533929D01*
X11969643Y-15548214D01*
X11955357Y-15533929D01*
X11969643Y-15519643D01*
X11969643Y-15548214D01*
X12083928Y-15248214D02*
X12269643Y-15248214D01*
X12169643Y-15362500D01*
X12212500Y-15362500D01*
X12241071Y-15376786D01*
X12255357Y-15391071D01*
X12269643Y-15419643D01*
X12269643Y-15491071D01*
X12255357Y-15519643D01*
X12241071Y-15533929D01*
X12212500Y-15548214D01*
X12126786Y-15548214D01*
X12098214Y-15533929D01*
X12083928Y-15519643D01*
X12455357Y-15248214D02*
X12483928Y-15248214D01*
X12512500Y-15262500D01*
X12526786Y-15276786D01*
X12541071Y-15305357D01*
X12555357Y-15362500D01*
X12555357Y-15433929D01*
X12541071Y-15491071D01*
X12526786Y-15519643D01*
X12512500Y-15533929D01*
X12483928Y-15548214D01*
X12455357Y-15548214D01*
X12426786Y-15533929D01*
X12412500Y-15519643D01*
X12398214Y-15491071D01*
X12383928Y-15433929D01*
X12383928Y-15362500D01*
X12398214Y-15305357D01*
X12412500Y-15276786D01*
X12426786Y-15262500D01*
X12455357Y-15248214D01*
X12683928Y-15548214D02*
X12683928Y-15348214D01*
X12683928Y-15376786D02*
X12698214Y-15362500D01*
X12726786Y-15348214D01*
X12769643Y-15348214D01*
X12798214Y-15362500D01*
X12812500Y-15391071D01*
X12812500Y-15548214D01*
X12812500Y-15391071D02*
X12826786Y-15362500D01*
X12855357Y-15348214D01*
X12898214Y-15348214D01*
X12926786Y-15362500D01*
X12941071Y-15391071D01*
X12941071Y-15548214D01*
X13083928Y-15548214D02*
X13083928Y-15348214D01*
X13083928Y-15376786D02*
X13098214Y-15362500D01*
X13126786Y-15348214D01*
X13169643Y-15348214D01*
X13198214Y-15362500D01*
X13212500Y-15391071D01*
X13212500Y-15548214D01*
X13212500Y-15391071D02*
X13226786Y-15362500D01*
X13255357Y-15348214D01*
X13298214Y-15348214D01*
X13326786Y-15362500D01*
X13341071Y-15391071D01*
X13341071Y-15548214D01*
X13926786Y-15233929D02*
X13669643Y-15619643D01*
X14312500Y-15248214D02*
X14341071Y-15248214D01*
X14369643Y-15262500D01*
X14383928Y-15276786D01*
X14398214Y-15305357D01*
X14412500Y-15362500D01*
X14412500Y-15433929D01*
X14398214Y-15491071D01*
X14383928Y-15519643D01*
X14369643Y-15533929D01*
X14341071Y-15548214D01*
X14312500Y-15548214D01*
X14283928Y-15533929D01*
X14269643Y-15519643D01*
X14255357Y-15491071D01*
X14241071Y-15433929D01*
X14241071Y-15362500D01*
X14255357Y-15305357D01*
X14269643Y-15276786D01*
X14283928Y-15262500D01*
X14312500Y-15248214D01*
X14541071Y-15519643D02*
X14555357Y-15533929D01*
X14541071Y-15548214D01*
X14526786Y-15533929D01*
X14541071Y-15519643D01*
X14541071Y-15548214D01*
X14741071Y-15248214D02*
X14769643Y-15248214D01*
X14798214Y-15262500D01*
X14812500Y-15276786D01*
X14826786Y-15305357D01*
X14841071Y-15362500D01*
X14841071Y-15433929D01*
X14826786Y-15491071D01*
X14812500Y-15519643D01*
X14798214Y-15533929D01*
X14769643Y-15548214D01*
X14741071Y-15548214D01*
X14712500Y-15533929D01*
X14698214Y-15519643D01*
X14683928Y-15491071D01*
X14669643Y-15433929D01*
X14669643Y-15362500D01*
X14683928Y-15305357D01*
X14698214Y-15276786D01*
X14712500Y-15262500D01*
X14741071Y-15248214D01*
X15126786Y-15548214D02*
X14955357Y-15548214D01*
X15041071Y-15548214D02*
X15041071Y-15248214D01*
X15012500Y-15291071D01*
X14983928Y-15319643D01*
X14955357Y-15333929D01*
X15241071Y-15276786D02*
X15255357Y-15262500D01*
X15283928Y-15248214D01*
X15355357Y-15248214D01*
X15383928Y-15262500D01*
X15398214Y-15276786D01*
X15412500Y-15305357D01*
X15412500Y-15333929D01*
X15398214Y-15376786D01*
X15226786Y-15548214D01*
X15412500Y-15548214D01*
X15526786Y-15248214D02*
X15526786Y-15305357D01*
X15641071Y-15248214D02*
X15641071Y-15305357D01*
X16083928Y-15662500D02*
X16069643Y-15648214D01*
X16041071Y-15605357D01*
X16026786Y-15576786D01*
X16012500Y-15533929D01*
X15998214Y-15462500D01*
X15998214Y-15405357D01*
X16012500Y-15333929D01*
X16026786Y-15291071D01*
X16041071Y-15262500D01*
X16069643Y-15219643D01*
X16083928Y-15205357D01*
X16326786Y-15348214D02*
X16326786Y-15548214D01*
X16255357Y-15233929D02*
X16183928Y-15448214D01*
X16369643Y-15448214D01*
X16455357Y-15248214D02*
X16641071Y-15248214D01*
X16541071Y-15362500D01*
X16583928Y-15362500D01*
X16612500Y-15376786D01*
X16626786Y-15391071D01*
X16641071Y-15419643D01*
X16641071Y-15491071D01*
X16626786Y-15519643D01*
X16612500Y-15533929D01*
X16583928Y-15548214D01*
X16498214Y-15548214D01*
X16469643Y-15533929D01*
X16455357Y-15519643D01*
X16741071Y-15248214D02*
X16941071Y-15248214D01*
X16812500Y-15548214D01*
X17283928Y-15548214D02*
X17283928Y-15248214D01*
X17412500Y-15548214D02*
X17412500Y-15391071D01*
X17398214Y-15362500D01*
X17369643Y-15348214D01*
X17326786Y-15348214D01*
X17298214Y-15362500D01*
X17283928Y-15376786D01*
X17598214Y-15548214D02*
X17569643Y-15533929D01*
X17555357Y-15519643D01*
X17541071Y-15491071D01*
X17541071Y-15405357D01*
X17555357Y-15376786D01*
X17569643Y-15362500D01*
X17598214Y-15348214D01*
X17641071Y-15348214D01*
X17669643Y-15362500D01*
X17683928Y-15376786D01*
X17698214Y-15405357D01*
X17698214Y-15491071D01*
X17683928Y-15519643D01*
X17669643Y-15533929D01*
X17641071Y-15548214D01*
X17598214Y-15548214D01*
X17869643Y-15548214D02*
X17841071Y-15533929D01*
X17826786Y-15505357D01*
X17826786Y-15248214D01*
X18098214Y-15533929D02*
X18069643Y-15548214D01*
X18012500Y-15548214D01*
X17983928Y-15533929D01*
X17969643Y-15505357D01*
X17969643Y-15391071D01*
X17983928Y-15362500D01*
X18012500Y-15348214D01*
X18069643Y-15348214D01*
X18098214Y-15362500D01*
X18112500Y-15391071D01*
X18112500Y-15419643D01*
X17969643Y-15448214D01*
X18226786Y-15533929D02*
X18255357Y-15548214D01*
X18312500Y-15548214D01*
X18341071Y-15533929D01*
X18355357Y-15505357D01*
X18355357Y-15491071D01*
X18341071Y-15462500D01*
X18312500Y-15448214D01*
X18269643Y-15448214D01*
X18241071Y-15433929D01*
X18226786Y-15405357D01*
X18226786Y-15391071D01*
X18241071Y-15362500D01*
X18269643Y-15348214D01*
X18312500Y-15348214D01*
X18341071Y-15362500D01*
X18455357Y-15662500D02*
X18469643Y-15648214D01*
X18498214Y-15605357D01*
X18512500Y-15576786D01*
X18526786Y-15533929D01*
X18541071Y-15462500D01*
X18541071Y-15405357D01*
X18526786Y-15333929D01*
X18512500Y-15291071D01*
X18498214Y-15262500D01*
X18469643Y-15219643D01*
X18455357Y-15205357D01*
X11397500Y-15808500D02*
G75*
G03*
X11397500Y-15808500I-20000J0D01*
G01*
X11741071Y-15644214D02*
X11769643Y-15644214D01*
X11798214Y-15658500D01*
X11812500Y-15672786D01*
X11826786Y-15701357D01*
X11841071Y-15758500D01*
X11841071Y-15829929D01*
X11826786Y-15887071D01*
X11812500Y-15915643D01*
X11798214Y-15929929D01*
X11769643Y-15944214D01*
X11741071Y-15944214D01*
X11712500Y-15929929D01*
X11698214Y-15915643D01*
X11683928Y-15887071D01*
X11669643Y-15829929D01*
X11669643Y-15758500D01*
X11683928Y-15701357D01*
X11698214Y-15672786D01*
X11712500Y-15658500D01*
X11741071Y-15644214D01*
X11969643Y-15915643D02*
X11983928Y-15929929D01*
X11969643Y-15944214D01*
X11955357Y-15929929D01*
X11969643Y-15915643D01*
X11969643Y-15944214D01*
X12241071Y-15744214D02*
X12241071Y-15944214D01*
X12169643Y-15629929D02*
X12098214Y-15844214D01*
X12283928Y-15844214D01*
X12455357Y-15644214D02*
X12483928Y-15644214D01*
X12512500Y-15658500D01*
X12526786Y-15672786D01*
X12541071Y-15701357D01*
X12555357Y-15758500D01*
X12555357Y-15829929D01*
X12541071Y-15887071D01*
X12526786Y-15915643D01*
X12512500Y-15929929D01*
X12483928Y-15944214D01*
X12455357Y-15944214D01*
X12426786Y-15929929D01*
X12412500Y-15915643D01*
X12398214Y-15887071D01*
X12383928Y-15829929D01*
X12383928Y-15758500D01*
X12398214Y-15701357D01*
X12412500Y-15672786D01*
X12426786Y-15658500D01*
X12455357Y-15644214D01*
X12683928Y-15944214D02*
X12683928Y-15744214D01*
X12683928Y-15772786D02*
X12698214Y-15758500D01*
X12726786Y-15744214D01*
X12769643Y-15744214D01*
X12798214Y-15758500D01*
X12812500Y-15787071D01*
X12812500Y-15944214D01*
X12812500Y-15787071D02*
X12826786Y-15758500D01*
X12855357Y-15744214D01*
X12898214Y-15744214D01*
X12926786Y-15758500D01*
X12941071Y-15787071D01*
X12941071Y-15944214D01*
X13083928Y-15944214D02*
X13083928Y-15744214D01*
X13083928Y-15772786D02*
X13098214Y-15758500D01*
X13126786Y-15744214D01*
X13169643Y-15744214D01*
X13198214Y-15758500D01*
X13212500Y-15787071D01*
X13212500Y-15944214D01*
X13212500Y-15787071D02*
X13226786Y-15758500D01*
X13255357Y-15744214D01*
X13298214Y-15744214D01*
X13326786Y-15758500D01*
X13341071Y-15787071D01*
X13341071Y-15944214D01*
X13926786Y-15629929D02*
X13669643Y-16015643D01*
X14312500Y-15644214D02*
X14341071Y-15644214D01*
X14369643Y-15658500D01*
X14383928Y-15672786D01*
X14398214Y-15701357D01*
X14412500Y-15758500D01*
X14412500Y-15829929D01*
X14398214Y-15887071D01*
X14383928Y-15915643D01*
X14369643Y-15929929D01*
X14341071Y-15944214D01*
X14312500Y-15944214D01*
X14283928Y-15929929D01*
X14269643Y-15915643D01*
X14255357Y-15887071D01*
X14241071Y-15829929D01*
X14241071Y-15758500D01*
X14255357Y-15701357D01*
X14269643Y-15672786D01*
X14283928Y-15658500D01*
X14312500Y-15644214D01*
X14541071Y-15915643D02*
X14555357Y-15929929D01*
X14541071Y-15944214D01*
X14526786Y-15929929D01*
X14541071Y-15915643D01*
X14541071Y-15944214D01*
X14741071Y-15644214D02*
X14769643Y-15644214D01*
X14798214Y-15658500D01*
X14812500Y-15672786D01*
X14826786Y-15701357D01*
X14841071Y-15758500D01*
X14841071Y-15829929D01*
X14826786Y-15887071D01*
X14812500Y-15915643D01*
X14798214Y-15929929D01*
X14769643Y-15944214D01*
X14741071Y-15944214D01*
X14712500Y-15929929D01*
X14698214Y-15915643D01*
X14683928Y-15887071D01*
X14669643Y-15829929D01*
X14669643Y-15758500D01*
X14683928Y-15701357D01*
X14698214Y-15672786D01*
X14712500Y-15658500D01*
X14741071Y-15644214D01*
X15126786Y-15944214D02*
X14955357Y-15944214D01*
X15041071Y-15944214D02*
X15041071Y-15644214D01*
X15012500Y-15687071D01*
X14983928Y-15715643D01*
X14955357Y-15729929D01*
X15383928Y-15644214D02*
X15326786Y-15644214D01*
X15298214Y-15658500D01*
X15283928Y-15672786D01*
X15255357Y-15715643D01*
X15241071Y-15772786D01*
X15241071Y-15887071D01*
X15255357Y-15915643D01*
X15269643Y-15929929D01*
X15298214Y-15944214D01*
X15355357Y-15944214D01*
X15383928Y-15929929D01*
X15398214Y-15915643D01*
X15412500Y-15887071D01*
X15412500Y-15815643D01*
X15398214Y-15787071D01*
X15383928Y-15772786D01*
X15355357Y-15758500D01*
X15298214Y-15758500D01*
X15269643Y-15772786D01*
X15255357Y-15787071D01*
X15241071Y-15815643D01*
X15526786Y-15644214D02*
X15526786Y-15701357D01*
X15641071Y-15644214D02*
X15641071Y-15701357D01*
X16083928Y-16058500D02*
X16069643Y-16044214D01*
X16041071Y-16001357D01*
X16026786Y-15972786D01*
X16012500Y-15929929D01*
X15998214Y-15858500D01*
X15998214Y-15801357D01*
X16012500Y-15729929D01*
X16026786Y-15687071D01*
X16041071Y-15658500D01*
X16069643Y-15615643D01*
X16083928Y-15601357D01*
X16341071Y-15644214D02*
X16198214Y-15644214D01*
X16183928Y-15787071D01*
X16198214Y-15772786D01*
X16226786Y-15758500D01*
X16298214Y-15758500D01*
X16326786Y-15772786D01*
X16341071Y-15787071D01*
X16355357Y-15815643D01*
X16355357Y-15887071D01*
X16341071Y-15915643D01*
X16326786Y-15929929D01*
X16298214Y-15944214D01*
X16226786Y-15944214D01*
X16198214Y-15929929D01*
X16183928Y-15915643D01*
X16712500Y-15944214D02*
X16712500Y-15644214D01*
X16841071Y-15944214D02*
X16841071Y-15787071D01*
X16826786Y-15758500D01*
X16798214Y-15744214D01*
X16755357Y-15744214D01*
X16726786Y-15758500D01*
X16712500Y-15772786D01*
X17026786Y-15944214D02*
X16998214Y-15929929D01*
X16983928Y-15915643D01*
X16969643Y-15887071D01*
X16969643Y-15801357D01*
X16983928Y-15772786D01*
X16998214Y-15758500D01*
X17026786Y-15744214D01*
X17069643Y-15744214D01*
X17098214Y-15758500D01*
X17112500Y-15772786D01*
X17126786Y-15801357D01*
X17126786Y-15887071D01*
X17112500Y-15915643D01*
X17098214Y-15929929D01*
X17069643Y-15944214D01*
X17026786Y-15944214D01*
X17298214Y-15944214D02*
X17269643Y-15929929D01*
X17255357Y-15901357D01*
X17255357Y-15644214D01*
X17526786Y-15929929D02*
X17498214Y-15944214D01*
X17441071Y-15944214D01*
X17412500Y-15929929D01*
X17398214Y-15901357D01*
X17398214Y-15787071D01*
X17412500Y-15758500D01*
X17441071Y-15744214D01*
X17498214Y-15744214D01*
X17526786Y-15758500D01*
X17541071Y-15787071D01*
X17541071Y-15815643D01*
X17398214Y-15844214D01*
X17655357Y-15929929D02*
X17683928Y-15944214D01*
X17741071Y-15944214D01*
X17769643Y-15929929D01*
X17783928Y-15901357D01*
X17783928Y-15887071D01*
X17769643Y-15858500D01*
X17741071Y-15844214D01*
X17698214Y-15844214D01*
X17669643Y-15829929D01*
X17655357Y-15801357D01*
X17655357Y-15787071D01*
X17669643Y-15758500D01*
X17698214Y-15744214D01*
X17741071Y-15744214D01*
X17769643Y-15758500D01*
X17883928Y-16058500D02*
X17898214Y-16044214D01*
X17926786Y-16001357D01*
X17941071Y-15972786D01*
X17955357Y-15929929D01*
X17969643Y-15858500D01*
X17969643Y-15801357D01*
X17955357Y-15729929D01*
X17941071Y-15687071D01*
X17926786Y-15658500D01*
X17898214Y-15615643D01*
X17883928Y-15601357D01*
X11372500Y-16179500D02*
X11372500Y-16229500D01*
X11347500Y-16204500D02*
X11397500Y-16204500D01*
X11741071Y-16040214D02*
X11769643Y-16040214D01*
X11798214Y-16054500D01*
X11812500Y-16068786D01*
X11826786Y-16097357D01*
X11841071Y-16154500D01*
X11841071Y-16225929D01*
X11826786Y-16283071D01*
X11812500Y-16311643D01*
X11798214Y-16325929D01*
X11769643Y-16340214D01*
X11741071Y-16340214D01*
X11712500Y-16325929D01*
X11698214Y-16311643D01*
X11683928Y-16283071D01*
X11669643Y-16225929D01*
X11669643Y-16154500D01*
X11683928Y-16097357D01*
X11698214Y-16068786D01*
X11712500Y-16054500D01*
X11741071Y-16040214D01*
X11969643Y-16311643D02*
X11983928Y-16325929D01*
X11969643Y-16340214D01*
X11955357Y-16325929D01*
X11969643Y-16311643D01*
X11969643Y-16340214D01*
X12255357Y-16040214D02*
X12112500Y-16040214D01*
X12098214Y-16183071D01*
X12112500Y-16168786D01*
X12141071Y-16154500D01*
X12212500Y-16154500D01*
X12241071Y-16168786D01*
X12255357Y-16183071D01*
X12269643Y-16211643D01*
X12269643Y-16283071D01*
X12255357Y-16311643D01*
X12241071Y-16325929D01*
X12212500Y-16340214D01*
X12141071Y-16340214D01*
X12112500Y-16325929D01*
X12098214Y-16311643D01*
X12455357Y-16040214D02*
X12483928Y-16040214D01*
X12512500Y-16054500D01*
X12526786Y-16068786D01*
X12541071Y-16097357D01*
X12555357Y-16154500D01*
X12555357Y-16225929D01*
X12541071Y-16283071D01*
X12526786Y-16311643D01*
X12512500Y-16325929D01*
X12483928Y-16340214D01*
X12455357Y-16340214D01*
X12426786Y-16325929D01*
X12412500Y-16311643D01*
X12398214Y-16283071D01*
X12383928Y-16225929D01*
X12383928Y-16154500D01*
X12398214Y-16097357D01*
X12412500Y-16068786D01*
X12426786Y-16054500D01*
X12455357Y-16040214D01*
X12683928Y-16340214D02*
X12683928Y-16140214D01*
X12683928Y-16168786D02*
X12698214Y-16154500D01*
X12726786Y-16140214D01*
X12769643Y-16140214D01*
X12798214Y-16154500D01*
X12812500Y-16183071D01*
X12812500Y-16340214D01*
X12812500Y-16183071D02*
X12826786Y-16154500D01*
X12855357Y-16140214D01*
X12898214Y-16140214D01*
X12926786Y-16154500D01*
X12941071Y-16183071D01*
X12941071Y-16340214D01*
X13083928Y-16340214D02*
X13083928Y-16140214D01*
X13083928Y-16168786D02*
X13098214Y-16154500D01*
X13126786Y-16140214D01*
X13169643Y-16140214D01*
X13198214Y-16154500D01*
X13212500Y-16183071D01*
X13212500Y-16340214D01*
X13212500Y-16183071D02*
X13226786Y-16154500D01*
X13255357Y-16140214D01*
X13298214Y-16140214D01*
X13326786Y-16154500D01*
X13341071Y-16183071D01*
X13341071Y-16340214D01*
X13926786Y-16025929D02*
X13669643Y-16411643D01*
X14312500Y-16040214D02*
X14341071Y-16040214D01*
X14369643Y-16054500D01*
X14383928Y-16068786D01*
X14398214Y-16097357D01*
X14412500Y-16154500D01*
X14412500Y-16225929D01*
X14398214Y-16283071D01*
X14383928Y-16311643D01*
X14369643Y-16325929D01*
X14341071Y-16340214D01*
X14312500Y-16340214D01*
X14283928Y-16325929D01*
X14269643Y-16311643D01*
X14255357Y-16283071D01*
X14241071Y-16225929D01*
X14241071Y-16154500D01*
X14255357Y-16097357D01*
X14269643Y-16068786D01*
X14283928Y-16054500D01*
X14312500Y-16040214D01*
X14541071Y-16311643D02*
X14555357Y-16325929D01*
X14541071Y-16340214D01*
X14526786Y-16325929D01*
X14541071Y-16311643D01*
X14541071Y-16340214D01*
X14741071Y-16040214D02*
X14769643Y-16040214D01*
X14798214Y-16054500D01*
X14812500Y-16068786D01*
X14826786Y-16097357D01*
X14841071Y-16154500D01*
X14841071Y-16225929D01*
X14826786Y-16283071D01*
X14812500Y-16311643D01*
X14798214Y-16325929D01*
X14769643Y-16340214D01*
X14741071Y-16340214D01*
X14712500Y-16325929D01*
X14698214Y-16311643D01*
X14683928Y-16283071D01*
X14669643Y-16225929D01*
X14669643Y-16154500D01*
X14683928Y-16097357D01*
X14698214Y-16068786D01*
X14712500Y-16054500D01*
X14741071Y-16040214D01*
X14955357Y-16068786D02*
X14969643Y-16054500D01*
X14998214Y-16040214D01*
X15069643Y-16040214D01*
X15098214Y-16054500D01*
X15112500Y-16068786D01*
X15126786Y-16097357D01*
X15126786Y-16125929D01*
X15112500Y-16168786D01*
X14941071Y-16340214D01*
X15126786Y-16340214D01*
X15312500Y-16040214D02*
X15341071Y-16040214D01*
X15369643Y-16054500D01*
X15383928Y-16068786D01*
X15398214Y-16097357D01*
X15412500Y-16154500D01*
X15412500Y-16225929D01*
X15398214Y-16283071D01*
X15383928Y-16311643D01*
X15369643Y-16325929D01*
X15341071Y-16340214D01*
X15312500Y-16340214D01*
X15283928Y-16325929D01*
X15269643Y-16311643D01*
X15255357Y-16283071D01*
X15241071Y-16225929D01*
X15241071Y-16154500D01*
X15255357Y-16097357D01*
X15269643Y-16068786D01*
X15283928Y-16054500D01*
X15312500Y-16040214D01*
X15526786Y-16040214D02*
X15526786Y-16097357D01*
X15641071Y-16040214D02*
X15641071Y-16097357D01*
X16083928Y-16454500D02*
X16069643Y-16440214D01*
X16041071Y-16397357D01*
X16026786Y-16368786D01*
X16012500Y-16325929D01*
X15998214Y-16254500D01*
X15998214Y-16197357D01*
X16012500Y-16125929D01*
X16026786Y-16083071D01*
X16041071Y-16054500D01*
X16069643Y-16011643D01*
X16083928Y-15997357D01*
X16255357Y-16040214D02*
X16283928Y-16040214D01*
X16312500Y-16054500D01*
X16326786Y-16068786D01*
X16341071Y-16097357D01*
X16355357Y-16154500D01*
X16355357Y-16225929D01*
X16341071Y-16283071D01*
X16326786Y-16311643D01*
X16312500Y-16325929D01*
X16283928Y-16340214D01*
X16255357Y-16340214D01*
X16226786Y-16325929D01*
X16212500Y-16311643D01*
X16198214Y-16283071D01*
X16183928Y-16225929D01*
X16183928Y-16154500D01*
X16198214Y-16097357D01*
X16212500Y-16068786D01*
X16226786Y-16054500D01*
X16255357Y-16040214D01*
X16712500Y-16340214D02*
X16712500Y-16040214D01*
X16841071Y-16340214D02*
X16841071Y-16183071D01*
X16826786Y-16154500D01*
X16798214Y-16140214D01*
X16755357Y-16140214D01*
X16726786Y-16154500D01*
X16712500Y-16168786D01*
X17026786Y-16340214D02*
X16998214Y-16325929D01*
X16983928Y-16311643D01*
X16969643Y-16283071D01*
X16969643Y-16197357D01*
X16983928Y-16168786D01*
X16998214Y-16154500D01*
X17026786Y-16140214D01*
X17069643Y-16140214D01*
X17098214Y-16154500D01*
X17112500Y-16168786D01*
X17126786Y-16197357D01*
X17126786Y-16283071D01*
X17112500Y-16311643D01*
X17098214Y-16325929D01*
X17069643Y-16340214D01*
X17026786Y-16340214D01*
X17298214Y-16340214D02*
X17269643Y-16325929D01*
X17255357Y-16297357D01*
X17255357Y-16040214D01*
X17526786Y-16325929D02*
X17498214Y-16340214D01*
X17441071Y-16340214D01*
X17412500Y-16325929D01*
X17398214Y-16297357D01*
X17398214Y-16183071D01*
X17412500Y-16154500D01*
X17441071Y-16140214D01*
X17498214Y-16140214D01*
X17526786Y-16154500D01*
X17541071Y-16183071D01*
X17541071Y-16211643D01*
X17398214Y-16240214D01*
X17655357Y-16325929D02*
X17683928Y-16340214D01*
X17741071Y-16340214D01*
X17769643Y-16325929D01*
X17783928Y-16297357D01*
X17783928Y-16283071D01*
X17769643Y-16254500D01*
X17741071Y-16240214D01*
X17698214Y-16240214D01*
X17669643Y-16225929D01*
X17655357Y-16197357D01*
X17655357Y-16183071D01*
X17669643Y-16154500D01*
X17698214Y-16140214D01*
X17741071Y-16140214D01*
X17769643Y-16154500D01*
X18141071Y-16225929D02*
X18369643Y-16225929D01*
X18255357Y-16340214D02*
X18255357Y-16111643D01*
X18712500Y-16040214D02*
X18898214Y-16040214D01*
X18798214Y-16154500D01*
X18841071Y-16154500D01*
X18869643Y-16168786D01*
X18883928Y-16183071D01*
X18898214Y-16211643D01*
X18898214Y-16283071D01*
X18883928Y-16311643D01*
X18869643Y-16325929D01*
X18841071Y-16340214D01*
X18755357Y-16340214D01*
X18726786Y-16325929D01*
X18712500Y-16311643D01*
X19241071Y-16325929D02*
X19269643Y-16340214D01*
X19326786Y-16340214D01*
X19355357Y-16325929D01*
X19369643Y-16297357D01*
X19369643Y-16283071D01*
X19355357Y-16254500D01*
X19326786Y-16240214D01*
X19283928Y-16240214D01*
X19255357Y-16225929D01*
X19241071Y-16197357D01*
X19241071Y-16183071D01*
X19255357Y-16154500D01*
X19283928Y-16140214D01*
X19326786Y-16140214D01*
X19355357Y-16154500D01*
X19541071Y-16340214D02*
X19512500Y-16325929D01*
X19498214Y-16297357D01*
X19498214Y-16040214D01*
X19698214Y-16340214D02*
X19669643Y-16325929D01*
X19655357Y-16311643D01*
X19641071Y-16283071D01*
X19641071Y-16197357D01*
X19655357Y-16168786D01*
X19669643Y-16154500D01*
X19698214Y-16140214D01*
X19741071Y-16140214D01*
X19769643Y-16154500D01*
X19783928Y-16168786D01*
X19798214Y-16197357D01*
X19798214Y-16283071D01*
X19783928Y-16311643D01*
X19769643Y-16325929D01*
X19741071Y-16340214D01*
X19698214Y-16340214D01*
X19883928Y-16140214D02*
X19998214Y-16140214D01*
X19926786Y-16040214D02*
X19926786Y-16297357D01*
X19941071Y-16325929D01*
X19969643Y-16340214D01*
X19998214Y-16340214D01*
X20083928Y-16325929D02*
X20112500Y-16340214D01*
X20169643Y-16340214D01*
X20198214Y-16325929D01*
X20212500Y-16297357D01*
X20212500Y-16283071D01*
X20198214Y-16254500D01*
X20169643Y-16240214D01*
X20126786Y-16240214D01*
X20098214Y-16225929D01*
X20083928Y-16197357D01*
X20083928Y-16183071D01*
X20098214Y-16154500D01*
X20126786Y-16140214D01*
X20169643Y-16140214D01*
X20198214Y-16154500D01*
X20312500Y-16454500D02*
X20326786Y-16440214D01*
X20355357Y-16397357D01*
X20369643Y-16368786D01*
X20383928Y-16325929D01*
X20398214Y-16254500D01*
X20398214Y-16197357D01*
X20383928Y-16125929D01*
X20369643Y-16083071D01*
X20355357Y-16054500D01*
X20326786Y-16011643D01*
X20312500Y-15997357D01*
X11384320Y-16632320D02*
X11384320Y-16568680D01*
X11320680Y-16568680D01*
X11320680Y-16632320D01*
X11384320Y-16632320D01*
X11741071Y-16436214D02*
X11769643Y-16436214D01*
X11798214Y-16450500D01*
X11812500Y-16464786D01*
X11826786Y-16493357D01*
X11841071Y-16550500D01*
X11841071Y-16621929D01*
X11826786Y-16679071D01*
X11812500Y-16707643D01*
X11798214Y-16721929D01*
X11769643Y-16736214D01*
X11741071Y-16736214D01*
X11712500Y-16721929D01*
X11698214Y-16707643D01*
X11683928Y-16679071D01*
X11669643Y-16621929D01*
X11669643Y-16550500D01*
X11683928Y-16493357D01*
X11698214Y-16464786D01*
X11712500Y-16450500D01*
X11741071Y-16436214D01*
X11969643Y-16707643D02*
X11983928Y-16721929D01*
X11969643Y-16736214D01*
X11955357Y-16721929D01*
X11969643Y-16707643D01*
X11969643Y-16736214D01*
X12126786Y-16736214D02*
X12183928Y-16736214D01*
X12212500Y-16721929D01*
X12226786Y-16707643D01*
X12255357Y-16664786D01*
X12269643Y-16607643D01*
X12269643Y-16493357D01*
X12255357Y-16464786D01*
X12241071Y-16450500D01*
X12212500Y-16436214D01*
X12155357Y-16436214D01*
X12126786Y-16450500D01*
X12112500Y-16464786D01*
X12098214Y-16493357D01*
X12098214Y-16564786D01*
X12112500Y-16593357D01*
X12126786Y-16607643D01*
X12155357Y-16621929D01*
X12212500Y-16621929D01*
X12241071Y-16607643D01*
X12255357Y-16593357D01*
X12269643Y-16564786D01*
X12455357Y-16436214D02*
X12483928Y-16436214D01*
X12512500Y-16450500D01*
X12526786Y-16464786D01*
X12541071Y-16493357D01*
X12555357Y-16550500D01*
X12555357Y-16621929D01*
X12541071Y-16679071D01*
X12526786Y-16707643D01*
X12512500Y-16721929D01*
X12483928Y-16736214D01*
X12455357Y-16736214D01*
X12426786Y-16721929D01*
X12412500Y-16707643D01*
X12398214Y-16679071D01*
X12383928Y-16621929D01*
X12383928Y-16550500D01*
X12398214Y-16493357D01*
X12412500Y-16464786D01*
X12426786Y-16450500D01*
X12455357Y-16436214D01*
X12683928Y-16736214D02*
X12683928Y-16536214D01*
X12683928Y-16564786D02*
X12698214Y-16550500D01*
X12726786Y-16536214D01*
X12769643Y-16536214D01*
X12798214Y-16550500D01*
X12812500Y-16579071D01*
X12812500Y-16736214D01*
X12812500Y-16579071D02*
X12826786Y-16550500D01*
X12855357Y-16536214D01*
X12898214Y-16536214D01*
X12926786Y-16550500D01*
X12941071Y-16579071D01*
X12941071Y-16736214D01*
X13083928Y-16736214D02*
X13083928Y-16536214D01*
X13083928Y-16564786D02*
X13098214Y-16550500D01*
X13126786Y-16536214D01*
X13169643Y-16536214D01*
X13198214Y-16550500D01*
X13212500Y-16579071D01*
X13212500Y-16736214D01*
X13212500Y-16579071D02*
X13226786Y-16550500D01*
X13255357Y-16536214D01*
X13298214Y-16536214D01*
X13326786Y-16550500D01*
X13341071Y-16579071D01*
X13341071Y-16736214D01*
X13926786Y-16421929D02*
X13669643Y-16807643D01*
X14312500Y-16436214D02*
X14341071Y-16436214D01*
X14369643Y-16450500D01*
X14383928Y-16464786D01*
X14398214Y-16493357D01*
X14412500Y-16550500D01*
X14412500Y-16621929D01*
X14398214Y-16679071D01*
X14383928Y-16707643D01*
X14369643Y-16721929D01*
X14341071Y-16736214D01*
X14312500Y-16736214D01*
X14283928Y-16721929D01*
X14269643Y-16707643D01*
X14255357Y-16679071D01*
X14241071Y-16621929D01*
X14241071Y-16550500D01*
X14255357Y-16493357D01*
X14269643Y-16464786D01*
X14283928Y-16450500D01*
X14312500Y-16436214D01*
X14541071Y-16707643D02*
X14555357Y-16721929D01*
X14541071Y-16736214D01*
X14526786Y-16721929D01*
X14541071Y-16707643D01*
X14541071Y-16736214D01*
X14741071Y-16436214D02*
X14769643Y-16436214D01*
X14798214Y-16450500D01*
X14812500Y-16464786D01*
X14826786Y-16493357D01*
X14841071Y-16550500D01*
X14841071Y-16621929D01*
X14826786Y-16679071D01*
X14812500Y-16707643D01*
X14798214Y-16721929D01*
X14769643Y-16736214D01*
X14741071Y-16736214D01*
X14712500Y-16721929D01*
X14698214Y-16707643D01*
X14683928Y-16679071D01*
X14669643Y-16621929D01*
X14669643Y-16550500D01*
X14683928Y-16493357D01*
X14698214Y-16464786D01*
X14712500Y-16450500D01*
X14741071Y-16436214D01*
X14941071Y-16436214D02*
X15126786Y-16436214D01*
X15026786Y-16550500D01*
X15069643Y-16550500D01*
X15098214Y-16564786D01*
X15112500Y-16579071D01*
X15126786Y-16607643D01*
X15126786Y-16679071D01*
X15112500Y-16707643D01*
X15098214Y-16721929D01*
X15069643Y-16736214D01*
X14983928Y-16736214D01*
X14955357Y-16721929D01*
X14941071Y-16707643D01*
X15398214Y-16436214D02*
X15255357Y-16436214D01*
X15241071Y-16579071D01*
X15255357Y-16564786D01*
X15283928Y-16550500D01*
X15355357Y-16550500D01*
X15383928Y-16564786D01*
X15398214Y-16579071D01*
X15412500Y-16607643D01*
X15412500Y-16679071D01*
X15398214Y-16707643D01*
X15383928Y-16721929D01*
X15355357Y-16736214D01*
X15283928Y-16736214D01*
X15255357Y-16721929D01*
X15241071Y-16707643D01*
X15526786Y-16436214D02*
X15526786Y-16493357D01*
X15641071Y-16436214D02*
X15641071Y-16493357D01*
X16083928Y-16850500D02*
X16069643Y-16836214D01*
X16041071Y-16793357D01*
X16026786Y-16764786D01*
X16012500Y-16721929D01*
X15998214Y-16650500D01*
X15998214Y-16593357D01*
X16012500Y-16521929D01*
X16026786Y-16479071D01*
X16041071Y-16450500D01*
X16069643Y-16407643D01*
X16083928Y-16393357D01*
X16326786Y-16536214D02*
X16326786Y-16736214D01*
X16255357Y-16421929D02*
X16183928Y-16636214D01*
X16369643Y-16636214D01*
X16712500Y-16736214D02*
X16712500Y-16436214D01*
X16841071Y-16736214D02*
X16841071Y-16579071D01*
X16826786Y-16550500D01*
X16798214Y-16536214D01*
X16755357Y-16536214D01*
X16726786Y-16550500D01*
X16712500Y-16564786D01*
X17026786Y-16736214D02*
X16998214Y-16721929D01*
X16983928Y-16707643D01*
X16969643Y-16679071D01*
X16969643Y-16593357D01*
X16983928Y-16564786D01*
X16998214Y-16550500D01*
X17026786Y-16536214D01*
X17069643Y-16536214D01*
X17098214Y-16550500D01*
X17112500Y-16564786D01*
X17126786Y-16593357D01*
X17126786Y-16679071D01*
X17112500Y-16707643D01*
X17098214Y-16721929D01*
X17069643Y-16736214D01*
X17026786Y-16736214D01*
X17298214Y-16736214D02*
X17269643Y-16721929D01*
X17255357Y-16693357D01*
X17255357Y-16436214D01*
X17526786Y-16721929D02*
X17498214Y-16736214D01*
X17441071Y-16736214D01*
X17412500Y-16721929D01*
X17398214Y-16693357D01*
X17398214Y-16579071D01*
X17412500Y-16550500D01*
X17441071Y-16536214D01*
X17498214Y-16536214D01*
X17526786Y-16550500D01*
X17541071Y-16579071D01*
X17541071Y-16607643D01*
X17398214Y-16636214D01*
X17655357Y-16721929D02*
X17683928Y-16736214D01*
X17741071Y-16736214D01*
X17769643Y-16721929D01*
X17783928Y-16693357D01*
X17783928Y-16679071D01*
X17769643Y-16650500D01*
X17741071Y-16636214D01*
X17698214Y-16636214D01*
X17669643Y-16621929D01*
X17655357Y-16593357D01*
X17655357Y-16579071D01*
X17669643Y-16550500D01*
X17698214Y-16536214D01*
X17741071Y-16536214D01*
X17769643Y-16550500D01*
X17883928Y-16850500D02*
X17898214Y-16836214D01*
X17926786Y-16793357D01*
X17941071Y-16764786D01*
X17955357Y-16721929D01*
X17969643Y-16650500D01*
X17969643Y-16593357D01*
X17955357Y-16521929D01*
X17941071Y-16479071D01*
X17926786Y-16450500D01*
X17898214Y-16407643D01*
X17883928Y-16393357D01*
X11347500Y-17046500D02*
X11397500Y-16996500D01*
X11347500Y-16946500D01*
X11297500Y-16996500D01*
X11347500Y-17046500D01*
X11841071Y-17132214D02*
X11669643Y-17132214D01*
X11755357Y-17132214D02*
X11755357Y-16832214D01*
X11726786Y-16875072D01*
X11698214Y-16903643D01*
X11669643Y-16917929D01*
X11969643Y-17103643D02*
X11983928Y-17117929D01*
X11969643Y-17132214D01*
X11955357Y-17117929D01*
X11969643Y-17103643D01*
X11969643Y-17132214D01*
X12169643Y-16832214D02*
X12198214Y-16832214D01*
X12226786Y-16846500D01*
X12241071Y-16860786D01*
X12255357Y-16889357D01*
X12269643Y-16946500D01*
X12269643Y-17017929D01*
X12255357Y-17075072D01*
X12241071Y-17103643D01*
X12226786Y-17117929D01*
X12198214Y-17132214D01*
X12169643Y-17132214D01*
X12141071Y-17117929D01*
X12126786Y-17103643D01*
X12112500Y-17075072D01*
X12098214Y-17017929D01*
X12098214Y-16946500D01*
X12112500Y-16889357D01*
X12126786Y-16860786D01*
X12141071Y-16846500D01*
X12169643Y-16832214D01*
X12455357Y-16832214D02*
X12483928Y-16832214D01*
X12512500Y-16846500D01*
X12526786Y-16860786D01*
X12541071Y-16889357D01*
X12555357Y-16946500D01*
X12555357Y-17017929D01*
X12541071Y-17075072D01*
X12526786Y-17103643D01*
X12512500Y-17117929D01*
X12483928Y-17132214D01*
X12455357Y-17132214D01*
X12426786Y-17117929D01*
X12412500Y-17103643D01*
X12398214Y-17075072D01*
X12383928Y-17017929D01*
X12383928Y-16946500D01*
X12398214Y-16889357D01*
X12412500Y-16860786D01*
X12426786Y-16846500D01*
X12455357Y-16832214D01*
X12683928Y-17132214D02*
X12683928Y-16932214D01*
X12683928Y-16960786D02*
X12698214Y-16946500D01*
X12726786Y-16932214D01*
X12769643Y-16932214D01*
X12798214Y-16946500D01*
X12812500Y-16975072D01*
X12812500Y-17132214D01*
X12812500Y-16975072D02*
X12826786Y-16946500D01*
X12855357Y-16932214D01*
X12898214Y-16932214D01*
X12926786Y-16946500D01*
X12941071Y-16975072D01*
X12941071Y-17132214D01*
X13083928Y-17132214D02*
X13083928Y-16932214D01*
X13083928Y-16960786D02*
X13098214Y-16946500D01*
X13126786Y-16932214D01*
X13169643Y-16932214D01*
X13198214Y-16946500D01*
X13212500Y-16975072D01*
X13212500Y-17132214D01*
X13212500Y-16975072D02*
X13226786Y-16946500D01*
X13255357Y-16932214D01*
X13298214Y-16932214D01*
X13326786Y-16946500D01*
X13341071Y-16975072D01*
X13341071Y-17132214D01*
X13926786Y-16817929D02*
X13669643Y-17203643D01*
X14312500Y-16832214D02*
X14341071Y-16832214D01*
X14369643Y-16846500D01*
X14383928Y-16860786D01*
X14398214Y-16889357D01*
X14412500Y-16946500D01*
X14412500Y-17017929D01*
X14398214Y-17075072D01*
X14383928Y-17103643D01*
X14369643Y-17117929D01*
X14341071Y-17132214D01*
X14312500Y-17132214D01*
X14283928Y-17117929D01*
X14269643Y-17103643D01*
X14255357Y-17075072D01*
X14241071Y-17017929D01*
X14241071Y-16946500D01*
X14255357Y-16889357D01*
X14269643Y-16860786D01*
X14283928Y-16846500D01*
X14312500Y-16832214D01*
X14541071Y-17103643D02*
X14555357Y-17117929D01*
X14541071Y-17132214D01*
X14526786Y-17117929D01*
X14541071Y-17103643D01*
X14541071Y-17132214D01*
X14741071Y-16832214D02*
X14769643Y-16832214D01*
X14798214Y-16846500D01*
X14812500Y-16860786D01*
X14826786Y-16889357D01*
X14841071Y-16946500D01*
X14841071Y-17017929D01*
X14826786Y-17075072D01*
X14812500Y-17103643D01*
X14798214Y-17117929D01*
X14769643Y-17132214D01*
X14741071Y-17132214D01*
X14712500Y-17117929D01*
X14698214Y-17103643D01*
X14683928Y-17075072D01*
X14669643Y-17017929D01*
X14669643Y-16946500D01*
X14683928Y-16889357D01*
X14698214Y-16860786D01*
X14712500Y-16846500D01*
X14741071Y-16832214D01*
X14941071Y-16832214D02*
X15126786Y-16832214D01*
X15026786Y-16946500D01*
X15069643Y-16946500D01*
X15098214Y-16960786D01*
X15112500Y-16975072D01*
X15126786Y-17003643D01*
X15126786Y-17075072D01*
X15112500Y-17103643D01*
X15098214Y-17117929D01*
X15069643Y-17132214D01*
X14983928Y-17132214D01*
X14955357Y-17117929D01*
X14941071Y-17103643D01*
X15269643Y-17132214D02*
X15326786Y-17132214D01*
X15355357Y-17117929D01*
X15369643Y-17103643D01*
X15398214Y-17060786D01*
X15412500Y-17003643D01*
X15412500Y-16889357D01*
X15398214Y-16860786D01*
X15383928Y-16846500D01*
X15355357Y-16832214D01*
X15298214Y-16832214D01*
X15269643Y-16846500D01*
X15255357Y-16860786D01*
X15241071Y-16889357D01*
X15241071Y-16960786D01*
X15255357Y-16989357D01*
X15269643Y-17003643D01*
X15298214Y-17017929D01*
X15355357Y-17017929D01*
X15383928Y-17003643D01*
X15398214Y-16989357D01*
X15412500Y-16960786D01*
X15526786Y-16832214D02*
X15526786Y-16889357D01*
X15641071Y-16832214D02*
X15641071Y-16889357D01*
X16083928Y-17246500D02*
X16069643Y-17232214D01*
X16041071Y-17189357D01*
X16026786Y-17160786D01*
X16012500Y-17117929D01*
X15998214Y-17046500D01*
X15998214Y-16989357D01*
X16012500Y-16917929D01*
X16026786Y-16875072D01*
X16041071Y-16846500D01*
X16069643Y-16803643D01*
X16083928Y-16789357D01*
X16183928Y-16860786D02*
X16198214Y-16846500D01*
X16226786Y-16832214D01*
X16298214Y-16832214D01*
X16326786Y-16846500D01*
X16341071Y-16860786D01*
X16355357Y-16889357D01*
X16355357Y-16917929D01*
X16341071Y-16960786D01*
X16169643Y-17132214D01*
X16355357Y-17132214D01*
X16641071Y-17132214D02*
X16469643Y-17132214D01*
X16555357Y-17132214D02*
X16555357Y-16832214D01*
X16526786Y-16875072D01*
X16498214Y-16903643D01*
X16469643Y-16917929D01*
X16998214Y-17132214D02*
X16998214Y-16832214D01*
X17126786Y-17132214D02*
X17126786Y-16975072D01*
X17112500Y-16946500D01*
X17083928Y-16932214D01*
X17041071Y-16932214D01*
X17012500Y-16946500D01*
X16998214Y-16960786D01*
X17312500Y-17132214D02*
X17283928Y-17117929D01*
X17269643Y-17103643D01*
X17255357Y-17075072D01*
X17255357Y-16989357D01*
X17269643Y-16960786D01*
X17283928Y-16946500D01*
X17312500Y-16932214D01*
X17355357Y-16932214D01*
X17383928Y-16946500D01*
X17398214Y-16960786D01*
X17412500Y-16989357D01*
X17412500Y-17075072D01*
X17398214Y-17103643D01*
X17383928Y-17117929D01*
X17355357Y-17132214D01*
X17312500Y-17132214D01*
X17583928Y-17132214D02*
X17555357Y-17117929D01*
X17541071Y-17089357D01*
X17541071Y-16832214D01*
X17812500Y-17117929D02*
X17783928Y-17132214D01*
X17726786Y-17132214D01*
X17698214Y-17117929D01*
X17683928Y-17089357D01*
X17683928Y-16975072D01*
X17698214Y-16946500D01*
X17726786Y-16932214D01*
X17783928Y-16932214D01*
X17812500Y-16946500D01*
X17826786Y-16975072D01*
X17826786Y-17003643D01*
X17683928Y-17032214D01*
X17941071Y-17117929D02*
X17969643Y-17132214D01*
X18026786Y-17132214D01*
X18055357Y-17117929D01*
X18069643Y-17089357D01*
X18069643Y-17075072D01*
X18055357Y-17046500D01*
X18026786Y-17032214D01*
X17983928Y-17032214D01*
X17955357Y-17017929D01*
X17941071Y-16989357D01*
X17941071Y-16975072D01*
X17955357Y-16946500D01*
X17983928Y-16932214D01*
X18026786Y-16932214D01*
X18055357Y-16946500D01*
X18169643Y-17246500D02*
X18183928Y-17232214D01*
X18212500Y-17189357D01*
X18226786Y-17160786D01*
X18241071Y-17117929D01*
X18255357Y-17046500D01*
X18255357Y-16989357D01*
X18241071Y-16917929D01*
X18226786Y-16875072D01*
X18212500Y-16846500D01*
X18183928Y-16803643D01*
X18169643Y-16789357D01*
X11295500Y-17341500D02*
X11397500Y-17443500D01*
X11397500Y-17341500D02*
X11295500Y-17443500D01*
X11397500Y-17392500D02*
G75*
G03*
X11397500Y-17392500I-51000J0D01*
G01*
X11841071Y-17528214D02*
X11669643Y-17528214D01*
X11755357Y-17528214D02*
X11755357Y-17228214D01*
X11726786Y-17271072D01*
X11698214Y-17299643D01*
X11669643Y-17313929D01*
X11969643Y-17499643D02*
X11983928Y-17513929D01*
X11969643Y-17528214D01*
X11955357Y-17513929D01*
X11969643Y-17499643D01*
X11969643Y-17528214D01*
X12169643Y-17228214D02*
X12198214Y-17228214D01*
X12226786Y-17242500D01*
X12241071Y-17256786D01*
X12255357Y-17285357D01*
X12269643Y-17342500D01*
X12269643Y-17413929D01*
X12255357Y-17471072D01*
X12241071Y-17499643D01*
X12226786Y-17513929D01*
X12198214Y-17528214D01*
X12169643Y-17528214D01*
X12141071Y-17513929D01*
X12126786Y-17499643D01*
X12112500Y-17471072D01*
X12098214Y-17413929D01*
X12098214Y-17342500D01*
X12112500Y-17285357D01*
X12126786Y-17256786D01*
X12141071Y-17242500D01*
X12169643Y-17228214D01*
X12383928Y-17256786D02*
X12398214Y-17242500D01*
X12426786Y-17228214D01*
X12498214Y-17228214D01*
X12526786Y-17242500D01*
X12541071Y-17256786D01*
X12555357Y-17285357D01*
X12555357Y-17313929D01*
X12541071Y-17356786D01*
X12369643Y-17528214D01*
X12555357Y-17528214D01*
X12683928Y-17528214D02*
X12683928Y-17328214D01*
X12683928Y-17356786D02*
X12698214Y-17342500D01*
X12726786Y-17328214D01*
X12769643Y-17328214D01*
X12798214Y-17342500D01*
X12812500Y-17371072D01*
X12812500Y-17528214D01*
X12812500Y-17371072D02*
X12826786Y-17342500D01*
X12855357Y-17328214D01*
X12898214Y-17328214D01*
X12926786Y-17342500D01*
X12941071Y-17371072D01*
X12941071Y-17528214D01*
X13083928Y-17528214D02*
X13083928Y-17328214D01*
X13083928Y-17356786D02*
X13098214Y-17342500D01*
X13126786Y-17328214D01*
X13169643Y-17328214D01*
X13198214Y-17342500D01*
X13212500Y-17371072D01*
X13212500Y-17528214D01*
X13212500Y-17371072D02*
X13226786Y-17342500D01*
X13255357Y-17328214D01*
X13298214Y-17328214D01*
X13326786Y-17342500D01*
X13341071Y-17371072D01*
X13341071Y-17528214D01*
X13926786Y-17213929D02*
X13669643Y-17599643D01*
X14312500Y-17228214D02*
X14341071Y-17228214D01*
X14369643Y-17242500D01*
X14383928Y-17256786D01*
X14398214Y-17285357D01*
X14412500Y-17342500D01*
X14412500Y-17413929D01*
X14398214Y-17471072D01*
X14383928Y-17499643D01*
X14369643Y-17513929D01*
X14341071Y-17528214D01*
X14312500Y-17528214D01*
X14283928Y-17513929D01*
X14269643Y-17499643D01*
X14255357Y-17471072D01*
X14241071Y-17413929D01*
X14241071Y-17342500D01*
X14255357Y-17285357D01*
X14269643Y-17256786D01*
X14283928Y-17242500D01*
X14312500Y-17228214D01*
X14541071Y-17499643D02*
X14555357Y-17513929D01*
X14541071Y-17528214D01*
X14526786Y-17513929D01*
X14541071Y-17499643D01*
X14541071Y-17528214D01*
X14741071Y-17228214D02*
X14769643Y-17228214D01*
X14798214Y-17242500D01*
X14812500Y-17256786D01*
X14826786Y-17285357D01*
X14841071Y-17342500D01*
X14841071Y-17413929D01*
X14826786Y-17471072D01*
X14812500Y-17499643D01*
X14798214Y-17513929D01*
X14769643Y-17528214D01*
X14741071Y-17528214D01*
X14712500Y-17513929D01*
X14698214Y-17499643D01*
X14683928Y-17471072D01*
X14669643Y-17413929D01*
X14669643Y-17342500D01*
X14683928Y-17285357D01*
X14698214Y-17256786D01*
X14712500Y-17242500D01*
X14741071Y-17228214D01*
X15098214Y-17328214D02*
X15098214Y-17528214D01*
X15026786Y-17213929D02*
X14955357Y-17428214D01*
X15141071Y-17428214D01*
X15312500Y-17228214D02*
X15341071Y-17228214D01*
X15369643Y-17242500D01*
X15383928Y-17256786D01*
X15398214Y-17285357D01*
X15412500Y-17342500D01*
X15412500Y-17413929D01*
X15398214Y-17471072D01*
X15383928Y-17499643D01*
X15369643Y-17513929D01*
X15341071Y-17528214D01*
X15312500Y-17528214D01*
X15283928Y-17513929D01*
X15269643Y-17499643D01*
X15255357Y-17471072D01*
X15241071Y-17413929D01*
X15241071Y-17342500D01*
X15255357Y-17285357D01*
X15269643Y-17256786D01*
X15283928Y-17242500D01*
X15312500Y-17228214D01*
X15526786Y-17228214D02*
X15526786Y-17285357D01*
X15641071Y-17228214D02*
X15641071Y-17285357D01*
X16083928Y-17642500D02*
X16069643Y-17628214D01*
X16041071Y-17585357D01*
X16026786Y-17556786D01*
X16012500Y-17513929D01*
X15998214Y-17442500D01*
X15998214Y-17385357D01*
X16012500Y-17313929D01*
X16026786Y-17271072D01*
X16041071Y-17242500D01*
X16069643Y-17199643D01*
X16083928Y-17185357D01*
X16183928Y-17256786D02*
X16198214Y-17242500D01*
X16226786Y-17228214D01*
X16298214Y-17228214D01*
X16326786Y-17242500D01*
X16341071Y-17256786D01*
X16355357Y-17285357D01*
X16355357Y-17313929D01*
X16341071Y-17356786D01*
X16169643Y-17528214D01*
X16355357Y-17528214D01*
X16712500Y-17528214D02*
X16712500Y-17228214D01*
X16841071Y-17528214D02*
X16841071Y-17371072D01*
X16826786Y-17342500D01*
X16798214Y-17328214D01*
X16755357Y-17328214D01*
X16726786Y-17342500D01*
X16712500Y-17356786D01*
X17026786Y-17528214D02*
X16998214Y-17513929D01*
X16983928Y-17499643D01*
X16969643Y-17471072D01*
X16969643Y-17385357D01*
X16983928Y-17356786D01*
X16998214Y-17342500D01*
X17026786Y-17328214D01*
X17069643Y-17328214D01*
X17098214Y-17342500D01*
X17112500Y-17356786D01*
X17126786Y-17385357D01*
X17126786Y-17471072D01*
X17112500Y-17499643D01*
X17098214Y-17513929D01*
X17069643Y-17528214D01*
X17026786Y-17528214D01*
X17298214Y-17528214D02*
X17269643Y-17513929D01*
X17255357Y-17485357D01*
X17255357Y-17228214D01*
X17526786Y-17513929D02*
X17498214Y-17528214D01*
X17441071Y-17528214D01*
X17412500Y-17513929D01*
X17398214Y-17485357D01*
X17398214Y-17371072D01*
X17412500Y-17342500D01*
X17441071Y-17328214D01*
X17498214Y-17328214D01*
X17526786Y-17342500D01*
X17541071Y-17371072D01*
X17541071Y-17399643D01*
X17398214Y-17428214D01*
X17655357Y-17513929D02*
X17683928Y-17528214D01*
X17741071Y-17528214D01*
X17769643Y-17513929D01*
X17783928Y-17485357D01*
X17783928Y-17471072D01*
X17769643Y-17442500D01*
X17741071Y-17428214D01*
X17698214Y-17428214D01*
X17669643Y-17413929D01*
X17655357Y-17385357D01*
X17655357Y-17371072D01*
X17669643Y-17342500D01*
X17698214Y-17328214D01*
X17741071Y-17328214D01*
X17769643Y-17342500D01*
X17883928Y-17642500D02*
X17898214Y-17628214D01*
X17926786Y-17585357D01*
X17941071Y-17556786D01*
X17955357Y-17513929D01*
X17969643Y-17442500D01*
X17969643Y-17385357D01*
X17955357Y-17313929D01*
X17941071Y-17271072D01*
X17926786Y-17242500D01*
X17898214Y-17199643D01*
X17883928Y-17185357D01*
X11267500Y-17723500D02*
X11397500Y-17853500D01*
X11397500Y-17723500D02*
X11267500Y-17853500D01*
X11332500Y-17723500D02*
X11332500Y-17853500D01*
X11267500Y-17788500D02*
X11397500Y-17788500D01*
X11841071Y-17924214D02*
X11669643Y-17924214D01*
X11755357Y-17924214D02*
X11755357Y-17624214D01*
X11726786Y-17667072D01*
X11698214Y-17695643D01*
X11669643Y-17709929D01*
X11969643Y-17895643D02*
X11983928Y-17909929D01*
X11969643Y-17924214D01*
X11955357Y-17909929D01*
X11969643Y-17895643D01*
X11969643Y-17924214D01*
X12083928Y-17624214D02*
X12269643Y-17624214D01*
X12169643Y-17738500D01*
X12212500Y-17738500D01*
X12241071Y-17752786D01*
X12255357Y-17767072D01*
X12269643Y-17795643D01*
X12269643Y-17867072D01*
X12255357Y-17895643D01*
X12241071Y-17909929D01*
X12212500Y-17924214D01*
X12126786Y-17924214D01*
X12098214Y-17909929D01*
X12083928Y-17895643D01*
X12455357Y-17624214D02*
X12483928Y-17624214D01*
X12512500Y-17638500D01*
X12526786Y-17652786D01*
X12541071Y-17681357D01*
X12555357Y-17738500D01*
X12555357Y-17809929D01*
X12541071Y-17867072D01*
X12526786Y-17895643D01*
X12512500Y-17909929D01*
X12483928Y-17924214D01*
X12455357Y-17924214D01*
X12426786Y-17909929D01*
X12412500Y-17895643D01*
X12398214Y-17867072D01*
X12383928Y-17809929D01*
X12383928Y-17738500D01*
X12398214Y-17681357D01*
X12412500Y-17652786D01*
X12426786Y-17638500D01*
X12455357Y-17624214D01*
X12683928Y-17924214D02*
X12683928Y-17724214D01*
X12683928Y-17752786D02*
X12698214Y-17738500D01*
X12726786Y-17724214D01*
X12769643Y-17724214D01*
X12798214Y-17738500D01*
X12812500Y-17767072D01*
X12812500Y-17924214D01*
X12812500Y-17767072D02*
X12826786Y-17738500D01*
X12855357Y-17724214D01*
X12898214Y-17724214D01*
X12926786Y-17738500D01*
X12941071Y-17767072D01*
X12941071Y-17924214D01*
X13083928Y-17924214D02*
X13083928Y-17724214D01*
X13083928Y-17752786D02*
X13098214Y-17738500D01*
X13126786Y-17724214D01*
X13169643Y-17724214D01*
X13198214Y-17738500D01*
X13212500Y-17767072D01*
X13212500Y-17924214D01*
X13212500Y-17767072D02*
X13226786Y-17738500D01*
X13255357Y-17724214D01*
X13298214Y-17724214D01*
X13326786Y-17738500D01*
X13341071Y-17767072D01*
X13341071Y-17924214D01*
X13926786Y-17609929D02*
X13669643Y-17995643D01*
X14312500Y-17624214D02*
X14341071Y-17624214D01*
X14369643Y-17638500D01*
X14383928Y-17652786D01*
X14398214Y-17681357D01*
X14412500Y-17738500D01*
X14412500Y-17809929D01*
X14398214Y-17867072D01*
X14383928Y-17895643D01*
X14369643Y-17909929D01*
X14341071Y-17924214D01*
X14312500Y-17924214D01*
X14283928Y-17909929D01*
X14269643Y-17895643D01*
X14255357Y-17867072D01*
X14241071Y-17809929D01*
X14241071Y-17738500D01*
X14255357Y-17681357D01*
X14269643Y-17652786D01*
X14283928Y-17638500D01*
X14312500Y-17624214D01*
X14541071Y-17895643D02*
X14555357Y-17909929D01*
X14541071Y-17924214D01*
X14526786Y-17909929D01*
X14541071Y-17895643D01*
X14541071Y-17924214D01*
X14741071Y-17624214D02*
X14769643Y-17624214D01*
X14798214Y-17638500D01*
X14812500Y-17652786D01*
X14826786Y-17681357D01*
X14841071Y-17738500D01*
X14841071Y-17809929D01*
X14826786Y-17867072D01*
X14812500Y-17895643D01*
X14798214Y-17909929D01*
X14769643Y-17924214D01*
X14741071Y-17924214D01*
X14712500Y-17909929D01*
X14698214Y-17895643D01*
X14683928Y-17867072D01*
X14669643Y-17809929D01*
X14669643Y-17738500D01*
X14683928Y-17681357D01*
X14698214Y-17652786D01*
X14712500Y-17638500D01*
X14741071Y-17624214D01*
X15112500Y-17624214D02*
X14969643Y-17624214D01*
X14955357Y-17767072D01*
X14969643Y-17752786D01*
X14998214Y-17738500D01*
X15069643Y-17738500D01*
X15098214Y-17752786D01*
X15112500Y-17767072D01*
X15126786Y-17795643D01*
X15126786Y-17867072D01*
X15112500Y-17895643D01*
X15098214Y-17909929D01*
X15069643Y-17924214D01*
X14998214Y-17924214D01*
X14969643Y-17909929D01*
X14955357Y-17895643D01*
X15412500Y-17924214D02*
X15241071Y-17924214D01*
X15326786Y-17924214D02*
X15326786Y-17624214D01*
X15298214Y-17667072D01*
X15269643Y-17695643D01*
X15241071Y-17709929D01*
X15526786Y-17624214D02*
X15526786Y-17681357D01*
X15641071Y-17624214D02*
X15641071Y-17681357D01*
X16083928Y-18038500D02*
X16069643Y-18024214D01*
X16041071Y-17981357D01*
X16026786Y-17952786D01*
X16012500Y-17909929D01*
X15998214Y-17838500D01*
X15998214Y-17781357D01*
X16012500Y-17709929D01*
X16026786Y-17667072D01*
X16041071Y-17638500D01*
X16069643Y-17595643D01*
X16083928Y-17581357D01*
X16255357Y-17624214D02*
X16283928Y-17624214D01*
X16312500Y-17638500D01*
X16326786Y-17652786D01*
X16341071Y-17681357D01*
X16355357Y-17738500D01*
X16355357Y-17809929D01*
X16341071Y-17867072D01*
X16326786Y-17895643D01*
X16312500Y-17909929D01*
X16283928Y-17924214D01*
X16255357Y-17924214D01*
X16226786Y-17909929D01*
X16212500Y-17895643D01*
X16198214Y-17867072D01*
X16183928Y-17809929D01*
X16183928Y-17738500D01*
X16198214Y-17681357D01*
X16212500Y-17652786D01*
X16226786Y-17638500D01*
X16255357Y-17624214D01*
X16712500Y-17924214D02*
X16712500Y-17624214D01*
X16841071Y-17924214D02*
X16841071Y-17767072D01*
X16826786Y-17738500D01*
X16798214Y-17724214D01*
X16755357Y-17724214D01*
X16726786Y-17738500D01*
X16712500Y-17752786D01*
X17026786Y-17924214D02*
X16998214Y-17909929D01*
X16983928Y-17895643D01*
X16969643Y-17867072D01*
X16969643Y-17781357D01*
X16983928Y-17752786D01*
X16998214Y-17738500D01*
X17026786Y-17724214D01*
X17069643Y-17724214D01*
X17098214Y-17738500D01*
X17112500Y-17752786D01*
X17126786Y-17781357D01*
X17126786Y-17867072D01*
X17112500Y-17895643D01*
X17098214Y-17909929D01*
X17069643Y-17924214D01*
X17026786Y-17924214D01*
X17298214Y-17924214D02*
X17269643Y-17909929D01*
X17255357Y-17881357D01*
X17255357Y-17624214D01*
X17526786Y-17909929D02*
X17498214Y-17924214D01*
X17441071Y-17924214D01*
X17412500Y-17909929D01*
X17398214Y-17881357D01*
X17398214Y-17767072D01*
X17412500Y-17738500D01*
X17441071Y-17724214D01*
X17498214Y-17724214D01*
X17526786Y-17738500D01*
X17541071Y-17767072D01*
X17541071Y-17795643D01*
X17398214Y-17824214D01*
X17655357Y-17909929D02*
X17683928Y-17924214D01*
X17741071Y-17924214D01*
X17769643Y-17909929D01*
X17783928Y-17881357D01*
X17783928Y-17867072D01*
X17769643Y-17838500D01*
X17741071Y-17824214D01*
X17698214Y-17824214D01*
X17669643Y-17809929D01*
X17655357Y-17781357D01*
X17655357Y-17767072D01*
X17669643Y-17738500D01*
X17698214Y-17724214D01*
X17741071Y-17724214D01*
X17769643Y-17738500D01*
X18141071Y-17809929D02*
X18369643Y-17809929D01*
X18255357Y-17924214D02*
X18255357Y-17695643D01*
X18712500Y-17624214D02*
X18898214Y-17624214D01*
X18798214Y-17738500D01*
X18841071Y-17738500D01*
X18869643Y-17752786D01*
X18883928Y-17767072D01*
X18898214Y-17795643D01*
X18898214Y-17867072D01*
X18883928Y-17895643D01*
X18869643Y-17909929D01*
X18841071Y-17924214D01*
X18755357Y-17924214D01*
X18726786Y-17909929D01*
X18712500Y-17895643D01*
X19241071Y-17909929D02*
X19269643Y-17924214D01*
X19326786Y-17924214D01*
X19355357Y-17909929D01*
X19369643Y-17881357D01*
X19369643Y-17867072D01*
X19355357Y-17838500D01*
X19326786Y-17824214D01*
X19283928Y-17824214D01*
X19255357Y-17809929D01*
X19241071Y-17781357D01*
X19241071Y-17767072D01*
X19255357Y-17738500D01*
X19283928Y-17724214D01*
X19326786Y-17724214D01*
X19355357Y-17738500D01*
X19541071Y-17924214D02*
X19512500Y-17909929D01*
X19498214Y-17881357D01*
X19498214Y-17624214D01*
X19698214Y-17924214D02*
X19669643Y-17909929D01*
X19655357Y-17895643D01*
X19641071Y-17867072D01*
X19641071Y-17781357D01*
X19655357Y-17752786D01*
X19669643Y-17738500D01*
X19698214Y-17724214D01*
X19741071Y-17724214D01*
X19769643Y-17738500D01*
X19783928Y-17752786D01*
X19798214Y-17781357D01*
X19798214Y-17867072D01*
X19783928Y-17895643D01*
X19769643Y-17909929D01*
X19741071Y-17924214D01*
X19698214Y-17924214D01*
X19883928Y-17724214D02*
X19998214Y-17724214D01*
X19926786Y-17624214D02*
X19926786Y-17881357D01*
X19941071Y-17909929D01*
X19969643Y-17924214D01*
X19998214Y-17924214D01*
X20083928Y-17909929D02*
X20112500Y-17924214D01*
X20169643Y-17924214D01*
X20198214Y-17909929D01*
X20212500Y-17881357D01*
X20212500Y-17867072D01*
X20198214Y-17838500D01*
X20169643Y-17824214D01*
X20126786Y-17824214D01*
X20098214Y-17809929D01*
X20083928Y-17781357D01*
X20083928Y-17767072D01*
X20098214Y-17738500D01*
X20126786Y-17724214D01*
X20169643Y-17724214D01*
X20198214Y-17738500D01*
X20312500Y-18038500D02*
X20326786Y-18024214D01*
X20355357Y-17981357D01*
X20369643Y-17952786D01*
X20383928Y-17909929D01*
X20398214Y-17838500D01*
X20398214Y-17781357D01*
X20383928Y-17709929D01*
X20369643Y-17667072D01*
X20355357Y-17638500D01*
X20326786Y-17595643D01*
X20312500Y-17581357D01*
X11265500Y-18118500D02*
X11397500Y-18250500D01*
X11397500Y-18118500D02*
X11265500Y-18250500D01*
X11378169Y-18231170D02*
X11378169Y-18137831D01*
X11284830Y-18137831D01*
X11284830Y-18231170D01*
X11378169Y-18231170D01*
X11841071Y-18320214D02*
X11669643Y-18320214D01*
X11755357Y-18320214D02*
X11755357Y-18020214D01*
X11726786Y-18063072D01*
X11698214Y-18091643D01*
X11669643Y-18105929D01*
X11969643Y-18291643D02*
X11983928Y-18305929D01*
X11969643Y-18320214D01*
X11955357Y-18305929D01*
X11969643Y-18291643D01*
X11969643Y-18320214D01*
X12083928Y-18020214D02*
X12269643Y-18020214D01*
X12169643Y-18134500D01*
X12212500Y-18134500D01*
X12241071Y-18148786D01*
X12255357Y-18163072D01*
X12269643Y-18191643D01*
X12269643Y-18263072D01*
X12255357Y-18291643D01*
X12241071Y-18305929D01*
X12212500Y-18320214D01*
X12126786Y-18320214D01*
X12098214Y-18305929D01*
X12083928Y-18291643D01*
X12383928Y-18048786D02*
X12398214Y-18034500D01*
X12426786Y-18020214D01*
X12498214Y-18020214D01*
X12526786Y-18034500D01*
X12541071Y-18048786D01*
X12555357Y-18077357D01*
X12555357Y-18105929D01*
X12541071Y-18148786D01*
X12369643Y-18320214D01*
X12555357Y-18320214D01*
X12683928Y-18320214D02*
X12683928Y-18120214D01*
X12683928Y-18148786D02*
X12698214Y-18134500D01*
X12726786Y-18120214D01*
X12769643Y-18120214D01*
X12798214Y-18134500D01*
X12812500Y-18163072D01*
X12812500Y-18320214D01*
X12812500Y-18163072D02*
X12826786Y-18134500D01*
X12855357Y-18120214D01*
X12898214Y-18120214D01*
X12926786Y-18134500D01*
X12941071Y-18163072D01*
X12941071Y-18320214D01*
X13083928Y-18320214D02*
X13083928Y-18120214D01*
X13083928Y-18148786D02*
X13098214Y-18134500D01*
X13126786Y-18120214D01*
X13169643Y-18120214D01*
X13198214Y-18134500D01*
X13212500Y-18163072D01*
X13212500Y-18320214D01*
X13212500Y-18163072D02*
X13226786Y-18134500D01*
X13255357Y-18120214D01*
X13298214Y-18120214D01*
X13326786Y-18134500D01*
X13341071Y-18163072D01*
X13341071Y-18320214D01*
X13926786Y-18005929D02*
X13669643Y-18391643D01*
X14312500Y-18020214D02*
X14341071Y-18020214D01*
X14369643Y-18034500D01*
X14383928Y-18048786D01*
X14398214Y-18077357D01*
X14412500Y-18134500D01*
X14412500Y-18205929D01*
X14398214Y-18263072D01*
X14383928Y-18291643D01*
X14369643Y-18305929D01*
X14341071Y-18320214D01*
X14312500Y-18320214D01*
X14283928Y-18305929D01*
X14269643Y-18291643D01*
X14255357Y-18263072D01*
X14241071Y-18205929D01*
X14241071Y-18134500D01*
X14255357Y-18077357D01*
X14269643Y-18048786D01*
X14283928Y-18034500D01*
X14312500Y-18020214D01*
X14541071Y-18291643D02*
X14555357Y-18305929D01*
X14541071Y-18320214D01*
X14526786Y-18305929D01*
X14541071Y-18291643D01*
X14541071Y-18320214D01*
X14741071Y-18020214D02*
X14769643Y-18020214D01*
X14798214Y-18034500D01*
X14812500Y-18048786D01*
X14826786Y-18077357D01*
X14841071Y-18134500D01*
X14841071Y-18205929D01*
X14826786Y-18263072D01*
X14812500Y-18291643D01*
X14798214Y-18305929D01*
X14769643Y-18320214D01*
X14741071Y-18320214D01*
X14712500Y-18305929D01*
X14698214Y-18291643D01*
X14683928Y-18263072D01*
X14669643Y-18205929D01*
X14669643Y-18134500D01*
X14683928Y-18077357D01*
X14698214Y-18048786D01*
X14712500Y-18034500D01*
X14741071Y-18020214D01*
X15112500Y-18020214D02*
X14969643Y-18020214D01*
X14955357Y-18163072D01*
X14969643Y-18148786D01*
X14998214Y-18134500D01*
X15069643Y-18134500D01*
X15098214Y-18148786D01*
X15112500Y-18163072D01*
X15126786Y-18191643D01*
X15126786Y-18263072D01*
X15112500Y-18291643D01*
X15098214Y-18305929D01*
X15069643Y-18320214D01*
X14998214Y-18320214D01*
X14969643Y-18305929D01*
X14955357Y-18291643D01*
X15241071Y-18048786D02*
X15255357Y-18034500D01*
X15283928Y-18020214D01*
X15355357Y-18020214D01*
X15383928Y-18034500D01*
X15398214Y-18048786D01*
X15412500Y-18077357D01*
X15412500Y-18105929D01*
X15398214Y-18148786D01*
X15226786Y-18320214D01*
X15412500Y-18320214D01*
X15526786Y-18020214D02*
X15526786Y-18077357D01*
X15641071Y-18020214D02*
X15641071Y-18077357D01*
X16083928Y-18434500D02*
X16069643Y-18420214D01*
X16041071Y-18377357D01*
X16026786Y-18348786D01*
X16012500Y-18305929D01*
X15998214Y-18234500D01*
X15998214Y-18177357D01*
X16012500Y-18105929D01*
X16026786Y-18063072D01*
X16041071Y-18034500D01*
X16069643Y-17991643D01*
X16083928Y-17977357D01*
X16326786Y-18120214D02*
X16326786Y-18320214D01*
X16255357Y-18005929D02*
X16183928Y-18220214D01*
X16369643Y-18220214D01*
X16712500Y-18320214D02*
X16712500Y-18020214D01*
X16841071Y-18320214D02*
X16841071Y-18163072D01*
X16826786Y-18134500D01*
X16798214Y-18120214D01*
X16755357Y-18120214D01*
X16726786Y-18134500D01*
X16712500Y-18148786D01*
X17026786Y-18320214D02*
X16998214Y-18305929D01*
X16983928Y-18291643D01*
X16969643Y-18263072D01*
X16969643Y-18177357D01*
X16983928Y-18148786D01*
X16998214Y-18134500D01*
X17026786Y-18120214D01*
X17069643Y-18120214D01*
X17098214Y-18134500D01*
X17112500Y-18148786D01*
X17126786Y-18177357D01*
X17126786Y-18263072D01*
X17112500Y-18291643D01*
X17098214Y-18305929D01*
X17069643Y-18320214D01*
X17026786Y-18320214D01*
X17298214Y-18320214D02*
X17269643Y-18305929D01*
X17255357Y-18277357D01*
X17255357Y-18020214D01*
X17526786Y-18305929D02*
X17498214Y-18320214D01*
X17441071Y-18320214D01*
X17412500Y-18305929D01*
X17398214Y-18277357D01*
X17398214Y-18163072D01*
X17412500Y-18134500D01*
X17441071Y-18120214D01*
X17498214Y-18120214D01*
X17526786Y-18134500D01*
X17541071Y-18163072D01*
X17541071Y-18191643D01*
X17398214Y-18220214D01*
X17655357Y-18305929D02*
X17683928Y-18320214D01*
X17741071Y-18320214D01*
X17769643Y-18305929D01*
X17783928Y-18277357D01*
X17783928Y-18263072D01*
X17769643Y-18234500D01*
X17741071Y-18220214D01*
X17698214Y-18220214D01*
X17669643Y-18205929D01*
X17655357Y-18177357D01*
X17655357Y-18163072D01*
X17669643Y-18134500D01*
X17698214Y-18120214D01*
X17741071Y-18120214D01*
X17769643Y-18134500D01*
X17883928Y-18434500D02*
X17898214Y-18420214D01*
X17926786Y-18377357D01*
X17941071Y-18348786D01*
X17955357Y-18305929D01*
X17969643Y-18234500D01*
X17969643Y-18177357D01*
X17955357Y-18105929D01*
X17941071Y-18063072D01*
X17926786Y-18034500D01*
X17898214Y-17991643D01*
X17883928Y-17977357D01*
X11247500Y-18505500D02*
X11397500Y-18655500D01*
X11397500Y-18505500D02*
X11247500Y-18655500D01*
X11322500Y-18655500D02*
X11397500Y-18580500D01*
X11322500Y-18505500D01*
X11247500Y-18580500D01*
X11322500Y-18655500D01*
X11841071Y-18716214D02*
X11669643Y-18716214D01*
X11755357Y-18716214D02*
X11755357Y-18416214D01*
X11726786Y-18459072D01*
X11698214Y-18487643D01*
X11669643Y-18501929D01*
X11969643Y-18687643D02*
X11983928Y-18701929D01*
X11969643Y-18716214D01*
X11955357Y-18701929D01*
X11969643Y-18687643D01*
X11969643Y-18716214D01*
X12255357Y-18416214D02*
X12112500Y-18416214D01*
X12098214Y-18559072D01*
X12112500Y-18544786D01*
X12141071Y-18530500D01*
X12212500Y-18530500D01*
X12241071Y-18544786D01*
X12255357Y-18559072D01*
X12269643Y-18587643D01*
X12269643Y-18659072D01*
X12255357Y-18687643D01*
X12241071Y-18701929D01*
X12212500Y-18716214D01*
X12141071Y-18716214D01*
X12112500Y-18701929D01*
X12098214Y-18687643D01*
X12455357Y-18416214D02*
X12483928Y-18416214D01*
X12512500Y-18430500D01*
X12526786Y-18444786D01*
X12541071Y-18473357D01*
X12555357Y-18530500D01*
X12555357Y-18601929D01*
X12541071Y-18659072D01*
X12526786Y-18687643D01*
X12512500Y-18701929D01*
X12483928Y-18716214D01*
X12455357Y-18716214D01*
X12426786Y-18701929D01*
X12412500Y-18687643D01*
X12398214Y-18659072D01*
X12383928Y-18601929D01*
X12383928Y-18530500D01*
X12398214Y-18473357D01*
X12412500Y-18444786D01*
X12426786Y-18430500D01*
X12455357Y-18416214D01*
X12683928Y-18716214D02*
X12683928Y-18516214D01*
X12683928Y-18544786D02*
X12698214Y-18530500D01*
X12726786Y-18516214D01*
X12769643Y-18516214D01*
X12798214Y-18530500D01*
X12812500Y-18559072D01*
X12812500Y-18716214D01*
X12812500Y-18559072D02*
X12826786Y-18530500D01*
X12855357Y-18516214D01*
X12898214Y-18516214D01*
X12926786Y-18530500D01*
X12941071Y-18559072D01*
X12941071Y-18716214D01*
X13083928Y-18716214D02*
X13083928Y-18516214D01*
X13083928Y-18544786D02*
X13098214Y-18530500D01*
X13126786Y-18516214D01*
X13169643Y-18516214D01*
X13198214Y-18530500D01*
X13212500Y-18559072D01*
X13212500Y-18716214D01*
X13212500Y-18559072D02*
X13226786Y-18530500D01*
X13255357Y-18516214D01*
X13298214Y-18516214D01*
X13326786Y-18530500D01*
X13341071Y-18559072D01*
X13341071Y-18716214D01*
X13926786Y-18401929D02*
X13669643Y-18787643D01*
X14312500Y-18416214D02*
X14341071Y-18416214D01*
X14369643Y-18430500D01*
X14383928Y-18444786D01*
X14398214Y-18473357D01*
X14412500Y-18530500D01*
X14412500Y-18601929D01*
X14398214Y-18659072D01*
X14383928Y-18687643D01*
X14369643Y-18701929D01*
X14341071Y-18716214D01*
X14312500Y-18716214D01*
X14283928Y-18701929D01*
X14269643Y-18687643D01*
X14255357Y-18659072D01*
X14241071Y-18601929D01*
X14241071Y-18530500D01*
X14255357Y-18473357D01*
X14269643Y-18444786D01*
X14283928Y-18430500D01*
X14312500Y-18416214D01*
X14541071Y-18687643D02*
X14555357Y-18701929D01*
X14541071Y-18716214D01*
X14526786Y-18701929D01*
X14541071Y-18687643D01*
X14541071Y-18716214D01*
X14741071Y-18416214D02*
X14769643Y-18416214D01*
X14798214Y-18430500D01*
X14812500Y-18444786D01*
X14826786Y-18473357D01*
X14841071Y-18530500D01*
X14841071Y-18601929D01*
X14826786Y-18659072D01*
X14812500Y-18687643D01*
X14798214Y-18701929D01*
X14769643Y-18716214D01*
X14741071Y-18716214D01*
X14712500Y-18701929D01*
X14698214Y-18687643D01*
X14683928Y-18659072D01*
X14669643Y-18601929D01*
X14669643Y-18530500D01*
X14683928Y-18473357D01*
X14698214Y-18444786D01*
X14712500Y-18430500D01*
X14741071Y-18416214D01*
X15112500Y-18416214D02*
X14969643Y-18416214D01*
X14955357Y-18559072D01*
X14969643Y-18544786D01*
X14998214Y-18530500D01*
X15069643Y-18530500D01*
X15098214Y-18544786D01*
X15112500Y-18559072D01*
X15126786Y-18587643D01*
X15126786Y-18659072D01*
X15112500Y-18687643D01*
X15098214Y-18701929D01*
X15069643Y-18716214D01*
X14998214Y-18716214D01*
X14969643Y-18701929D01*
X14955357Y-18687643D01*
X15269643Y-18716214D02*
X15326786Y-18716214D01*
X15355357Y-18701929D01*
X15369643Y-18687643D01*
X15398214Y-18644786D01*
X15412500Y-18587643D01*
X15412500Y-18473357D01*
X15398214Y-18444786D01*
X15383928Y-18430500D01*
X15355357Y-18416214D01*
X15298214Y-18416214D01*
X15269643Y-18430500D01*
X15255357Y-18444786D01*
X15241071Y-18473357D01*
X15241071Y-18544786D01*
X15255357Y-18573357D01*
X15269643Y-18587643D01*
X15298214Y-18601929D01*
X15355357Y-18601929D01*
X15383928Y-18587643D01*
X15398214Y-18573357D01*
X15412500Y-18544786D01*
X15526786Y-18416214D02*
X15526786Y-18473357D01*
X15641071Y-18416214D02*
X15641071Y-18473357D01*
X16083928Y-18830500D02*
X16069643Y-18816214D01*
X16041071Y-18773357D01*
X16026786Y-18744786D01*
X16012500Y-18701929D01*
X15998214Y-18630500D01*
X15998214Y-18573357D01*
X16012500Y-18501929D01*
X16026786Y-18459072D01*
X16041071Y-18430500D01*
X16069643Y-18387643D01*
X16083928Y-18373357D01*
X16355357Y-18716214D02*
X16183928Y-18716214D01*
X16269643Y-18716214D02*
X16269643Y-18416214D01*
X16241071Y-18459072D01*
X16212500Y-18487643D01*
X16183928Y-18501929D01*
X16712500Y-18716214D02*
X16712500Y-18416214D01*
X16841071Y-18716214D02*
X16841071Y-18559072D01*
X16826786Y-18530500D01*
X16798214Y-18516214D01*
X16755357Y-18516214D01*
X16726786Y-18530500D01*
X16712500Y-18544786D01*
X17026786Y-18716214D02*
X16998214Y-18701929D01*
X16983928Y-18687643D01*
X16969643Y-18659072D01*
X16969643Y-18573357D01*
X16983928Y-18544786D01*
X16998214Y-18530500D01*
X17026786Y-18516214D01*
X17069643Y-18516214D01*
X17098214Y-18530500D01*
X17112500Y-18544786D01*
X17126786Y-18573357D01*
X17126786Y-18659072D01*
X17112500Y-18687643D01*
X17098214Y-18701929D01*
X17069643Y-18716214D01*
X17026786Y-18716214D01*
X17298214Y-18716214D02*
X17269643Y-18701929D01*
X17255357Y-18673357D01*
X17255357Y-18416214D01*
X17526786Y-18701929D02*
X17498214Y-18716214D01*
X17441071Y-18716214D01*
X17412500Y-18701929D01*
X17398214Y-18673357D01*
X17398214Y-18559072D01*
X17412500Y-18530500D01*
X17441071Y-18516214D01*
X17498214Y-18516214D01*
X17526786Y-18530500D01*
X17541071Y-18559072D01*
X17541071Y-18587643D01*
X17398214Y-18616214D01*
X17641071Y-18830500D02*
X17655357Y-18816214D01*
X17683928Y-18773357D01*
X17698214Y-18744786D01*
X17712500Y-18701929D01*
X17726786Y-18630500D01*
X17726786Y-18573357D01*
X17712500Y-18501929D01*
X17698214Y-18459072D01*
X17683928Y-18430500D01*
X17655357Y-18387643D01*
X17641071Y-18373357D01*
X11297500Y-18876500D02*
X11297500Y-19076500D01*
X11197500Y-18976500D02*
X11397500Y-18976500D01*
X11397500Y-18976500D02*
G75*
G03*
X11397500Y-18976500I-100000J0D01*
G01*
X11669643Y-18840786D02*
X11683928Y-18826500D01*
X11712500Y-18812214D01*
X11783928Y-18812214D01*
X11812500Y-18826500D01*
X11826786Y-18840786D01*
X11841071Y-18869357D01*
X11841071Y-18897929D01*
X11826786Y-18940786D01*
X11655357Y-19112214D01*
X11841071Y-19112214D01*
X11969643Y-19083643D02*
X11983928Y-19097929D01*
X11969643Y-19112214D01*
X11955357Y-19097929D01*
X11969643Y-19083643D01*
X11969643Y-19112214D01*
X12169643Y-18812214D02*
X12198214Y-18812214D01*
X12226786Y-18826500D01*
X12241071Y-18840786D01*
X12255357Y-18869357D01*
X12269643Y-18926500D01*
X12269643Y-18997929D01*
X12255357Y-19055072D01*
X12241071Y-19083643D01*
X12226786Y-19097929D01*
X12198214Y-19112214D01*
X12169643Y-19112214D01*
X12141071Y-19097929D01*
X12126786Y-19083643D01*
X12112500Y-19055072D01*
X12098214Y-18997929D01*
X12098214Y-18926500D01*
X12112500Y-18869357D01*
X12126786Y-18840786D01*
X12141071Y-18826500D01*
X12169643Y-18812214D01*
X12455357Y-18812214D02*
X12483928Y-18812214D01*
X12512500Y-18826500D01*
X12526786Y-18840786D01*
X12541071Y-18869357D01*
X12555357Y-18926500D01*
X12555357Y-18997929D01*
X12541071Y-19055072D01*
X12526786Y-19083643D01*
X12512500Y-19097929D01*
X12483928Y-19112214D01*
X12455357Y-19112214D01*
X12426786Y-19097929D01*
X12412500Y-19083643D01*
X12398214Y-19055072D01*
X12383928Y-18997929D01*
X12383928Y-18926500D01*
X12398214Y-18869357D01*
X12412500Y-18840786D01*
X12426786Y-18826500D01*
X12455357Y-18812214D01*
X12683928Y-19112214D02*
X12683928Y-18912214D01*
X12683928Y-18940786D02*
X12698214Y-18926500D01*
X12726786Y-18912214D01*
X12769643Y-18912214D01*
X12798214Y-18926500D01*
X12812500Y-18955072D01*
X12812500Y-19112214D01*
X12812500Y-18955072D02*
X12826786Y-18926500D01*
X12855357Y-18912214D01*
X12898214Y-18912214D01*
X12926786Y-18926500D01*
X12941071Y-18955072D01*
X12941071Y-19112214D01*
X13083928Y-19112214D02*
X13083928Y-18912214D01*
X13083928Y-18940786D02*
X13098214Y-18926500D01*
X13126786Y-18912214D01*
X13169643Y-18912214D01*
X13198214Y-18926500D01*
X13212500Y-18955072D01*
X13212500Y-19112214D01*
X13212500Y-18955072D02*
X13226786Y-18926500D01*
X13255357Y-18912214D01*
X13298214Y-18912214D01*
X13326786Y-18926500D01*
X13341071Y-18955072D01*
X13341071Y-19112214D01*
X13926786Y-18797929D02*
X13669643Y-19183643D01*
X14312500Y-18812214D02*
X14341071Y-18812214D01*
X14369643Y-18826500D01*
X14383928Y-18840786D01*
X14398214Y-18869357D01*
X14412500Y-18926500D01*
X14412500Y-18997929D01*
X14398214Y-19055072D01*
X14383928Y-19083643D01*
X14369643Y-19097929D01*
X14341071Y-19112214D01*
X14312500Y-19112214D01*
X14283928Y-19097929D01*
X14269643Y-19083643D01*
X14255357Y-19055072D01*
X14241071Y-18997929D01*
X14241071Y-18926500D01*
X14255357Y-18869357D01*
X14269643Y-18840786D01*
X14283928Y-18826500D01*
X14312500Y-18812214D01*
X14541071Y-19083643D02*
X14555357Y-19097929D01*
X14541071Y-19112214D01*
X14526786Y-19097929D01*
X14541071Y-19083643D01*
X14541071Y-19112214D01*
X14741071Y-18812214D02*
X14769643Y-18812214D01*
X14798214Y-18826500D01*
X14812500Y-18840786D01*
X14826786Y-18869357D01*
X14841071Y-18926500D01*
X14841071Y-18997929D01*
X14826786Y-19055072D01*
X14812500Y-19083643D01*
X14798214Y-19097929D01*
X14769643Y-19112214D01*
X14741071Y-19112214D01*
X14712500Y-19097929D01*
X14698214Y-19083643D01*
X14683928Y-19055072D01*
X14669643Y-18997929D01*
X14669643Y-18926500D01*
X14683928Y-18869357D01*
X14698214Y-18840786D01*
X14712500Y-18826500D01*
X14741071Y-18812214D01*
X14941071Y-18812214D02*
X15141071Y-18812214D01*
X15012500Y-19112214D01*
X15269643Y-19112214D02*
X15326786Y-19112214D01*
X15355357Y-19097929D01*
X15369643Y-19083643D01*
X15398214Y-19040786D01*
X15412500Y-18983643D01*
X15412500Y-18869357D01*
X15398214Y-18840786D01*
X15383928Y-18826500D01*
X15355357Y-18812214D01*
X15298214Y-18812214D01*
X15269643Y-18826500D01*
X15255357Y-18840786D01*
X15241071Y-18869357D01*
X15241071Y-18940786D01*
X15255357Y-18969357D01*
X15269643Y-18983643D01*
X15298214Y-18997929D01*
X15355357Y-18997929D01*
X15383928Y-18983643D01*
X15398214Y-18969357D01*
X15412500Y-18940786D01*
X15526786Y-18812214D02*
X15526786Y-18869357D01*
X15641071Y-18812214D02*
X15641071Y-18869357D01*
X16083928Y-19226500D02*
X16069643Y-19212214D01*
X16041071Y-19169357D01*
X16026786Y-19140786D01*
X16012500Y-19097929D01*
X15998214Y-19026500D01*
X15998214Y-18969357D01*
X16012500Y-18897929D01*
X16026786Y-18855072D01*
X16041071Y-18826500D01*
X16069643Y-18783643D01*
X16083928Y-18769357D01*
X16183928Y-18840786D02*
X16198214Y-18826500D01*
X16226786Y-18812214D01*
X16298214Y-18812214D01*
X16326786Y-18826500D01*
X16341071Y-18840786D01*
X16355357Y-18869357D01*
X16355357Y-18897929D01*
X16341071Y-18940786D01*
X16169643Y-19112214D01*
X16355357Y-19112214D01*
X16712500Y-19112214D02*
X16712500Y-18812214D01*
X16841071Y-19112214D02*
X16841071Y-18955072D01*
X16826786Y-18926500D01*
X16798214Y-18912214D01*
X16755357Y-18912214D01*
X16726786Y-18926500D01*
X16712500Y-18940786D01*
X17026786Y-19112214D02*
X16998214Y-19097929D01*
X16983928Y-19083643D01*
X16969643Y-19055072D01*
X16969643Y-18969357D01*
X16983928Y-18940786D01*
X16998214Y-18926500D01*
X17026786Y-18912214D01*
X17069643Y-18912214D01*
X17098214Y-18926500D01*
X17112500Y-18940786D01*
X17126786Y-18969357D01*
X17126786Y-19055072D01*
X17112500Y-19083643D01*
X17098214Y-19097929D01*
X17069643Y-19112214D01*
X17026786Y-19112214D01*
X17298214Y-19112214D02*
X17269643Y-19097929D01*
X17255357Y-19069357D01*
X17255357Y-18812214D01*
X17526786Y-19097929D02*
X17498214Y-19112214D01*
X17441071Y-19112214D01*
X17412500Y-19097929D01*
X17398214Y-19069357D01*
X17398214Y-18955072D01*
X17412500Y-18926500D01*
X17441071Y-18912214D01*
X17498214Y-18912214D01*
X17526786Y-18926500D01*
X17541071Y-18955072D01*
X17541071Y-18983643D01*
X17398214Y-19012214D01*
X17655357Y-19097929D02*
X17683928Y-19112214D01*
X17741071Y-19112214D01*
X17769643Y-19097929D01*
X17783928Y-19069357D01*
X17783928Y-19055072D01*
X17769643Y-19026500D01*
X17741071Y-19012214D01*
X17698214Y-19012214D01*
X17669643Y-18997929D01*
X17655357Y-18969357D01*
X17655357Y-18955072D01*
X17669643Y-18926500D01*
X17698214Y-18912214D01*
X17741071Y-18912214D01*
X17769643Y-18926500D01*
X17883928Y-19226500D02*
X17898214Y-19212214D01*
X17926786Y-19169357D01*
X17941071Y-19140786D01*
X17955357Y-19097929D01*
X17969643Y-19026500D01*
X17969643Y-18969357D01*
X17955357Y-18897929D01*
X17941071Y-18855072D01*
X17926786Y-18826500D01*
X17898214Y-18783643D01*
X17883928Y-18769357D01*
X11353567Y-19478567D02*
X11353567Y-19266433D01*
X11141433Y-19266433D01*
X11141433Y-19478567D01*
X11353567Y-19478567D01*
X11397500Y-19372500D02*
G75*
G03*
X11397500Y-19372500I-150000J0D01*
G01*
X11655357Y-19208214D02*
X11841071Y-19208214D01*
X11741071Y-19322500D01*
X11783928Y-19322500D01*
X11812500Y-19336786D01*
X11826786Y-19351072D01*
X11841071Y-19379643D01*
X11841071Y-19451072D01*
X11826786Y-19479643D01*
X11812500Y-19493929D01*
X11783928Y-19508214D01*
X11698214Y-19508214D01*
X11669643Y-19493929D01*
X11655357Y-19479643D01*
X11969643Y-19479643D02*
X11983928Y-19493929D01*
X11969643Y-19508214D01*
X11955357Y-19493929D01*
X11969643Y-19479643D01*
X11969643Y-19508214D01*
X12169643Y-19208214D02*
X12198214Y-19208214D01*
X12226786Y-19222500D01*
X12241071Y-19236786D01*
X12255357Y-19265357D01*
X12269643Y-19322500D01*
X12269643Y-19393929D01*
X12255357Y-19451072D01*
X12241071Y-19479643D01*
X12226786Y-19493929D01*
X12198214Y-19508214D01*
X12169643Y-19508214D01*
X12141071Y-19493929D01*
X12126786Y-19479643D01*
X12112500Y-19451072D01*
X12098214Y-19393929D01*
X12098214Y-19322500D01*
X12112500Y-19265357D01*
X12126786Y-19236786D01*
X12141071Y-19222500D01*
X12169643Y-19208214D01*
X12455357Y-19208214D02*
X12483928Y-19208214D01*
X12512500Y-19222500D01*
X12526786Y-19236786D01*
X12541071Y-19265357D01*
X12555357Y-19322500D01*
X12555357Y-19393929D01*
X12541071Y-19451072D01*
X12526786Y-19479643D01*
X12512500Y-19493929D01*
X12483928Y-19508214D01*
X12455357Y-19508214D01*
X12426786Y-19493929D01*
X12412500Y-19479643D01*
X12398214Y-19451072D01*
X12383928Y-19393929D01*
X12383928Y-19322500D01*
X12398214Y-19265357D01*
X12412500Y-19236786D01*
X12426786Y-19222500D01*
X12455357Y-19208214D01*
X12683928Y-19508214D02*
X12683928Y-19308214D01*
X12683928Y-19336786D02*
X12698214Y-19322500D01*
X12726786Y-19308214D01*
X12769643Y-19308214D01*
X12798214Y-19322500D01*
X12812500Y-19351072D01*
X12812500Y-19508214D01*
X12812500Y-19351072D02*
X12826786Y-19322500D01*
X12855357Y-19308214D01*
X12898214Y-19308214D01*
X12926786Y-19322500D01*
X12941071Y-19351072D01*
X12941071Y-19508214D01*
X13083928Y-19508214D02*
X13083928Y-19308214D01*
X13083928Y-19336786D02*
X13098214Y-19322500D01*
X13126786Y-19308214D01*
X13169643Y-19308214D01*
X13198214Y-19322500D01*
X13212500Y-19351072D01*
X13212500Y-19508214D01*
X13212500Y-19351072D02*
X13226786Y-19322500D01*
X13255357Y-19308214D01*
X13298214Y-19308214D01*
X13326786Y-19322500D01*
X13341071Y-19351072D01*
X13341071Y-19508214D01*
X13926786Y-19193929D02*
X13669643Y-19579643D01*
X14312500Y-19208214D02*
X14341071Y-19208214D01*
X14369643Y-19222500D01*
X14383928Y-19236786D01*
X14398214Y-19265357D01*
X14412500Y-19322500D01*
X14412500Y-19393929D01*
X14398214Y-19451072D01*
X14383928Y-19479643D01*
X14369643Y-19493929D01*
X14341071Y-19508214D01*
X14312500Y-19508214D01*
X14283928Y-19493929D01*
X14269643Y-19479643D01*
X14255357Y-19451072D01*
X14241071Y-19393929D01*
X14241071Y-19322500D01*
X14255357Y-19265357D01*
X14269643Y-19236786D01*
X14283928Y-19222500D01*
X14312500Y-19208214D01*
X14541071Y-19479643D02*
X14555357Y-19493929D01*
X14541071Y-19508214D01*
X14526786Y-19493929D01*
X14541071Y-19479643D01*
X14541071Y-19508214D01*
X14841071Y-19508214D02*
X14669643Y-19508214D01*
X14755357Y-19508214D02*
X14755357Y-19208214D01*
X14726786Y-19251072D01*
X14698214Y-19279643D01*
X14669643Y-19293929D01*
X15126786Y-19508214D02*
X14955357Y-19508214D01*
X15041071Y-19508214D02*
X15041071Y-19208214D01*
X15012500Y-19251072D01*
X14983928Y-19279643D01*
X14955357Y-19293929D01*
X15298214Y-19336786D02*
X15269643Y-19322500D01*
X15255357Y-19308214D01*
X15241071Y-19279643D01*
X15241071Y-19265357D01*
X15255357Y-19236786D01*
X15269643Y-19222500D01*
X15298214Y-19208214D01*
X15355357Y-19208214D01*
X15383928Y-19222500D01*
X15398214Y-19236786D01*
X15412500Y-19265357D01*
X15412500Y-19279643D01*
X15398214Y-19308214D01*
X15383928Y-19322500D01*
X15355357Y-19336786D01*
X15298214Y-19336786D01*
X15269643Y-19351072D01*
X15255357Y-19365357D01*
X15241071Y-19393929D01*
X15241071Y-19451072D01*
X15255357Y-19479643D01*
X15269643Y-19493929D01*
X15298214Y-19508214D01*
X15355357Y-19508214D01*
X15383928Y-19493929D01*
X15398214Y-19479643D01*
X15412500Y-19451072D01*
X15412500Y-19393929D01*
X15398214Y-19365357D01*
X15383928Y-19351072D01*
X15355357Y-19336786D01*
X15526786Y-19208214D02*
X15526786Y-19265357D01*
X15641071Y-19208214D02*
X15641071Y-19265357D01*
X16083928Y-19622500D02*
X16069643Y-19608214D01*
X16041071Y-19565357D01*
X16026786Y-19536786D01*
X16012500Y-19493929D01*
X15998214Y-19422500D01*
X15998214Y-19365357D01*
X16012500Y-19293929D01*
X16026786Y-19251072D01*
X16041071Y-19222500D01*
X16069643Y-19179643D01*
X16083928Y-19165357D01*
X16355357Y-19508214D02*
X16183928Y-19508214D01*
X16269643Y-19508214D02*
X16269643Y-19208214D01*
X16241071Y-19251072D01*
X16212500Y-19279643D01*
X16183928Y-19293929D01*
X16712500Y-19508214D02*
X16712500Y-19208214D01*
X16841071Y-19508214D02*
X16841071Y-19351072D01*
X16826786Y-19322500D01*
X16798214Y-19308214D01*
X16755357Y-19308214D01*
X16726786Y-19322500D01*
X16712500Y-19336786D01*
X17026786Y-19508214D02*
X16998214Y-19493929D01*
X16983928Y-19479643D01*
X16969643Y-19451072D01*
X16969643Y-19365357D01*
X16983928Y-19336786D01*
X16998214Y-19322500D01*
X17026786Y-19308214D01*
X17069643Y-19308214D01*
X17098214Y-19322500D01*
X17112500Y-19336786D01*
X17126786Y-19365357D01*
X17126786Y-19451072D01*
X17112500Y-19479643D01*
X17098214Y-19493929D01*
X17069643Y-19508214D01*
X17026786Y-19508214D01*
X17298214Y-19508214D02*
X17269643Y-19493929D01*
X17255357Y-19465357D01*
X17255357Y-19208214D01*
X17526786Y-19493929D02*
X17498214Y-19508214D01*
X17441071Y-19508214D01*
X17412500Y-19493929D01*
X17398214Y-19465357D01*
X17398214Y-19351072D01*
X17412500Y-19322500D01*
X17441071Y-19308214D01*
X17498214Y-19308214D01*
X17526786Y-19322500D01*
X17541071Y-19351072D01*
X17541071Y-19379643D01*
X17398214Y-19408214D01*
X17641071Y-19622500D02*
X17655357Y-19608214D01*
X17683928Y-19565357D01*
X17698214Y-19536786D01*
X17712500Y-19493929D01*
X17726786Y-19422500D01*
X17726786Y-19365357D01*
X17712500Y-19293929D01*
X17698214Y-19251072D01*
X17683928Y-19222500D01*
X17655357Y-19179643D01*
X17641071Y-19165357D01*
M02*
