%TF.GenerationSoftware,KiCad,Pcbnew,(5.1.6)-1*%
%TF.CreationDate,2022-08-11T18:16:32+02:00*%
%TF.ProjectId,ZumoComSystem,5a756d6f-436f-46d5-9379-7374656d2e6b,V1.1*%
%TF.SameCoordinates,Original*%
%TF.FileFunction,Legend,Top*%
%TF.FilePolarity,Positive*%
%FSLAX46Y46*%
G04 Gerber Fmt 4.6, Leading zero omitted, Abs format (unit mm)*
G04 Created by KiCad (PCBNEW (5.1.6)-1) date 2022-08-11 18:16:32*
%MOMM*%
%LPD*%
G01*
G04 APERTURE LIST*
%ADD10C,0.300000*%
%ADD11C,0.120000*%
%ADD12C,0.150000*%
%ADD13C,0.200000*%
%ADD14C,0.127000*%
%ADD15C,0.010000*%
G04 APERTURE END LIST*
D10*
X150335714Y-104538571D02*
X150648214Y-106038571D01*
X151335714Y-104538571D01*
X152433928Y-106038571D02*
X151576785Y-106038571D01*
X152005357Y-106038571D02*
X152192857Y-104538571D01*
X152023214Y-104752857D01*
X151862500Y-104895714D01*
X151710714Y-104967142D01*
X153094642Y-105895714D02*
X153157142Y-105967142D01*
X153076785Y-106038571D01*
X153014285Y-105967142D01*
X153094642Y-105895714D01*
X153076785Y-106038571D01*
X154576785Y-106038571D02*
X153719642Y-106038571D01*
X154148214Y-106038571D02*
X154335714Y-104538571D01*
X154166071Y-104752857D01*
X154005357Y-104895714D01*
X153853571Y-104967142D01*
D11*
X141800000Y-88600000D02*
X141800000Y-88800000D01*
X142500000Y-91600000D02*
X141800000Y-91600000D01*
X142500000Y-88600000D02*
X141800000Y-88600000D01*
D12*
X143142857Y-88528571D02*
X143285714Y-88576190D01*
X143333333Y-88623809D01*
X143380952Y-88719047D01*
X143380952Y-88861904D01*
X143333333Y-88957142D01*
X143285714Y-89004761D01*
X143190476Y-89052380D01*
X142809523Y-89052380D01*
X142809523Y-88052380D01*
X143142857Y-88052380D01*
X143238095Y-88100000D01*
X143285714Y-88147619D01*
X143333333Y-88242857D01*
X143333333Y-88338095D01*
X143285714Y-88433333D01*
X143238095Y-88480952D01*
X143142857Y-88528571D01*
X142809523Y-88528571D01*
X143761904Y-88766666D02*
X144238095Y-88766666D01*
X143666666Y-89052380D02*
X144000000Y-88052380D01*
X144333333Y-89052380D01*
X144523809Y-88052380D02*
X145095238Y-88052380D01*
X144809523Y-89052380D02*
X144809523Y-88052380D01*
X145428571Y-88671428D02*
X146190476Y-88671428D01*
X143142857Y-91528571D02*
X143285714Y-91576190D01*
X143333333Y-91623809D01*
X143380952Y-91719047D01*
X143380952Y-91861904D01*
X143333333Y-91957142D01*
X143285714Y-92004761D01*
X143190476Y-92052380D01*
X142809523Y-92052380D01*
X142809523Y-91052380D01*
X143142857Y-91052380D01*
X143238095Y-91100000D01*
X143285714Y-91147619D01*
X143333333Y-91242857D01*
X143333333Y-91338095D01*
X143285714Y-91433333D01*
X143238095Y-91480952D01*
X143142857Y-91528571D01*
X142809523Y-91528571D01*
X143761904Y-91766666D02*
X144238095Y-91766666D01*
X143666666Y-92052380D02*
X144000000Y-91052380D01*
X144333333Y-92052380D01*
X144523809Y-91052380D02*
X145095238Y-91052380D01*
X144809523Y-92052380D02*
X144809523Y-91052380D01*
X145428571Y-91671428D02*
X146190476Y-91671428D01*
X145809523Y-92052380D02*
X145809523Y-91290476D01*
X132480952Y-142311904D02*
X132633333Y-142311904D01*
X132709523Y-142350000D01*
X132785714Y-142426190D01*
X132823809Y-142578571D01*
X132823809Y-142845238D01*
X132785714Y-142997619D01*
X132709523Y-143073809D01*
X132633333Y-143111904D01*
X132480952Y-143111904D01*
X132404761Y-143073809D01*
X132328571Y-142997619D01*
X132290476Y-142845238D01*
X132290476Y-142578571D01*
X132328571Y-142426190D01*
X132404761Y-142350000D01*
X132480952Y-142311904D01*
X133433333Y-142692857D02*
X133166666Y-142692857D01*
X133166666Y-143111904D02*
X133166666Y-142311904D01*
X133547619Y-142311904D01*
X134119047Y-142692857D02*
X133852380Y-142692857D01*
X133852380Y-143111904D02*
X133852380Y-142311904D01*
X134233333Y-142311904D01*
X135109523Y-142273809D02*
X134423809Y-143302380D01*
X135528571Y-142311904D02*
X135680952Y-142311904D01*
X135757142Y-142350000D01*
X135833333Y-142426190D01*
X135871428Y-142578571D01*
X135871428Y-142845238D01*
X135833333Y-142997619D01*
X135757142Y-143073809D01*
X135680952Y-143111904D01*
X135528571Y-143111904D01*
X135452380Y-143073809D01*
X135376190Y-142997619D01*
X135338095Y-142845238D01*
X135338095Y-142578571D01*
X135376190Y-142426190D01*
X135452380Y-142350000D01*
X135528571Y-142311904D01*
X136214285Y-143111904D02*
X136214285Y-142311904D01*
X136671428Y-143111904D01*
X136671428Y-142311904D01*
X130957142Y-137823809D02*
X131071428Y-137861904D01*
X131261904Y-137861904D01*
X131338095Y-137823809D01*
X131376190Y-137785714D01*
X131414285Y-137709523D01*
X131414285Y-137633333D01*
X131376190Y-137557142D01*
X131338095Y-137519047D01*
X131261904Y-137480952D01*
X131109523Y-137442857D01*
X131033333Y-137404761D01*
X130995238Y-137366666D01*
X130957142Y-137290476D01*
X130957142Y-137214285D01*
X130995238Y-137138095D01*
X131033333Y-137100000D01*
X131109523Y-137061904D01*
X131300000Y-137061904D01*
X131414285Y-137100000D01*
X131642857Y-137061904D02*
X132100000Y-137061904D01*
X131871428Y-137861904D02*
X131871428Y-137061904D01*
X132328571Y-137633333D02*
X132709523Y-137633333D01*
X132252380Y-137861904D02*
X132519047Y-137061904D01*
X132785714Y-137861904D01*
X132938095Y-137061904D02*
X133395238Y-137061904D01*
X133166666Y-137861904D02*
X133166666Y-137061904D01*
X133661904Y-137442857D02*
X133928571Y-137442857D01*
X134042857Y-137861904D02*
X133661904Y-137861904D01*
X133661904Y-137061904D01*
X134042857Y-137061904D01*
D11*
X114000000Y-58000000D02*
X139400000Y-58000000D01*
D12*
X177301189Y-136452142D02*
X177253570Y-136499761D01*
X177110713Y-136547380D01*
X177015475Y-136547380D01*
X176872618Y-136499761D01*
X176777380Y-136404523D01*
X176729761Y-136309285D01*
X176682142Y-136118809D01*
X176682142Y-135975952D01*
X176729761Y-135785476D01*
X176777380Y-135690238D01*
X176872618Y-135595000D01*
X177015475Y-135547380D01*
X177110713Y-135547380D01*
X177253570Y-135595000D01*
X177301189Y-135642619D01*
X170098928Y-136023571D02*
X170241785Y-136071190D01*
X170289404Y-136118809D01*
X170337023Y-136214047D01*
X170337023Y-136356904D01*
X170289404Y-136452142D01*
X170241785Y-136499761D01*
X170146547Y-136547380D01*
X169765595Y-136547380D01*
X169765595Y-135547380D01*
X170098928Y-135547380D01*
X170194166Y-135595000D01*
X170241785Y-135642619D01*
X170289404Y-135737857D01*
X170289404Y-135833095D01*
X170241785Y-135928333D01*
X170194166Y-135975952D01*
X170098928Y-136023571D01*
X169765595Y-136023571D01*
X162911904Y-136261666D02*
X163388095Y-136261666D01*
X162816666Y-136547380D02*
X163150000Y-135547380D01*
X163483333Y-136547380D01*
D11*
X115741666Y-143041666D02*
X115408333Y-143275000D01*
X115741666Y-143441666D02*
X115041666Y-143441666D01*
X115041666Y-143175000D01*
X115075000Y-143108333D01*
X115108333Y-143075000D01*
X115175000Y-143041666D01*
X115275000Y-143041666D01*
X115341666Y-143075000D01*
X115375000Y-143108333D01*
X115408333Y-143175000D01*
X115408333Y-143441666D01*
X115708333Y-142775000D02*
X115741666Y-142675000D01*
X115741666Y-142508333D01*
X115708333Y-142441666D01*
X115675000Y-142408333D01*
X115608333Y-142375000D01*
X115541666Y-142375000D01*
X115475000Y-142408333D01*
X115441666Y-142441666D01*
X115408333Y-142508333D01*
X115375000Y-142641666D01*
X115341666Y-142708333D01*
X115308333Y-142741666D01*
X115241666Y-142775000D01*
X115175000Y-142775000D01*
X115108333Y-142741666D01*
X115075000Y-142708333D01*
X115041666Y-142641666D01*
X115041666Y-142475000D01*
X115075000Y-142375000D01*
X115041666Y-142175000D02*
X115041666Y-141775000D01*
X115741666Y-141975000D02*
X115041666Y-141975000D01*
X115008333Y-141041666D02*
X115908333Y-141641666D01*
X115541666Y-140841666D02*
X115541666Y-140508333D01*
X115741666Y-140908333D02*
X115041666Y-140675000D01*
X115741666Y-140441666D01*
X115741666Y-140208333D02*
X115041666Y-140208333D01*
X115041666Y-139941666D01*
X115075000Y-139875000D01*
X115108333Y-139841666D01*
X115175000Y-139808333D01*
X115275000Y-139808333D01*
X115341666Y-139841666D01*
X115375000Y-139875000D01*
X115408333Y-139941666D01*
X115408333Y-140208333D01*
X115475000Y-139508333D02*
X115475000Y-138975000D01*
X115741666Y-138641666D02*
X115041666Y-138641666D01*
X115541666Y-138408333D01*
X115041666Y-138175000D01*
X115741666Y-138175000D01*
X115741666Y-137741666D02*
X115708333Y-137808333D01*
X115675000Y-137841666D01*
X115608333Y-137875000D01*
X115408333Y-137875000D01*
X115341666Y-137841666D01*
X115308333Y-137808333D01*
X115275000Y-137741666D01*
X115275000Y-137641666D01*
X115308333Y-137575000D01*
X115341666Y-137541666D01*
X115408333Y-137508333D01*
X115608333Y-137508333D01*
X115675000Y-137541666D01*
X115708333Y-137575000D01*
X115741666Y-137641666D01*
X115741666Y-137741666D01*
X115741666Y-136908333D02*
X115041666Y-136908333D01*
X115708333Y-136908333D02*
X115741666Y-136975000D01*
X115741666Y-137108333D01*
X115708333Y-137175000D01*
X115675000Y-137208333D01*
X115608333Y-137241666D01*
X115408333Y-137241666D01*
X115341666Y-137208333D01*
X115308333Y-137175000D01*
X115275000Y-137108333D01*
X115275000Y-136975000D01*
X115308333Y-136908333D01*
X115708333Y-136308333D02*
X115741666Y-136375000D01*
X115741666Y-136508333D01*
X115708333Y-136575000D01*
X115641666Y-136608333D01*
X115375000Y-136608333D01*
X115308333Y-136575000D01*
X115275000Y-136508333D01*
X115275000Y-136375000D01*
X115308333Y-136308333D01*
X115375000Y-136275000D01*
X115441666Y-136275000D01*
X115508333Y-136608333D01*
X171100000Y-119200000D02*
X171100000Y-118700000D01*
X120000000Y-119200000D02*
X114000000Y-119200000D01*
D13*
%TO.C,SW1*%
X125525000Y-139600000D02*
G75*
G03*
X125525000Y-139600000I-100000J0D01*
G01*
D14*
X126175000Y-144000000D02*
X126175000Y-145500000D01*
X126175000Y-145500000D02*
X127675000Y-145500000D01*
X127675000Y-145500000D02*
X127675000Y-144000000D01*
X124325000Y-142150000D02*
X124325000Y-143150000D01*
X124675000Y-141300000D02*
X130675000Y-141300000D01*
X124675000Y-144000000D02*
X130675000Y-144000000D01*
X131025000Y-142150000D02*
X131025000Y-143150000D01*
D15*
%TO.C,L1*%
G36*
X153162320Y-114709350D02*
G01*
X153190258Y-114728751D01*
X153197940Y-114740074D01*
X153205505Y-114764064D01*
X153212427Y-114804154D01*
X153218380Y-114856125D01*
X153223042Y-114915759D01*
X153226086Y-114978838D01*
X153227190Y-115041144D01*
X153226028Y-115098458D01*
X153225827Y-115102716D01*
X153221280Y-115164549D01*
X153213894Y-115230915D01*
X153204405Y-115297460D01*
X153193548Y-115359834D01*
X153182059Y-115413684D01*
X153170674Y-115454659D01*
X153163157Y-115473359D01*
X153143422Y-115500842D01*
X153112549Y-115532781D01*
X153076893Y-115563301D01*
X153042810Y-115586521D01*
X153037913Y-115589174D01*
X153007111Y-115601305D01*
X152971414Y-115610477D01*
X152967168Y-115611210D01*
X152939601Y-115613856D01*
X152923155Y-115608302D01*
X152909310Y-115591571D01*
X152908799Y-115590794D01*
X152901948Y-115578546D01*
X152897634Y-115564254D01*
X152895726Y-115544226D01*
X152896096Y-115514767D01*
X152898614Y-115472183D01*
X152902737Y-115417966D01*
X152909696Y-115318750D01*
X152913261Y-115238498D01*
X152913433Y-115176139D01*
X152910215Y-115130603D01*
X152903611Y-115100821D01*
X152903483Y-115100481D01*
X152879346Y-115057562D01*
X152846315Y-115032877D01*
X152810622Y-115026159D01*
X152753542Y-115036092D01*
X152697086Y-115064983D01*
X152642055Y-115111471D01*
X152589246Y-115174194D01*
X152539459Y-115251792D01*
X152493492Y-115342902D01*
X152452144Y-115446165D01*
X152416215Y-115560219D01*
X152386503Y-115683702D01*
X152369359Y-115778003D01*
X152360590Y-115850635D01*
X152354867Y-115934688D01*
X152352191Y-116024682D01*
X152352560Y-116115137D01*
X152355978Y-116200574D01*
X152362443Y-116275513D01*
X152369297Y-116321560D01*
X152394612Y-116433210D01*
X152425636Y-116532263D01*
X152461525Y-116616585D01*
X152501435Y-116684045D01*
X152524172Y-116712503D01*
X152563030Y-116747066D01*
X152609843Y-116776198D01*
X152657847Y-116796396D01*
X152700277Y-116804155D01*
X152701144Y-116804160D01*
X152762014Y-116794499D01*
X152824774Y-116766643D01*
X152887131Y-116722279D01*
X152946789Y-116663095D01*
X153001452Y-116590781D01*
X153010484Y-116576659D01*
X153046115Y-116514819D01*
X153084511Y-116440284D01*
X153122491Y-116359788D01*
X153156873Y-116280066D01*
X153183793Y-116209800D01*
X153200680Y-116163184D01*
X153213806Y-116132558D01*
X153225684Y-116114587D01*
X153238829Y-116105933D01*
X153255754Y-116103261D01*
X153264183Y-116103120D01*
X153298204Y-116112618D01*
X153329393Y-116138546D01*
X153353629Y-116177054D01*
X153359503Y-116192175D01*
X153365893Y-116233110D01*
X153363959Y-116288151D01*
X153354624Y-116353312D01*
X153338810Y-116424604D01*
X153317440Y-116498041D01*
X153291438Y-116569634D01*
X153261727Y-116635397D01*
X153253121Y-116651760D01*
X153181699Y-116772985D01*
X153109923Y-116874713D01*
X153036998Y-116957763D01*
X152962129Y-117022953D01*
X152884522Y-117071100D01*
X152819734Y-117097962D01*
X152721594Y-117120933D01*
X152627258Y-117124133D01*
X152537101Y-117107818D01*
X152451499Y-117072247D01*
X152370827Y-117017675D01*
X152295461Y-116944361D01*
X152225776Y-116852561D01*
X152162148Y-116742533D01*
X152104951Y-116614534D01*
X152101636Y-116606040D01*
X152088426Y-116573284D01*
X152077396Y-116548339D01*
X152071481Y-116537453D01*
X152064013Y-116542210D01*
X152049510Y-116561350D01*
X152030511Y-116591333D01*
X152020519Y-116608573D01*
X151942773Y-116737646D01*
X151866006Y-116847112D01*
X151789587Y-116937623D01*
X151712885Y-117009827D01*
X151635270Y-117064376D01*
X151556110Y-117101919D01*
X151534762Y-117109109D01*
X151459450Y-117124410D01*
X151376442Y-117127981D01*
X151294656Y-117119788D01*
X151253160Y-117110178D01*
X151208151Y-117096035D01*
X151172630Y-117081294D01*
X151138876Y-117062031D01*
X151099169Y-117034320D01*
X151088663Y-117026549D01*
X151030424Y-116972723D01*
X150975153Y-116901312D01*
X150924107Y-116814979D01*
X150878538Y-116716387D01*
X150839703Y-116608198D01*
X150808856Y-116493076D01*
X150789992Y-116392680D01*
X150783615Y-116332635D01*
X150779840Y-116258020D01*
X150778605Y-116174408D01*
X150779152Y-116136078D01*
X151075360Y-116136078D01*
X151098220Y-116121110D01*
X151113600Y-116108000D01*
X151138969Y-116083100D01*
X151170903Y-116049887D01*
X151205983Y-116011837D01*
X151208793Y-116008722D01*
X151314236Y-115879469D01*
X151399565Y-115748163D01*
X151464914Y-115614491D01*
X151510414Y-115478142D01*
X151536197Y-115338807D01*
X151542720Y-115222444D01*
X151540425Y-115165045D01*
X151532535Y-115122677D01*
X151517541Y-115090469D01*
X151493935Y-115063546D01*
X151493369Y-115063031D01*
X151467978Y-115049798D01*
X151438942Y-115054030D01*
X151404710Y-115076230D01*
X151379504Y-115099950D01*
X151346416Y-115141524D01*
X151310614Y-115199694D01*
X151273559Y-115271171D01*
X151236713Y-115352665D01*
X151201536Y-115440886D01*
X151169490Y-115532544D01*
X151142037Y-115624349D01*
X151135382Y-115649590D01*
X151121984Y-115708735D01*
X151108888Y-115778397D01*
X151096906Y-115852942D01*
X151086847Y-115926740D01*
X151079523Y-115994159D01*
X151075744Y-116049566D01*
X151075406Y-116066259D01*
X151075360Y-116136078D01*
X150779152Y-116136078D01*
X150779849Y-116087371D01*
X150783510Y-116002485D01*
X150789525Y-115925321D01*
X150795746Y-115874520D01*
X150821959Y-115727450D01*
X150855792Y-115582292D01*
X150896217Y-115441902D01*
X150942206Y-115309138D01*
X150992730Y-115186856D01*
X151046760Y-115077916D01*
X151103268Y-114985172D01*
X151128312Y-114950673D01*
X151192329Y-114878541D01*
X151261392Y-114820395D01*
X151333372Y-114777077D01*
X151406141Y-114749429D01*
X151477572Y-114738292D01*
X151545538Y-114744507D01*
X151599532Y-114764340D01*
X151660719Y-114805862D01*
X151714498Y-114860997D01*
X151756183Y-114924219D01*
X151776540Y-114973126D01*
X151804905Y-115099062D01*
X151814356Y-115230765D01*
X151805139Y-115367230D01*
X151777499Y-115507456D01*
X151731682Y-115650441D01*
X151667933Y-115795181D01*
X151586499Y-115940674D01*
X151512087Y-116052320D01*
X151465770Y-116111626D01*
X151405956Y-116179418D01*
X151335756Y-116252470D01*
X151258281Y-116327556D01*
X151176641Y-116401453D01*
X151168415Y-116408612D01*
X151103991Y-116464473D01*
X151121303Y-116525096D01*
X151152073Y-116610065D01*
X151191868Y-116684072D01*
X151238963Y-116745579D01*
X151291634Y-116793048D01*
X151348155Y-116824940D01*
X151406803Y-116839717D01*
X151465852Y-116835840D01*
X151468868Y-116835108D01*
X151531993Y-116809322D01*
X151594217Y-116764535D01*
X151646867Y-116710307D01*
X151674789Y-116676156D01*
X151699917Y-116642851D01*
X151724173Y-116607261D01*
X151749478Y-116566259D01*
X151777756Y-116516715D01*
X151810927Y-116455501D01*
X151850915Y-116379487D01*
X151855489Y-116370710D01*
X151887854Y-116309224D01*
X151919754Y-116249833D01*
X151949073Y-116196385D01*
X151973696Y-116152729D01*
X151991508Y-116122714D01*
X151993533Y-116119514D01*
X152010009Y-116092884D01*
X152021346Y-116070279D01*
X152028923Y-116046462D01*
X152034117Y-116016200D01*
X152038305Y-115974255D01*
X152041106Y-115938694D01*
X152049025Y-115849176D01*
X152058772Y-115771429D01*
X152071709Y-115696910D01*
X152089194Y-115617077D01*
X152098227Y-115579880D01*
X152138698Y-115440173D01*
X152188609Y-115307128D01*
X152246519Y-115183578D01*
X152310988Y-115072359D01*
X152380575Y-114976305D01*
X152436010Y-114915178D01*
X152521874Y-114838811D01*
X152605986Y-114781404D01*
X152690306Y-114741940D01*
X152776790Y-114719400D01*
X152822880Y-114714057D01*
X152866634Y-114712144D01*
X152899578Y-114714673D01*
X152930999Y-114723060D01*
X152962124Y-114735296D01*
X153025168Y-114761874D01*
X153052261Y-114736765D01*
X153088299Y-114713243D01*
X153126660Y-114704142D01*
X153162320Y-114709350D01*
G37*
X153162320Y-114709350D02*
X153190258Y-114728751D01*
X153197940Y-114740074D01*
X153205505Y-114764064D01*
X153212427Y-114804154D01*
X153218380Y-114856125D01*
X153223042Y-114915759D01*
X153226086Y-114978838D01*
X153227190Y-115041144D01*
X153226028Y-115098458D01*
X153225827Y-115102716D01*
X153221280Y-115164549D01*
X153213894Y-115230915D01*
X153204405Y-115297460D01*
X153193548Y-115359834D01*
X153182059Y-115413684D01*
X153170674Y-115454659D01*
X153163157Y-115473359D01*
X153143422Y-115500842D01*
X153112549Y-115532781D01*
X153076893Y-115563301D01*
X153042810Y-115586521D01*
X153037913Y-115589174D01*
X153007111Y-115601305D01*
X152971414Y-115610477D01*
X152967168Y-115611210D01*
X152939601Y-115613856D01*
X152923155Y-115608302D01*
X152909310Y-115591571D01*
X152908799Y-115590794D01*
X152901948Y-115578546D01*
X152897634Y-115564254D01*
X152895726Y-115544226D01*
X152896096Y-115514767D01*
X152898614Y-115472183D01*
X152902737Y-115417966D01*
X152909696Y-115318750D01*
X152913261Y-115238498D01*
X152913433Y-115176139D01*
X152910215Y-115130603D01*
X152903611Y-115100821D01*
X152903483Y-115100481D01*
X152879346Y-115057562D01*
X152846315Y-115032877D01*
X152810622Y-115026159D01*
X152753542Y-115036092D01*
X152697086Y-115064983D01*
X152642055Y-115111471D01*
X152589246Y-115174194D01*
X152539459Y-115251792D01*
X152493492Y-115342902D01*
X152452144Y-115446165D01*
X152416215Y-115560219D01*
X152386503Y-115683702D01*
X152369359Y-115778003D01*
X152360590Y-115850635D01*
X152354867Y-115934688D01*
X152352191Y-116024682D01*
X152352560Y-116115137D01*
X152355978Y-116200574D01*
X152362443Y-116275513D01*
X152369297Y-116321560D01*
X152394612Y-116433210D01*
X152425636Y-116532263D01*
X152461525Y-116616585D01*
X152501435Y-116684045D01*
X152524172Y-116712503D01*
X152563030Y-116747066D01*
X152609843Y-116776198D01*
X152657847Y-116796396D01*
X152700277Y-116804155D01*
X152701144Y-116804160D01*
X152762014Y-116794499D01*
X152824774Y-116766643D01*
X152887131Y-116722279D01*
X152946789Y-116663095D01*
X153001452Y-116590781D01*
X153010484Y-116576659D01*
X153046115Y-116514819D01*
X153084511Y-116440284D01*
X153122491Y-116359788D01*
X153156873Y-116280066D01*
X153183793Y-116209800D01*
X153200680Y-116163184D01*
X153213806Y-116132558D01*
X153225684Y-116114587D01*
X153238829Y-116105933D01*
X153255754Y-116103261D01*
X153264183Y-116103120D01*
X153298204Y-116112618D01*
X153329393Y-116138546D01*
X153353629Y-116177054D01*
X153359503Y-116192175D01*
X153365893Y-116233110D01*
X153363959Y-116288151D01*
X153354624Y-116353312D01*
X153338810Y-116424604D01*
X153317440Y-116498041D01*
X153291438Y-116569634D01*
X153261727Y-116635397D01*
X153253121Y-116651760D01*
X153181699Y-116772985D01*
X153109923Y-116874713D01*
X153036998Y-116957763D01*
X152962129Y-117022953D01*
X152884522Y-117071100D01*
X152819734Y-117097962D01*
X152721594Y-117120933D01*
X152627258Y-117124133D01*
X152537101Y-117107818D01*
X152451499Y-117072247D01*
X152370827Y-117017675D01*
X152295461Y-116944361D01*
X152225776Y-116852561D01*
X152162148Y-116742533D01*
X152104951Y-116614534D01*
X152101636Y-116606040D01*
X152088426Y-116573284D01*
X152077396Y-116548339D01*
X152071481Y-116537453D01*
X152064013Y-116542210D01*
X152049510Y-116561350D01*
X152030511Y-116591333D01*
X152020519Y-116608573D01*
X151942773Y-116737646D01*
X151866006Y-116847112D01*
X151789587Y-116937623D01*
X151712885Y-117009827D01*
X151635270Y-117064376D01*
X151556110Y-117101919D01*
X151534762Y-117109109D01*
X151459450Y-117124410D01*
X151376442Y-117127981D01*
X151294656Y-117119788D01*
X151253160Y-117110178D01*
X151208151Y-117096035D01*
X151172630Y-117081294D01*
X151138876Y-117062031D01*
X151099169Y-117034320D01*
X151088663Y-117026549D01*
X151030424Y-116972723D01*
X150975153Y-116901312D01*
X150924107Y-116814979D01*
X150878538Y-116716387D01*
X150839703Y-116608198D01*
X150808856Y-116493076D01*
X150789992Y-116392680D01*
X150783615Y-116332635D01*
X150779840Y-116258020D01*
X150778605Y-116174408D01*
X150779152Y-116136078D01*
X151075360Y-116136078D01*
X151098220Y-116121110D01*
X151113600Y-116108000D01*
X151138969Y-116083100D01*
X151170903Y-116049887D01*
X151205983Y-116011837D01*
X151208793Y-116008722D01*
X151314236Y-115879469D01*
X151399565Y-115748163D01*
X151464914Y-115614491D01*
X151510414Y-115478142D01*
X151536197Y-115338807D01*
X151542720Y-115222444D01*
X151540425Y-115165045D01*
X151532535Y-115122677D01*
X151517541Y-115090469D01*
X151493935Y-115063546D01*
X151493369Y-115063031D01*
X151467978Y-115049798D01*
X151438942Y-115054030D01*
X151404710Y-115076230D01*
X151379504Y-115099950D01*
X151346416Y-115141524D01*
X151310614Y-115199694D01*
X151273559Y-115271171D01*
X151236713Y-115352665D01*
X151201536Y-115440886D01*
X151169490Y-115532544D01*
X151142037Y-115624349D01*
X151135382Y-115649590D01*
X151121984Y-115708735D01*
X151108888Y-115778397D01*
X151096906Y-115852942D01*
X151086847Y-115926740D01*
X151079523Y-115994159D01*
X151075744Y-116049566D01*
X151075406Y-116066259D01*
X151075360Y-116136078D01*
X150779152Y-116136078D01*
X150779849Y-116087371D01*
X150783510Y-116002485D01*
X150789525Y-115925321D01*
X150795746Y-115874520D01*
X150821959Y-115727450D01*
X150855792Y-115582292D01*
X150896217Y-115441902D01*
X150942206Y-115309138D01*
X150992730Y-115186856D01*
X151046760Y-115077916D01*
X151103268Y-114985172D01*
X151128312Y-114950673D01*
X151192329Y-114878541D01*
X151261392Y-114820395D01*
X151333372Y-114777077D01*
X151406141Y-114749429D01*
X151477572Y-114738292D01*
X151545538Y-114744507D01*
X151599532Y-114764340D01*
X151660719Y-114805862D01*
X151714498Y-114860997D01*
X151756183Y-114924219D01*
X151776540Y-114973126D01*
X151804905Y-115099062D01*
X151814356Y-115230765D01*
X151805139Y-115367230D01*
X151777499Y-115507456D01*
X151731682Y-115650441D01*
X151667933Y-115795181D01*
X151586499Y-115940674D01*
X151512087Y-116052320D01*
X151465770Y-116111626D01*
X151405956Y-116179418D01*
X151335756Y-116252470D01*
X151258281Y-116327556D01*
X151176641Y-116401453D01*
X151168415Y-116408612D01*
X151103991Y-116464473D01*
X151121303Y-116525096D01*
X151152073Y-116610065D01*
X151191868Y-116684072D01*
X151238963Y-116745579D01*
X151291634Y-116793048D01*
X151348155Y-116824940D01*
X151406803Y-116839717D01*
X151465852Y-116835840D01*
X151468868Y-116835108D01*
X151531993Y-116809322D01*
X151594217Y-116764535D01*
X151646867Y-116710307D01*
X151674789Y-116676156D01*
X151699917Y-116642851D01*
X151724173Y-116607261D01*
X151749478Y-116566259D01*
X151777756Y-116516715D01*
X151810927Y-116455501D01*
X151850915Y-116379487D01*
X151855489Y-116370710D01*
X151887854Y-116309224D01*
X151919754Y-116249833D01*
X151949073Y-116196385D01*
X151973696Y-116152729D01*
X151991508Y-116122714D01*
X151993533Y-116119514D01*
X152010009Y-116092884D01*
X152021346Y-116070279D01*
X152028923Y-116046462D01*
X152034117Y-116016200D01*
X152038305Y-115974255D01*
X152041106Y-115938694D01*
X152049025Y-115849176D01*
X152058772Y-115771429D01*
X152071709Y-115696910D01*
X152089194Y-115617077D01*
X152098227Y-115579880D01*
X152138698Y-115440173D01*
X152188609Y-115307128D01*
X152246519Y-115183578D01*
X152310988Y-115072359D01*
X152380575Y-114976305D01*
X152436010Y-114915178D01*
X152521874Y-114838811D01*
X152605986Y-114781404D01*
X152690306Y-114741940D01*
X152776790Y-114719400D01*
X152822880Y-114714057D01*
X152866634Y-114712144D01*
X152899578Y-114714673D01*
X152930999Y-114723060D01*
X152962124Y-114735296D01*
X153025168Y-114761874D01*
X153052261Y-114736765D01*
X153088299Y-114713243D01*
X153126660Y-114704142D01*
X153162320Y-114709350D01*
G36*
X151404219Y-113239744D02*
G01*
X151423253Y-113241916D01*
X151462855Y-113257646D01*
X151487282Y-113285673D01*
X151495393Y-113323601D01*
X151486047Y-113369035D01*
X151485013Y-113371682D01*
X151467473Y-113400740D01*
X151437058Y-113436792D01*
X151397990Y-113475849D01*
X151354490Y-113513924D01*
X151310779Y-113547027D01*
X151277367Y-113567868D01*
X151246459Y-113583418D01*
X151223283Y-113589786D01*
X151198312Y-113588510D01*
X151176186Y-113584223D01*
X151108378Y-113574982D01*
X151031931Y-113575088D01*
X150943258Y-113584669D01*
X150885535Y-113594480D01*
X150771911Y-113615867D01*
X150746107Y-113688553D01*
X150721602Y-113765666D01*
X150696198Y-113860651D01*
X150670302Y-113971099D01*
X150644324Y-114094605D01*
X150618671Y-114228762D01*
X150593752Y-114371162D01*
X150569974Y-114519399D01*
X150547747Y-114671066D01*
X150527479Y-114823756D01*
X150509578Y-114975063D01*
X150494451Y-115122579D01*
X150485567Y-115224363D01*
X150480927Y-115285821D01*
X150478474Y-115332991D01*
X150478405Y-115371806D01*
X150480917Y-115408203D01*
X150486207Y-115448113D01*
X150494472Y-115497473D01*
X150494684Y-115498683D01*
X150528157Y-115708490D01*
X150552451Y-115905537D01*
X150567987Y-116094974D01*
X150575185Y-116281951D01*
X150574468Y-116471617D01*
X150574425Y-116473449D01*
X150569347Y-116613621D01*
X150561161Y-116734722D01*
X150549679Y-116837791D01*
X150534719Y-116923866D01*
X150516093Y-116993984D01*
X150493617Y-117049183D01*
X150467105Y-117090502D01*
X150463563Y-117094669D01*
X150438275Y-117118945D01*
X150414830Y-117127475D01*
X150385797Y-117121829D01*
X150368229Y-117114775D01*
X150343703Y-117099453D01*
X150322292Y-117074789D01*
X150302464Y-117038008D01*
X150282685Y-116986334D01*
X150264028Y-116926080D01*
X150233567Y-116807272D01*
X150207641Y-116676832D01*
X150186144Y-116533591D01*
X150168974Y-116376380D01*
X150156025Y-116204030D01*
X150147193Y-116015372D01*
X150142375Y-115809238D01*
X150141464Y-115584458D01*
X150141623Y-115554480D01*
X150144406Y-115112520D01*
X150107301Y-115019799D01*
X150075989Y-114929136D01*
X150059708Y-114850213D01*
X150058329Y-114781235D01*
X150071726Y-114720409D01*
X150084051Y-114692250D01*
X150102571Y-114665693D01*
X150124035Y-114657125D01*
X150153117Y-114665270D01*
X150163546Y-114670524D01*
X150198704Y-114689367D01*
X150210236Y-114636783D01*
X150216406Y-114604708D01*
X150224048Y-114559205D01*
X150232072Y-114507007D01*
X150237704Y-114467360D01*
X150243992Y-114426988D01*
X150253905Y-114370508D01*
X150266727Y-114301665D01*
X150281743Y-114224202D01*
X150298237Y-114141862D01*
X150315495Y-114058389D01*
X150319060Y-114041489D01*
X150335215Y-113964913D01*
X150349919Y-113894707D01*
X150362664Y-113833343D01*
X150372939Y-113783295D01*
X150380234Y-113747037D01*
X150384041Y-113727043D01*
X150384480Y-113723989D01*
X150375799Y-113717549D01*
X150359843Y-113715520D01*
X150340720Y-113718837D01*
X150305191Y-113728193D01*
X150255952Y-113742692D01*
X150195696Y-113761442D01*
X150127120Y-113783546D01*
X150052918Y-113808110D01*
X149975784Y-113834241D01*
X149898415Y-113861043D01*
X149823505Y-113887623D01*
X149753749Y-113913085D01*
X149691841Y-113936535D01*
X149679834Y-113941220D01*
X149615053Y-113966372D01*
X149566292Y-113984485D01*
X149530826Y-113996357D01*
X149505928Y-114002789D01*
X149488871Y-114004581D01*
X149476929Y-114002531D01*
X149474374Y-114001490D01*
X149452375Y-113982809D01*
X149442877Y-113951480D01*
X149445504Y-113905789D01*
X149449183Y-113886257D01*
X149475092Y-113806813D01*
X149516992Y-113738530D01*
X149575869Y-113680155D01*
X149648702Y-113632586D01*
X149676895Y-113619519D01*
X149721483Y-113601558D01*
X149779425Y-113579736D01*
X149847679Y-113555085D01*
X149923204Y-113528637D01*
X150002960Y-113501427D01*
X150083904Y-113474486D01*
X150162996Y-113448848D01*
X150237194Y-113425545D01*
X150303457Y-113405610D01*
X150358744Y-113390077D01*
X150375868Y-113385637D01*
X150454340Y-113367233D01*
X150542678Y-113348792D01*
X150638317Y-113330664D01*
X150738690Y-113313203D01*
X150841231Y-113296760D01*
X150943376Y-113281688D01*
X151042558Y-113268337D01*
X151136210Y-113257061D01*
X151221769Y-113248212D01*
X151296667Y-113242141D01*
X151358339Y-113239201D01*
X151404219Y-113239744D01*
G37*
X151404219Y-113239744D02*
X151423253Y-113241916D01*
X151462855Y-113257646D01*
X151487282Y-113285673D01*
X151495393Y-113323601D01*
X151486047Y-113369035D01*
X151485013Y-113371682D01*
X151467473Y-113400740D01*
X151437058Y-113436792D01*
X151397990Y-113475849D01*
X151354490Y-113513924D01*
X151310779Y-113547027D01*
X151277367Y-113567868D01*
X151246459Y-113583418D01*
X151223283Y-113589786D01*
X151198312Y-113588510D01*
X151176186Y-113584223D01*
X151108378Y-113574982D01*
X151031931Y-113575088D01*
X150943258Y-113584669D01*
X150885535Y-113594480D01*
X150771911Y-113615867D01*
X150746107Y-113688553D01*
X150721602Y-113765666D01*
X150696198Y-113860651D01*
X150670302Y-113971099D01*
X150644324Y-114094605D01*
X150618671Y-114228762D01*
X150593752Y-114371162D01*
X150569974Y-114519399D01*
X150547747Y-114671066D01*
X150527479Y-114823756D01*
X150509578Y-114975063D01*
X150494451Y-115122579D01*
X150485567Y-115224363D01*
X150480927Y-115285821D01*
X150478474Y-115332991D01*
X150478405Y-115371806D01*
X150480917Y-115408203D01*
X150486207Y-115448113D01*
X150494472Y-115497473D01*
X150494684Y-115498683D01*
X150528157Y-115708490D01*
X150552451Y-115905537D01*
X150567987Y-116094974D01*
X150575185Y-116281951D01*
X150574468Y-116471617D01*
X150574425Y-116473449D01*
X150569347Y-116613621D01*
X150561161Y-116734722D01*
X150549679Y-116837791D01*
X150534719Y-116923866D01*
X150516093Y-116993984D01*
X150493617Y-117049183D01*
X150467105Y-117090502D01*
X150463563Y-117094669D01*
X150438275Y-117118945D01*
X150414830Y-117127475D01*
X150385797Y-117121829D01*
X150368229Y-117114775D01*
X150343703Y-117099453D01*
X150322292Y-117074789D01*
X150302464Y-117038008D01*
X150282685Y-116986334D01*
X150264028Y-116926080D01*
X150233567Y-116807272D01*
X150207641Y-116676832D01*
X150186144Y-116533591D01*
X150168974Y-116376380D01*
X150156025Y-116204030D01*
X150147193Y-116015372D01*
X150142375Y-115809238D01*
X150141464Y-115584458D01*
X150141623Y-115554480D01*
X150144406Y-115112520D01*
X150107301Y-115019799D01*
X150075989Y-114929136D01*
X150059708Y-114850213D01*
X150058329Y-114781235D01*
X150071726Y-114720409D01*
X150084051Y-114692250D01*
X150102571Y-114665693D01*
X150124035Y-114657125D01*
X150153117Y-114665270D01*
X150163546Y-114670524D01*
X150198704Y-114689367D01*
X150210236Y-114636783D01*
X150216406Y-114604708D01*
X150224048Y-114559205D01*
X150232072Y-114507007D01*
X150237704Y-114467360D01*
X150243992Y-114426988D01*
X150253905Y-114370508D01*
X150266727Y-114301665D01*
X150281743Y-114224202D01*
X150298237Y-114141862D01*
X150315495Y-114058389D01*
X150319060Y-114041489D01*
X150335215Y-113964913D01*
X150349919Y-113894707D01*
X150362664Y-113833343D01*
X150372939Y-113783295D01*
X150380234Y-113747037D01*
X150384041Y-113727043D01*
X150384480Y-113723989D01*
X150375799Y-113717549D01*
X150359843Y-113715520D01*
X150340720Y-113718837D01*
X150305191Y-113728193D01*
X150255952Y-113742692D01*
X150195696Y-113761442D01*
X150127120Y-113783546D01*
X150052918Y-113808110D01*
X149975784Y-113834241D01*
X149898415Y-113861043D01*
X149823505Y-113887623D01*
X149753749Y-113913085D01*
X149691841Y-113936535D01*
X149679834Y-113941220D01*
X149615053Y-113966372D01*
X149566292Y-113984485D01*
X149530826Y-113996357D01*
X149505928Y-114002789D01*
X149488871Y-114004581D01*
X149476929Y-114002531D01*
X149474374Y-114001490D01*
X149452375Y-113982809D01*
X149442877Y-113951480D01*
X149445504Y-113905789D01*
X149449183Y-113886257D01*
X149475092Y-113806813D01*
X149516992Y-113738530D01*
X149575869Y-113680155D01*
X149648702Y-113632586D01*
X149676895Y-113619519D01*
X149721483Y-113601558D01*
X149779425Y-113579736D01*
X149847679Y-113555085D01*
X149923204Y-113528637D01*
X150002960Y-113501427D01*
X150083904Y-113474486D01*
X150162996Y-113448848D01*
X150237194Y-113425545D01*
X150303457Y-113405610D01*
X150358744Y-113390077D01*
X150375868Y-113385637D01*
X150454340Y-113367233D01*
X150542678Y-113348792D01*
X150638317Y-113330664D01*
X150738690Y-113313203D01*
X150841231Y-113296760D01*
X150943376Y-113281688D01*
X151042558Y-113268337D01*
X151136210Y-113257061D01*
X151221769Y-113248212D01*
X151296667Y-113242141D01*
X151358339Y-113239201D01*
X151404219Y-113239744D01*
G36*
X147294405Y-114770471D02*
G01*
X147360189Y-114804109D01*
X147405515Y-114841513D01*
X147445741Y-114887219D01*
X147476577Y-114937767D01*
X147498925Y-114996183D01*
X147513686Y-115065490D01*
X147521760Y-115148713D01*
X147524055Y-115239520D01*
X147517701Y-115372900D01*
X147497526Y-115498976D01*
X147462320Y-115622572D01*
X147410873Y-115748513D01*
X147381213Y-115808965D01*
X147282665Y-115980185D01*
X147167813Y-116141805D01*
X147035316Y-116295617D01*
X146960503Y-116371646D01*
X146846483Y-116482692D01*
X146863184Y-116542760D01*
X146890137Y-116618997D01*
X146926332Y-116691539D01*
X146962260Y-116745133D01*
X146989312Y-116771252D01*
X147027253Y-116797804D01*
X147069682Y-116821262D01*
X147110195Y-116838100D01*
X147142389Y-116844792D01*
X147143218Y-116844800D01*
X147203233Y-116835171D01*
X147265949Y-116807254D01*
X147329260Y-116762507D01*
X147391060Y-116702383D01*
X147442484Y-116637964D01*
X147459241Y-116611717D01*
X147483146Y-116570452D01*
X147512435Y-116517413D01*
X147545342Y-116455844D01*
X147580103Y-116388988D01*
X147609141Y-116331720D01*
X147731289Y-116087880D01*
X147721611Y-116001520D01*
X147716763Y-115941831D01*
X147713481Y-115866608D01*
X147711727Y-115780574D01*
X147711465Y-115688452D01*
X147712658Y-115594964D01*
X147715268Y-115504834D01*
X147719260Y-115422783D01*
X147724595Y-115353536D01*
X147726834Y-115332682D01*
X147741319Y-115230080D01*
X147758296Y-115147181D01*
X147777983Y-115083497D01*
X147800600Y-115038538D01*
X147826366Y-115011816D01*
X147855500Y-115002840D01*
X147873623Y-115005456D01*
X147926913Y-115031242D01*
X147974771Y-115076226D01*
X148016728Y-115139903D01*
X148036607Y-115181511D01*
X148042930Y-115196540D01*
X148047572Y-115210148D01*
X148050474Y-115225125D01*
X148051578Y-115244257D01*
X148050826Y-115270332D01*
X148048159Y-115306138D01*
X148043519Y-115354461D01*
X148036847Y-115418090D01*
X148030395Y-115478280D01*
X148015055Y-115710867D01*
X148018699Y-115943123D01*
X148041133Y-116172680D01*
X148082168Y-116397170D01*
X148115312Y-116527300D01*
X148127524Y-116567562D01*
X148138687Y-116599203D01*
X148147216Y-116617969D01*
X148150383Y-116621280D01*
X148158076Y-116611878D01*
X148168021Y-116586159D01*
X148179136Y-116547849D01*
X148190339Y-116500673D01*
X148200453Y-116448897D01*
X148225545Y-116337054D01*
X148262260Y-116217321D01*
X148308435Y-116094715D01*
X148361908Y-115974258D01*
X148420514Y-115860969D01*
X148482091Y-115759867D01*
X148520738Y-115705603D01*
X148585376Y-115626882D01*
X148645368Y-115566511D01*
X148702069Y-115523428D01*
X148756833Y-115496570D01*
X148800316Y-115486028D01*
X148857159Y-115484420D01*
X148900438Y-115496899D01*
X148930321Y-115523796D01*
X148946979Y-115565442D01*
X148950580Y-115622167D01*
X148941294Y-115694302D01*
X148930769Y-115740613D01*
X148923686Y-115770846D01*
X148918312Y-115801069D01*
X148914399Y-115834781D01*
X148911703Y-115875481D01*
X148909976Y-115926667D01*
X148908975Y-115991840D01*
X148908526Y-116057266D01*
X148908761Y-116144752D01*
X148910252Y-116222256D01*
X148912895Y-116286988D01*
X148916586Y-116336161D01*
X148919742Y-116359847D01*
X148948214Y-116478834D01*
X148988166Y-116582600D01*
X149039250Y-116670456D01*
X149101116Y-116741714D01*
X149122380Y-116760286D01*
X149178445Y-116796716D01*
X149232576Y-116812935D01*
X149284935Y-116808947D01*
X149335684Y-116784752D01*
X149362885Y-116762909D01*
X149402108Y-116718058D01*
X149439265Y-116659845D01*
X149470371Y-116595139D01*
X149486112Y-116550661D01*
X149503658Y-116467482D01*
X149512133Y-116367840D01*
X149511559Y-116253447D01*
X149501955Y-116126012D01*
X149483343Y-115987247D01*
X149478984Y-115960880D01*
X149460300Y-115867090D01*
X149436464Y-115779303D01*
X149405336Y-115690975D01*
X149364772Y-115595561D01*
X149346509Y-115556234D01*
X149305020Y-115466923D01*
X149273381Y-115395101D01*
X149251500Y-115340536D01*
X149239282Y-115302997D01*
X149236400Y-115285417D01*
X149245469Y-115257070D01*
X149270571Y-115237668D01*
X149308546Y-115229482D01*
X149314423Y-115229360D01*
X149370285Y-115235510D01*
X149422156Y-115254824D01*
X149471476Y-115288600D01*
X149519685Y-115338134D01*
X149568222Y-115404722D01*
X149618527Y-115489662D01*
X149632622Y-115515953D01*
X149696555Y-115657686D01*
X149744772Y-115808340D01*
X149777184Y-115965100D01*
X149793703Y-116125149D01*
X149794243Y-116285670D01*
X149778714Y-116443846D01*
X149747029Y-116596861D01*
X149699100Y-116741898D01*
X149672758Y-116802641D01*
X149624319Y-116885750D01*
X149562102Y-116960643D01*
X149489400Y-117024659D01*
X149409501Y-117075133D01*
X149325695Y-117109403D01*
X149280531Y-117120136D01*
X149200999Y-117123941D01*
X149119699Y-117108387D01*
X149038383Y-117074126D01*
X148958808Y-117021811D01*
X148914867Y-116984131D01*
X148846811Y-116911708D01*
X148790786Y-116831793D01*
X148744153Y-116740073D01*
X148709632Y-116648713D01*
X148687954Y-116580359D01*
X148671631Y-116520169D01*
X148659955Y-116463156D01*
X148652217Y-116404334D01*
X148647709Y-116338716D01*
X148645723Y-116261315D01*
X148645453Y-116197100D01*
X148645094Y-116138253D01*
X148643940Y-116087105D01*
X148642132Y-116046840D01*
X148639811Y-116020641D01*
X148637221Y-116011680D01*
X148624893Y-116020872D01*
X148607552Y-116046558D01*
X148586444Y-116085897D01*
X148562818Y-116136051D01*
X148537920Y-116194182D01*
X148512998Y-116257449D01*
X148489298Y-116323015D01*
X148468068Y-116388041D01*
X148460046Y-116414999D01*
X148437431Y-116498513D01*
X148417176Y-116584588D01*
X148398438Y-116677455D01*
X148380377Y-116781347D01*
X148362151Y-116900494D01*
X148358619Y-116925073D01*
X148349346Y-116988082D01*
X148341643Y-117034199D01*
X148334680Y-117066710D01*
X148327627Y-117088899D01*
X148319655Y-117104053D01*
X148310759Y-117114643D01*
X148275646Y-117137742D01*
X148232143Y-117144138D01*
X148178333Y-117134094D01*
X148175570Y-117133238D01*
X148125609Y-117107918D01*
X148074961Y-117064053D01*
X148024770Y-117003334D01*
X147976182Y-116927454D01*
X147930339Y-116838105D01*
X147888388Y-116736978D01*
X147867884Y-116678459D01*
X147851361Y-116629492D01*
X147836424Y-116587439D01*
X147824481Y-116556113D01*
X147816943Y-116539327D01*
X147815870Y-116537806D01*
X147807795Y-116542671D01*
X147792042Y-116562170D01*
X147770863Y-116593211D01*
X147746515Y-116632703D01*
X147745918Y-116633716D01*
X147664353Y-116762669D01*
X147583274Y-116871517D01*
X147502510Y-116960463D01*
X147421888Y-117029712D01*
X147393092Y-117049711D01*
X147306106Y-117095119D01*
X147215778Y-117121466D01*
X147124229Y-117129261D01*
X147033578Y-117119016D01*
X146945945Y-117091242D01*
X146863448Y-117046448D01*
X146788209Y-116985146D01*
X146722346Y-116907846D01*
X146706421Y-116884261D01*
X146642690Y-116771061D01*
X146592905Y-116651005D01*
X146556504Y-116521873D01*
X146532925Y-116381440D01*
X146521604Y-116227487D01*
X146520360Y-116148840D01*
X146521764Y-116117008D01*
X146806840Y-116117008D01*
X146810376Y-116144056D01*
X146818083Y-116153915D01*
X146818290Y-116153920D01*
X146830917Y-116147578D01*
X146852661Y-116131257D01*
X146870127Y-116116241D01*
X146921902Y-116062137D01*
X146976384Y-115992110D01*
X147031337Y-115909949D01*
X147084528Y-115819442D01*
X147133723Y-115724377D01*
X147176687Y-115628542D01*
X147209487Y-115540866D01*
X147232512Y-115461620D01*
X147249398Y-115382270D01*
X147259978Y-115305945D01*
X147264083Y-115235772D01*
X147261547Y-115174878D01*
X147252203Y-115126391D01*
X147235882Y-115093437D01*
X147233584Y-115090820D01*
X147203638Y-115072278D01*
X147165659Y-115066452D01*
X147128277Y-115074432D01*
X147123220Y-115076906D01*
X147104777Y-115093936D01*
X147080796Y-115126693D01*
X147052993Y-115171919D01*
X147023082Y-115226360D01*
X146992781Y-115286760D01*
X146963803Y-115349862D01*
X146937865Y-115412413D01*
X146918716Y-115465012D01*
X146901086Y-115522988D01*
X146883891Y-115589402D01*
X146867505Y-115661693D01*
X146852302Y-115737298D01*
X146838655Y-115813654D01*
X146826938Y-115888199D01*
X146817524Y-115958369D01*
X146810788Y-116021603D01*
X146807102Y-116075337D01*
X146806840Y-116117008D01*
X146521764Y-116117008D01*
X146529310Y-115945990D01*
X146555294Y-115742260D01*
X146597453Y-115542907D01*
X146645972Y-115379038D01*
X146695157Y-115246564D01*
X146746854Y-115132561D01*
X146802074Y-115035235D01*
X146861832Y-114952792D01*
X146924793Y-114885625D01*
X147000000Y-114825196D01*
X147075807Y-114783352D01*
X147150972Y-114760207D01*
X147224252Y-114755875D01*
X147294405Y-114770471D01*
G37*
X147294405Y-114770471D02*
X147360189Y-114804109D01*
X147405515Y-114841513D01*
X147445741Y-114887219D01*
X147476577Y-114937767D01*
X147498925Y-114996183D01*
X147513686Y-115065490D01*
X147521760Y-115148713D01*
X147524055Y-115239520D01*
X147517701Y-115372900D01*
X147497526Y-115498976D01*
X147462320Y-115622572D01*
X147410873Y-115748513D01*
X147381213Y-115808965D01*
X147282665Y-115980185D01*
X147167813Y-116141805D01*
X147035316Y-116295617D01*
X146960503Y-116371646D01*
X146846483Y-116482692D01*
X146863184Y-116542760D01*
X146890137Y-116618997D01*
X146926332Y-116691539D01*
X146962260Y-116745133D01*
X146989312Y-116771252D01*
X147027253Y-116797804D01*
X147069682Y-116821262D01*
X147110195Y-116838100D01*
X147142389Y-116844792D01*
X147143218Y-116844800D01*
X147203233Y-116835171D01*
X147265949Y-116807254D01*
X147329260Y-116762507D01*
X147391060Y-116702383D01*
X147442484Y-116637964D01*
X147459241Y-116611717D01*
X147483146Y-116570452D01*
X147512435Y-116517413D01*
X147545342Y-116455844D01*
X147580103Y-116388988D01*
X147609141Y-116331720D01*
X147731289Y-116087880D01*
X147721611Y-116001520D01*
X147716763Y-115941831D01*
X147713481Y-115866608D01*
X147711727Y-115780574D01*
X147711465Y-115688452D01*
X147712658Y-115594964D01*
X147715268Y-115504834D01*
X147719260Y-115422783D01*
X147724595Y-115353536D01*
X147726834Y-115332682D01*
X147741319Y-115230080D01*
X147758296Y-115147181D01*
X147777983Y-115083497D01*
X147800600Y-115038538D01*
X147826366Y-115011816D01*
X147855500Y-115002840D01*
X147873623Y-115005456D01*
X147926913Y-115031242D01*
X147974771Y-115076226D01*
X148016728Y-115139903D01*
X148036607Y-115181511D01*
X148042930Y-115196540D01*
X148047572Y-115210148D01*
X148050474Y-115225125D01*
X148051578Y-115244257D01*
X148050826Y-115270332D01*
X148048159Y-115306138D01*
X148043519Y-115354461D01*
X148036847Y-115418090D01*
X148030395Y-115478280D01*
X148015055Y-115710867D01*
X148018699Y-115943123D01*
X148041133Y-116172680D01*
X148082168Y-116397170D01*
X148115312Y-116527300D01*
X148127524Y-116567562D01*
X148138687Y-116599203D01*
X148147216Y-116617969D01*
X148150383Y-116621280D01*
X148158076Y-116611878D01*
X148168021Y-116586159D01*
X148179136Y-116547849D01*
X148190339Y-116500673D01*
X148200453Y-116448897D01*
X148225545Y-116337054D01*
X148262260Y-116217321D01*
X148308435Y-116094715D01*
X148361908Y-115974258D01*
X148420514Y-115860969D01*
X148482091Y-115759867D01*
X148520738Y-115705603D01*
X148585376Y-115626882D01*
X148645368Y-115566511D01*
X148702069Y-115523428D01*
X148756833Y-115496570D01*
X148800316Y-115486028D01*
X148857159Y-115484420D01*
X148900438Y-115496899D01*
X148930321Y-115523796D01*
X148946979Y-115565442D01*
X148950580Y-115622167D01*
X148941294Y-115694302D01*
X148930769Y-115740613D01*
X148923686Y-115770846D01*
X148918312Y-115801069D01*
X148914399Y-115834781D01*
X148911703Y-115875481D01*
X148909976Y-115926667D01*
X148908975Y-115991840D01*
X148908526Y-116057266D01*
X148908761Y-116144752D01*
X148910252Y-116222256D01*
X148912895Y-116286988D01*
X148916586Y-116336161D01*
X148919742Y-116359847D01*
X148948214Y-116478834D01*
X148988166Y-116582600D01*
X149039250Y-116670456D01*
X149101116Y-116741714D01*
X149122380Y-116760286D01*
X149178445Y-116796716D01*
X149232576Y-116812935D01*
X149284935Y-116808947D01*
X149335684Y-116784752D01*
X149362885Y-116762909D01*
X149402108Y-116718058D01*
X149439265Y-116659845D01*
X149470371Y-116595139D01*
X149486112Y-116550661D01*
X149503658Y-116467482D01*
X149512133Y-116367840D01*
X149511559Y-116253447D01*
X149501955Y-116126012D01*
X149483343Y-115987247D01*
X149478984Y-115960880D01*
X149460300Y-115867090D01*
X149436464Y-115779303D01*
X149405336Y-115690975D01*
X149364772Y-115595561D01*
X149346509Y-115556234D01*
X149305020Y-115466923D01*
X149273381Y-115395101D01*
X149251500Y-115340536D01*
X149239282Y-115302997D01*
X149236400Y-115285417D01*
X149245469Y-115257070D01*
X149270571Y-115237668D01*
X149308546Y-115229482D01*
X149314423Y-115229360D01*
X149370285Y-115235510D01*
X149422156Y-115254824D01*
X149471476Y-115288600D01*
X149519685Y-115338134D01*
X149568222Y-115404722D01*
X149618527Y-115489662D01*
X149632622Y-115515953D01*
X149696555Y-115657686D01*
X149744772Y-115808340D01*
X149777184Y-115965100D01*
X149793703Y-116125149D01*
X149794243Y-116285670D01*
X149778714Y-116443846D01*
X149747029Y-116596861D01*
X149699100Y-116741898D01*
X149672758Y-116802641D01*
X149624319Y-116885750D01*
X149562102Y-116960643D01*
X149489400Y-117024659D01*
X149409501Y-117075133D01*
X149325695Y-117109403D01*
X149280531Y-117120136D01*
X149200999Y-117123941D01*
X149119699Y-117108387D01*
X149038383Y-117074126D01*
X148958808Y-117021811D01*
X148914867Y-116984131D01*
X148846811Y-116911708D01*
X148790786Y-116831793D01*
X148744153Y-116740073D01*
X148709632Y-116648713D01*
X148687954Y-116580359D01*
X148671631Y-116520169D01*
X148659955Y-116463156D01*
X148652217Y-116404334D01*
X148647709Y-116338716D01*
X148645723Y-116261315D01*
X148645453Y-116197100D01*
X148645094Y-116138253D01*
X148643940Y-116087105D01*
X148642132Y-116046840D01*
X148639811Y-116020641D01*
X148637221Y-116011680D01*
X148624893Y-116020872D01*
X148607552Y-116046558D01*
X148586444Y-116085897D01*
X148562818Y-116136051D01*
X148537920Y-116194182D01*
X148512998Y-116257449D01*
X148489298Y-116323015D01*
X148468068Y-116388041D01*
X148460046Y-116414999D01*
X148437431Y-116498513D01*
X148417176Y-116584588D01*
X148398438Y-116677455D01*
X148380377Y-116781347D01*
X148362151Y-116900494D01*
X148358619Y-116925073D01*
X148349346Y-116988082D01*
X148341643Y-117034199D01*
X148334680Y-117066710D01*
X148327627Y-117088899D01*
X148319655Y-117104053D01*
X148310759Y-117114643D01*
X148275646Y-117137742D01*
X148232143Y-117144138D01*
X148178333Y-117134094D01*
X148175570Y-117133238D01*
X148125609Y-117107918D01*
X148074961Y-117064053D01*
X148024770Y-117003334D01*
X147976182Y-116927454D01*
X147930339Y-116838105D01*
X147888388Y-116736978D01*
X147867884Y-116678459D01*
X147851361Y-116629492D01*
X147836424Y-116587439D01*
X147824481Y-116556113D01*
X147816943Y-116539327D01*
X147815870Y-116537806D01*
X147807795Y-116542671D01*
X147792042Y-116562170D01*
X147770863Y-116593211D01*
X147746515Y-116632703D01*
X147745918Y-116633716D01*
X147664353Y-116762669D01*
X147583274Y-116871517D01*
X147502510Y-116960463D01*
X147421888Y-117029712D01*
X147393092Y-117049711D01*
X147306106Y-117095119D01*
X147215778Y-117121466D01*
X147124229Y-117129261D01*
X147033578Y-117119016D01*
X146945945Y-117091242D01*
X146863448Y-117046448D01*
X146788209Y-116985146D01*
X146722346Y-116907846D01*
X146706421Y-116884261D01*
X146642690Y-116771061D01*
X146592905Y-116651005D01*
X146556504Y-116521873D01*
X146532925Y-116381440D01*
X146521604Y-116227487D01*
X146520360Y-116148840D01*
X146521764Y-116117008D01*
X146806840Y-116117008D01*
X146810376Y-116144056D01*
X146818083Y-116153915D01*
X146818290Y-116153920D01*
X146830917Y-116147578D01*
X146852661Y-116131257D01*
X146870127Y-116116241D01*
X146921902Y-116062137D01*
X146976384Y-115992110D01*
X147031337Y-115909949D01*
X147084528Y-115819442D01*
X147133723Y-115724377D01*
X147176687Y-115628542D01*
X147209487Y-115540866D01*
X147232512Y-115461620D01*
X147249398Y-115382270D01*
X147259978Y-115305945D01*
X147264083Y-115235772D01*
X147261547Y-115174878D01*
X147252203Y-115126391D01*
X147235882Y-115093437D01*
X147233584Y-115090820D01*
X147203638Y-115072278D01*
X147165659Y-115066452D01*
X147128277Y-115074432D01*
X147123220Y-115076906D01*
X147104777Y-115093936D01*
X147080796Y-115126693D01*
X147052993Y-115171919D01*
X147023082Y-115226360D01*
X146992781Y-115286760D01*
X146963803Y-115349862D01*
X146937865Y-115412413D01*
X146918716Y-115465012D01*
X146901086Y-115522988D01*
X146883891Y-115589402D01*
X146867505Y-115661693D01*
X146852302Y-115737298D01*
X146838655Y-115813654D01*
X146826938Y-115888199D01*
X146817524Y-115958369D01*
X146810788Y-116021603D01*
X146807102Y-116075337D01*
X146806840Y-116117008D01*
X146521764Y-116117008D01*
X146529310Y-115945990D01*
X146555294Y-115742260D01*
X146597453Y-115542907D01*
X146645972Y-115379038D01*
X146695157Y-115246564D01*
X146746854Y-115132561D01*
X146802074Y-115035235D01*
X146861832Y-114952792D01*
X146924793Y-114885625D01*
X147000000Y-114825196D01*
X147075807Y-114783352D01*
X147150972Y-114760207D01*
X147224252Y-114755875D01*
X147294405Y-114770471D01*
G36*
X146124832Y-113369058D02*
G01*
X146141593Y-113381200D01*
X146160362Y-113398968D01*
X146176928Y-113422269D01*
X146192407Y-113453869D01*
X146207915Y-113496536D01*
X146224571Y-113553035D01*
X146243490Y-113626135D01*
X146248200Y-113645262D01*
X146276620Y-113767047D01*
X146301410Y-113886024D01*
X146322861Y-114004784D01*
X146341260Y-114125915D01*
X146356899Y-114252006D01*
X146370067Y-114385646D01*
X146381053Y-114529424D01*
X146390148Y-114685928D01*
X146397641Y-114857748D01*
X146403383Y-115032096D01*
X146406724Y-115178878D01*
X146408507Y-115329831D01*
X146408790Y-115482156D01*
X146407632Y-115633053D01*
X146405093Y-115779723D01*
X146401230Y-115919366D01*
X146396104Y-116049181D01*
X146389771Y-116166370D01*
X146382293Y-116268132D01*
X146376070Y-116331720D01*
X146360364Y-116450688D01*
X146340374Y-116567494D01*
X146316912Y-116678762D01*
X146290790Y-116781115D01*
X146262822Y-116871177D01*
X146233819Y-116945572D01*
X146222751Y-116968920D01*
X146189517Y-117020865D01*
X146147005Y-117067234D01*
X146101484Y-117101355D01*
X146095005Y-117104890D01*
X146052681Y-117116348D01*
X146000240Y-117114360D01*
X145941607Y-117100168D01*
X145880710Y-117075013D01*
X145821474Y-117040135D01*
X145775522Y-117003916D01*
X145751913Y-116979710D01*
X145718379Y-116941270D01*
X145676747Y-116890938D01*
X145628841Y-116831058D01*
X145576487Y-116763973D01*
X145521512Y-116692027D01*
X145465739Y-116617563D01*
X145410995Y-116542925D01*
X145359105Y-116470456D01*
X145350838Y-116458720D01*
X145274122Y-116347590D01*
X145195352Y-116229924D01*
X145116686Y-116109152D01*
X145040280Y-115988701D01*
X144968291Y-115872002D01*
X144902875Y-115762482D01*
X144846189Y-115663572D01*
X144815777Y-115607962D01*
X144795668Y-115571578D01*
X144778679Y-115543156D01*
X144767253Y-115526676D01*
X144764268Y-115524142D01*
X144758029Y-115533950D01*
X144753114Y-115562912D01*
X144749564Y-115609902D01*
X144747422Y-115673795D01*
X144746731Y-115753465D01*
X144747534Y-115847786D01*
X144749089Y-115925320D01*
X144758454Y-116168490D01*
X144774262Y-116393874D01*
X144796469Y-116600996D01*
X144825030Y-116789380D01*
X144832139Y-116828142D01*
X144845412Y-116937265D01*
X144841918Y-117035720D01*
X144821723Y-117123204D01*
X144784897Y-117199416D01*
X144733874Y-117261779D01*
X144700965Y-117289390D01*
X144674223Y-117299967D01*
X144649475Y-117293968D01*
X144624445Y-117273768D01*
X144611326Y-117257682D01*
X144599766Y-117235662D01*
X144588364Y-117203965D01*
X144575718Y-117158847D01*
X144564525Y-117113748D01*
X144550120Y-117051219D01*
X144537360Y-116989492D01*
X144526146Y-116926971D01*
X144516379Y-116862059D01*
X144507962Y-116793161D01*
X144500795Y-116718680D01*
X144494781Y-116637021D01*
X144489821Y-116546587D01*
X144485817Y-116445783D01*
X144482670Y-116333012D01*
X144480282Y-116206679D01*
X144478555Y-116065187D01*
X144477391Y-115906941D01*
X144476690Y-115730344D01*
X144476584Y-115686560D01*
X144474946Y-114939800D01*
X144411040Y-114777240D01*
X144374522Y-114681654D01*
X144346184Y-114600566D01*
X144325127Y-114530291D01*
X144310452Y-114467147D01*
X144301260Y-114407453D01*
X144296651Y-114347526D01*
X144295676Y-114304800D01*
X144296176Y-114247589D01*
X144298845Y-114204382D01*
X144304455Y-114168911D01*
X144313775Y-114134908D01*
X144318150Y-114121925D01*
X144331389Y-114087595D01*
X144343901Y-114061174D01*
X144352941Y-114048420D01*
X144381721Y-114040088D01*
X144409339Y-114051583D01*
X144432301Y-114078740D01*
X144441396Y-114095184D01*
X144458561Y-114127927D01*
X144482831Y-114175065D01*
X144513239Y-114234696D01*
X144548819Y-114304919D01*
X144588606Y-114383830D01*
X144631632Y-114469528D01*
X144676933Y-114560111D01*
X144686418Y-114579120D01*
X144792498Y-114789909D01*
X144892366Y-114984217D01*
X144987367Y-115164422D01*
X145078848Y-115332904D01*
X145168154Y-115492043D01*
X145256630Y-115644218D01*
X145345623Y-115791809D01*
X145436479Y-115937195D01*
X145530544Y-116082757D01*
X145574204Y-116148840D01*
X145639646Y-116246469D01*
X145695776Y-116328368D01*
X145743830Y-116396169D01*
X145785046Y-116451508D01*
X145820661Y-116496020D01*
X145851913Y-116531340D01*
X145880039Y-116559102D01*
X145893760Y-116571028D01*
X145930766Y-116599561D01*
X145958408Y-116613957D01*
X145981265Y-116614858D01*
X146003917Y-116602907D01*
X146020429Y-116588803D01*
X146034612Y-116574912D01*
X146045209Y-116561211D01*
X146053482Y-116543952D01*
X146060688Y-116519387D01*
X146068088Y-116483770D01*
X146076941Y-116433352D01*
X146081218Y-116407920D01*
X146116321Y-116148969D01*
X146137353Y-115875392D01*
X146144316Y-115587221D01*
X146137210Y-115284490D01*
X146116034Y-114967233D01*
X146080790Y-114635482D01*
X146060551Y-114482966D01*
X146041538Y-114354755D01*
X146022501Y-114242051D01*
X146002445Y-114140066D01*
X145980372Y-114044012D01*
X145955285Y-113949099D01*
X145934759Y-113878656D01*
X145884417Y-113711593D01*
X145916350Y-113615292D01*
X145948839Y-113532769D01*
X145986711Y-113463436D01*
X146028325Y-113409992D01*
X146055753Y-113385675D01*
X146084152Y-113366931D01*
X146104771Y-113361517D01*
X146124832Y-113369058D01*
G37*
X146124832Y-113369058D02*
X146141593Y-113381200D01*
X146160362Y-113398968D01*
X146176928Y-113422269D01*
X146192407Y-113453869D01*
X146207915Y-113496536D01*
X146224571Y-113553035D01*
X146243490Y-113626135D01*
X146248200Y-113645262D01*
X146276620Y-113767047D01*
X146301410Y-113886024D01*
X146322861Y-114004784D01*
X146341260Y-114125915D01*
X146356899Y-114252006D01*
X146370067Y-114385646D01*
X146381053Y-114529424D01*
X146390148Y-114685928D01*
X146397641Y-114857748D01*
X146403383Y-115032096D01*
X146406724Y-115178878D01*
X146408507Y-115329831D01*
X146408790Y-115482156D01*
X146407632Y-115633053D01*
X146405093Y-115779723D01*
X146401230Y-115919366D01*
X146396104Y-116049181D01*
X146389771Y-116166370D01*
X146382293Y-116268132D01*
X146376070Y-116331720D01*
X146360364Y-116450688D01*
X146340374Y-116567494D01*
X146316912Y-116678762D01*
X146290790Y-116781115D01*
X146262822Y-116871177D01*
X146233819Y-116945572D01*
X146222751Y-116968920D01*
X146189517Y-117020865D01*
X146147005Y-117067234D01*
X146101484Y-117101355D01*
X146095005Y-117104890D01*
X146052681Y-117116348D01*
X146000240Y-117114360D01*
X145941607Y-117100168D01*
X145880710Y-117075013D01*
X145821474Y-117040135D01*
X145775522Y-117003916D01*
X145751913Y-116979710D01*
X145718379Y-116941270D01*
X145676747Y-116890938D01*
X145628841Y-116831058D01*
X145576487Y-116763973D01*
X145521512Y-116692027D01*
X145465739Y-116617563D01*
X145410995Y-116542925D01*
X145359105Y-116470456D01*
X145350838Y-116458720D01*
X145274122Y-116347590D01*
X145195352Y-116229924D01*
X145116686Y-116109152D01*
X145040280Y-115988701D01*
X144968291Y-115872002D01*
X144902875Y-115762482D01*
X144846189Y-115663572D01*
X144815777Y-115607962D01*
X144795668Y-115571578D01*
X144778679Y-115543156D01*
X144767253Y-115526676D01*
X144764268Y-115524142D01*
X144758029Y-115533950D01*
X144753114Y-115562912D01*
X144749564Y-115609902D01*
X144747422Y-115673795D01*
X144746731Y-115753465D01*
X144747534Y-115847786D01*
X144749089Y-115925320D01*
X144758454Y-116168490D01*
X144774262Y-116393874D01*
X144796469Y-116600996D01*
X144825030Y-116789380D01*
X144832139Y-116828142D01*
X144845412Y-116937265D01*
X144841918Y-117035720D01*
X144821723Y-117123204D01*
X144784897Y-117199416D01*
X144733874Y-117261779D01*
X144700965Y-117289390D01*
X144674223Y-117299967D01*
X144649475Y-117293968D01*
X144624445Y-117273768D01*
X144611326Y-117257682D01*
X144599766Y-117235662D01*
X144588364Y-117203965D01*
X144575718Y-117158847D01*
X144564525Y-117113748D01*
X144550120Y-117051219D01*
X144537360Y-116989492D01*
X144526146Y-116926971D01*
X144516379Y-116862059D01*
X144507962Y-116793161D01*
X144500795Y-116718680D01*
X144494781Y-116637021D01*
X144489821Y-116546587D01*
X144485817Y-116445783D01*
X144482670Y-116333012D01*
X144480282Y-116206679D01*
X144478555Y-116065187D01*
X144477391Y-115906941D01*
X144476690Y-115730344D01*
X144476584Y-115686560D01*
X144474946Y-114939800D01*
X144411040Y-114777240D01*
X144374522Y-114681654D01*
X144346184Y-114600566D01*
X144325127Y-114530291D01*
X144310452Y-114467147D01*
X144301260Y-114407453D01*
X144296651Y-114347526D01*
X144295676Y-114304800D01*
X144296176Y-114247589D01*
X144298845Y-114204382D01*
X144304455Y-114168911D01*
X144313775Y-114134908D01*
X144318150Y-114121925D01*
X144331389Y-114087595D01*
X144343901Y-114061174D01*
X144352941Y-114048420D01*
X144381721Y-114040088D01*
X144409339Y-114051583D01*
X144432301Y-114078740D01*
X144441396Y-114095184D01*
X144458561Y-114127927D01*
X144482831Y-114175065D01*
X144513239Y-114234696D01*
X144548819Y-114304919D01*
X144588606Y-114383830D01*
X144631632Y-114469528D01*
X144676933Y-114560111D01*
X144686418Y-114579120D01*
X144792498Y-114789909D01*
X144892366Y-114984217D01*
X144987367Y-115164422D01*
X145078848Y-115332904D01*
X145168154Y-115492043D01*
X145256630Y-115644218D01*
X145345623Y-115791809D01*
X145436479Y-115937195D01*
X145530544Y-116082757D01*
X145574204Y-116148840D01*
X145639646Y-116246469D01*
X145695776Y-116328368D01*
X145743830Y-116396169D01*
X145785046Y-116451508D01*
X145820661Y-116496020D01*
X145851913Y-116531340D01*
X145880039Y-116559102D01*
X145893760Y-116571028D01*
X145930766Y-116599561D01*
X145958408Y-116613957D01*
X145981265Y-116614858D01*
X146003917Y-116602907D01*
X146020429Y-116588803D01*
X146034612Y-116574912D01*
X146045209Y-116561211D01*
X146053482Y-116543952D01*
X146060688Y-116519387D01*
X146068088Y-116483770D01*
X146076941Y-116433352D01*
X146081218Y-116407920D01*
X146116321Y-116148969D01*
X146137353Y-115875392D01*
X146144316Y-115587221D01*
X146137210Y-115284490D01*
X146116034Y-114967233D01*
X146080790Y-114635482D01*
X146060551Y-114482966D01*
X146041538Y-114354755D01*
X146022501Y-114242051D01*
X146002445Y-114140066D01*
X145980372Y-114044012D01*
X145955285Y-113949099D01*
X145934759Y-113878656D01*
X145884417Y-113711593D01*
X145916350Y-113615292D01*
X145948839Y-113532769D01*
X145986711Y-113463436D01*
X146028325Y-113409992D01*
X146055753Y-113385675D01*
X146084152Y-113366931D01*
X146104771Y-113361517D01*
X146124832Y-113369058D01*
D11*
%TO.C,TP2*%
X145070000Y-112630000D02*
X145070000Y-109970000D01*
X142470000Y-112630000D02*
X145070000Y-112630000D01*
X142470000Y-109970000D02*
X145070000Y-109970000D01*
X142470000Y-112630000D02*
X142470000Y-109970000D01*
X141200000Y-112630000D02*
X139870000Y-112630000D01*
X139870000Y-112630000D02*
X139870000Y-111300000D01*
%TO.C,TP1*%
X147830000Y-100570000D02*
X147830000Y-103230000D01*
X150430000Y-100570000D02*
X147830000Y-100570000D01*
X150430000Y-103230000D02*
X147830000Y-103230000D01*
X150430000Y-100570000D02*
X150430000Y-103230000D01*
X151700000Y-100570000D02*
X153030000Y-100570000D01*
X153030000Y-100570000D02*
X153030000Y-101900000D01*
D12*
%TO.C,D11*%
X124875000Y-137000000D02*
X124875000Y-136000000D01*
X130375000Y-136000000D02*
X124875000Y-136000000D01*
X130375000Y-139000000D02*
X124975000Y-139000000D01*
D13*
%TO.C,SW5*%
X175600000Y-140400000D02*
X175600000Y-142800000D01*
%TO.C,SW4*%
X171500000Y-142800000D02*
X171500000Y-140400000D01*
%TO.C,SW3*%
X164600000Y-142800000D02*
X164600000Y-140400000D01*
D11*
%TO.C,J1*%
X157125000Y-99500000D02*
X143725000Y-99500000D01*
X157125000Y-93500000D02*
X152175000Y-93500000D01*
X157125000Y-93500000D02*
X157125000Y-96100000D01*
X143725000Y-93500000D02*
X143725000Y-96100000D01*
X143725000Y-93500000D02*
X148675000Y-93500000D01*
%TO.C,U6*%
X156045000Y-138095000D02*
X156425000Y-138095000D01*
X156045000Y-144515000D02*
X156045000Y-138095000D01*
X137805000Y-144515000D02*
X137805000Y-138095000D01*
X156045000Y-144515000D02*
X137805000Y-144515000D01*
X137805000Y-118770000D02*
X138805000Y-118770000D01*
X137805000Y-119550000D02*
X137805000Y-118770000D01*
X156045000Y-118770000D02*
X155045000Y-118770000D01*
X156045000Y-119550000D02*
X156045000Y-118770000D01*
%TO.C,J3*%
X140100000Y-106175000D02*
X137950000Y-106175000D01*
X137950000Y-102625000D02*
X140850000Y-102625000D01*
X146250000Y-106175000D02*
X146250000Y-102625000D01*
X146250000Y-102625000D02*
X143350000Y-102625000D01*
X137950000Y-106175000D02*
X137950000Y-102625000D01*
X144100000Y-106175000D02*
X146250000Y-106175000D01*
X143800000Y-106175000D02*
X143200000Y-106175000D01*
X143800000Y-105425000D02*
X143800000Y-106175000D01*
%TO.C,D8*%
X161512500Y-138485000D02*
X163972500Y-138485000D01*
X161512500Y-137015000D02*
X161512500Y-138485000D01*
X163972500Y-137015000D02*
X161512500Y-137015000D01*
%TO.C,D10*%
X175354166Y-138485000D02*
X177814166Y-138485000D01*
X175354166Y-137015000D02*
X175354166Y-138485000D01*
X177814166Y-137015000D02*
X175354166Y-137015000D01*
%TO.C,D9*%
X168390000Y-138485000D02*
X170850000Y-138485000D01*
X168390000Y-137015000D02*
X168390000Y-138485000D01*
X170850000Y-137015000D02*
X168390000Y-137015000D01*
%TO.C,SW2*%
X121900000Y-138625000D02*
X121900000Y-141125000D01*
X120150000Y-137125000D02*
X118150000Y-137125000D01*
X116400000Y-138625000D02*
X116400000Y-141125000D01*
X120150000Y-142625000D02*
X118150000Y-142625000D01*
X121450000Y-138175000D02*
X121900000Y-138625000D01*
X121450000Y-141575000D02*
X121900000Y-141125000D01*
X116850000Y-141575000D02*
X116400000Y-141125000D01*
X116850000Y-138175000D02*
X116400000Y-138625000D01*
D14*
%TO.C,BT1*%
X124400000Y-65850000D02*
X124400000Y-64350000D01*
X134725000Y-135125000D02*
X134725000Y-58075000D01*
X114075000Y-135125000D02*
X134725000Y-135125000D01*
X114075000Y-58075000D02*
X114075000Y-135125000D01*
X134725000Y-58075000D02*
X114075000Y-58075000D01*
X123650000Y-128100000D02*
X125150000Y-128100000D01*
X124400000Y-127350000D02*
X124400000Y-128850000D01*
D11*
%TO.C,R15*%
X158060000Y-134946267D02*
X158060000Y-134603733D01*
X157040000Y-134946267D02*
X157040000Y-134603733D01*
%TO.C,R17*%
X135465000Y-120503733D02*
X135465000Y-120846267D01*
X136485000Y-120503733D02*
X136485000Y-120846267D01*
%TO.C,R22*%
X159158733Y-137880000D02*
X159501267Y-137880000D01*
X159158733Y-136860000D02*
X159501267Y-136860000D01*
%TO.C,R26*%
X173671267Y-137240000D02*
X173328733Y-137240000D01*
X173671267Y-138260000D02*
X173328733Y-138260000D01*
%TO.C,R24*%
X166771267Y-137240000D02*
X166428733Y-137240000D01*
X166771267Y-138260000D02*
X166428733Y-138260000D01*
%TO.C,D4*%
X148450000Y-107200000D02*
X148450000Y-110350000D01*
X146750000Y-107200000D02*
X146750000Y-110350000D01*
X148450000Y-107200000D02*
X146750000Y-107200000D01*
%TO.C,J7*%
X138620000Y-60350000D02*
X138620000Y-58990000D01*
X155380000Y-65550000D02*
X155950000Y-65550000D01*
X152840000Y-65550000D02*
X153860000Y-65550000D01*
X150300000Y-65550000D02*
X151320000Y-65550000D01*
X147760000Y-65550000D02*
X148780000Y-65550000D01*
X145220000Y-65550000D02*
X146240000Y-65550000D01*
X142680000Y-65550000D02*
X143700000Y-65550000D01*
X140140000Y-65550000D02*
X141160000Y-65550000D01*
X138050000Y-65550000D02*
X138620000Y-65550000D01*
X155950000Y-65550000D02*
X155950000Y-60350000D01*
X155380000Y-60350000D02*
X155950000Y-60350000D01*
X152840000Y-60350000D02*
X153860000Y-60350000D01*
X150300000Y-60350000D02*
X151320000Y-60350000D01*
X147760000Y-60350000D02*
X148780000Y-60350000D01*
X145220000Y-60350000D02*
X146240000Y-60350000D01*
X142680000Y-60350000D02*
X143700000Y-60350000D01*
X140140000Y-60350000D02*
X141160000Y-60350000D01*
X138050000Y-60350000D02*
X138620000Y-60350000D01*
X138050000Y-65550000D02*
X138050000Y-60350000D01*
%TO.C,D5*%
X142300000Y-108850000D02*
X139150000Y-108850000D01*
X142300000Y-107150000D02*
X139150000Y-107150000D01*
X142300000Y-108850000D02*
X142300000Y-107150000D01*
%TO.C,D6*%
X142600000Y-107150000D02*
X145750000Y-107150000D01*
X142600000Y-108850000D02*
X145750000Y-108850000D01*
X142600000Y-107150000D02*
X142600000Y-108850000D01*
%TO.C,R12*%
X137171267Y-111010000D02*
X136828733Y-111010000D01*
X137171267Y-109990000D02*
X136828733Y-109990000D01*
%TO.C,Q5*%
X135420000Y-113860000D02*
X136350000Y-113860000D01*
X138580000Y-113860000D02*
X137650000Y-113860000D01*
X138580000Y-113860000D02*
X138580000Y-111700000D01*
X135420000Y-113860000D02*
X135420000Y-112400000D01*
D14*
%TO.C,J2*%
X141810000Y-87060000D02*
X141810000Y-86730000D01*
X135110000Y-87060000D02*
X135110000Y-86730000D01*
X141810000Y-88750000D02*
X141810000Y-94050000D01*
X135110000Y-88740000D02*
X135110000Y-94090000D01*
X135110000Y-94090000D02*
X141810000Y-94090000D01*
X141810000Y-86730000D02*
X135110000Y-86730000D01*
D11*
%TO.C,C16*%
X166260000Y-141978733D02*
X166260000Y-142321267D01*
X165240000Y-141978733D02*
X165240000Y-142321267D01*
%TO.C,C17*%
X173190000Y-142008733D02*
X173190000Y-142351267D01*
X172170000Y-142008733D02*
X172170000Y-142351267D01*
%TO.C,C18*%
X174940000Y-141998733D02*
X174940000Y-142341267D01*
X173920000Y-141998733D02*
X173920000Y-142341267D01*
D14*
%TO.C,BT2*%
X169600000Y-127350000D02*
X169600000Y-128850000D01*
X159275000Y-58075000D02*
X159275000Y-135125000D01*
X179925000Y-58075000D02*
X159275000Y-58075000D01*
X179925000Y-135125000D02*
X179925000Y-58075000D01*
X159275000Y-135125000D02*
X179925000Y-135125000D01*
X170350000Y-65100000D02*
X168850000Y-65100000D01*
X169600000Y-65850000D02*
X169600000Y-64350000D01*
%TO.C,J1*%
D12*
X150091666Y-90752380D02*
X150091666Y-91466666D01*
X150044047Y-91609523D01*
X149948809Y-91704761D01*
X149805952Y-91752380D01*
X149710714Y-91752380D01*
X151091666Y-91752380D02*
X150520238Y-91752380D01*
X150805952Y-91752380D02*
X150805952Y-90752380D01*
X150710714Y-90895238D01*
X150615476Y-90990476D01*
X150520238Y-91038095D01*
%TO.C,U6*%
X154388095Y-116702380D02*
X154388095Y-117511904D01*
X154435714Y-117607142D01*
X154483333Y-117654761D01*
X154578571Y-117702380D01*
X154769047Y-117702380D01*
X154864285Y-117654761D01*
X154911904Y-117607142D01*
X154959523Y-117511904D01*
X154959523Y-116702380D01*
X155864285Y-116702380D02*
X155673809Y-116702380D01*
X155578571Y-116750000D01*
X155530952Y-116797619D01*
X155435714Y-116940476D01*
X155388095Y-117130952D01*
X155388095Y-117511904D01*
X155435714Y-117607142D01*
X155483333Y-117654761D01*
X155578571Y-117702380D01*
X155769047Y-117702380D01*
X155864285Y-117654761D01*
X155911904Y-117607142D01*
X155959523Y-117511904D01*
X155959523Y-117273809D01*
X155911904Y-117178571D01*
X155864285Y-117130952D01*
X155769047Y-117083333D01*
X155578571Y-117083333D01*
X155483333Y-117130952D01*
X155435714Y-117178571D01*
X155388095Y-117273809D01*
%TO.C,J3*%
X141766666Y-100514333D02*
X141766666Y-101228619D01*
X141719047Y-101371476D01*
X141623809Y-101466714D01*
X141480952Y-101514333D01*
X141385714Y-101514333D01*
X142147619Y-100514333D02*
X142766666Y-100514333D01*
X142433333Y-100895286D01*
X142576190Y-100895286D01*
X142671428Y-100942905D01*
X142719047Y-100990524D01*
X142766666Y-101085762D01*
X142766666Y-101323857D01*
X142719047Y-101419095D01*
X142671428Y-101466714D01*
X142576190Y-101514333D01*
X142290476Y-101514333D01*
X142195238Y-101466714D01*
X142147619Y-101419095D01*
%TO.C,J7*%
X146666666Y-68152380D02*
X146666666Y-68866666D01*
X146619047Y-69009523D01*
X146523809Y-69104761D01*
X146380952Y-69152380D01*
X146285714Y-69152380D01*
X147047619Y-68152380D02*
X147714285Y-68152380D01*
X147285714Y-69152380D01*
%TO.C,J2*%
X135656666Y-85012380D02*
X135656666Y-85726666D01*
X135609047Y-85869523D01*
X135513809Y-85964761D01*
X135370952Y-86012380D01*
X135275714Y-86012380D01*
X136085238Y-85107619D02*
X136132857Y-85060000D01*
X136228095Y-85012380D01*
X136466190Y-85012380D01*
X136561428Y-85060000D01*
X136609047Y-85107619D01*
X136656666Y-85202857D01*
X136656666Y-85298095D01*
X136609047Y-85440952D01*
X136037619Y-86012380D01*
X136656666Y-86012380D01*
X140275714Y-93302380D02*
X139704285Y-93302380D01*
X139990000Y-93302380D02*
X139990000Y-92302380D01*
X139894761Y-92445238D01*
X139799523Y-92540476D01*
X139704285Y-92588095D01*
%TD*%
M02*
