%TF.GenerationSoftware,KiCad,Pcbnew,(5.1.6)-1*%
%TF.CreationDate,2022-05-13T20:51:31+02:00*%
%TF.ProjectId,ZumoComSystem,5a756d6f-436f-46d5-9379-7374656d2e6b,V1.0*%
%TF.SameCoordinates,Original*%
%TF.FileFunction,Paste,Bot*%
%TF.FilePolarity,Positive*%
%FSLAX46Y46*%
G04 Gerber Fmt 4.6, Leading zero omitted, Abs format (unit mm)*
G04 Created by KiCad (PCBNEW (5.1.6)-1) date 2022-05-13 20:51:31*
%MOMM*%
%LPD*%
G01*
G04 APERTURE LIST*
%ADD10C,0.010000*%
%ADD11R,1.981200X0.533400*%
%ADD12R,0.812800X0.304800*%
%ADD13R,3.400000X0.980000*%
%ADD14R,4.500000X5.000000*%
%ADD15R,0.600000X0.450000*%
%ADD16R,2.300000X3.500000*%
%ADD17R,0.900000X0.800000*%
%ADD18R,0.800000X0.900000*%
%ADD19R,2.000000X0.650000*%
%ADD20R,2.100000X1.800000*%
%ADD21R,3.150000X1.000000*%
%ADD22R,1.310000X0.600000*%
%ADD23R,0.600000X1.310000*%
G04 APERTURE END LIST*
D10*
%TO.C,U5*%
G36*
X141200000Y-113600000D02*
G01*
X141200000Y-115600000D01*
X143200000Y-115600000D01*
X143200000Y-113600000D01*
X141200000Y-113600000D01*
G37*
X141200000Y-113600000D02*
X141200000Y-115600000D01*
X143200000Y-115600000D01*
X143200000Y-113600000D01*
X141200000Y-113600000D01*
%TO.C,U3*%
G36*
X160685929Y-111000000D02*
G01*
X159300000Y-109614071D01*
X157914071Y-111000000D01*
X159300000Y-112385929D01*
X160685929Y-111000000D01*
G37*
X160685929Y-111000000D02*
X159300000Y-109614071D01*
X157914071Y-111000000D01*
X159300000Y-112385929D01*
X160685929Y-111000000D01*
%TD*%
D11*
%TO.C,U1*%
X135863800Y-69705000D03*
X135863800Y-68435000D03*
X135863800Y-67165000D03*
X135863800Y-65895000D03*
X130936200Y-65895000D03*
X130936200Y-67165000D03*
X130936200Y-68435000D03*
X130936200Y-69705000D03*
%TD*%
D12*
%TO.C,U2*%
X170252200Y-67362000D03*
X170252200Y-66854000D03*
X170252200Y-66346000D03*
X170252200Y-65838000D03*
X173147800Y-65838000D03*
X173147800Y-66346000D03*
X173147800Y-66854000D03*
X173147800Y-67362000D03*
%TD*%
D13*
%TO.C,L1*%
X176000000Y-72785000D03*
X176000000Y-70415000D03*
%TD*%
%TO.C,R3*%
G36*
G01*
X171350000Y-63262500D02*
X171350000Y-63737500D01*
G75*
G02*
X171112500Y-63975000I-237500J0D01*
G01*
X170537500Y-63975000D01*
G75*
G02*
X170300000Y-63737500I0J237500D01*
G01*
X170300000Y-63262500D01*
G75*
G02*
X170537500Y-63025000I237500J0D01*
G01*
X171112500Y-63025000D01*
G75*
G02*
X171350000Y-63262500I0J-237500D01*
G01*
G37*
G36*
G01*
X173100000Y-63262500D02*
X173100000Y-63737500D01*
G75*
G02*
X172862500Y-63975000I-237500J0D01*
G01*
X172287500Y-63975000D01*
G75*
G02*
X172050000Y-63737500I0J237500D01*
G01*
X172050000Y-63262500D01*
G75*
G02*
X172287500Y-63025000I237500J0D01*
G01*
X172862500Y-63025000D01*
G75*
G02*
X173100000Y-63262500I0J-237500D01*
G01*
G37*
%TD*%
%TO.C,C6*%
G36*
G01*
X176150001Y-63750000D02*
X175249999Y-63750000D01*
G75*
G02*
X175000000Y-63500001I0J249999D01*
G01*
X175000000Y-62849999D01*
G75*
G02*
X175249999Y-62600000I249999J0D01*
G01*
X176150001Y-62600000D01*
G75*
G02*
X176400000Y-62849999I0J-249999D01*
G01*
X176400000Y-63500001D01*
G75*
G02*
X176150001Y-63750000I-249999J0D01*
G01*
G37*
G36*
G01*
X176150001Y-65800000D02*
X175249999Y-65800000D01*
G75*
G02*
X175000000Y-65550001I0J249999D01*
G01*
X175000000Y-64899999D01*
G75*
G02*
X175249999Y-64650000I249999J0D01*
G01*
X176150001Y-64650000D01*
G75*
G02*
X176400000Y-64899999I0J-249999D01*
G01*
X176400000Y-65550001D01*
G75*
G02*
X176150001Y-65800000I-249999J0D01*
G01*
G37*
%TD*%
%TO.C,U5*%
G36*
G01*
X140577800Y-116485000D02*
X140822200Y-116485000D01*
G75*
G02*
X140830000Y-116492800I0J-7800D01*
G01*
X140830000Y-117447200D01*
G75*
G02*
X140822200Y-117455000I-7800J0D01*
G01*
X140577800Y-117455000D01*
G75*
G02*
X140570000Y-117447200I0J7800D01*
G01*
X140570000Y-116492800D01*
G75*
G02*
X140577800Y-116485000I7800J0D01*
G01*
G37*
G36*
G01*
X141077800Y-116485000D02*
X141322200Y-116485000D01*
G75*
G02*
X141330000Y-116492800I0J-7800D01*
G01*
X141330000Y-117447200D01*
G75*
G02*
X141322200Y-117455000I-7800J0D01*
G01*
X141077800Y-117455000D01*
G75*
G02*
X141070000Y-117447200I0J7800D01*
G01*
X141070000Y-116492800D01*
G75*
G02*
X141077800Y-116485000I7800J0D01*
G01*
G37*
G36*
G01*
X141577800Y-116485000D02*
X141822200Y-116485000D01*
G75*
G02*
X141830000Y-116492800I0J-7800D01*
G01*
X141830000Y-117447200D01*
G75*
G02*
X141822200Y-117455000I-7800J0D01*
G01*
X141577800Y-117455000D01*
G75*
G02*
X141570000Y-117447200I0J7800D01*
G01*
X141570000Y-116492800D01*
G75*
G02*
X141577800Y-116485000I7800J0D01*
G01*
G37*
G36*
G01*
X142077800Y-116485000D02*
X142322200Y-116485000D01*
G75*
G02*
X142330000Y-116492800I0J-7800D01*
G01*
X142330000Y-117447200D01*
G75*
G02*
X142322200Y-117455000I-7800J0D01*
G01*
X142077800Y-117455000D01*
G75*
G02*
X142070000Y-117447200I0J7800D01*
G01*
X142070000Y-116492800D01*
G75*
G02*
X142077800Y-116485000I7800J0D01*
G01*
G37*
G36*
G01*
X142577800Y-116485000D02*
X142822200Y-116485000D01*
G75*
G02*
X142830000Y-116492800I0J-7800D01*
G01*
X142830000Y-117447200D01*
G75*
G02*
X142822200Y-117455000I-7800J0D01*
G01*
X142577800Y-117455000D01*
G75*
G02*
X142570000Y-117447200I0J7800D01*
G01*
X142570000Y-116492800D01*
G75*
G02*
X142577800Y-116485000I7800J0D01*
G01*
G37*
G36*
G01*
X143077800Y-116485000D02*
X143322200Y-116485000D01*
G75*
G02*
X143330000Y-116492800I0J-7800D01*
G01*
X143330000Y-117447200D01*
G75*
G02*
X143322200Y-117455000I-7800J0D01*
G01*
X143077800Y-117455000D01*
G75*
G02*
X143070000Y-117447200I0J7800D01*
G01*
X143070000Y-116492800D01*
G75*
G02*
X143077800Y-116485000I7800J0D01*
G01*
G37*
G36*
G01*
X143577800Y-116485000D02*
X143822200Y-116485000D01*
G75*
G02*
X143830000Y-116492800I0J-7800D01*
G01*
X143830000Y-117447200D01*
G75*
G02*
X143822200Y-117455000I-7800J0D01*
G01*
X143577800Y-117455000D01*
G75*
G02*
X143570000Y-117447200I0J7800D01*
G01*
X143570000Y-116492800D01*
G75*
G02*
X143577800Y-116485000I7800J0D01*
G01*
G37*
G36*
G01*
X143577800Y-111745000D02*
X143822200Y-111745000D01*
G75*
G02*
X143830000Y-111752800I0J-7800D01*
G01*
X143830000Y-112707200D01*
G75*
G02*
X143822200Y-112715000I-7800J0D01*
G01*
X143577800Y-112715000D01*
G75*
G02*
X143570000Y-112707200I0J7800D01*
G01*
X143570000Y-111752800D01*
G75*
G02*
X143577800Y-111745000I7800J0D01*
G01*
G37*
G36*
G01*
X143077800Y-111745000D02*
X143322200Y-111745000D01*
G75*
G02*
X143330000Y-111752800I0J-7800D01*
G01*
X143330000Y-112707200D01*
G75*
G02*
X143322200Y-112715000I-7800J0D01*
G01*
X143077800Y-112715000D01*
G75*
G02*
X143070000Y-112707200I0J7800D01*
G01*
X143070000Y-111752800D01*
G75*
G02*
X143077800Y-111745000I7800J0D01*
G01*
G37*
G36*
G01*
X142577800Y-111745000D02*
X142822200Y-111745000D01*
G75*
G02*
X142830000Y-111752800I0J-7800D01*
G01*
X142830000Y-112707200D01*
G75*
G02*
X142822200Y-112715000I-7800J0D01*
G01*
X142577800Y-112715000D01*
G75*
G02*
X142570000Y-112707200I0J7800D01*
G01*
X142570000Y-111752800D01*
G75*
G02*
X142577800Y-111745000I7800J0D01*
G01*
G37*
G36*
G01*
X142077800Y-111745000D02*
X142322200Y-111745000D01*
G75*
G02*
X142330000Y-111752800I0J-7800D01*
G01*
X142330000Y-112707200D01*
G75*
G02*
X142322200Y-112715000I-7800J0D01*
G01*
X142077800Y-112715000D01*
G75*
G02*
X142070000Y-112707200I0J7800D01*
G01*
X142070000Y-111752800D01*
G75*
G02*
X142077800Y-111745000I7800J0D01*
G01*
G37*
G36*
G01*
X141577800Y-111745000D02*
X141822200Y-111745000D01*
G75*
G02*
X141830000Y-111752800I0J-7800D01*
G01*
X141830000Y-112707200D01*
G75*
G02*
X141822200Y-112715000I-7800J0D01*
G01*
X141577800Y-112715000D01*
G75*
G02*
X141570000Y-112707200I0J7800D01*
G01*
X141570000Y-111752800D01*
G75*
G02*
X141577800Y-111745000I7800J0D01*
G01*
G37*
G36*
G01*
X141077800Y-111745000D02*
X141322200Y-111745000D01*
G75*
G02*
X141330000Y-111752800I0J-7800D01*
G01*
X141330000Y-112707200D01*
G75*
G02*
X141322200Y-112715000I-7800J0D01*
G01*
X141077800Y-112715000D01*
G75*
G02*
X141070000Y-112707200I0J7800D01*
G01*
X141070000Y-111752800D01*
G75*
G02*
X141077800Y-111745000I7800J0D01*
G01*
G37*
G36*
G01*
X140577800Y-111745000D02*
X140822200Y-111745000D01*
G75*
G02*
X140830000Y-111752800I0J-7800D01*
G01*
X140830000Y-112707200D01*
G75*
G02*
X140822200Y-112715000I-7800J0D01*
G01*
X140577800Y-112715000D01*
G75*
G02*
X140570000Y-112707200I0J7800D01*
G01*
X140570000Y-111752800D01*
G75*
G02*
X140577800Y-111745000I7800J0D01*
G01*
G37*
G36*
G01*
X140315000Y-112977800D02*
X140315000Y-113222200D01*
G75*
G02*
X140307200Y-113230000I-7800J0D01*
G01*
X139352800Y-113230000D01*
G75*
G02*
X139345000Y-113222200I0J7800D01*
G01*
X139345000Y-112977800D01*
G75*
G02*
X139352800Y-112970000I7800J0D01*
G01*
X140307200Y-112970000D01*
G75*
G02*
X140315000Y-112977800I0J-7800D01*
G01*
G37*
G36*
G01*
X140315000Y-113477800D02*
X140315000Y-113722200D01*
G75*
G02*
X140307200Y-113730000I-7800J0D01*
G01*
X139352800Y-113730000D01*
G75*
G02*
X139345000Y-113722200I0J7800D01*
G01*
X139345000Y-113477800D01*
G75*
G02*
X139352800Y-113470000I7800J0D01*
G01*
X140307200Y-113470000D01*
G75*
G02*
X140315000Y-113477800I0J-7800D01*
G01*
G37*
G36*
G01*
X140315000Y-113977800D02*
X140315000Y-114222200D01*
G75*
G02*
X140307200Y-114230000I-7800J0D01*
G01*
X139352800Y-114230000D01*
G75*
G02*
X139345000Y-114222200I0J7800D01*
G01*
X139345000Y-113977800D01*
G75*
G02*
X139352800Y-113970000I7800J0D01*
G01*
X140307200Y-113970000D01*
G75*
G02*
X140315000Y-113977800I0J-7800D01*
G01*
G37*
G36*
G01*
X140315000Y-114477800D02*
X140315000Y-114722200D01*
G75*
G02*
X140307200Y-114730000I-7800J0D01*
G01*
X139352800Y-114730000D01*
G75*
G02*
X139345000Y-114722200I0J7800D01*
G01*
X139345000Y-114477800D01*
G75*
G02*
X139352800Y-114470000I7800J0D01*
G01*
X140307200Y-114470000D01*
G75*
G02*
X140315000Y-114477800I0J-7800D01*
G01*
G37*
G36*
G01*
X140315000Y-114977800D02*
X140315000Y-115222200D01*
G75*
G02*
X140307200Y-115230000I-7800J0D01*
G01*
X139352800Y-115230000D01*
G75*
G02*
X139345000Y-115222200I0J7800D01*
G01*
X139345000Y-114977800D01*
G75*
G02*
X139352800Y-114970000I7800J0D01*
G01*
X140307200Y-114970000D01*
G75*
G02*
X140315000Y-114977800I0J-7800D01*
G01*
G37*
G36*
G01*
X140315000Y-115477800D02*
X140315000Y-115722200D01*
G75*
G02*
X140307200Y-115730000I-7800J0D01*
G01*
X139352800Y-115730000D01*
G75*
G02*
X139345000Y-115722200I0J7800D01*
G01*
X139345000Y-115477800D01*
G75*
G02*
X139352800Y-115470000I7800J0D01*
G01*
X140307200Y-115470000D01*
G75*
G02*
X140315000Y-115477800I0J-7800D01*
G01*
G37*
G36*
G01*
X140315000Y-115977800D02*
X140315000Y-116222200D01*
G75*
G02*
X140307200Y-116230000I-7800J0D01*
G01*
X139352800Y-116230000D01*
G75*
G02*
X139345000Y-116222200I0J7800D01*
G01*
X139345000Y-115977800D01*
G75*
G02*
X139352800Y-115970000I7800J0D01*
G01*
X140307200Y-115970000D01*
G75*
G02*
X140315000Y-115977800I0J-7800D01*
G01*
G37*
G36*
G01*
X145055000Y-115977800D02*
X145055000Y-116222200D01*
G75*
G02*
X145047200Y-116230000I-7800J0D01*
G01*
X144092800Y-116230000D01*
G75*
G02*
X144085000Y-116222200I0J7800D01*
G01*
X144085000Y-115977800D01*
G75*
G02*
X144092800Y-115970000I7800J0D01*
G01*
X145047200Y-115970000D01*
G75*
G02*
X145055000Y-115977800I0J-7800D01*
G01*
G37*
G36*
G01*
X145055000Y-115477800D02*
X145055000Y-115722200D01*
G75*
G02*
X145047200Y-115730000I-7800J0D01*
G01*
X144092800Y-115730000D01*
G75*
G02*
X144085000Y-115722200I0J7800D01*
G01*
X144085000Y-115477800D01*
G75*
G02*
X144092800Y-115470000I7800J0D01*
G01*
X145047200Y-115470000D01*
G75*
G02*
X145055000Y-115477800I0J-7800D01*
G01*
G37*
G36*
G01*
X145055000Y-114977800D02*
X145055000Y-115222200D01*
G75*
G02*
X145047200Y-115230000I-7800J0D01*
G01*
X144092800Y-115230000D01*
G75*
G02*
X144085000Y-115222200I0J7800D01*
G01*
X144085000Y-114977800D01*
G75*
G02*
X144092800Y-114970000I7800J0D01*
G01*
X145047200Y-114970000D01*
G75*
G02*
X145055000Y-114977800I0J-7800D01*
G01*
G37*
G36*
G01*
X145055000Y-114477800D02*
X145055000Y-114722200D01*
G75*
G02*
X145047200Y-114730000I-7800J0D01*
G01*
X144092800Y-114730000D01*
G75*
G02*
X144085000Y-114722200I0J7800D01*
G01*
X144085000Y-114477800D01*
G75*
G02*
X144092800Y-114470000I7800J0D01*
G01*
X145047200Y-114470000D01*
G75*
G02*
X145055000Y-114477800I0J-7800D01*
G01*
G37*
G36*
G01*
X145055000Y-113977800D02*
X145055000Y-114222200D01*
G75*
G02*
X145047200Y-114230000I-7800J0D01*
G01*
X144092800Y-114230000D01*
G75*
G02*
X144085000Y-114222200I0J7800D01*
G01*
X144085000Y-113977800D01*
G75*
G02*
X144092800Y-113970000I7800J0D01*
G01*
X145047200Y-113970000D01*
G75*
G02*
X145055000Y-113977800I0J-7800D01*
G01*
G37*
G36*
G01*
X145055000Y-113477800D02*
X145055000Y-113722200D01*
G75*
G02*
X145047200Y-113730000I-7800J0D01*
G01*
X144092800Y-113730000D01*
G75*
G02*
X144085000Y-113722200I0J7800D01*
G01*
X144085000Y-113477800D01*
G75*
G02*
X144092800Y-113470000I7800J0D01*
G01*
X145047200Y-113470000D01*
G75*
G02*
X145055000Y-113477800I0J-7800D01*
G01*
G37*
G36*
G01*
X145055000Y-112977800D02*
X145055000Y-113222200D01*
G75*
G02*
X145047200Y-113230000I-7800J0D01*
G01*
X144092800Y-113230000D01*
G75*
G02*
X144085000Y-113222200I0J7800D01*
G01*
X144085000Y-112977800D01*
G75*
G02*
X144092800Y-112970000I7800J0D01*
G01*
X145047200Y-112970000D01*
G75*
G02*
X145055000Y-112977800I0J-7800D01*
G01*
G37*
%TD*%
%TO.C,U3*%
G36*
G01*
X159142244Y-108187907D02*
X158962781Y-108367371D01*
G75*
G02*
X158951325Y-108367371I-5728J5728D01*
G01*
X157619277Y-107035323D01*
G75*
G02*
X157619277Y-107023867I5728J5728D01*
G01*
X157798741Y-106844403D01*
G75*
G02*
X157810197Y-106844403I5728J-5728D01*
G01*
X159142245Y-108176451D01*
G75*
G02*
X159142245Y-108187907I-5728J-5728D01*
G01*
G37*
G36*
G01*
X158859402Y-108612171D02*
X158679938Y-108791635D01*
G75*
G02*
X158668482Y-108791635I-5728J5728D01*
G01*
X157265724Y-107388877D01*
G75*
G02*
X157265724Y-107377421I5728J5728D01*
G01*
X157445188Y-107197957D01*
G75*
G02*
X157456644Y-107197957I5728J-5728D01*
G01*
X158859402Y-108600715D01*
G75*
G02*
X158859402Y-108612171I-5728J-5728D01*
G01*
G37*
G36*
G01*
X158505849Y-108965725D02*
X158326385Y-109145189D01*
G75*
G02*
X158314929Y-109145189I-5728J5728D01*
G01*
X156912171Y-107742431D01*
G75*
G02*
X156912171Y-107730975I5728J5728D01*
G01*
X157091635Y-107551511D01*
G75*
G02*
X157103091Y-107551511I5728J-5728D01*
G01*
X158505849Y-108954269D01*
G75*
G02*
X158505849Y-108965725I-5728J-5728D01*
G01*
G37*
G36*
G01*
X158152295Y-109319278D02*
X157972831Y-109498742D01*
G75*
G02*
X157961375Y-109498742I-5728J5728D01*
G01*
X156558617Y-108095984D01*
G75*
G02*
X156558617Y-108084528I5728J5728D01*
G01*
X156738081Y-107905064D01*
G75*
G02*
X156749537Y-107905064I5728J-5728D01*
G01*
X158152295Y-109307822D01*
G75*
G02*
X158152295Y-109319278I-5728J-5728D01*
G01*
G37*
G36*
G01*
X157798742Y-109672831D02*
X157619278Y-109852295D01*
G75*
G02*
X157607822Y-109852295I-5728J5728D01*
G01*
X156205064Y-108449537D01*
G75*
G02*
X156205064Y-108438081I5728J5728D01*
G01*
X156384528Y-108258617D01*
G75*
G02*
X156395984Y-108258617I5728J-5728D01*
G01*
X157798742Y-109661375D01*
G75*
G02*
X157798742Y-109672831I-5728J-5728D01*
G01*
G37*
G36*
G01*
X157445189Y-110026385D02*
X157265725Y-110205849D01*
G75*
G02*
X157254269Y-110205849I-5728J5728D01*
G01*
X155851511Y-108803091D01*
G75*
G02*
X155851511Y-108791635I5728J5728D01*
G01*
X156030975Y-108612171D01*
G75*
G02*
X156042431Y-108612171I5728J-5728D01*
G01*
X157445189Y-110014929D01*
G75*
G02*
X157445189Y-110026385I-5728J-5728D01*
G01*
G37*
G36*
G01*
X157091635Y-110379938D02*
X156912171Y-110559402D01*
G75*
G02*
X156900715Y-110559402I-5728J5728D01*
G01*
X155497957Y-109156644D01*
G75*
G02*
X155497957Y-109145188I5728J5728D01*
G01*
X155677421Y-108965724D01*
G75*
G02*
X155688877Y-108965724I5728J-5728D01*
G01*
X157091635Y-110368482D01*
G75*
G02*
X157091635Y-110379938I-5728J-5728D01*
G01*
G37*
G36*
G01*
X156667370Y-110662781D02*
X156487907Y-110842245D01*
G75*
G02*
X156476451Y-110842245I-5728J5728D01*
G01*
X155144403Y-109510197D01*
G75*
G02*
X155144403Y-109498741I5728J5728D01*
G01*
X155323867Y-109319277D01*
G75*
G02*
X155335323Y-109319277I5728J-5728D01*
G01*
X156667371Y-110651325D01*
G75*
G02*
X156667371Y-110662781I-5728J-5728D01*
G01*
G37*
G36*
G01*
X160980722Y-114976133D02*
X160801259Y-115155597D01*
G75*
G02*
X160789803Y-115155597I-5728J5728D01*
G01*
X159457755Y-113823549D01*
G75*
G02*
X159457755Y-113812093I5728J5728D01*
G01*
X159637219Y-113632629D01*
G75*
G02*
X159648675Y-113632629I5728J-5728D01*
G01*
X160980723Y-114964677D01*
G75*
G02*
X160980723Y-114976133I-5728J-5728D01*
G01*
G37*
G36*
G01*
X161334276Y-114622579D02*
X161154812Y-114802043D01*
G75*
G02*
X161143356Y-114802043I-5728J5728D01*
G01*
X159740598Y-113399285D01*
G75*
G02*
X159740598Y-113387829I5728J5728D01*
G01*
X159920062Y-113208365D01*
G75*
G02*
X159931518Y-113208365I5728J-5728D01*
G01*
X161334276Y-114611123D01*
G75*
G02*
X161334276Y-114622579I-5728J-5728D01*
G01*
G37*
G36*
G01*
X161687829Y-114269025D02*
X161508365Y-114448489D01*
G75*
G02*
X161496909Y-114448489I-5728J5728D01*
G01*
X160094151Y-113045731D01*
G75*
G02*
X160094151Y-113034275I5728J5728D01*
G01*
X160273615Y-112854811D01*
G75*
G02*
X160285071Y-112854811I5728J-5728D01*
G01*
X161687829Y-114257569D01*
G75*
G02*
X161687829Y-114269025I-5728J-5728D01*
G01*
G37*
G36*
G01*
X162041383Y-113915472D02*
X161861919Y-114094936D01*
G75*
G02*
X161850463Y-114094936I-5728J5728D01*
G01*
X160447705Y-112692178D01*
G75*
G02*
X160447705Y-112680722I5728J5728D01*
G01*
X160627169Y-112501258D01*
G75*
G02*
X160638625Y-112501258I5728J-5728D01*
G01*
X162041383Y-113904016D01*
G75*
G02*
X162041383Y-113915472I-5728J-5728D01*
G01*
G37*
G36*
G01*
X162394936Y-113561919D02*
X162215472Y-113741383D01*
G75*
G02*
X162204016Y-113741383I-5728J5728D01*
G01*
X160801258Y-112338625D01*
G75*
G02*
X160801258Y-112327169I5728J5728D01*
G01*
X160980722Y-112147705D01*
G75*
G02*
X160992178Y-112147705I5728J-5728D01*
G01*
X162394936Y-113550463D01*
G75*
G02*
X162394936Y-113561919I-5728J-5728D01*
G01*
G37*
G36*
G01*
X162748489Y-113208365D02*
X162569025Y-113387829D01*
G75*
G02*
X162557569Y-113387829I-5728J5728D01*
G01*
X161154811Y-111985071D01*
G75*
G02*
X161154811Y-111973615I5728J5728D01*
G01*
X161334275Y-111794151D01*
G75*
G02*
X161345731Y-111794151I5728J-5728D01*
G01*
X162748489Y-113196909D01*
G75*
G02*
X162748489Y-113208365I-5728J-5728D01*
G01*
G37*
G36*
G01*
X163102043Y-112854812D02*
X162922579Y-113034276D01*
G75*
G02*
X162911123Y-113034276I-5728J5728D01*
G01*
X161508365Y-111631518D01*
G75*
G02*
X161508365Y-111620062I5728J5728D01*
G01*
X161687829Y-111440598D01*
G75*
G02*
X161699285Y-111440598I5728J-5728D01*
G01*
X163102043Y-112843356D01*
G75*
G02*
X163102043Y-112854812I-5728J-5728D01*
G01*
G37*
G36*
G01*
X163455596Y-112501259D02*
X163276133Y-112680723D01*
G75*
G02*
X163264677Y-112680723I-5728J5728D01*
G01*
X161932629Y-111348675D01*
G75*
G02*
X161932629Y-111337219I5728J5728D01*
G01*
X162112093Y-111157755D01*
G75*
G02*
X162123549Y-111157755I5728J-5728D01*
G01*
X163455597Y-112489803D01*
G75*
G02*
X163455597Y-112501259I-5728J-5728D01*
G01*
G37*
G36*
G01*
X162112093Y-110842244D02*
X161932629Y-110662781D01*
G75*
G02*
X161932629Y-110651325I5728J5728D01*
G01*
X163264677Y-109319277D01*
G75*
G02*
X163276133Y-109319277I5728J-5728D01*
G01*
X163455597Y-109498741D01*
G75*
G02*
X163455597Y-109510197I-5728J-5728D01*
G01*
X162123549Y-110842245D01*
G75*
G02*
X162112093Y-110842245I-5728J5728D01*
G01*
G37*
G36*
G01*
X161687829Y-110559402D02*
X161508365Y-110379938D01*
G75*
G02*
X161508365Y-110368482I5728J5728D01*
G01*
X162911123Y-108965724D01*
G75*
G02*
X162922579Y-108965724I5728J-5728D01*
G01*
X163102043Y-109145188D01*
G75*
G02*
X163102043Y-109156644I-5728J-5728D01*
G01*
X161699285Y-110559402D01*
G75*
G02*
X161687829Y-110559402I-5728J5728D01*
G01*
G37*
G36*
G01*
X161334275Y-110205849D02*
X161154811Y-110026385D01*
G75*
G02*
X161154811Y-110014929I5728J5728D01*
G01*
X162557569Y-108612171D01*
G75*
G02*
X162569025Y-108612171I5728J-5728D01*
G01*
X162748489Y-108791635D01*
G75*
G02*
X162748489Y-108803091I-5728J-5728D01*
G01*
X161345731Y-110205849D01*
G75*
G02*
X161334275Y-110205849I-5728J5728D01*
G01*
G37*
G36*
G01*
X160980722Y-109852295D02*
X160801258Y-109672831D01*
G75*
G02*
X160801258Y-109661375I5728J5728D01*
G01*
X162204016Y-108258617D01*
G75*
G02*
X162215472Y-108258617I5728J-5728D01*
G01*
X162394936Y-108438081D01*
G75*
G02*
X162394936Y-108449537I-5728J-5728D01*
G01*
X160992178Y-109852295D01*
G75*
G02*
X160980722Y-109852295I-5728J5728D01*
G01*
G37*
G36*
G01*
X160627169Y-109498742D02*
X160447705Y-109319278D01*
G75*
G02*
X160447705Y-109307822I5728J5728D01*
G01*
X161850463Y-107905064D01*
G75*
G02*
X161861919Y-107905064I5728J-5728D01*
G01*
X162041383Y-108084528D01*
G75*
G02*
X162041383Y-108095984I-5728J-5728D01*
G01*
X160638625Y-109498742D01*
G75*
G02*
X160627169Y-109498742I-5728J5728D01*
G01*
G37*
G36*
G01*
X160273615Y-109145189D02*
X160094151Y-108965725D01*
G75*
G02*
X160094151Y-108954269I5728J5728D01*
G01*
X161496909Y-107551511D01*
G75*
G02*
X161508365Y-107551511I5728J-5728D01*
G01*
X161687829Y-107730975D01*
G75*
G02*
X161687829Y-107742431I-5728J-5728D01*
G01*
X160285071Y-109145189D01*
G75*
G02*
X160273615Y-109145189I-5728J5728D01*
G01*
G37*
G36*
G01*
X159920062Y-108791635D02*
X159740598Y-108612171D01*
G75*
G02*
X159740598Y-108600715I5728J5728D01*
G01*
X161143356Y-107197957D01*
G75*
G02*
X161154812Y-107197957I5728J-5728D01*
G01*
X161334276Y-107377421D01*
G75*
G02*
X161334276Y-107388877I-5728J-5728D01*
G01*
X159931518Y-108791635D01*
G75*
G02*
X159920062Y-108791635I-5728J5728D01*
G01*
G37*
G36*
G01*
X159637219Y-108367370D02*
X159457755Y-108187907D01*
G75*
G02*
X159457755Y-108176451I5728J5728D01*
G01*
X160789803Y-106844403D01*
G75*
G02*
X160801259Y-106844403I5728J-5728D01*
G01*
X160980723Y-107023867D01*
G75*
G02*
X160980723Y-107035323I-5728J-5728D01*
G01*
X159648675Y-108367371D01*
G75*
G02*
X159637219Y-108367371I-5728J5728D01*
G01*
G37*
G36*
G01*
X155323867Y-112680722D02*
X155144403Y-112501259D01*
G75*
G02*
X155144403Y-112489803I5728J5728D01*
G01*
X156476451Y-111157755D01*
G75*
G02*
X156487907Y-111157755I5728J-5728D01*
G01*
X156667371Y-111337219D01*
G75*
G02*
X156667371Y-111348675I-5728J-5728D01*
G01*
X155335323Y-112680723D01*
G75*
G02*
X155323867Y-112680723I-5728J5728D01*
G01*
G37*
G36*
G01*
X155677421Y-113034276D02*
X155497957Y-112854812D01*
G75*
G02*
X155497957Y-112843356I5728J5728D01*
G01*
X156900715Y-111440598D01*
G75*
G02*
X156912171Y-111440598I5728J-5728D01*
G01*
X157091635Y-111620062D01*
G75*
G02*
X157091635Y-111631518I-5728J-5728D01*
G01*
X155688877Y-113034276D01*
G75*
G02*
X155677421Y-113034276I-5728J5728D01*
G01*
G37*
G36*
G01*
X156030975Y-113387829D02*
X155851511Y-113208365D01*
G75*
G02*
X155851511Y-113196909I5728J5728D01*
G01*
X157254269Y-111794151D01*
G75*
G02*
X157265725Y-111794151I5728J-5728D01*
G01*
X157445189Y-111973615D01*
G75*
G02*
X157445189Y-111985071I-5728J-5728D01*
G01*
X156042431Y-113387829D01*
G75*
G02*
X156030975Y-113387829I-5728J5728D01*
G01*
G37*
G36*
G01*
X156384528Y-113741383D02*
X156205064Y-113561919D01*
G75*
G02*
X156205064Y-113550463I5728J5728D01*
G01*
X157607822Y-112147705D01*
G75*
G02*
X157619278Y-112147705I5728J-5728D01*
G01*
X157798742Y-112327169D01*
G75*
G02*
X157798742Y-112338625I-5728J-5728D01*
G01*
X156395984Y-113741383D01*
G75*
G02*
X156384528Y-113741383I-5728J5728D01*
G01*
G37*
G36*
G01*
X156738081Y-114094936D02*
X156558617Y-113915472D01*
G75*
G02*
X156558617Y-113904016I5728J5728D01*
G01*
X157961375Y-112501258D01*
G75*
G02*
X157972831Y-112501258I5728J-5728D01*
G01*
X158152295Y-112680722D01*
G75*
G02*
X158152295Y-112692178I-5728J-5728D01*
G01*
X156749537Y-114094936D01*
G75*
G02*
X156738081Y-114094936I-5728J5728D01*
G01*
G37*
G36*
G01*
X157091635Y-114448489D02*
X156912171Y-114269025D01*
G75*
G02*
X156912171Y-114257569I5728J5728D01*
G01*
X158314929Y-112854811D01*
G75*
G02*
X158326385Y-112854811I5728J-5728D01*
G01*
X158505849Y-113034275D01*
G75*
G02*
X158505849Y-113045731I-5728J-5728D01*
G01*
X157103091Y-114448489D01*
G75*
G02*
X157091635Y-114448489I-5728J5728D01*
G01*
G37*
G36*
G01*
X157445188Y-114802043D02*
X157265724Y-114622579D01*
G75*
G02*
X157265724Y-114611123I5728J5728D01*
G01*
X158668482Y-113208365D01*
G75*
G02*
X158679938Y-113208365I5728J-5728D01*
G01*
X158859402Y-113387829D01*
G75*
G02*
X158859402Y-113399285I-5728J-5728D01*
G01*
X157456644Y-114802043D01*
G75*
G02*
X157445188Y-114802043I-5728J5728D01*
G01*
G37*
G36*
G01*
X157798741Y-115155596D02*
X157619277Y-114976133D01*
G75*
G02*
X157619277Y-114964677I5728J5728D01*
G01*
X158951325Y-113632629D01*
G75*
G02*
X158962781Y-113632629I5728J-5728D01*
G01*
X159142245Y-113812093D01*
G75*
G02*
X159142245Y-113823549I-5728J-5728D01*
G01*
X157810197Y-115155597D01*
G75*
G02*
X157798741Y-115155597I-5728J5728D01*
G01*
G37*
%TD*%
D14*
%TO.C,L2*%
X124350000Y-79800000D03*
X134850000Y-79800000D03*
%TD*%
%TO.C,C1*%
G36*
G01*
X127375000Y-71275000D02*
X128625000Y-71275000D01*
G75*
G02*
X128875000Y-71525000I0J-250000D01*
G01*
X128875000Y-72450000D01*
G75*
G02*
X128625000Y-72700000I-250000J0D01*
G01*
X127375000Y-72700000D01*
G75*
G02*
X127125000Y-72450000I0J250000D01*
G01*
X127125000Y-71525000D01*
G75*
G02*
X127375000Y-71275000I250000J0D01*
G01*
G37*
G36*
G01*
X127375000Y-68300000D02*
X128625000Y-68300000D01*
G75*
G02*
X128875000Y-68550000I0J-250000D01*
G01*
X128875000Y-69475000D01*
G75*
G02*
X128625000Y-69725000I-250000J0D01*
G01*
X127375000Y-69725000D01*
G75*
G02*
X127125000Y-69475000I0J250000D01*
G01*
X127125000Y-68550000D01*
G75*
G02*
X127375000Y-68300000I250000J0D01*
G01*
G37*
%TD*%
%TO.C,C2*%
G36*
G01*
X168750001Y-64750000D02*
X167849999Y-64750000D01*
G75*
G02*
X167600000Y-64500001I0J249999D01*
G01*
X167600000Y-63849999D01*
G75*
G02*
X167849999Y-63600000I249999J0D01*
G01*
X168750001Y-63600000D01*
G75*
G02*
X169000000Y-63849999I0J-249999D01*
G01*
X169000000Y-64500001D01*
G75*
G02*
X168750001Y-64750000I-249999J0D01*
G01*
G37*
G36*
G01*
X168750001Y-66800000D02*
X167849999Y-66800000D01*
G75*
G02*
X167600000Y-66550001I0J249999D01*
G01*
X167600000Y-65899999D01*
G75*
G02*
X167849999Y-65650000I249999J0D01*
G01*
X168750001Y-65650000D01*
G75*
G02*
X169000000Y-65899999I0J-249999D01*
G01*
X169000000Y-66550001D01*
G75*
G02*
X168750001Y-66800000I-249999J0D01*
G01*
G37*
%TD*%
%TO.C,C3*%
G36*
G01*
X131775000Y-71637500D02*
X131775000Y-71162500D01*
G75*
G02*
X132012500Y-70925000I237500J0D01*
G01*
X132587500Y-70925000D01*
G75*
G02*
X132825000Y-71162500I0J-237500D01*
G01*
X132825000Y-71637500D01*
G75*
G02*
X132587500Y-71875000I-237500J0D01*
G01*
X132012500Y-71875000D01*
G75*
G02*
X131775000Y-71637500I0J237500D01*
G01*
G37*
G36*
G01*
X130025000Y-71637500D02*
X130025000Y-71162500D01*
G75*
G02*
X130262500Y-70925000I237500J0D01*
G01*
X130837500Y-70925000D01*
G75*
G02*
X131075000Y-71162500I0J-237500D01*
G01*
X131075000Y-71637500D01*
G75*
G02*
X130837500Y-71875000I-237500J0D01*
G01*
X130262500Y-71875000D01*
G75*
G02*
X130025000Y-71637500I0J237500D01*
G01*
G37*
%TD*%
%TO.C,C4*%
G36*
G01*
X139850000Y-69200001D02*
X139850000Y-68299999D01*
G75*
G02*
X140099999Y-68050000I249999J0D01*
G01*
X140750001Y-68050000D01*
G75*
G02*
X141000000Y-68299999I0J-249999D01*
G01*
X141000000Y-69200001D01*
G75*
G02*
X140750001Y-69450000I-249999J0D01*
G01*
X140099999Y-69450000D01*
G75*
G02*
X139850000Y-69200001I0J249999D01*
G01*
G37*
G36*
G01*
X137800000Y-69200001D02*
X137800000Y-68299999D01*
G75*
G02*
X138049999Y-68050000I249999J0D01*
G01*
X138700001Y-68050000D01*
G75*
G02*
X138950000Y-68299999I0J-249999D01*
G01*
X138950000Y-69200001D01*
G75*
G02*
X138700001Y-69450000I-249999J0D01*
G01*
X138049999Y-69450000D01*
G75*
G02*
X137800000Y-69200001I0J249999D01*
G01*
G37*
%TD*%
%TO.C,C9*%
G36*
G01*
X128037500Y-124350000D02*
X127562500Y-124350000D01*
G75*
G02*
X127325000Y-124112500I0J237500D01*
G01*
X127325000Y-123537500D01*
G75*
G02*
X127562500Y-123300000I237500J0D01*
G01*
X128037500Y-123300000D01*
G75*
G02*
X128275000Y-123537500I0J-237500D01*
G01*
X128275000Y-124112500D01*
G75*
G02*
X128037500Y-124350000I-237500J0D01*
G01*
G37*
G36*
G01*
X128037500Y-126100000D02*
X127562500Y-126100000D01*
G75*
G02*
X127325000Y-125862500I0J237500D01*
G01*
X127325000Y-125287500D01*
G75*
G02*
X127562500Y-125050000I237500J0D01*
G01*
X128037500Y-125050000D01*
G75*
G02*
X128275000Y-125287500I0J-237500D01*
G01*
X128275000Y-125862500D01*
G75*
G02*
X128037500Y-126100000I-237500J0D01*
G01*
G37*
%TD*%
%TO.C,C10*%
G36*
G01*
X127562500Y-128550000D02*
X128037500Y-128550000D01*
G75*
G02*
X128275000Y-128787500I0J-237500D01*
G01*
X128275000Y-129362500D01*
G75*
G02*
X128037500Y-129600000I-237500J0D01*
G01*
X127562500Y-129600000D01*
G75*
G02*
X127325000Y-129362500I0J237500D01*
G01*
X127325000Y-128787500D01*
G75*
G02*
X127562500Y-128550000I237500J0D01*
G01*
G37*
G36*
G01*
X127562500Y-126800000D02*
X128037500Y-126800000D01*
G75*
G02*
X128275000Y-127037500I0J-237500D01*
G01*
X128275000Y-127612500D01*
G75*
G02*
X128037500Y-127850000I-237500J0D01*
G01*
X127562500Y-127850000D01*
G75*
G02*
X127325000Y-127612500I0J237500D01*
G01*
X127325000Y-127037500D01*
G75*
G02*
X127562500Y-126800000I237500J0D01*
G01*
G37*
%TD*%
%TO.C,D1*%
G36*
G01*
X142350000Y-74075001D02*
X142350000Y-70824999D01*
G75*
G02*
X142599999Y-70575000I249999J0D01*
G01*
X143950001Y-70575000D01*
G75*
G02*
X144200000Y-70824999I0J-249999D01*
G01*
X144200000Y-74075001D01*
G75*
G02*
X143950001Y-74325000I-249999J0D01*
G01*
X142599999Y-74325000D01*
G75*
G02*
X142350000Y-74075001I0J249999D01*
G01*
G37*
G36*
G01*
X137800000Y-74075001D02*
X137800000Y-70824999D01*
G75*
G02*
X138049999Y-70575000I249999J0D01*
G01*
X139400001Y-70575000D01*
G75*
G02*
X139650000Y-70824999I0J-249999D01*
G01*
X139650000Y-74075001D01*
G75*
G02*
X139400001Y-74325000I-249999J0D01*
G01*
X138049999Y-74325000D01*
G75*
G02*
X137800000Y-74075001I0J249999D01*
G01*
G37*
%TD*%
D15*
%TO.C,D2*%
X138200000Y-66500000D03*
X140300000Y-66500000D03*
%TD*%
D16*
%TO.C,D3*%
X116400000Y-129300000D03*
X116400000Y-123900000D03*
%TD*%
%TO.C,F1*%
G36*
G01*
X122075000Y-124575626D02*
X122075000Y-122424374D01*
G75*
G02*
X122324374Y-122175000I249374J0D01*
G01*
X123250626Y-122175000D01*
G75*
G02*
X123500000Y-122424374I0J-249374D01*
G01*
X123500000Y-124575626D01*
G75*
G02*
X123250626Y-124825000I-249374J0D01*
G01*
X122324374Y-124825000D01*
G75*
G02*
X122075000Y-124575626I0J249374D01*
G01*
G37*
G36*
G01*
X119100000Y-124575626D02*
X119100000Y-122424374D01*
G75*
G02*
X119349374Y-122175000I249374J0D01*
G01*
X120275626Y-122175000D01*
G75*
G02*
X120525000Y-122424374I0J-249374D01*
G01*
X120525000Y-124575626D01*
G75*
G02*
X120275626Y-124825000I-249374J0D01*
G01*
X119349374Y-124825000D01*
G75*
G02*
X119100000Y-124575626I0J249374D01*
G01*
G37*
%TD*%
D17*
%TO.C,Q6*%
X162300000Y-136750000D03*
X160300000Y-135800000D03*
X160300000Y-137700000D03*
%TD*%
%TO.C,Q8*%
X176150000Y-136750000D03*
X174150000Y-135800000D03*
X174150000Y-137700000D03*
%TD*%
%TO.C,Q7*%
X169175000Y-136750000D03*
X167175000Y-135800000D03*
X167175000Y-137700000D03*
%TD*%
D18*
%TO.C,Q9*%
X132000000Y-106425000D03*
X131050000Y-108425000D03*
X132950000Y-108425000D03*
%TD*%
D17*
%TO.C,Q10*%
X162825000Y-119225000D03*
X160825000Y-118275000D03*
X160825000Y-120175000D03*
%TD*%
%TO.C,R7*%
G36*
G01*
X129637500Y-124350000D02*
X129162500Y-124350000D01*
G75*
G02*
X128925000Y-124112500I0J237500D01*
G01*
X128925000Y-123537500D01*
G75*
G02*
X129162500Y-123300000I237500J0D01*
G01*
X129637500Y-123300000D01*
G75*
G02*
X129875000Y-123537500I0J-237500D01*
G01*
X129875000Y-124112500D01*
G75*
G02*
X129637500Y-124350000I-237500J0D01*
G01*
G37*
G36*
G01*
X129637500Y-126100000D02*
X129162500Y-126100000D01*
G75*
G02*
X128925000Y-125862500I0J237500D01*
G01*
X128925000Y-125287500D01*
G75*
G02*
X129162500Y-125050000I237500J0D01*
G01*
X129637500Y-125050000D01*
G75*
G02*
X129875000Y-125287500I0J-237500D01*
G01*
X129875000Y-125862500D01*
G75*
G02*
X129637500Y-126100000I-237500J0D01*
G01*
G37*
%TD*%
%TO.C,R8*%
G36*
G01*
X129637500Y-127850000D02*
X129162500Y-127850000D01*
G75*
G02*
X128925000Y-127612500I0J237500D01*
G01*
X128925000Y-127037500D01*
G75*
G02*
X129162500Y-126800000I237500J0D01*
G01*
X129637500Y-126800000D01*
G75*
G02*
X129875000Y-127037500I0J-237500D01*
G01*
X129875000Y-127612500D01*
G75*
G02*
X129637500Y-127850000I-237500J0D01*
G01*
G37*
G36*
G01*
X129637500Y-129600000D02*
X129162500Y-129600000D01*
G75*
G02*
X128925000Y-129362500I0J237500D01*
G01*
X128925000Y-128787500D01*
G75*
G02*
X129162500Y-128550000I237500J0D01*
G01*
X129637500Y-128550000D01*
G75*
G02*
X129875000Y-128787500I0J-237500D01*
G01*
X129875000Y-129362500D01*
G75*
G02*
X129637500Y-129600000I-237500J0D01*
G01*
G37*
%TD*%
%TO.C,R10*%
G36*
G01*
X119562500Y-127650000D02*
X120037500Y-127650000D01*
G75*
G02*
X120275000Y-127887500I0J-237500D01*
G01*
X120275000Y-128462500D01*
G75*
G02*
X120037500Y-128700000I-237500J0D01*
G01*
X119562500Y-128700000D01*
G75*
G02*
X119325000Y-128462500I0J237500D01*
G01*
X119325000Y-127887500D01*
G75*
G02*
X119562500Y-127650000I237500J0D01*
G01*
G37*
G36*
G01*
X119562500Y-125900000D02*
X120037500Y-125900000D01*
G75*
G02*
X120275000Y-126137500I0J-237500D01*
G01*
X120275000Y-126712500D01*
G75*
G02*
X120037500Y-126950000I-237500J0D01*
G01*
X119562500Y-126950000D01*
G75*
G02*
X119325000Y-126712500I0J237500D01*
G01*
X119325000Y-126137500D01*
G75*
G02*
X119562500Y-125900000I237500J0D01*
G01*
G37*
%TD*%
%TO.C,R16*%
G36*
G01*
X132625000Y-117937500D02*
X132625000Y-117462500D01*
G75*
G02*
X132862500Y-117225000I237500J0D01*
G01*
X133437500Y-117225000D01*
G75*
G02*
X133675000Y-117462500I0J-237500D01*
G01*
X133675000Y-117937500D01*
G75*
G02*
X133437500Y-118175000I-237500J0D01*
G01*
X132862500Y-118175000D01*
G75*
G02*
X132625000Y-117937500I0J237500D01*
G01*
G37*
G36*
G01*
X130875000Y-117937500D02*
X130875000Y-117462500D01*
G75*
G02*
X131112500Y-117225000I237500J0D01*
G01*
X131687500Y-117225000D01*
G75*
G02*
X131925000Y-117462500I0J-237500D01*
G01*
X131925000Y-117937500D01*
G75*
G02*
X131687500Y-118175000I-237500J0D01*
G01*
X131112500Y-118175000D01*
G75*
G02*
X130875000Y-117937500I0J237500D01*
G01*
G37*
%TD*%
%TO.C,R18*%
G36*
G01*
X131637500Y-120100000D02*
X131162500Y-120100000D01*
G75*
G02*
X130925000Y-119862500I0J237500D01*
G01*
X130925000Y-119287500D01*
G75*
G02*
X131162500Y-119050000I237500J0D01*
G01*
X131637500Y-119050000D01*
G75*
G02*
X131875000Y-119287500I0J-237500D01*
G01*
X131875000Y-119862500D01*
G75*
G02*
X131637500Y-120100000I-237500J0D01*
G01*
G37*
G36*
G01*
X131637500Y-121850000D02*
X131162500Y-121850000D01*
G75*
G02*
X130925000Y-121612500I0J237500D01*
G01*
X130925000Y-121037500D01*
G75*
G02*
X131162500Y-120800000I237500J0D01*
G01*
X131637500Y-120800000D01*
G75*
G02*
X131875000Y-121037500I0J-237500D01*
G01*
X131875000Y-121612500D01*
G75*
G02*
X131637500Y-121850000I-237500J0D01*
G01*
G37*
%TD*%
%TO.C,R19*%
G36*
G01*
X132937500Y-120800000D02*
X133412500Y-120800000D01*
G75*
G02*
X133650000Y-121037500I0J-237500D01*
G01*
X133650000Y-121612500D01*
G75*
G02*
X133412500Y-121850000I-237500J0D01*
G01*
X132937500Y-121850000D01*
G75*
G02*
X132700000Y-121612500I0J237500D01*
G01*
X132700000Y-121037500D01*
G75*
G02*
X132937500Y-120800000I237500J0D01*
G01*
G37*
G36*
G01*
X132937500Y-119050000D02*
X133412500Y-119050000D01*
G75*
G02*
X133650000Y-119287500I0J-237500D01*
G01*
X133650000Y-119862500D01*
G75*
G02*
X133412500Y-120100000I-237500J0D01*
G01*
X132937500Y-120100000D01*
G75*
G02*
X132700000Y-119862500I0J237500D01*
G01*
X132700000Y-119287500D01*
G75*
G02*
X132937500Y-119050000I237500J0D01*
G01*
G37*
%TD*%
%TO.C,R20*%
G36*
G01*
X165512500Y-142500000D02*
X165987500Y-142500000D01*
G75*
G02*
X166225000Y-142737500I0J-237500D01*
G01*
X166225000Y-143312500D01*
G75*
G02*
X165987500Y-143550000I-237500J0D01*
G01*
X165512500Y-143550000D01*
G75*
G02*
X165275000Y-143312500I0J237500D01*
G01*
X165275000Y-142737500D01*
G75*
G02*
X165512500Y-142500000I237500J0D01*
G01*
G37*
G36*
G01*
X165512500Y-140750000D02*
X165987500Y-140750000D01*
G75*
G02*
X166225000Y-140987500I0J-237500D01*
G01*
X166225000Y-141562500D01*
G75*
G02*
X165987500Y-141800000I-237500J0D01*
G01*
X165512500Y-141800000D01*
G75*
G02*
X165275000Y-141562500I0J237500D01*
G01*
X165275000Y-140987500D01*
G75*
G02*
X165512500Y-140750000I237500J0D01*
G01*
G37*
%TD*%
%TO.C,R21*%
G36*
G01*
X164500000Y-139337500D02*
X164500000Y-139812500D01*
G75*
G02*
X164262500Y-140050000I-237500J0D01*
G01*
X163687500Y-140050000D01*
G75*
G02*
X163450000Y-139812500I0J237500D01*
G01*
X163450000Y-139337500D01*
G75*
G02*
X163687500Y-139100000I237500J0D01*
G01*
X164262500Y-139100000D01*
G75*
G02*
X164500000Y-139337500I0J-237500D01*
G01*
G37*
G36*
G01*
X166250000Y-139337500D02*
X166250000Y-139812500D01*
G75*
G02*
X166012500Y-140050000I-237500J0D01*
G01*
X165437500Y-140050000D01*
G75*
G02*
X165200000Y-139812500I0J237500D01*
G01*
X165200000Y-139337500D01*
G75*
G02*
X165437500Y-139100000I237500J0D01*
G01*
X166012500Y-139100000D01*
G75*
G02*
X166250000Y-139337500I0J-237500D01*
G01*
G37*
%TD*%
%TO.C,R22*%
G36*
G01*
X164287500Y-136525000D02*
X163812500Y-136525000D01*
G75*
G02*
X163575000Y-136287500I0J237500D01*
G01*
X163575000Y-135712500D01*
G75*
G02*
X163812500Y-135475000I237500J0D01*
G01*
X164287500Y-135475000D01*
G75*
G02*
X164525000Y-135712500I0J-237500D01*
G01*
X164525000Y-136287500D01*
G75*
G02*
X164287500Y-136525000I-237500J0D01*
G01*
G37*
G36*
G01*
X164287500Y-138275000D02*
X163812500Y-138275000D01*
G75*
G02*
X163575000Y-138037500I0J237500D01*
G01*
X163575000Y-137462500D01*
G75*
G02*
X163812500Y-137225000I237500J0D01*
G01*
X164287500Y-137225000D01*
G75*
G02*
X164525000Y-137462500I0J-237500D01*
G01*
X164525000Y-138037500D01*
G75*
G02*
X164287500Y-138275000I-237500J0D01*
G01*
G37*
%TD*%
%TO.C,R26*%
G36*
G01*
X178162500Y-136525000D02*
X177687500Y-136525000D01*
G75*
G02*
X177450000Y-136287500I0J237500D01*
G01*
X177450000Y-135712500D01*
G75*
G02*
X177687500Y-135475000I237500J0D01*
G01*
X178162500Y-135475000D01*
G75*
G02*
X178400000Y-135712500I0J-237500D01*
G01*
X178400000Y-136287500D01*
G75*
G02*
X178162500Y-136525000I-237500J0D01*
G01*
G37*
G36*
G01*
X178162500Y-138275000D02*
X177687500Y-138275000D01*
G75*
G02*
X177450000Y-138037500I0J237500D01*
G01*
X177450000Y-137462500D01*
G75*
G02*
X177687500Y-137225000I237500J0D01*
G01*
X178162500Y-137225000D01*
G75*
G02*
X178400000Y-137462500I0J-237500D01*
G01*
X178400000Y-138037500D01*
G75*
G02*
X178162500Y-138275000I-237500J0D01*
G01*
G37*
%TD*%
%TO.C,R24*%
G36*
G01*
X171212500Y-136525000D02*
X170737500Y-136525000D01*
G75*
G02*
X170500000Y-136287500I0J237500D01*
G01*
X170500000Y-135712500D01*
G75*
G02*
X170737500Y-135475000I237500J0D01*
G01*
X171212500Y-135475000D01*
G75*
G02*
X171450000Y-135712500I0J-237500D01*
G01*
X171450000Y-136287500D01*
G75*
G02*
X171212500Y-136525000I-237500J0D01*
G01*
G37*
G36*
G01*
X171212500Y-138275000D02*
X170737500Y-138275000D01*
G75*
G02*
X170500000Y-138037500I0J237500D01*
G01*
X170500000Y-137462500D01*
G75*
G02*
X170737500Y-137225000I237500J0D01*
G01*
X171212500Y-137225000D01*
G75*
G02*
X171450000Y-137462500I0J-237500D01*
G01*
X171450000Y-138037500D01*
G75*
G02*
X171212500Y-138275000I-237500J0D01*
G01*
G37*
%TD*%
%TO.C,R28*%
G36*
G01*
X132900000Y-127537500D02*
X132900000Y-127062500D01*
G75*
G02*
X133137500Y-126825000I237500J0D01*
G01*
X133712500Y-126825000D01*
G75*
G02*
X133950000Y-127062500I0J-237500D01*
G01*
X133950000Y-127537500D01*
G75*
G02*
X133712500Y-127775000I-237500J0D01*
G01*
X133137500Y-127775000D01*
G75*
G02*
X132900000Y-127537500I0J237500D01*
G01*
G37*
G36*
G01*
X131150000Y-127537500D02*
X131150000Y-127062500D01*
G75*
G02*
X131387500Y-126825000I237500J0D01*
G01*
X131962500Y-126825000D01*
G75*
G02*
X132200000Y-127062500I0J-237500D01*
G01*
X132200000Y-127537500D01*
G75*
G02*
X131962500Y-127775000I-237500J0D01*
G01*
X131387500Y-127775000D01*
G75*
G02*
X131150000Y-127537500I0J237500D01*
G01*
G37*
%TD*%
%TO.C,R29*%
G36*
G01*
X132875000Y-129062500D02*
X132875000Y-128587500D01*
G75*
G02*
X133112500Y-128350000I237500J0D01*
G01*
X133687500Y-128350000D01*
G75*
G02*
X133925000Y-128587500I0J-237500D01*
G01*
X133925000Y-129062500D01*
G75*
G02*
X133687500Y-129300000I-237500J0D01*
G01*
X133112500Y-129300000D01*
G75*
G02*
X132875000Y-129062500I0J237500D01*
G01*
G37*
G36*
G01*
X131125000Y-129062500D02*
X131125000Y-128587500D01*
G75*
G02*
X131362500Y-128350000I237500J0D01*
G01*
X131937500Y-128350000D01*
G75*
G02*
X132175000Y-128587500I0J-237500D01*
G01*
X132175000Y-129062500D01*
G75*
G02*
X131937500Y-129300000I-237500J0D01*
G01*
X131362500Y-129300000D01*
G75*
G02*
X131125000Y-129062500I0J237500D01*
G01*
G37*
%TD*%
%TO.C,R30*%
G36*
G01*
X132875000Y-130612500D02*
X132875000Y-130137500D01*
G75*
G02*
X133112500Y-129900000I237500J0D01*
G01*
X133687500Y-129900000D01*
G75*
G02*
X133925000Y-130137500I0J-237500D01*
G01*
X133925000Y-130612500D01*
G75*
G02*
X133687500Y-130850000I-237500J0D01*
G01*
X133112500Y-130850000D01*
G75*
G02*
X132875000Y-130612500I0J237500D01*
G01*
G37*
G36*
G01*
X131125000Y-130612500D02*
X131125000Y-130137500D01*
G75*
G02*
X131362500Y-129900000I237500J0D01*
G01*
X131937500Y-129900000D01*
G75*
G02*
X132175000Y-130137500I0J-237500D01*
G01*
X132175000Y-130612500D01*
G75*
G02*
X131937500Y-130850000I-237500J0D01*
G01*
X131362500Y-130850000D01*
G75*
G02*
X131125000Y-130612500I0J237500D01*
G01*
G37*
%TD*%
%TO.C,R31*%
G36*
G01*
X172437500Y-142525000D02*
X172912500Y-142525000D01*
G75*
G02*
X173150000Y-142762500I0J-237500D01*
G01*
X173150000Y-143337500D01*
G75*
G02*
X172912500Y-143575000I-237500J0D01*
G01*
X172437500Y-143575000D01*
G75*
G02*
X172200000Y-143337500I0J237500D01*
G01*
X172200000Y-142762500D01*
G75*
G02*
X172437500Y-142525000I237500J0D01*
G01*
G37*
G36*
G01*
X172437500Y-140775000D02*
X172912500Y-140775000D01*
G75*
G02*
X173150000Y-141012500I0J-237500D01*
G01*
X173150000Y-141587500D01*
G75*
G02*
X172912500Y-141825000I-237500J0D01*
G01*
X172437500Y-141825000D01*
G75*
G02*
X172200000Y-141587500I0J237500D01*
G01*
X172200000Y-141012500D01*
G75*
G02*
X172437500Y-140775000I237500J0D01*
G01*
G37*
%TD*%
%TO.C,R32*%
G36*
G01*
X171400000Y-139387500D02*
X171400000Y-139862500D01*
G75*
G02*
X171162500Y-140100000I-237500J0D01*
G01*
X170587500Y-140100000D01*
G75*
G02*
X170350000Y-139862500I0J237500D01*
G01*
X170350000Y-139387500D01*
G75*
G02*
X170587500Y-139150000I237500J0D01*
G01*
X171162500Y-139150000D01*
G75*
G02*
X171400000Y-139387500I0J-237500D01*
G01*
G37*
G36*
G01*
X173150000Y-139387500D02*
X173150000Y-139862500D01*
G75*
G02*
X172912500Y-140100000I-237500J0D01*
G01*
X172337500Y-140100000D01*
G75*
G02*
X172100000Y-139862500I0J237500D01*
G01*
X172100000Y-139387500D01*
G75*
G02*
X172337500Y-139150000I237500J0D01*
G01*
X172912500Y-139150000D01*
G75*
G02*
X173150000Y-139387500I0J-237500D01*
G01*
G37*
%TD*%
%TO.C,R33*%
G36*
G01*
X134512500Y-107775000D02*
X134987500Y-107775000D01*
G75*
G02*
X135225000Y-108012500I0J-237500D01*
G01*
X135225000Y-108587500D01*
G75*
G02*
X134987500Y-108825000I-237500J0D01*
G01*
X134512500Y-108825000D01*
G75*
G02*
X134275000Y-108587500I0J237500D01*
G01*
X134275000Y-108012500D01*
G75*
G02*
X134512500Y-107775000I237500J0D01*
G01*
G37*
G36*
G01*
X134512500Y-106025000D02*
X134987500Y-106025000D01*
G75*
G02*
X135225000Y-106262500I0J-237500D01*
G01*
X135225000Y-106837500D01*
G75*
G02*
X134987500Y-107075000I-237500J0D01*
G01*
X134512500Y-107075000D01*
G75*
G02*
X134275000Y-106837500I0J237500D01*
G01*
X134275000Y-106262500D01*
G75*
G02*
X134512500Y-106025000I237500J0D01*
G01*
G37*
%TD*%
%TO.C,R34*%
G36*
G01*
X131675000Y-104562500D02*
X131675000Y-105037500D01*
G75*
G02*
X131437500Y-105275000I-237500J0D01*
G01*
X130862500Y-105275000D01*
G75*
G02*
X130625000Y-105037500I0J237500D01*
G01*
X130625000Y-104562500D01*
G75*
G02*
X130862500Y-104325000I237500J0D01*
G01*
X131437500Y-104325000D01*
G75*
G02*
X131675000Y-104562500I0J-237500D01*
G01*
G37*
G36*
G01*
X133425000Y-104562500D02*
X133425000Y-105037500D01*
G75*
G02*
X133187500Y-105275000I-237500J0D01*
G01*
X132612500Y-105275000D01*
G75*
G02*
X132375000Y-105037500I0J237500D01*
G01*
X132375000Y-104562500D01*
G75*
G02*
X132612500Y-104325000I237500J0D01*
G01*
X133187500Y-104325000D01*
G75*
G02*
X133425000Y-104562500I0J-237500D01*
G01*
G37*
%TD*%
%TO.C,R35*%
G36*
G01*
X174187500Y-142525000D02*
X174662500Y-142525000D01*
G75*
G02*
X174900000Y-142762500I0J-237500D01*
G01*
X174900000Y-143337500D01*
G75*
G02*
X174662500Y-143575000I-237500J0D01*
G01*
X174187500Y-143575000D01*
G75*
G02*
X173950000Y-143337500I0J237500D01*
G01*
X173950000Y-142762500D01*
G75*
G02*
X174187500Y-142525000I237500J0D01*
G01*
G37*
G36*
G01*
X174187500Y-140775000D02*
X174662500Y-140775000D01*
G75*
G02*
X174900000Y-141012500I0J-237500D01*
G01*
X174900000Y-141587500D01*
G75*
G02*
X174662500Y-141825000I-237500J0D01*
G01*
X174187500Y-141825000D01*
G75*
G02*
X173950000Y-141587500I0J237500D01*
G01*
X173950000Y-141012500D01*
G75*
G02*
X174187500Y-140775000I237500J0D01*
G01*
G37*
%TD*%
%TO.C,R36*%
G36*
G01*
X175700000Y-139862500D02*
X175700000Y-139387500D01*
G75*
G02*
X175937500Y-139150000I237500J0D01*
G01*
X176512500Y-139150000D01*
G75*
G02*
X176750000Y-139387500I0J-237500D01*
G01*
X176750000Y-139862500D01*
G75*
G02*
X176512500Y-140100000I-237500J0D01*
G01*
X175937500Y-140100000D01*
G75*
G02*
X175700000Y-139862500I0J237500D01*
G01*
G37*
G36*
G01*
X173950000Y-139862500D02*
X173950000Y-139387500D01*
G75*
G02*
X174187500Y-139150000I237500J0D01*
G01*
X174762500Y-139150000D01*
G75*
G02*
X175000000Y-139387500I0J-237500D01*
G01*
X175000000Y-139862500D01*
G75*
G02*
X174762500Y-140100000I-237500J0D01*
G01*
X174187500Y-140100000D01*
G75*
G02*
X173950000Y-139862500I0J237500D01*
G01*
G37*
%TD*%
%TO.C,R37*%
G36*
G01*
X161475000Y-121637500D02*
X161475000Y-122112500D01*
G75*
G02*
X161237500Y-122350000I-237500J0D01*
G01*
X160662500Y-122350000D01*
G75*
G02*
X160425000Y-122112500I0J237500D01*
G01*
X160425000Y-121637500D01*
G75*
G02*
X160662500Y-121400000I237500J0D01*
G01*
X161237500Y-121400000D01*
G75*
G02*
X161475000Y-121637500I0J-237500D01*
G01*
G37*
G36*
G01*
X163225000Y-121637500D02*
X163225000Y-122112500D01*
G75*
G02*
X162987500Y-122350000I-237500J0D01*
G01*
X162412500Y-122350000D01*
G75*
G02*
X162175000Y-122112500I0J237500D01*
G01*
X162175000Y-121637500D01*
G75*
G02*
X162412500Y-121400000I237500J0D01*
G01*
X162987500Y-121400000D01*
G75*
G02*
X163225000Y-121637500I0J-237500D01*
G01*
G37*
%TD*%
%TO.C,R38*%
G36*
G01*
X164687500Y-120600000D02*
X164212500Y-120600000D01*
G75*
G02*
X163975000Y-120362500I0J237500D01*
G01*
X163975000Y-119787500D01*
G75*
G02*
X164212500Y-119550000I237500J0D01*
G01*
X164687500Y-119550000D01*
G75*
G02*
X164925000Y-119787500I0J-237500D01*
G01*
X164925000Y-120362500D01*
G75*
G02*
X164687500Y-120600000I-237500J0D01*
G01*
G37*
G36*
G01*
X164687500Y-122350000D02*
X164212500Y-122350000D01*
G75*
G02*
X163975000Y-122112500I0J237500D01*
G01*
X163975000Y-121537500D01*
G75*
G02*
X164212500Y-121300000I237500J0D01*
G01*
X164687500Y-121300000D01*
G75*
G02*
X164925000Y-121537500I0J-237500D01*
G01*
X164925000Y-122112500D01*
G75*
G02*
X164687500Y-122350000I-237500J0D01*
G01*
G37*
%TD*%
D19*
%TO.C,U4*%
X125610000Y-128250000D03*
X125610000Y-127300000D03*
X125610000Y-126350000D03*
X122190000Y-126350000D03*
X122190000Y-127300000D03*
X122190000Y-128250000D03*
%TD*%
%TO.C,C11*%
G36*
G01*
X146750000Y-107337500D02*
X146750000Y-106862500D01*
G75*
G02*
X146987500Y-106625000I237500J0D01*
G01*
X147562500Y-106625000D01*
G75*
G02*
X147800000Y-106862500I0J-237500D01*
G01*
X147800000Y-107337500D01*
G75*
G02*
X147562500Y-107575000I-237500J0D01*
G01*
X146987500Y-107575000D01*
G75*
G02*
X146750000Y-107337500I0J237500D01*
G01*
G37*
G36*
G01*
X145000000Y-107337500D02*
X145000000Y-106862500D01*
G75*
G02*
X145237500Y-106625000I237500J0D01*
G01*
X145812500Y-106625000D01*
G75*
G02*
X146050000Y-106862500I0J-237500D01*
G01*
X146050000Y-107337500D01*
G75*
G02*
X145812500Y-107575000I-237500J0D01*
G01*
X145237500Y-107575000D01*
G75*
G02*
X145000000Y-107337500I0J237500D01*
G01*
G37*
%TD*%
%TO.C,C12*%
G36*
G01*
X146750000Y-108937500D02*
X146750000Y-108462500D01*
G75*
G02*
X146987500Y-108225000I237500J0D01*
G01*
X147562500Y-108225000D01*
G75*
G02*
X147800000Y-108462500I0J-237500D01*
G01*
X147800000Y-108937500D01*
G75*
G02*
X147562500Y-109175000I-237500J0D01*
G01*
X146987500Y-109175000D01*
G75*
G02*
X146750000Y-108937500I0J237500D01*
G01*
G37*
G36*
G01*
X145000000Y-108937500D02*
X145000000Y-108462500D01*
G75*
G02*
X145237500Y-108225000I237500J0D01*
G01*
X145812500Y-108225000D01*
G75*
G02*
X146050000Y-108462500I0J-237500D01*
G01*
X146050000Y-108937500D01*
G75*
G02*
X145812500Y-109175000I-237500J0D01*
G01*
X145237500Y-109175000D01*
G75*
G02*
X145000000Y-108937500I0J237500D01*
G01*
G37*
%TD*%
%TO.C,C13*%
G36*
G01*
X143225000Y-108937500D02*
X143225000Y-108462500D01*
G75*
G02*
X143462500Y-108225000I237500J0D01*
G01*
X144037500Y-108225000D01*
G75*
G02*
X144275000Y-108462500I0J-237500D01*
G01*
X144275000Y-108937500D01*
G75*
G02*
X144037500Y-109175000I-237500J0D01*
G01*
X143462500Y-109175000D01*
G75*
G02*
X143225000Y-108937500I0J237500D01*
G01*
G37*
G36*
G01*
X141475000Y-108937500D02*
X141475000Y-108462500D01*
G75*
G02*
X141712500Y-108225000I237500J0D01*
G01*
X142287500Y-108225000D01*
G75*
G02*
X142525000Y-108462500I0J-237500D01*
G01*
X142525000Y-108937500D01*
G75*
G02*
X142287500Y-109175000I-237500J0D01*
G01*
X141712500Y-109175000D01*
G75*
G02*
X141475000Y-108937500I0J237500D01*
G01*
G37*
%TD*%
%TO.C,C14*%
G36*
G01*
X143225000Y-107337500D02*
X143225000Y-106862500D01*
G75*
G02*
X143462500Y-106625000I237500J0D01*
G01*
X144037500Y-106625000D01*
G75*
G02*
X144275000Y-106862500I0J-237500D01*
G01*
X144275000Y-107337500D01*
G75*
G02*
X144037500Y-107575000I-237500J0D01*
G01*
X143462500Y-107575000D01*
G75*
G02*
X143225000Y-107337500I0J237500D01*
G01*
G37*
G36*
G01*
X141475000Y-107337500D02*
X141475000Y-106862500D01*
G75*
G02*
X141712500Y-106625000I237500J0D01*
G01*
X142287500Y-106625000D01*
G75*
G02*
X142525000Y-106862500I0J-237500D01*
G01*
X142525000Y-107337500D01*
G75*
G02*
X142287500Y-107575000I-237500J0D01*
G01*
X141712500Y-107575000D01*
G75*
G02*
X141475000Y-107337500I0J237500D01*
G01*
G37*
%TD*%
%TO.C,R13*%
G36*
G01*
X146637500Y-112350000D02*
X146162500Y-112350000D01*
G75*
G02*
X145925000Y-112112500I0J237500D01*
G01*
X145925000Y-111537500D01*
G75*
G02*
X146162500Y-111300000I237500J0D01*
G01*
X146637500Y-111300000D01*
G75*
G02*
X146875000Y-111537500I0J-237500D01*
G01*
X146875000Y-112112500D01*
G75*
G02*
X146637500Y-112350000I-237500J0D01*
G01*
G37*
G36*
G01*
X146637500Y-114100000D02*
X146162500Y-114100000D01*
G75*
G02*
X145925000Y-113862500I0J237500D01*
G01*
X145925000Y-113287500D01*
G75*
G02*
X146162500Y-113050000I237500J0D01*
G01*
X146637500Y-113050000D01*
G75*
G02*
X146875000Y-113287500I0J-237500D01*
G01*
X146875000Y-113862500D01*
G75*
G02*
X146637500Y-114100000I-237500J0D01*
G01*
G37*
%TD*%
%TO.C,R14*%
G36*
G01*
X146162500Y-116450000D02*
X146637500Y-116450000D01*
G75*
G02*
X146875000Y-116687500I0J-237500D01*
G01*
X146875000Y-117262500D01*
G75*
G02*
X146637500Y-117500000I-237500J0D01*
G01*
X146162500Y-117500000D01*
G75*
G02*
X145925000Y-117262500I0J237500D01*
G01*
X145925000Y-116687500D01*
G75*
G02*
X146162500Y-116450000I237500J0D01*
G01*
G37*
G36*
G01*
X146162500Y-114700000D02*
X146637500Y-114700000D01*
G75*
G02*
X146875000Y-114937500I0J-237500D01*
G01*
X146875000Y-115512500D01*
G75*
G02*
X146637500Y-115750000I-237500J0D01*
G01*
X146162500Y-115750000D01*
G75*
G02*
X145925000Y-115512500I0J237500D01*
G01*
X145925000Y-114937500D01*
G75*
G02*
X146162500Y-114700000I237500J0D01*
G01*
G37*
%TD*%
D20*
%TO.C,Y1*%
X160750000Y-105150000D03*
X157850000Y-105150000D03*
X157850000Y-102850000D03*
X160750000Y-102850000D03*
%TD*%
D21*
%TO.C,J4*%
X126700000Y-91250000D03*
X126700000Y-96330000D03*
X126700000Y-98870000D03*
X126700000Y-93790000D03*
X121650000Y-91250000D03*
X126700000Y-101410000D03*
X126700000Y-88710000D03*
X126700000Y-106490000D03*
X121650000Y-111570000D03*
X126700000Y-111570000D03*
X121650000Y-106490000D03*
X121650000Y-109030000D03*
X121650000Y-116650000D03*
X126700000Y-116650000D03*
X121650000Y-119190000D03*
X126700000Y-119190000D03*
X126700000Y-109030000D03*
X121650000Y-96330000D03*
X121650000Y-103950000D03*
X121650000Y-88710000D03*
X121650000Y-101410000D03*
X121650000Y-93790000D03*
X121650000Y-114110000D03*
X126700000Y-114110000D03*
X126700000Y-103950000D03*
X121650000Y-98870000D03*
%TD*%
%TO.C,J6*%
X172350000Y-91260000D03*
X172350000Y-96340000D03*
X172350000Y-98880000D03*
X172350000Y-93800000D03*
X167300000Y-91260000D03*
X172350000Y-101420000D03*
X172350000Y-88720000D03*
X172350000Y-106500000D03*
X167300000Y-111580000D03*
X172350000Y-111580000D03*
X167300000Y-106500000D03*
X167300000Y-109040000D03*
X167300000Y-116660000D03*
X172350000Y-116660000D03*
X167300000Y-119200000D03*
X172350000Y-119200000D03*
X172350000Y-109040000D03*
X167300000Y-96340000D03*
X167300000Y-103960000D03*
X167300000Y-88720000D03*
X167300000Y-101420000D03*
X167300000Y-93800000D03*
X167300000Y-114120000D03*
X172350000Y-114120000D03*
X172350000Y-103960000D03*
X167300000Y-98880000D03*
%TD*%
%TO.C,R1*%
G36*
G01*
X125050000Y-71737500D02*
X125050000Y-71262500D01*
G75*
G02*
X125287500Y-71025000I237500J0D01*
G01*
X125862500Y-71025000D01*
G75*
G02*
X126100000Y-71262500I0J-237500D01*
G01*
X126100000Y-71737500D01*
G75*
G02*
X125862500Y-71975000I-237500J0D01*
G01*
X125287500Y-71975000D01*
G75*
G02*
X125050000Y-71737500I0J237500D01*
G01*
G37*
G36*
G01*
X123300000Y-71737500D02*
X123300000Y-71262500D01*
G75*
G02*
X123537500Y-71025000I237500J0D01*
G01*
X124112500Y-71025000D01*
G75*
G02*
X124350000Y-71262500I0J-237500D01*
G01*
X124350000Y-71737500D01*
G75*
G02*
X124112500Y-71975000I-237500J0D01*
G01*
X123537500Y-71975000D01*
G75*
G02*
X123300000Y-71737500I0J237500D01*
G01*
G37*
%TD*%
%TO.C,R2*%
G36*
G01*
X126100000Y-69562500D02*
X126100000Y-70037500D01*
G75*
G02*
X125862500Y-70275000I-237500J0D01*
G01*
X125287500Y-70275000D01*
G75*
G02*
X125050000Y-70037500I0J237500D01*
G01*
X125050000Y-69562500D01*
G75*
G02*
X125287500Y-69325000I237500J0D01*
G01*
X125862500Y-69325000D01*
G75*
G02*
X126100000Y-69562500I0J-237500D01*
G01*
G37*
G36*
G01*
X124350000Y-69562500D02*
X124350000Y-70037500D01*
G75*
G02*
X124112500Y-70275000I-237500J0D01*
G01*
X123537500Y-70275000D01*
G75*
G02*
X123300000Y-70037500I0J237500D01*
G01*
X123300000Y-69562500D01*
G75*
G02*
X123537500Y-69325000I237500J0D01*
G01*
X124112500Y-69325000D01*
G75*
G02*
X124350000Y-69562500I0J-237500D01*
G01*
G37*
%TD*%
%TO.C,C7*%
G36*
G01*
X163337500Y-105400000D02*
X162862500Y-105400000D01*
G75*
G02*
X162625000Y-105162500I0J237500D01*
G01*
X162625000Y-104587500D01*
G75*
G02*
X162862500Y-104350000I237500J0D01*
G01*
X163337500Y-104350000D01*
G75*
G02*
X163575000Y-104587500I0J-237500D01*
G01*
X163575000Y-105162500D01*
G75*
G02*
X163337500Y-105400000I-237500J0D01*
G01*
G37*
G36*
G01*
X163337500Y-103650000D02*
X162862500Y-103650000D01*
G75*
G02*
X162625000Y-103412500I0J237500D01*
G01*
X162625000Y-102837500D01*
G75*
G02*
X162862500Y-102600000I237500J0D01*
G01*
X163337500Y-102600000D01*
G75*
G02*
X163575000Y-102837500I0J-237500D01*
G01*
X163575000Y-103412500D01*
G75*
G02*
X163337500Y-103650000I-237500J0D01*
G01*
G37*
%TD*%
%TO.C,R9*%
G36*
G01*
X160610000Y-134115000D02*
X160610000Y-132865000D01*
G75*
G02*
X160860000Y-132615000I250000J0D01*
G01*
X161785000Y-132615000D01*
G75*
G02*
X162035000Y-132865000I0J-250000D01*
G01*
X162035000Y-134115000D01*
G75*
G02*
X161785000Y-134365000I-250000J0D01*
G01*
X160860000Y-134365000D01*
G75*
G02*
X160610000Y-134115000I0J250000D01*
G01*
G37*
G36*
G01*
X157635000Y-134115000D02*
X157635000Y-132865000D01*
G75*
G02*
X157885000Y-132615000I250000J0D01*
G01*
X158810000Y-132615000D01*
G75*
G02*
X159060000Y-132865000I0J-250000D01*
G01*
X159060000Y-134115000D01*
G75*
G02*
X158810000Y-134365000I-250000J0D01*
G01*
X157885000Y-134365000D01*
G75*
G02*
X157635000Y-134115000I0J250000D01*
G01*
G37*
%TD*%
D22*
%TO.C,Q3*%
X156065000Y-133490000D03*
X153655000Y-132540000D03*
X153655000Y-134440000D03*
%TD*%
D23*
%TO.C,Q2*%
X165025000Y-133505000D03*
X165975000Y-131095000D03*
X164075000Y-131095000D03*
%TD*%
%TO.C,C15*%
G36*
G01*
X135137500Y-116450000D02*
X134662500Y-116450000D01*
G75*
G02*
X134425000Y-116212500I0J237500D01*
G01*
X134425000Y-115637500D01*
G75*
G02*
X134662500Y-115400000I237500J0D01*
G01*
X135137500Y-115400000D01*
G75*
G02*
X135375000Y-115637500I0J-237500D01*
G01*
X135375000Y-116212500D01*
G75*
G02*
X135137500Y-116450000I-237500J0D01*
G01*
G37*
G36*
G01*
X135137500Y-118200000D02*
X134662500Y-118200000D01*
G75*
G02*
X134425000Y-117962500I0J237500D01*
G01*
X134425000Y-117387500D01*
G75*
G02*
X134662500Y-117150000I237500J0D01*
G01*
X135137500Y-117150000D01*
G75*
G02*
X135375000Y-117387500I0J-237500D01*
G01*
X135375000Y-117962500D01*
G75*
G02*
X135137500Y-118200000I-237500J0D01*
G01*
G37*
%TD*%
%TO.C,R11*%
G36*
G01*
X148937500Y-128050000D02*
X148462500Y-128050000D01*
G75*
G02*
X148225000Y-127812500I0J237500D01*
G01*
X148225000Y-127237500D01*
G75*
G02*
X148462500Y-127000000I237500J0D01*
G01*
X148937500Y-127000000D01*
G75*
G02*
X149175000Y-127237500I0J-237500D01*
G01*
X149175000Y-127812500D01*
G75*
G02*
X148937500Y-128050000I-237500J0D01*
G01*
G37*
G36*
G01*
X148937500Y-129800000D02*
X148462500Y-129800000D01*
G75*
G02*
X148225000Y-129562500I0J237500D01*
G01*
X148225000Y-128987500D01*
G75*
G02*
X148462500Y-128750000I237500J0D01*
G01*
X148937500Y-128750000D01*
G75*
G02*
X149175000Y-128987500I0J-237500D01*
G01*
X149175000Y-129562500D01*
G75*
G02*
X148937500Y-129800000I-237500J0D01*
G01*
G37*
%TD*%
D17*
%TO.C,Q4*%
X152330000Y-128520000D03*
X150330000Y-127570000D03*
X150330000Y-129470000D03*
%TD*%
%TO.C,C8*%
G36*
G01*
X155262500Y-102600000D02*
X155737500Y-102600000D01*
G75*
G02*
X155975000Y-102837500I0J-237500D01*
G01*
X155975000Y-103412500D01*
G75*
G02*
X155737500Y-103650000I-237500J0D01*
G01*
X155262500Y-103650000D01*
G75*
G02*
X155025000Y-103412500I0J237500D01*
G01*
X155025000Y-102837500D01*
G75*
G02*
X155262500Y-102600000I237500J0D01*
G01*
G37*
G36*
G01*
X155262500Y-104350000D02*
X155737500Y-104350000D01*
G75*
G02*
X155975000Y-104587500I0J-237500D01*
G01*
X155975000Y-105162500D01*
G75*
G02*
X155737500Y-105400000I-237500J0D01*
G01*
X155262500Y-105400000D01*
G75*
G02*
X155025000Y-105162500I0J237500D01*
G01*
X155025000Y-104587500D01*
G75*
G02*
X155262500Y-104350000I237500J0D01*
G01*
G37*
%TD*%
D22*
%TO.C,Q1*%
X126655000Y-64770000D03*
X124245000Y-63820000D03*
X124245000Y-65720000D03*
%TD*%
%TO.C,R6*%
G36*
G01*
X153415425Y-109520451D02*
X153079549Y-109184575D01*
G75*
G02*
X153079549Y-108848699I167938J167938D01*
G01*
X153486135Y-108442113D01*
G75*
G02*
X153822011Y-108442113I167938J-167938D01*
G01*
X154157887Y-108777989D01*
G75*
G02*
X154157887Y-109113865I-167938J-167938D01*
G01*
X153751301Y-109520451D01*
G75*
G02*
X153415425Y-109520451I-167938J167938D01*
G01*
G37*
G36*
G01*
X152177989Y-110757887D02*
X151842113Y-110422011D01*
G75*
G02*
X151842113Y-110086135I167938J167938D01*
G01*
X152248699Y-109679549D01*
G75*
G02*
X152584575Y-109679549I167938J-167938D01*
G01*
X152920451Y-110015425D01*
G75*
G02*
X152920451Y-110351301I-167938J-167938D01*
G01*
X152513865Y-110757887D01*
G75*
G02*
X152177989Y-110757887I-167938J167938D01*
G01*
G37*
%TD*%
%TO.C,R4*%
G36*
G01*
X157409549Y-117405425D02*
X157745425Y-117069549D01*
G75*
G02*
X158081301Y-117069549I167938J-167938D01*
G01*
X158487887Y-117476135D01*
G75*
G02*
X158487887Y-117812011I-167938J-167938D01*
G01*
X158152011Y-118147887D01*
G75*
G02*
X157816135Y-118147887I-167938J167938D01*
G01*
X157409549Y-117741301D01*
G75*
G02*
X157409549Y-117405425I167938J167938D01*
G01*
G37*
G36*
G01*
X156172113Y-116167989D02*
X156507989Y-115832113D01*
G75*
G02*
X156843865Y-115832113I167938J-167938D01*
G01*
X157250451Y-116238699D01*
G75*
G02*
X157250451Y-116574575I-167938J-167938D01*
G01*
X156914575Y-116910451D01*
G75*
G02*
X156578699Y-116910451I-167938J167938D01*
G01*
X156172113Y-116503865D01*
G75*
G02*
X156172113Y-116167989I167938J167938D01*
G01*
G37*
%TD*%
M02*
