%TF.GenerationSoftware,KiCad,Pcbnew,(5.1.6)-1*%
%TF.CreationDate,2022-08-05T13:09:53+02:00*%
%TF.ProjectId,ZumoComSystem,5a756d6f-436f-46d5-9379-7374656d2e6b,V1.1*%
%TF.SameCoordinates,Original*%
%TF.FileFunction,Paste,Bot*%
%TF.FilePolarity,Positive*%
%FSLAX46Y46*%
G04 Gerber Fmt 4.6, Leading zero omitted, Abs format (unit mm)*
G04 Created by KiCad (PCBNEW (5.1.6)-1) date 2022-08-05 13:09:53*
%MOMM*%
%LPD*%
G01*
G04 APERTURE LIST*
%ADD10C,0.010000*%
%ADD11R,1.981200X0.533400*%
%ADD12R,3.175000X4.950000*%
%ADD13R,2.300000X2.500000*%
%ADD14R,1.000000X1.000000*%
%ADD15R,1.900000X0.800000*%
%ADD16R,3.400000X1.500000*%
%ADD17R,0.812800X0.304800*%
%ADD18R,2.300000X3.500000*%
%ADD19R,0.900000X0.800000*%
%ADD20R,0.800000X0.900000*%
%ADD21R,2.000000X0.650000*%
%ADD22R,2.100000X1.800000*%
%ADD23R,3.150000X1.000000*%
%ADD24R,1.310000X0.600000*%
%ADD25R,0.600000X1.310000*%
G04 APERTURE END LIST*
D10*
%TO.C,U5*%
G36*
X141200000Y-115000000D02*
G01*
X141200000Y-117000000D01*
X143200000Y-117000000D01*
X143200000Y-115000000D01*
X141200000Y-115000000D01*
G37*
X141200000Y-115000000D02*
X141200000Y-117000000D01*
X143200000Y-117000000D01*
X143200000Y-115000000D01*
X141200000Y-115000000D01*
%TO.C,U3*%
G36*
X160685929Y-113100000D02*
G01*
X159300000Y-111714071D01*
X157914071Y-113100000D01*
X159300000Y-114485929D01*
X160685929Y-113100000D01*
G37*
X160685929Y-113100000D02*
X159300000Y-111714071D01*
X157914071Y-113100000D01*
X159300000Y-114485929D01*
X160685929Y-113100000D01*
%TD*%
D11*
%TO.C,U1*%
X135863800Y-69705000D03*
X135863800Y-68435000D03*
X135863800Y-67165000D03*
X135863800Y-65895000D03*
X130936200Y-65895000D03*
X130936200Y-67165000D03*
X130936200Y-68435000D03*
X130936200Y-69705000D03*
%TD*%
D12*
%TO.C,L2*%
X125092500Y-81200000D03*
X134107500Y-81200000D03*
%TD*%
%TO.C,R5*%
G36*
G01*
X151939549Y-114545425D02*
X152275425Y-114209549D01*
G75*
G02*
X152611301Y-114209549I167938J-167938D01*
G01*
X153017887Y-114616135D01*
G75*
G02*
X153017887Y-114952011I-167938J-167938D01*
G01*
X152682011Y-115287887D01*
G75*
G02*
X152346135Y-115287887I-167938J167938D01*
G01*
X151939549Y-114881301D01*
G75*
G02*
X151939549Y-114545425I167938J167938D01*
G01*
G37*
G36*
G01*
X150702113Y-113307989D02*
X151037989Y-112972113D01*
G75*
G02*
X151373865Y-112972113I167938J-167938D01*
G01*
X151780451Y-113378699D01*
G75*
G02*
X151780451Y-113714575I-167938J-167938D01*
G01*
X151444575Y-114050451D01*
G75*
G02*
X151108699Y-114050451I-167938J167938D01*
G01*
X150702113Y-113643865D01*
G75*
G02*
X150702113Y-113307989I167938J167938D01*
G01*
G37*
%TD*%
%TO.C,R3*%
G36*
G01*
X151979549Y-107215425D02*
X152315425Y-106879549D01*
G75*
G02*
X152651301Y-106879549I167938J-167938D01*
G01*
X153057887Y-107286135D01*
G75*
G02*
X153057887Y-107622011I-167938J-167938D01*
G01*
X152722011Y-107957887D01*
G75*
G02*
X152386135Y-107957887I-167938J167938D01*
G01*
X151979549Y-107551301D01*
G75*
G02*
X151979549Y-107215425I167938J167938D01*
G01*
G37*
G36*
G01*
X150742113Y-105977989D02*
X151077989Y-105642113D01*
G75*
G02*
X151413865Y-105642113I167938J-167938D01*
G01*
X151820451Y-106048699D01*
G75*
G02*
X151820451Y-106384575I-167938J-167938D01*
G01*
X151484575Y-106720451D01*
G75*
G02*
X151148699Y-106720451I-167938J167938D01*
G01*
X150742113Y-106313865D01*
G75*
G02*
X150742113Y-105977989I167938J167938D01*
G01*
G37*
%TD*%
%TO.C,R2*%
G36*
G01*
X152920451Y-105284575D02*
X152584575Y-105620451D01*
G75*
G02*
X152248699Y-105620451I-167938J167938D01*
G01*
X151842113Y-105213865D01*
G75*
G02*
X151842113Y-104877989I167938J167938D01*
G01*
X152177989Y-104542113D01*
G75*
G02*
X152513865Y-104542113I167938J-167938D01*
G01*
X152920451Y-104948699D01*
G75*
G02*
X152920451Y-105284575I-167938J-167938D01*
G01*
G37*
G36*
G01*
X154157887Y-106522011D02*
X153822011Y-106857887D01*
G75*
G02*
X153486135Y-106857887I-167938J167938D01*
G01*
X153079549Y-106451301D01*
G75*
G02*
X153079549Y-106115425I167938J167938D01*
G01*
X153415425Y-105779549D01*
G75*
G02*
X153751301Y-105779549I167938J-167938D01*
G01*
X154157887Y-106186135D01*
G75*
G02*
X154157887Y-106522011I-167938J-167938D01*
G01*
G37*
%TD*%
D13*
%TO.C,D7*%
X136500000Y-98150000D03*
X136500000Y-102450000D03*
%TD*%
%TO.C,C3*%
G36*
G01*
X139750000Y-68637500D02*
X139750000Y-68162500D01*
G75*
G02*
X139987500Y-67925000I237500J0D01*
G01*
X140562500Y-67925000D01*
G75*
G02*
X140800000Y-68162500I0J-237500D01*
G01*
X140800000Y-68637500D01*
G75*
G02*
X140562500Y-68875000I-237500J0D01*
G01*
X139987500Y-68875000D01*
G75*
G02*
X139750000Y-68637500I0J237500D01*
G01*
G37*
G36*
G01*
X138000000Y-68637500D02*
X138000000Y-68162500D01*
G75*
G02*
X138237500Y-67925000I237500J0D01*
G01*
X138812500Y-67925000D01*
G75*
G02*
X139050000Y-68162500I0J-237500D01*
G01*
X139050000Y-68637500D01*
G75*
G02*
X138812500Y-68875000I-237500J0D01*
G01*
X138237500Y-68875000D01*
G75*
G02*
X138000000Y-68637500I0J237500D01*
G01*
G37*
%TD*%
D14*
%TO.C,D2*%
X130350000Y-72600000D03*
X132850000Y-72600000D03*
%TD*%
D15*
%TO.C,Q1*%
X126950000Y-64770000D03*
X123950000Y-63820000D03*
X123950000Y-65720000D03*
%TD*%
D16*
%TO.C,L1*%
X176000000Y-71735000D03*
X176000000Y-68865000D03*
%TD*%
D17*
%TO.C,U2*%
X173147800Y-67362000D03*
X173147800Y-66854000D03*
X173147800Y-66346000D03*
X173147800Y-65838000D03*
X170252200Y-65838000D03*
X170252200Y-66346000D03*
X170252200Y-66854000D03*
X170252200Y-67362000D03*
%TD*%
%TO.C,R1*%
G36*
G01*
X171350000Y-63262500D02*
X171350000Y-63737500D01*
G75*
G02*
X171112500Y-63975000I-237500J0D01*
G01*
X170537500Y-63975000D01*
G75*
G02*
X170300000Y-63737500I0J237500D01*
G01*
X170300000Y-63262500D01*
G75*
G02*
X170537500Y-63025000I237500J0D01*
G01*
X171112500Y-63025000D01*
G75*
G02*
X171350000Y-63262500I0J-237500D01*
G01*
G37*
G36*
G01*
X173100000Y-63262500D02*
X173100000Y-63737500D01*
G75*
G02*
X172862500Y-63975000I-237500J0D01*
G01*
X172287500Y-63975000D01*
G75*
G02*
X172050000Y-63737500I0J237500D01*
G01*
X172050000Y-63262500D01*
G75*
G02*
X172287500Y-63025000I237500J0D01*
G01*
X172862500Y-63025000D01*
G75*
G02*
X173100000Y-63262500I0J-237500D01*
G01*
G37*
%TD*%
%TO.C,C6*%
G36*
G01*
X176600000Y-73349999D02*
X176600000Y-74250001D01*
G75*
G02*
X176350001Y-74500000I-249999J0D01*
G01*
X175699999Y-74500000D01*
G75*
G02*
X175450000Y-74250001I0J249999D01*
G01*
X175450000Y-73349999D01*
G75*
G02*
X175699999Y-73100000I249999J0D01*
G01*
X176350001Y-73100000D01*
G75*
G02*
X176600000Y-73349999I0J-249999D01*
G01*
G37*
G36*
G01*
X174550000Y-73349999D02*
X174550000Y-74250001D01*
G75*
G02*
X174300001Y-74500000I-249999J0D01*
G01*
X173649999Y-74500000D01*
G75*
G02*
X173400000Y-74250001I0J249999D01*
G01*
X173400000Y-73349999D01*
G75*
G02*
X173649999Y-73100000I249999J0D01*
G01*
X174300001Y-73100000D01*
G75*
G02*
X174550000Y-73349999I0J-249999D01*
G01*
G37*
%TD*%
%TO.C,U5*%
G36*
G01*
X140577800Y-117885000D02*
X140822200Y-117885000D01*
G75*
G02*
X140830000Y-117892800I0J-7800D01*
G01*
X140830000Y-118847200D01*
G75*
G02*
X140822200Y-118855000I-7800J0D01*
G01*
X140577800Y-118855000D01*
G75*
G02*
X140570000Y-118847200I0J7800D01*
G01*
X140570000Y-117892800D01*
G75*
G02*
X140577800Y-117885000I7800J0D01*
G01*
G37*
G36*
G01*
X141077800Y-117885000D02*
X141322200Y-117885000D01*
G75*
G02*
X141330000Y-117892800I0J-7800D01*
G01*
X141330000Y-118847200D01*
G75*
G02*
X141322200Y-118855000I-7800J0D01*
G01*
X141077800Y-118855000D01*
G75*
G02*
X141070000Y-118847200I0J7800D01*
G01*
X141070000Y-117892800D01*
G75*
G02*
X141077800Y-117885000I7800J0D01*
G01*
G37*
G36*
G01*
X141577800Y-117885000D02*
X141822200Y-117885000D01*
G75*
G02*
X141830000Y-117892800I0J-7800D01*
G01*
X141830000Y-118847200D01*
G75*
G02*
X141822200Y-118855000I-7800J0D01*
G01*
X141577800Y-118855000D01*
G75*
G02*
X141570000Y-118847200I0J7800D01*
G01*
X141570000Y-117892800D01*
G75*
G02*
X141577800Y-117885000I7800J0D01*
G01*
G37*
G36*
G01*
X142077800Y-117885000D02*
X142322200Y-117885000D01*
G75*
G02*
X142330000Y-117892800I0J-7800D01*
G01*
X142330000Y-118847200D01*
G75*
G02*
X142322200Y-118855000I-7800J0D01*
G01*
X142077800Y-118855000D01*
G75*
G02*
X142070000Y-118847200I0J7800D01*
G01*
X142070000Y-117892800D01*
G75*
G02*
X142077800Y-117885000I7800J0D01*
G01*
G37*
G36*
G01*
X142577800Y-117885000D02*
X142822200Y-117885000D01*
G75*
G02*
X142830000Y-117892800I0J-7800D01*
G01*
X142830000Y-118847200D01*
G75*
G02*
X142822200Y-118855000I-7800J0D01*
G01*
X142577800Y-118855000D01*
G75*
G02*
X142570000Y-118847200I0J7800D01*
G01*
X142570000Y-117892800D01*
G75*
G02*
X142577800Y-117885000I7800J0D01*
G01*
G37*
G36*
G01*
X143077800Y-117885000D02*
X143322200Y-117885000D01*
G75*
G02*
X143330000Y-117892800I0J-7800D01*
G01*
X143330000Y-118847200D01*
G75*
G02*
X143322200Y-118855000I-7800J0D01*
G01*
X143077800Y-118855000D01*
G75*
G02*
X143070000Y-118847200I0J7800D01*
G01*
X143070000Y-117892800D01*
G75*
G02*
X143077800Y-117885000I7800J0D01*
G01*
G37*
G36*
G01*
X143577800Y-117885000D02*
X143822200Y-117885000D01*
G75*
G02*
X143830000Y-117892800I0J-7800D01*
G01*
X143830000Y-118847200D01*
G75*
G02*
X143822200Y-118855000I-7800J0D01*
G01*
X143577800Y-118855000D01*
G75*
G02*
X143570000Y-118847200I0J7800D01*
G01*
X143570000Y-117892800D01*
G75*
G02*
X143577800Y-117885000I7800J0D01*
G01*
G37*
G36*
G01*
X143577800Y-113145000D02*
X143822200Y-113145000D01*
G75*
G02*
X143830000Y-113152800I0J-7800D01*
G01*
X143830000Y-114107200D01*
G75*
G02*
X143822200Y-114115000I-7800J0D01*
G01*
X143577800Y-114115000D01*
G75*
G02*
X143570000Y-114107200I0J7800D01*
G01*
X143570000Y-113152800D01*
G75*
G02*
X143577800Y-113145000I7800J0D01*
G01*
G37*
G36*
G01*
X143077800Y-113145000D02*
X143322200Y-113145000D01*
G75*
G02*
X143330000Y-113152800I0J-7800D01*
G01*
X143330000Y-114107200D01*
G75*
G02*
X143322200Y-114115000I-7800J0D01*
G01*
X143077800Y-114115000D01*
G75*
G02*
X143070000Y-114107200I0J7800D01*
G01*
X143070000Y-113152800D01*
G75*
G02*
X143077800Y-113145000I7800J0D01*
G01*
G37*
G36*
G01*
X142577800Y-113145000D02*
X142822200Y-113145000D01*
G75*
G02*
X142830000Y-113152800I0J-7800D01*
G01*
X142830000Y-114107200D01*
G75*
G02*
X142822200Y-114115000I-7800J0D01*
G01*
X142577800Y-114115000D01*
G75*
G02*
X142570000Y-114107200I0J7800D01*
G01*
X142570000Y-113152800D01*
G75*
G02*
X142577800Y-113145000I7800J0D01*
G01*
G37*
G36*
G01*
X142077800Y-113145000D02*
X142322200Y-113145000D01*
G75*
G02*
X142330000Y-113152800I0J-7800D01*
G01*
X142330000Y-114107200D01*
G75*
G02*
X142322200Y-114115000I-7800J0D01*
G01*
X142077800Y-114115000D01*
G75*
G02*
X142070000Y-114107200I0J7800D01*
G01*
X142070000Y-113152800D01*
G75*
G02*
X142077800Y-113145000I7800J0D01*
G01*
G37*
G36*
G01*
X141577800Y-113145000D02*
X141822200Y-113145000D01*
G75*
G02*
X141830000Y-113152800I0J-7800D01*
G01*
X141830000Y-114107200D01*
G75*
G02*
X141822200Y-114115000I-7800J0D01*
G01*
X141577800Y-114115000D01*
G75*
G02*
X141570000Y-114107200I0J7800D01*
G01*
X141570000Y-113152800D01*
G75*
G02*
X141577800Y-113145000I7800J0D01*
G01*
G37*
G36*
G01*
X141077800Y-113145000D02*
X141322200Y-113145000D01*
G75*
G02*
X141330000Y-113152800I0J-7800D01*
G01*
X141330000Y-114107200D01*
G75*
G02*
X141322200Y-114115000I-7800J0D01*
G01*
X141077800Y-114115000D01*
G75*
G02*
X141070000Y-114107200I0J7800D01*
G01*
X141070000Y-113152800D01*
G75*
G02*
X141077800Y-113145000I7800J0D01*
G01*
G37*
G36*
G01*
X140577800Y-113145000D02*
X140822200Y-113145000D01*
G75*
G02*
X140830000Y-113152800I0J-7800D01*
G01*
X140830000Y-114107200D01*
G75*
G02*
X140822200Y-114115000I-7800J0D01*
G01*
X140577800Y-114115000D01*
G75*
G02*
X140570000Y-114107200I0J7800D01*
G01*
X140570000Y-113152800D01*
G75*
G02*
X140577800Y-113145000I7800J0D01*
G01*
G37*
G36*
G01*
X140315000Y-114377800D02*
X140315000Y-114622200D01*
G75*
G02*
X140307200Y-114630000I-7800J0D01*
G01*
X139352800Y-114630000D01*
G75*
G02*
X139345000Y-114622200I0J7800D01*
G01*
X139345000Y-114377800D01*
G75*
G02*
X139352800Y-114370000I7800J0D01*
G01*
X140307200Y-114370000D01*
G75*
G02*
X140315000Y-114377800I0J-7800D01*
G01*
G37*
G36*
G01*
X140315000Y-114877800D02*
X140315000Y-115122200D01*
G75*
G02*
X140307200Y-115130000I-7800J0D01*
G01*
X139352800Y-115130000D01*
G75*
G02*
X139345000Y-115122200I0J7800D01*
G01*
X139345000Y-114877800D01*
G75*
G02*
X139352800Y-114870000I7800J0D01*
G01*
X140307200Y-114870000D01*
G75*
G02*
X140315000Y-114877800I0J-7800D01*
G01*
G37*
G36*
G01*
X140315000Y-115377800D02*
X140315000Y-115622200D01*
G75*
G02*
X140307200Y-115630000I-7800J0D01*
G01*
X139352800Y-115630000D01*
G75*
G02*
X139345000Y-115622200I0J7800D01*
G01*
X139345000Y-115377800D01*
G75*
G02*
X139352800Y-115370000I7800J0D01*
G01*
X140307200Y-115370000D01*
G75*
G02*
X140315000Y-115377800I0J-7800D01*
G01*
G37*
G36*
G01*
X140315000Y-115877800D02*
X140315000Y-116122200D01*
G75*
G02*
X140307200Y-116130000I-7800J0D01*
G01*
X139352800Y-116130000D01*
G75*
G02*
X139345000Y-116122200I0J7800D01*
G01*
X139345000Y-115877800D01*
G75*
G02*
X139352800Y-115870000I7800J0D01*
G01*
X140307200Y-115870000D01*
G75*
G02*
X140315000Y-115877800I0J-7800D01*
G01*
G37*
G36*
G01*
X140315000Y-116377800D02*
X140315000Y-116622200D01*
G75*
G02*
X140307200Y-116630000I-7800J0D01*
G01*
X139352800Y-116630000D01*
G75*
G02*
X139345000Y-116622200I0J7800D01*
G01*
X139345000Y-116377800D01*
G75*
G02*
X139352800Y-116370000I7800J0D01*
G01*
X140307200Y-116370000D01*
G75*
G02*
X140315000Y-116377800I0J-7800D01*
G01*
G37*
G36*
G01*
X140315000Y-116877800D02*
X140315000Y-117122200D01*
G75*
G02*
X140307200Y-117130000I-7800J0D01*
G01*
X139352800Y-117130000D01*
G75*
G02*
X139345000Y-117122200I0J7800D01*
G01*
X139345000Y-116877800D01*
G75*
G02*
X139352800Y-116870000I7800J0D01*
G01*
X140307200Y-116870000D01*
G75*
G02*
X140315000Y-116877800I0J-7800D01*
G01*
G37*
G36*
G01*
X140315000Y-117377800D02*
X140315000Y-117622200D01*
G75*
G02*
X140307200Y-117630000I-7800J0D01*
G01*
X139352800Y-117630000D01*
G75*
G02*
X139345000Y-117622200I0J7800D01*
G01*
X139345000Y-117377800D01*
G75*
G02*
X139352800Y-117370000I7800J0D01*
G01*
X140307200Y-117370000D01*
G75*
G02*
X140315000Y-117377800I0J-7800D01*
G01*
G37*
G36*
G01*
X145055000Y-117377800D02*
X145055000Y-117622200D01*
G75*
G02*
X145047200Y-117630000I-7800J0D01*
G01*
X144092800Y-117630000D01*
G75*
G02*
X144085000Y-117622200I0J7800D01*
G01*
X144085000Y-117377800D01*
G75*
G02*
X144092800Y-117370000I7800J0D01*
G01*
X145047200Y-117370000D01*
G75*
G02*
X145055000Y-117377800I0J-7800D01*
G01*
G37*
G36*
G01*
X145055000Y-116877800D02*
X145055000Y-117122200D01*
G75*
G02*
X145047200Y-117130000I-7800J0D01*
G01*
X144092800Y-117130000D01*
G75*
G02*
X144085000Y-117122200I0J7800D01*
G01*
X144085000Y-116877800D01*
G75*
G02*
X144092800Y-116870000I7800J0D01*
G01*
X145047200Y-116870000D01*
G75*
G02*
X145055000Y-116877800I0J-7800D01*
G01*
G37*
G36*
G01*
X145055000Y-116377800D02*
X145055000Y-116622200D01*
G75*
G02*
X145047200Y-116630000I-7800J0D01*
G01*
X144092800Y-116630000D01*
G75*
G02*
X144085000Y-116622200I0J7800D01*
G01*
X144085000Y-116377800D01*
G75*
G02*
X144092800Y-116370000I7800J0D01*
G01*
X145047200Y-116370000D01*
G75*
G02*
X145055000Y-116377800I0J-7800D01*
G01*
G37*
G36*
G01*
X145055000Y-115877800D02*
X145055000Y-116122200D01*
G75*
G02*
X145047200Y-116130000I-7800J0D01*
G01*
X144092800Y-116130000D01*
G75*
G02*
X144085000Y-116122200I0J7800D01*
G01*
X144085000Y-115877800D01*
G75*
G02*
X144092800Y-115870000I7800J0D01*
G01*
X145047200Y-115870000D01*
G75*
G02*
X145055000Y-115877800I0J-7800D01*
G01*
G37*
G36*
G01*
X145055000Y-115377800D02*
X145055000Y-115622200D01*
G75*
G02*
X145047200Y-115630000I-7800J0D01*
G01*
X144092800Y-115630000D01*
G75*
G02*
X144085000Y-115622200I0J7800D01*
G01*
X144085000Y-115377800D01*
G75*
G02*
X144092800Y-115370000I7800J0D01*
G01*
X145047200Y-115370000D01*
G75*
G02*
X145055000Y-115377800I0J-7800D01*
G01*
G37*
G36*
G01*
X145055000Y-114877800D02*
X145055000Y-115122200D01*
G75*
G02*
X145047200Y-115130000I-7800J0D01*
G01*
X144092800Y-115130000D01*
G75*
G02*
X144085000Y-115122200I0J7800D01*
G01*
X144085000Y-114877800D01*
G75*
G02*
X144092800Y-114870000I7800J0D01*
G01*
X145047200Y-114870000D01*
G75*
G02*
X145055000Y-114877800I0J-7800D01*
G01*
G37*
G36*
G01*
X145055000Y-114377800D02*
X145055000Y-114622200D01*
G75*
G02*
X145047200Y-114630000I-7800J0D01*
G01*
X144092800Y-114630000D01*
G75*
G02*
X144085000Y-114622200I0J7800D01*
G01*
X144085000Y-114377800D01*
G75*
G02*
X144092800Y-114370000I7800J0D01*
G01*
X145047200Y-114370000D01*
G75*
G02*
X145055000Y-114377800I0J-7800D01*
G01*
G37*
%TD*%
%TO.C,U3*%
G36*
G01*
X159142244Y-110287907D02*
X158962781Y-110467371D01*
G75*
G02*
X158951325Y-110467371I-5728J5728D01*
G01*
X157619277Y-109135323D01*
G75*
G02*
X157619277Y-109123867I5728J5728D01*
G01*
X157798741Y-108944403D01*
G75*
G02*
X157810197Y-108944403I5728J-5728D01*
G01*
X159142245Y-110276451D01*
G75*
G02*
X159142245Y-110287907I-5728J-5728D01*
G01*
G37*
G36*
G01*
X158859402Y-110712171D02*
X158679938Y-110891635D01*
G75*
G02*
X158668482Y-110891635I-5728J5728D01*
G01*
X157265724Y-109488877D01*
G75*
G02*
X157265724Y-109477421I5728J5728D01*
G01*
X157445188Y-109297957D01*
G75*
G02*
X157456644Y-109297957I5728J-5728D01*
G01*
X158859402Y-110700715D01*
G75*
G02*
X158859402Y-110712171I-5728J-5728D01*
G01*
G37*
G36*
G01*
X158505849Y-111065725D02*
X158326385Y-111245189D01*
G75*
G02*
X158314929Y-111245189I-5728J5728D01*
G01*
X156912171Y-109842431D01*
G75*
G02*
X156912171Y-109830975I5728J5728D01*
G01*
X157091635Y-109651511D01*
G75*
G02*
X157103091Y-109651511I5728J-5728D01*
G01*
X158505849Y-111054269D01*
G75*
G02*
X158505849Y-111065725I-5728J-5728D01*
G01*
G37*
G36*
G01*
X158152295Y-111419278D02*
X157972831Y-111598742D01*
G75*
G02*
X157961375Y-111598742I-5728J5728D01*
G01*
X156558617Y-110195984D01*
G75*
G02*
X156558617Y-110184528I5728J5728D01*
G01*
X156738081Y-110005064D01*
G75*
G02*
X156749537Y-110005064I5728J-5728D01*
G01*
X158152295Y-111407822D01*
G75*
G02*
X158152295Y-111419278I-5728J-5728D01*
G01*
G37*
G36*
G01*
X157798742Y-111772831D02*
X157619278Y-111952295D01*
G75*
G02*
X157607822Y-111952295I-5728J5728D01*
G01*
X156205064Y-110549537D01*
G75*
G02*
X156205064Y-110538081I5728J5728D01*
G01*
X156384528Y-110358617D01*
G75*
G02*
X156395984Y-110358617I5728J-5728D01*
G01*
X157798742Y-111761375D01*
G75*
G02*
X157798742Y-111772831I-5728J-5728D01*
G01*
G37*
G36*
G01*
X157445189Y-112126385D02*
X157265725Y-112305849D01*
G75*
G02*
X157254269Y-112305849I-5728J5728D01*
G01*
X155851511Y-110903091D01*
G75*
G02*
X155851511Y-110891635I5728J5728D01*
G01*
X156030975Y-110712171D01*
G75*
G02*
X156042431Y-110712171I5728J-5728D01*
G01*
X157445189Y-112114929D01*
G75*
G02*
X157445189Y-112126385I-5728J-5728D01*
G01*
G37*
G36*
G01*
X157091635Y-112479938D02*
X156912171Y-112659402D01*
G75*
G02*
X156900715Y-112659402I-5728J5728D01*
G01*
X155497957Y-111256644D01*
G75*
G02*
X155497957Y-111245188I5728J5728D01*
G01*
X155677421Y-111065724D01*
G75*
G02*
X155688877Y-111065724I5728J-5728D01*
G01*
X157091635Y-112468482D01*
G75*
G02*
X157091635Y-112479938I-5728J-5728D01*
G01*
G37*
G36*
G01*
X156667370Y-112762781D02*
X156487907Y-112942245D01*
G75*
G02*
X156476451Y-112942245I-5728J5728D01*
G01*
X155144403Y-111610197D01*
G75*
G02*
X155144403Y-111598741I5728J5728D01*
G01*
X155323867Y-111419277D01*
G75*
G02*
X155335323Y-111419277I5728J-5728D01*
G01*
X156667371Y-112751325D01*
G75*
G02*
X156667371Y-112762781I-5728J-5728D01*
G01*
G37*
G36*
G01*
X160980722Y-117076133D02*
X160801259Y-117255597D01*
G75*
G02*
X160789803Y-117255597I-5728J5728D01*
G01*
X159457755Y-115923549D01*
G75*
G02*
X159457755Y-115912093I5728J5728D01*
G01*
X159637219Y-115732629D01*
G75*
G02*
X159648675Y-115732629I5728J-5728D01*
G01*
X160980723Y-117064677D01*
G75*
G02*
X160980723Y-117076133I-5728J-5728D01*
G01*
G37*
G36*
G01*
X161334276Y-116722579D02*
X161154812Y-116902043D01*
G75*
G02*
X161143356Y-116902043I-5728J5728D01*
G01*
X159740598Y-115499285D01*
G75*
G02*
X159740598Y-115487829I5728J5728D01*
G01*
X159920062Y-115308365D01*
G75*
G02*
X159931518Y-115308365I5728J-5728D01*
G01*
X161334276Y-116711123D01*
G75*
G02*
X161334276Y-116722579I-5728J-5728D01*
G01*
G37*
G36*
G01*
X161687829Y-116369025D02*
X161508365Y-116548489D01*
G75*
G02*
X161496909Y-116548489I-5728J5728D01*
G01*
X160094151Y-115145731D01*
G75*
G02*
X160094151Y-115134275I5728J5728D01*
G01*
X160273615Y-114954811D01*
G75*
G02*
X160285071Y-114954811I5728J-5728D01*
G01*
X161687829Y-116357569D01*
G75*
G02*
X161687829Y-116369025I-5728J-5728D01*
G01*
G37*
G36*
G01*
X162041383Y-116015472D02*
X161861919Y-116194936D01*
G75*
G02*
X161850463Y-116194936I-5728J5728D01*
G01*
X160447705Y-114792178D01*
G75*
G02*
X160447705Y-114780722I5728J5728D01*
G01*
X160627169Y-114601258D01*
G75*
G02*
X160638625Y-114601258I5728J-5728D01*
G01*
X162041383Y-116004016D01*
G75*
G02*
X162041383Y-116015472I-5728J-5728D01*
G01*
G37*
G36*
G01*
X162394936Y-115661919D02*
X162215472Y-115841383D01*
G75*
G02*
X162204016Y-115841383I-5728J5728D01*
G01*
X160801258Y-114438625D01*
G75*
G02*
X160801258Y-114427169I5728J5728D01*
G01*
X160980722Y-114247705D01*
G75*
G02*
X160992178Y-114247705I5728J-5728D01*
G01*
X162394936Y-115650463D01*
G75*
G02*
X162394936Y-115661919I-5728J-5728D01*
G01*
G37*
G36*
G01*
X162748489Y-115308365D02*
X162569025Y-115487829D01*
G75*
G02*
X162557569Y-115487829I-5728J5728D01*
G01*
X161154811Y-114085071D01*
G75*
G02*
X161154811Y-114073615I5728J5728D01*
G01*
X161334275Y-113894151D01*
G75*
G02*
X161345731Y-113894151I5728J-5728D01*
G01*
X162748489Y-115296909D01*
G75*
G02*
X162748489Y-115308365I-5728J-5728D01*
G01*
G37*
G36*
G01*
X163102043Y-114954812D02*
X162922579Y-115134276D01*
G75*
G02*
X162911123Y-115134276I-5728J5728D01*
G01*
X161508365Y-113731518D01*
G75*
G02*
X161508365Y-113720062I5728J5728D01*
G01*
X161687829Y-113540598D01*
G75*
G02*
X161699285Y-113540598I5728J-5728D01*
G01*
X163102043Y-114943356D01*
G75*
G02*
X163102043Y-114954812I-5728J-5728D01*
G01*
G37*
G36*
G01*
X163455596Y-114601259D02*
X163276133Y-114780723D01*
G75*
G02*
X163264677Y-114780723I-5728J5728D01*
G01*
X161932629Y-113448675D01*
G75*
G02*
X161932629Y-113437219I5728J5728D01*
G01*
X162112093Y-113257755D01*
G75*
G02*
X162123549Y-113257755I5728J-5728D01*
G01*
X163455597Y-114589803D01*
G75*
G02*
X163455597Y-114601259I-5728J-5728D01*
G01*
G37*
G36*
G01*
X162112093Y-112942244D02*
X161932629Y-112762781D01*
G75*
G02*
X161932629Y-112751325I5728J5728D01*
G01*
X163264677Y-111419277D01*
G75*
G02*
X163276133Y-111419277I5728J-5728D01*
G01*
X163455597Y-111598741D01*
G75*
G02*
X163455597Y-111610197I-5728J-5728D01*
G01*
X162123549Y-112942245D01*
G75*
G02*
X162112093Y-112942245I-5728J5728D01*
G01*
G37*
G36*
G01*
X161687829Y-112659402D02*
X161508365Y-112479938D01*
G75*
G02*
X161508365Y-112468482I5728J5728D01*
G01*
X162911123Y-111065724D01*
G75*
G02*
X162922579Y-111065724I5728J-5728D01*
G01*
X163102043Y-111245188D01*
G75*
G02*
X163102043Y-111256644I-5728J-5728D01*
G01*
X161699285Y-112659402D01*
G75*
G02*
X161687829Y-112659402I-5728J5728D01*
G01*
G37*
G36*
G01*
X161334275Y-112305849D02*
X161154811Y-112126385D01*
G75*
G02*
X161154811Y-112114929I5728J5728D01*
G01*
X162557569Y-110712171D01*
G75*
G02*
X162569025Y-110712171I5728J-5728D01*
G01*
X162748489Y-110891635D01*
G75*
G02*
X162748489Y-110903091I-5728J-5728D01*
G01*
X161345731Y-112305849D01*
G75*
G02*
X161334275Y-112305849I-5728J5728D01*
G01*
G37*
G36*
G01*
X160980722Y-111952295D02*
X160801258Y-111772831D01*
G75*
G02*
X160801258Y-111761375I5728J5728D01*
G01*
X162204016Y-110358617D01*
G75*
G02*
X162215472Y-110358617I5728J-5728D01*
G01*
X162394936Y-110538081D01*
G75*
G02*
X162394936Y-110549537I-5728J-5728D01*
G01*
X160992178Y-111952295D01*
G75*
G02*
X160980722Y-111952295I-5728J5728D01*
G01*
G37*
G36*
G01*
X160627169Y-111598742D02*
X160447705Y-111419278D01*
G75*
G02*
X160447705Y-111407822I5728J5728D01*
G01*
X161850463Y-110005064D01*
G75*
G02*
X161861919Y-110005064I5728J-5728D01*
G01*
X162041383Y-110184528D01*
G75*
G02*
X162041383Y-110195984I-5728J-5728D01*
G01*
X160638625Y-111598742D01*
G75*
G02*
X160627169Y-111598742I-5728J5728D01*
G01*
G37*
G36*
G01*
X160273615Y-111245189D02*
X160094151Y-111065725D01*
G75*
G02*
X160094151Y-111054269I5728J5728D01*
G01*
X161496909Y-109651511D01*
G75*
G02*
X161508365Y-109651511I5728J-5728D01*
G01*
X161687829Y-109830975D01*
G75*
G02*
X161687829Y-109842431I-5728J-5728D01*
G01*
X160285071Y-111245189D01*
G75*
G02*
X160273615Y-111245189I-5728J5728D01*
G01*
G37*
G36*
G01*
X159920062Y-110891635D02*
X159740598Y-110712171D01*
G75*
G02*
X159740598Y-110700715I5728J5728D01*
G01*
X161143356Y-109297957D01*
G75*
G02*
X161154812Y-109297957I5728J-5728D01*
G01*
X161334276Y-109477421D01*
G75*
G02*
X161334276Y-109488877I-5728J-5728D01*
G01*
X159931518Y-110891635D01*
G75*
G02*
X159920062Y-110891635I-5728J5728D01*
G01*
G37*
G36*
G01*
X159637219Y-110467370D02*
X159457755Y-110287907D01*
G75*
G02*
X159457755Y-110276451I5728J5728D01*
G01*
X160789803Y-108944403D01*
G75*
G02*
X160801259Y-108944403I5728J-5728D01*
G01*
X160980723Y-109123867D01*
G75*
G02*
X160980723Y-109135323I-5728J-5728D01*
G01*
X159648675Y-110467371D01*
G75*
G02*
X159637219Y-110467371I-5728J5728D01*
G01*
G37*
G36*
G01*
X155323867Y-114780722D02*
X155144403Y-114601259D01*
G75*
G02*
X155144403Y-114589803I5728J5728D01*
G01*
X156476451Y-113257755D01*
G75*
G02*
X156487907Y-113257755I5728J-5728D01*
G01*
X156667371Y-113437219D01*
G75*
G02*
X156667371Y-113448675I-5728J-5728D01*
G01*
X155335323Y-114780723D01*
G75*
G02*
X155323867Y-114780723I-5728J5728D01*
G01*
G37*
G36*
G01*
X155677421Y-115134276D02*
X155497957Y-114954812D01*
G75*
G02*
X155497957Y-114943356I5728J5728D01*
G01*
X156900715Y-113540598D01*
G75*
G02*
X156912171Y-113540598I5728J-5728D01*
G01*
X157091635Y-113720062D01*
G75*
G02*
X157091635Y-113731518I-5728J-5728D01*
G01*
X155688877Y-115134276D01*
G75*
G02*
X155677421Y-115134276I-5728J5728D01*
G01*
G37*
G36*
G01*
X156030975Y-115487829D02*
X155851511Y-115308365D01*
G75*
G02*
X155851511Y-115296909I5728J5728D01*
G01*
X157254269Y-113894151D01*
G75*
G02*
X157265725Y-113894151I5728J-5728D01*
G01*
X157445189Y-114073615D01*
G75*
G02*
X157445189Y-114085071I-5728J-5728D01*
G01*
X156042431Y-115487829D01*
G75*
G02*
X156030975Y-115487829I-5728J5728D01*
G01*
G37*
G36*
G01*
X156384528Y-115841383D02*
X156205064Y-115661919D01*
G75*
G02*
X156205064Y-115650463I5728J5728D01*
G01*
X157607822Y-114247705D01*
G75*
G02*
X157619278Y-114247705I5728J-5728D01*
G01*
X157798742Y-114427169D01*
G75*
G02*
X157798742Y-114438625I-5728J-5728D01*
G01*
X156395984Y-115841383D01*
G75*
G02*
X156384528Y-115841383I-5728J5728D01*
G01*
G37*
G36*
G01*
X156738081Y-116194936D02*
X156558617Y-116015472D01*
G75*
G02*
X156558617Y-116004016I5728J5728D01*
G01*
X157961375Y-114601258D01*
G75*
G02*
X157972831Y-114601258I5728J-5728D01*
G01*
X158152295Y-114780722D01*
G75*
G02*
X158152295Y-114792178I-5728J-5728D01*
G01*
X156749537Y-116194936D01*
G75*
G02*
X156738081Y-116194936I-5728J5728D01*
G01*
G37*
G36*
G01*
X157091635Y-116548489D02*
X156912171Y-116369025D01*
G75*
G02*
X156912171Y-116357569I5728J5728D01*
G01*
X158314929Y-114954811D01*
G75*
G02*
X158326385Y-114954811I5728J-5728D01*
G01*
X158505849Y-115134275D01*
G75*
G02*
X158505849Y-115145731I-5728J-5728D01*
G01*
X157103091Y-116548489D01*
G75*
G02*
X157091635Y-116548489I-5728J5728D01*
G01*
G37*
G36*
G01*
X157445188Y-116902043D02*
X157265724Y-116722579D01*
G75*
G02*
X157265724Y-116711123I5728J5728D01*
G01*
X158668482Y-115308365D01*
G75*
G02*
X158679938Y-115308365I5728J-5728D01*
G01*
X158859402Y-115487829D01*
G75*
G02*
X158859402Y-115499285I-5728J-5728D01*
G01*
X157456644Y-116902043D01*
G75*
G02*
X157445188Y-116902043I-5728J5728D01*
G01*
G37*
G36*
G01*
X157798741Y-117255596D02*
X157619277Y-117076133D01*
G75*
G02*
X157619277Y-117064677I5728J5728D01*
G01*
X158951325Y-115732629D01*
G75*
G02*
X158962781Y-115732629I5728J-5728D01*
G01*
X159142245Y-115912093D01*
G75*
G02*
X159142245Y-115923549I-5728J-5728D01*
G01*
X157810197Y-117255597D01*
G75*
G02*
X157798741Y-117255597I-5728J5728D01*
G01*
G37*
%TD*%
%TO.C,C1*%
G36*
G01*
X127675000Y-72075000D02*
X128925000Y-72075000D01*
G75*
G02*
X129175000Y-72325000I0J-250000D01*
G01*
X129175000Y-73250000D01*
G75*
G02*
X128925000Y-73500000I-250000J0D01*
G01*
X127675000Y-73500000D01*
G75*
G02*
X127425000Y-73250000I0J250000D01*
G01*
X127425000Y-72325000D01*
G75*
G02*
X127675000Y-72075000I250000J0D01*
G01*
G37*
G36*
G01*
X127675000Y-69100000D02*
X128925000Y-69100000D01*
G75*
G02*
X129175000Y-69350000I0J-250000D01*
G01*
X129175000Y-70275000D01*
G75*
G02*
X128925000Y-70525000I-250000J0D01*
G01*
X127675000Y-70525000D01*
G75*
G02*
X127425000Y-70275000I0J250000D01*
G01*
X127425000Y-69350000D01*
G75*
G02*
X127675000Y-69100000I250000J0D01*
G01*
G37*
%TD*%
%TO.C,C2*%
G36*
G01*
X167949999Y-66100000D02*
X168850001Y-66100000D01*
G75*
G02*
X169100000Y-66349999I0J-249999D01*
G01*
X169100000Y-67000001D01*
G75*
G02*
X168850001Y-67250000I-249999J0D01*
G01*
X167949999Y-67250000D01*
G75*
G02*
X167700000Y-67000001I0J249999D01*
G01*
X167700000Y-66349999D01*
G75*
G02*
X167949999Y-66100000I249999J0D01*
G01*
G37*
G36*
G01*
X167949999Y-68150000D02*
X168850001Y-68150000D01*
G75*
G02*
X169100000Y-68399999I0J-249999D01*
G01*
X169100000Y-69050001D01*
G75*
G02*
X168850001Y-69300000I-249999J0D01*
G01*
X167949999Y-69300000D01*
G75*
G02*
X167700000Y-69050001I0J249999D01*
G01*
X167700000Y-68399999D01*
G75*
G02*
X167949999Y-68150000I249999J0D01*
G01*
G37*
%TD*%
%TO.C,C4*%
G36*
G01*
X133250000Y-75250001D02*
X133250000Y-74349999D01*
G75*
G02*
X133499999Y-74100000I249999J0D01*
G01*
X134150001Y-74100000D01*
G75*
G02*
X134400000Y-74349999I0J-249999D01*
G01*
X134400000Y-75250001D01*
G75*
G02*
X134150001Y-75500000I-249999J0D01*
G01*
X133499999Y-75500000D01*
G75*
G02*
X133250000Y-75250001I0J249999D01*
G01*
G37*
G36*
G01*
X131200000Y-75250001D02*
X131200000Y-74349999D01*
G75*
G02*
X131449999Y-74100000I249999J0D01*
G01*
X132100001Y-74100000D01*
G75*
G02*
X132350000Y-74349999I0J-249999D01*
G01*
X132350000Y-75250001D01*
G75*
G02*
X132100001Y-75500000I-249999J0D01*
G01*
X131449999Y-75500000D01*
G75*
G02*
X131200000Y-75250001I0J249999D01*
G01*
G37*
%TD*%
%TO.C,C5*%
G36*
G01*
X134775000Y-91425000D02*
X134775000Y-90175000D01*
G75*
G02*
X135025000Y-89925000I250000J0D01*
G01*
X135950000Y-89925000D01*
G75*
G02*
X136200000Y-90175000I0J-250000D01*
G01*
X136200000Y-91425000D01*
G75*
G02*
X135950000Y-91675000I-250000J0D01*
G01*
X135025000Y-91675000D01*
G75*
G02*
X134775000Y-91425000I0J250000D01*
G01*
G37*
G36*
G01*
X131800000Y-91425000D02*
X131800000Y-90175000D01*
G75*
G02*
X132050000Y-89925000I250000J0D01*
G01*
X132975000Y-89925000D01*
G75*
G02*
X133225000Y-90175000I0J-250000D01*
G01*
X133225000Y-91425000D01*
G75*
G02*
X132975000Y-91675000I-250000J0D01*
G01*
X132050000Y-91675000D01*
G75*
G02*
X131800000Y-91425000I0J250000D01*
G01*
G37*
%TD*%
%TO.C,C9*%
G36*
G01*
X128037500Y-124350000D02*
X127562500Y-124350000D01*
G75*
G02*
X127325000Y-124112500I0J237500D01*
G01*
X127325000Y-123537500D01*
G75*
G02*
X127562500Y-123300000I237500J0D01*
G01*
X128037500Y-123300000D01*
G75*
G02*
X128275000Y-123537500I0J-237500D01*
G01*
X128275000Y-124112500D01*
G75*
G02*
X128037500Y-124350000I-237500J0D01*
G01*
G37*
G36*
G01*
X128037500Y-126100000D02*
X127562500Y-126100000D01*
G75*
G02*
X127325000Y-125862500I0J237500D01*
G01*
X127325000Y-125287500D01*
G75*
G02*
X127562500Y-125050000I237500J0D01*
G01*
X128037500Y-125050000D01*
G75*
G02*
X128275000Y-125287500I0J-237500D01*
G01*
X128275000Y-125862500D01*
G75*
G02*
X128037500Y-126100000I-237500J0D01*
G01*
G37*
%TD*%
%TO.C,C10*%
G36*
G01*
X127562500Y-128550000D02*
X128037500Y-128550000D01*
G75*
G02*
X128275000Y-128787500I0J-237500D01*
G01*
X128275000Y-129362500D01*
G75*
G02*
X128037500Y-129600000I-237500J0D01*
G01*
X127562500Y-129600000D01*
G75*
G02*
X127325000Y-129362500I0J237500D01*
G01*
X127325000Y-128787500D01*
G75*
G02*
X127562500Y-128550000I237500J0D01*
G01*
G37*
G36*
G01*
X127562500Y-126800000D02*
X128037500Y-126800000D01*
G75*
G02*
X128275000Y-127037500I0J-237500D01*
G01*
X128275000Y-127612500D01*
G75*
G02*
X128037500Y-127850000I-237500J0D01*
G01*
X127562500Y-127850000D01*
G75*
G02*
X127325000Y-127612500I0J237500D01*
G01*
X127325000Y-127037500D01*
G75*
G02*
X127562500Y-126800000I237500J0D01*
G01*
G37*
%TD*%
%TO.C,D1*%
G36*
G01*
X139550000Y-74525001D02*
X139550000Y-71274999D01*
G75*
G02*
X139799999Y-71025000I249999J0D01*
G01*
X141150001Y-71025000D01*
G75*
G02*
X141400000Y-71274999I0J-249999D01*
G01*
X141400000Y-74525001D01*
G75*
G02*
X141150001Y-74775000I-249999J0D01*
G01*
X139799999Y-74775000D01*
G75*
G02*
X139550000Y-74525001I0J249999D01*
G01*
G37*
G36*
G01*
X135000000Y-74525001D02*
X135000000Y-71274999D01*
G75*
G02*
X135249999Y-71025000I249999J0D01*
G01*
X136600001Y-71025000D01*
G75*
G02*
X136850000Y-71274999I0J-249999D01*
G01*
X136850000Y-74525001D01*
G75*
G02*
X136600001Y-74775000I-249999J0D01*
G01*
X135249999Y-74775000D01*
G75*
G02*
X135000000Y-74525001I0J249999D01*
G01*
G37*
%TD*%
D18*
%TO.C,D3*%
X116400000Y-129300000D03*
X116400000Y-123900000D03*
%TD*%
%TO.C,F1*%
G36*
G01*
X122075000Y-124575626D02*
X122075000Y-122424374D01*
G75*
G02*
X122324374Y-122175000I249374J0D01*
G01*
X123250626Y-122175000D01*
G75*
G02*
X123500000Y-122424374I0J-249374D01*
G01*
X123500000Y-124575626D01*
G75*
G02*
X123250626Y-124825000I-249374J0D01*
G01*
X122324374Y-124825000D01*
G75*
G02*
X122075000Y-124575626I0J249374D01*
G01*
G37*
G36*
G01*
X119100000Y-124575626D02*
X119100000Y-122424374D01*
G75*
G02*
X119349374Y-122175000I249374J0D01*
G01*
X120275626Y-122175000D01*
G75*
G02*
X120525000Y-122424374I0J-249374D01*
G01*
X120525000Y-124575626D01*
G75*
G02*
X120275626Y-124825000I-249374J0D01*
G01*
X119349374Y-124825000D01*
G75*
G02*
X119100000Y-124575626I0J249374D01*
G01*
G37*
%TD*%
D19*
%TO.C,Q6*%
X162300000Y-136750000D03*
X160300000Y-135800000D03*
X160300000Y-137700000D03*
%TD*%
%TO.C,Q8*%
X176150000Y-136750000D03*
X174150000Y-135800000D03*
X174150000Y-137700000D03*
%TD*%
%TO.C,Q7*%
X169175000Y-136750000D03*
X167175000Y-135800000D03*
X167175000Y-137700000D03*
%TD*%
D20*
%TO.C,Q9*%
X132000000Y-106425000D03*
X131050000Y-108425000D03*
X132950000Y-108425000D03*
%TD*%
D19*
%TO.C,Q10*%
X162825000Y-119225000D03*
X160825000Y-118275000D03*
X160825000Y-120175000D03*
%TD*%
%TO.C,R7*%
G36*
G01*
X129637500Y-124350000D02*
X129162500Y-124350000D01*
G75*
G02*
X128925000Y-124112500I0J237500D01*
G01*
X128925000Y-123537500D01*
G75*
G02*
X129162500Y-123300000I237500J0D01*
G01*
X129637500Y-123300000D01*
G75*
G02*
X129875000Y-123537500I0J-237500D01*
G01*
X129875000Y-124112500D01*
G75*
G02*
X129637500Y-124350000I-237500J0D01*
G01*
G37*
G36*
G01*
X129637500Y-126100000D02*
X129162500Y-126100000D01*
G75*
G02*
X128925000Y-125862500I0J237500D01*
G01*
X128925000Y-125287500D01*
G75*
G02*
X129162500Y-125050000I237500J0D01*
G01*
X129637500Y-125050000D01*
G75*
G02*
X129875000Y-125287500I0J-237500D01*
G01*
X129875000Y-125862500D01*
G75*
G02*
X129637500Y-126100000I-237500J0D01*
G01*
G37*
%TD*%
%TO.C,R8*%
G36*
G01*
X129637500Y-127850000D02*
X129162500Y-127850000D01*
G75*
G02*
X128925000Y-127612500I0J237500D01*
G01*
X128925000Y-127037500D01*
G75*
G02*
X129162500Y-126800000I237500J0D01*
G01*
X129637500Y-126800000D01*
G75*
G02*
X129875000Y-127037500I0J-237500D01*
G01*
X129875000Y-127612500D01*
G75*
G02*
X129637500Y-127850000I-237500J0D01*
G01*
G37*
G36*
G01*
X129637500Y-129600000D02*
X129162500Y-129600000D01*
G75*
G02*
X128925000Y-129362500I0J237500D01*
G01*
X128925000Y-128787500D01*
G75*
G02*
X129162500Y-128550000I237500J0D01*
G01*
X129637500Y-128550000D01*
G75*
G02*
X129875000Y-128787500I0J-237500D01*
G01*
X129875000Y-129362500D01*
G75*
G02*
X129637500Y-129600000I-237500J0D01*
G01*
G37*
%TD*%
%TO.C,R10*%
G36*
G01*
X119562500Y-127650000D02*
X120037500Y-127650000D01*
G75*
G02*
X120275000Y-127887500I0J-237500D01*
G01*
X120275000Y-128462500D01*
G75*
G02*
X120037500Y-128700000I-237500J0D01*
G01*
X119562500Y-128700000D01*
G75*
G02*
X119325000Y-128462500I0J237500D01*
G01*
X119325000Y-127887500D01*
G75*
G02*
X119562500Y-127650000I237500J0D01*
G01*
G37*
G36*
G01*
X119562500Y-125900000D02*
X120037500Y-125900000D01*
G75*
G02*
X120275000Y-126137500I0J-237500D01*
G01*
X120275000Y-126712500D01*
G75*
G02*
X120037500Y-126950000I-237500J0D01*
G01*
X119562500Y-126950000D01*
G75*
G02*
X119325000Y-126712500I0J237500D01*
G01*
X119325000Y-126137500D01*
G75*
G02*
X119562500Y-125900000I237500J0D01*
G01*
G37*
%TD*%
%TO.C,R16*%
G36*
G01*
X132625000Y-117937500D02*
X132625000Y-117462500D01*
G75*
G02*
X132862500Y-117225000I237500J0D01*
G01*
X133437500Y-117225000D01*
G75*
G02*
X133675000Y-117462500I0J-237500D01*
G01*
X133675000Y-117937500D01*
G75*
G02*
X133437500Y-118175000I-237500J0D01*
G01*
X132862500Y-118175000D01*
G75*
G02*
X132625000Y-117937500I0J237500D01*
G01*
G37*
G36*
G01*
X130875000Y-117937500D02*
X130875000Y-117462500D01*
G75*
G02*
X131112500Y-117225000I237500J0D01*
G01*
X131687500Y-117225000D01*
G75*
G02*
X131925000Y-117462500I0J-237500D01*
G01*
X131925000Y-117937500D01*
G75*
G02*
X131687500Y-118175000I-237500J0D01*
G01*
X131112500Y-118175000D01*
G75*
G02*
X130875000Y-117937500I0J237500D01*
G01*
G37*
%TD*%
%TO.C,R18*%
G36*
G01*
X131637500Y-120100000D02*
X131162500Y-120100000D01*
G75*
G02*
X130925000Y-119862500I0J237500D01*
G01*
X130925000Y-119287500D01*
G75*
G02*
X131162500Y-119050000I237500J0D01*
G01*
X131637500Y-119050000D01*
G75*
G02*
X131875000Y-119287500I0J-237500D01*
G01*
X131875000Y-119862500D01*
G75*
G02*
X131637500Y-120100000I-237500J0D01*
G01*
G37*
G36*
G01*
X131637500Y-121850000D02*
X131162500Y-121850000D01*
G75*
G02*
X130925000Y-121612500I0J237500D01*
G01*
X130925000Y-121037500D01*
G75*
G02*
X131162500Y-120800000I237500J0D01*
G01*
X131637500Y-120800000D01*
G75*
G02*
X131875000Y-121037500I0J-237500D01*
G01*
X131875000Y-121612500D01*
G75*
G02*
X131637500Y-121850000I-237500J0D01*
G01*
G37*
%TD*%
%TO.C,R19*%
G36*
G01*
X132937500Y-120800000D02*
X133412500Y-120800000D01*
G75*
G02*
X133650000Y-121037500I0J-237500D01*
G01*
X133650000Y-121612500D01*
G75*
G02*
X133412500Y-121850000I-237500J0D01*
G01*
X132937500Y-121850000D01*
G75*
G02*
X132700000Y-121612500I0J237500D01*
G01*
X132700000Y-121037500D01*
G75*
G02*
X132937500Y-120800000I237500J0D01*
G01*
G37*
G36*
G01*
X132937500Y-119050000D02*
X133412500Y-119050000D01*
G75*
G02*
X133650000Y-119287500I0J-237500D01*
G01*
X133650000Y-119862500D01*
G75*
G02*
X133412500Y-120100000I-237500J0D01*
G01*
X132937500Y-120100000D01*
G75*
G02*
X132700000Y-119862500I0J237500D01*
G01*
X132700000Y-119287500D01*
G75*
G02*
X132937500Y-119050000I237500J0D01*
G01*
G37*
%TD*%
%TO.C,R20*%
G36*
G01*
X164500000Y-139337500D02*
X164500000Y-139812500D01*
G75*
G02*
X164262500Y-140050000I-237500J0D01*
G01*
X163687500Y-140050000D01*
G75*
G02*
X163450000Y-139812500I0J237500D01*
G01*
X163450000Y-139337500D01*
G75*
G02*
X163687500Y-139100000I237500J0D01*
G01*
X164262500Y-139100000D01*
G75*
G02*
X164500000Y-139337500I0J-237500D01*
G01*
G37*
G36*
G01*
X166250000Y-139337500D02*
X166250000Y-139812500D01*
G75*
G02*
X166012500Y-140050000I-237500J0D01*
G01*
X165437500Y-140050000D01*
G75*
G02*
X165200000Y-139812500I0J237500D01*
G01*
X165200000Y-139337500D01*
G75*
G02*
X165437500Y-139100000I237500J0D01*
G01*
X166012500Y-139100000D01*
G75*
G02*
X166250000Y-139337500I0J-237500D01*
G01*
G37*
%TD*%
%TO.C,R21*%
G36*
G01*
X164287500Y-136525000D02*
X163812500Y-136525000D01*
G75*
G02*
X163575000Y-136287500I0J237500D01*
G01*
X163575000Y-135712500D01*
G75*
G02*
X163812500Y-135475000I237500J0D01*
G01*
X164287500Y-135475000D01*
G75*
G02*
X164525000Y-135712500I0J-237500D01*
G01*
X164525000Y-136287500D01*
G75*
G02*
X164287500Y-136525000I-237500J0D01*
G01*
G37*
G36*
G01*
X164287500Y-138275000D02*
X163812500Y-138275000D01*
G75*
G02*
X163575000Y-138037500I0J237500D01*
G01*
X163575000Y-137462500D01*
G75*
G02*
X163812500Y-137225000I237500J0D01*
G01*
X164287500Y-137225000D01*
G75*
G02*
X164525000Y-137462500I0J-237500D01*
G01*
X164525000Y-138037500D01*
G75*
G02*
X164287500Y-138275000I-237500J0D01*
G01*
G37*
%TD*%
%TO.C,R25*%
G36*
G01*
X178162500Y-136525000D02*
X177687500Y-136525000D01*
G75*
G02*
X177450000Y-136287500I0J237500D01*
G01*
X177450000Y-135712500D01*
G75*
G02*
X177687500Y-135475000I237500J0D01*
G01*
X178162500Y-135475000D01*
G75*
G02*
X178400000Y-135712500I0J-237500D01*
G01*
X178400000Y-136287500D01*
G75*
G02*
X178162500Y-136525000I-237500J0D01*
G01*
G37*
G36*
G01*
X178162500Y-138275000D02*
X177687500Y-138275000D01*
G75*
G02*
X177450000Y-138037500I0J237500D01*
G01*
X177450000Y-137462500D01*
G75*
G02*
X177687500Y-137225000I237500J0D01*
G01*
X178162500Y-137225000D01*
G75*
G02*
X178400000Y-137462500I0J-237500D01*
G01*
X178400000Y-138037500D01*
G75*
G02*
X178162500Y-138275000I-237500J0D01*
G01*
G37*
%TD*%
%TO.C,R23*%
G36*
G01*
X171212500Y-136525000D02*
X170737500Y-136525000D01*
G75*
G02*
X170500000Y-136287500I0J237500D01*
G01*
X170500000Y-135712500D01*
G75*
G02*
X170737500Y-135475000I237500J0D01*
G01*
X171212500Y-135475000D01*
G75*
G02*
X171450000Y-135712500I0J-237500D01*
G01*
X171450000Y-136287500D01*
G75*
G02*
X171212500Y-136525000I-237500J0D01*
G01*
G37*
G36*
G01*
X171212500Y-138275000D02*
X170737500Y-138275000D01*
G75*
G02*
X170500000Y-138037500I0J237500D01*
G01*
X170500000Y-137462500D01*
G75*
G02*
X170737500Y-137225000I237500J0D01*
G01*
X171212500Y-137225000D01*
G75*
G02*
X171450000Y-137462500I0J-237500D01*
G01*
X171450000Y-138037500D01*
G75*
G02*
X171212500Y-138275000I-237500J0D01*
G01*
G37*
%TD*%
%TO.C,R27*%
G36*
G01*
X132950000Y-127537500D02*
X132950000Y-127062500D01*
G75*
G02*
X133187500Y-126825000I237500J0D01*
G01*
X133762500Y-126825000D01*
G75*
G02*
X134000000Y-127062500I0J-237500D01*
G01*
X134000000Y-127537500D01*
G75*
G02*
X133762500Y-127775000I-237500J0D01*
G01*
X133187500Y-127775000D01*
G75*
G02*
X132950000Y-127537500I0J237500D01*
G01*
G37*
G36*
G01*
X131200000Y-127537500D02*
X131200000Y-127062500D01*
G75*
G02*
X131437500Y-126825000I237500J0D01*
G01*
X132012500Y-126825000D01*
G75*
G02*
X132250000Y-127062500I0J-237500D01*
G01*
X132250000Y-127537500D01*
G75*
G02*
X132012500Y-127775000I-237500J0D01*
G01*
X131437500Y-127775000D01*
G75*
G02*
X131200000Y-127537500I0J237500D01*
G01*
G37*
%TD*%
%TO.C,R28*%
G36*
G01*
X132950000Y-130612500D02*
X132950000Y-130137500D01*
G75*
G02*
X133187500Y-129900000I237500J0D01*
G01*
X133762500Y-129900000D01*
G75*
G02*
X134000000Y-130137500I0J-237500D01*
G01*
X134000000Y-130612500D01*
G75*
G02*
X133762500Y-130850000I-237500J0D01*
G01*
X133187500Y-130850000D01*
G75*
G02*
X132950000Y-130612500I0J237500D01*
G01*
G37*
G36*
G01*
X131200000Y-130612500D02*
X131200000Y-130137500D01*
G75*
G02*
X131437500Y-129900000I237500J0D01*
G01*
X132012500Y-129900000D01*
G75*
G02*
X132250000Y-130137500I0J-237500D01*
G01*
X132250000Y-130612500D01*
G75*
G02*
X132012500Y-130850000I-237500J0D01*
G01*
X131437500Y-130850000D01*
G75*
G02*
X131200000Y-130612500I0J237500D01*
G01*
G37*
%TD*%
%TO.C,R29*%
G36*
G01*
X132950000Y-129075000D02*
X132950000Y-128600000D01*
G75*
G02*
X133187500Y-128362500I237500J0D01*
G01*
X133762500Y-128362500D01*
G75*
G02*
X134000000Y-128600000I0J-237500D01*
G01*
X134000000Y-129075000D01*
G75*
G02*
X133762500Y-129312500I-237500J0D01*
G01*
X133187500Y-129312500D01*
G75*
G02*
X132950000Y-129075000I0J237500D01*
G01*
G37*
G36*
G01*
X131200000Y-129075000D02*
X131200000Y-128600000D01*
G75*
G02*
X131437500Y-128362500I237500J0D01*
G01*
X132012500Y-128362500D01*
G75*
G02*
X132250000Y-128600000I0J-237500D01*
G01*
X132250000Y-129075000D01*
G75*
G02*
X132012500Y-129312500I-237500J0D01*
G01*
X131437500Y-129312500D01*
G75*
G02*
X131200000Y-129075000I0J237500D01*
G01*
G37*
%TD*%
%TO.C,R30*%
G36*
G01*
X171400000Y-139387500D02*
X171400000Y-139862500D01*
G75*
G02*
X171162500Y-140100000I-237500J0D01*
G01*
X170587500Y-140100000D01*
G75*
G02*
X170350000Y-139862500I0J237500D01*
G01*
X170350000Y-139387500D01*
G75*
G02*
X170587500Y-139150000I237500J0D01*
G01*
X171162500Y-139150000D01*
G75*
G02*
X171400000Y-139387500I0J-237500D01*
G01*
G37*
G36*
G01*
X173150000Y-139387500D02*
X173150000Y-139862500D01*
G75*
G02*
X172912500Y-140100000I-237500J0D01*
G01*
X172337500Y-140100000D01*
G75*
G02*
X172100000Y-139862500I0J237500D01*
G01*
X172100000Y-139387500D01*
G75*
G02*
X172337500Y-139150000I237500J0D01*
G01*
X172912500Y-139150000D01*
G75*
G02*
X173150000Y-139387500I0J-237500D01*
G01*
G37*
%TD*%
%TO.C,R31*%
G36*
G01*
X134512500Y-107775000D02*
X134987500Y-107775000D01*
G75*
G02*
X135225000Y-108012500I0J-237500D01*
G01*
X135225000Y-108587500D01*
G75*
G02*
X134987500Y-108825000I-237500J0D01*
G01*
X134512500Y-108825000D01*
G75*
G02*
X134275000Y-108587500I0J237500D01*
G01*
X134275000Y-108012500D01*
G75*
G02*
X134512500Y-107775000I237500J0D01*
G01*
G37*
G36*
G01*
X134512500Y-106025000D02*
X134987500Y-106025000D01*
G75*
G02*
X135225000Y-106262500I0J-237500D01*
G01*
X135225000Y-106837500D01*
G75*
G02*
X134987500Y-107075000I-237500J0D01*
G01*
X134512500Y-107075000D01*
G75*
G02*
X134275000Y-106837500I0J237500D01*
G01*
X134275000Y-106262500D01*
G75*
G02*
X134512500Y-106025000I237500J0D01*
G01*
G37*
%TD*%
%TO.C,R32*%
G36*
G01*
X131675000Y-104562500D02*
X131675000Y-105037500D01*
G75*
G02*
X131437500Y-105275000I-237500J0D01*
G01*
X130862500Y-105275000D01*
G75*
G02*
X130625000Y-105037500I0J237500D01*
G01*
X130625000Y-104562500D01*
G75*
G02*
X130862500Y-104325000I237500J0D01*
G01*
X131437500Y-104325000D01*
G75*
G02*
X131675000Y-104562500I0J-237500D01*
G01*
G37*
G36*
G01*
X133425000Y-104562500D02*
X133425000Y-105037500D01*
G75*
G02*
X133187500Y-105275000I-237500J0D01*
G01*
X132612500Y-105275000D01*
G75*
G02*
X132375000Y-105037500I0J237500D01*
G01*
X132375000Y-104562500D01*
G75*
G02*
X132612500Y-104325000I237500J0D01*
G01*
X133187500Y-104325000D01*
G75*
G02*
X133425000Y-104562500I0J-237500D01*
G01*
G37*
%TD*%
%TO.C,R33*%
G36*
G01*
X175700000Y-139862500D02*
X175700000Y-139387500D01*
G75*
G02*
X175937500Y-139150000I237500J0D01*
G01*
X176512500Y-139150000D01*
G75*
G02*
X176750000Y-139387500I0J-237500D01*
G01*
X176750000Y-139862500D01*
G75*
G02*
X176512500Y-140100000I-237500J0D01*
G01*
X175937500Y-140100000D01*
G75*
G02*
X175700000Y-139862500I0J237500D01*
G01*
G37*
G36*
G01*
X173950000Y-139862500D02*
X173950000Y-139387500D01*
G75*
G02*
X174187500Y-139150000I237500J0D01*
G01*
X174762500Y-139150000D01*
G75*
G02*
X175000000Y-139387500I0J-237500D01*
G01*
X175000000Y-139862500D01*
G75*
G02*
X174762500Y-140100000I-237500J0D01*
G01*
X174187500Y-140100000D01*
G75*
G02*
X173950000Y-139862500I0J237500D01*
G01*
G37*
%TD*%
%TO.C,R34*%
G36*
G01*
X161475000Y-121637500D02*
X161475000Y-122112500D01*
G75*
G02*
X161237500Y-122350000I-237500J0D01*
G01*
X160662500Y-122350000D01*
G75*
G02*
X160425000Y-122112500I0J237500D01*
G01*
X160425000Y-121637500D01*
G75*
G02*
X160662500Y-121400000I237500J0D01*
G01*
X161237500Y-121400000D01*
G75*
G02*
X161475000Y-121637500I0J-237500D01*
G01*
G37*
G36*
G01*
X163225000Y-121637500D02*
X163225000Y-122112500D01*
G75*
G02*
X162987500Y-122350000I-237500J0D01*
G01*
X162412500Y-122350000D01*
G75*
G02*
X162175000Y-122112500I0J237500D01*
G01*
X162175000Y-121637500D01*
G75*
G02*
X162412500Y-121400000I237500J0D01*
G01*
X162987500Y-121400000D01*
G75*
G02*
X163225000Y-121637500I0J-237500D01*
G01*
G37*
%TD*%
%TO.C,R35*%
G36*
G01*
X164687500Y-120600000D02*
X164212500Y-120600000D01*
G75*
G02*
X163975000Y-120362500I0J237500D01*
G01*
X163975000Y-119787500D01*
G75*
G02*
X164212500Y-119550000I237500J0D01*
G01*
X164687500Y-119550000D01*
G75*
G02*
X164925000Y-119787500I0J-237500D01*
G01*
X164925000Y-120362500D01*
G75*
G02*
X164687500Y-120600000I-237500J0D01*
G01*
G37*
G36*
G01*
X164687500Y-122350000D02*
X164212500Y-122350000D01*
G75*
G02*
X163975000Y-122112500I0J237500D01*
G01*
X163975000Y-121537500D01*
G75*
G02*
X164212500Y-121300000I237500J0D01*
G01*
X164687500Y-121300000D01*
G75*
G02*
X164925000Y-121537500I0J-237500D01*
G01*
X164925000Y-122112500D01*
G75*
G02*
X164687500Y-122350000I-237500J0D01*
G01*
G37*
%TD*%
D21*
%TO.C,U4*%
X125610000Y-128250000D03*
X125610000Y-127300000D03*
X125610000Y-126350000D03*
X122190000Y-126350000D03*
X122190000Y-127300000D03*
X122190000Y-128250000D03*
%TD*%
%TO.C,C11*%
G36*
G01*
X146750000Y-107337500D02*
X146750000Y-106862500D01*
G75*
G02*
X146987500Y-106625000I237500J0D01*
G01*
X147562500Y-106625000D01*
G75*
G02*
X147800000Y-106862500I0J-237500D01*
G01*
X147800000Y-107337500D01*
G75*
G02*
X147562500Y-107575000I-237500J0D01*
G01*
X146987500Y-107575000D01*
G75*
G02*
X146750000Y-107337500I0J237500D01*
G01*
G37*
G36*
G01*
X145000000Y-107337500D02*
X145000000Y-106862500D01*
G75*
G02*
X145237500Y-106625000I237500J0D01*
G01*
X145812500Y-106625000D01*
G75*
G02*
X146050000Y-106862500I0J-237500D01*
G01*
X146050000Y-107337500D01*
G75*
G02*
X145812500Y-107575000I-237500J0D01*
G01*
X145237500Y-107575000D01*
G75*
G02*
X145000000Y-107337500I0J237500D01*
G01*
G37*
%TD*%
%TO.C,C12*%
G36*
G01*
X146750000Y-108937500D02*
X146750000Y-108462500D01*
G75*
G02*
X146987500Y-108225000I237500J0D01*
G01*
X147562500Y-108225000D01*
G75*
G02*
X147800000Y-108462500I0J-237500D01*
G01*
X147800000Y-108937500D01*
G75*
G02*
X147562500Y-109175000I-237500J0D01*
G01*
X146987500Y-109175000D01*
G75*
G02*
X146750000Y-108937500I0J237500D01*
G01*
G37*
G36*
G01*
X145000000Y-108937500D02*
X145000000Y-108462500D01*
G75*
G02*
X145237500Y-108225000I237500J0D01*
G01*
X145812500Y-108225000D01*
G75*
G02*
X146050000Y-108462500I0J-237500D01*
G01*
X146050000Y-108937500D01*
G75*
G02*
X145812500Y-109175000I-237500J0D01*
G01*
X145237500Y-109175000D01*
G75*
G02*
X145000000Y-108937500I0J237500D01*
G01*
G37*
%TD*%
%TO.C,C13*%
G36*
G01*
X143225000Y-108937500D02*
X143225000Y-108462500D01*
G75*
G02*
X143462500Y-108225000I237500J0D01*
G01*
X144037500Y-108225000D01*
G75*
G02*
X144275000Y-108462500I0J-237500D01*
G01*
X144275000Y-108937500D01*
G75*
G02*
X144037500Y-109175000I-237500J0D01*
G01*
X143462500Y-109175000D01*
G75*
G02*
X143225000Y-108937500I0J237500D01*
G01*
G37*
G36*
G01*
X141475000Y-108937500D02*
X141475000Y-108462500D01*
G75*
G02*
X141712500Y-108225000I237500J0D01*
G01*
X142287500Y-108225000D01*
G75*
G02*
X142525000Y-108462500I0J-237500D01*
G01*
X142525000Y-108937500D01*
G75*
G02*
X142287500Y-109175000I-237500J0D01*
G01*
X141712500Y-109175000D01*
G75*
G02*
X141475000Y-108937500I0J237500D01*
G01*
G37*
%TD*%
%TO.C,C14*%
G36*
G01*
X143225000Y-107337500D02*
X143225000Y-106862500D01*
G75*
G02*
X143462500Y-106625000I237500J0D01*
G01*
X144037500Y-106625000D01*
G75*
G02*
X144275000Y-106862500I0J-237500D01*
G01*
X144275000Y-107337500D01*
G75*
G02*
X144037500Y-107575000I-237500J0D01*
G01*
X143462500Y-107575000D01*
G75*
G02*
X143225000Y-107337500I0J237500D01*
G01*
G37*
G36*
G01*
X141475000Y-107337500D02*
X141475000Y-106862500D01*
G75*
G02*
X141712500Y-106625000I237500J0D01*
G01*
X142287500Y-106625000D01*
G75*
G02*
X142525000Y-106862500I0J-237500D01*
G01*
X142525000Y-107337500D01*
G75*
G02*
X142287500Y-107575000I-237500J0D01*
G01*
X141712500Y-107575000D01*
G75*
G02*
X141475000Y-107337500I0J237500D01*
G01*
G37*
%TD*%
%TO.C,R13*%
G36*
G01*
X146637500Y-113750000D02*
X146162500Y-113750000D01*
G75*
G02*
X145925000Y-113512500I0J237500D01*
G01*
X145925000Y-112937500D01*
G75*
G02*
X146162500Y-112700000I237500J0D01*
G01*
X146637500Y-112700000D01*
G75*
G02*
X146875000Y-112937500I0J-237500D01*
G01*
X146875000Y-113512500D01*
G75*
G02*
X146637500Y-113750000I-237500J0D01*
G01*
G37*
G36*
G01*
X146637500Y-115500000D02*
X146162500Y-115500000D01*
G75*
G02*
X145925000Y-115262500I0J237500D01*
G01*
X145925000Y-114687500D01*
G75*
G02*
X146162500Y-114450000I237500J0D01*
G01*
X146637500Y-114450000D01*
G75*
G02*
X146875000Y-114687500I0J-237500D01*
G01*
X146875000Y-115262500D01*
G75*
G02*
X146637500Y-115500000I-237500J0D01*
G01*
G37*
%TD*%
%TO.C,R14*%
G36*
G01*
X146162500Y-117850000D02*
X146637500Y-117850000D01*
G75*
G02*
X146875000Y-118087500I0J-237500D01*
G01*
X146875000Y-118662500D01*
G75*
G02*
X146637500Y-118900000I-237500J0D01*
G01*
X146162500Y-118900000D01*
G75*
G02*
X145925000Y-118662500I0J237500D01*
G01*
X145925000Y-118087500D01*
G75*
G02*
X146162500Y-117850000I237500J0D01*
G01*
G37*
G36*
G01*
X146162500Y-116100000D02*
X146637500Y-116100000D01*
G75*
G02*
X146875000Y-116337500I0J-237500D01*
G01*
X146875000Y-116912500D01*
G75*
G02*
X146637500Y-117150000I-237500J0D01*
G01*
X146162500Y-117150000D01*
G75*
G02*
X145925000Y-116912500I0J237500D01*
G01*
X145925000Y-116337500D01*
G75*
G02*
X146162500Y-116100000I237500J0D01*
G01*
G37*
%TD*%
D22*
%TO.C,Y1*%
X160750000Y-107250000D03*
X157850000Y-107250000D03*
X157850000Y-104950000D03*
X160750000Y-104950000D03*
%TD*%
D23*
%TO.C,J4*%
X126700000Y-91250000D03*
X126700000Y-96330000D03*
X126700000Y-98870000D03*
X126700000Y-93790000D03*
X121650000Y-91250000D03*
X126700000Y-101410000D03*
X126700000Y-88710000D03*
X126700000Y-106490000D03*
X121650000Y-111570000D03*
X126700000Y-111570000D03*
X121650000Y-106490000D03*
X121650000Y-109030000D03*
X121650000Y-116650000D03*
X126700000Y-116650000D03*
X121650000Y-119190000D03*
X126700000Y-119190000D03*
X126700000Y-109030000D03*
X121650000Y-96330000D03*
X121650000Y-103950000D03*
X121650000Y-88710000D03*
X121650000Y-101410000D03*
X121650000Y-93790000D03*
X121650000Y-114110000D03*
X126700000Y-114110000D03*
X126700000Y-103950000D03*
X121650000Y-98870000D03*
%TD*%
%TO.C,J6*%
X172350000Y-91260000D03*
X172350000Y-96340000D03*
X172350000Y-98880000D03*
X172350000Y-93800000D03*
X167300000Y-91260000D03*
X172350000Y-101420000D03*
X172350000Y-88720000D03*
X172350000Y-106500000D03*
X167300000Y-111580000D03*
X172350000Y-111580000D03*
X167300000Y-106500000D03*
X167300000Y-109040000D03*
X167300000Y-116660000D03*
X172350000Y-116660000D03*
X167300000Y-119200000D03*
X172350000Y-119200000D03*
X172350000Y-109040000D03*
X167300000Y-96340000D03*
X167300000Y-103960000D03*
X167300000Y-88720000D03*
X167300000Y-101420000D03*
X167300000Y-93800000D03*
X167300000Y-114120000D03*
X172350000Y-114120000D03*
X172350000Y-103960000D03*
X167300000Y-98880000D03*
%TD*%
%TO.C,C7*%
G36*
G01*
X163337500Y-107500000D02*
X162862500Y-107500000D01*
G75*
G02*
X162625000Y-107262500I0J237500D01*
G01*
X162625000Y-106687500D01*
G75*
G02*
X162862500Y-106450000I237500J0D01*
G01*
X163337500Y-106450000D01*
G75*
G02*
X163575000Y-106687500I0J-237500D01*
G01*
X163575000Y-107262500D01*
G75*
G02*
X163337500Y-107500000I-237500J0D01*
G01*
G37*
G36*
G01*
X163337500Y-105750000D02*
X162862500Y-105750000D01*
G75*
G02*
X162625000Y-105512500I0J237500D01*
G01*
X162625000Y-104937500D01*
G75*
G02*
X162862500Y-104700000I237500J0D01*
G01*
X163337500Y-104700000D01*
G75*
G02*
X163575000Y-104937500I0J-237500D01*
G01*
X163575000Y-105512500D01*
G75*
G02*
X163337500Y-105750000I-237500J0D01*
G01*
G37*
%TD*%
%TO.C,R9*%
G36*
G01*
X160610000Y-134115000D02*
X160610000Y-132865000D01*
G75*
G02*
X160860000Y-132615000I250000J0D01*
G01*
X161785000Y-132615000D01*
G75*
G02*
X162035000Y-132865000I0J-250000D01*
G01*
X162035000Y-134115000D01*
G75*
G02*
X161785000Y-134365000I-250000J0D01*
G01*
X160860000Y-134365000D01*
G75*
G02*
X160610000Y-134115000I0J250000D01*
G01*
G37*
G36*
G01*
X157635000Y-134115000D02*
X157635000Y-132865000D01*
G75*
G02*
X157885000Y-132615000I250000J0D01*
G01*
X158810000Y-132615000D01*
G75*
G02*
X159060000Y-132865000I0J-250000D01*
G01*
X159060000Y-134115000D01*
G75*
G02*
X158810000Y-134365000I-250000J0D01*
G01*
X157885000Y-134365000D01*
G75*
G02*
X157635000Y-134115000I0J250000D01*
G01*
G37*
%TD*%
D24*
%TO.C,Q3*%
X156065000Y-133490000D03*
X153655000Y-132540000D03*
X153655000Y-134440000D03*
%TD*%
D25*
%TO.C,Q2*%
X165025000Y-133505000D03*
X165975000Y-131095000D03*
X164075000Y-131095000D03*
%TD*%
%TO.C,C15*%
G36*
G01*
X135137500Y-116450000D02*
X134662500Y-116450000D01*
G75*
G02*
X134425000Y-116212500I0J237500D01*
G01*
X134425000Y-115637500D01*
G75*
G02*
X134662500Y-115400000I237500J0D01*
G01*
X135137500Y-115400000D01*
G75*
G02*
X135375000Y-115637500I0J-237500D01*
G01*
X135375000Y-116212500D01*
G75*
G02*
X135137500Y-116450000I-237500J0D01*
G01*
G37*
G36*
G01*
X135137500Y-118200000D02*
X134662500Y-118200000D01*
G75*
G02*
X134425000Y-117962500I0J237500D01*
G01*
X134425000Y-117387500D01*
G75*
G02*
X134662500Y-117150000I237500J0D01*
G01*
X135137500Y-117150000D01*
G75*
G02*
X135375000Y-117387500I0J-237500D01*
G01*
X135375000Y-117962500D01*
G75*
G02*
X135137500Y-118200000I-237500J0D01*
G01*
G37*
%TD*%
%TO.C,R11*%
G36*
G01*
X155187500Y-130050000D02*
X154712500Y-130050000D01*
G75*
G02*
X154475000Y-129812500I0J237500D01*
G01*
X154475000Y-129237500D01*
G75*
G02*
X154712500Y-129000000I237500J0D01*
G01*
X155187500Y-129000000D01*
G75*
G02*
X155425000Y-129237500I0J-237500D01*
G01*
X155425000Y-129812500D01*
G75*
G02*
X155187500Y-130050000I-237500J0D01*
G01*
G37*
G36*
G01*
X155187500Y-128300000D02*
X154712500Y-128300000D01*
G75*
G02*
X154475000Y-128062500I0J237500D01*
G01*
X154475000Y-127487500D01*
G75*
G02*
X154712500Y-127250000I237500J0D01*
G01*
X155187500Y-127250000D01*
G75*
G02*
X155425000Y-127487500I0J-237500D01*
G01*
X155425000Y-128062500D01*
G75*
G02*
X155187500Y-128300000I-237500J0D01*
G01*
G37*
%TD*%
D19*
%TO.C,Q4*%
X156580000Y-129720000D03*
X156580000Y-127820000D03*
X158580000Y-128770000D03*
%TD*%
%TO.C,C8*%
G36*
G01*
X155262500Y-104700000D02*
X155737500Y-104700000D01*
G75*
G02*
X155975000Y-104937500I0J-237500D01*
G01*
X155975000Y-105512500D01*
G75*
G02*
X155737500Y-105750000I-237500J0D01*
G01*
X155262500Y-105750000D01*
G75*
G02*
X155025000Y-105512500I0J237500D01*
G01*
X155025000Y-104937500D01*
G75*
G02*
X155262500Y-104700000I237500J0D01*
G01*
G37*
G36*
G01*
X155262500Y-106450000D02*
X155737500Y-106450000D01*
G75*
G02*
X155975000Y-106687500I0J-237500D01*
G01*
X155975000Y-107262500D01*
G75*
G02*
X155737500Y-107500000I-237500J0D01*
G01*
X155262500Y-107500000D01*
G75*
G02*
X155025000Y-107262500I0J237500D01*
G01*
X155025000Y-106687500D01*
G75*
G02*
X155262500Y-106450000I237500J0D01*
G01*
G37*
%TD*%
%TO.C,R6*%
G36*
G01*
X153415425Y-111620451D02*
X153079549Y-111284575D01*
G75*
G02*
X153079549Y-110948699I167938J167938D01*
G01*
X153486135Y-110542113D01*
G75*
G02*
X153822011Y-110542113I167938J-167938D01*
G01*
X154157887Y-110877989D01*
G75*
G02*
X154157887Y-111213865I-167938J-167938D01*
G01*
X153751301Y-111620451D01*
G75*
G02*
X153415425Y-111620451I-167938J167938D01*
G01*
G37*
G36*
G01*
X152177989Y-112857887D02*
X151842113Y-112522011D01*
G75*
G02*
X151842113Y-112186135I167938J167938D01*
G01*
X152248699Y-111779549D01*
G75*
G02*
X152584575Y-111779549I167938J-167938D01*
G01*
X152920451Y-112115425D01*
G75*
G02*
X152920451Y-112451301I-167938J-167938D01*
G01*
X152513865Y-112857887D01*
G75*
G02*
X152177989Y-112857887I-167938J167938D01*
G01*
G37*
%TD*%
%TO.C,R4*%
G36*
G01*
X157409549Y-119505425D02*
X157745425Y-119169549D01*
G75*
G02*
X158081301Y-119169549I167938J-167938D01*
G01*
X158487887Y-119576135D01*
G75*
G02*
X158487887Y-119912011I-167938J-167938D01*
G01*
X158152011Y-120247887D01*
G75*
G02*
X157816135Y-120247887I-167938J167938D01*
G01*
X157409549Y-119841301D01*
G75*
G02*
X157409549Y-119505425I167938J167938D01*
G01*
G37*
G36*
G01*
X156172113Y-118267989D02*
X156507989Y-117932113D01*
G75*
G02*
X156843865Y-117932113I167938J-167938D01*
G01*
X157250451Y-118338699D01*
G75*
G02*
X157250451Y-118674575I-167938J-167938D01*
G01*
X156914575Y-119010451D01*
G75*
G02*
X156578699Y-119010451I-167938J167938D01*
G01*
X156172113Y-118603865D01*
G75*
G02*
X156172113Y-118267989I167938J167938D01*
G01*
G37*
%TD*%
M02*
