M48
; DRILL file {KiCad 7.0.1} date Mon Dec 18 13:28:24 2023
; FORMAT={-:-/ absolute / metric / decimal}
; #@! TF.CreationDate,2023-12-18T13:28:24+01:00
; #@! TF.GenerationSoftware,Kicad,Pcbnew,7.0.1
; #@! TF.FileFunction,Plated,1,2,PTH
FMAT,2
METRIC
; #@! TA.AperFunction,Plated,PTH,ViaDrill
T1C0.300
; #@! TA.AperFunction,Plated,PTH,ViaDrill
T2C0.400
; #@! TA.AperFunction,Plated,PTH,ComponentDrill
T3C0.500
; #@! TA.AperFunction,Plated,PTH,ComponentDrill
T4C0.900
; #@! TA.AperFunction,Plated,PTH,ComponentDrill
T5C1.000
; #@! TA.AperFunction,Plated,PTH,ComponentDrill
T6C1.300
; #@! TA.AperFunction,Plated,PTH,ComponentDrill
T7C1.320
; #@! TA.AperFunction,Plated,PTH,ComponentDrill
T8C2.000
; #@! TA.AperFunction,Plated,PTH,ComponentDrill
T9C3.000
%
G90
G05
T1
X114.9Y-143.6
X115.0Y-127.05
X115.0Y-131.3
X115.0Y-134.947
X115.14Y-62.14
X115.142Y-58.947
X116.0Y-90.2
X116.0Y-91.8
X117.0Y-91.0
X117.2Y-139.8
X117.85Y-127.05
X117.85Y-131.3
X117.85Y-134.95
X118.0Y-90.2
X118.0Y-91.8
X118.4Y-139.25
X119.158Y-120.642
X119.19Y-118.85
X119.3Y-121.7
X119.38Y-78.88
X119.41Y-93.98
X119.56Y-97.825
X119.75Y-134.25
X119.8Y-129.9
X119.942Y-142.947
X119.95Y-138.13
X120.13Y-84.3
X120.3Y-77.0
X120.67Y-125.63
X120.71Y-58.96
X120.71Y-62.14
X120.83Y-127.25
X121.32Y-121.7
X121.542Y-105.347
X121.6Y-115.4
X121.68Y-139.875
X121.7Y-80.6
X121.7Y-107.7
X121.7Y-110.3
X121.7Y-112.8
X121.7Y-118.0
X122.5Y-143.5
X122.502Y-139.278
X122.62Y-141.516
X122.75Y-135.85
X122.9Y-74.6
X123.7Y-138.6
X123.942Y-101.347
X124.0Y-112.75
X124.0Y-115.5
X124.0Y-118.0
X124.04Y-139.875
X124.1Y-94.2
X124.25Y-88.71
X124.25Y-110.5
X124.25Y-119.93
X124.5Y-122.2
X124.5Y-123.5
X124.5Y-124.9
X124.6Y-136.796
X124.95Y-141.4
X125.47Y-66.04
X126.0Y-122.2
X126.0Y-123.5
X126.0Y-124.9
X126.4Y-76.7
X126.46Y-72.73
X126.9Y-140.4
X127.2Y-135.8
X127.28Y-97.825
X127.6Y-143.4
X127.7Y-121.7
X127.8Y-122.55
X127.8Y-130.2
X127.9Y-138.6
X127.942Y-105.347
X128.0Y-132.0
X128.565Y-132.705
X128.59Y-126.44
X128.59Y-128.19
X128.6Y-129.9
X128.61Y-122.7
X128.61Y-124.68
X128.65Y-133.51
X128.7Y-121.655
X129.07Y-119.91
X129.1Y-74.4
X129.34Y-133.93
X129.5Y-118.0
X129.68Y-135.73
X129.74Y-110.5
X129.74Y-113.0
X129.74Y-115.5
X129.775Y-130.625
X130.0Y-121.7
X130.1Y-141.6
X130.6Y-133.99
X130.734Y-126.39
X130.75Y-97.7
X130.75Y-100.2
X130.75Y-102.5
X131.142Y-139.748
X131.24Y-77.46
X131.24Y-111.5
X131.24Y-114.5
X131.336Y-133.615
X131.43Y-142.4
X131.5Y-135.83
X131.64Y-134.42
X131.81Y-73.26
X131.83Y-72.27
X131.86Y-132.97
X131.96Y-136.56
X132.0Y-99.0
X132.0Y-101.5
X132.17Y-138.38
X132.454Y-69.7
X132.454Y-71.1
X132.74Y-110.5
X132.74Y-113.0
X132.74Y-115.5
X132.8Y-128.1
X132.8Y-129.7
X133.195Y-65.895
X133.2Y-97.7
X133.25Y-100.2
X133.25Y-102.5
X133.335Y-67.165
X133.633Y-68.523
X133.85Y-71.26
X133.9Y-131.6
X134.0Y-134.414
X134.22Y-122.47
X134.3Y-84.9
X134.5Y-132.3
X134.52Y-125.3
X134.6Y-68.44
X134.75Y-120.335
X134.9Y-108.3
X134.9Y-114.3
X134.9Y-118.1
X135.0Y-128.5
X135.1Y-136.5
X135.2Y-101.4
X135.3Y-130.8
X135.448Y-126.448
X135.5Y-94.2
X135.55Y-89.3
X135.576Y-119.3
X135.608Y-99.4
X135.7Y-104.6
X136.1Y-123.8
X136.5Y-110.3
X136.8Y-128.6
X136.9Y-133.0
X137.368Y-90.2
X137.368Y-91.8
X137.5Y-107.8
X137.76Y-112.16
X137.9Y-66.3
X138.2Y-77.0
X138.2Y-86.6
X138.6Y-105.3
X138.67Y-110.41
X138.9Y-72.9
X138.934Y-115.129
X139.1Y-69.6
X139.18Y-116.87
X139.3Y-101.4
X139.368Y-90.2
X139.368Y-91.8
X139.5Y-120.38
X139.51Y-131.99
X139.6Y-125.4
X139.658Y-112.271
X139.85Y-95.6
X139.9Y-129.7
X139.96Y-134.414
X140.1Y-121.3
X140.1Y-126.6
X140.2Y-122.9
X140.36Y-115.964
X140.39Y-102.9
X140.42Y-66.46
X140.47Y-131.93
X140.624Y-116.937
X140.742Y-136.547
X141.73Y-112.705
X142.067Y-88.7
X142.16Y-131.73
X142.22Y-134.414
X142.34Y-68.7
X142.34Y-72.9
X142.34Y-78.4
X142.4Y-129.604
X142.49Y-126.89
X142.675Y-113.805
X142.675Y-116.205
X143.06Y-135.04
X143.25Y-107.55
X143.25Y-109.87
X143.3Y-132.5
X143.4Y-121.3
X143.4Y-124.2
X143.7Y-111.425
X143.7Y-120.4
X143.88Y-127.53
X143.89Y-131.43
X144.067Y-88.7
X144.267Y-86.6
X144.55Y-111.425
X144.56Y-68.72
X144.56Y-72.92
X144.56Y-78.42
X145.075Y-113.805
X145.075Y-116.205
X145.1Y-125.1
X145.12Y-132.98
X145.52Y-66.48
X145.8Y-127.75
X145.8Y-131.0
X145.81Y-137.97
X146.1Y-123.0
X146.11Y-112.77
X146.33Y-108.65
X146.5Y-112.01
X146.5Y-117.5
X146.815Y-100.5
X146.9Y-88.0
X147.0Y-134.53
X147.4Y-102.9
X147.87Y-110.11
X147.96Y-114.005
X147.968Y-85.7
X148.0Y-136.6
X148.1Y-101.4
X148.242Y-76.547
X148.25Y-88.15
X148.26Y-71.96
X148.28Y-66.14
X148.7Y-125.1
X149.31Y-132.52
X149.49Y-108.67
X149.739Y-79.157
X150.067Y-89.3
X150.175Y-120.34
X150.37Y-110.4
X150.4Y-102.9
X150.4Y-122.9
X150.6Y-99.568
X150.6Y-114.0
X151.04Y-66.48
X151.2Y-87.2
X151.2Y-120.4
X151.29Y-108.32
X151.36Y-128.45
X151.36Y-131.11
X151.5Y-117.57
X151.8Y-125.3
X151.9Y-69.3
X151.9Y-73.25
X151.9Y-77.2
X152.5Y-121.6
X152.7Y-110.4
X152.93Y-91.92
X153.27Y-88.12
X153.542Y-136.547
X153.58Y-66.48
X153.58Y-131.75
X153.63Y-129.7
X154.1Y-131.1
X154.2Y-120.6
X154.2Y-122.4
X154.2Y-124.56
X154.2Y-126.6
X154.25Y-114.3
X154.5Y-68.547
X154.5Y-71.665
X154.5Y-74.782
X154.5Y-77.9
X155.1Y-93.5
X155.43Y-137.88
X155.942Y-84.547
X156.5Y-117.7
X156.742Y-78.947
X157.08Y-123.12
X157.09Y-135.7
X157.25Y-128.75
X157.35Y-92.45
X157.5Y-126.044
X157.542Y-70.947
X157.65Y-88.95
X158.0Y-96.3
X158.15Y-130.925
X158.3Y-137.95
X158.35Y-105.75
X159.142Y-66.147
X159.34Y-123.27
X159.675Y-118.9
X159.694Y-131.094
X159.942Y-75.748
X159.942Y-82.147
X160.1Y-85.6
X160.5Y-97.5
X160.525Y-118.9
X161.0Y-135.2
X161.28Y-93.59
X161.4Y-110.95
X161.7Y-140.4
X161.7Y-143.7
X162.258Y-126.058
X162.3Y-90.15
X162.987Y-138.5
X163.0Y-66.3
X163.1Y-140.65
X163.142Y-71.748
X163.142Y-78.947
X163.8Y-101.2
X163.85Y-85.65
X163.95Y-119.4
X164.4Y-122.9
X164.69Y-68.69
X164.85Y-128.35
X164.9Y-93.85
X165.08Y-96.4
X165.1Y-88.7
X165.542Y-82.947
X165.7Y-75.9
X166.4Y-70.3
X166.6Y-136.0
X166.6Y-138.422
X166.6Y-141.0
X166.6Y-143.7
X167.25Y-107.747
X167.25Y-110.36
X167.25Y-112.85
X167.25Y-115.3
X167.3Y-117.95
X167.35Y-121.9
X167.85Y-85.7
X168.6Y-80.8
X168.71Y-136.51
X168.9Y-130.3
X169.25Y-124.55
X169.3Y-75.0
X169.83Y-103.96
X169.85Y-91.35
X169.85Y-116.75
X169.9Y-88.05
X169.9Y-100.46
X169.987Y-138.5
X170.05Y-94.6
X170.1Y-140.65
X170.2Y-64.1
X170.25Y-122.0
X170.5Y-68.6
X171.62Y-133.52
X171.657Y-126.2
X171.713Y-135.375
X172.0Y-72.9
X172.375Y-120.55
X172.4Y-117.95
X172.45Y-112.85
X172.45Y-115.45
X172.8Y-138.4
X173.21Y-131.57
X173.275Y-122.0
X173.275Y-124.66
X173.54Y-63.11
X173.542Y-58.947
X173.6Y-78.3
X173.6Y-84.4
X173.6Y-141.0
X173.6Y-143.7
X173.73Y-134.41
X174.3Y-90.05
X174.6Y-125.5
X175.0Y-138.4
X175.65Y-129.8
X175.8Y-98.1
X175.8Y-104.5
X175.8Y-110.9
X175.8Y-117.3
X175.8Y-121.3
X176.1Y-67.8
X176.1Y-92.5
X176.349Y-74.96
X176.501Y-135.374
X177.044Y-138.444
X177.1Y-140.65
X177.2Y-72.1
X177.2Y-83.1
X177.31Y-133.4
X177.542Y-87.748
X177.9Y-64.0
X178.15Y-135.75
X179.0Y-126.7
X179.1Y-58.9
X179.1Y-98.8
X179.1Y-105.2
X179.1Y-111.6
X179.1Y-118.0
X179.1Y-122.0
X179.1Y-143.6
X179.11Y-130.73
X179.142Y-73.347
X179.142Y-79.748
X179.142Y-92.547
X179.2Y-136.9
X179.2Y-141.0
T2
X170.7Y-92.5
X174.6Y-92.5
X175.245Y-135.505
T4
X152.315Y-96.5
X152.315Y-99.0
X152.315Y-101.0
X152.315Y-103.5
T5
X137.8Y-113.6
X137.8Y-116.14
X139.335Y-80.485
X139.335Y-83.025
X141.875Y-80.485
X141.875Y-83.025
X144.415Y-80.485
X144.415Y-83.025
X146.955Y-80.485
X146.955Y-83.025
X149.495Y-80.485
X149.495Y-83.025
X152.035Y-80.485
X152.035Y-83.025
X154.575Y-80.485
X154.575Y-83.025
X154.625Y-110.3
X157.165Y-110.3
T7
X124.4Y-60.49
X124.4Y-132.71
X169.6Y-60.48
X169.6Y-132.7
T8
X143.0Y-93.0
X143.875Y-115.005
T9
X148.5Y-129.13
T3
G00X141.35Y-106.525
M15
G01X140.65Y-106.525
M16
G05
G00X144.35Y-104.375
M15
G01X143.25Y-104.375
M16
G05
G00X146.95Y-106.525
M15
G01X146.25Y-106.525
M16
G05
T5
G00X140.9Y-98.3
M15
G01X142.7Y-98.3
M16
G05
G00X144.6Y-95.8
M15
G01X146.4Y-95.8
M16
G05
G00X147.6Y-90.75
M15
G01X147.6Y-92.25
M16
G05
T6
G00X152.415Y-93.43
M15
G01X153.415Y-93.43
M16
G05
G00X153.415Y-106.57
M15
G01X152.415Y-106.57
M16
G05
G00X157.095Y-99.5
M15
G01X157.095Y-100.5
M16
G05
T0
M30
