%TF.GenerationSoftware,KiCad,Pcbnew,(5.1.6)-1*%
%TF.CreationDate,2022-04-22T11:55:46+02:00*%
%TF.ProjectId,ZumoComSystem,5a756d6f-436f-46d5-9379-7374656d2e6b,V1.0*%
%TF.SameCoordinates,Original*%
%TF.FileFunction,Soldermask,Top*%
%TF.FilePolarity,Negative*%
%FSLAX46Y46*%
G04 Gerber Fmt 4.6, Leading zero omitted, Abs format (unit mm)*
G04 Created by KiCad (PCBNEW (5.1.6)-1) date 2022-04-22 11:55:46*
%MOMM*%
%LPD*%
G01*
G04 APERTURE LIST*
%ADD10R,1.100000X0.900000*%
%ADD11R,0.800000X1.200000*%
%ADD12C,1.000000*%
%ADD13R,1.400000X1.400000*%
%ADD14C,1.400000*%
%ADD15O,2.000000X3.000000*%
%ADD16O,3.000000X2.000000*%
%ADD17O,1.800000X1.800000*%
%ADD18R,1.800000X1.800000*%
%ADD19R,2.100000X1.000000*%
%ADD20R,1.000000X2.100000*%
%ADD21R,5.100000X5.100000*%
%ADD22O,2.300000X1.200000*%
%ADD23O,1.900000X1.200000*%
%ADD24R,0.550000X1.600000*%
%ADD25C,0.900000*%
%ADD26R,1.800000X1.000000*%
%ADD27R,1.600000X1.100000*%
%ADD28R,1.100000X1.800000*%
%ADD29C,2.490000*%
%ADD30C,3.650000*%
%ADD31C,2.080000*%
%ADD32R,1.100000X1.100000*%
%ADD33R,1.100000X3.100000*%
%ADD34R,0.900000X1.000000*%
%ADD35C,1.630000*%
%ADD36C,1.120000*%
G04 APERTURE END LIST*
D10*
%TO.C,SW1*%
X131425000Y-143800000D03*
X131425000Y-141500000D03*
X123925000Y-143800000D03*
X123925000Y-141500000D03*
D11*
X129925000Y-140600000D03*
X128425000Y-140600000D03*
X125425000Y-140600000D03*
D12*
X129175000Y-142650000D03*
X126175000Y-142650000D03*
%TD*%
D13*
%TO.C,J1*%
X147000000Y-98400000D03*
D14*
X149500000Y-98400000D03*
X151500000Y-98400000D03*
X154000000Y-98400000D03*
D15*
X143930000Y-97800000D03*
X157070000Y-97800000D03*
D16*
X150500000Y-93620000D03*
%TD*%
D17*
%TO.C,J5*%
X154575000Y-83025000D03*
X154575000Y-80485000D03*
X152035000Y-83025000D03*
X152035000Y-80485000D03*
X149495000Y-83025000D03*
X149495000Y-80485000D03*
X146955000Y-83025000D03*
X146955000Y-80485000D03*
X144415000Y-83025000D03*
X144415000Y-80485000D03*
X141875000Y-83025000D03*
X141875000Y-80485000D03*
X139335000Y-83025000D03*
D18*
X139335000Y-80485000D03*
%TD*%
D19*
%TO.C,U6*%
X138425000Y-136905000D03*
X138425000Y-135635000D03*
X138425000Y-134365000D03*
X138425000Y-133095000D03*
X138425000Y-131825000D03*
X138425000Y-130555000D03*
X138425000Y-129285000D03*
X138425000Y-128015000D03*
X138425000Y-126745000D03*
X138425000Y-125475000D03*
X138425000Y-124205000D03*
X138425000Y-122935000D03*
X138425000Y-121665000D03*
X138425000Y-120395000D03*
D20*
X141210000Y-119395000D03*
X142480000Y-119395000D03*
X143750000Y-119395000D03*
X145020000Y-119395000D03*
X146290000Y-119395000D03*
X147560000Y-119395000D03*
X148830000Y-119395000D03*
X150100000Y-119395000D03*
X151370000Y-119395000D03*
X152640000Y-119395000D03*
D19*
X155425000Y-120395000D03*
X155425000Y-121665000D03*
X155425000Y-122935000D03*
X155425000Y-124205000D03*
X155425000Y-125475000D03*
X155425000Y-126745000D03*
X155425000Y-128015000D03*
X155425000Y-129285000D03*
X155425000Y-130555000D03*
X155425000Y-131825000D03*
X155425000Y-133095000D03*
X155425000Y-134365000D03*
X155425000Y-135635000D03*
X155425000Y-136905000D03*
D21*
X147925000Y-129405000D03*
%TD*%
D22*
%TO.C,J3*%
X141400000Y-103175000D03*
D23*
X138600000Y-105325000D03*
X144200000Y-105325000D03*
D24*
X142700000Y-105075000D03*
X140100000Y-105075000D03*
X142050000Y-105075000D03*
X140750000Y-105075000D03*
X141400000Y-105075000D03*
%TD*%
D25*
%TO.C,SW3*%
X163150000Y-141425000D03*
D26*
X163150000Y-139725000D03*
X163150000Y-143125000D03*
%TD*%
D25*
%TO.C,SW4*%
X170070833Y-141425000D03*
D26*
X170070833Y-139725000D03*
X170070833Y-143125000D03*
%TD*%
D25*
%TO.C,SW5*%
X176991666Y-141425000D03*
D26*
X176991666Y-139725000D03*
X176991666Y-143125000D03*
%TD*%
%TO.C,D7*%
G36*
G01*
X163472500Y-138012500D02*
X163472500Y-137487500D01*
G75*
G02*
X163735000Y-137225000I262500J0D01*
G01*
X164360000Y-137225000D01*
G75*
G02*
X164622500Y-137487500I0J-262500D01*
G01*
X164622500Y-138012500D01*
G75*
G02*
X164360000Y-138275000I-262500J0D01*
G01*
X163735000Y-138275000D01*
G75*
G02*
X163472500Y-138012500I0J262500D01*
G01*
G37*
G36*
G01*
X161722500Y-138012500D02*
X161722500Y-137487500D01*
G75*
G02*
X161985000Y-137225000I262500J0D01*
G01*
X162610000Y-137225000D01*
G75*
G02*
X162872500Y-137487500I0J-262500D01*
G01*
X162872500Y-138012500D01*
G75*
G02*
X162610000Y-138275000I-262500J0D01*
G01*
X161985000Y-138275000D01*
G75*
G02*
X161722500Y-138012500I0J262500D01*
G01*
G37*
%TD*%
%TO.C,D9*%
G36*
G01*
X177314166Y-138012500D02*
X177314166Y-137487500D01*
G75*
G02*
X177576666Y-137225000I262500J0D01*
G01*
X178201666Y-137225000D01*
G75*
G02*
X178464166Y-137487500I0J-262500D01*
G01*
X178464166Y-138012500D01*
G75*
G02*
X178201666Y-138275000I-262500J0D01*
G01*
X177576666Y-138275000D01*
G75*
G02*
X177314166Y-138012500I0J262500D01*
G01*
G37*
G36*
G01*
X175564166Y-138012500D02*
X175564166Y-137487500D01*
G75*
G02*
X175826666Y-137225000I262500J0D01*
G01*
X176451666Y-137225000D01*
G75*
G02*
X176714166Y-137487500I0J-262500D01*
G01*
X176714166Y-138012500D01*
G75*
G02*
X176451666Y-138275000I-262500J0D01*
G01*
X175826666Y-138275000D01*
G75*
G02*
X175564166Y-138012500I0J262500D01*
G01*
G37*
%TD*%
%TO.C,D8*%
G36*
G01*
X170350000Y-138012500D02*
X170350000Y-137487500D01*
G75*
G02*
X170612500Y-137225000I262500J0D01*
G01*
X171237500Y-137225000D01*
G75*
G02*
X171500000Y-137487500I0J-262500D01*
G01*
X171500000Y-138012500D01*
G75*
G02*
X171237500Y-138275000I-262500J0D01*
G01*
X170612500Y-138275000D01*
G75*
G02*
X170350000Y-138012500I0J262500D01*
G01*
G37*
G36*
G01*
X168600000Y-138012500D02*
X168600000Y-137487500D01*
G75*
G02*
X168862500Y-137225000I262500J0D01*
G01*
X169487500Y-137225000D01*
G75*
G02*
X169750000Y-137487500I0J-262500D01*
G01*
X169750000Y-138012500D01*
G75*
G02*
X169487500Y-138275000I-262500J0D01*
G01*
X168862500Y-138275000D01*
G75*
G02*
X168600000Y-138012500I0J262500D01*
G01*
G37*
%TD*%
D27*
%TO.C,D10*%
X129425000Y-138200000D03*
X129425000Y-136800000D03*
X125925000Y-138200000D03*
X125925000Y-136800000D03*
%TD*%
D28*
%TO.C,SW2*%
X117250000Y-143025000D03*
X117250000Y-136725000D03*
X121050000Y-143025000D03*
X121050000Y-136725000D03*
%TD*%
D29*
%TO.C,BT1*%
X116530000Y-132710000D03*
D30*
X116530000Y-69130000D03*
X132270000Y-124330000D03*
D31*
X124400000Y-60490000D03*
X124400000Y-132710000D03*
%TD*%
%TO.C,C5*%
G36*
G01*
X136857456Y-60575000D02*
X135542544Y-60575000D01*
G75*
G02*
X135275000Y-60307456I0J267544D01*
G01*
X135275000Y-59317544D01*
G75*
G02*
X135542544Y-59050000I267544J0D01*
G01*
X136857456Y-59050000D01*
G75*
G02*
X137125000Y-59317544I0J-267544D01*
G01*
X137125000Y-60307456D01*
G75*
G02*
X136857456Y-60575000I-267544J0D01*
G01*
G37*
G36*
G01*
X136857456Y-63550000D02*
X135542544Y-63550000D01*
G75*
G02*
X135275000Y-63282456I0J267544D01*
G01*
X135275000Y-62292544D01*
G75*
G02*
X135542544Y-62025000I267544J0D01*
G01*
X136857456Y-62025000D01*
G75*
G02*
X137125000Y-62292544I0J-267544D01*
G01*
X137125000Y-63282456D01*
G75*
G02*
X136857456Y-63550000I-267544J0D01*
G01*
G37*
%TD*%
%TO.C,R15*%
G36*
G01*
X157812500Y-134475000D02*
X157287500Y-134475000D01*
G75*
G02*
X157025000Y-134212500I0J262500D01*
G01*
X157025000Y-133587500D01*
G75*
G02*
X157287500Y-133325000I262500J0D01*
G01*
X157812500Y-133325000D01*
G75*
G02*
X158075000Y-133587500I0J-262500D01*
G01*
X158075000Y-134212500D01*
G75*
G02*
X157812500Y-134475000I-262500J0D01*
G01*
G37*
G36*
G01*
X157812500Y-136225000D02*
X157287500Y-136225000D01*
G75*
G02*
X157025000Y-135962500I0J262500D01*
G01*
X157025000Y-135337500D01*
G75*
G02*
X157287500Y-135075000I262500J0D01*
G01*
X157812500Y-135075000D01*
G75*
G02*
X158075000Y-135337500I0J-262500D01*
G01*
X158075000Y-135962500D01*
G75*
G02*
X157812500Y-136225000I-262500J0D01*
G01*
G37*
%TD*%
%TO.C,R17*%
G36*
G01*
X135712500Y-120975000D02*
X136237500Y-120975000D01*
G75*
G02*
X136500000Y-121237500I0J-262500D01*
G01*
X136500000Y-121862500D01*
G75*
G02*
X136237500Y-122125000I-262500J0D01*
G01*
X135712500Y-122125000D01*
G75*
G02*
X135450000Y-121862500I0J262500D01*
G01*
X135450000Y-121237500D01*
G75*
G02*
X135712500Y-120975000I262500J0D01*
G01*
G37*
G36*
G01*
X135712500Y-119225000D02*
X136237500Y-119225000D01*
G75*
G02*
X136500000Y-119487500I0J-262500D01*
G01*
X136500000Y-120112500D01*
G75*
G02*
X136237500Y-120375000I-262500J0D01*
G01*
X135712500Y-120375000D01*
G75*
G02*
X135450000Y-120112500I0J262500D01*
G01*
X135450000Y-119487500D01*
G75*
G02*
X135712500Y-119225000I262500J0D01*
G01*
G37*
%TD*%
%TO.C,R23*%
G36*
G01*
X159625000Y-137987500D02*
X159625000Y-137462500D01*
G75*
G02*
X159887500Y-137200000I262500J0D01*
G01*
X160512500Y-137200000D01*
G75*
G02*
X160775000Y-137462500I0J-262500D01*
G01*
X160775000Y-137987500D01*
G75*
G02*
X160512500Y-138250000I-262500J0D01*
G01*
X159887500Y-138250000D01*
G75*
G02*
X159625000Y-137987500I0J262500D01*
G01*
G37*
G36*
G01*
X157875000Y-137987500D02*
X157875000Y-137462500D01*
G75*
G02*
X158137500Y-137200000I262500J0D01*
G01*
X158762500Y-137200000D01*
G75*
G02*
X159025000Y-137462500I0J-262500D01*
G01*
X159025000Y-137987500D01*
G75*
G02*
X158762500Y-138250000I-262500J0D01*
G01*
X158137500Y-138250000D01*
G75*
G02*
X157875000Y-137987500I0J262500D01*
G01*
G37*
%TD*%
%TO.C,R27*%
G36*
G01*
X173200000Y-137487500D02*
X173200000Y-138012500D01*
G75*
G02*
X172937500Y-138275000I-262500J0D01*
G01*
X172312500Y-138275000D01*
G75*
G02*
X172050000Y-138012500I0J262500D01*
G01*
X172050000Y-137487500D01*
G75*
G02*
X172312500Y-137225000I262500J0D01*
G01*
X172937500Y-137225000D01*
G75*
G02*
X173200000Y-137487500I0J-262500D01*
G01*
G37*
G36*
G01*
X174950000Y-137487500D02*
X174950000Y-138012500D01*
G75*
G02*
X174687500Y-138275000I-262500J0D01*
G01*
X174062500Y-138275000D01*
G75*
G02*
X173800000Y-138012500I0J262500D01*
G01*
X173800000Y-137487500D01*
G75*
G02*
X174062500Y-137225000I262500J0D01*
G01*
X174687500Y-137225000D01*
G75*
G02*
X174950000Y-137487500I0J-262500D01*
G01*
G37*
%TD*%
%TO.C,R25*%
G36*
G01*
X166300000Y-137487500D02*
X166300000Y-138012500D01*
G75*
G02*
X166037500Y-138275000I-262500J0D01*
G01*
X165412500Y-138275000D01*
G75*
G02*
X165150000Y-138012500I0J262500D01*
G01*
X165150000Y-137487500D01*
G75*
G02*
X165412500Y-137225000I262500J0D01*
G01*
X166037500Y-137225000D01*
G75*
G02*
X166300000Y-137487500I0J-262500D01*
G01*
G37*
G36*
G01*
X168050000Y-137487500D02*
X168050000Y-138012500D01*
G75*
G02*
X167787500Y-138275000I-262500J0D01*
G01*
X167162500Y-138275000D01*
G75*
G02*
X166900000Y-138012500I0J262500D01*
G01*
X166900000Y-137487500D01*
G75*
G02*
X167162500Y-137225000I262500J0D01*
G01*
X167787500Y-137225000D01*
G75*
G02*
X168050000Y-137487500I0J-262500D01*
G01*
G37*
%TD*%
D32*
%TO.C,D4*%
X146900000Y-110250000D03*
X146900000Y-107750000D03*
%TD*%
D33*
%TO.C,J7*%
X139380000Y-60430000D03*
X139380000Y-65470000D03*
X141920000Y-60430000D03*
X141920000Y-65470000D03*
X144460000Y-60430000D03*
X144460000Y-65470000D03*
X147000000Y-60430000D03*
X147000000Y-65470000D03*
X149540000Y-60430000D03*
X149540000Y-65470000D03*
X152080000Y-60430000D03*
X152080000Y-65470000D03*
X154620000Y-60430000D03*
X154620000Y-65470000D03*
%TD*%
D32*
%TO.C,D5*%
X138450000Y-107900000D03*
X140950000Y-107900000D03*
%TD*%
%TO.C,D6*%
X145050000Y-107900000D03*
X142550000Y-107900000D03*
%TD*%
%TO.C,R12*%
G36*
G01*
X136700000Y-110237500D02*
X136700000Y-110762500D01*
G75*
G02*
X136437500Y-111025000I-262500J0D01*
G01*
X135812500Y-111025000D01*
G75*
G02*
X135550000Y-110762500I0J262500D01*
G01*
X135550000Y-110237500D01*
G75*
G02*
X135812500Y-109975000I262500J0D01*
G01*
X136437500Y-109975000D01*
G75*
G02*
X136700000Y-110237500I0J-262500D01*
G01*
G37*
G36*
G01*
X138450000Y-110237500D02*
X138450000Y-110762500D01*
G75*
G02*
X138187500Y-111025000I-262500J0D01*
G01*
X137562500Y-111025000D01*
G75*
G02*
X137300000Y-110762500I0J262500D01*
G01*
X137300000Y-110237500D01*
G75*
G02*
X137562500Y-109975000I262500J0D01*
G01*
X138187500Y-109975000D01*
G75*
G02*
X138450000Y-110237500I0J-262500D01*
G01*
G37*
%TD*%
D34*
%TO.C,Q5*%
X137000000Y-114100000D03*
X136050000Y-112100000D03*
X137950000Y-112100000D03*
%TD*%
D35*
%TO.C,J2*%
X138460000Y-91610000D03*
X138460000Y-88610000D03*
D36*
X135460000Y-87670000D03*
X141460000Y-87670000D03*
%TD*%
%TO.C,C16*%
G36*
G01*
X165487500Y-142450000D02*
X166012500Y-142450000D01*
G75*
G02*
X166275000Y-142712500I0J-262500D01*
G01*
X166275000Y-143337500D01*
G75*
G02*
X166012500Y-143600000I-262500J0D01*
G01*
X165487500Y-143600000D01*
G75*
G02*
X165225000Y-143337500I0J262500D01*
G01*
X165225000Y-142712500D01*
G75*
G02*
X165487500Y-142450000I262500J0D01*
G01*
G37*
G36*
G01*
X165487500Y-140700000D02*
X166012500Y-140700000D01*
G75*
G02*
X166275000Y-140962500I0J-262500D01*
G01*
X166275000Y-141587500D01*
G75*
G02*
X166012500Y-141850000I-262500J0D01*
G01*
X165487500Y-141850000D01*
G75*
G02*
X165225000Y-141587500I0J262500D01*
G01*
X165225000Y-140962500D01*
G75*
G02*
X165487500Y-140700000I262500J0D01*
G01*
G37*
%TD*%
%TO.C,C17*%
G36*
G01*
X172417500Y-142480000D02*
X172942500Y-142480000D01*
G75*
G02*
X173205000Y-142742500I0J-262500D01*
G01*
X173205000Y-143367500D01*
G75*
G02*
X172942500Y-143630000I-262500J0D01*
G01*
X172417500Y-143630000D01*
G75*
G02*
X172155000Y-143367500I0J262500D01*
G01*
X172155000Y-142742500D01*
G75*
G02*
X172417500Y-142480000I262500J0D01*
G01*
G37*
G36*
G01*
X172417500Y-140730000D02*
X172942500Y-140730000D01*
G75*
G02*
X173205000Y-140992500I0J-262500D01*
G01*
X173205000Y-141617500D01*
G75*
G02*
X172942500Y-141880000I-262500J0D01*
G01*
X172417500Y-141880000D01*
G75*
G02*
X172155000Y-141617500I0J262500D01*
G01*
X172155000Y-140992500D01*
G75*
G02*
X172417500Y-140730000I262500J0D01*
G01*
G37*
%TD*%
%TO.C,C18*%
G36*
G01*
X174167500Y-142470000D02*
X174692500Y-142470000D01*
G75*
G02*
X174955000Y-142732500I0J-262500D01*
G01*
X174955000Y-143357500D01*
G75*
G02*
X174692500Y-143620000I-262500J0D01*
G01*
X174167500Y-143620000D01*
G75*
G02*
X173905000Y-143357500I0J262500D01*
G01*
X173905000Y-142732500D01*
G75*
G02*
X174167500Y-142470000I262500J0D01*
G01*
G37*
G36*
G01*
X174167500Y-140720000D02*
X174692500Y-140720000D01*
G75*
G02*
X174955000Y-140982500I0J-262500D01*
G01*
X174955000Y-141607500D01*
G75*
G02*
X174692500Y-141870000I-262500J0D01*
G01*
X174167500Y-141870000D01*
G75*
G02*
X173905000Y-141607500I0J262500D01*
G01*
X173905000Y-140982500D01*
G75*
G02*
X174167500Y-140720000I262500J0D01*
G01*
G37*
%TD*%
%TO.C,R5*%
G36*
G01*
X154806516Y-114977747D02*
X155177747Y-114606516D01*
G75*
G02*
X155548979Y-114606516I185616J-185616D01*
G01*
X155990920Y-115048457D01*
G75*
G02*
X155990920Y-115419689I-185616J-185616D01*
G01*
X155619689Y-115790920D01*
G75*
G02*
X155248457Y-115790920I-185616J185616D01*
G01*
X154806516Y-115348979D01*
G75*
G02*
X154806516Y-114977747I185616J185616D01*
G01*
G37*
G36*
G01*
X153569080Y-113740311D02*
X153940311Y-113369080D01*
G75*
G02*
X154311543Y-113369080I185616J-185616D01*
G01*
X154753484Y-113811021D01*
G75*
G02*
X154753484Y-114182253I-185616J-185616D01*
G01*
X154382253Y-114553484D01*
G75*
G02*
X154011021Y-114553484I-185616J185616D01*
G01*
X153569080Y-114111543D01*
G75*
G02*
X153569080Y-113740311I185616J185616D01*
G01*
G37*
%TD*%
D29*
%TO.C,BT2*%
X177470000Y-60490000D03*
D30*
X177470000Y-124070000D03*
X161730000Y-68870000D03*
D31*
X169600000Y-132710000D03*
X169600000Y-60490000D03*
%TD*%
M02*
