%FSLAX45Y45*%
G04 Gerber Fmt 4.5, Leading zero omitted, Abs format (unit mm)*
G04 Created by KiCad (PCBNEW (5.1.6)-1) date 2022-04-22 11:55:39*
%MOMM*%
%LPD*%
G01*
G04 APERTURE LIST*
%TA.AperFunction,Profile*%
%ADD10C,0.050000*%
%TD*%
%ADD11C,0.200000*%
%ADD12C,0.300000*%
G04 APERTURE END LIST*
D10*
X11480000Y-14450000D02*
X17920000Y-14450000D01*
X11400000Y-5800000D02*
X18000000Y-5800000D01*
X11480000Y-14450000D02*
G75*
G02*
X11400000Y-14370000I0J80000D01*
G01*
X18000000Y-14370000D02*
G75*
G02*
X17920000Y-14450000I-80000J0D01*
G01*
X18000000Y-14370000D02*
X18000000Y-5800000D01*
X11400000Y-5800000D02*
X11400000Y-14370000D01*
D11*
X11499167Y-5879750D02*
X11529167Y-5909750D01*
X11529167Y-5879750D02*
X11499167Y-5909750D01*
X11499167Y-12679750D02*
X11529167Y-12709750D01*
X11529167Y-12679750D02*
X11499167Y-12709750D01*
X11499167Y-13479750D02*
X11529167Y-13509750D01*
X11529167Y-13479750D02*
X11499167Y-13509750D01*
X11585000Y-9045000D02*
X11615000Y-9075000D01*
X11615000Y-9045000D02*
X11585000Y-9075000D01*
X11585000Y-9245000D02*
X11615000Y-9275000D01*
X11615000Y-9245000D02*
X11585000Y-9275000D01*
X11685000Y-9145000D02*
X11715000Y-9175000D01*
X11715000Y-9145000D02*
X11685000Y-9175000D01*
X11705000Y-13465000D02*
X11735000Y-13495000D01*
X11735000Y-13465000D02*
X11705000Y-13495000D01*
X11705000Y-13965000D02*
X11735000Y-13995000D01*
X11735000Y-13965000D02*
X11705000Y-13995000D01*
X11785000Y-9045000D02*
X11815000Y-9075000D01*
X11815000Y-9045000D02*
X11785000Y-9075000D01*
X11785000Y-9245000D02*
X11815000Y-9275000D01*
X11815000Y-9245000D02*
X11785000Y-9275000D01*
X11819167Y-6199750D02*
X11849167Y-6229750D01*
X11849167Y-6199750D02*
X11819167Y-6229750D01*
X11828000Y-13926000D02*
X11858000Y-13956000D01*
X11858000Y-13926000D02*
X11828000Y-13956000D01*
X11887501Y-13234725D02*
X11917501Y-13264725D01*
X11917501Y-13234725D02*
X11887501Y-13264725D01*
X11910000Y-7735000D02*
X11940000Y-7765000D01*
X11940000Y-7735000D02*
X11910000Y-7765000D01*
X11960000Y-13410000D02*
X11990000Y-13440000D01*
X11990000Y-13410000D02*
X11960000Y-13440000D01*
X11979167Y-14279750D02*
X12009167Y-14309750D01*
X12009167Y-14279750D02*
X11979167Y-14309750D01*
X11985000Y-12975000D02*
X12015000Y-13005000D01*
X12015000Y-12975000D02*
X11985000Y-13005000D01*
X11998000Y-8415000D02*
X12028000Y-8445000D01*
X12028000Y-8415000D02*
X11998000Y-8445000D01*
X12055000Y-12535000D02*
X12085000Y-12565000D01*
X12085000Y-12535000D02*
X12055000Y-12565000D01*
X12139167Y-9719750D02*
X12169167Y-9749750D01*
X12169167Y-9719750D02*
X12139167Y-9749750D01*
X12139167Y-10519750D02*
X12169167Y-10549750D01*
X12169167Y-10519750D02*
X12139167Y-10549750D01*
X12145000Y-11525000D02*
X12175000Y-11555000D01*
X12175000Y-11525000D02*
X12145000Y-11555000D01*
X12155000Y-10755000D02*
X12185000Y-10785000D01*
X12185000Y-10755000D02*
X12155000Y-10785000D01*
X12155000Y-11015000D02*
X12185000Y-11045000D01*
X12185000Y-11015000D02*
X12155000Y-11045000D01*
X12155000Y-11265000D02*
X12185000Y-11295000D01*
X12185000Y-11265000D02*
X12155000Y-11295000D01*
X12155000Y-11785000D02*
X12185000Y-11815000D01*
X12185000Y-11785000D02*
X12155000Y-11815000D01*
X12235000Y-14335000D02*
X12265000Y-14365000D01*
X12265000Y-14335000D02*
X12235000Y-14365000D01*
X12245000Y-14125000D02*
X12275000Y-14155000D01*
X12275000Y-14125000D02*
X12245000Y-14155000D01*
X12246750Y-13924250D02*
X12276750Y-13954250D01*
X12276750Y-13924250D02*
X12246750Y-13954250D01*
X12353000Y-13600000D02*
X12383000Y-13630000D01*
X12383000Y-13600000D02*
X12353000Y-13630000D01*
X12355000Y-13845000D02*
X12385000Y-13875000D01*
X12385000Y-13845000D02*
X12355000Y-13875000D01*
X12379167Y-7239750D02*
X12409167Y-7269750D01*
X12409167Y-7239750D02*
X12379167Y-7269750D01*
X12379167Y-10119750D02*
X12409167Y-10149750D01*
X12409167Y-10119750D02*
X12379167Y-10149750D01*
X12385000Y-11035000D02*
X12415000Y-11065000D01*
X12415000Y-11035000D02*
X12385000Y-11065000D01*
X12385000Y-11260000D02*
X12415000Y-11290000D01*
X12415000Y-11260000D02*
X12385000Y-11290000D01*
X12385000Y-11535000D02*
X12415000Y-11565000D01*
X12415000Y-11535000D02*
X12385000Y-11565000D01*
X12385000Y-11785000D02*
X12415000Y-11815000D01*
X12415000Y-11785000D02*
X12385000Y-11815000D01*
X12385000Y-11985000D02*
X12415000Y-12015000D01*
X12415000Y-11985000D02*
X12385000Y-12015000D01*
X12410000Y-8856000D02*
X12440000Y-8886000D01*
X12440000Y-8856000D02*
X12410000Y-8886000D01*
X12435000Y-12175000D02*
X12465000Y-12205000D01*
X12465000Y-12175000D02*
X12435000Y-12205000D01*
X12435000Y-12325000D02*
X12465000Y-12355000D01*
X12465000Y-12325000D02*
X12435000Y-12355000D01*
X12435000Y-12475000D02*
X12465000Y-12505000D01*
X12465000Y-12475000D02*
X12435000Y-12505000D01*
X12485000Y-7585000D02*
X12515000Y-7615000D01*
X12515000Y-7585000D02*
X12485000Y-7615000D01*
X12527000Y-6774000D02*
X12557000Y-6804000D01*
X12557000Y-6774000D02*
X12527000Y-6804000D01*
X12585000Y-12175000D02*
X12615000Y-12205000D01*
X12615000Y-12175000D02*
X12585000Y-12205000D01*
X12585000Y-12325000D02*
X12615000Y-12355000D01*
X12615000Y-12325000D02*
X12585000Y-12355000D01*
X12585000Y-12475000D02*
X12615000Y-12505000D01*
X12615000Y-12475000D02*
X12585000Y-12505000D01*
X12685000Y-14045000D02*
X12715000Y-14075000D01*
X12715000Y-14045000D02*
X12685000Y-14075000D01*
X12725000Y-13635000D02*
X12755000Y-13665000D01*
X12755000Y-13635000D02*
X12725000Y-13665000D01*
X12745000Y-14325000D02*
X12775000Y-14355000D01*
X12775000Y-14325000D02*
X12745000Y-14355000D01*
X12759999Y-13010000D02*
X12789999Y-13040000D01*
X12789999Y-13010000D02*
X12759999Y-13040000D01*
X12760000Y-12235000D02*
X12790000Y-12265000D01*
X12790000Y-12235000D02*
X12760000Y-12265000D01*
X12760000Y-13210000D02*
X12790000Y-13240000D01*
X12790000Y-13210000D02*
X12760000Y-13240000D01*
X12763000Y-12150000D02*
X12793000Y-12180000D01*
X12793000Y-12150000D02*
X12763000Y-12180000D01*
X12779167Y-7479750D02*
X12809167Y-7509750D01*
X12809167Y-7479750D02*
X12779167Y-7509750D01*
X12779167Y-9719750D02*
X12809167Y-9749750D01*
X12809167Y-9719750D02*
X12779167Y-9749750D01*
X12779167Y-10519750D02*
X12809167Y-10549750D01*
X12809167Y-10519750D02*
X12779167Y-10549750D01*
X12831325Y-13352499D02*
X12861325Y-13382499D01*
X12861325Y-13352499D02*
X12831325Y-13382499D01*
X12854999Y-12150467D02*
X12884999Y-12180467D01*
X12884999Y-12150467D02*
X12854999Y-12180467D01*
X12885000Y-8867000D02*
X12915000Y-8897000D01*
X12915000Y-8867000D02*
X12885000Y-8897000D01*
X12925000Y-13305000D02*
X12955000Y-13335000D01*
X12955000Y-13305000D02*
X12925000Y-13335000D01*
X12935000Y-11785000D02*
X12965000Y-11815000D01*
X12965000Y-11785000D02*
X12935000Y-11815000D01*
X12935000Y-11985000D02*
X12965000Y-12015000D01*
X12965000Y-11985000D02*
X12935000Y-12015000D01*
X12955000Y-13205000D02*
X12985000Y-13235000D01*
X12985000Y-13205000D02*
X12955000Y-13235000D01*
X13000000Y-13137000D02*
X13030000Y-13167000D01*
X13030000Y-13137000D02*
X13000000Y-13167000D01*
X13035000Y-11035000D02*
X13065000Y-11065000D01*
X13065000Y-11035000D02*
X13035000Y-11065000D01*
X13035000Y-11285000D02*
X13065000Y-11315000D01*
X13065000Y-11285000D02*
X13035000Y-11315000D01*
X13035000Y-11535000D02*
X13065000Y-11565000D01*
X13065000Y-11535000D02*
X13035000Y-11565000D01*
X13050000Y-12624000D02*
X13080000Y-12654000D01*
X13080000Y-12624000D02*
X13050000Y-12654000D01*
X13060000Y-9710000D02*
X13090000Y-9740000D01*
X13090000Y-9710000D02*
X13060000Y-9740000D01*
X13060000Y-9985000D02*
X13090000Y-10015000D01*
X13090000Y-9985000D02*
X13060000Y-10015000D01*
X13060000Y-10235000D02*
X13090000Y-10265000D01*
X13090000Y-10235000D02*
X13060000Y-10265000D01*
X13075000Y-13635000D02*
X13105000Y-13665000D01*
X13105000Y-13635000D02*
X13075000Y-13665000D01*
X13099167Y-13959750D02*
X13129167Y-13989750D01*
X13129167Y-13959750D02*
X13099167Y-13989750D01*
X13141394Y-13099099D02*
X13171394Y-13129099D01*
X13171394Y-13099099D02*
X13141394Y-13129099D01*
X13185000Y-9835000D02*
X13215000Y-9865000D01*
X13215000Y-9835000D02*
X13185000Y-9865000D01*
X13185000Y-10110000D02*
X13215000Y-10140000D01*
X13215000Y-10110000D02*
X13185000Y-10140000D01*
X13185000Y-11135000D02*
X13215000Y-11165000D01*
X13215000Y-11135000D02*
X13185000Y-11165000D01*
X13185000Y-11435000D02*
X13215000Y-11465000D01*
X13215000Y-11435000D02*
X13185000Y-11465000D01*
X13285000Y-6685000D02*
X13315000Y-6715000D01*
X13315000Y-6685000D02*
X13285000Y-6715000D01*
X13310000Y-9710000D02*
X13340000Y-9740000D01*
X13340000Y-9710000D02*
X13310000Y-9740000D01*
X13310000Y-9985000D02*
X13340000Y-10015000D01*
X13340000Y-9985000D02*
X13310000Y-10015000D01*
X13310000Y-10235000D02*
X13340000Y-10265000D01*
X13340000Y-10235000D02*
X13310000Y-10265000D01*
X13335000Y-6960000D02*
X13365000Y-6990000D01*
X13365000Y-6960000D02*
X13335000Y-6990000D01*
X13335000Y-11035000D02*
X13365000Y-11065000D01*
X13365000Y-11035000D02*
X13335000Y-11065000D01*
X13335000Y-11285000D02*
X13365000Y-11315000D01*
X13365000Y-11285000D02*
X13335000Y-11315000D01*
X13335000Y-11535000D02*
X13365000Y-11565000D01*
X13365000Y-11535000D02*
X13335000Y-11565000D01*
X13419167Y-13639750D02*
X13449167Y-13669750D01*
X13449167Y-13639750D02*
X13419167Y-13669750D01*
X13445000Y-10485000D02*
X13475000Y-10515000D01*
X13475000Y-10485000D02*
X13445000Y-10515000D01*
X13455000Y-12045000D02*
X13485000Y-12075000D01*
X13485000Y-12045000D02*
X13455000Y-12075000D01*
X13460000Y-12885000D02*
X13490000Y-12915000D01*
X13490000Y-12885000D02*
X13460000Y-12915000D01*
X13499167Y-8359750D02*
X13529167Y-8389750D01*
X13529167Y-8359750D02*
X13499167Y-8389750D01*
X13499167Y-9639750D02*
X13529167Y-9669750D01*
X13529167Y-9639750D02*
X13499167Y-9669750D01*
X13499167Y-12679750D02*
X13529167Y-12709750D01*
X13529167Y-12679750D02*
X13499167Y-12709750D01*
X13510000Y-12285000D02*
X13540000Y-12315000D01*
X13540000Y-12285000D02*
X13510000Y-12315000D01*
X13527000Y-11388000D02*
X13557000Y-11418000D01*
X13557000Y-11388000D02*
X13527000Y-11418000D01*
X13579167Y-10279750D02*
X13609167Y-10309750D01*
X13609167Y-10279750D02*
X13579167Y-10309750D01*
X13587000Y-13168000D02*
X13617000Y-13198000D01*
X13617000Y-13168000D02*
X13587000Y-13198000D01*
X13589999Y-11290000D02*
X13619999Y-11320000D01*
X13619999Y-11290000D02*
X13589999Y-11320000D01*
X13595000Y-10825000D02*
X13625000Y-10855000D01*
X13625000Y-10825000D02*
X13595000Y-10855000D01*
X13600000Y-12517000D02*
X13630000Y-12547000D01*
X13630000Y-12517000D02*
X13600000Y-12547000D01*
X13615000Y-12960000D02*
X13645000Y-12990000D01*
X13645000Y-12960000D02*
X13615000Y-12990000D01*
X13617501Y-11755000D02*
X13647501Y-11785000D01*
X13647501Y-11755000D02*
X13617501Y-11785000D01*
X13625000Y-11635000D02*
X13655000Y-11665000D01*
X13655000Y-11635000D02*
X13625000Y-11665000D01*
X13655000Y-11545000D02*
X13685000Y-11575000D01*
X13685000Y-11545000D02*
X13655000Y-11575000D01*
X13660000Y-10685000D02*
X13690000Y-10715000D01*
X13690000Y-10685000D02*
X13660000Y-10715000D01*
X13735000Y-6735000D02*
X13765000Y-6765000D01*
X13765000Y-6735000D02*
X13735000Y-6765000D01*
X13785000Y-9835000D02*
X13815000Y-9865000D01*
X13815000Y-9835000D02*
X13785000Y-9865000D01*
X13819167Y-8679750D02*
X13849167Y-8709750D01*
X13849167Y-8679750D02*
X13819167Y-8709750D01*
X13842499Y-11525000D02*
X13872499Y-11555000D01*
X13872499Y-11525000D02*
X13842499Y-11555000D01*
X13899167Y-7639750D02*
X13929167Y-7669750D01*
X13929167Y-7639750D02*
X13899167Y-7669750D01*
X13915000Y-7765000D02*
X13945000Y-7795000D01*
X13945000Y-7765000D02*
X13915000Y-7795000D01*
X13945000Y-11705000D02*
X13975000Y-11735000D01*
X13975000Y-11705000D02*
X13945000Y-11735000D01*
X13975000Y-11215000D02*
X14005000Y-11245000D01*
X14005000Y-11215000D02*
X13975000Y-11245000D01*
X13975000Y-11855000D02*
X14005000Y-11885000D01*
X14005000Y-11855000D02*
X13975000Y-11885000D01*
X13979167Y-12039750D02*
X14009167Y-12069750D01*
X14009167Y-12039750D02*
X13979167Y-12069750D01*
X14002499Y-13007501D02*
X14032499Y-13037501D01*
X14032499Y-13007501D02*
X14002499Y-13037501D01*
X14005000Y-12905000D02*
X14035000Y-12935000D01*
X14035000Y-12905000D02*
X14005000Y-12935000D01*
X14058000Y-12469000D02*
X14088000Y-12499000D01*
X14088000Y-12469000D02*
X14058000Y-12499000D01*
X14059167Y-13639750D02*
X14089167Y-13669750D01*
X14089167Y-13639750D02*
X14059167Y-13669750D01*
X14075000Y-12175000D02*
X14105000Y-12205000D01*
X14105000Y-12175000D02*
X14075000Y-12205000D01*
X14085000Y-11065000D02*
X14115000Y-11095000D01*
X14115000Y-11065000D02*
X14085000Y-11095000D01*
X14085000Y-11325000D02*
X14115000Y-11355000D01*
X14115000Y-11325000D02*
X14085000Y-11355000D01*
X14085000Y-11565000D02*
X14115000Y-11595000D01*
X14115000Y-11565000D02*
X14085000Y-11595000D01*
X14125000Y-7218000D02*
X14155000Y-7248000D01*
X14155000Y-7218000D02*
X14125000Y-7248000D01*
X14139167Y-8999750D02*
X14169167Y-9029750D01*
X14169167Y-8999750D02*
X14139167Y-9029750D01*
X14139167Y-9639750D02*
X14169167Y-9669750D01*
X14169167Y-9639750D02*
X14139167Y-9669750D01*
X14145000Y-12595000D02*
X14175000Y-12625000D01*
X14175000Y-12595000D02*
X14145000Y-12625000D01*
X14165000Y-7765000D02*
X14195000Y-7795000D01*
X14195000Y-7765000D02*
X14165000Y-7795000D01*
X14165000Y-13005000D02*
X14195000Y-13035000D01*
X14195000Y-13005000D02*
X14165000Y-13035000D01*
X14175000Y-6875000D02*
X14205000Y-6905000D01*
X14205000Y-6875000D02*
X14175000Y-6905000D01*
X14185000Y-12725000D02*
X14215000Y-12755000D01*
X14215000Y-12725000D02*
X14185000Y-12755000D01*
X14187500Y-11065000D02*
X14217500Y-11095000D01*
X14217500Y-11065000D02*
X14187500Y-11095000D01*
X14245000Y-12295000D02*
X14275000Y-12325000D01*
X14275000Y-12295000D02*
X14245000Y-12325000D01*
X14265000Y-12835000D02*
X14295000Y-12865000D01*
X14295000Y-12835000D02*
X14265000Y-12865000D01*
X14272500Y-11065000D02*
X14302500Y-11095000D01*
X14302500Y-11065000D02*
X14272500Y-11095000D01*
X14299167Y-8439750D02*
X14329167Y-8469750D01*
X14329167Y-8439750D02*
X14299167Y-8469750D01*
X14315000Y-13455000D02*
X14345000Y-13485000D01*
X14345000Y-13455000D02*
X14315000Y-13485000D01*
X14325000Y-11325000D02*
X14355000Y-11355000D01*
X14355000Y-11325000D02*
X14325000Y-11355000D01*
X14325000Y-11565000D02*
X14355000Y-11595000D01*
X14355000Y-11565000D02*
X14325000Y-11595000D01*
X14335000Y-10110000D02*
X14365000Y-10140000D01*
X14365000Y-10110000D02*
X14335000Y-10140000D01*
X14379167Y-6839750D02*
X14409167Y-6869750D01*
X14409167Y-6839750D02*
X14379167Y-6869750D01*
X14379167Y-7799750D02*
X14409167Y-7829750D01*
X14409167Y-7799750D02*
X14379167Y-7829750D01*
X14385000Y-11055000D02*
X14415000Y-11085000D01*
X14415000Y-11055000D02*
X14385000Y-11085000D01*
X14435000Y-10975000D02*
X14465000Y-11005000D01*
X14465000Y-10975000D02*
X14435000Y-11005000D01*
X14441000Y-13002000D02*
X14471000Y-13032000D01*
X14471000Y-13002000D02*
X14441000Y-13032000D01*
X14445000Y-11215000D02*
X14475000Y-11245000D01*
X14475000Y-11215000D02*
X14445000Y-11245000D01*
X14447000Y-12810000D02*
X14477000Y-12840000D01*
X14477000Y-12810000D02*
X14447000Y-12840000D01*
X14459167Y-9319750D02*
X14489167Y-9349750D01*
X14489167Y-9319750D02*
X14459167Y-9349750D01*
X14459167Y-11719750D02*
X14489167Y-11749750D01*
X14489167Y-11719750D02*
X14459167Y-11749750D01*
X14465000Y-12115000D02*
X14495000Y-12145000D01*
X14495000Y-12115000D02*
X14465000Y-12145000D01*
X14525000Y-13255000D02*
X14555000Y-13285000D01*
X14555000Y-13255000D02*
X14525000Y-13285000D01*
X14535000Y-10985000D02*
X14565000Y-11015000D01*
X14565000Y-10985000D02*
X14535000Y-11015000D01*
X14539167Y-7319750D02*
X14569167Y-7349750D01*
X14569167Y-7319750D02*
X14539167Y-7349750D01*
X14539167Y-13479750D02*
X14569167Y-13509750D01*
X14569167Y-13479750D02*
X14539167Y-13509750D01*
X14610000Y-10535000D02*
X14640000Y-10565000D01*
X14640000Y-10535000D02*
X14610000Y-10565000D01*
X14619167Y-8759750D02*
X14649167Y-8789750D01*
X14649167Y-8759750D02*
X14619167Y-8789750D01*
X14699167Y-10359750D02*
X14729167Y-10389750D01*
X14729167Y-10359750D02*
X14699167Y-10389750D01*
X14779167Y-10999750D02*
X14809167Y-11029750D01*
X14809167Y-10999750D02*
X14779167Y-11029750D01*
X14785000Y-13645000D02*
X14815000Y-13675000D01*
X14815000Y-13645000D02*
X14785000Y-13675000D01*
X14847000Y-12165000D02*
X14877000Y-12195000D01*
X14877000Y-12165000D02*
X14847000Y-12195000D01*
X14859167Y-6999750D02*
X14889167Y-7029750D01*
X14889167Y-6999750D02*
X14859167Y-7029750D01*
X14859167Y-7639750D02*
X14889167Y-7669750D01*
X14889167Y-7639750D02*
X14859167Y-7669750D01*
X14916000Y-13237000D02*
X14946000Y-13267000D01*
X14946000Y-13237000D02*
X14916000Y-13267000D01*
X14929167Y-11479750D02*
X14959167Y-11509750D01*
X14959167Y-11479750D02*
X14929167Y-11509750D01*
X14959999Y-12540001D02*
X14989999Y-12570001D01*
X14989999Y-12540001D02*
X14959999Y-12570001D01*
X15019167Y-8519750D02*
X15049167Y-8549750D01*
X15049167Y-8519750D02*
X15019167Y-8549750D01*
X15055000Y-10755000D02*
X15085000Y-10785000D01*
X15085000Y-10755000D02*
X15055000Y-10785000D01*
X15065000Y-12455000D02*
X15095000Y-12485000D01*
X15095000Y-12455000D02*
X15065000Y-12485000D01*
X15125000Y-13005000D02*
X15155000Y-13035000D01*
X15155000Y-13005000D02*
X15125000Y-13035000D01*
X15165000Y-7305000D02*
X15195000Y-7335000D01*
X15195000Y-7305000D02*
X15165000Y-7335000D01*
X15169167Y-10189750D02*
X15199167Y-10219750D01*
X15199167Y-10189750D02*
X15169167Y-10219750D01*
X15175000Y-6915000D02*
X15205000Y-6945000D01*
X15205000Y-6915000D02*
X15175000Y-6945000D01*
X15175000Y-7705000D02*
X15205000Y-7735000D01*
X15205000Y-7705000D02*
X15175000Y-7735000D01*
X15175000Y-12255000D02*
X15205000Y-12285000D01*
X15205000Y-12255000D02*
X15175000Y-12285000D01*
X15191000Y-13216000D02*
X15221000Y-13246000D01*
X15221000Y-13216000D02*
X15191000Y-13246000D01*
X15215000Y-12965000D02*
X15245000Y-12995000D01*
X15245000Y-12965000D02*
X15215000Y-12995000D01*
X15259167Y-8919750D02*
X15289167Y-8949750D01*
X15289167Y-8919750D02*
X15259167Y-8949750D01*
X15285000Y-12375000D02*
X15315000Y-12405000D01*
X15315000Y-12375000D02*
X15285000Y-12405000D01*
X15309000Y-12509000D02*
X15339000Y-12539000D01*
X15339000Y-12509000D02*
X15309000Y-12539000D01*
X15323000Y-11083999D02*
X15353000Y-11113999D01*
X15353000Y-11083999D02*
X15323000Y-11113999D01*
X15339167Y-13639750D02*
X15369167Y-13669750D01*
X15369167Y-13639750D02*
X15339167Y-13669750D01*
X15343000Y-13160000D02*
X15373000Y-13190000D01*
X15373000Y-13160000D02*
X15343000Y-13190000D01*
X15348000Y-12984000D02*
X15378000Y-13014000D01*
X15378000Y-12984000D02*
X15348000Y-13014000D01*
X15385000Y-10375000D02*
X15415000Y-10405000D01*
X15415000Y-10375000D02*
X15385000Y-10405000D01*
X15415000Y-6905000D02*
X15445000Y-6935000D01*
X15445000Y-6905000D02*
X15415000Y-6935000D01*
X15419167Y-6759750D02*
X15449167Y-6789750D01*
X15449167Y-6759750D02*
X15419167Y-6789750D01*
X15419167Y-7479750D02*
X15449167Y-7509750D01*
X15449167Y-7479750D02*
X15419167Y-7509750D01*
X15425000Y-7305000D02*
X15455000Y-7335000D01*
X15455000Y-7305000D02*
X15425000Y-7335000D01*
X15435000Y-7695000D02*
X15465000Y-7725000D01*
X15465000Y-7695000D02*
X15435000Y-7725000D01*
X15445000Y-11135000D02*
X15475000Y-11165000D01*
X15475000Y-11135000D02*
X15445000Y-11165000D01*
X15499167Y-9319750D02*
X15529167Y-9349750D01*
X15529167Y-9319750D02*
X15499167Y-9349750D01*
X15579167Y-8439750D02*
X15609167Y-8469750D01*
X15609167Y-8439750D02*
X15579167Y-8469750D01*
X15595000Y-11715000D02*
X15625000Y-11745000D01*
X15625000Y-11715000D02*
X15595000Y-11745000D01*
X15659167Y-7879750D02*
X15689167Y-7909750D01*
X15689167Y-7879750D02*
X15659167Y-7909750D01*
X15659167Y-11879750D02*
X15689167Y-11909750D01*
X15689167Y-11879750D02*
X15659167Y-11909750D01*
X15683000Y-10673000D02*
X15713000Y-10703000D01*
X15713000Y-10673000D02*
X15683000Y-10703000D01*
X15685000Y-13165000D02*
X15715000Y-13195000D01*
X15715000Y-13165000D02*
X15685000Y-13195000D01*
X15739167Y-7079750D02*
X15769167Y-7109750D01*
X15769167Y-7079750D02*
X15739167Y-7109750D01*
X15755000Y-11085000D02*
X15785000Y-11115000D01*
X15785000Y-11085000D02*
X15755000Y-11115000D01*
X15755000Y-12595000D02*
X15785000Y-12625000D01*
X15785000Y-12595000D02*
X15755000Y-12625000D01*
X15803000Y-12849000D02*
X15833000Y-12879000D01*
X15833000Y-12849000D02*
X15803000Y-12879000D01*
X15819167Y-8839750D02*
X15849167Y-8869750D01*
X15849167Y-8839750D02*
X15819167Y-8869750D01*
X15865000Y-13595000D02*
X15895000Y-13625000D01*
X15895000Y-13595000D02*
X15865000Y-13625000D01*
X15899167Y-6599750D02*
X15929167Y-6629750D01*
X15929167Y-6599750D02*
X15899167Y-6629750D01*
X15903000Y-12724000D02*
X15933000Y-12754000D01*
X15933000Y-12724000D02*
X15903000Y-12754000D01*
X15915000Y-10925000D02*
X15945000Y-10955000D01*
X15945000Y-10925000D02*
X15915000Y-10955000D01*
X15915000Y-11245000D02*
X15945000Y-11275000D01*
X15945000Y-11245000D02*
X15915000Y-11275000D01*
X15915000Y-13165000D02*
X15945000Y-13195000D01*
X15945000Y-13165000D02*
X15915000Y-13195000D01*
X15979167Y-7559750D02*
X16009167Y-7589750D01*
X16009167Y-7559750D02*
X15979167Y-7589750D01*
X15979167Y-8199750D02*
X16009167Y-8229750D01*
X16009167Y-8199750D02*
X15979167Y-8229750D01*
X15985000Y-10655000D02*
X16015000Y-10685000D01*
X16015000Y-10655000D02*
X15985000Y-10685000D01*
X15996000Y-11585000D02*
X16026000Y-11615000D01*
X16026000Y-11585000D02*
X15996000Y-11615000D01*
X16015000Y-13465000D02*
X16045000Y-13495000D01*
X16045000Y-13465000D02*
X16015000Y-13495000D01*
X16035000Y-9735000D02*
X16065000Y-9765000D01*
X16065000Y-9735000D02*
X16035000Y-9765000D01*
X16075000Y-11085000D02*
X16105000Y-11115000D01*
X16105000Y-11085000D02*
X16075000Y-11115000D01*
X16075000Y-12285000D02*
X16105000Y-12315000D01*
X16105000Y-12285000D02*
X16075000Y-12315000D01*
X16075000Y-12705000D02*
X16105000Y-12735000D01*
X16105000Y-12705000D02*
X16075000Y-12735000D01*
X16115000Y-13655000D02*
X16145000Y-13685000D01*
X16145000Y-13655000D02*
X16115000Y-13685000D01*
X16115000Y-13005000D02*
X16145000Y-13035000D01*
X16145000Y-13005000D02*
X16115000Y-13035000D01*
X16139167Y-9159750D02*
X16169167Y-9189750D01*
X16169167Y-9159750D02*
X16139167Y-9189750D01*
X16145000Y-14295000D02*
X16175000Y-14325000D01*
X16175000Y-14295000D02*
X16145000Y-14325000D01*
X16205000Y-12985000D02*
X16235000Y-13015000D01*
X16235000Y-12985000D02*
X16205000Y-13015000D01*
X16215000Y-13555000D02*
X16245000Y-13585000D01*
X16245000Y-13555000D02*
X16215000Y-13585000D01*
X16219167Y-8599750D02*
X16249167Y-8629750D01*
X16249167Y-8599750D02*
X16219167Y-8629750D01*
X16219167Y-11799750D02*
X16249167Y-11829750D01*
X16249167Y-11799750D02*
X16219167Y-11829750D01*
X16285000Y-13005000D02*
X16315000Y-13035000D01*
X16315000Y-13005000D02*
X16285000Y-13035000D01*
X16299167Y-7159750D02*
X16329167Y-7189750D01*
X16329167Y-7159750D02*
X16299167Y-7189750D01*
X16299167Y-7879750D02*
X16329167Y-7909750D01*
X16329167Y-7879750D02*
X16299167Y-7909750D01*
X16305000Y-13485000D02*
X16335000Y-13515000D01*
X16335000Y-13485000D02*
X16305000Y-13515000D01*
X16325000Y-10695000D02*
X16355000Y-10725000D01*
X16355000Y-10695000D02*
X16325000Y-10725000D01*
X16345000Y-11335000D02*
X16375000Y-11365000D01*
X16375000Y-11335000D02*
X16345000Y-11365000D01*
X16365000Y-10105000D02*
X16395000Y-10135000D01*
X16395000Y-10105000D02*
X16365000Y-10135000D01*
X16379167Y-12279750D02*
X16409167Y-12309750D01*
X16409167Y-12279750D02*
X16379167Y-12309750D01*
X16385000Y-8855000D02*
X16415000Y-8885000D01*
X16415000Y-8855000D02*
X16385000Y-8885000D01*
X16410000Y-14135000D02*
X16440000Y-14165000D01*
X16440000Y-14135000D02*
X16410000Y-14165000D01*
X16468435Y-13679377D02*
X16498435Y-13709377D01*
X16498435Y-13679377D02*
X16468435Y-13709377D01*
X16495000Y-12935000D02*
X16525000Y-12965000D01*
X16525000Y-12935000D02*
X16495000Y-12965000D01*
X16523000Y-12333000D02*
X16553000Y-12363000D01*
X16553000Y-12333000D02*
X16523000Y-12363000D01*
X16535001Y-13634999D02*
X16565001Y-13664999D01*
X16565001Y-13634999D02*
X16535001Y-13664999D01*
X16539167Y-8279750D02*
X16569167Y-8309750D01*
X16569167Y-8279750D02*
X16539167Y-8309750D01*
X16610000Y-13560000D02*
X16640000Y-13590000D01*
X16640000Y-13560000D02*
X16610000Y-13590000D01*
X16619167Y-8999750D02*
X16649167Y-9029750D01*
X16649167Y-8999750D02*
X16619167Y-9029750D01*
X16619167Y-10759750D02*
X16649167Y-10789750D01*
X16649167Y-10759750D02*
X16619167Y-10789750D01*
X16625000Y-13375000D02*
X16655000Y-13405000D01*
X16655000Y-13375000D02*
X16625000Y-13405000D01*
X16658500Y-14112500D02*
X16688500Y-14142500D01*
X16688500Y-14112500D02*
X16658500Y-14142500D01*
X16660000Y-13860000D02*
X16690000Y-13890000D01*
X16690000Y-13860000D02*
X16660000Y-13890000D01*
X16699167Y-14039750D02*
X16729167Y-14069750D01*
X16729167Y-14039750D02*
X16699167Y-14069750D01*
X16725000Y-12715000D02*
X16755000Y-12745000D01*
X16755000Y-12715000D02*
X16725000Y-12745000D01*
X16725000Y-12945000D02*
X16755000Y-12975000D01*
X16755000Y-12945000D02*
X16725000Y-12975000D01*
X16765000Y-14295000D02*
X16795000Y-14325000D01*
X16795000Y-14295000D02*
X16765000Y-14325000D01*
X16795000Y-13645000D02*
X16825000Y-13675000D01*
X16825000Y-13645000D02*
X16795000Y-13675000D01*
X16813000Y-13558000D02*
X16843000Y-13588000D01*
X16843000Y-13558000D02*
X16813000Y-13588000D01*
X16835000Y-13015000D02*
X16865000Y-13045000D01*
X16865000Y-13015000D02*
X16835000Y-13045000D01*
X16859167Y-8599750D02*
X16889167Y-8629750D01*
X16889167Y-8599750D02*
X16859167Y-8629750D01*
X16859167Y-11799750D02*
X16889167Y-11829750D01*
X16889167Y-11799750D02*
X16859167Y-11829750D01*
X16905000Y-13565000D02*
X16935000Y-13595000D01*
X16935000Y-13565000D02*
X16905000Y-13595000D01*
X16939167Y-6999750D02*
X16969167Y-7029750D01*
X16969167Y-6999750D02*
X16939167Y-7029750D01*
X16939167Y-9319750D02*
X16969167Y-9349750D01*
X16969167Y-9319750D02*
X16939167Y-9349750D01*
X16939167Y-9959750D02*
X16969167Y-9989750D01*
X16969167Y-9959750D02*
X16939167Y-9989750D01*
X16945000Y-6325000D02*
X16975000Y-6355000D01*
X16975000Y-6325000D02*
X16945000Y-6355000D01*
X16960000Y-11135000D02*
X16990000Y-11165000D01*
X16990000Y-11135000D02*
X16960000Y-11165000D01*
X16965000Y-9005000D02*
X16995000Y-9035000D01*
X16995000Y-9005000D02*
X16965000Y-9035000D01*
X16965000Y-10855000D02*
X16995000Y-10885000D01*
X16995000Y-10855000D02*
X16965000Y-10885000D01*
X16989000Y-12516000D02*
X17019000Y-12546000D01*
X17019000Y-12516000D02*
X16989000Y-12546000D01*
X17005000Y-6495000D02*
X17035000Y-6525000D01*
X17035000Y-6495000D02*
X17005000Y-6525000D01*
X17019167Y-10519750D02*
X17049167Y-10549750D01*
X17049167Y-10519750D02*
X17019167Y-10549750D01*
X17085000Y-13465000D02*
X17115000Y-13495000D01*
X17115000Y-13465000D02*
X17085000Y-13495000D01*
X17110000Y-14135000D02*
X17140000Y-14165000D01*
X17140000Y-14135000D02*
X17110000Y-14165000D01*
X17145000Y-14305000D02*
X17175000Y-14335000D01*
X17175000Y-14305000D02*
X17145000Y-14335000D01*
X17155000Y-6495000D02*
X17185000Y-6525000D01*
X17185000Y-6495000D02*
X17155000Y-6525000D01*
X17155000Y-6785000D02*
X17185000Y-6815000D01*
X17185000Y-6785000D02*
X17155000Y-6815000D01*
X17155000Y-13685000D02*
X17185000Y-13715000D01*
X17185000Y-13685000D02*
X17155000Y-13715000D01*
X17155000Y-13855000D02*
X17185000Y-13885000D01*
X17185000Y-13855000D02*
X17155000Y-13885000D01*
X17161000Y-14038000D02*
X17191000Y-14068000D01*
X17191000Y-14038000D02*
X17161000Y-14068000D01*
X17190500Y-12943000D02*
X17220500Y-12973000D01*
X17220500Y-12943000D02*
X17190500Y-12973000D01*
X17215000Y-8635000D02*
X17245000Y-8665000D01*
X17245000Y-8635000D02*
X17215000Y-8665000D01*
X17215000Y-11005000D02*
X17245000Y-11035000D01*
X17245000Y-11005000D02*
X17215000Y-11035000D01*
X17235000Y-13610000D02*
X17265000Y-13640000D01*
X17265000Y-13610000D02*
X17235000Y-13640000D01*
X17259167Y-8999750D02*
X17289167Y-9029750D01*
X17289167Y-8999750D02*
X17259167Y-9029750D01*
X17305000Y-6489000D02*
X17335000Y-6519000D01*
X17335000Y-6489000D02*
X17305000Y-6519000D01*
X17305000Y-13095000D02*
X17335000Y-13125000D01*
X17335000Y-13095000D02*
X17305000Y-13125000D01*
X17335000Y-13455000D02*
X17365000Y-13485000D01*
X17365000Y-13455000D02*
X17335000Y-13485000D01*
X17339167Y-5879750D02*
X17369167Y-5909750D01*
X17369167Y-5879750D02*
X17339167Y-5909750D01*
X17345000Y-13865000D02*
X17375000Y-13895000D01*
X17375000Y-13865000D02*
X17345000Y-13895000D01*
X17385000Y-9485000D02*
X17415000Y-9515000D01*
X17415000Y-9485000D02*
X17385000Y-9515000D01*
X17419167Y-7799750D02*
X17449167Y-7829750D01*
X17449167Y-7799750D02*
X17419167Y-7829750D01*
X17425000Y-6445000D02*
X17455000Y-6475000D01*
X17455000Y-6445000D02*
X17425000Y-6475000D01*
X17425000Y-6585000D02*
X17455000Y-6615000D01*
X17455000Y-6585000D02*
X17425000Y-6615000D01*
X17505000Y-13565000D02*
X17535000Y-13595000D01*
X17535000Y-13565000D02*
X17505000Y-13595000D01*
X17511250Y-14031250D02*
X17541250Y-14061250D01*
X17541250Y-14031250D02*
X17511250Y-14061250D01*
X17535000Y-14295000D02*
X17565000Y-14325000D01*
X17565000Y-14295000D02*
X17535000Y-14325000D01*
X17575000Y-14145000D02*
X17605000Y-14175000D01*
X17605000Y-14145000D02*
X17575000Y-14175000D01*
X17600000Y-13485000D02*
X17630000Y-13515000D01*
X17630000Y-13485000D02*
X17600000Y-13515000D01*
X17659167Y-6395000D02*
X17689167Y-6425000D01*
X17689167Y-6395000D02*
X17659167Y-6425000D01*
X17659167Y-9879750D02*
X17689167Y-9909750D01*
X17689167Y-9879750D02*
X17659167Y-9909750D01*
X17659167Y-10519750D02*
X17689167Y-10549750D01*
X17689167Y-10519750D02*
X17659167Y-10549750D01*
X17659167Y-11159750D02*
X17689167Y-11189750D01*
X17689167Y-11159750D02*
X17659167Y-11189750D01*
X17659167Y-11799750D02*
X17689167Y-11829750D01*
X17689167Y-11799750D02*
X17659167Y-11829750D01*
X17705000Y-6625000D02*
X17735000Y-6655000D01*
X17735000Y-6625000D02*
X17705000Y-6655000D01*
X17732000Y-13169000D02*
X17762000Y-13199000D01*
X17762000Y-13169000D02*
X17732000Y-13199000D01*
X17739167Y-8759750D02*
X17769167Y-8789750D01*
X17769167Y-8759750D02*
X17739167Y-8789750D01*
X17739167Y-12679750D02*
X17769167Y-12709750D01*
X17769167Y-12679750D02*
X17739167Y-12709750D01*
X17819167Y-14119750D02*
X17849167Y-14149750D01*
X17849167Y-14119750D02*
X17819167Y-14149750D01*
X17835000Y-14295000D02*
X17865000Y-14325000D01*
X17865000Y-14295000D02*
X17835000Y-14325000D01*
X17858999Y-13660000D02*
X17888999Y-13690000D01*
X17888999Y-13660000D02*
X17858999Y-13690000D01*
X17865000Y-13945000D02*
X17895000Y-13975000D01*
X17895000Y-13945000D02*
X17865000Y-13975000D01*
X17899167Y-6679750D02*
X17929167Y-6709750D01*
X17929167Y-6679750D02*
X17899167Y-6709750D01*
X17899167Y-7319750D02*
X17929167Y-7349750D01*
X17929167Y-7319750D02*
X17899167Y-7349750D01*
X17899167Y-7959750D02*
X17929167Y-7989750D01*
X17929167Y-7959750D02*
X17899167Y-7989750D01*
X17899167Y-9239750D02*
X17929167Y-9269750D01*
X17929167Y-9239750D02*
X17899167Y-9269750D01*
X15720000Y-10040000D02*
G75*
G03*
X15720000Y-10040000I-20000J0D01*
G01*
X17124000Y-12183000D02*
G75*
G03*
X17124000Y-12183000I-20000J0D01*
G01*
X17520000Y-9760000D02*
G75*
G03*
X17520000Y-9760000I-20000J0D01*
G01*
X17810000Y-13390000D02*
G75*
G03*
X17810000Y-13390000I-20000J0D01*
G01*
X13860000Y-10507500D02*
X13860000Y-10557500D01*
X13835000Y-10532500D02*
X13885000Y-10532500D01*
X13895000Y-10517500D02*
X13825000Y-10517500D01*
X13895000Y-10547500D02*
X13825000Y-10547500D01*
X13825000Y-10517500D02*
G75*
G03*
X13825000Y-10547500I0J-15000D01*
G01*
X13895000Y-10547500D02*
G75*
G03*
X13895000Y-10517500I0J15000D01*
G01*
X14140000Y-10292500D02*
X14140000Y-10342500D01*
X14115000Y-10317500D02*
X14165000Y-10317500D01*
X14195000Y-10302500D02*
X14085000Y-10302500D01*
X14195000Y-10332500D02*
X14085000Y-10332500D01*
X14085000Y-10302500D02*
G75*
G03*
X14085000Y-10332500I0J-15000D01*
G01*
X14195000Y-10332500D02*
G75*
G03*
X14195000Y-10302500I0J15000D01*
G01*
X14420000Y-10507500D02*
X14420000Y-10557500D01*
X14395000Y-10532500D02*
X14445000Y-10532500D01*
X14455000Y-10517500D02*
X14385000Y-10517500D01*
X14455000Y-10547500D02*
X14385000Y-10547500D01*
X14385000Y-10517500D02*
G75*
G03*
X14385000Y-10547500I0J-15000D01*
G01*
X14455000Y-10547500D02*
G75*
G03*
X14455000Y-10517500I0J15000D01*
G01*
X14731820Y-9871820D02*
X14731820Y-9808180D01*
X14668180Y-9808180D01*
X14668180Y-9871820D01*
X14731820Y-9871820D01*
X14981820Y-9871820D02*
X14981820Y-9808180D01*
X14918180Y-9808180D01*
X14918180Y-9871820D01*
X14981820Y-9871820D01*
X15181820Y-9871820D02*
X15181820Y-9808180D01*
X15118180Y-9808180D01*
X15118180Y-9871820D01*
X15181820Y-9871820D01*
X15431820Y-9871820D02*
X15431820Y-9808180D01*
X15368180Y-9808180D01*
X15368180Y-9871820D01*
X15431820Y-9871820D01*
X13933500Y-8098500D02*
X13983500Y-8048500D01*
X13933500Y-7998500D01*
X13883500Y-8048500D01*
X13933500Y-8098500D01*
X13933500Y-8352500D02*
X13983500Y-8302500D01*
X13933500Y-8252500D01*
X13883500Y-8302500D01*
X13933500Y-8352500D01*
X14187500Y-8098500D02*
X14237500Y-8048500D01*
X14187500Y-7998500D01*
X14137500Y-8048500D01*
X14187500Y-8098500D01*
X14187500Y-8352500D02*
X14237500Y-8302500D01*
X14187500Y-8252500D01*
X14137500Y-8302500D01*
X14187500Y-8352500D01*
X14441500Y-8098500D02*
X14491500Y-8048500D01*
X14441500Y-7998500D01*
X14391500Y-8048500D01*
X14441500Y-8098500D01*
X14441500Y-8352500D02*
X14491500Y-8302500D01*
X14441500Y-8252500D01*
X14391500Y-8302500D01*
X14441500Y-8352500D01*
X14695500Y-8098500D02*
X14745500Y-8048500D01*
X14695500Y-7998500D01*
X14645500Y-8048500D01*
X14695500Y-8098500D01*
X14695500Y-8352500D02*
X14745500Y-8302500D01*
X14695500Y-8252500D01*
X14645500Y-8302500D01*
X14695500Y-8352500D01*
X14949500Y-8098500D02*
X14999500Y-8048500D01*
X14949500Y-7998500D01*
X14899500Y-8048500D01*
X14949500Y-8098500D01*
X14949500Y-8352500D02*
X14999500Y-8302500D01*
X14949500Y-8252500D01*
X14899500Y-8302500D01*
X14949500Y-8352500D01*
X15203500Y-8098500D02*
X15253500Y-8048500D01*
X15203500Y-7998500D01*
X15153500Y-8048500D01*
X15203500Y-8098500D01*
X15203500Y-8352500D02*
X15253500Y-8302500D01*
X15203500Y-8252500D01*
X15153500Y-8302500D01*
X15203500Y-8352500D01*
X15457500Y-8098500D02*
X15507500Y-8048500D01*
X15457500Y-7998500D01*
X15407500Y-8048500D01*
X15457500Y-8098500D01*
X15457500Y-8352500D02*
X15507500Y-8302500D01*
X15457500Y-8252500D01*
X15407500Y-8302500D01*
X15457500Y-8352500D01*
X13795000Y-8810000D02*
X13897000Y-8912000D01*
X13897000Y-8810000D02*
X13795000Y-8912000D01*
X13897000Y-8861000D02*
G75*
G03*
X13897000Y-8861000I-51000J0D01*
G01*
X13795000Y-9110000D02*
X13897000Y-9212000D01*
X13897000Y-9110000D02*
X13795000Y-9212000D01*
X13897000Y-9161000D02*
G75*
G03*
X13897000Y-9161000I-51000J0D01*
G01*
X14328000Y-9715000D02*
X14458000Y-9845000D01*
X14458000Y-9715000D02*
X14328000Y-9845000D01*
X14393000Y-9715000D02*
X14393000Y-9845000D01*
X14328000Y-9780000D02*
X14458000Y-9780000D01*
X14448000Y-9830000D02*
X14448000Y-9730000D01*
X14338000Y-9830000D02*
X14338000Y-9730000D01*
X14448000Y-9730000D02*
G75*
G03*
X14338000Y-9730000I-55000J0D01*
G01*
X14338000Y-9830000D02*
G75*
G03*
X14448000Y-9830000I55000J0D01*
G01*
X14985000Y-9297000D02*
X15115000Y-9427000D01*
X15115000Y-9297000D02*
X14985000Y-9427000D01*
X15050000Y-9297000D02*
X15050000Y-9427000D01*
X14985000Y-9362000D02*
X15115000Y-9362000D01*
X15000000Y-9417000D02*
X15100000Y-9417000D01*
X15000000Y-9307000D02*
X15100000Y-9307000D01*
X15100000Y-9417000D02*
G75*
G03*
X15100000Y-9307000I0J55000D01*
G01*
X15000000Y-9307000D02*
G75*
G03*
X15000000Y-9417000I0J-55000D01*
G01*
X15642000Y-9715000D02*
X15772000Y-9845000D01*
X15772000Y-9715000D02*
X15642000Y-9845000D01*
X15707000Y-9715000D02*
X15707000Y-9845000D01*
X15642000Y-9780000D02*
X15772000Y-9780000D01*
X15652000Y-9730000D02*
X15652000Y-9830000D01*
X15762000Y-9730000D02*
X15762000Y-9830000D01*
X15652000Y-9830000D02*
G75*
G03*
X15762000Y-9830000I55000J0D01*
G01*
X15762000Y-9730000D02*
G75*
G03*
X15652000Y-9730000I-55000J0D01*
G01*
X12374000Y-5983000D02*
X12506000Y-6115000D01*
X12506000Y-5983000D02*
X12374000Y-6115000D01*
X12486669Y-6095669D02*
X12486669Y-6002330D01*
X12393330Y-6002330D01*
X12393330Y-6095669D01*
X12486669Y-6095669D01*
X12374000Y-13205000D02*
X12506000Y-13337000D01*
X12506000Y-13205000D02*
X12374000Y-13337000D01*
X12486669Y-13317669D02*
X12486669Y-13224330D01*
X12393330Y-13224330D01*
X12393330Y-13317669D01*
X12486669Y-13317669D01*
X16894000Y-5983000D02*
X17026000Y-6115000D01*
X17026000Y-5983000D02*
X16894000Y-6115000D01*
X17006670Y-6095669D02*
X17006670Y-6002330D01*
X16913331Y-6002330D01*
X16913331Y-6095669D01*
X17006670Y-6095669D01*
X16894000Y-13205000D02*
X17026000Y-13337000D01*
X17026000Y-13205000D02*
X16894000Y-13337000D01*
X17006670Y-13317669D02*
X17006670Y-13224330D01*
X16913331Y-13224330D01*
X16913331Y-13317669D01*
X17006670Y-13317669D01*
X17095000Y-6585000D02*
X17245000Y-6735000D01*
X17245000Y-6585000D02*
X17095000Y-6735000D01*
X17170000Y-6735000D02*
X17245000Y-6660000D01*
X17170000Y-6585000D01*
X17095000Y-6660000D01*
X17170000Y-6735000D01*
X14220000Y-11360000D02*
X14220000Y-11560000D01*
X14120000Y-11460000D02*
X14320000Y-11460000D01*
X14320000Y-11460000D02*
G75*
G03*
X14320000Y-11460000I-100000J0D01*
G01*
X15930000Y-11000000D02*
X15930000Y-11200000D01*
X15830000Y-11100000D02*
X16030000Y-11100000D01*
X16030000Y-11100000D02*
G75*
G03*
X16030000Y-11100000I-100000J0D01*
G01*
D12*
X11683928Y-14918214D02*
X11683928Y-14618214D01*
X11755357Y-14618214D01*
X11798214Y-14632500D01*
X11826786Y-14661071D01*
X11841071Y-14689643D01*
X11855357Y-14746786D01*
X11855357Y-14789643D01*
X11841071Y-14846786D01*
X11826786Y-14875357D01*
X11798214Y-14903929D01*
X11755357Y-14918214D01*
X11683928Y-14918214D01*
X11983928Y-14918214D02*
X11983928Y-14718214D01*
X11983928Y-14775357D02*
X11998214Y-14746786D01*
X12012500Y-14732500D01*
X12041071Y-14718214D01*
X12069643Y-14718214D01*
X12169643Y-14918214D02*
X12169643Y-14718214D01*
X12169643Y-14618214D02*
X12155357Y-14632500D01*
X12169643Y-14646786D01*
X12183928Y-14632500D01*
X12169643Y-14618214D01*
X12169643Y-14646786D01*
X12355357Y-14918214D02*
X12326786Y-14903929D01*
X12312500Y-14875357D01*
X12312500Y-14618214D01*
X12512500Y-14918214D02*
X12483928Y-14903929D01*
X12469643Y-14875357D01*
X12469643Y-14618214D01*
X12855357Y-14918214D02*
X12855357Y-14618214D01*
X12955357Y-14832500D01*
X13055357Y-14618214D01*
X13055357Y-14918214D01*
X13326786Y-14918214D02*
X13326786Y-14761071D01*
X13312500Y-14732500D01*
X13283928Y-14718214D01*
X13226786Y-14718214D01*
X13198214Y-14732500D01*
X13326786Y-14903929D02*
X13298214Y-14918214D01*
X13226786Y-14918214D01*
X13198214Y-14903929D01*
X13183928Y-14875357D01*
X13183928Y-14846786D01*
X13198214Y-14818214D01*
X13226786Y-14803929D01*
X13298214Y-14803929D01*
X13326786Y-14789643D01*
X13469643Y-14718214D02*
X13469643Y-15018214D01*
X13469643Y-14732500D02*
X13498214Y-14718214D01*
X13555357Y-14718214D01*
X13583928Y-14732500D01*
X13598214Y-14746786D01*
X13612500Y-14775357D01*
X13612500Y-14861071D01*
X13598214Y-14889643D01*
X13583928Y-14903929D01*
X13555357Y-14918214D01*
X13498214Y-14918214D01*
X13469643Y-14903929D01*
X13741071Y-14889643D02*
X13755357Y-14903929D01*
X13741071Y-14918214D01*
X13726786Y-14903929D01*
X13741071Y-14889643D01*
X13741071Y-14918214D01*
X13741071Y-14732500D02*
X13755357Y-14746786D01*
X13741071Y-14761071D01*
X13726786Y-14746786D01*
X13741071Y-14732500D01*
X13741071Y-14761071D01*
X11367500Y-15397500D02*
X11397500Y-15427500D01*
X11397500Y-15397500D02*
X11367500Y-15427500D01*
X11741071Y-15248214D02*
X11769643Y-15248214D01*
X11798214Y-15262500D01*
X11812500Y-15276786D01*
X11826786Y-15305357D01*
X11841071Y-15362500D01*
X11841071Y-15433929D01*
X11826786Y-15491071D01*
X11812500Y-15519643D01*
X11798214Y-15533929D01*
X11769643Y-15548214D01*
X11741071Y-15548214D01*
X11712500Y-15533929D01*
X11698214Y-15519643D01*
X11683928Y-15491071D01*
X11669643Y-15433929D01*
X11669643Y-15362500D01*
X11683928Y-15305357D01*
X11698214Y-15276786D01*
X11712500Y-15262500D01*
X11741071Y-15248214D01*
X11969643Y-15519643D02*
X11983928Y-15533929D01*
X11969643Y-15548214D01*
X11955357Y-15533929D01*
X11969643Y-15519643D01*
X11969643Y-15548214D01*
X12083928Y-15248214D02*
X12269643Y-15248214D01*
X12169643Y-15362500D01*
X12212500Y-15362500D01*
X12241071Y-15376786D01*
X12255357Y-15391071D01*
X12269643Y-15419643D01*
X12269643Y-15491071D01*
X12255357Y-15519643D01*
X12241071Y-15533929D01*
X12212500Y-15548214D01*
X12126786Y-15548214D01*
X12098214Y-15533929D01*
X12083928Y-15519643D01*
X12455357Y-15248214D02*
X12483928Y-15248214D01*
X12512500Y-15262500D01*
X12526786Y-15276786D01*
X12541071Y-15305357D01*
X12555357Y-15362500D01*
X12555357Y-15433929D01*
X12541071Y-15491071D01*
X12526786Y-15519643D01*
X12512500Y-15533929D01*
X12483928Y-15548214D01*
X12455357Y-15548214D01*
X12426786Y-15533929D01*
X12412500Y-15519643D01*
X12398214Y-15491071D01*
X12383928Y-15433929D01*
X12383928Y-15362500D01*
X12398214Y-15305357D01*
X12412500Y-15276786D01*
X12426786Y-15262500D01*
X12455357Y-15248214D01*
X12683928Y-15548214D02*
X12683928Y-15348214D01*
X12683928Y-15376786D02*
X12698214Y-15362500D01*
X12726786Y-15348214D01*
X12769643Y-15348214D01*
X12798214Y-15362500D01*
X12812500Y-15391071D01*
X12812500Y-15548214D01*
X12812500Y-15391071D02*
X12826786Y-15362500D01*
X12855357Y-15348214D01*
X12898214Y-15348214D01*
X12926786Y-15362500D01*
X12941071Y-15391071D01*
X12941071Y-15548214D01*
X13083928Y-15548214D02*
X13083928Y-15348214D01*
X13083928Y-15376786D02*
X13098214Y-15362500D01*
X13126786Y-15348214D01*
X13169643Y-15348214D01*
X13198214Y-15362500D01*
X13212500Y-15391071D01*
X13212500Y-15548214D01*
X13212500Y-15391071D02*
X13226786Y-15362500D01*
X13255357Y-15348214D01*
X13298214Y-15348214D01*
X13326786Y-15362500D01*
X13341071Y-15391071D01*
X13341071Y-15548214D01*
X13926786Y-15233929D02*
X13669643Y-15619643D01*
X14312500Y-15248214D02*
X14341071Y-15248214D01*
X14369643Y-15262500D01*
X14383928Y-15276786D01*
X14398214Y-15305357D01*
X14412500Y-15362500D01*
X14412500Y-15433929D01*
X14398214Y-15491071D01*
X14383928Y-15519643D01*
X14369643Y-15533929D01*
X14341071Y-15548214D01*
X14312500Y-15548214D01*
X14283928Y-15533929D01*
X14269643Y-15519643D01*
X14255357Y-15491071D01*
X14241071Y-15433929D01*
X14241071Y-15362500D01*
X14255357Y-15305357D01*
X14269643Y-15276786D01*
X14283928Y-15262500D01*
X14312500Y-15248214D01*
X14541071Y-15519643D02*
X14555357Y-15533929D01*
X14541071Y-15548214D01*
X14526786Y-15533929D01*
X14541071Y-15519643D01*
X14541071Y-15548214D01*
X14741071Y-15248214D02*
X14769643Y-15248214D01*
X14798214Y-15262500D01*
X14812500Y-15276786D01*
X14826786Y-15305357D01*
X14841071Y-15362500D01*
X14841071Y-15433929D01*
X14826786Y-15491071D01*
X14812500Y-15519643D01*
X14798214Y-15533929D01*
X14769643Y-15548214D01*
X14741071Y-15548214D01*
X14712500Y-15533929D01*
X14698214Y-15519643D01*
X14683928Y-15491071D01*
X14669643Y-15433929D01*
X14669643Y-15362500D01*
X14683928Y-15305357D01*
X14698214Y-15276786D01*
X14712500Y-15262500D01*
X14741071Y-15248214D01*
X15126786Y-15548214D02*
X14955357Y-15548214D01*
X15041071Y-15548214D02*
X15041071Y-15248214D01*
X15012500Y-15291071D01*
X14983928Y-15319643D01*
X14955357Y-15333929D01*
X15241071Y-15276786D02*
X15255357Y-15262500D01*
X15283928Y-15248214D01*
X15355357Y-15248214D01*
X15383928Y-15262500D01*
X15398214Y-15276786D01*
X15412500Y-15305357D01*
X15412500Y-15333929D01*
X15398214Y-15376786D01*
X15226786Y-15548214D01*
X15412500Y-15548214D01*
X15526786Y-15248214D02*
X15526786Y-15305357D01*
X15641071Y-15248214D02*
X15641071Y-15305357D01*
X16083928Y-15662500D02*
X16069643Y-15648214D01*
X16041071Y-15605357D01*
X16026786Y-15576786D01*
X16012500Y-15533929D01*
X15998214Y-15462500D01*
X15998214Y-15405357D01*
X16012500Y-15333929D01*
X16026786Y-15291071D01*
X16041071Y-15262500D01*
X16069643Y-15219643D01*
X16083928Y-15205357D01*
X16169643Y-15248214D02*
X16355357Y-15248214D01*
X16255357Y-15362500D01*
X16298214Y-15362500D01*
X16326786Y-15376786D01*
X16341071Y-15391071D01*
X16355357Y-15419643D01*
X16355357Y-15491071D01*
X16341071Y-15519643D01*
X16326786Y-15533929D01*
X16298214Y-15548214D01*
X16212500Y-15548214D01*
X16183928Y-15533929D01*
X16169643Y-15519643D01*
X16641071Y-15548214D02*
X16469643Y-15548214D01*
X16555357Y-15548214D02*
X16555357Y-15248214D01*
X16526786Y-15291071D01*
X16498214Y-15319643D01*
X16469643Y-15333929D01*
X16926786Y-15548214D02*
X16755357Y-15548214D01*
X16841071Y-15548214D02*
X16841071Y-15248214D01*
X16812500Y-15291071D01*
X16783928Y-15319643D01*
X16755357Y-15333929D01*
X17283928Y-15548214D02*
X17283928Y-15248214D01*
X17412500Y-15548214D02*
X17412500Y-15391071D01*
X17398214Y-15362500D01*
X17369643Y-15348214D01*
X17326786Y-15348214D01*
X17298214Y-15362500D01*
X17283928Y-15376786D01*
X17598214Y-15548214D02*
X17569643Y-15533929D01*
X17555357Y-15519643D01*
X17541071Y-15491071D01*
X17541071Y-15405357D01*
X17555357Y-15376786D01*
X17569643Y-15362500D01*
X17598214Y-15348214D01*
X17641071Y-15348214D01*
X17669643Y-15362500D01*
X17683928Y-15376786D01*
X17698214Y-15405357D01*
X17698214Y-15491071D01*
X17683928Y-15519643D01*
X17669643Y-15533929D01*
X17641071Y-15548214D01*
X17598214Y-15548214D01*
X17869643Y-15548214D02*
X17841071Y-15533929D01*
X17826786Y-15505357D01*
X17826786Y-15248214D01*
X18098214Y-15533929D02*
X18069643Y-15548214D01*
X18012500Y-15548214D01*
X17983928Y-15533929D01*
X17969643Y-15505357D01*
X17969643Y-15391071D01*
X17983928Y-15362500D01*
X18012500Y-15348214D01*
X18069643Y-15348214D01*
X18098214Y-15362500D01*
X18112500Y-15391071D01*
X18112500Y-15419643D01*
X17969643Y-15448214D01*
X18226786Y-15533929D02*
X18255357Y-15548214D01*
X18312500Y-15548214D01*
X18341071Y-15533929D01*
X18355357Y-15505357D01*
X18355357Y-15491071D01*
X18341071Y-15462500D01*
X18312500Y-15448214D01*
X18269643Y-15448214D01*
X18241071Y-15433929D01*
X18226786Y-15405357D01*
X18226786Y-15391071D01*
X18241071Y-15362500D01*
X18269643Y-15348214D01*
X18312500Y-15348214D01*
X18341071Y-15362500D01*
X18455357Y-15662500D02*
X18469643Y-15648214D01*
X18498214Y-15605357D01*
X18512500Y-15576786D01*
X18526786Y-15533929D01*
X18541071Y-15462500D01*
X18541071Y-15405357D01*
X18526786Y-15333929D01*
X18512500Y-15291071D01*
X18498214Y-15262500D01*
X18469643Y-15219643D01*
X18455357Y-15205357D01*
X11397500Y-15808500D02*
G75*
G03*
X11397500Y-15808500I-20000J0D01*
G01*
X11741071Y-15644214D02*
X11769643Y-15644214D01*
X11798214Y-15658500D01*
X11812500Y-15672786D01*
X11826786Y-15701357D01*
X11841071Y-15758500D01*
X11841071Y-15829929D01*
X11826786Y-15887071D01*
X11812500Y-15915643D01*
X11798214Y-15929929D01*
X11769643Y-15944214D01*
X11741071Y-15944214D01*
X11712500Y-15929929D01*
X11698214Y-15915643D01*
X11683928Y-15887071D01*
X11669643Y-15829929D01*
X11669643Y-15758500D01*
X11683928Y-15701357D01*
X11698214Y-15672786D01*
X11712500Y-15658500D01*
X11741071Y-15644214D01*
X11969643Y-15915643D02*
X11983928Y-15929929D01*
X11969643Y-15944214D01*
X11955357Y-15929929D01*
X11969643Y-15915643D01*
X11969643Y-15944214D01*
X12241071Y-15744214D02*
X12241071Y-15944214D01*
X12169643Y-15629929D02*
X12098214Y-15844214D01*
X12283928Y-15844214D01*
X12455357Y-15644214D02*
X12483928Y-15644214D01*
X12512500Y-15658500D01*
X12526786Y-15672786D01*
X12541071Y-15701357D01*
X12555357Y-15758500D01*
X12555357Y-15829929D01*
X12541071Y-15887071D01*
X12526786Y-15915643D01*
X12512500Y-15929929D01*
X12483928Y-15944214D01*
X12455357Y-15944214D01*
X12426786Y-15929929D01*
X12412500Y-15915643D01*
X12398214Y-15887071D01*
X12383928Y-15829929D01*
X12383928Y-15758500D01*
X12398214Y-15701357D01*
X12412500Y-15672786D01*
X12426786Y-15658500D01*
X12455357Y-15644214D01*
X12683928Y-15944214D02*
X12683928Y-15744214D01*
X12683928Y-15772786D02*
X12698214Y-15758500D01*
X12726786Y-15744214D01*
X12769643Y-15744214D01*
X12798214Y-15758500D01*
X12812500Y-15787071D01*
X12812500Y-15944214D01*
X12812500Y-15787071D02*
X12826786Y-15758500D01*
X12855357Y-15744214D01*
X12898214Y-15744214D01*
X12926786Y-15758500D01*
X12941071Y-15787071D01*
X12941071Y-15944214D01*
X13083928Y-15944214D02*
X13083928Y-15744214D01*
X13083928Y-15772786D02*
X13098214Y-15758500D01*
X13126786Y-15744214D01*
X13169643Y-15744214D01*
X13198214Y-15758500D01*
X13212500Y-15787071D01*
X13212500Y-15944214D01*
X13212500Y-15787071D02*
X13226786Y-15758500D01*
X13255357Y-15744214D01*
X13298214Y-15744214D01*
X13326786Y-15758500D01*
X13341071Y-15787071D01*
X13341071Y-15944214D01*
X13926786Y-15629929D02*
X13669643Y-16015643D01*
X14312500Y-15644214D02*
X14341071Y-15644214D01*
X14369643Y-15658500D01*
X14383928Y-15672786D01*
X14398214Y-15701357D01*
X14412500Y-15758500D01*
X14412500Y-15829929D01*
X14398214Y-15887071D01*
X14383928Y-15915643D01*
X14369643Y-15929929D01*
X14341071Y-15944214D01*
X14312500Y-15944214D01*
X14283928Y-15929929D01*
X14269643Y-15915643D01*
X14255357Y-15887071D01*
X14241071Y-15829929D01*
X14241071Y-15758500D01*
X14255357Y-15701357D01*
X14269643Y-15672786D01*
X14283928Y-15658500D01*
X14312500Y-15644214D01*
X14541071Y-15915643D02*
X14555357Y-15929929D01*
X14541071Y-15944214D01*
X14526786Y-15929929D01*
X14541071Y-15915643D01*
X14541071Y-15944214D01*
X14741071Y-15644214D02*
X14769643Y-15644214D01*
X14798214Y-15658500D01*
X14812500Y-15672786D01*
X14826786Y-15701357D01*
X14841071Y-15758500D01*
X14841071Y-15829929D01*
X14826786Y-15887071D01*
X14812500Y-15915643D01*
X14798214Y-15929929D01*
X14769643Y-15944214D01*
X14741071Y-15944214D01*
X14712500Y-15929929D01*
X14698214Y-15915643D01*
X14683928Y-15887071D01*
X14669643Y-15829929D01*
X14669643Y-15758500D01*
X14683928Y-15701357D01*
X14698214Y-15672786D01*
X14712500Y-15658500D01*
X14741071Y-15644214D01*
X15126786Y-15944214D02*
X14955357Y-15944214D01*
X15041071Y-15944214D02*
X15041071Y-15644214D01*
X15012500Y-15687071D01*
X14983928Y-15715643D01*
X14955357Y-15729929D01*
X15383928Y-15644214D02*
X15326786Y-15644214D01*
X15298214Y-15658500D01*
X15283928Y-15672786D01*
X15255357Y-15715643D01*
X15241071Y-15772786D01*
X15241071Y-15887071D01*
X15255357Y-15915643D01*
X15269643Y-15929929D01*
X15298214Y-15944214D01*
X15355357Y-15944214D01*
X15383928Y-15929929D01*
X15398214Y-15915643D01*
X15412500Y-15887071D01*
X15412500Y-15815643D01*
X15398214Y-15787071D01*
X15383928Y-15772786D01*
X15355357Y-15758500D01*
X15298214Y-15758500D01*
X15269643Y-15772786D01*
X15255357Y-15787071D01*
X15241071Y-15815643D01*
X15526786Y-15644214D02*
X15526786Y-15701357D01*
X15641071Y-15644214D02*
X15641071Y-15701357D01*
X16083928Y-16058500D02*
X16069643Y-16044214D01*
X16041071Y-16001357D01*
X16026786Y-15972786D01*
X16012500Y-15929929D01*
X15998214Y-15858500D01*
X15998214Y-15801357D01*
X16012500Y-15729929D01*
X16026786Y-15687071D01*
X16041071Y-15658500D01*
X16069643Y-15615643D01*
X16083928Y-15601357D01*
X16326786Y-15744214D02*
X16326786Y-15944214D01*
X16255357Y-15629929D02*
X16183928Y-15844214D01*
X16369643Y-15844214D01*
X16712500Y-15944214D02*
X16712500Y-15644214D01*
X16841071Y-15944214D02*
X16841071Y-15787071D01*
X16826786Y-15758500D01*
X16798214Y-15744214D01*
X16755357Y-15744214D01*
X16726786Y-15758500D01*
X16712500Y-15772786D01*
X17026786Y-15944214D02*
X16998214Y-15929929D01*
X16983928Y-15915643D01*
X16969643Y-15887071D01*
X16969643Y-15801357D01*
X16983928Y-15772786D01*
X16998214Y-15758500D01*
X17026786Y-15744214D01*
X17069643Y-15744214D01*
X17098214Y-15758500D01*
X17112500Y-15772786D01*
X17126786Y-15801357D01*
X17126786Y-15887071D01*
X17112500Y-15915643D01*
X17098214Y-15929929D01*
X17069643Y-15944214D01*
X17026786Y-15944214D01*
X17298214Y-15944214D02*
X17269643Y-15929929D01*
X17255357Y-15901357D01*
X17255357Y-15644214D01*
X17526786Y-15929929D02*
X17498214Y-15944214D01*
X17441071Y-15944214D01*
X17412500Y-15929929D01*
X17398214Y-15901357D01*
X17398214Y-15787071D01*
X17412500Y-15758500D01*
X17441071Y-15744214D01*
X17498214Y-15744214D01*
X17526786Y-15758500D01*
X17541071Y-15787071D01*
X17541071Y-15815643D01*
X17398214Y-15844214D01*
X17655357Y-15929929D02*
X17683928Y-15944214D01*
X17741071Y-15944214D01*
X17769643Y-15929929D01*
X17783928Y-15901357D01*
X17783928Y-15887071D01*
X17769643Y-15858500D01*
X17741071Y-15844214D01*
X17698214Y-15844214D01*
X17669643Y-15829929D01*
X17655357Y-15801357D01*
X17655357Y-15787071D01*
X17669643Y-15758500D01*
X17698214Y-15744214D01*
X17741071Y-15744214D01*
X17769643Y-15758500D01*
X17883928Y-16058500D02*
X17898214Y-16044214D01*
X17926786Y-16001357D01*
X17941071Y-15972786D01*
X17955357Y-15929929D01*
X17969643Y-15858500D01*
X17969643Y-15801357D01*
X17955357Y-15729929D01*
X17941071Y-15687071D01*
X17926786Y-15658500D01*
X17898214Y-15615643D01*
X17883928Y-15601357D01*
X11372500Y-16179500D02*
X11372500Y-16229500D01*
X11347500Y-16204500D02*
X11397500Y-16204500D01*
X11741071Y-16040214D02*
X11769643Y-16040214D01*
X11798214Y-16054500D01*
X11812500Y-16068786D01*
X11826786Y-16097357D01*
X11841071Y-16154500D01*
X11841071Y-16225929D01*
X11826786Y-16283071D01*
X11812500Y-16311643D01*
X11798214Y-16325929D01*
X11769643Y-16340214D01*
X11741071Y-16340214D01*
X11712500Y-16325929D01*
X11698214Y-16311643D01*
X11683928Y-16283071D01*
X11669643Y-16225929D01*
X11669643Y-16154500D01*
X11683928Y-16097357D01*
X11698214Y-16068786D01*
X11712500Y-16054500D01*
X11741071Y-16040214D01*
X11969643Y-16311643D02*
X11983928Y-16325929D01*
X11969643Y-16340214D01*
X11955357Y-16325929D01*
X11969643Y-16311643D01*
X11969643Y-16340214D01*
X12255357Y-16040214D02*
X12112500Y-16040214D01*
X12098214Y-16183071D01*
X12112500Y-16168786D01*
X12141071Y-16154500D01*
X12212500Y-16154500D01*
X12241071Y-16168786D01*
X12255357Y-16183071D01*
X12269643Y-16211643D01*
X12269643Y-16283071D01*
X12255357Y-16311643D01*
X12241071Y-16325929D01*
X12212500Y-16340214D01*
X12141071Y-16340214D01*
X12112500Y-16325929D01*
X12098214Y-16311643D01*
X12455357Y-16040214D02*
X12483928Y-16040214D01*
X12512500Y-16054500D01*
X12526786Y-16068786D01*
X12541071Y-16097357D01*
X12555357Y-16154500D01*
X12555357Y-16225929D01*
X12541071Y-16283071D01*
X12526786Y-16311643D01*
X12512500Y-16325929D01*
X12483928Y-16340214D01*
X12455357Y-16340214D01*
X12426786Y-16325929D01*
X12412500Y-16311643D01*
X12398214Y-16283071D01*
X12383928Y-16225929D01*
X12383928Y-16154500D01*
X12398214Y-16097357D01*
X12412500Y-16068786D01*
X12426786Y-16054500D01*
X12455357Y-16040214D01*
X12683928Y-16340214D02*
X12683928Y-16140214D01*
X12683928Y-16168786D02*
X12698214Y-16154500D01*
X12726786Y-16140214D01*
X12769643Y-16140214D01*
X12798214Y-16154500D01*
X12812500Y-16183071D01*
X12812500Y-16340214D01*
X12812500Y-16183071D02*
X12826786Y-16154500D01*
X12855357Y-16140214D01*
X12898214Y-16140214D01*
X12926786Y-16154500D01*
X12941071Y-16183071D01*
X12941071Y-16340214D01*
X13083928Y-16340214D02*
X13083928Y-16140214D01*
X13083928Y-16168786D02*
X13098214Y-16154500D01*
X13126786Y-16140214D01*
X13169643Y-16140214D01*
X13198214Y-16154500D01*
X13212500Y-16183071D01*
X13212500Y-16340214D01*
X13212500Y-16183071D02*
X13226786Y-16154500D01*
X13255357Y-16140214D01*
X13298214Y-16140214D01*
X13326786Y-16154500D01*
X13341071Y-16183071D01*
X13341071Y-16340214D01*
X13926786Y-16025929D02*
X13669643Y-16411643D01*
X14312500Y-16040214D02*
X14341071Y-16040214D01*
X14369643Y-16054500D01*
X14383928Y-16068786D01*
X14398214Y-16097357D01*
X14412500Y-16154500D01*
X14412500Y-16225929D01*
X14398214Y-16283071D01*
X14383928Y-16311643D01*
X14369643Y-16325929D01*
X14341071Y-16340214D01*
X14312500Y-16340214D01*
X14283928Y-16325929D01*
X14269643Y-16311643D01*
X14255357Y-16283071D01*
X14241071Y-16225929D01*
X14241071Y-16154500D01*
X14255357Y-16097357D01*
X14269643Y-16068786D01*
X14283928Y-16054500D01*
X14312500Y-16040214D01*
X14541071Y-16311643D02*
X14555357Y-16325929D01*
X14541071Y-16340214D01*
X14526786Y-16325929D01*
X14541071Y-16311643D01*
X14541071Y-16340214D01*
X14741071Y-16040214D02*
X14769643Y-16040214D01*
X14798214Y-16054500D01*
X14812500Y-16068786D01*
X14826786Y-16097357D01*
X14841071Y-16154500D01*
X14841071Y-16225929D01*
X14826786Y-16283071D01*
X14812500Y-16311643D01*
X14798214Y-16325929D01*
X14769643Y-16340214D01*
X14741071Y-16340214D01*
X14712500Y-16325929D01*
X14698214Y-16311643D01*
X14683928Y-16283071D01*
X14669643Y-16225929D01*
X14669643Y-16154500D01*
X14683928Y-16097357D01*
X14698214Y-16068786D01*
X14712500Y-16054500D01*
X14741071Y-16040214D01*
X14955357Y-16068786D02*
X14969643Y-16054500D01*
X14998214Y-16040214D01*
X15069643Y-16040214D01*
X15098214Y-16054500D01*
X15112500Y-16068786D01*
X15126786Y-16097357D01*
X15126786Y-16125929D01*
X15112500Y-16168786D01*
X14941071Y-16340214D01*
X15126786Y-16340214D01*
X15312500Y-16040214D02*
X15341071Y-16040214D01*
X15369643Y-16054500D01*
X15383928Y-16068786D01*
X15398214Y-16097357D01*
X15412500Y-16154500D01*
X15412500Y-16225929D01*
X15398214Y-16283071D01*
X15383928Y-16311643D01*
X15369643Y-16325929D01*
X15341071Y-16340214D01*
X15312500Y-16340214D01*
X15283928Y-16325929D01*
X15269643Y-16311643D01*
X15255357Y-16283071D01*
X15241071Y-16225929D01*
X15241071Y-16154500D01*
X15255357Y-16097357D01*
X15269643Y-16068786D01*
X15283928Y-16054500D01*
X15312500Y-16040214D01*
X15526786Y-16040214D02*
X15526786Y-16097357D01*
X15641071Y-16040214D02*
X15641071Y-16097357D01*
X16083928Y-16454500D02*
X16069643Y-16440214D01*
X16041071Y-16397357D01*
X16026786Y-16368786D01*
X16012500Y-16325929D01*
X15998214Y-16254500D01*
X15998214Y-16197357D01*
X16012500Y-16125929D01*
X16026786Y-16083071D01*
X16041071Y-16054500D01*
X16069643Y-16011643D01*
X16083928Y-15997357D01*
X16255357Y-16040214D02*
X16283928Y-16040214D01*
X16312500Y-16054500D01*
X16326786Y-16068786D01*
X16341071Y-16097357D01*
X16355357Y-16154500D01*
X16355357Y-16225929D01*
X16341071Y-16283071D01*
X16326786Y-16311643D01*
X16312500Y-16325929D01*
X16283928Y-16340214D01*
X16255357Y-16340214D01*
X16226786Y-16325929D01*
X16212500Y-16311643D01*
X16198214Y-16283071D01*
X16183928Y-16225929D01*
X16183928Y-16154500D01*
X16198214Y-16097357D01*
X16212500Y-16068786D01*
X16226786Y-16054500D01*
X16255357Y-16040214D01*
X16712500Y-16340214D02*
X16712500Y-16040214D01*
X16841071Y-16340214D02*
X16841071Y-16183071D01*
X16826786Y-16154500D01*
X16798214Y-16140214D01*
X16755357Y-16140214D01*
X16726786Y-16154500D01*
X16712500Y-16168786D01*
X17026786Y-16340214D02*
X16998214Y-16325929D01*
X16983928Y-16311643D01*
X16969643Y-16283071D01*
X16969643Y-16197357D01*
X16983928Y-16168786D01*
X16998214Y-16154500D01*
X17026786Y-16140214D01*
X17069643Y-16140214D01*
X17098214Y-16154500D01*
X17112500Y-16168786D01*
X17126786Y-16197357D01*
X17126786Y-16283071D01*
X17112500Y-16311643D01*
X17098214Y-16325929D01*
X17069643Y-16340214D01*
X17026786Y-16340214D01*
X17298214Y-16340214D02*
X17269643Y-16325929D01*
X17255357Y-16297357D01*
X17255357Y-16040214D01*
X17526786Y-16325929D02*
X17498214Y-16340214D01*
X17441071Y-16340214D01*
X17412500Y-16325929D01*
X17398214Y-16297357D01*
X17398214Y-16183071D01*
X17412500Y-16154500D01*
X17441071Y-16140214D01*
X17498214Y-16140214D01*
X17526786Y-16154500D01*
X17541071Y-16183071D01*
X17541071Y-16211643D01*
X17398214Y-16240214D01*
X17655357Y-16325929D02*
X17683928Y-16340214D01*
X17741071Y-16340214D01*
X17769643Y-16325929D01*
X17783928Y-16297357D01*
X17783928Y-16283071D01*
X17769643Y-16254500D01*
X17741071Y-16240214D01*
X17698214Y-16240214D01*
X17669643Y-16225929D01*
X17655357Y-16197357D01*
X17655357Y-16183071D01*
X17669643Y-16154500D01*
X17698214Y-16140214D01*
X17741071Y-16140214D01*
X17769643Y-16154500D01*
X18141071Y-16225929D02*
X18369643Y-16225929D01*
X18255357Y-16340214D02*
X18255357Y-16111643D01*
X18712500Y-16040214D02*
X18898214Y-16040214D01*
X18798214Y-16154500D01*
X18841071Y-16154500D01*
X18869643Y-16168786D01*
X18883928Y-16183071D01*
X18898214Y-16211643D01*
X18898214Y-16283071D01*
X18883928Y-16311643D01*
X18869643Y-16325929D01*
X18841071Y-16340214D01*
X18755357Y-16340214D01*
X18726786Y-16325929D01*
X18712500Y-16311643D01*
X19241071Y-16325929D02*
X19269643Y-16340214D01*
X19326786Y-16340214D01*
X19355357Y-16325929D01*
X19369643Y-16297357D01*
X19369643Y-16283071D01*
X19355357Y-16254500D01*
X19326786Y-16240214D01*
X19283928Y-16240214D01*
X19255357Y-16225929D01*
X19241071Y-16197357D01*
X19241071Y-16183071D01*
X19255357Y-16154500D01*
X19283928Y-16140214D01*
X19326786Y-16140214D01*
X19355357Y-16154500D01*
X19541071Y-16340214D02*
X19512500Y-16325929D01*
X19498214Y-16297357D01*
X19498214Y-16040214D01*
X19698214Y-16340214D02*
X19669643Y-16325929D01*
X19655357Y-16311643D01*
X19641071Y-16283071D01*
X19641071Y-16197357D01*
X19655357Y-16168786D01*
X19669643Y-16154500D01*
X19698214Y-16140214D01*
X19741071Y-16140214D01*
X19769643Y-16154500D01*
X19783928Y-16168786D01*
X19798214Y-16197357D01*
X19798214Y-16283071D01*
X19783928Y-16311643D01*
X19769643Y-16325929D01*
X19741071Y-16340214D01*
X19698214Y-16340214D01*
X19883928Y-16140214D02*
X19998214Y-16140214D01*
X19926786Y-16040214D02*
X19926786Y-16297357D01*
X19941071Y-16325929D01*
X19969643Y-16340214D01*
X19998214Y-16340214D01*
X20083928Y-16325929D02*
X20112500Y-16340214D01*
X20169643Y-16340214D01*
X20198214Y-16325929D01*
X20212500Y-16297357D01*
X20212500Y-16283071D01*
X20198214Y-16254500D01*
X20169643Y-16240214D01*
X20126786Y-16240214D01*
X20098214Y-16225929D01*
X20083928Y-16197357D01*
X20083928Y-16183071D01*
X20098214Y-16154500D01*
X20126786Y-16140214D01*
X20169643Y-16140214D01*
X20198214Y-16154500D01*
X20312500Y-16454500D02*
X20326786Y-16440214D01*
X20355357Y-16397357D01*
X20369643Y-16368786D01*
X20383928Y-16325929D01*
X20398214Y-16254500D01*
X20398214Y-16197357D01*
X20383928Y-16125929D01*
X20369643Y-16083071D01*
X20355357Y-16054500D01*
X20326786Y-16011643D01*
X20312500Y-15997357D01*
X11384320Y-16632320D02*
X11384320Y-16568680D01*
X11320680Y-16568680D01*
X11320680Y-16632320D01*
X11384320Y-16632320D01*
X11741071Y-16436214D02*
X11769643Y-16436214D01*
X11798214Y-16450500D01*
X11812500Y-16464786D01*
X11826786Y-16493357D01*
X11841071Y-16550500D01*
X11841071Y-16621929D01*
X11826786Y-16679071D01*
X11812500Y-16707643D01*
X11798214Y-16721929D01*
X11769643Y-16736214D01*
X11741071Y-16736214D01*
X11712500Y-16721929D01*
X11698214Y-16707643D01*
X11683928Y-16679071D01*
X11669643Y-16621929D01*
X11669643Y-16550500D01*
X11683928Y-16493357D01*
X11698214Y-16464786D01*
X11712500Y-16450500D01*
X11741071Y-16436214D01*
X11969643Y-16707643D02*
X11983928Y-16721929D01*
X11969643Y-16736214D01*
X11955357Y-16721929D01*
X11969643Y-16707643D01*
X11969643Y-16736214D01*
X12126786Y-16736214D02*
X12183928Y-16736214D01*
X12212500Y-16721929D01*
X12226786Y-16707643D01*
X12255357Y-16664786D01*
X12269643Y-16607643D01*
X12269643Y-16493357D01*
X12255357Y-16464786D01*
X12241071Y-16450500D01*
X12212500Y-16436214D01*
X12155357Y-16436214D01*
X12126786Y-16450500D01*
X12112500Y-16464786D01*
X12098214Y-16493357D01*
X12098214Y-16564786D01*
X12112500Y-16593357D01*
X12126786Y-16607643D01*
X12155357Y-16621929D01*
X12212500Y-16621929D01*
X12241071Y-16607643D01*
X12255357Y-16593357D01*
X12269643Y-16564786D01*
X12455357Y-16436214D02*
X12483928Y-16436214D01*
X12512500Y-16450500D01*
X12526786Y-16464786D01*
X12541071Y-16493357D01*
X12555357Y-16550500D01*
X12555357Y-16621929D01*
X12541071Y-16679071D01*
X12526786Y-16707643D01*
X12512500Y-16721929D01*
X12483928Y-16736214D01*
X12455357Y-16736214D01*
X12426786Y-16721929D01*
X12412500Y-16707643D01*
X12398214Y-16679071D01*
X12383928Y-16621929D01*
X12383928Y-16550500D01*
X12398214Y-16493357D01*
X12412500Y-16464786D01*
X12426786Y-16450500D01*
X12455357Y-16436214D01*
X12683928Y-16736214D02*
X12683928Y-16536214D01*
X12683928Y-16564786D02*
X12698214Y-16550500D01*
X12726786Y-16536214D01*
X12769643Y-16536214D01*
X12798214Y-16550500D01*
X12812500Y-16579071D01*
X12812500Y-16736214D01*
X12812500Y-16579071D02*
X12826786Y-16550500D01*
X12855357Y-16536214D01*
X12898214Y-16536214D01*
X12926786Y-16550500D01*
X12941071Y-16579071D01*
X12941071Y-16736214D01*
X13083928Y-16736214D02*
X13083928Y-16536214D01*
X13083928Y-16564786D02*
X13098214Y-16550500D01*
X13126786Y-16536214D01*
X13169643Y-16536214D01*
X13198214Y-16550500D01*
X13212500Y-16579071D01*
X13212500Y-16736214D01*
X13212500Y-16579071D02*
X13226786Y-16550500D01*
X13255357Y-16536214D01*
X13298214Y-16536214D01*
X13326786Y-16550500D01*
X13341071Y-16579071D01*
X13341071Y-16736214D01*
X13926786Y-16421929D02*
X13669643Y-16807643D01*
X14312500Y-16436214D02*
X14341071Y-16436214D01*
X14369643Y-16450500D01*
X14383928Y-16464786D01*
X14398214Y-16493357D01*
X14412500Y-16550500D01*
X14412500Y-16621929D01*
X14398214Y-16679071D01*
X14383928Y-16707643D01*
X14369643Y-16721929D01*
X14341071Y-16736214D01*
X14312500Y-16736214D01*
X14283928Y-16721929D01*
X14269643Y-16707643D01*
X14255357Y-16679071D01*
X14241071Y-16621929D01*
X14241071Y-16550500D01*
X14255357Y-16493357D01*
X14269643Y-16464786D01*
X14283928Y-16450500D01*
X14312500Y-16436214D01*
X14541071Y-16707643D02*
X14555357Y-16721929D01*
X14541071Y-16736214D01*
X14526786Y-16721929D01*
X14541071Y-16707643D01*
X14541071Y-16736214D01*
X14741071Y-16436214D02*
X14769643Y-16436214D01*
X14798214Y-16450500D01*
X14812500Y-16464786D01*
X14826786Y-16493357D01*
X14841071Y-16550500D01*
X14841071Y-16621929D01*
X14826786Y-16679071D01*
X14812500Y-16707643D01*
X14798214Y-16721929D01*
X14769643Y-16736214D01*
X14741071Y-16736214D01*
X14712500Y-16721929D01*
X14698214Y-16707643D01*
X14683928Y-16679071D01*
X14669643Y-16621929D01*
X14669643Y-16550500D01*
X14683928Y-16493357D01*
X14698214Y-16464786D01*
X14712500Y-16450500D01*
X14741071Y-16436214D01*
X14941071Y-16436214D02*
X15126786Y-16436214D01*
X15026786Y-16550500D01*
X15069643Y-16550500D01*
X15098214Y-16564786D01*
X15112500Y-16579071D01*
X15126786Y-16607643D01*
X15126786Y-16679071D01*
X15112500Y-16707643D01*
X15098214Y-16721929D01*
X15069643Y-16736214D01*
X14983928Y-16736214D01*
X14955357Y-16721929D01*
X14941071Y-16707643D01*
X15398214Y-16436214D02*
X15255357Y-16436214D01*
X15241071Y-16579071D01*
X15255357Y-16564786D01*
X15283928Y-16550500D01*
X15355357Y-16550500D01*
X15383928Y-16564786D01*
X15398214Y-16579071D01*
X15412500Y-16607643D01*
X15412500Y-16679071D01*
X15398214Y-16707643D01*
X15383928Y-16721929D01*
X15355357Y-16736214D01*
X15283928Y-16736214D01*
X15255357Y-16721929D01*
X15241071Y-16707643D01*
X15526786Y-16436214D02*
X15526786Y-16493357D01*
X15641071Y-16436214D02*
X15641071Y-16493357D01*
X16083928Y-16850500D02*
X16069643Y-16836214D01*
X16041071Y-16793357D01*
X16026786Y-16764786D01*
X16012500Y-16721929D01*
X15998214Y-16650500D01*
X15998214Y-16593357D01*
X16012500Y-16521929D01*
X16026786Y-16479071D01*
X16041071Y-16450500D01*
X16069643Y-16407643D01*
X16083928Y-16393357D01*
X16326786Y-16536214D02*
X16326786Y-16736214D01*
X16255357Y-16421929D02*
X16183928Y-16636214D01*
X16369643Y-16636214D01*
X16712500Y-16736214D02*
X16712500Y-16436214D01*
X16841071Y-16736214D02*
X16841071Y-16579071D01*
X16826786Y-16550500D01*
X16798214Y-16536214D01*
X16755357Y-16536214D01*
X16726786Y-16550500D01*
X16712500Y-16564786D01*
X17026786Y-16736214D02*
X16998214Y-16721929D01*
X16983928Y-16707643D01*
X16969643Y-16679071D01*
X16969643Y-16593357D01*
X16983928Y-16564786D01*
X16998214Y-16550500D01*
X17026786Y-16536214D01*
X17069643Y-16536214D01*
X17098214Y-16550500D01*
X17112500Y-16564786D01*
X17126786Y-16593357D01*
X17126786Y-16679071D01*
X17112500Y-16707643D01*
X17098214Y-16721929D01*
X17069643Y-16736214D01*
X17026786Y-16736214D01*
X17298214Y-16736214D02*
X17269643Y-16721929D01*
X17255357Y-16693357D01*
X17255357Y-16436214D01*
X17526786Y-16721929D02*
X17498214Y-16736214D01*
X17441071Y-16736214D01*
X17412500Y-16721929D01*
X17398214Y-16693357D01*
X17398214Y-16579071D01*
X17412500Y-16550500D01*
X17441071Y-16536214D01*
X17498214Y-16536214D01*
X17526786Y-16550500D01*
X17541071Y-16579071D01*
X17541071Y-16607643D01*
X17398214Y-16636214D01*
X17655357Y-16721929D02*
X17683928Y-16736214D01*
X17741071Y-16736214D01*
X17769643Y-16721929D01*
X17783928Y-16693357D01*
X17783928Y-16679071D01*
X17769643Y-16650500D01*
X17741071Y-16636214D01*
X17698214Y-16636214D01*
X17669643Y-16621929D01*
X17655357Y-16593357D01*
X17655357Y-16579071D01*
X17669643Y-16550500D01*
X17698214Y-16536214D01*
X17741071Y-16536214D01*
X17769643Y-16550500D01*
X17883928Y-16850500D02*
X17898214Y-16836214D01*
X17926786Y-16793357D01*
X17941071Y-16764786D01*
X17955357Y-16721929D01*
X17969643Y-16650500D01*
X17969643Y-16593357D01*
X17955357Y-16521929D01*
X17941071Y-16479071D01*
X17926786Y-16450500D01*
X17898214Y-16407643D01*
X17883928Y-16393357D01*
X11347500Y-17046500D02*
X11397500Y-16996500D01*
X11347500Y-16946500D01*
X11297500Y-16996500D01*
X11347500Y-17046500D01*
X11841071Y-17132214D02*
X11669643Y-17132214D01*
X11755357Y-17132214D02*
X11755357Y-16832214D01*
X11726786Y-16875072D01*
X11698214Y-16903643D01*
X11669643Y-16917929D01*
X11969643Y-17103643D02*
X11983928Y-17117929D01*
X11969643Y-17132214D01*
X11955357Y-17117929D01*
X11969643Y-17103643D01*
X11969643Y-17132214D01*
X12169643Y-16832214D02*
X12198214Y-16832214D01*
X12226786Y-16846500D01*
X12241071Y-16860786D01*
X12255357Y-16889357D01*
X12269643Y-16946500D01*
X12269643Y-17017929D01*
X12255357Y-17075072D01*
X12241071Y-17103643D01*
X12226786Y-17117929D01*
X12198214Y-17132214D01*
X12169643Y-17132214D01*
X12141071Y-17117929D01*
X12126786Y-17103643D01*
X12112500Y-17075072D01*
X12098214Y-17017929D01*
X12098214Y-16946500D01*
X12112500Y-16889357D01*
X12126786Y-16860786D01*
X12141071Y-16846500D01*
X12169643Y-16832214D01*
X12455357Y-16832214D02*
X12483928Y-16832214D01*
X12512500Y-16846500D01*
X12526786Y-16860786D01*
X12541071Y-16889357D01*
X12555357Y-16946500D01*
X12555357Y-17017929D01*
X12541071Y-17075072D01*
X12526786Y-17103643D01*
X12512500Y-17117929D01*
X12483928Y-17132214D01*
X12455357Y-17132214D01*
X12426786Y-17117929D01*
X12412500Y-17103643D01*
X12398214Y-17075072D01*
X12383928Y-17017929D01*
X12383928Y-16946500D01*
X12398214Y-16889357D01*
X12412500Y-16860786D01*
X12426786Y-16846500D01*
X12455357Y-16832214D01*
X12683928Y-17132214D02*
X12683928Y-16932214D01*
X12683928Y-16960786D02*
X12698214Y-16946500D01*
X12726786Y-16932214D01*
X12769643Y-16932214D01*
X12798214Y-16946500D01*
X12812500Y-16975072D01*
X12812500Y-17132214D01*
X12812500Y-16975072D02*
X12826786Y-16946500D01*
X12855357Y-16932214D01*
X12898214Y-16932214D01*
X12926786Y-16946500D01*
X12941071Y-16975072D01*
X12941071Y-17132214D01*
X13083928Y-17132214D02*
X13083928Y-16932214D01*
X13083928Y-16960786D02*
X13098214Y-16946500D01*
X13126786Y-16932214D01*
X13169643Y-16932214D01*
X13198214Y-16946500D01*
X13212500Y-16975072D01*
X13212500Y-17132214D01*
X13212500Y-16975072D02*
X13226786Y-16946500D01*
X13255357Y-16932214D01*
X13298214Y-16932214D01*
X13326786Y-16946500D01*
X13341071Y-16975072D01*
X13341071Y-17132214D01*
X13926786Y-16817929D02*
X13669643Y-17203643D01*
X14312500Y-16832214D02*
X14341071Y-16832214D01*
X14369643Y-16846500D01*
X14383928Y-16860786D01*
X14398214Y-16889357D01*
X14412500Y-16946500D01*
X14412500Y-17017929D01*
X14398214Y-17075072D01*
X14383928Y-17103643D01*
X14369643Y-17117929D01*
X14341071Y-17132214D01*
X14312500Y-17132214D01*
X14283928Y-17117929D01*
X14269643Y-17103643D01*
X14255357Y-17075072D01*
X14241071Y-17017929D01*
X14241071Y-16946500D01*
X14255357Y-16889357D01*
X14269643Y-16860786D01*
X14283928Y-16846500D01*
X14312500Y-16832214D01*
X14541071Y-17103643D02*
X14555357Y-17117929D01*
X14541071Y-17132214D01*
X14526786Y-17117929D01*
X14541071Y-17103643D01*
X14541071Y-17132214D01*
X14741071Y-16832214D02*
X14769643Y-16832214D01*
X14798214Y-16846500D01*
X14812500Y-16860786D01*
X14826786Y-16889357D01*
X14841071Y-16946500D01*
X14841071Y-17017929D01*
X14826786Y-17075072D01*
X14812500Y-17103643D01*
X14798214Y-17117929D01*
X14769643Y-17132214D01*
X14741071Y-17132214D01*
X14712500Y-17117929D01*
X14698214Y-17103643D01*
X14683928Y-17075072D01*
X14669643Y-17017929D01*
X14669643Y-16946500D01*
X14683928Y-16889357D01*
X14698214Y-16860786D01*
X14712500Y-16846500D01*
X14741071Y-16832214D01*
X14941071Y-16832214D02*
X15126786Y-16832214D01*
X15026786Y-16946500D01*
X15069643Y-16946500D01*
X15098214Y-16960786D01*
X15112500Y-16975072D01*
X15126786Y-17003643D01*
X15126786Y-17075072D01*
X15112500Y-17103643D01*
X15098214Y-17117929D01*
X15069643Y-17132214D01*
X14983928Y-17132214D01*
X14955357Y-17117929D01*
X14941071Y-17103643D01*
X15269643Y-17132214D02*
X15326786Y-17132214D01*
X15355357Y-17117929D01*
X15369643Y-17103643D01*
X15398214Y-17060786D01*
X15412500Y-17003643D01*
X15412500Y-16889357D01*
X15398214Y-16860786D01*
X15383928Y-16846500D01*
X15355357Y-16832214D01*
X15298214Y-16832214D01*
X15269643Y-16846500D01*
X15255357Y-16860786D01*
X15241071Y-16889357D01*
X15241071Y-16960786D01*
X15255357Y-16989357D01*
X15269643Y-17003643D01*
X15298214Y-17017929D01*
X15355357Y-17017929D01*
X15383928Y-17003643D01*
X15398214Y-16989357D01*
X15412500Y-16960786D01*
X15526786Y-16832214D02*
X15526786Y-16889357D01*
X15641071Y-16832214D02*
X15641071Y-16889357D01*
X16083928Y-17246500D02*
X16069643Y-17232214D01*
X16041071Y-17189357D01*
X16026786Y-17160786D01*
X16012500Y-17117929D01*
X15998214Y-17046500D01*
X15998214Y-16989357D01*
X16012500Y-16917929D01*
X16026786Y-16875072D01*
X16041071Y-16846500D01*
X16069643Y-16803643D01*
X16083928Y-16789357D01*
X16355357Y-17132214D02*
X16183928Y-17132214D01*
X16269643Y-17132214D02*
X16269643Y-16832214D01*
X16241071Y-16875072D01*
X16212500Y-16903643D01*
X16183928Y-16917929D01*
X16612500Y-16932214D02*
X16612500Y-17132214D01*
X16541071Y-16817929D02*
X16469643Y-17032214D01*
X16655357Y-17032214D01*
X16998214Y-17132214D02*
X16998214Y-16832214D01*
X17126786Y-17132214D02*
X17126786Y-16975072D01*
X17112500Y-16946500D01*
X17083928Y-16932214D01*
X17041071Y-16932214D01*
X17012500Y-16946500D01*
X16998214Y-16960786D01*
X17312500Y-17132214D02*
X17283928Y-17117929D01*
X17269643Y-17103643D01*
X17255357Y-17075072D01*
X17255357Y-16989357D01*
X17269643Y-16960786D01*
X17283928Y-16946500D01*
X17312500Y-16932214D01*
X17355357Y-16932214D01*
X17383928Y-16946500D01*
X17398214Y-16960786D01*
X17412500Y-16989357D01*
X17412500Y-17075072D01*
X17398214Y-17103643D01*
X17383928Y-17117929D01*
X17355357Y-17132214D01*
X17312500Y-17132214D01*
X17583928Y-17132214D02*
X17555357Y-17117929D01*
X17541071Y-17089357D01*
X17541071Y-16832214D01*
X17812500Y-17117929D02*
X17783928Y-17132214D01*
X17726786Y-17132214D01*
X17698214Y-17117929D01*
X17683928Y-17089357D01*
X17683928Y-16975072D01*
X17698214Y-16946500D01*
X17726786Y-16932214D01*
X17783928Y-16932214D01*
X17812500Y-16946500D01*
X17826786Y-16975072D01*
X17826786Y-17003643D01*
X17683928Y-17032214D01*
X17941071Y-17117929D02*
X17969643Y-17132214D01*
X18026786Y-17132214D01*
X18055357Y-17117929D01*
X18069643Y-17089357D01*
X18069643Y-17075072D01*
X18055357Y-17046500D01*
X18026786Y-17032214D01*
X17983928Y-17032214D01*
X17955357Y-17017929D01*
X17941071Y-16989357D01*
X17941071Y-16975072D01*
X17955357Y-16946500D01*
X17983928Y-16932214D01*
X18026786Y-16932214D01*
X18055357Y-16946500D01*
X18169643Y-17246500D02*
X18183928Y-17232214D01*
X18212500Y-17189357D01*
X18226786Y-17160786D01*
X18241071Y-17117929D01*
X18255357Y-17046500D01*
X18255357Y-16989357D01*
X18241071Y-16917929D01*
X18226786Y-16875072D01*
X18212500Y-16846500D01*
X18183928Y-16803643D01*
X18169643Y-16789357D01*
X11295500Y-17341500D02*
X11397500Y-17443500D01*
X11397500Y-17341500D02*
X11295500Y-17443500D01*
X11397500Y-17392500D02*
G75*
G03*
X11397500Y-17392500I-51000J0D01*
G01*
X11841071Y-17528214D02*
X11669643Y-17528214D01*
X11755357Y-17528214D02*
X11755357Y-17228214D01*
X11726786Y-17271072D01*
X11698214Y-17299643D01*
X11669643Y-17313929D01*
X11969643Y-17499643D02*
X11983928Y-17513929D01*
X11969643Y-17528214D01*
X11955357Y-17513929D01*
X11969643Y-17499643D01*
X11969643Y-17528214D01*
X12169643Y-17228214D02*
X12198214Y-17228214D01*
X12226786Y-17242500D01*
X12241071Y-17256786D01*
X12255357Y-17285357D01*
X12269643Y-17342500D01*
X12269643Y-17413929D01*
X12255357Y-17471072D01*
X12241071Y-17499643D01*
X12226786Y-17513929D01*
X12198214Y-17528214D01*
X12169643Y-17528214D01*
X12141071Y-17513929D01*
X12126786Y-17499643D01*
X12112500Y-17471072D01*
X12098214Y-17413929D01*
X12098214Y-17342500D01*
X12112500Y-17285357D01*
X12126786Y-17256786D01*
X12141071Y-17242500D01*
X12169643Y-17228214D01*
X12383928Y-17256786D02*
X12398214Y-17242500D01*
X12426786Y-17228214D01*
X12498214Y-17228214D01*
X12526786Y-17242500D01*
X12541071Y-17256786D01*
X12555357Y-17285357D01*
X12555357Y-17313929D01*
X12541071Y-17356786D01*
X12369643Y-17528214D01*
X12555357Y-17528214D01*
X12683928Y-17528214D02*
X12683928Y-17328214D01*
X12683928Y-17356786D02*
X12698214Y-17342500D01*
X12726786Y-17328214D01*
X12769643Y-17328214D01*
X12798214Y-17342500D01*
X12812500Y-17371072D01*
X12812500Y-17528214D01*
X12812500Y-17371072D02*
X12826786Y-17342500D01*
X12855357Y-17328214D01*
X12898214Y-17328214D01*
X12926786Y-17342500D01*
X12941071Y-17371072D01*
X12941071Y-17528214D01*
X13083928Y-17528214D02*
X13083928Y-17328214D01*
X13083928Y-17356786D02*
X13098214Y-17342500D01*
X13126786Y-17328214D01*
X13169643Y-17328214D01*
X13198214Y-17342500D01*
X13212500Y-17371072D01*
X13212500Y-17528214D01*
X13212500Y-17371072D02*
X13226786Y-17342500D01*
X13255357Y-17328214D01*
X13298214Y-17328214D01*
X13326786Y-17342500D01*
X13341071Y-17371072D01*
X13341071Y-17528214D01*
X13926786Y-17213929D02*
X13669643Y-17599643D01*
X14312500Y-17228214D02*
X14341071Y-17228214D01*
X14369643Y-17242500D01*
X14383928Y-17256786D01*
X14398214Y-17285357D01*
X14412500Y-17342500D01*
X14412500Y-17413929D01*
X14398214Y-17471072D01*
X14383928Y-17499643D01*
X14369643Y-17513929D01*
X14341071Y-17528214D01*
X14312500Y-17528214D01*
X14283928Y-17513929D01*
X14269643Y-17499643D01*
X14255357Y-17471072D01*
X14241071Y-17413929D01*
X14241071Y-17342500D01*
X14255357Y-17285357D01*
X14269643Y-17256786D01*
X14283928Y-17242500D01*
X14312500Y-17228214D01*
X14541071Y-17499643D02*
X14555357Y-17513929D01*
X14541071Y-17528214D01*
X14526786Y-17513929D01*
X14541071Y-17499643D01*
X14541071Y-17528214D01*
X14741071Y-17228214D02*
X14769643Y-17228214D01*
X14798214Y-17242500D01*
X14812500Y-17256786D01*
X14826786Y-17285357D01*
X14841071Y-17342500D01*
X14841071Y-17413929D01*
X14826786Y-17471072D01*
X14812500Y-17499643D01*
X14798214Y-17513929D01*
X14769643Y-17528214D01*
X14741071Y-17528214D01*
X14712500Y-17513929D01*
X14698214Y-17499643D01*
X14683928Y-17471072D01*
X14669643Y-17413929D01*
X14669643Y-17342500D01*
X14683928Y-17285357D01*
X14698214Y-17256786D01*
X14712500Y-17242500D01*
X14741071Y-17228214D01*
X15098214Y-17328214D02*
X15098214Y-17528214D01*
X15026786Y-17213929D02*
X14955357Y-17428214D01*
X15141071Y-17428214D01*
X15312500Y-17228214D02*
X15341071Y-17228214D01*
X15369643Y-17242500D01*
X15383928Y-17256786D01*
X15398214Y-17285357D01*
X15412500Y-17342500D01*
X15412500Y-17413929D01*
X15398214Y-17471072D01*
X15383928Y-17499643D01*
X15369643Y-17513929D01*
X15341071Y-17528214D01*
X15312500Y-17528214D01*
X15283928Y-17513929D01*
X15269643Y-17499643D01*
X15255357Y-17471072D01*
X15241071Y-17413929D01*
X15241071Y-17342500D01*
X15255357Y-17285357D01*
X15269643Y-17256786D01*
X15283928Y-17242500D01*
X15312500Y-17228214D01*
X15526786Y-17228214D02*
X15526786Y-17285357D01*
X15641071Y-17228214D02*
X15641071Y-17285357D01*
X16083928Y-17642500D02*
X16069643Y-17628214D01*
X16041071Y-17585357D01*
X16026786Y-17556786D01*
X16012500Y-17513929D01*
X15998214Y-17442500D01*
X15998214Y-17385357D01*
X16012500Y-17313929D01*
X16026786Y-17271072D01*
X16041071Y-17242500D01*
X16069643Y-17199643D01*
X16083928Y-17185357D01*
X16183928Y-17256786D02*
X16198214Y-17242500D01*
X16226786Y-17228214D01*
X16298214Y-17228214D01*
X16326786Y-17242500D01*
X16341071Y-17256786D01*
X16355357Y-17285357D01*
X16355357Y-17313929D01*
X16341071Y-17356786D01*
X16169643Y-17528214D01*
X16355357Y-17528214D01*
X16712500Y-17528214D02*
X16712500Y-17228214D01*
X16841071Y-17528214D02*
X16841071Y-17371072D01*
X16826786Y-17342500D01*
X16798214Y-17328214D01*
X16755357Y-17328214D01*
X16726786Y-17342500D01*
X16712500Y-17356786D01*
X17026786Y-17528214D02*
X16998214Y-17513929D01*
X16983928Y-17499643D01*
X16969643Y-17471072D01*
X16969643Y-17385357D01*
X16983928Y-17356786D01*
X16998214Y-17342500D01*
X17026786Y-17328214D01*
X17069643Y-17328214D01*
X17098214Y-17342500D01*
X17112500Y-17356786D01*
X17126786Y-17385357D01*
X17126786Y-17471072D01*
X17112500Y-17499643D01*
X17098214Y-17513929D01*
X17069643Y-17528214D01*
X17026786Y-17528214D01*
X17298214Y-17528214D02*
X17269643Y-17513929D01*
X17255357Y-17485357D01*
X17255357Y-17228214D01*
X17526786Y-17513929D02*
X17498214Y-17528214D01*
X17441071Y-17528214D01*
X17412500Y-17513929D01*
X17398214Y-17485357D01*
X17398214Y-17371072D01*
X17412500Y-17342500D01*
X17441071Y-17328214D01*
X17498214Y-17328214D01*
X17526786Y-17342500D01*
X17541071Y-17371072D01*
X17541071Y-17399643D01*
X17398214Y-17428214D01*
X17655357Y-17513929D02*
X17683928Y-17528214D01*
X17741071Y-17528214D01*
X17769643Y-17513929D01*
X17783928Y-17485357D01*
X17783928Y-17471072D01*
X17769643Y-17442500D01*
X17741071Y-17428214D01*
X17698214Y-17428214D01*
X17669643Y-17413929D01*
X17655357Y-17385357D01*
X17655357Y-17371072D01*
X17669643Y-17342500D01*
X17698214Y-17328214D01*
X17741071Y-17328214D01*
X17769643Y-17342500D01*
X17883928Y-17642500D02*
X17898214Y-17628214D01*
X17926786Y-17585357D01*
X17941071Y-17556786D01*
X17955357Y-17513929D01*
X17969643Y-17442500D01*
X17969643Y-17385357D01*
X17955357Y-17313929D01*
X17941071Y-17271072D01*
X17926786Y-17242500D01*
X17898214Y-17199643D01*
X17883928Y-17185357D01*
X11267500Y-17723500D02*
X11397500Y-17853500D01*
X11397500Y-17723500D02*
X11267500Y-17853500D01*
X11332500Y-17723500D02*
X11332500Y-17853500D01*
X11267500Y-17788500D02*
X11397500Y-17788500D01*
X11841071Y-17924214D02*
X11669643Y-17924214D01*
X11755357Y-17924214D02*
X11755357Y-17624214D01*
X11726786Y-17667072D01*
X11698214Y-17695643D01*
X11669643Y-17709929D01*
X11969643Y-17895643D02*
X11983928Y-17909929D01*
X11969643Y-17924214D01*
X11955357Y-17909929D01*
X11969643Y-17895643D01*
X11969643Y-17924214D01*
X12083928Y-17624214D02*
X12269643Y-17624214D01*
X12169643Y-17738500D01*
X12212500Y-17738500D01*
X12241071Y-17752786D01*
X12255357Y-17767072D01*
X12269643Y-17795643D01*
X12269643Y-17867072D01*
X12255357Y-17895643D01*
X12241071Y-17909929D01*
X12212500Y-17924214D01*
X12126786Y-17924214D01*
X12098214Y-17909929D01*
X12083928Y-17895643D01*
X12455357Y-17624214D02*
X12483928Y-17624214D01*
X12512500Y-17638500D01*
X12526786Y-17652786D01*
X12541071Y-17681357D01*
X12555357Y-17738500D01*
X12555357Y-17809929D01*
X12541071Y-17867072D01*
X12526786Y-17895643D01*
X12512500Y-17909929D01*
X12483928Y-17924214D01*
X12455357Y-17924214D01*
X12426786Y-17909929D01*
X12412500Y-17895643D01*
X12398214Y-17867072D01*
X12383928Y-17809929D01*
X12383928Y-17738500D01*
X12398214Y-17681357D01*
X12412500Y-17652786D01*
X12426786Y-17638500D01*
X12455357Y-17624214D01*
X12683928Y-17924214D02*
X12683928Y-17724214D01*
X12683928Y-17752786D02*
X12698214Y-17738500D01*
X12726786Y-17724214D01*
X12769643Y-17724214D01*
X12798214Y-17738500D01*
X12812500Y-17767072D01*
X12812500Y-17924214D01*
X12812500Y-17767072D02*
X12826786Y-17738500D01*
X12855357Y-17724214D01*
X12898214Y-17724214D01*
X12926786Y-17738500D01*
X12941071Y-17767072D01*
X12941071Y-17924214D01*
X13083928Y-17924214D02*
X13083928Y-17724214D01*
X13083928Y-17752786D02*
X13098214Y-17738500D01*
X13126786Y-17724214D01*
X13169643Y-17724214D01*
X13198214Y-17738500D01*
X13212500Y-17767072D01*
X13212500Y-17924214D01*
X13212500Y-17767072D02*
X13226786Y-17738500D01*
X13255357Y-17724214D01*
X13298214Y-17724214D01*
X13326786Y-17738500D01*
X13341071Y-17767072D01*
X13341071Y-17924214D01*
X13926786Y-17609929D02*
X13669643Y-17995643D01*
X14312500Y-17624214D02*
X14341071Y-17624214D01*
X14369643Y-17638500D01*
X14383928Y-17652786D01*
X14398214Y-17681357D01*
X14412500Y-17738500D01*
X14412500Y-17809929D01*
X14398214Y-17867072D01*
X14383928Y-17895643D01*
X14369643Y-17909929D01*
X14341071Y-17924214D01*
X14312500Y-17924214D01*
X14283928Y-17909929D01*
X14269643Y-17895643D01*
X14255357Y-17867072D01*
X14241071Y-17809929D01*
X14241071Y-17738500D01*
X14255357Y-17681357D01*
X14269643Y-17652786D01*
X14283928Y-17638500D01*
X14312500Y-17624214D01*
X14541071Y-17895643D02*
X14555357Y-17909929D01*
X14541071Y-17924214D01*
X14526786Y-17909929D01*
X14541071Y-17895643D01*
X14541071Y-17924214D01*
X14741071Y-17624214D02*
X14769643Y-17624214D01*
X14798214Y-17638500D01*
X14812500Y-17652786D01*
X14826786Y-17681357D01*
X14841071Y-17738500D01*
X14841071Y-17809929D01*
X14826786Y-17867072D01*
X14812500Y-17895643D01*
X14798214Y-17909929D01*
X14769643Y-17924214D01*
X14741071Y-17924214D01*
X14712500Y-17909929D01*
X14698214Y-17895643D01*
X14683928Y-17867072D01*
X14669643Y-17809929D01*
X14669643Y-17738500D01*
X14683928Y-17681357D01*
X14698214Y-17652786D01*
X14712500Y-17638500D01*
X14741071Y-17624214D01*
X15112500Y-17624214D02*
X14969643Y-17624214D01*
X14955357Y-17767072D01*
X14969643Y-17752786D01*
X14998214Y-17738500D01*
X15069643Y-17738500D01*
X15098214Y-17752786D01*
X15112500Y-17767072D01*
X15126786Y-17795643D01*
X15126786Y-17867072D01*
X15112500Y-17895643D01*
X15098214Y-17909929D01*
X15069643Y-17924214D01*
X14998214Y-17924214D01*
X14969643Y-17909929D01*
X14955357Y-17895643D01*
X15412500Y-17924214D02*
X15241071Y-17924214D01*
X15326786Y-17924214D02*
X15326786Y-17624214D01*
X15298214Y-17667072D01*
X15269643Y-17695643D01*
X15241071Y-17709929D01*
X15526786Y-17624214D02*
X15526786Y-17681357D01*
X15641071Y-17624214D02*
X15641071Y-17681357D01*
X16083928Y-18038500D02*
X16069643Y-18024214D01*
X16041071Y-17981357D01*
X16026786Y-17952786D01*
X16012500Y-17909929D01*
X15998214Y-17838500D01*
X15998214Y-17781357D01*
X16012500Y-17709929D01*
X16026786Y-17667072D01*
X16041071Y-17638500D01*
X16069643Y-17595643D01*
X16083928Y-17581357D01*
X16255357Y-17624214D02*
X16283928Y-17624214D01*
X16312500Y-17638500D01*
X16326786Y-17652786D01*
X16341071Y-17681357D01*
X16355357Y-17738500D01*
X16355357Y-17809929D01*
X16341071Y-17867072D01*
X16326786Y-17895643D01*
X16312500Y-17909929D01*
X16283928Y-17924214D01*
X16255357Y-17924214D01*
X16226786Y-17909929D01*
X16212500Y-17895643D01*
X16198214Y-17867072D01*
X16183928Y-17809929D01*
X16183928Y-17738500D01*
X16198214Y-17681357D01*
X16212500Y-17652786D01*
X16226786Y-17638500D01*
X16255357Y-17624214D01*
X16712500Y-17924214D02*
X16712500Y-17624214D01*
X16841071Y-17924214D02*
X16841071Y-17767072D01*
X16826786Y-17738500D01*
X16798214Y-17724214D01*
X16755357Y-17724214D01*
X16726786Y-17738500D01*
X16712500Y-17752786D01*
X17026786Y-17924214D02*
X16998214Y-17909929D01*
X16983928Y-17895643D01*
X16969643Y-17867072D01*
X16969643Y-17781357D01*
X16983928Y-17752786D01*
X16998214Y-17738500D01*
X17026786Y-17724214D01*
X17069643Y-17724214D01*
X17098214Y-17738500D01*
X17112500Y-17752786D01*
X17126786Y-17781357D01*
X17126786Y-17867072D01*
X17112500Y-17895643D01*
X17098214Y-17909929D01*
X17069643Y-17924214D01*
X17026786Y-17924214D01*
X17298214Y-17924214D02*
X17269643Y-17909929D01*
X17255357Y-17881357D01*
X17255357Y-17624214D01*
X17526786Y-17909929D02*
X17498214Y-17924214D01*
X17441071Y-17924214D01*
X17412500Y-17909929D01*
X17398214Y-17881357D01*
X17398214Y-17767072D01*
X17412500Y-17738500D01*
X17441071Y-17724214D01*
X17498214Y-17724214D01*
X17526786Y-17738500D01*
X17541071Y-17767072D01*
X17541071Y-17795643D01*
X17398214Y-17824214D01*
X17655357Y-17909929D02*
X17683928Y-17924214D01*
X17741071Y-17924214D01*
X17769643Y-17909929D01*
X17783928Y-17881357D01*
X17783928Y-17867072D01*
X17769643Y-17838500D01*
X17741071Y-17824214D01*
X17698214Y-17824214D01*
X17669643Y-17809929D01*
X17655357Y-17781357D01*
X17655357Y-17767072D01*
X17669643Y-17738500D01*
X17698214Y-17724214D01*
X17741071Y-17724214D01*
X17769643Y-17738500D01*
X18141071Y-17809929D02*
X18369643Y-17809929D01*
X18255357Y-17924214D02*
X18255357Y-17695643D01*
X18712500Y-17624214D02*
X18898214Y-17624214D01*
X18798214Y-17738500D01*
X18841071Y-17738500D01*
X18869643Y-17752786D01*
X18883928Y-17767072D01*
X18898214Y-17795643D01*
X18898214Y-17867072D01*
X18883928Y-17895643D01*
X18869643Y-17909929D01*
X18841071Y-17924214D01*
X18755357Y-17924214D01*
X18726786Y-17909929D01*
X18712500Y-17895643D01*
X19241071Y-17909929D02*
X19269643Y-17924214D01*
X19326786Y-17924214D01*
X19355357Y-17909929D01*
X19369643Y-17881357D01*
X19369643Y-17867072D01*
X19355357Y-17838500D01*
X19326786Y-17824214D01*
X19283928Y-17824214D01*
X19255357Y-17809929D01*
X19241071Y-17781357D01*
X19241071Y-17767072D01*
X19255357Y-17738500D01*
X19283928Y-17724214D01*
X19326786Y-17724214D01*
X19355357Y-17738500D01*
X19541071Y-17924214D02*
X19512500Y-17909929D01*
X19498214Y-17881357D01*
X19498214Y-17624214D01*
X19698214Y-17924214D02*
X19669643Y-17909929D01*
X19655357Y-17895643D01*
X19641071Y-17867072D01*
X19641071Y-17781357D01*
X19655357Y-17752786D01*
X19669643Y-17738500D01*
X19698214Y-17724214D01*
X19741071Y-17724214D01*
X19769643Y-17738500D01*
X19783928Y-17752786D01*
X19798214Y-17781357D01*
X19798214Y-17867072D01*
X19783928Y-17895643D01*
X19769643Y-17909929D01*
X19741071Y-17924214D01*
X19698214Y-17924214D01*
X19883928Y-17724214D02*
X19998214Y-17724214D01*
X19926786Y-17624214D02*
X19926786Y-17881357D01*
X19941071Y-17909929D01*
X19969643Y-17924214D01*
X19998214Y-17924214D01*
X20083928Y-17909929D02*
X20112500Y-17924214D01*
X20169643Y-17924214D01*
X20198214Y-17909929D01*
X20212500Y-17881357D01*
X20212500Y-17867072D01*
X20198214Y-17838500D01*
X20169643Y-17824214D01*
X20126786Y-17824214D01*
X20098214Y-17809929D01*
X20083928Y-17781357D01*
X20083928Y-17767072D01*
X20098214Y-17738500D01*
X20126786Y-17724214D01*
X20169643Y-17724214D01*
X20198214Y-17738500D01*
X20312500Y-18038500D02*
X20326786Y-18024214D01*
X20355357Y-17981357D01*
X20369643Y-17952786D01*
X20383928Y-17909929D01*
X20398214Y-17838500D01*
X20398214Y-17781357D01*
X20383928Y-17709929D01*
X20369643Y-17667072D01*
X20355357Y-17638500D01*
X20326786Y-17595643D01*
X20312500Y-17581357D01*
X11265500Y-18118500D02*
X11397500Y-18250500D01*
X11397500Y-18118500D02*
X11265500Y-18250500D01*
X11378169Y-18231170D02*
X11378169Y-18137831D01*
X11284830Y-18137831D01*
X11284830Y-18231170D01*
X11378169Y-18231170D01*
X11841071Y-18320214D02*
X11669643Y-18320214D01*
X11755357Y-18320214D02*
X11755357Y-18020214D01*
X11726786Y-18063072D01*
X11698214Y-18091643D01*
X11669643Y-18105929D01*
X11969643Y-18291643D02*
X11983928Y-18305929D01*
X11969643Y-18320214D01*
X11955357Y-18305929D01*
X11969643Y-18291643D01*
X11969643Y-18320214D01*
X12083928Y-18020214D02*
X12269643Y-18020214D01*
X12169643Y-18134500D01*
X12212500Y-18134500D01*
X12241071Y-18148786D01*
X12255357Y-18163072D01*
X12269643Y-18191643D01*
X12269643Y-18263072D01*
X12255357Y-18291643D01*
X12241071Y-18305929D01*
X12212500Y-18320214D01*
X12126786Y-18320214D01*
X12098214Y-18305929D01*
X12083928Y-18291643D01*
X12383928Y-18048786D02*
X12398214Y-18034500D01*
X12426786Y-18020214D01*
X12498214Y-18020214D01*
X12526786Y-18034500D01*
X12541071Y-18048786D01*
X12555357Y-18077357D01*
X12555357Y-18105929D01*
X12541071Y-18148786D01*
X12369643Y-18320214D01*
X12555357Y-18320214D01*
X12683928Y-18320214D02*
X12683928Y-18120214D01*
X12683928Y-18148786D02*
X12698214Y-18134500D01*
X12726786Y-18120214D01*
X12769643Y-18120214D01*
X12798214Y-18134500D01*
X12812500Y-18163072D01*
X12812500Y-18320214D01*
X12812500Y-18163072D02*
X12826786Y-18134500D01*
X12855357Y-18120214D01*
X12898214Y-18120214D01*
X12926786Y-18134500D01*
X12941071Y-18163072D01*
X12941071Y-18320214D01*
X13083928Y-18320214D02*
X13083928Y-18120214D01*
X13083928Y-18148786D02*
X13098214Y-18134500D01*
X13126786Y-18120214D01*
X13169643Y-18120214D01*
X13198214Y-18134500D01*
X13212500Y-18163072D01*
X13212500Y-18320214D01*
X13212500Y-18163072D02*
X13226786Y-18134500D01*
X13255357Y-18120214D01*
X13298214Y-18120214D01*
X13326786Y-18134500D01*
X13341071Y-18163072D01*
X13341071Y-18320214D01*
X13926786Y-18005929D02*
X13669643Y-18391643D01*
X14312500Y-18020214D02*
X14341071Y-18020214D01*
X14369643Y-18034500D01*
X14383928Y-18048786D01*
X14398214Y-18077357D01*
X14412500Y-18134500D01*
X14412500Y-18205929D01*
X14398214Y-18263072D01*
X14383928Y-18291643D01*
X14369643Y-18305929D01*
X14341071Y-18320214D01*
X14312500Y-18320214D01*
X14283928Y-18305929D01*
X14269643Y-18291643D01*
X14255357Y-18263072D01*
X14241071Y-18205929D01*
X14241071Y-18134500D01*
X14255357Y-18077357D01*
X14269643Y-18048786D01*
X14283928Y-18034500D01*
X14312500Y-18020214D01*
X14541071Y-18291643D02*
X14555357Y-18305929D01*
X14541071Y-18320214D01*
X14526786Y-18305929D01*
X14541071Y-18291643D01*
X14541071Y-18320214D01*
X14741071Y-18020214D02*
X14769643Y-18020214D01*
X14798214Y-18034500D01*
X14812500Y-18048786D01*
X14826786Y-18077357D01*
X14841071Y-18134500D01*
X14841071Y-18205929D01*
X14826786Y-18263072D01*
X14812500Y-18291643D01*
X14798214Y-18305929D01*
X14769643Y-18320214D01*
X14741071Y-18320214D01*
X14712500Y-18305929D01*
X14698214Y-18291643D01*
X14683928Y-18263072D01*
X14669643Y-18205929D01*
X14669643Y-18134500D01*
X14683928Y-18077357D01*
X14698214Y-18048786D01*
X14712500Y-18034500D01*
X14741071Y-18020214D01*
X15112500Y-18020214D02*
X14969643Y-18020214D01*
X14955357Y-18163072D01*
X14969643Y-18148786D01*
X14998214Y-18134500D01*
X15069643Y-18134500D01*
X15098214Y-18148786D01*
X15112500Y-18163072D01*
X15126786Y-18191643D01*
X15126786Y-18263072D01*
X15112500Y-18291643D01*
X15098214Y-18305929D01*
X15069643Y-18320214D01*
X14998214Y-18320214D01*
X14969643Y-18305929D01*
X14955357Y-18291643D01*
X15241071Y-18048786D02*
X15255357Y-18034500D01*
X15283928Y-18020214D01*
X15355357Y-18020214D01*
X15383928Y-18034500D01*
X15398214Y-18048786D01*
X15412500Y-18077357D01*
X15412500Y-18105929D01*
X15398214Y-18148786D01*
X15226786Y-18320214D01*
X15412500Y-18320214D01*
X15526786Y-18020214D02*
X15526786Y-18077357D01*
X15641071Y-18020214D02*
X15641071Y-18077357D01*
X16083928Y-18434500D02*
X16069643Y-18420214D01*
X16041071Y-18377357D01*
X16026786Y-18348786D01*
X16012500Y-18305929D01*
X15998214Y-18234500D01*
X15998214Y-18177357D01*
X16012500Y-18105929D01*
X16026786Y-18063072D01*
X16041071Y-18034500D01*
X16069643Y-17991643D01*
X16083928Y-17977357D01*
X16326786Y-18120214D02*
X16326786Y-18320214D01*
X16255357Y-18005929D02*
X16183928Y-18220214D01*
X16369643Y-18220214D01*
X16712500Y-18320214D02*
X16712500Y-18020214D01*
X16841071Y-18320214D02*
X16841071Y-18163072D01*
X16826786Y-18134500D01*
X16798214Y-18120214D01*
X16755357Y-18120214D01*
X16726786Y-18134500D01*
X16712500Y-18148786D01*
X17026786Y-18320214D02*
X16998214Y-18305929D01*
X16983928Y-18291643D01*
X16969643Y-18263072D01*
X16969643Y-18177357D01*
X16983928Y-18148786D01*
X16998214Y-18134500D01*
X17026786Y-18120214D01*
X17069643Y-18120214D01*
X17098214Y-18134500D01*
X17112500Y-18148786D01*
X17126786Y-18177357D01*
X17126786Y-18263072D01*
X17112500Y-18291643D01*
X17098214Y-18305929D01*
X17069643Y-18320214D01*
X17026786Y-18320214D01*
X17298214Y-18320214D02*
X17269643Y-18305929D01*
X17255357Y-18277357D01*
X17255357Y-18020214D01*
X17526786Y-18305929D02*
X17498214Y-18320214D01*
X17441071Y-18320214D01*
X17412500Y-18305929D01*
X17398214Y-18277357D01*
X17398214Y-18163072D01*
X17412500Y-18134500D01*
X17441071Y-18120214D01*
X17498214Y-18120214D01*
X17526786Y-18134500D01*
X17541071Y-18163072D01*
X17541071Y-18191643D01*
X17398214Y-18220214D01*
X17655357Y-18305929D02*
X17683928Y-18320214D01*
X17741071Y-18320214D01*
X17769643Y-18305929D01*
X17783928Y-18277357D01*
X17783928Y-18263072D01*
X17769643Y-18234500D01*
X17741071Y-18220214D01*
X17698214Y-18220214D01*
X17669643Y-18205929D01*
X17655357Y-18177357D01*
X17655357Y-18163072D01*
X17669643Y-18134500D01*
X17698214Y-18120214D01*
X17741071Y-18120214D01*
X17769643Y-18134500D01*
X17883928Y-18434500D02*
X17898214Y-18420214D01*
X17926786Y-18377357D01*
X17941071Y-18348786D01*
X17955357Y-18305929D01*
X17969643Y-18234500D01*
X17969643Y-18177357D01*
X17955357Y-18105929D01*
X17941071Y-18063072D01*
X17926786Y-18034500D01*
X17898214Y-17991643D01*
X17883928Y-17977357D01*
X11247500Y-18505500D02*
X11397500Y-18655500D01*
X11397500Y-18505500D02*
X11247500Y-18655500D01*
X11322500Y-18655500D02*
X11397500Y-18580500D01*
X11322500Y-18505500D01*
X11247500Y-18580500D01*
X11322500Y-18655500D01*
X11841071Y-18716214D02*
X11669643Y-18716214D01*
X11755357Y-18716214D02*
X11755357Y-18416214D01*
X11726786Y-18459072D01*
X11698214Y-18487643D01*
X11669643Y-18501929D01*
X11969643Y-18687643D02*
X11983928Y-18701929D01*
X11969643Y-18716214D01*
X11955357Y-18701929D01*
X11969643Y-18687643D01*
X11969643Y-18716214D01*
X12255357Y-18416214D02*
X12112500Y-18416214D01*
X12098214Y-18559072D01*
X12112500Y-18544786D01*
X12141071Y-18530500D01*
X12212500Y-18530500D01*
X12241071Y-18544786D01*
X12255357Y-18559072D01*
X12269643Y-18587643D01*
X12269643Y-18659072D01*
X12255357Y-18687643D01*
X12241071Y-18701929D01*
X12212500Y-18716214D01*
X12141071Y-18716214D01*
X12112500Y-18701929D01*
X12098214Y-18687643D01*
X12455357Y-18416214D02*
X12483928Y-18416214D01*
X12512500Y-18430500D01*
X12526786Y-18444786D01*
X12541071Y-18473357D01*
X12555357Y-18530500D01*
X12555357Y-18601929D01*
X12541071Y-18659072D01*
X12526786Y-18687643D01*
X12512500Y-18701929D01*
X12483928Y-18716214D01*
X12455357Y-18716214D01*
X12426786Y-18701929D01*
X12412500Y-18687643D01*
X12398214Y-18659072D01*
X12383928Y-18601929D01*
X12383928Y-18530500D01*
X12398214Y-18473357D01*
X12412500Y-18444786D01*
X12426786Y-18430500D01*
X12455357Y-18416214D01*
X12683928Y-18716214D02*
X12683928Y-18516214D01*
X12683928Y-18544786D02*
X12698214Y-18530500D01*
X12726786Y-18516214D01*
X12769643Y-18516214D01*
X12798214Y-18530500D01*
X12812500Y-18559072D01*
X12812500Y-18716214D01*
X12812500Y-18559072D02*
X12826786Y-18530500D01*
X12855357Y-18516214D01*
X12898214Y-18516214D01*
X12926786Y-18530500D01*
X12941071Y-18559072D01*
X12941071Y-18716214D01*
X13083928Y-18716214D02*
X13083928Y-18516214D01*
X13083928Y-18544786D02*
X13098214Y-18530500D01*
X13126786Y-18516214D01*
X13169643Y-18516214D01*
X13198214Y-18530500D01*
X13212500Y-18559072D01*
X13212500Y-18716214D01*
X13212500Y-18559072D02*
X13226786Y-18530500D01*
X13255357Y-18516214D01*
X13298214Y-18516214D01*
X13326786Y-18530500D01*
X13341071Y-18559072D01*
X13341071Y-18716214D01*
X13926786Y-18401929D02*
X13669643Y-18787643D01*
X14312500Y-18416214D02*
X14341071Y-18416214D01*
X14369643Y-18430500D01*
X14383928Y-18444786D01*
X14398214Y-18473357D01*
X14412500Y-18530500D01*
X14412500Y-18601929D01*
X14398214Y-18659072D01*
X14383928Y-18687643D01*
X14369643Y-18701929D01*
X14341071Y-18716214D01*
X14312500Y-18716214D01*
X14283928Y-18701929D01*
X14269643Y-18687643D01*
X14255357Y-18659072D01*
X14241071Y-18601929D01*
X14241071Y-18530500D01*
X14255357Y-18473357D01*
X14269643Y-18444786D01*
X14283928Y-18430500D01*
X14312500Y-18416214D01*
X14541071Y-18687643D02*
X14555357Y-18701929D01*
X14541071Y-18716214D01*
X14526786Y-18701929D01*
X14541071Y-18687643D01*
X14541071Y-18716214D01*
X14741071Y-18416214D02*
X14769643Y-18416214D01*
X14798214Y-18430500D01*
X14812500Y-18444786D01*
X14826786Y-18473357D01*
X14841071Y-18530500D01*
X14841071Y-18601929D01*
X14826786Y-18659072D01*
X14812500Y-18687643D01*
X14798214Y-18701929D01*
X14769643Y-18716214D01*
X14741071Y-18716214D01*
X14712500Y-18701929D01*
X14698214Y-18687643D01*
X14683928Y-18659072D01*
X14669643Y-18601929D01*
X14669643Y-18530500D01*
X14683928Y-18473357D01*
X14698214Y-18444786D01*
X14712500Y-18430500D01*
X14741071Y-18416214D01*
X15112500Y-18416214D02*
X14969643Y-18416214D01*
X14955357Y-18559072D01*
X14969643Y-18544786D01*
X14998214Y-18530500D01*
X15069643Y-18530500D01*
X15098214Y-18544786D01*
X15112500Y-18559072D01*
X15126786Y-18587643D01*
X15126786Y-18659072D01*
X15112500Y-18687643D01*
X15098214Y-18701929D01*
X15069643Y-18716214D01*
X14998214Y-18716214D01*
X14969643Y-18701929D01*
X14955357Y-18687643D01*
X15269643Y-18716214D02*
X15326786Y-18716214D01*
X15355357Y-18701929D01*
X15369643Y-18687643D01*
X15398214Y-18644786D01*
X15412500Y-18587643D01*
X15412500Y-18473357D01*
X15398214Y-18444786D01*
X15383928Y-18430500D01*
X15355357Y-18416214D01*
X15298214Y-18416214D01*
X15269643Y-18430500D01*
X15255357Y-18444786D01*
X15241071Y-18473357D01*
X15241071Y-18544786D01*
X15255357Y-18573357D01*
X15269643Y-18587643D01*
X15298214Y-18601929D01*
X15355357Y-18601929D01*
X15383928Y-18587643D01*
X15398214Y-18573357D01*
X15412500Y-18544786D01*
X15526786Y-18416214D02*
X15526786Y-18473357D01*
X15641071Y-18416214D02*
X15641071Y-18473357D01*
X16083928Y-18830500D02*
X16069643Y-18816214D01*
X16041071Y-18773357D01*
X16026786Y-18744786D01*
X16012500Y-18701929D01*
X15998214Y-18630500D01*
X15998214Y-18573357D01*
X16012500Y-18501929D01*
X16026786Y-18459072D01*
X16041071Y-18430500D01*
X16069643Y-18387643D01*
X16083928Y-18373357D01*
X16355357Y-18716214D02*
X16183928Y-18716214D01*
X16269643Y-18716214D02*
X16269643Y-18416214D01*
X16241071Y-18459072D01*
X16212500Y-18487643D01*
X16183928Y-18501929D01*
X16712500Y-18716214D02*
X16712500Y-18416214D01*
X16841071Y-18716214D02*
X16841071Y-18559072D01*
X16826786Y-18530500D01*
X16798214Y-18516214D01*
X16755357Y-18516214D01*
X16726786Y-18530500D01*
X16712500Y-18544786D01*
X17026786Y-18716214D02*
X16998214Y-18701929D01*
X16983928Y-18687643D01*
X16969643Y-18659072D01*
X16969643Y-18573357D01*
X16983928Y-18544786D01*
X16998214Y-18530500D01*
X17026786Y-18516214D01*
X17069643Y-18516214D01*
X17098214Y-18530500D01*
X17112500Y-18544786D01*
X17126786Y-18573357D01*
X17126786Y-18659072D01*
X17112500Y-18687643D01*
X17098214Y-18701929D01*
X17069643Y-18716214D01*
X17026786Y-18716214D01*
X17298214Y-18716214D02*
X17269643Y-18701929D01*
X17255357Y-18673357D01*
X17255357Y-18416214D01*
X17526786Y-18701929D02*
X17498214Y-18716214D01*
X17441071Y-18716214D01*
X17412500Y-18701929D01*
X17398214Y-18673357D01*
X17398214Y-18559072D01*
X17412500Y-18530500D01*
X17441071Y-18516214D01*
X17498214Y-18516214D01*
X17526786Y-18530500D01*
X17541071Y-18559072D01*
X17541071Y-18587643D01*
X17398214Y-18616214D01*
X17641071Y-18830500D02*
X17655357Y-18816214D01*
X17683928Y-18773357D01*
X17698214Y-18744786D01*
X17712500Y-18701929D01*
X17726786Y-18630500D01*
X17726786Y-18573357D01*
X17712500Y-18501929D01*
X17698214Y-18459072D01*
X17683928Y-18430500D01*
X17655357Y-18387643D01*
X17641071Y-18373357D01*
X11297500Y-18876500D02*
X11297500Y-19076500D01*
X11197500Y-18976500D02*
X11397500Y-18976500D01*
X11397500Y-18976500D02*
G75*
G03*
X11397500Y-18976500I-100000J0D01*
G01*
X11669643Y-18840786D02*
X11683928Y-18826500D01*
X11712500Y-18812214D01*
X11783928Y-18812214D01*
X11812500Y-18826500D01*
X11826786Y-18840786D01*
X11841071Y-18869357D01*
X11841071Y-18897929D01*
X11826786Y-18940786D01*
X11655357Y-19112214D01*
X11841071Y-19112214D01*
X11969643Y-19083643D02*
X11983928Y-19097929D01*
X11969643Y-19112214D01*
X11955357Y-19097929D01*
X11969643Y-19083643D01*
X11969643Y-19112214D01*
X12169643Y-18812214D02*
X12198214Y-18812214D01*
X12226786Y-18826500D01*
X12241071Y-18840786D01*
X12255357Y-18869357D01*
X12269643Y-18926500D01*
X12269643Y-18997929D01*
X12255357Y-19055072D01*
X12241071Y-19083643D01*
X12226786Y-19097929D01*
X12198214Y-19112214D01*
X12169643Y-19112214D01*
X12141071Y-19097929D01*
X12126786Y-19083643D01*
X12112500Y-19055072D01*
X12098214Y-18997929D01*
X12098214Y-18926500D01*
X12112500Y-18869357D01*
X12126786Y-18840786D01*
X12141071Y-18826500D01*
X12169643Y-18812214D01*
X12455357Y-18812214D02*
X12483928Y-18812214D01*
X12512500Y-18826500D01*
X12526786Y-18840786D01*
X12541071Y-18869357D01*
X12555357Y-18926500D01*
X12555357Y-18997929D01*
X12541071Y-19055072D01*
X12526786Y-19083643D01*
X12512500Y-19097929D01*
X12483928Y-19112214D01*
X12455357Y-19112214D01*
X12426786Y-19097929D01*
X12412500Y-19083643D01*
X12398214Y-19055072D01*
X12383928Y-18997929D01*
X12383928Y-18926500D01*
X12398214Y-18869357D01*
X12412500Y-18840786D01*
X12426786Y-18826500D01*
X12455357Y-18812214D01*
X12683928Y-19112214D02*
X12683928Y-18912214D01*
X12683928Y-18940786D02*
X12698214Y-18926500D01*
X12726786Y-18912214D01*
X12769643Y-18912214D01*
X12798214Y-18926500D01*
X12812500Y-18955072D01*
X12812500Y-19112214D01*
X12812500Y-18955072D02*
X12826786Y-18926500D01*
X12855357Y-18912214D01*
X12898214Y-18912214D01*
X12926786Y-18926500D01*
X12941071Y-18955072D01*
X12941071Y-19112214D01*
X13083928Y-19112214D02*
X13083928Y-18912214D01*
X13083928Y-18940786D02*
X13098214Y-18926500D01*
X13126786Y-18912214D01*
X13169643Y-18912214D01*
X13198214Y-18926500D01*
X13212500Y-18955072D01*
X13212500Y-19112214D01*
X13212500Y-18955072D02*
X13226786Y-18926500D01*
X13255357Y-18912214D01*
X13298214Y-18912214D01*
X13326786Y-18926500D01*
X13341071Y-18955072D01*
X13341071Y-19112214D01*
X13926786Y-18797929D02*
X13669643Y-19183643D01*
X14312500Y-18812214D02*
X14341071Y-18812214D01*
X14369643Y-18826500D01*
X14383928Y-18840786D01*
X14398214Y-18869357D01*
X14412500Y-18926500D01*
X14412500Y-18997929D01*
X14398214Y-19055072D01*
X14383928Y-19083643D01*
X14369643Y-19097929D01*
X14341071Y-19112214D01*
X14312500Y-19112214D01*
X14283928Y-19097929D01*
X14269643Y-19083643D01*
X14255357Y-19055072D01*
X14241071Y-18997929D01*
X14241071Y-18926500D01*
X14255357Y-18869357D01*
X14269643Y-18840786D01*
X14283928Y-18826500D01*
X14312500Y-18812214D01*
X14541071Y-19083643D02*
X14555357Y-19097929D01*
X14541071Y-19112214D01*
X14526786Y-19097929D01*
X14541071Y-19083643D01*
X14541071Y-19112214D01*
X14741071Y-18812214D02*
X14769643Y-18812214D01*
X14798214Y-18826500D01*
X14812500Y-18840786D01*
X14826786Y-18869357D01*
X14841071Y-18926500D01*
X14841071Y-18997929D01*
X14826786Y-19055072D01*
X14812500Y-19083643D01*
X14798214Y-19097929D01*
X14769643Y-19112214D01*
X14741071Y-19112214D01*
X14712500Y-19097929D01*
X14698214Y-19083643D01*
X14683928Y-19055072D01*
X14669643Y-18997929D01*
X14669643Y-18926500D01*
X14683928Y-18869357D01*
X14698214Y-18840786D01*
X14712500Y-18826500D01*
X14741071Y-18812214D01*
X14941071Y-18812214D02*
X15141071Y-18812214D01*
X15012500Y-19112214D01*
X15269643Y-19112214D02*
X15326786Y-19112214D01*
X15355357Y-19097929D01*
X15369643Y-19083643D01*
X15398214Y-19040786D01*
X15412500Y-18983643D01*
X15412500Y-18869357D01*
X15398214Y-18840786D01*
X15383928Y-18826500D01*
X15355357Y-18812214D01*
X15298214Y-18812214D01*
X15269643Y-18826500D01*
X15255357Y-18840786D01*
X15241071Y-18869357D01*
X15241071Y-18940786D01*
X15255357Y-18969357D01*
X15269643Y-18983643D01*
X15298214Y-18997929D01*
X15355357Y-18997929D01*
X15383928Y-18983643D01*
X15398214Y-18969357D01*
X15412500Y-18940786D01*
X15526786Y-18812214D02*
X15526786Y-18869357D01*
X15641071Y-18812214D02*
X15641071Y-18869357D01*
X16083928Y-19226500D02*
X16069643Y-19212214D01*
X16041071Y-19169357D01*
X16026786Y-19140786D01*
X16012500Y-19097929D01*
X15998214Y-19026500D01*
X15998214Y-18969357D01*
X16012500Y-18897929D01*
X16026786Y-18855072D01*
X16041071Y-18826500D01*
X16069643Y-18783643D01*
X16083928Y-18769357D01*
X16183928Y-18840786D02*
X16198214Y-18826500D01*
X16226786Y-18812214D01*
X16298214Y-18812214D01*
X16326786Y-18826500D01*
X16341071Y-18840786D01*
X16355357Y-18869357D01*
X16355357Y-18897929D01*
X16341071Y-18940786D01*
X16169643Y-19112214D01*
X16355357Y-19112214D01*
X16712500Y-19112214D02*
X16712500Y-18812214D01*
X16841071Y-19112214D02*
X16841071Y-18955072D01*
X16826786Y-18926500D01*
X16798214Y-18912214D01*
X16755357Y-18912214D01*
X16726786Y-18926500D01*
X16712500Y-18940786D01*
X17026786Y-19112214D02*
X16998214Y-19097929D01*
X16983928Y-19083643D01*
X16969643Y-19055072D01*
X16969643Y-18969357D01*
X16983928Y-18940786D01*
X16998214Y-18926500D01*
X17026786Y-18912214D01*
X17069643Y-18912214D01*
X17098214Y-18926500D01*
X17112500Y-18940786D01*
X17126786Y-18969357D01*
X17126786Y-19055072D01*
X17112500Y-19083643D01*
X17098214Y-19097929D01*
X17069643Y-19112214D01*
X17026786Y-19112214D01*
X17298214Y-19112214D02*
X17269643Y-19097929D01*
X17255357Y-19069357D01*
X17255357Y-18812214D01*
X17526786Y-19097929D02*
X17498214Y-19112214D01*
X17441071Y-19112214D01*
X17412500Y-19097929D01*
X17398214Y-19069357D01*
X17398214Y-18955072D01*
X17412500Y-18926500D01*
X17441071Y-18912214D01*
X17498214Y-18912214D01*
X17526786Y-18926500D01*
X17541071Y-18955072D01*
X17541071Y-18983643D01*
X17398214Y-19012214D01*
X17655357Y-19097929D02*
X17683928Y-19112214D01*
X17741071Y-19112214D01*
X17769643Y-19097929D01*
X17783928Y-19069357D01*
X17783928Y-19055072D01*
X17769643Y-19026500D01*
X17741071Y-19012214D01*
X17698214Y-19012214D01*
X17669643Y-18997929D01*
X17655357Y-18969357D01*
X17655357Y-18955072D01*
X17669643Y-18926500D01*
X17698214Y-18912214D01*
X17741071Y-18912214D01*
X17769643Y-18926500D01*
X17883928Y-19226500D02*
X17898214Y-19212214D01*
X17926786Y-19169357D01*
X17941071Y-19140786D01*
X17955357Y-19097929D01*
X17969643Y-19026500D01*
X17969643Y-18969357D01*
X17955357Y-18897929D01*
X17941071Y-18855072D01*
X17926786Y-18826500D01*
X17898214Y-18783643D01*
X17883928Y-18769357D01*
M02*
